<?xml version="1.0" encoding="utf-8"?>
<svg xmlns="http://www.w3.org/2000/svg" xmlns:xlink="http://www.w3.org/1999/xlink" width="600" height="400" viewBox="0 0 2400 1600">
<defs>
  <clipPath id="clip060">
    <rect x="0" y="0" width="2400" height="1600"/>
  </clipPath>
</defs>
<path clip-path="url(#clip060)" d="M0 1600 L2400 1600 L2400 0 L0 0  Z" fill="#ffffff" fill-rule="evenodd" fill-opacity="1"/>
<defs>
  <clipPath id="clip061">
    <rect x="480" y="0" width="1681" height="1600"/>
  </clipPath>
</defs>
<path clip-path="url(#clip060)" d="M249.542 1423.18 L2352.76 1423.18 L2352.76 123.472 L249.542 123.472  Z" fill="#ffffff" fill-rule="evenodd" fill-opacity="1"/>
<defs>
  <clipPath id="clip062">
    <rect x="249" y="123" width="2104" height="1301"/>
  </clipPath>
</defs>
<polyline clip-path="url(#clip062)" style="stroke:#000000; stroke-linecap:round; stroke-linejoin:round; stroke-width:2; stroke-opacity:0.1; fill:none" points="249.542,1423.18 249.542,123.472 "/>
<polyline clip-path="url(#clip062)" style="stroke:#000000; stroke-linecap:round; stroke-linejoin:round; stroke-width:2; stroke-opacity:0.1; fill:none" points="670.185,1423.18 670.185,123.472 "/>
<polyline clip-path="url(#clip062)" style="stroke:#000000; stroke-linecap:round; stroke-linejoin:round; stroke-width:2; stroke-opacity:0.1; fill:none" points="1090.83,1423.18 1090.83,123.472 "/>
<polyline clip-path="url(#clip062)" style="stroke:#000000; stroke-linecap:round; stroke-linejoin:round; stroke-width:2; stroke-opacity:0.1; fill:none" points="1511.47,1423.18 1511.47,123.472 "/>
<polyline clip-path="url(#clip062)" style="stroke:#000000; stroke-linecap:round; stroke-linejoin:round; stroke-width:2; stroke-opacity:0.1; fill:none" points="1932.11,1423.18 1932.11,123.472 "/>
<polyline clip-path="url(#clip060)" style="stroke:#000000; stroke-linecap:round; stroke-linejoin:round; stroke-width:4; stroke-opacity:1; fill:none" points="249.542,1423.18 2352.76,1423.18 "/>
<polyline clip-path="url(#clip060)" style="stroke:#000000; stroke-linecap:round; stroke-linejoin:round; stroke-width:4; stroke-opacity:1; fill:none" points="249.542,1423.18 249.542,1404.28 "/>
<polyline clip-path="url(#clip060)" style="stroke:#000000; stroke-linecap:round; stroke-linejoin:round; stroke-width:4; stroke-opacity:1; fill:none" points="670.185,1423.18 670.185,1404.28 "/>
<polyline clip-path="url(#clip060)" style="stroke:#000000; stroke-linecap:round; stroke-linejoin:round; stroke-width:4; stroke-opacity:1; fill:none" points="1090.83,1423.18 1090.83,1404.28 "/>
<polyline clip-path="url(#clip060)" style="stroke:#000000; stroke-linecap:round; stroke-linejoin:round; stroke-width:4; stroke-opacity:1; fill:none" points="1511.47,1423.18 1511.47,1404.28 "/>
<polyline clip-path="url(#clip060)" style="stroke:#000000; stroke-linecap:round; stroke-linejoin:round; stroke-width:4; stroke-opacity:1; fill:none" points="1932.11,1423.18 1932.11,1404.28 "/>
<path clip-path="url(#clip060)" d="M211.845 1454.1 Q208.234 1454.1 206.406 1457.66 Q204.6 1461.2 204.6 1468.33 Q204.6 1475.44 206.406 1479.01 Q208.234 1482.55 211.845 1482.55 Q215.48 1482.55 217.285 1479.01 Q219.114 1475.44 219.114 1468.33 Q219.114 1461.2 217.285 1457.66 Q215.48 1454.1 211.845 1454.1 M211.845 1450.39 Q217.656 1450.39 220.711 1455 Q223.79 1459.58 223.79 1468.33 Q223.79 1477.06 220.711 1481.67 Q217.656 1486.25 211.845 1486.25 Q206.035 1486.25 202.957 1481.67 Q199.901 1477.06 199.901 1468.33 Q199.901 1459.58 202.957 1455 Q206.035 1450.39 211.845 1450.39 Z" fill="#000000" fill-rule="nonzero" fill-opacity="1" /><path clip-path="url(#clip060)" d="M232.007 1479.7 L236.892 1479.7 L236.892 1485.58 L232.007 1485.58 L232.007 1479.7 Z" fill="#000000" fill-rule="nonzero" fill-opacity="1" /><path clip-path="url(#clip060)" d="M257.077 1454.1 Q253.466 1454.1 251.637 1457.66 Q249.831 1461.2 249.831 1468.33 Q249.831 1475.44 251.637 1479.01 Q253.466 1482.55 257.077 1482.55 Q260.711 1482.55 262.517 1479.01 Q264.345 1475.44 264.345 1468.33 Q264.345 1461.2 262.517 1457.66 Q260.711 1454.1 257.077 1454.1 M257.077 1450.39 Q262.887 1450.39 265.942 1455 Q269.021 1459.58 269.021 1468.33 Q269.021 1477.06 265.942 1481.67 Q262.887 1486.25 257.077 1486.25 Q251.267 1486.25 248.188 1481.67 Q245.132 1477.06 245.132 1468.33 Q245.132 1459.58 248.188 1455 Q251.267 1450.39 257.077 1450.39 Z" fill="#000000" fill-rule="nonzero" fill-opacity="1" /><path clip-path="url(#clip060)" d="M287.239 1454.1 Q283.627 1454.1 281.799 1457.66 Q279.993 1461.2 279.993 1468.33 Q279.993 1475.44 281.799 1479.01 Q283.627 1482.55 287.239 1482.55 Q290.873 1482.55 292.678 1479.01 Q294.507 1475.44 294.507 1468.33 Q294.507 1461.2 292.678 1457.66 Q290.873 1454.1 287.239 1454.1 M287.239 1450.39 Q293.049 1450.39 296.104 1455 Q299.183 1459.58 299.183 1468.33 Q299.183 1477.06 296.104 1481.67 Q293.049 1486.25 287.239 1486.25 Q281.428 1486.25 278.35 1481.67 Q275.294 1477.06 275.294 1468.33 Q275.294 1459.58 278.35 1455 Q281.428 1450.39 287.239 1450.39 Z" fill="#000000" fill-rule="nonzero" fill-opacity="1" /><path clip-path="url(#clip060)" d="M632.986 1454.1 Q629.375 1454.1 627.546 1457.66 Q625.741 1461.2 625.741 1468.33 Q625.741 1475.44 627.546 1479.01 Q629.375 1482.55 632.986 1482.55 Q636.62 1482.55 638.426 1479.01 Q640.254 1475.44 640.254 1468.33 Q640.254 1461.2 638.426 1457.66 Q636.62 1454.1 632.986 1454.1 M632.986 1450.39 Q638.796 1450.39 641.852 1455 Q644.93 1459.58 644.93 1468.33 Q644.93 1477.06 641.852 1481.67 Q638.796 1486.25 632.986 1486.25 Q627.176 1486.25 624.097 1481.67 Q621.042 1477.06 621.042 1468.33 Q621.042 1459.58 624.097 1455 Q627.176 1450.39 632.986 1450.39 Z" fill="#000000" fill-rule="nonzero" fill-opacity="1" /><path clip-path="url(#clip060)" d="M653.148 1479.7 L658.032 1479.7 L658.032 1485.58 L653.148 1485.58 L653.148 1479.7 Z" fill="#000000" fill-rule="nonzero" fill-opacity="1" /><path clip-path="url(#clip060)" d="M678.217 1454.1 Q674.606 1454.1 672.777 1457.66 Q670.972 1461.2 670.972 1468.33 Q670.972 1475.44 672.777 1479.01 Q674.606 1482.55 678.217 1482.55 Q681.851 1482.55 683.657 1479.01 Q685.486 1475.44 685.486 1468.33 Q685.486 1461.2 683.657 1457.66 Q681.851 1454.1 678.217 1454.1 M678.217 1450.39 Q684.027 1450.39 687.083 1455 Q690.162 1459.58 690.162 1468.33 Q690.162 1477.06 687.083 1481.67 Q684.027 1486.25 678.217 1486.25 Q672.407 1486.25 669.328 1481.67 Q666.273 1477.06 666.273 1468.33 Q666.273 1459.58 669.328 1455 Q672.407 1450.39 678.217 1450.39 Z" fill="#000000" fill-rule="nonzero" fill-opacity="1" /><path clip-path="url(#clip060)" d="M698.425 1451.02 L716.782 1451.02 L716.782 1454.96 L702.708 1454.96 L702.708 1463.43 Q703.726 1463.08 704.745 1462.92 Q705.763 1462.73 706.782 1462.73 Q712.569 1462.73 715.948 1465.9 Q719.328 1469.08 719.328 1474.49 Q719.328 1480.07 715.856 1483.17 Q712.384 1486.25 706.064 1486.25 Q703.888 1486.25 701.62 1485.88 Q699.374 1485.51 696.967 1484.77 L696.967 1480.07 Q699.05 1481.2 701.273 1481.76 Q703.495 1482.32 705.972 1482.32 Q709.976 1482.32 712.314 1480.21 Q714.652 1478.1 714.652 1474.49 Q714.652 1470.88 712.314 1468.77 Q709.976 1466.67 705.972 1466.67 Q704.097 1466.67 702.222 1467.08 Q700.37 1467.5 698.425 1468.38 L698.425 1451.02 Z" fill="#000000" fill-rule="nonzero" fill-opacity="1" /><path clip-path="url(#clip060)" d="M1053.13 1454.1 Q1049.52 1454.1 1047.69 1457.66 Q1045.89 1461.2 1045.89 1468.33 Q1045.89 1475.44 1047.69 1479.01 Q1049.52 1482.55 1053.13 1482.55 Q1056.77 1482.55 1058.57 1479.01 Q1060.4 1475.44 1060.4 1468.33 Q1060.4 1461.2 1058.57 1457.66 Q1056.77 1454.1 1053.13 1454.1 M1053.13 1450.39 Q1058.94 1450.39 1062 1455 Q1065.08 1459.58 1065.08 1468.33 Q1065.08 1477.06 1062 1481.67 Q1058.94 1486.25 1053.13 1486.25 Q1047.32 1486.25 1044.24 1481.67 Q1041.19 1477.06 1041.19 1468.33 Q1041.19 1459.58 1044.24 1455 Q1047.32 1450.39 1053.13 1450.39 Z" fill="#000000" fill-rule="nonzero" fill-opacity="1" /><path clip-path="url(#clip060)" d="M1073.29 1479.7 L1078.18 1479.7 L1078.18 1485.58 L1073.29 1485.58 L1073.29 1479.7 Z" fill="#000000" fill-rule="nonzero" fill-opacity="1" /><path clip-path="url(#clip060)" d="M1089.17 1481.64 L1096.81 1481.64 L1096.81 1455.28 L1088.5 1456.95 L1088.5 1452.69 L1096.77 1451.02 L1101.44 1451.02 L1101.44 1481.64 L1109.08 1481.64 L1109.08 1485.58 L1089.17 1485.58 L1089.17 1481.64 Z" fill="#000000" fill-rule="nonzero" fill-opacity="1" /><path clip-path="url(#clip060)" d="M1128.52 1454.1 Q1124.91 1454.1 1123.08 1457.66 Q1121.28 1461.2 1121.28 1468.33 Q1121.28 1475.44 1123.08 1479.01 Q1124.91 1482.55 1128.52 1482.55 Q1132.16 1482.55 1133.96 1479.01 Q1135.79 1475.44 1135.79 1468.33 Q1135.79 1461.2 1133.96 1457.66 Q1132.16 1454.1 1128.52 1454.1 M1128.52 1450.39 Q1134.33 1450.39 1137.39 1455 Q1140.47 1459.58 1140.47 1468.33 Q1140.47 1477.06 1137.39 1481.67 Q1134.33 1486.25 1128.52 1486.25 Q1122.71 1486.25 1119.64 1481.67 Q1116.58 1477.06 1116.58 1468.33 Q1116.58 1459.58 1119.64 1455 Q1122.71 1450.39 1128.52 1450.39 Z" fill="#000000" fill-rule="nonzero" fill-opacity="1" /><path clip-path="url(#clip060)" d="M1474.27 1454.1 Q1470.66 1454.1 1468.83 1457.66 Q1467.03 1461.2 1467.03 1468.33 Q1467.03 1475.44 1468.83 1479.01 Q1470.66 1482.55 1474.27 1482.55 Q1477.91 1482.55 1479.71 1479.01 Q1481.54 1475.44 1481.54 1468.33 Q1481.54 1461.2 1479.71 1457.66 Q1477.91 1454.1 1474.27 1454.1 M1474.27 1450.39 Q1480.08 1450.39 1483.14 1455 Q1486.22 1459.58 1486.22 1468.33 Q1486.22 1477.06 1483.14 1481.67 Q1480.08 1486.25 1474.27 1486.25 Q1468.46 1486.25 1465.38 1481.67 Q1462.33 1477.06 1462.33 1468.33 Q1462.33 1459.58 1465.38 1455 Q1468.46 1450.39 1474.27 1450.39 Z" fill="#000000" fill-rule="nonzero" fill-opacity="1" /><path clip-path="url(#clip060)" d="M1494.43 1479.7 L1499.32 1479.7 L1499.32 1485.58 L1494.43 1485.58 L1494.43 1479.7 Z" fill="#000000" fill-rule="nonzero" fill-opacity="1" /><path clip-path="url(#clip060)" d="M1510.31 1481.64 L1517.95 1481.64 L1517.95 1455.28 L1509.64 1456.95 L1509.64 1452.69 L1517.91 1451.02 L1522.58 1451.02 L1522.58 1481.64 L1530.22 1481.64 L1530.22 1485.58 L1510.31 1485.58 L1510.31 1481.64 Z" fill="#000000" fill-rule="nonzero" fill-opacity="1" /><path clip-path="url(#clip060)" d="M1539.71 1451.02 L1558.07 1451.02 L1558.07 1454.96 L1543.99 1454.96 L1543.99 1463.43 Q1545.01 1463.08 1546.03 1462.92 Q1547.05 1462.73 1548.07 1462.73 Q1553.85 1462.73 1557.23 1465.9 Q1560.61 1469.08 1560.61 1474.49 Q1560.61 1480.07 1557.14 1483.17 Q1553.67 1486.25 1547.35 1486.25 Q1545.17 1486.25 1542.91 1485.88 Q1540.66 1485.51 1538.25 1484.77 L1538.25 1480.07 Q1540.34 1481.2 1542.56 1481.76 Q1544.78 1482.32 1547.26 1482.32 Q1551.26 1482.32 1553.6 1480.21 Q1555.94 1478.1 1555.94 1474.49 Q1555.94 1470.88 1553.6 1468.77 Q1551.26 1466.67 1547.26 1466.67 Q1545.38 1466.67 1543.51 1467.08 Q1541.66 1467.5 1539.71 1468.38 L1539.71 1451.02 Z" fill="#000000" fill-rule="nonzero" fill-opacity="1" /><path clip-path="url(#clip060)" d="M1894.42 1454.1 Q1890.81 1454.1 1888.98 1457.66 Q1887.17 1461.2 1887.17 1468.33 Q1887.17 1475.44 1888.98 1479.01 Q1890.81 1482.55 1894.42 1482.55 Q1898.05 1482.55 1899.86 1479.01 Q1901.69 1475.44 1901.69 1468.33 Q1901.69 1461.2 1899.86 1457.66 Q1898.05 1454.1 1894.42 1454.1 M1894.42 1450.39 Q1900.23 1450.39 1903.28 1455 Q1906.36 1459.58 1906.36 1468.33 Q1906.36 1477.06 1903.28 1481.67 Q1900.23 1486.25 1894.42 1486.25 Q1888.61 1486.25 1885.53 1481.67 Q1882.47 1477.06 1882.47 1468.33 Q1882.47 1459.58 1885.53 1455 Q1888.61 1450.39 1894.42 1450.39 Z" fill="#000000" fill-rule="nonzero" fill-opacity="1" /><path clip-path="url(#clip060)" d="M1914.58 1479.7 L1919.46 1479.7 L1919.46 1485.58 L1914.58 1485.58 L1914.58 1479.7 Z" fill="#000000" fill-rule="nonzero" fill-opacity="1" /><path clip-path="url(#clip060)" d="M1933.68 1481.64 L1949.99 1481.64 L1949.99 1485.58 L1928.05 1485.58 L1928.05 1481.64 Q1930.71 1478.89 1935.3 1474.26 Q1939.9 1469.61 1941.08 1468.27 Q1943.33 1465.74 1944.21 1464.01 Q1945.11 1462.25 1945.11 1460.56 Q1945.11 1457.8 1943.17 1456.07 Q1941.25 1454.33 1938.14 1454.33 Q1935.94 1454.33 1933.49 1455.09 Q1931.06 1455.86 1928.28 1457.41 L1928.28 1452.69 Q1931.11 1451.55 1933.56 1450.97 Q1936.01 1450.39 1938.05 1450.39 Q1943.42 1450.39 1946.62 1453.08 Q1949.81 1455.77 1949.81 1460.26 Q1949.81 1462.39 1949 1464.31 Q1948.21 1466.2 1946.11 1468.8 Q1945.53 1469.47 1942.43 1472.69 Q1939.32 1475.88 1933.68 1481.64 Z" fill="#000000" fill-rule="nonzero" fill-opacity="1" /><path clip-path="url(#clip060)" d="M1969.81 1454.1 Q1966.2 1454.1 1964.37 1457.66 Q1962.56 1461.2 1962.56 1468.33 Q1962.56 1475.44 1964.37 1479.01 Q1966.2 1482.55 1969.81 1482.55 Q1973.44 1482.55 1975.25 1479.01 Q1977.08 1475.44 1977.08 1468.33 Q1977.08 1461.2 1975.25 1457.66 Q1973.44 1454.1 1969.81 1454.1 M1969.81 1450.39 Q1975.62 1450.39 1978.68 1455 Q1981.75 1459.58 1981.75 1468.33 Q1981.75 1477.06 1978.68 1481.67 Q1975.62 1486.25 1969.81 1486.25 Q1964 1486.25 1960.92 1481.67 Q1957.87 1477.06 1957.87 1468.33 Q1957.87 1459.58 1960.92 1455 Q1964 1450.39 1969.81 1450.39 Z" fill="#000000" fill-rule="nonzero" fill-opacity="1" /><path clip-path="url(#clip060)" d="M1026.53 1522.08 L1026.53 1528.35 Q1022.87 1526.6 1019.63 1525.74 Q1016.38 1524.88 1013.36 1524.88 Q1008.1 1524.88 1005.24 1526.92 Q1002.41 1528.96 1002.41 1532.71 Q1002.41 1535.87 1004.28 1537.49 Q1006.19 1539.08 1011.48 1540.07 L1015.36 1540.86 Q1022.55 1542.23 1025.96 1545.7 Q1029.4 1549.14 1029.4 1554.93 Q1029.4 1561.84 1024.75 1565.4 Q1020.13 1568.97 1011.19 1568.97 Q1007.82 1568.97 1004 1568.2 Q1000.21 1567.44 996.136 1565.94 L996.136 1559.32 Q1000.05 1561.52 1003.81 1562.63 Q1007.56 1563.75 1011.19 1563.75 Q1016.7 1563.75 1019.69 1561.58 Q1022.68 1559.42 1022.68 1555.41 Q1022.68 1551.91 1020.52 1549.93 Q1018.38 1547.96 1013.48 1546.97 L1009.57 1546.21 Q1002.37 1544.78 999.16 1541.72 Q995.945 1538.67 995.945 1533.22 Q995.945 1526.92 1000.37 1523.29 Q1004.83 1519.66 1012.62 1519.66 Q1015.97 1519.66 1019.43 1520.27 Q1022.9 1520.87 1026.53 1522.08 Z" fill="#000000" fill-rule="nonzero" fill-opacity="1" /><path clip-path="url(#clip060)" d="M1044.96 1522.27 L1044.96 1532.4 L1057.02 1532.4 L1057.02 1536.95 L1044.96 1536.95 L1044.96 1556.3 Q1044.96 1560.66 1046.14 1561.9 Q1047.35 1563.14 1051.01 1563.14 L1057.02 1563.14 L1057.02 1568.04 L1051.01 1568.04 Q1044.23 1568.04 1041.65 1565.53 Q1039.07 1562.98 1039.07 1556.3 L1039.07 1536.95 L1034.78 1536.95 L1034.78 1532.4 L1039.07 1532.4 L1039.07 1522.27 L1044.96 1522.27 Z" fill="#000000" fill-rule="nonzero" fill-opacity="1" /><path clip-path="url(#clip060)" d="M1080.93 1550.12 Q1073.83 1550.12 1071.09 1551.75 Q1068.36 1553.37 1068.36 1557.29 Q1068.36 1560.4 1070.39 1562.25 Q1072.46 1564.07 1075.99 1564.07 Q1080.86 1564.07 1083.79 1560.63 Q1086.75 1557.16 1086.75 1551.43 L1086.75 1550.12 L1080.93 1550.12 M1092.61 1547.71 L1092.61 1568.04 L1086.75 1568.04 L1086.75 1562.63 Q1084.75 1565.88 1081.75 1567.44 Q1078.76 1568.97 1074.43 1568.97 Q1068.96 1568.97 1065.71 1565.91 Q1062.5 1562.82 1062.5 1557.67 Q1062.5 1551.65 1066.51 1548.6 Q1070.55 1545.54 1078.54 1545.54 L1086.75 1545.54 L1086.75 1544.97 Q1086.75 1540.93 1084.08 1538.73 Q1081.44 1536.5 1076.63 1536.5 Q1073.57 1536.5 1070.68 1537.23 Q1067.78 1537.97 1065.11 1539.43 L1065.11 1534.02 Q1068.32 1532.78 1071.35 1532.17 Q1074.37 1531.54 1077.24 1531.54 Q1084.97 1531.54 1088.79 1535.55 Q1092.61 1539.56 1092.61 1547.71 Z" fill="#000000" fill-rule="nonzero" fill-opacity="1" /><path clip-path="url(#clip060)" d="M1134.3 1546.53 L1134.3 1568.04 L1128.45 1568.04 L1128.45 1546.72 Q1128.45 1541.66 1126.47 1539.14 Q1124.5 1536.63 1120.55 1536.63 Q1115.81 1536.63 1113.07 1539.65 Q1110.34 1542.68 1110.34 1547.9 L1110.34 1568.04 L1104.45 1568.04 L1104.45 1532.4 L1110.34 1532.4 L1110.34 1537.93 Q1112.44 1534.72 1115.27 1533.13 Q1118.13 1531.54 1121.86 1531.54 Q1128 1531.54 1131.15 1535.36 Q1134.3 1539.14 1134.3 1546.53 Z" fill="#000000" fill-rule="nonzero" fill-opacity="1" /><path clip-path="url(#clip060)" d="M1169.44 1537.81 L1169.44 1518.52 L1175.3 1518.52 L1175.3 1568.04 L1169.44 1568.04 L1169.44 1562.7 Q1167.6 1565.88 1164.76 1567.44 Q1161.96 1568.97 1158.02 1568.97 Q1151.55 1568.97 1147.48 1563.81 Q1143.44 1558.65 1143.44 1550.25 Q1143.44 1541.85 1147.48 1536.69 Q1151.55 1531.54 1158.02 1531.54 Q1161.96 1531.54 1164.76 1533.1 Q1167.6 1534.62 1169.44 1537.81 M1149.49 1550.25 Q1149.49 1556.71 1152.13 1560.4 Q1154.8 1564.07 1159.45 1564.07 Q1164.1 1564.07 1166.77 1560.4 Q1169.44 1556.71 1169.44 1550.25 Q1169.44 1543.79 1166.77 1540.13 Q1164.1 1536.44 1159.45 1536.44 Q1154.8 1536.44 1152.13 1540.13 Q1149.49 1543.79 1149.49 1550.25 Z" fill="#000000" fill-rule="nonzero" fill-opacity="1" /><path clip-path="url(#clip060)" d="M1203.56 1550.12 Q1196.46 1550.12 1193.73 1551.75 Q1190.99 1553.37 1190.99 1557.29 Q1190.99 1560.4 1193.03 1562.25 Q1195.1 1564.07 1198.63 1564.07 Q1203.5 1564.07 1206.43 1560.63 Q1209.39 1557.16 1209.39 1551.43 L1209.39 1550.12 L1203.56 1550.12 M1215.24 1547.71 L1215.24 1568.04 L1209.39 1568.04 L1209.39 1562.63 Q1207.38 1565.88 1204.39 1567.44 Q1201.4 1568.97 1197.07 1568.97 Q1191.6 1568.97 1188.35 1565.91 Q1185.13 1562.82 1185.13 1557.67 Q1185.13 1551.65 1189.14 1548.6 Q1193.19 1545.54 1201.18 1545.54 L1209.39 1545.54 L1209.39 1544.97 Q1209.39 1540.93 1206.71 1538.73 Q1204.07 1536.5 1199.27 1536.5 Q1196.21 1536.5 1193.31 1537.23 Q1190.42 1537.97 1187.74 1539.43 L1187.74 1534.02 Q1190.96 1532.78 1193.98 1532.17 Q1197.01 1531.54 1199.87 1531.54 Q1207.6 1531.54 1211.42 1535.55 Q1215.24 1539.56 1215.24 1547.71 Z" fill="#000000" fill-rule="nonzero" fill-opacity="1" /><path clip-path="url(#clip060)" d="M1247.96 1537.87 Q1246.98 1537.3 1245.8 1537.04 Q1244.65 1536.76 1243.25 1536.76 Q1238.29 1536.76 1235.61 1540 Q1232.97 1543.22 1232.97 1549.27 L1232.97 1568.04 L1227.08 1568.04 L1227.08 1532.4 L1232.97 1532.4 L1232.97 1537.93 Q1234.82 1534.69 1237.78 1533.13 Q1240.74 1531.54 1244.97 1531.54 Q1245.58 1531.54 1246.31 1531.63 Q1247.04 1531.7 1247.93 1531.85 L1247.96 1537.87 Z" fill="#000000" fill-rule="nonzero" fill-opacity="1" /><path clip-path="url(#clip060)" d="M1276.42 1537.81 L1276.42 1518.52 L1282.27 1518.52 L1282.27 1568.04 L1276.42 1568.04 L1276.42 1562.7 Q1274.57 1565.88 1271.74 1567.44 Q1268.94 1568.97 1264.99 1568.97 Q1258.53 1568.97 1254.46 1563.81 Q1250.41 1558.65 1250.41 1550.25 Q1250.41 1541.85 1254.46 1536.69 Q1258.53 1531.54 1264.99 1531.54 Q1268.94 1531.54 1271.74 1533.1 Q1274.57 1534.62 1276.42 1537.81 M1256.46 1550.25 Q1256.46 1556.71 1259.1 1560.4 Q1261.78 1564.07 1266.42 1564.07 Q1271.07 1564.07 1273.74 1560.4 Q1276.42 1556.71 1276.42 1550.25 Q1276.42 1543.79 1273.74 1540.13 Q1271.07 1536.44 1266.42 1536.44 Q1261.78 1536.44 1259.1 1540.13 Q1256.46 1543.79 1256.46 1550.25 Z" fill="#000000" fill-rule="nonzero" fill-opacity="1" /><path clip-path="url(#clip060)" d="M1338.52 1537.81 L1338.52 1518.52 L1344.37 1518.52 L1344.37 1568.04 L1338.52 1568.04 L1338.52 1562.7 Q1336.67 1565.88 1333.84 1567.44 Q1331.04 1568.97 1327.09 1568.97 Q1320.63 1568.97 1316.55 1563.81 Q1312.51 1558.65 1312.51 1550.25 Q1312.51 1541.85 1316.55 1536.69 Q1320.63 1531.54 1327.09 1531.54 Q1331.04 1531.54 1333.84 1533.1 Q1336.67 1534.62 1338.52 1537.81 M1318.56 1550.25 Q1318.56 1556.71 1321.2 1560.4 Q1323.87 1564.07 1328.52 1564.07 Q1333.17 1564.07 1335.84 1560.4 Q1338.52 1556.71 1338.52 1550.25 Q1338.52 1543.79 1335.84 1540.13 Q1333.17 1536.44 1328.52 1536.44 Q1323.87 1536.44 1321.2 1540.13 Q1318.56 1543.79 1318.56 1550.25 Z" fill="#000000" fill-rule="nonzero" fill-opacity="1" /><path clip-path="url(#clip060)" d="M1386.93 1548.76 L1386.93 1551.62 L1360 1551.62 Q1360.38 1557.67 1363.63 1560.85 Q1366.91 1564 1372.73 1564 Q1376.11 1564 1379.26 1563.17 Q1382.44 1562.35 1385.56 1560.69 L1385.56 1566.23 Q1382.41 1567.57 1379.1 1568.27 Q1375.79 1568.97 1372.38 1568.97 Q1363.85 1568.97 1358.85 1564 Q1353.89 1559.04 1353.89 1550.57 Q1353.89 1541.82 1358.6 1536.69 Q1363.34 1531.54 1371.36 1531.54 Q1378.56 1531.54 1382.73 1536.18 Q1386.93 1540.8 1386.93 1548.76 M1381.07 1547.04 Q1381.01 1542.23 1378.36 1539.37 Q1375.76 1536.5 1371.43 1536.5 Q1366.52 1536.5 1363.56 1539.27 Q1360.64 1542.04 1360.19 1547.07 L1381.07 1547.04 Z" fill="#000000" fill-rule="nonzero" fill-opacity="1" /><path clip-path="url(#clip060)" d="M1392.34 1532.4 L1398.54 1532.4 L1409.68 1562.31 L1420.82 1532.4 L1427.03 1532.4 L1413.66 1568.04 L1405.71 1568.04 L1392.34 1532.4 Z" fill="#000000" fill-rule="nonzero" fill-opacity="1" /><path clip-path="url(#clip060)" d="M1435.12 1532.4 L1440.97 1532.4 L1440.97 1568.04 L1435.12 1568.04 L1435.12 1532.4 M1435.12 1518.52 L1440.97 1518.52 L1440.97 1525.93 L1435.12 1525.93 L1435.12 1518.52 Z" fill="#000000" fill-rule="nonzero" fill-opacity="1" /><path clip-path="url(#clip060)" d="M1469.43 1550.12 Q1462.33 1550.12 1459.59 1551.75 Q1456.85 1553.37 1456.85 1557.29 Q1456.85 1560.4 1458.89 1562.25 Q1460.96 1564.07 1464.49 1564.07 Q1469.36 1564.07 1472.29 1560.63 Q1475.25 1557.16 1475.25 1551.43 L1475.25 1550.12 L1469.43 1550.12 M1481.11 1547.71 L1481.11 1568.04 L1475.25 1568.04 L1475.25 1562.63 Q1473.25 1565.88 1470.25 1567.44 Q1467.26 1568.97 1462.93 1568.97 Q1457.46 1568.97 1454.21 1565.91 Q1451 1562.82 1451 1557.67 Q1451 1551.65 1455.01 1548.6 Q1459.05 1545.54 1467.04 1545.54 L1475.25 1545.54 L1475.25 1544.97 Q1475.25 1540.93 1472.58 1538.73 Q1469.94 1536.5 1465.13 1536.5 Q1462.07 1536.5 1459.18 1537.23 Q1456.28 1537.97 1453.61 1539.43 L1453.61 1534.02 Q1456.82 1532.78 1459.85 1532.17 Q1462.87 1531.54 1465.73 1531.54 Q1473.47 1531.54 1477.29 1535.55 Q1481.11 1539.56 1481.11 1547.71 Z" fill="#000000" fill-rule="nonzero" fill-opacity="1" /><path clip-path="url(#clip060)" d="M1498.96 1522.27 L1498.96 1532.4 L1511.03 1532.4 L1511.03 1536.95 L1498.96 1536.95 L1498.96 1556.3 Q1498.96 1560.66 1500.14 1561.9 Q1501.35 1563.14 1505.01 1563.14 L1511.03 1563.14 L1511.03 1568.04 L1505.01 1568.04 Q1498.23 1568.04 1495.65 1565.53 Q1493.08 1562.98 1493.08 1556.3 L1493.08 1536.95 L1488.78 1536.95 L1488.78 1532.4 L1493.08 1532.4 L1493.08 1522.27 L1498.96 1522.27 Z" fill="#000000" fill-rule="nonzero" fill-opacity="1" /><path clip-path="url(#clip060)" d="M1518.73 1532.4 L1524.59 1532.4 L1524.59 1568.04 L1518.73 1568.04 L1518.73 1532.4 M1518.73 1518.52 L1524.59 1518.52 L1524.59 1525.93 L1518.73 1525.93 L1518.73 1518.52 Z" fill="#000000" fill-rule="nonzero" fill-opacity="1" /><path clip-path="url(#clip060)" d="M1550.65 1536.5 Q1545.94 1536.5 1543.2 1540.19 Q1540.47 1543.85 1540.47 1550.25 Q1540.47 1556.65 1543.17 1560.34 Q1545.91 1564 1550.65 1564 Q1555.33 1564 1558.07 1560.31 Q1560.81 1556.62 1560.81 1550.25 Q1560.81 1543.92 1558.07 1540.23 Q1555.33 1536.5 1550.65 1536.5 M1550.65 1531.54 Q1558.29 1531.54 1562.65 1536.5 Q1567.01 1541.47 1567.01 1550.25 Q1567.01 1559 1562.65 1564 Q1558.29 1568.97 1550.65 1568.97 Q1542.98 1568.97 1538.62 1564 Q1534.29 1559 1534.29 1550.25 Q1534.29 1541.47 1538.62 1536.5 Q1542.98 1531.54 1550.65 1531.54 Z" fill="#000000" fill-rule="nonzero" fill-opacity="1" /><path clip-path="url(#clip060)" d="M1606.35 1546.53 L1606.35 1568.04 L1600.5 1568.04 L1600.5 1546.72 Q1600.5 1541.66 1598.52 1539.14 Q1596.55 1536.63 1592.6 1536.63 Q1587.86 1536.63 1585.12 1539.65 Q1582.39 1542.68 1582.39 1547.9 L1582.39 1568.04 L1576.5 1568.04 L1576.5 1532.4 L1582.39 1532.4 L1582.39 1537.93 Q1584.49 1534.72 1587.32 1533.13 Q1590.18 1531.54 1593.91 1531.54 Q1600.05 1531.54 1603.2 1535.36 Q1606.35 1539.14 1606.35 1546.53 Z" fill="#000000" fill-rule="nonzero" fill-opacity="1" /><polyline clip-path="url(#clip062)" style="stroke:#000000; stroke-linecap:round; stroke-linejoin:round; stroke-width:2; stroke-opacity:0.1; fill:none" points="249.542,1423.18 2352.76,1423.18 "/>
<polyline clip-path="url(#clip062)" style="stroke:#000000; stroke-linecap:round; stroke-linejoin:round; stroke-width:2; stroke-opacity:0.1; fill:none" points="249.542,989.944 2352.76,989.944 "/>
<polyline clip-path="url(#clip062)" style="stroke:#000000; stroke-linecap:round; stroke-linejoin:round; stroke-width:2; stroke-opacity:0.1; fill:none" points="249.542,556.708 2352.76,556.708 "/>
<polyline clip-path="url(#clip062)" style="stroke:#000000; stroke-linecap:round; stroke-linejoin:round; stroke-width:2; stroke-opacity:0.1; fill:none" points="249.542,123.472 2352.76,123.472 "/>
<polyline clip-path="url(#clip060)" style="stroke:#000000; stroke-linecap:round; stroke-linejoin:round; stroke-width:4; stroke-opacity:1; fill:none" points="249.542,1423.18 249.542,123.472 "/>
<polyline clip-path="url(#clip060)" style="stroke:#000000; stroke-linecap:round; stroke-linejoin:round; stroke-width:4; stroke-opacity:1; fill:none" points="249.542,1423.18 268.44,1423.18 "/>
<polyline clip-path="url(#clip060)" style="stroke:#000000; stroke-linecap:round; stroke-linejoin:round; stroke-width:4; stroke-opacity:1; fill:none" points="249.542,989.944 268.44,989.944 "/>
<polyline clip-path="url(#clip060)" style="stroke:#000000; stroke-linecap:round; stroke-linejoin:round; stroke-width:4; stroke-opacity:1; fill:none" points="249.542,556.708 268.44,556.708 "/>
<polyline clip-path="url(#clip060)" style="stroke:#000000; stroke-linecap:round; stroke-linejoin:round; stroke-width:4; stroke-opacity:1; fill:none" points="249.542,123.472 268.44,123.472 "/>
<path clip-path="url(#clip060)" d="M126.205 1408.98 Q122.593 1408.98 120.765 1412.54 Q118.959 1416.08 118.959 1423.21 Q118.959 1430.32 120.765 1433.89 Q122.593 1437.43 126.205 1437.43 Q129.839 1437.43 131.644 1433.89 Q133.473 1430.32 133.473 1423.21 Q133.473 1416.08 131.644 1412.54 Q129.839 1408.98 126.205 1408.98 M126.205 1405.27 Q132.015 1405.27 135.07 1409.88 Q138.149 1414.46 138.149 1423.21 Q138.149 1431.94 135.07 1436.55 Q132.015 1441.13 126.205 1441.13 Q120.394 1441.13 117.316 1436.55 Q114.26 1431.94 114.26 1423.21 Q114.26 1414.46 117.316 1409.88 Q120.394 1405.27 126.205 1405.27 Z" fill="#000000" fill-rule="nonzero" fill-opacity="1" /><path clip-path="url(#clip060)" d="M146.366 1434.58 L151.251 1434.58 L151.251 1440.46 L146.366 1440.46 L146.366 1434.58 Z" fill="#000000" fill-rule="nonzero" fill-opacity="1" /><path clip-path="url(#clip060)" d="M171.436 1408.98 Q167.825 1408.98 165.996 1412.54 Q164.19 1416.08 164.19 1423.21 Q164.19 1430.32 165.996 1433.89 Q167.825 1437.43 171.436 1437.43 Q175.07 1437.43 176.876 1433.89 Q178.704 1430.32 178.704 1423.21 Q178.704 1416.08 176.876 1412.54 Q175.07 1408.98 171.436 1408.98 M171.436 1405.27 Q177.246 1405.27 180.301 1409.88 Q183.38 1414.46 183.38 1423.21 Q183.38 1431.94 180.301 1436.55 Q177.246 1441.13 171.436 1441.13 Q165.626 1441.13 162.547 1436.55 Q159.491 1431.94 159.491 1423.21 Q159.491 1414.46 162.547 1409.88 Q165.626 1405.27 171.436 1405.27 Z" fill="#000000" fill-rule="nonzero" fill-opacity="1" /><path clip-path="url(#clip060)" d="M201.598 1408.98 Q197.987 1408.98 196.158 1412.54 Q194.352 1416.08 194.352 1423.21 Q194.352 1430.32 196.158 1433.89 Q197.987 1437.43 201.598 1437.43 Q205.232 1437.43 207.037 1433.89 Q208.866 1430.32 208.866 1423.21 Q208.866 1416.08 207.037 1412.54 Q205.232 1408.98 201.598 1408.98 M201.598 1405.27 Q207.408 1405.27 210.463 1409.88 Q213.542 1414.46 213.542 1423.21 Q213.542 1431.94 210.463 1436.55 Q207.408 1441.13 201.598 1441.13 Q195.787 1441.13 192.709 1436.55 Q189.653 1431.94 189.653 1423.21 Q189.653 1414.46 192.709 1409.88 Q195.787 1405.27 201.598 1405.27 Z" fill="#000000" fill-rule="nonzero" fill-opacity="1" /><path clip-path="url(#clip060)" d="M127.2 975.743 Q123.589 975.743 121.76 979.307 Q119.955 982.849 119.955 989.979 Q119.955 997.085 121.76 1000.65 Q123.589 1004.19 127.2 1004.19 Q130.834 1004.19 132.64 1000.65 Q134.468 997.085 134.468 989.979 Q134.468 982.849 132.64 979.307 Q130.834 975.743 127.2 975.743 M127.2 972.039 Q133.01 972.039 136.066 976.645 Q139.144 981.229 139.144 989.979 Q139.144 998.705 136.066 1003.31 Q133.01 1007.9 127.2 1007.9 Q121.39 1007.9 118.311 1003.31 Q115.256 998.705 115.256 989.979 Q115.256 981.229 118.311 976.645 Q121.39 972.039 127.2 972.039 Z" fill="#000000" fill-rule="nonzero" fill-opacity="1" /><path clip-path="url(#clip060)" d="M147.362 1001.34 L152.246 1001.34 L152.246 1007.22 L147.362 1007.22 L147.362 1001.34 Z" fill="#000000" fill-rule="nonzero" fill-opacity="1" /><path clip-path="url(#clip060)" d="M172.431 975.743 Q168.82 975.743 166.991 979.307 Q165.186 982.849 165.186 989.979 Q165.186 997.085 166.991 1000.65 Q168.82 1004.19 172.431 1004.19 Q176.065 1004.19 177.871 1000.65 Q179.7 997.085 179.7 989.979 Q179.7 982.849 177.871 979.307 Q176.065 975.743 172.431 975.743 M172.431 972.039 Q178.241 972.039 181.297 976.645 Q184.376 981.229 184.376 989.979 Q184.376 998.705 181.297 1003.31 Q178.241 1007.9 172.431 1007.9 Q166.621 1007.9 163.542 1003.31 Q160.487 998.705 160.487 989.979 Q160.487 981.229 163.542 976.645 Q166.621 972.039 172.431 972.039 Z" fill="#000000" fill-rule="nonzero" fill-opacity="1" /><path clip-path="url(#clip060)" d="M192.639 972.664 L210.996 972.664 L210.996 976.599 L196.922 976.599 L196.922 985.071 Q197.94 984.724 198.959 984.562 Q199.977 984.377 200.996 984.377 Q206.783 984.377 210.162 987.548 Q213.542 990.719 213.542 996.136 Q213.542 1001.71 210.07 1004.82 Q206.598 1007.9 200.278 1007.9 Q198.102 1007.9 195.834 1007.52 Q193.588 1007.15 191.181 1006.41 L191.181 1001.71 Q193.264 1002.85 195.487 1003.4 Q197.709 1003.96 200.186 1003.96 Q204.19 1003.96 206.528 1001.85 Q208.866 999.747 208.866 996.136 Q208.866 992.525 206.528 990.418 Q204.19 988.312 200.186 988.312 Q198.311 988.312 196.436 988.729 Q194.584 989.145 192.639 990.025 L192.639 972.664 Z" fill="#000000" fill-rule="nonzero" fill-opacity="1" /><path clip-path="url(#clip060)" d="M126.205 542.507 Q122.593 542.507 120.765 546.072 Q118.959 549.613 118.959 556.743 Q118.959 563.849 120.765 567.414 Q122.593 570.956 126.205 570.956 Q129.839 570.956 131.644 567.414 Q133.473 563.849 133.473 556.743 Q133.473 549.613 131.644 546.072 Q129.839 542.507 126.205 542.507 M126.205 538.803 Q132.015 538.803 135.07 543.409 Q138.149 547.993 138.149 556.743 Q138.149 565.47 135.07 570.076 Q132.015 574.659 126.205 574.659 Q120.394 574.659 117.316 570.076 Q114.26 565.47 114.26 556.743 Q114.26 547.993 117.316 543.409 Q120.394 538.803 126.205 538.803 Z" fill="#000000" fill-rule="nonzero" fill-opacity="1" /><path clip-path="url(#clip060)" d="M146.366 568.108 L151.251 568.108 L151.251 573.988 L146.366 573.988 L146.366 568.108 Z" fill="#000000" fill-rule="nonzero" fill-opacity="1" /><path clip-path="url(#clip060)" d="M162.246 570.053 L169.885 570.053 L169.885 543.687 L161.575 545.354 L161.575 541.095 L169.839 539.428 L174.514 539.428 L174.514 570.053 L182.153 570.053 L182.153 573.988 L162.246 573.988 L162.246 570.053 Z" fill="#000000" fill-rule="nonzero" fill-opacity="1" /><path clip-path="url(#clip060)" d="M201.598 542.507 Q197.987 542.507 196.158 546.072 Q194.352 549.613 194.352 556.743 Q194.352 563.849 196.158 567.414 Q197.987 570.956 201.598 570.956 Q205.232 570.956 207.037 567.414 Q208.866 563.849 208.866 556.743 Q208.866 549.613 207.037 546.072 Q205.232 542.507 201.598 542.507 M201.598 538.803 Q207.408 538.803 210.463 543.409 Q213.542 547.993 213.542 556.743 Q213.542 565.47 210.463 570.076 Q207.408 574.659 201.598 574.659 Q195.787 574.659 192.709 570.076 Q189.653 565.47 189.653 556.743 Q189.653 547.993 192.709 543.409 Q195.787 538.803 201.598 538.803 Z" fill="#000000" fill-rule="nonzero" fill-opacity="1" /><path clip-path="url(#clip060)" d="M127.2 109.271 Q123.589 109.271 121.76 112.836 Q119.955 116.377 119.955 123.507 Q119.955 130.613 121.76 134.178 Q123.589 137.72 127.2 137.72 Q130.834 137.72 132.64 134.178 Q134.468 130.613 134.468 123.507 Q134.468 116.377 132.64 112.836 Q130.834 109.271 127.2 109.271 M127.2 105.567 Q133.01 105.567 136.066 110.174 Q139.144 114.757 139.144 123.507 Q139.144 132.234 136.066 136.84 Q133.01 141.423 127.2 141.423 Q121.39 141.423 118.311 136.84 Q115.256 132.234 115.256 123.507 Q115.256 114.757 118.311 110.174 Q121.39 105.567 127.2 105.567 Z" fill="#000000" fill-rule="nonzero" fill-opacity="1" /><path clip-path="url(#clip060)" d="M147.362 134.873 L152.246 134.873 L152.246 140.752 L147.362 140.752 L147.362 134.873 Z" fill="#000000" fill-rule="nonzero" fill-opacity="1" /><path clip-path="url(#clip060)" d="M163.241 136.817 L170.88 136.817 L170.88 110.451 L162.57 112.118 L162.57 107.859 L170.834 106.192 L175.51 106.192 L175.51 136.817 L183.149 136.817 L183.149 140.752 L163.241 140.752 L163.241 136.817 Z" fill="#000000" fill-rule="nonzero" fill-opacity="1" /><path clip-path="url(#clip060)" d="M192.639 106.192 L210.996 106.192 L210.996 110.127 L196.922 110.127 L196.922 118.599 Q197.94 118.252 198.959 118.09 Q199.977 117.905 200.996 117.905 Q206.783 117.905 210.162 121.076 Q213.542 124.248 213.542 129.664 Q213.542 135.243 210.07 138.345 Q206.598 141.423 200.278 141.423 Q198.102 141.423 195.834 141.053 Q193.588 140.683 191.181 139.942 L191.181 135.243 Q193.264 136.377 195.487 136.933 Q197.709 137.488 200.186 137.488 Q204.19 137.488 206.528 135.382 Q208.866 133.275 208.866 129.664 Q208.866 126.053 206.528 123.947 Q204.19 121.84 200.186 121.84 Q198.311 121.84 196.436 122.257 Q194.584 122.674 192.639 123.553 L192.639 106.192 Z" fill="#000000" fill-rule="nonzero" fill-opacity="1" /><path clip-path="url(#clip060)" d="M16.4842 1029.43 L16.4842 999.388 L21.895 999.388 L21.895 1023 L35.9632 1023 L35.9632 1000.37 L41.3741 1000.37 L41.3741 1023 L58.5933 1023 L58.5933 998.815 L64.0042 998.815 L64.0042 1029.43 L16.4842 1029.43 Z" fill="#000000" fill-rule="nonzero" fill-opacity="1" /><path clip-path="url(#clip060)" d="M28.3562 958.87 L45.7028 971.761 L64.0042 958.202 L64.0042 965.109 L49.9996 975.485 L64.0042 985.861 L64.0042 992.768 L45.3526 978.922 L28.3562 991.59 L28.3562 984.683 L41.0558 975.23 L28.3562 965.777 L28.3562 958.87 Z" fill="#000000" fill-rule="nonzero" fill-opacity="1" /><path clip-path="url(#clip060)" d="M58.657 944.261 L77.5631 944.261 L77.5631 950.149 L28.3562 950.149 L28.3562 944.261 L33.7671 944.261 Q30.5842 942.415 29.0564 939.614 Q27.4968 936.781 27.4968 932.867 Q27.4968 926.373 32.6531 922.331 Q37.8093 918.257 46.212 918.257 Q54.6147 918.257 59.771 922.331 Q64.9272 926.373 64.9272 932.867 Q64.9272 936.781 63.3994 939.614 Q61.8398 942.415 58.657 944.261 M46.212 924.336 Q39.7508 924.336 36.0905 927.01 Q32.3984 929.652 32.3984 934.299 Q32.3984 938.946 36.0905 941.619 Q39.7508 944.261 46.212 944.261 Q52.6732 944.261 56.3653 941.619 Q60.0256 938.946 60.0256 934.299 Q60.0256 929.652 56.3653 927.01 Q52.6732 924.336 46.212 924.336 Z" fill="#000000" fill-rule="nonzero" fill-opacity="1" /><path clip-path="url(#clip060)" d="M44.7161 878.058 L47.5806 878.058 L47.5806 904.985 Q53.6281 904.603 56.8109 901.356 Q59.9619 898.078 59.9619 892.253 Q59.9619 888.879 59.1344 885.728 Q58.3069 882.546 56.6518 879.426 L62.1899 879.426 Q63.5267 882.577 64.227 885.888 Q64.9272 889.198 64.9272 892.603 Q64.9272 901.133 59.9619 906.131 Q54.9967 911.096 46.5303 911.096 Q37.7774 911.096 32.6531 906.385 Q27.4968 901.643 27.4968 893.622 Q27.4968 886.429 32.1438 882.259 Q36.7589 878.058 44.7161 878.058 M42.9973 883.914 Q38.1912 883.978 35.3266 886.62 Q32.4621 889.23 32.4621 893.558 Q32.4621 898.46 35.2312 901.42 Q38.0002 904.348 43.0292 904.794 L42.9973 883.914 Z" fill="#000000" fill-rule="nonzero" fill-opacity="1" /><path clip-path="url(#clip060)" d="M29.7248 842.792 L35.1993 842.792 Q33.8307 845.274 33.1623 847.789 Q32.4621 850.271 32.4621 852.818 Q32.4621 858.515 36.0905 861.666 Q39.6872 864.817 46.212 864.817 Q52.7369 864.817 56.3653 861.666 Q59.9619 858.515 59.9619 852.818 Q59.9619 850.271 59.2935 847.789 Q58.5933 845.274 57.2247 842.792 L62.6355 842.792 Q63.7814 845.243 64.3543 847.884 Q64.9272 850.494 64.9272 853.454 Q64.9272 861.507 59.8664 866.249 Q54.8057 870.992 46.212 870.992 Q37.491 870.992 32.4939 866.218 Q27.4968 861.411 27.4968 853.072 Q27.4968 850.367 28.0697 847.789 Q28.6108 845.211 29.7248 842.792 Z" fill="#000000" fill-rule="nonzero" fill-opacity="1" /><path clip-path="url(#clip060)" d="M18.2347 826.814 L28.3562 826.814 L28.3562 814.751 L32.9077 814.751 L32.9077 826.814 L52.2594 826.814 Q56.6199 826.814 57.8613 825.636 Q59.1026 824.427 59.1026 820.766 L59.1026 814.751 L64.0042 814.751 L64.0042 820.766 Q64.0042 827.546 61.4897 830.124 Q58.9434 832.702 52.2594 832.702 L32.9077 832.702 L32.9077 836.999 L28.3562 836.999 L28.3562 832.702 L18.2347 832.702 L18.2347 826.814 Z" fill="#000000" fill-rule="nonzero" fill-opacity="1" /><path clip-path="url(#clip060)" d="M44.7161 776.557 L47.5806 776.557 L47.5806 803.484 Q53.6281 803.102 56.8109 799.855 Q59.9619 796.577 59.9619 790.752 Q59.9619 787.378 59.1344 784.227 Q58.3069 781.044 56.6518 777.925 L62.1899 777.925 Q63.5267 781.076 64.227 784.386 Q64.9272 787.697 64.9272 791.102 Q64.9272 799.632 59.9619 804.629 Q54.9967 809.595 46.5303 809.595 Q37.7774 809.595 32.6531 804.884 Q27.4968 800.142 27.4968 792.121 Q27.4968 784.927 32.1438 780.758 Q36.7589 776.557 44.7161 776.557 M42.9973 782.413 Q38.1912 782.477 35.3266 785.118 Q32.4621 787.728 32.4621 792.057 Q32.4621 796.959 35.2312 799.919 Q38.0002 802.847 43.0292 803.293 L42.9973 782.413 Z" fill="#000000" fill-rule="nonzero" fill-opacity="1" /><path clip-path="url(#clip060)" d="M33.7671 743.487 L14.479 743.487 L14.479 737.63 L64.0042 737.63 L64.0042 743.487 L58.657 743.487 Q61.8398 745.333 63.3994 748.166 Q64.9272 750.966 64.9272 754.913 Q64.9272 761.374 59.771 765.448 Q54.6147 769.491 46.212 769.491 Q37.8093 769.491 32.6531 765.448 Q27.4968 761.374 27.4968 754.913 Q27.4968 750.966 29.0564 748.166 Q30.5842 745.333 33.7671 743.487 M46.212 763.443 Q52.6732 763.443 56.3653 760.801 Q60.0256 758.128 60.0256 753.481 Q60.0256 748.834 56.3653 746.16 Q52.6732 743.487 46.212 743.487 Q39.7508 743.487 36.0905 746.16 Q32.3984 748.834 32.3984 753.481 Q32.3984 758.128 36.0905 760.801 Q39.7508 763.443 46.212 763.443 Z" fill="#000000" fill-rule="nonzero" fill-opacity="1" /><path clip-path="url(#clip060)" d="M33.8307 684.19 Q33.2578 685.177 33.0032 686.355 Q32.7167 687.5 32.7167 688.901 Q32.7167 693.866 35.9632 696.54 Q39.1779 699.181 45.2253 699.181 L64.0042 699.181 L64.0042 705.07 L28.3562 705.07 L28.3562 699.181 L33.8944 699.181 Q30.6479 697.335 29.0883 694.375 Q27.4968 691.415 27.4968 687.182 Q27.4968 686.577 27.5923 685.845 Q27.656 685.113 27.8151 684.222 L33.8307 684.19 Z" fill="#000000" fill-rule="nonzero" fill-opacity="1" /><path clip-path="url(#clip060)" d="M44.7161 648.988 L47.5806 648.988 L47.5806 675.915 Q53.6281 675.533 56.8109 672.286 Q59.9619 669.008 59.9619 663.183 Q59.9619 659.81 59.1344 656.658 Q58.3069 653.476 56.6518 650.356 L62.1899 650.356 Q63.5267 653.507 64.227 656.818 Q64.9272 660.128 64.9272 663.533 Q64.9272 672.064 59.9619 677.061 Q54.9967 682.026 46.5303 682.026 Q37.7774 682.026 32.6531 677.315 Q27.4968 672.573 27.4968 664.552 Q27.4968 657.359 32.1438 653.189 Q36.7589 648.988 44.7161 648.988 M42.9973 654.844 Q38.1912 654.908 35.3266 657.55 Q32.4621 660.16 32.4621 664.488 Q32.4621 669.39 35.2312 672.35 Q38.0002 675.278 43.0292 675.724 L42.9973 654.844 Z" fill="#000000" fill-rule="nonzero" fill-opacity="1" /><path clip-path="url(#clip060)" d="M18.2347 633.583 L28.3562 633.583 L28.3562 621.52 L32.9077 621.52 L32.9077 633.583 L52.2594 633.583 Q56.6199 633.583 57.8613 632.405 Q59.1026 631.196 59.1026 627.535 L59.1026 621.52 L64.0042 621.52 L64.0042 627.535 Q64.0042 634.315 61.4897 636.893 Q58.9434 639.471 52.2594 639.471 L32.9077 639.471 L32.9077 643.768 L28.3562 643.768 L28.3562 639.471 L18.2347 639.471 L18.2347 633.583 Z" fill="#000000" fill-rule="nonzero" fill-opacity="1" /><path clip-path="url(#clip060)" d="M49.9359 614.422 L28.3562 614.422 L28.3562 608.566 L49.7131 608.566 Q54.7739 608.566 57.3202 606.592 Q59.8346 604.619 59.8346 600.672 Q59.8346 595.93 56.8109 593.192 Q53.7872 590.423 48.5673 590.423 L28.3562 590.423 L28.3562 584.567 L64.0042 584.567 L64.0042 590.423 L58.5296 590.423 Q61.7762 592.556 63.3676 595.389 Q64.9272 598.189 64.9272 601.913 Q64.9272 608.056 61.1078 611.239 Q57.2883 614.422 49.9359 614.422 M27.4968 599.685 L27.4968 599.685 Z" fill="#000000" fill-rule="nonzero" fill-opacity="1" /><path clip-path="url(#clip060)" d="M33.8307 551.847 Q33.2578 552.834 33.0032 554.011 Q32.7167 555.157 32.7167 556.558 Q32.7167 561.523 35.9632 564.197 Q39.1779 566.838 45.2253 566.838 L64.0042 566.838 L64.0042 572.727 L28.3562 572.727 L28.3562 566.838 L33.8944 566.838 Q30.6479 564.992 29.0883 562.032 Q27.4968 559.072 27.4968 554.839 Q27.4968 554.234 27.5923 553.502 Q27.656 552.77 27.8151 551.879 L33.8307 551.847 Z" fill="#000000" fill-rule="nonzero" fill-opacity="1" /><path clip-path="url(#clip060)" d="M42.4881 517.218 L64.0042 517.218 L64.0042 523.074 L42.679 523.074 Q37.6183 523.074 35.1038 525.048 Q32.5894 527.021 32.5894 530.968 Q32.5894 535.71 35.6131 538.447 Q38.6368 541.185 43.8567 541.185 L64.0042 541.185 L64.0042 547.073 L28.3562 547.073 L28.3562 541.185 L33.8944 541.185 Q30.6797 539.084 29.0883 536.251 Q27.4968 533.387 27.4968 529.663 Q27.4968 523.52 31.3163 520.369 Q35.1038 517.218 42.4881 517.218 Z" fill="#000000" fill-rule="nonzero" fill-opacity="1" /><path clip-path="url(#clip060)" d="M740.808 12.096 L753.001 12.096 L768.435 53.2532 L783.95 12.096 L796.143 12.096 L796.143 72.576 L788.163 72.576 L788.163 19.4686 L772.567 60.9499 L764.343 60.9499 L748.747 19.4686 L748.747 72.576 L740.808 72.576 L740.808 12.096 Z" fill="#000000" fill-rule="nonzero" fill-opacity="1" /><path clip-path="url(#clip060)" d="M832.682 49.7694 Q823.649 49.7694 820.165 51.8354 Q816.681 53.9013 816.681 58.8839 Q816.681 62.8538 819.274 65.2034 Q821.907 67.5124 826.403 67.5124 Q832.601 67.5124 836.328 63.1374 Q840.095 58.7219 840.095 51.4303 L840.095 49.7694 L832.682 49.7694 M847.549 46.6907 L847.549 72.576 L840.095 72.576 L840.095 65.6895 Q837.543 69.8214 833.735 71.8063 Q829.928 73.7508 824.418 73.7508 Q817.451 73.7508 813.319 69.8619 Q809.227 65.9325 809.227 59.3701 Q809.227 51.7138 814.332 47.825 Q819.476 43.9361 829.644 43.9361 L840.095 43.9361 L840.095 43.2069 Q840.095 38.0623 836.693 35.2672 Q833.33 32.4315 827.213 32.4315 Q823.325 32.4315 819.638 33.3632 Q815.952 34.295 812.549 36.1584 L812.549 29.2718 Q816.641 27.692 820.489 26.9223 Q824.337 26.1121 827.983 26.1121 Q837.827 26.1121 842.688 31.2163 Q847.549 36.3204 847.549 46.6907 Z" fill="#000000" fill-rule="nonzero" fill-opacity="1" /><path clip-path="url(#clip060)" d="M889.192 34.1734 Q887.936 33.4443 886.438 33.1202 Q884.979 32.7556 883.197 32.7556 Q876.878 32.7556 873.475 36.8875 Q870.113 40.9789 870.113 48.6757 L870.113 72.576 L862.618 72.576 L862.618 27.2059 L870.113 27.2059 L870.113 34.2544 Q872.462 30.1225 876.229 28.1376 Q879.997 26.1121 885.384 26.1121 Q886.154 26.1121 887.086 26.2337 Q888.018 26.3147 889.152 26.5172 L889.192 34.1734 Z" fill="#000000" fill-rule="nonzero" fill-opacity="1" /><path clip-path="url(#clip060)" d="M896.727 9.54393 L904.221 9.54393 L904.221 46.7717 L926.461 27.2059 L935.98 27.2059 L911.918 48.4326 L936.993 72.576 L927.271 72.576 L904.221 50.4176 L904.221 72.576 L896.727 72.576 L896.727 9.54393 Z" fill="#000000" fill-rule="nonzero" fill-opacity="1" /><path clip-path="url(#clip060)" d="M959.678 32.4315 Q953.683 32.4315 950.199 37.1306 Q946.715 41.7891 946.715 49.9314 Q946.715 58.0738 950.158 62.7728 Q953.642 67.4314 959.678 67.4314 Q965.633 67.4314 969.117 62.7323 Q972.6 58.0333 972.6 49.9314 Q972.6 41.8701 969.117 37.1711 Q965.633 32.4315 959.678 32.4315 M959.678 26.1121 Q969.4 26.1121 974.95 32.4315 Q980.5 38.7509 980.5 49.9314 Q980.5 61.0714 974.95 67.4314 Q969.4 73.7508 959.678 73.7508 Q949.915 73.7508 944.366 67.4314 Q938.856 61.0714 938.856 49.9314 Q938.856 38.7509 944.366 32.4315 Q949.915 26.1121 959.678 26.1121 Z" fill="#000000" fill-rule="nonzero" fill-opacity="1" /><path clip-path="url(#clip060)" d="M988.52 27.2059 L995.974 27.2059 L1005.29 62.6108 L1014.57 27.2059 L1023.36 27.2059 L1032.68 62.6108 L1041.95 27.2059 L1049.41 27.2059 L1037.54 72.576 L1028.75 72.576 L1018.98 35.3887 L1009.18 72.576 L1000.39 72.576 L988.52 27.2059 Z" fill="#000000" fill-rule="nonzero" fill-opacity="1" /><path clip-path="url(#clip060)" d="M1060.71 27.2059 L1068.16 27.2059 L1068.16 72.576 L1060.71 72.576 L1060.71 27.2059 M1060.71 9.54393 L1068.16 9.54393 L1068.16 18.9825 L1060.71 18.9825 L1060.71 9.54393 Z" fill="#000000" fill-rule="nonzero" fill-opacity="1" /><path clip-path="url(#clip060)" d="M1091.13 14.324 L1091.13 27.2059 L1106.48 27.2059 L1106.48 32.9987 L1091.13 32.9987 L1091.13 57.6282 Q1091.13 63.1779 1092.63 64.7578 Q1094.17 66.3376 1098.83 66.3376 L1106.48 66.3376 L1106.48 72.576 L1098.83 72.576 Q1090.2 72.576 1086.92 69.3758 Q1083.64 66.1351 1083.64 57.6282 L1083.64 32.9987 L1078.17 32.9987 L1078.17 27.2059 L1083.64 27.2059 L1083.64 14.324 L1091.13 14.324 Z" fill="#000000" fill-rule="nonzero" fill-opacity="1" /><path clip-path="url(#clip060)" d="M1113.05 27.2059 L1148.45 27.2059 L1148.45 34.0114 L1120.42 66.6212 L1148.45 66.6212 L1148.45 72.576 L1112.03 72.576 L1112.03 65.7705 L1140.06 33.1607 L1113.05 33.1607 L1113.05 27.2059 Z" fill="#000000" fill-rule="nonzero" fill-opacity="1" /><path clip-path="url(#clip060)" d="M1186.53 12.096 L1224.77 12.096 L1224.77 18.9825 L1194.71 18.9825 L1194.71 36.8875 L1223.51 36.8875 L1223.51 43.7741 L1194.71 43.7741 L1194.71 65.6895 L1225.5 65.6895 L1225.5 72.576 L1186.53 72.576 L1186.53 12.096 Z" fill="#000000" fill-rule="nonzero" fill-opacity="1" /><path clip-path="url(#clip060)" d="M1261.59 9.54393 L1261.59 15.7418 L1254.46 15.7418 Q1250.45 15.7418 1248.87 17.3622 Q1247.33 18.9825 1247.33 23.1955 L1247.33 27.2059 L1259.61 27.2059 L1259.61 32.9987 L1247.33 32.9987 L1247.33 72.576 L1239.84 72.576 L1239.84 32.9987 L1232.71 32.9987 L1232.71 27.2059 L1239.84 27.2059 L1239.84 24.0462 Q1239.84 16.471 1243.36 13.0277 Q1246.89 9.54393 1254.54 9.54393 L1261.59 9.54393 Z" fill="#000000" fill-rule="nonzero" fill-opacity="1" /><path clip-path="url(#clip060)" d="M1290.8 9.54393 L1290.8 15.7418 L1283.67 15.7418 Q1279.66 15.7418 1278.08 17.3622 Q1276.54 18.9825 1276.54 23.1955 L1276.54 27.2059 L1288.81 27.2059 L1288.81 32.9987 L1276.54 32.9987 L1276.54 72.576 L1269.05 72.576 L1269.05 32.9987 L1261.92 32.9987 L1261.92 27.2059 L1269.05 27.2059 L1269.05 24.0462 Q1269.05 16.471 1272.57 13.0277 Q1276.09 9.54393 1283.75 9.54393 L1290.8 9.54393 Z" fill="#000000" fill-rule="nonzero" fill-opacity="1" /><path clip-path="url(#clip060)" d="M1297.04 27.2059 L1304.49 27.2059 L1304.49 72.576 L1297.04 72.576 L1297.04 27.2059 M1297.04 9.54393 L1304.49 9.54393 L1304.49 18.9825 L1297.04 18.9825 L1297.04 9.54393 Z" fill="#000000" fill-rule="nonzero" fill-opacity="1" /><path clip-path="url(#clip060)" d="M1352.74 28.9478 L1352.74 35.9153 Q1349.58 34.1734 1346.38 33.3227 Q1343.22 32.4315 1339.98 32.4315 Q1332.73 32.4315 1328.72 37.0496 Q1324.7 41.6271 1324.7 49.9314 Q1324.7 58.2358 1328.72 62.8538 Q1332.73 67.4314 1339.98 67.4314 Q1343.22 67.4314 1346.38 66.5807 Q1349.58 65.6895 1352.74 63.9476 L1352.74 70.8341 Q1349.62 72.2924 1346.26 73.0216 Q1342.93 73.7508 1339.17 73.7508 Q1328.92 73.7508 1322.88 67.3098 Q1316.85 60.8689 1316.85 49.9314 Q1316.85 38.832 1322.92 32.472 Q1329.04 26.1121 1339.65 26.1121 Q1343.1 26.1121 1346.38 26.8413 Q1349.66 27.5299 1352.74 28.9478 Z" fill="#000000" fill-rule="nonzero" fill-opacity="1" /><path clip-path="url(#clip060)" d="M1365.7 27.2059 L1373.15 27.2059 L1373.15 72.576 L1365.7 72.576 L1365.7 27.2059 M1365.7 9.54393 L1373.15 9.54393 L1373.15 18.9825 L1365.7 18.9825 L1365.7 9.54393 Z" fill="#000000" fill-rule="nonzero" fill-opacity="1" /><path clip-path="url(#clip060)" d="M1427.56 48.0275 L1427.56 51.6733 L1393.29 51.6733 Q1393.77 59.3701 1397.9 63.421 Q1402.08 67.4314 1409.49 67.4314 Q1413.78 67.4314 1417.79 66.3781 Q1421.85 65.3249 1425.82 63.2184 L1425.82 70.267 Q1421.81 71.9684 1417.59 72.8596 Q1413.38 73.7508 1409.04 73.7508 Q1398.19 73.7508 1391.83 67.4314 Q1385.51 61.1119 1385.51 50.3365 Q1385.51 39.1965 1391.5 32.6746 Q1397.54 26.1121 1407.75 26.1121 Q1416.9 26.1121 1422.21 32.0264 Q1427.56 37.9003 1427.56 48.0275 M1420.1 45.84 Q1420.02 39.7232 1416.66 36.0774 Q1413.34 32.4315 1407.83 32.4315 Q1401.59 32.4315 1397.82 35.9558 Q1394.1 39.4801 1393.53 45.8805 L1420.1 45.84 Z" fill="#000000" fill-rule="nonzero" fill-opacity="1" /><path clip-path="url(#clip060)" d="M1477.51 45.1919 L1477.51 72.576 L1470.05 72.576 L1470.05 45.4349 Q1470.05 38.994 1467.54 35.7938 Q1465.03 32.5936 1460.01 32.5936 Q1453.97 32.5936 1450.49 36.4419 Q1447 40.2903 1447 46.9338 L1447 72.576 L1439.51 72.576 L1439.51 27.2059 L1447 27.2059 L1447 34.2544 Q1449.68 30.163 1453.28 28.1376 Q1456.93 26.1121 1461.67 26.1121 Q1469.48 26.1121 1473.49 30.9732 Q1477.51 35.7938 1477.51 45.1919 Z" fill="#000000" fill-rule="nonzero" fill-opacity="1" /><path clip-path="url(#clip060)" d="M1499.74 14.324 L1499.74 27.2059 L1515.1 27.2059 L1515.1 32.9987 L1499.74 32.9987 L1499.74 57.6282 Q1499.74 63.1779 1501.24 64.7578 Q1502.78 66.3376 1507.44 66.3376 L1515.1 66.3376 L1515.1 72.576 L1507.44 72.576 Q1498.81 72.576 1495.53 69.3758 Q1492.25 66.1351 1492.25 57.6282 L1492.25 32.9987 L1486.78 32.9987 L1486.78 27.2059 L1492.25 27.2059 L1492.25 14.324 L1499.74 14.324 Z" fill="#000000" fill-rule="nonzero" fill-opacity="1" /><path clip-path="url(#clip060)" d="M1551.6 12.096 L1586.35 12.096 L1586.35 18.9825 L1559.78 18.9825 L1559.78 36.8065 L1583.76 36.8065 L1583.76 43.6931 L1559.78 43.6931 L1559.78 72.576 L1551.6 72.576 L1551.6 12.096 Z" fill="#000000" fill-rule="nonzero" fill-opacity="1" /><path clip-path="url(#clip060)" d="M1619.25 34.1734 Q1617.99 33.4443 1616.49 33.1202 Q1615.03 32.7556 1613.25 32.7556 Q1606.93 32.7556 1603.53 36.8875 Q1600.17 40.9789 1600.17 48.6757 L1600.17 72.576 L1592.67 72.576 L1592.67 27.2059 L1600.17 27.2059 L1600.17 34.2544 Q1602.52 30.1225 1606.28 28.1376 Q1610.05 26.1121 1615.44 26.1121 Q1616.21 26.1121 1617.14 26.2337 Q1618.07 26.3147 1619.21 26.5172 L1619.25 34.1734 Z" fill="#000000" fill-rule="nonzero" fill-opacity="1" /><path clip-path="url(#clip060)" d="M1642.82 32.4315 Q1636.83 32.4315 1633.34 37.1306 Q1629.86 41.7891 1629.86 49.9314 Q1629.86 58.0738 1633.3 62.7728 Q1636.79 67.4314 1642.82 67.4314 Q1648.78 67.4314 1652.26 62.7323 Q1655.74 58.0333 1655.74 49.9314 Q1655.74 41.8701 1652.26 37.1711 Q1648.78 32.4315 1642.82 32.4315 M1642.82 26.1121 Q1652.54 26.1121 1658.09 32.4315 Q1663.64 38.7509 1663.64 49.9314 Q1663.64 61.0714 1658.09 67.4314 Q1652.54 73.7508 1642.82 73.7508 Q1633.06 73.7508 1627.51 67.4314 Q1622 61.0714 1622 49.9314 Q1622 38.7509 1627.51 32.4315 Q1633.06 26.1121 1642.82 26.1121 Z" fill="#000000" fill-rule="nonzero" fill-opacity="1" /><path clip-path="url(#clip060)" d="M1713.71 45.1919 L1713.71 72.576 L1706.26 72.576 L1706.26 45.4349 Q1706.26 38.994 1703.75 35.7938 Q1701.24 32.5936 1696.21 32.5936 Q1690.18 32.5936 1686.69 36.4419 Q1683.21 40.2903 1683.21 46.9338 L1683.21 72.576 L1675.72 72.576 L1675.72 27.2059 L1683.21 27.2059 L1683.21 34.2544 Q1685.88 30.163 1689.49 28.1376 Q1693.13 26.1121 1697.87 26.1121 Q1705.69 26.1121 1709.7 30.9732 Q1713.71 35.7938 1713.71 45.1919 Z" fill="#000000" fill-rule="nonzero" fill-opacity="1" /><path clip-path="url(#clip060)" d="M1735.95 14.324 L1735.95 27.2059 L1751.31 27.2059 L1751.31 32.9987 L1735.95 32.9987 L1735.95 57.6282 Q1735.95 63.1779 1737.45 64.7578 Q1738.99 66.3376 1743.65 66.3376 L1751.31 66.3376 L1751.31 72.576 L1743.65 72.576 Q1735.02 72.576 1731.74 69.3758 Q1728.46 66.1351 1728.46 57.6282 L1728.46 32.9987 L1722.99 32.9987 L1722.99 27.2059 L1728.46 27.2059 L1728.46 14.324 L1735.95 14.324 Z" fill="#000000" fill-rule="nonzero" fill-opacity="1" /><path clip-path="url(#clip060)" d="M1761.11 27.2059 L1768.56 27.2059 L1768.56 72.576 L1761.11 72.576 L1761.11 27.2059 M1761.11 9.54393 L1768.56 9.54393 L1768.56 18.9825 L1761.11 18.9825 L1761.11 9.54393 Z" fill="#000000" fill-rule="nonzero" fill-opacity="1" /><path clip-path="url(#clip060)" d="M1822.97 48.0275 L1822.97 51.6733 L1788.7 51.6733 Q1789.18 59.3701 1793.31 63.421 Q1797.49 67.4314 1804.9 67.4314 Q1809.19 67.4314 1813.2 66.3781 Q1817.25 65.3249 1821.22 63.2184 L1821.22 70.267 Q1817.21 71.9684 1813 72.8596 Q1808.79 73.7508 1804.45 73.7508 Q1793.6 73.7508 1787.24 67.4314 Q1780.92 61.1119 1780.92 50.3365 Q1780.92 39.1965 1786.91 32.6746 Q1792.95 26.1121 1803.16 26.1121 Q1812.31 26.1121 1817.62 32.0264 Q1822.97 37.9003 1822.97 48.0275 M1815.51 45.84 Q1815.43 39.7232 1812.07 36.0774 Q1808.75 32.4315 1803.24 32.4315 Q1797 32.4315 1793.23 35.9558 Q1789.51 39.4801 1788.94 45.8805 L1815.51 45.84 Z" fill="#000000" fill-rule="nonzero" fill-opacity="1" /><path clip-path="url(#clip060)" d="M1861.49 34.1734 Q1860.23 33.4443 1858.74 33.1202 Q1857.28 32.7556 1855.49 32.7556 Q1849.18 32.7556 1845.77 36.8875 Q1842.41 40.9789 1842.41 48.6757 L1842.41 72.576 L1834.92 72.576 L1834.92 27.2059 L1842.41 27.2059 L1842.41 34.2544 Q1844.76 30.1225 1848.53 28.1376 Q1852.29 26.1121 1857.68 26.1121 Q1858.45 26.1121 1859.38 26.2337 Q1860.32 26.3147 1861.45 26.5172 L1861.49 34.1734 Z" fill="#000000" fill-rule="nonzero" fill-opacity="1" /><polyline clip-path="url(#clip062)" style="stroke:#009af9; stroke-linecap:round; stroke-linejoin:round; stroke-width:4; stroke-opacity:1; fill:none" points="191034,-88840.2 96123.9,-44284.1 63222.8,-28838.3 46939.5,-21193.8 37265,-16651.7 30855.5,-13642.4 26206.9,-11459.7 22731.3,-9827.72 20029.9,-8559.11 17857.3,-7538.79 16093.2,-6710.2 14617.3,-6016.86 13371.3,-5431.52 12300.3,-4928.27 11368.2,-4490.2 10555.6,-4108.28 9843.08,-3773.27 9208.02,-3474.64 8635.84,-3205.51 8120.85,-2963.22 7657.8,-2745.3 7238.26,-2547.8 6854.13,-2366.9 6500.67,-2200.38 6175.48,-2047.12 5883.25,-1909.34 5600.91,-1776.15 5343.18,-1654.51 5104.03,-1541.58 4877.28,-1434.44 4670.94,-1336.88 4477.46,-1245.34 4294.9,-1158.91 4122.26,-1077.1 3959.12,-999.731 3805.02,-926.583 3659.5,-857.439 3522.02,-792.043 3391.93,-730.099 3268.66,-671.322 3147.1,-613.29 3039.15,-561.683 2934.4,-511.528 2833.35,-463.069 2736.9,-416.736 2644.78,-372.399 2556.72,-329.936 2472.51,-289.236 2394.27,-251.339 2316.19,-213.425 2241.37,-177.001 2169.75,-142.03 2101.23,-108.47 2035.7,-76.2621 1973,-45.3388 1912.97,-15.6181 1855.42,12.9899 1800.17,40.5798 1747.01,67.2519 1695.82,93.072 1646.47,118.099 1598.9,142.374 1553.04,165.923 1508.89,188.76 1466.42,210.897 1425.61,232.345 1386.42,253.128 1348.8,273.278 1312.66,292.833 1277.95,311.836 1244.61,330.318 1212.6,348.302 1181.92,365.801 1152.54,382.82 1124.48,399.37 1097.7,415.465 1072.18,431.122 1047.91,446.36 1024.85,461.191 1003.01,475.624 982.375,489.668 962.926,503.332 944.645,516.631 926.734,530.179 910.51,542.989 895.397,555.491 881.378,567.694 868.437,579.611 856.553,591.253 845.346,603.024 835.495,614.208 826.647,625.148 818.78,635.854 811.868,646.335 805.884,656.601 800.799,666.66 796.496,676.749 793.14,686.406 790.592,695.869 788.815,705.142 787.771,714.232 "/>
<polyline clip-path="url(#clip062)" style="stroke:#e26f46; stroke-linecap:round; stroke-linejoin:round; stroke-width:4; stroke-opacity:1; fill:none" points="1333.46,426.737 1333.46,426.737 1333.46,426.737 1333.46,426.737 1333.46,426.737 1333.46,426.737 1333.46,426.737 1333.46,426.737 1333.46,426.737 1333.46,426.737 1333.4,426.776 1333.52,426.752 1333.46,426.737 1333.46,426.737 1333.46,426.737 1333.46,426.737 1333.46,426.737 1333.46,426.737 1333.46,426.737 1333.46,426.737 1333.46,426.737 1333.46,426.737 1333.46,426.737 1333.46,426.737 1333.46,426.737 1333.46,426.737 1333.46,426.738 1333.46,426.738 1333.46,426.738 1333.46,426.738 1333.46,426.738 1333.46,426.738 1333.46,426.738 1333.46,426.738 1333.46,426.739 1333.46,426.737 1333.46,426.737 1333.46,426.738 1333.46,426.738 1333.46,426.738 1333.46,426.738 1333.45,426.742 1333.45,426.742 1333.34,426.761 1305.05,432.492 1279.09,437.83 1254.78,442.907 1231.88,447.77 1210.29,452.432 1189.95,456.903 1170.77,461.196 1152.7,465.32 1135.67,469.286 1119.62,473.101 1104.5,476.774 1090.25,480.314 1076.83,483.727 1064.18,487.02 1052.28,490.199 1041.07,493.271 1030.51,496.24 1020.59,499.112 1011.25,501.892 1002.47,504.584 994.214,507.192 986.463,509.721 979.185,512.173 972.357,514.553 965.953,516.864 959.953,519.109 954.335,521.29 949.19,523.364 944.306,525.413 939.745,527.405 935.488,529.344 931.52,531.233 927.825,533.072 924.388,534.865 921.194,536.614 918.233,538.32 915.489,539.986 912.691,541.785 910.356,543.381 908.211,544.94 906.244,546.463 897.768,553.488 882.306,566.866 868.575,579.48 856.322,591.487 845.424,602.94 835.814,613.831 826.635,625.164 818.803,635.821 811.908,646.271 805.928,656.52 800.838,666.576 796.614,676.444 793.188,686.251 790.623,695.735 788.83,705.04 787.855,713.213 "/>
<polyline clip-path="url(#clip062)" style="stroke:#3da44d; stroke-linecap:round; stroke-linejoin:round; stroke-width:4; stroke-opacity:1; fill:none" points="1523.66,307.609 1523.66,307.607 1523.67,307.605 1523.67,307.604 1523.67,307.603 1523.67,307.601 1523.68,307.599 1523.68,307.597 1523.68,307.595 1523.69,307.594 1523.69,307.592 1523.69,307.592 1523.39,307.768 1523.44,307.739 1523.5,307.707 1523.55,307.676 1523.6,307.645 1523.64,307.62 1523.67,307.601 1523.71,307.582 1523.71,307.581 1523.7,307.586 1523.66,307.607 1523.61,307.64 1523.52,307.694 1523.43,307.749 1523.65,307.615 1523.67,307.605 1523.42,307.747 1523.54,307.675 1523.7,307.586 1523.81,307.521 1523.79,307.538 1523.56,307.667 1523.43,307.745 1523.73,307.575 1523.86,307.487 1523.54,307.685 1523.52,307.688 1523.64,307.62 1507.96,310.848 1478.59,316.99 1449.44,323.176 1424.79,328.507 1401.38,333.653 1379.17,338.623 1358.1,343.423 1338.13,348.059 1319.21,352.538 1301.3,356.867 1284.35,361.052 1268.32,365.098 1253.17,369.01 1233.43,374.272 1219.94,377.963 1207.26,381.524 1195.35,384.961 1184.16,388.278 1173.66,391.483 1163.8,394.581 1154.55,397.576 1145.88,400.473 1137.75,403.277 1130.13,405.992 1122.99,408.622 1116.31,411.17 1110.05,413.642 1104.2,416.039 1101.69,417.108 1096.4,419.392 1091.47,421.608 1086.87,423.759 1082.57,425.851 1078.56,427.89 1074.81,429.883 1071.3,431.839 1068.01,433.753 1047.84,446.408 1024.27,461.57 1002.5,475.967 981.82,490.052 962.271,503.801 943.822,517.242 926.481,530.374 908.691,544.463 894.235,556.478 880.728,568.277 868.163,579.872 856.545,591.261 845.867,602.457 835.538,614.157 826.696,625.084 818.829,635.783 811.913,646.262 805.922,656.53 800.828,666.598 796.603,676.472 793.245,686.07 790.63,695.704 788.833,705.02 787.776,714.168 "/>
<circle clip-path="url(#clip062)" cx="1333.46" cy="426.737" r="14.4" fill="#ff0000" fill-rule="evenodd" fill-opacity="1" stroke="#000000" stroke-opacity="1" stroke-width="3.2"/>
<circle clip-path="url(#clip062)" cx="922.57" cy="600.032" r="14.4" fill="#ff0000" fill-rule="evenodd" fill-opacity="1" stroke="#000000" stroke-opacity="1" stroke-width="3.2"/>
<circle clip-path="url(#clip062)" cx="1090.83" cy="903.297" r="14.4" fill="#ff0000" fill-rule="evenodd" fill-opacity="1" stroke="#000000" stroke-opacity="1" stroke-width="3.2"/>
<path clip-path="url(#clip060)" d="M1542.45 425.996 L2282.65 425.996 L2282.65 166.796 L1542.45 166.796  Z" fill="#ffffff" fill-rule="evenodd" fill-opacity="1"/>
<polyline clip-path="url(#clip060)" style="stroke:#000000; stroke-linecap:round; stroke-linejoin:round; stroke-width:4; stroke-opacity:1; fill:none" points="1542.45,425.996 2282.65,425.996 2282.65,166.796 1542.45,166.796 1542.45,425.996 "/>
<polyline clip-path="url(#clip060)" style="stroke:#009af9; stroke-linecap:round; stroke-linejoin:round; stroke-width:4; stroke-opacity:1; fill:none" points="1565.82,218.636 1706.03,218.636 "/>
<path clip-path="url(#clip060)" d="M1751.11 220.268 L1751.11 235.916 L1746.85 235.916 L1746.85 220.407 Q1746.85 216.726 1745.42 214.897 Q1743.98 213.069 1741.11 213.069 Q1737.66 213.069 1735.67 215.268 Q1733.68 217.467 1733.68 221.263 L1733.68 235.916 L1729.4 235.916 L1729.4 209.99 L1733.68 209.99 L1733.68 214.018 Q1735.21 211.68 1737.27 210.522 Q1739.35 209.365 1742.06 209.365 Q1746.53 209.365 1748.82 212.143 Q1751.11 214.897 1751.11 220.268 Z" fill="#000000" fill-rule="nonzero" fill-opacity="1" /><path clip-path="url(#clip060)" d="M1769.65 212.976 Q1766.23 212.976 1764.24 215.661 Q1762.25 218.323 1762.25 222.976 Q1762.25 227.629 1764.21 230.314 Q1766.2 232.976 1769.65 232.976 Q1773.06 232.976 1775.05 230.291 Q1777.04 227.606 1777.04 222.976 Q1777.04 218.37 1775.05 215.684 Q1773.06 212.976 1769.65 212.976 M1769.65 209.365 Q1775.21 209.365 1778.38 212.976 Q1781.55 216.587 1781.55 222.976 Q1781.55 229.342 1778.38 232.976 Q1775.21 236.587 1769.65 236.587 Q1764.07 236.587 1760.9 232.976 Q1757.75 229.342 1757.75 222.976 Q1757.75 216.587 1760.9 212.976 Q1764.07 209.365 1769.65 209.365 Z" fill="#000000" fill-rule="nonzero" fill-opacity="1" /><path clip-path="url(#clip060)" d="M1822.29 222.976 Q1822.29 218.277 1820.35 215.615 Q1818.43 212.93 1815.05 212.93 Q1811.67 212.93 1809.72 215.615 Q1807.8 218.277 1807.8 222.976 Q1807.8 227.675 1809.72 230.36 Q1811.67 233.022 1815.05 233.022 Q1818.43 233.022 1820.35 230.36 Q1822.29 227.675 1822.29 222.976 M1807.8 213.925 Q1809.14 211.61 1811.18 210.499 Q1813.24 209.365 1816.09 209.365 Q1820.81 209.365 1823.75 213.115 Q1826.71 216.865 1826.71 222.976 Q1826.71 229.087 1823.75 232.837 Q1820.81 236.587 1816.09 236.587 Q1813.24 236.587 1811.18 235.476 Q1809.14 234.342 1807.8 232.027 L1807.8 235.916 L1803.52 235.916 L1803.52 199.897 L1807.8 199.897 L1807.8 213.925 Z" fill="#000000" fill-rule="nonzero" fill-opacity="1" /><path clip-path="url(#clip060)" d="M1843.82 212.976 Q1840.39 212.976 1838.4 215.661 Q1836.41 218.323 1836.41 222.976 Q1836.41 227.629 1838.38 230.314 Q1840.37 232.976 1843.82 232.976 Q1847.22 232.976 1849.21 230.291 Q1851.2 227.606 1851.2 222.976 Q1851.2 218.37 1849.21 215.684 Q1847.22 212.976 1843.82 212.976 M1843.82 209.365 Q1849.37 209.365 1852.55 212.976 Q1855.72 216.587 1855.72 222.976 Q1855.72 229.342 1852.55 232.976 Q1849.37 236.587 1843.82 236.587 Q1838.24 236.587 1835.07 232.976 Q1831.92 229.342 1831.92 222.976 Q1831.92 216.587 1835.07 212.976 Q1838.24 209.365 1843.82 209.365 Z" fill="#000000" fill-rule="nonzero" fill-opacity="1" /><path clip-path="url(#clip060)" d="M1862.34 225.684 L1862.34 209.99 L1866.6 209.99 L1866.6 225.522 Q1866.6 229.203 1868.03 231.055 Q1869.47 232.883 1872.34 232.883 Q1875.79 232.883 1877.78 230.684 Q1879.79 228.485 1879.79 224.689 L1879.79 209.99 L1884.05 209.99 L1884.05 235.916 L1879.79 235.916 L1879.79 231.934 Q1878.24 234.295 1876.18 235.453 Q1874.14 236.587 1871.43 236.587 Q1866.97 236.587 1864.65 233.809 Q1862.34 231.031 1862.34 225.684 M1873.05 209.365 L1873.05 209.365 Z" fill="#000000" fill-rule="nonzero" fill-opacity="1" /><path clip-path="url(#clip060)" d="M1914.37 220.268 L1914.37 235.916 L1910.11 235.916 L1910.11 220.407 Q1910.11 216.726 1908.68 214.897 Q1907.24 213.069 1904.37 213.069 Q1900.93 213.069 1898.93 215.268 Q1896.94 217.467 1896.94 221.263 L1896.94 235.916 L1892.66 235.916 L1892.66 209.99 L1896.94 209.99 L1896.94 214.018 Q1898.47 211.68 1900.53 210.522 Q1902.61 209.365 1905.32 209.365 Q1909.79 209.365 1912.08 212.143 Q1914.37 214.897 1914.37 220.268 Z" fill="#000000" fill-rule="nonzero" fill-opacity="1" /><path clip-path="url(#clip060)" d="M1939.93 213.925 L1939.93 199.897 L1944.19 199.897 L1944.19 235.916 L1939.93 235.916 L1939.93 232.027 Q1938.59 234.342 1936.53 235.476 Q1934.49 236.587 1931.62 236.587 Q1926.92 236.587 1923.96 232.837 Q1921.02 229.087 1921.02 222.976 Q1921.02 216.865 1923.96 213.115 Q1926.92 209.365 1931.62 209.365 Q1934.49 209.365 1936.53 210.499 Q1938.59 211.61 1939.93 213.925 M1925.42 222.976 Q1925.42 227.675 1927.34 230.36 Q1929.28 233.022 1932.66 233.022 Q1936.04 233.022 1937.99 230.36 Q1939.93 227.675 1939.93 222.976 Q1939.93 218.277 1937.99 215.615 Q1936.04 212.93 1932.66 212.93 Q1929.28 212.93 1927.34 215.615 Q1925.42 218.277 1925.42 222.976 Z" fill="#000000" fill-rule="nonzero" fill-opacity="1" /><path clip-path="url(#clip060)" d="M1969.49 210.754 L1969.49 214.782 Q1967.68 213.856 1965.74 213.393 Q1963.8 212.93 1961.71 212.93 Q1958.54 212.93 1956.94 213.902 Q1955.37 214.874 1955.37 216.819 Q1955.37 218.3 1956.5 219.157 Q1957.64 219.99 1961.06 220.754 L1962.52 221.078 Q1967.06 222.05 1968.96 223.832 Q1970.88 225.592 1970.88 228.763 Q1970.88 232.374 1968.01 234.481 Q1965.16 236.587 1960.16 236.587 Q1958.08 236.587 1955.81 236.17 Q1953.56 235.777 1951.06 234.967 L1951.06 230.569 Q1953.42 231.795 1955.72 232.42 Q1958.01 233.022 1960.25 233.022 Q1963.26 233.022 1964.88 232.004 Q1966.5 230.962 1966.5 229.087 Q1966.5 227.351 1965.32 226.425 Q1964.17 225.499 1960.21 224.643 L1958.73 224.295 Q1954.77 223.462 1953.01 221.749 Q1951.25 220.013 1951.25 217.004 Q1951.25 213.346 1953.84 211.356 Q1956.43 209.365 1961.2 209.365 Q1963.56 209.365 1965.65 209.712 Q1967.73 210.059 1969.49 210.754 Z" fill="#000000" fill-rule="nonzero" fill-opacity="1" /><path clip-path="url(#clip060)" d="M2002.78 212.976 Q1999.35 212.976 1997.36 215.661 Q1995.37 218.323 1995.37 222.976 Q1995.37 227.629 1997.34 230.314 Q1999.33 232.976 2002.78 232.976 Q2006.18 232.976 2008.17 230.291 Q2010.16 227.606 2010.16 222.976 Q2010.16 218.37 2008.17 215.684 Q2006.18 212.976 2002.78 212.976 M2002.78 209.365 Q2008.33 209.365 2011.5 212.976 Q2014.67 216.587 2014.67 222.976 Q2014.67 229.342 2011.5 232.976 Q2008.33 236.587 2002.78 236.587 Q1997.2 236.587 1994.03 232.976 Q1990.88 229.342 1990.88 222.976 Q1990.88 216.587 1994.03 212.976 Q1997.2 209.365 2002.78 209.365 Z" fill="#000000" fill-rule="nonzero" fill-opacity="1" /><path clip-path="url(#clip060)" d="M2043.29 220.268 L2043.29 235.916 L2039.03 235.916 L2039.03 220.407 Q2039.03 216.726 2037.59 214.897 Q2036.16 213.069 2033.29 213.069 Q2029.84 213.069 2027.85 215.268 Q2025.86 217.467 2025.86 221.263 L2025.86 235.916 L2021.57 235.916 L2021.57 209.99 L2025.86 209.99 L2025.86 214.018 Q2027.38 211.68 2029.44 210.522 Q2031.53 209.365 2034.23 209.365 Q2038.7 209.365 2040.99 212.143 Q2043.29 214.897 2043.29 220.268 Z" fill="#000000" fill-rule="nonzero" fill-opacity="1" /><path clip-path="url(#clip060)" d="M2064.37 209.99 L2068.63 209.99 L2073.96 230.221 L2079.26 209.99 L2084.28 209.99 L2089.6 230.221 L2094.91 209.99 L2099.16 209.99 L2092.38 235.916 L2087.36 235.916 L2081.78 214.666 L2076.18 235.916 L2071.16 235.916 L2064.37 209.99 Z" fill="#000000" fill-rule="nonzero" fill-opacity="1" /><polyline clip-path="url(#clip060)" style="stroke:#e26f46; stroke-linecap:round; stroke-linejoin:round; stroke-width:4; stroke-opacity:1; fill:none" points="1565.82,270.476 1706.03,270.476 "/>
<path clip-path="url(#clip060)" d="M1729.4 261.83 L1733.66 261.83 L1738.98 282.061 L1744.28 261.83 L1749.31 261.83 L1754.63 282.061 L1759.93 261.83 L1764.19 261.83 L1757.41 287.756 L1752.38 287.756 L1746.81 266.506 L1741.2 287.756 L1736.18 287.756 L1729.4 261.83 Z" fill="#000000" fill-rule="nonzero" fill-opacity="1" /><path clip-path="url(#clip060)" d="M1770.65 261.83 L1774.91 261.83 L1774.91 287.756 L1770.65 287.756 L1770.65 261.83 M1770.65 251.737 L1774.91 251.737 L1774.91 257.131 L1770.65 257.131 L1770.65 251.737 Z" fill="#000000" fill-rule="nonzero" fill-opacity="1" /><path clip-path="url(#clip060)" d="M1788.03 254.469 L1788.03 261.83 L1796.81 261.83 L1796.81 265.14 L1788.03 265.14 L1788.03 279.214 Q1788.03 282.385 1788.89 283.288 Q1789.77 284.191 1792.43 284.191 L1796.81 284.191 L1796.81 287.756 L1792.43 287.756 Q1787.5 287.756 1785.62 285.927 Q1783.75 284.075 1783.75 279.214 L1783.75 265.14 L1780.62 265.14 L1780.62 261.83 L1783.75 261.83 L1783.75 254.469 L1788.03 254.469 Z" fill="#000000" fill-rule="nonzero" fill-opacity="1" /><path clip-path="url(#clip060)" d="M1823.96 272.108 L1823.96 287.756 L1819.7 287.756 L1819.7 272.247 Q1819.7 268.566 1818.26 266.737 Q1816.83 264.909 1813.96 264.909 Q1810.51 264.909 1808.52 267.108 Q1806.53 269.307 1806.53 273.103 L1806.53 287.756 L1802.25 287.756 L1802.25 251.737 L1806.53 251.737 L1806.53 265.858 Q1808.06 263.52 1810.12 262.362 Q1812.2 261.205 1814.91 261.205 Q1819.37 261.205 1821.67 263.983 Q1823.96 266.737 1823.96 272.108 Z" fill="#000000" fill-rule="nonzero" fill-opacity="1" /><path clip-path="url(#clip060)" d="M1858.12 256.274 Q1854.51 256.274 1852.68 259.839 Q1850.88 263.381 1850.88 270.51 Q1850.88 277.617 1852.68 281.182 Q1854.51 284.723 1858.12 284.723 Q1861.76 284.723 1863.56 281.182 Q1865.39 277.617 1865.39 270.51 Q1865.39 263.381 1863.56 259.839 Q1861.76 256.274 1858.12 256.274 M1858.12 252.571 Q1863.93 252.571 1866.99 257.177 Q1870.07 261.76 1870.07 270.51 Q1870.07 279.237 1866.99 283.844 Q1863.93 288.427 1858.12 288.427 Q1852.31 288.427 1849.24 283.844 Q1846.18 279.237 1846.18 270.51 Q1846.18 261.76 1849.24 257.177 Q1852.31 252.571 1858.12 252.571 Z" fill="#000000" fill-rule="nonzero" fill-opacity="1" /><path clip-path="url(#clip060)" d="M1907.92 264.423 L1884.03 272.918 L1907.92 281.367 L1907.92 285.58 L1878.24 274.816 L1878.24 270.973 L1907.92 260.21 L1907.92 264.423 Z" fill="#000000" fill-rule="nonzero" fill-opacity="1" /><path clip-path="url(#clip060)" d="M1914.93 261.83 L1919.19 261.83 L1924.51 282.061 L1929.81 261.83 L1934.84 261.83 L1940.16 282.061 L1945.46 261.83 L1949.72 261.83 L1942.94 287.756 L1937.92 287.756 L1932.34 266.506 L1926.74 287.756 L1921.71 287.756 L1914.93 261.83 Z" fill="#000000" fill-rule="nonzero" fill-opacity="1" /><path clip-path="url(#clip060)" d="M1986.41 264.423 L1962.52 272.918 L1986.41 281.367 L1986.41 285.58 L1956.74 274.816 L1956.74 270.973 L1986.41 260.21 L1986.41 264.423 Z" fill="#000000" fill-rule="nonzero" fill-opacity="1" /><path clip-path="url(#clip060)" d="M1997.31 283.821 L2004.95 283.821 L2004.95 257.455 L1996.64 259.122 L1996.64 254.862 L2004.91 253.196 L2009.58 253.196 L2009.58 283.821 L2017.22 283.821 L2017.22 287.756 L1997.31 287.756 L1997.31 283.821 Z" fill="#000000" fill-rule="nonzero" fill-opacity="1" /><polyline clip-path="url(#clip060)" style="stroke:#3da44d; stroke-linecap:round; stroke-linejoin:round; stroke-width:4; stroke-opacity:1; fill:none" points="1565.82,322.316 1706.03,322.316 "/>
<path clip-path="url(#clip060)" d="M1744.58 317.651 Q1743.87 317.235 1743.01 317.05 Q1742.18 316.841 1741.16 316.841 Q1737.55 316.841 1735.6 319.202 Q1733.68 321.54 1733.68 325.938 L1733.68 339.596 L1729.4 339.596 L1729.4 313.67 L1733.68 313.67 L1733.68 317.698 Q1735.02 315.337 1737.18 314.202 Q1739.33 313.045 1742.41 313.045 Q1742.85 313.045 1743.38 313.114 Q1743.91 313.161 1744.56 313.276 L1744.58 317.651 Z" fill="#000000" fill-rule="nonzero" fill-opacity="1" /><path clip-path="url(#clip060)" d="M1770.19 325.568 L1770.19 327.651 L1750.6 327.651 Q1750.88 332.049 1753.24 334.364 Q1755.63 336.656 1759.86 336.656 Q1762.31 336.656 1764.61 336.054 Q1766.92 335.452 1769.19 334.249 L1769.19 338.276 Q1766.9 339.248 1764.49 339.758 Q1762.08 340.267 1759.61 340.267 Q1753.4 340.267 1749.77 336.656 Q1746.16 333.045 1746.16 326.887 Q1746.16 320.522 1749.58 316.795 Q1753.03 313.045 1758.87 313.045 Q1764.1 313.045 1767.13 316.425 Q1770.19 319.781 1770.19 325.568 M1765.93 324.318 Q1765.88 320.823 1763.96 318.739 Q1762.06 316.656 1758.91 316.656 Q1755.35 316.656 1753.19 318.67 Q1751.06 320.684 1750.74 324.341 L1765.93 324.318 Z" fill="#000000" fill-rule="nonzero" fill-opacity="1" /><path clip-path="url(#clip060)" d="M1793.7 314.434 L1793.7 318.462 Q1791.9 317.536 1789.95 317.073 Q1788.01 316.61 1785.93 316.61 Q1782.75 316.61 1781.16 317.582 Q1779.58 318.554 1779.58 320.499 Q1779.58 321.98 1780.72 322.837 Q1781.85 323.67 1785.28 324.434 L1786.74 324.758 Q1791.27 325.73 1793.17 327.512 Q1795.09 329.272 1795.09 332.443 Q1795.09 336.054 1792.22 338.161 Q1789.37 340.267 1784.37 340.267 Q1782.29 340.267 1780.02 339.85 Q1777.78 339.457 1775.28 338.647 L1775.28 334.249 Q1777.64 335.475 1779.93 336.1 Q1782.22 336.702 1784.47 336.702 Q1787.48 336.702 1789.1 335.684 Q1790.72 334.642 1790.72 332.767 Q1790.72 331.031 1789.54 330.105 Q1788.38 329.179 1784.42 328.323 L1782.94 327.975 Q1778.98 327.142 1777.22 325.429 Q1775.46 323.693 1775.46 320.684 Q1775.46 317.026 1778.06 315.036 Q1780.65 313.045 1785.42 313.045 Q1787.78 313.045 1789.86 313.392 Q1791.94 313.739 1793.7 314.434 Z" fill="#000000" fill-rule="nonzero" fill-opacity="1" /><path clip-path="url(#clip060)" d="M1806.09 306.309 L1806.09 313.67 L1814.86 313.67 L1814.86 316.98 L1806.09 316.98 L1806.09 331.054 Q1806.09 334.225 1806.94 335.128 Q1807.82 336.031 1810.49 336.031 L1814.86 336.031 L1814.86 339.596 L1810.49 339.596 Q1805.56 339.596 1803.68 337.767 Q1801.81 335.915 1801.81 331.054 L1801.81 316.98 L1798.68 316.98 L1798.68 313.67 L1801.81 313.67 L1801.81 306.309 L1806.09 306.309 Z" fill="#000000" fill-rule="nonzero" fill-opacity="1" /><path clip-path="url(#clip060)" d="M1835.49 317.651 Q1834.77 317.235 1833.91 317.05 Q1833.08 316.841 1832.06 316.841 Q1828.45 316.841 1826.5 319.202 Q1824.58 321.54 1824.58 325.938 L1824.58 339.596 L1820.3 339.596 L1820.3 313.67 L1824.58 313.67 L1824.58 317.698 Q1825.93 315.337 1828.08 314.202 Q1830.23 313.045 1833.31 313.045 Q1833.75 313.045 1834.28 313.114 Q1834.81 313.161 1835.46 313.276 L1835.49 317.651 Z" fill="#000000" fill-rule="nonzero" fill-opacity="1" /><path clip-path="url(#clip060)" d="M1839.95 313.67 L1844.21 313.67 L1844.21 339.596 L1839.95 339.596 L1839.95 313.67 M1839.95 303.577 L1844.21 303.577 L1844.21 308.971 L1839.95 308.971 L1839.95 303.577 Z" fill="#000000" fill-rule="nonzero" fill-opacity="1" /><path clip-path="url(#clip060)" d="M1871.78 314.665 L1871.78 318.647 Q1869.98 317.651 1868.15 317.165 Q1866.34 316.656 1864.49 316.656 Q1860.35 316.656 1858.06 319.295 Q1855.76 321.911 1855.76 326.656 Q1855.76 331.401 1858.06 334.04 Q1860.35 336.656 1864.49 336.656 Q1866.34 336.656 1868.15 336.17 Q1869.98 335.661 1871.78 334.665 L1871.78 338.6 Q1870 339.434 1868.08 339.85 Q1866.18 340.267 1864.03 340.267 Q1858.17 340.267 1854.72 336.586 Q1851.27 332.906 1851.27 326.656 Q1851.27 320.313 1854.74 316.679 Q1858.24 313.045 1864.3 313.045 Q1866.27 313.045 1868.15 313.462 Q1870.02 313.855 1871.78 314.665 Z" fill="#000000" fill-rule="nonzero" fill-opacity="1" /><path clip-path="url(#clip060)" d="M1883.4 306.309 L1883.4 313.67 L1892.18 313.67 L1892.18 316.98 L1883.4 316.98 L1883.4 331.054 Q1883.4 334.225 1884.26 335.128 Q1885.14 336.031 1887.8 336.031 L1892.18 336.031 L1892.18 339.596 L1887.8 339.596 Q1882.87 339.596 1880.99 337.767 Q1879.12 335.915 1879.12 331.054 L1879.12 316.98 L1875.99 316.98 L1875.99 313.67 L1879.12 313.67 L1879.12 306.309 L1883.4 306.309 Z" fill="#000000" fill-rule="nonzero" fill-opacity="1" /><path clip-path="url(#clip060)" d="M1897.78 313.67 L1902.04 313.67 L1902.04 339.596 L1897.78 339.596 L1897.78 313.67 M1897.78 303.577 L1902.04 303.577 L1902.04 308.971 L1897.78 308.971 L1897.78 303.577 Z" fill="#000000" fill-rule="nonzero" fill-opacity="1" /><path clip-path="url(#clip060)" d="M1920.99 316.656 Q1917.57 316.656 1915.58 319.341 Q1913.59 322.003 1913.59 326.656 Q1913.59 331.309 1915.55 333.994 Q1917.55 336.656 1920.99 336.656 Q1924.4 336.656 1926.39 333.971 Q1928.38 331.286 1928.38 326.656 Q1928.38 322.05 1926.39 319.364 Q1924.4 316.656 1920.99 316.656 M1920.99 313.045 Q1926.55 313.045 1929.72 316.656 Q1932.89 320.267 1932.89 326.656 Q1932.89 333.022 1929.72 336.656 Q1926.55 340.267 1920.99 340.267 Q1915.42 340.267 1912.24 336.656 Q1909.1 333.022 1909.1 326.656 Q1909.1 320.267 1912.24 316.656 Q1915.42 313.045 1920.99 313.045 Z" fill="#000000" fill-rule="nonzero" fill-opacity="1" /><path clip-path="url(#clip060)" d="M1961.5 323.948 L1961.5 339.596 L1957.24 339.596 L1957.24 324.087 Q1957.24 320.406 1955.81 318.577 Q1954.37 316.749 1951.5 316.749 Q1948.05 316.749 1946.06 318.948 Q1944.07 321.147 1944.07 324.943 L1944.07 339.596 L1939.79 339.596 L1939.79 313.67 L1944.07 313.67 L1944.07 317.698 Q1945.6 315.36 1947.66 314.202 Q1949.74 313.045 1952.45 313.045 Q1956.92 313.045 1959.21 315.823 Q1961.5 318.577 1961.5 323.948 Z" fill="#000000" fill-rule="nonzero" fill-opacity="1" /><path clip-path="url(#clip060)" d="M1995.11 316.656 Q1991.69 316.656 1989.7 319.341 Q1987.71 322.003 1987.71 326.656 Q1987.71 331.309 1989.67 333.994 Q1991.67 336.656 1995.11 336.656 Q1998.52 336.656 2000.51 333.971 Q2002.5 331.286 2002.5 326.656 Q2002.5 322.05 2000.51 319.364 Q1998.52 316.656 1995.11 316.656 M1995.11 313.045 Q2000.67 313.045 2003.84 316.656 Q2007.01 320.267 2007.01 326.656 Q2007.01 333.022 2003.84 336.656 Q2000.67 340.267 1995.11 340.267 Q1989.54 340.267 1986.36 336.656 Q1983.22 333.022 1983.22 326.656 Q1983.22 320.267 1986.36 316.656 Q1989.54 313.045 1995.11 313.045 Z" fill="#000000" fill-rule="nonzero" fill-opacity="1" /><path clip-path="url(#clip060)" d="M2035.62 323.948 L2035.62 339.596 L2031.36 339.596 L2031.36 324.087 Q2031.36 320.406 2029.93 318.577 Q2028.49 316.749 2025.62 316.749 Q2022.17 316.749 2020.18 318.948 Q2018.19 321.147 2018.19 324.943 L2018.19 339.596 L2013.91 339.596 L2013.91 313.67 L2018.19 313.67 L2018.19 317.698 Q2019.72 315.36 2021.78 314.202 Q2023.86 313.045 2026.57 313.045 Q2031.04 313.045 2033.33 315.823 Q2035.62 318.577 2035.62 323.948 Z" fill="#000000" fill-rule="nonzero" fill-opacity="1" /><path clip-path="url(#clip060)" d="M2075.72 314.434 L2075.72 318.462 Q2073.91 317.536 2071.97 317.073 Q2070.02 316.61 2067.94 316.61 Q2064.77 316.61 2063.17 317.582 Q2061.6 318.554 2061.6 320.499 Q2061.6 321.98 2062.73 322.837 Q2063.86 323.67 2067.29 324.434 L2068.75 324.758 Q2073.29 325.73 2075.18 327.512 Q2077.1 329.272 2077.1 332.443 Q2077.1 336.054 2074.23 338.161 Q2071.39 340.267 2066.39 340.267 Q2064.3 340.267 2062.04 339.85 Q2059.79 339.457 2057.29 338.647 L2057.29 334.249 Q2059.65 335.475 2061.94 336.1 Q2064.23 336.702 2066.48 336.702 Q2069.49 336.702 2071.11 335.684 Q2072.73 334.642 2072.73 332.767 Q2072.73 331.031 2071.55 330.105 Q2070.39 329.179 2066.43 328.323 L2064.95 327.975 Q2060.99 327.142 2059.23 325.429 Q2057.48 323.693 2057.48 320.684 Q2057.48 317.026 2060.07 315.036 Q2062.66 313.045 2067.43 313.045 Q2069.79 313.045 2071.87 313.392 Q2073.96 313.739 2075.72 314.434 Z" fill="#000000" fill-rule="nonzero" fill-opacity="1" /><path clip-path="url(#clip060)" d="M2083.45 329.364 L2083.45 313.67 L2087.71 313.67 L2087.71 329.202 Q2087.71 332.883 2089.14 334.735 Q2090.58 336.563 2093.45 336.563 Q2096.9 336.563 2098.89 334.364 Q2100.9 332.165 2100.9 328.369 L2100.9 313.67 L2105.16 313.67 L2105.16 339.596 L2100.9 339.596 L2100.9 335.614 Q2099.35 337.975 2097.29 339.133 Q2095.25 340.267 2092.54 340.267 Q2088.08 340.267 2085.76 337.489 Q2083.45 334.711 2083.45 329.364 M2094.16 313.045 L2094.16 313.045 Z" fill="#000000" fill-rule="nonzero" fill-opacity="1" /><path clip-path="url(#clip060)" d="M2134.12 318.647 Q2135.72 315.776 2137.94 314.411 Q2140.16 313.045 2143.17 313.045 Q2147.22 313.045 2149.42 315.892 Q2151.62 318.716 2151.62 323.948 L2151.62 339.596 L2147.34 339.596 L2147.34 324.087 Q2147.34 320.36 2146.02 318.554 Q2144.7 316.749 2141.99 316.749 Q2138.68 316.749 2136.76 318.948 Q2134.84 321.147 2134.84 324.943 L2134.84 339.596 L2130.55 339.596 L2130.55 324.087 Q2130.55 320.337 2129.23 318.554 Q2127.91 316.749 2125.16 316.749 Q2121.9 316.749 2119.97 318.971 Q2118.05 321.17 2118.05 324.943 L2118.05 339.596 L2113.77 339.596 L2113.77 313.67 L2118.05 313.67 L2118.05 317.698 Q2119.51 315.313 2121.55 314.179 Q2123.59 313.045 2126.39 313.045 Q2129.21 313.045 2131.18 314.48 Q2133.17 315.915 2134.12 318.647 Z" fill="#000000" fill-rule="nonzero" fill-opacity="1" /><path clip-path="url(#clip060)" d="M2170.35 303.624 Q2167.24 308.948 2165.74 314.156 Q2164.23 319.364 2164.23 324.712 Q2164.23 330.059 2165.74 335.313 Q2167.27 340.545 2170.35 345.846 L2166.64 345.846 Q2163.17 340.406 2161.43 335.151 Q2159.72 329.897 2159.72 324.712 Q2159.72 319.55 2161.43 314.318 Q2163.15 309.087 2166.64 303.624 L2170.35 303.624 Z" fill="#000000" fill-rule="nonzero" fill-opacity="1" /><path clip-path="url(#clip060)" d="M2184.09 303.369 L2184.09 350.776 L2180.16 350.776 L2180.16 303.369 L2184.09 303.369 Z" fill="#000000" fill-rule="nonzero" fill-opacity="1" /><path clip-path="url(#clip060)" d="M2192.1 313.67 L2196.36 313.67 L2201.69 333.901 L2206.99 313.67 L2212.01 313.67 L2217.34 333.901 L2222.64 313.67 L2226.9 313.67 L2220.11 339.596 L2215.09 339.596 L2209.51 318.346 L2203.91 339.596 L2198.89 339.596 L2192.1 313.67 Z" fill="#000000" fill-rule="nonzero" fill-opacity="1" /><path clip-path="url(#clip060)" d="M2238.84 303.369 L2238.84 350.776 L2234.9 350.776 L2234.9 303.369 L2238.84 303.369 Z" fill="#000000" fill-rule="nonzero" fill-opacity="1" /><path clip-path="url(#clip060)" d="M2248.65 303.624 L2252.36 303.624 Q2255.83 309.087 2257.54 314.318 Q2259.28 319.55 2259.28 324.712 Q2259.28 329.897 2257.54 335.151 Q2255.83 340.406 2252.36 345.846 L2248.65 345.846 Q2251.73 340.545 2253.24 335.313 Q2254.77 330.059 2254.77 324.712 Q2254.77 319.364 2253.24 314.156 Q2251.73 308.948 2248.65 303.624 Z" fill="#000000" fill-rule="nonzero" fill-opacity="1" /><circle clip-path="url(#clip060)" cx="1635.92" cy="374.156" r="20.48" fill="#ff0000" fill-rule="evenodd" fill-opacity="1" stroke="#000000" stroke-opacity="1" stroke-width="4.55111"/>
<path clip-path="url(#clip060)" d="M1742.8 378.403 Q1737.64 378.403 1735.65 379.584 Q1733.66 380.764 1733.66 383.612 Q1733.66 385.88 1735.14 387.223 Q1736.64 388.542 1739.21 388.542 Q1742.75 388.542 1744.88 386.042 Q1747.04 383.519 1747.04 379.352 L1747.04 378.403 L1742.8 378.403 M1751.3 376.644 L1751.3 391.436 L1747.04 391.436 L1747.04 387.501 Q1745.58 389.862 1743.4 390.996 Q1741.23 392.107 1738.08 392.107 Q1734.1 392.107 1731.74 389.885 Q1729.4 387.639 1729.4 383.889 Q1729.4 379.514 1732.31 377.292 Q1735.25 375.07 1741.06 375.07 L1747.04 375.07 L1747.04 374.653 Q1747.04 371.714 1745.09 370.116 Q1743.17 368.496 1739.68 368.496 Q1737.45 368.496 1735.35 369.028 Q1733.24 369.561 1731.3 370.626 L1731.3 366.69 Q1733.63 365.788 1735.83 365.348 Q1738.03 364.885 1740.12 364.885 Q1745.74 364.885 1748.52 367.802 Q1751.3 370.718 1751.3 376.644 Z" fill="#000000" fill-rule="nonzero" fill-opacity="1" /><path clip-path="url(#clip060)" d="M1776.6 366.274 L1776.6 370.302 Q1774.79 369.376 1772.85 368.913 Q1770.9 368.45 1768.82 368.45 Q1765.65 368.45 1764.05 369.422 Q1762.48 370.394 1762.48 372.339 Q1762.48 373.82 1763.61 374.677 Q1764.75 375.51 1768.17 376.274 L1769.63 376.598 Q1774.17 377.57 1776.06 379.352 Q1777.99 381.112 1777.99 384.283 Q1777.99 387.894 1775.12 390.001 Q1772.27 392.107 1767.27 392.107 Q1765.19 392.107 1762.92 391.69 Q1760.67 391.297 1758.17 390.487 L1758.17 386.089 Q1760.53 387.315 1762.82 387.94 Q1765.12 388.542 1767.36 388.542 Q1770.37 388.542 1771.99 387.524 Q1773.61 386.482 1773.61 384.607 Q1773.61 382.871 1772.43 381.945 Q1771.27 381.019 1767.31 380.163 L1765.83 379.815 Q1761.87 378.982 1760.12 377.269 Q1758.36 375.533 1758.36 372.524 Q1758.36 368.866 1760.95 366.876 Q1763.54 364.885 1768.31 364.885 Q1770.67 364.885 1772.75 365.232 Q1774.84 365.579 1776.6 366.274 Z" fill="#000000" fill-rule="nonzero" fill-opacity="1" /><path clip-path="url(#clip060)" d="M1801.3 366.274 L1801.3 370.302 Q1799.49 369.376 1797.55 368.913 Q1795.6 368.45 1793.52 368.45 Q1790.35 368.45 1788.75 369.422 Q1787.18 370.394 1787.18 372.339 Q1787.18 373.82 1788.31 374.677 Q1789.44 375.51 1792.87 376.274 L1794.33 376.598 Q1798.87 377.57 1800.76 379.352 Q1802.68 381.112 1802.68 384.283 Q1802.68 387.894 1799.81 390.001 Q1796.97 392.107 1791.97 392.107 Q1789.88 392.107 1787.62 391.69 Q1785.37 391.297 1782.87 390.487 L1782.87 386.089 Q1785.23 387.315 1787.52 387.94 Q1789.81 388.542 1792.06 388.542 Q1795.07 388.542 1796.69 387.524 Q1798.31 386.482 1798.31 384.607 Q1798.31 382.871 1797.13 381.945 Q1795.97 381.019 1792.01 380.163 L1790.53 379.815 Q1786.57 378.982 1784.81 377.269 Q1783.06 375.533 1783.06 372.524 Q1783.06 368.866 1785.65 366.876 Q1788.24 364.885 1793.01 364.885 Q1795.37 364.885 1797.45 365.232 Q1799.54 365.579 1801.3 366.274 Z" fill="#000000" fill-rule="nonzero" fill-opacity="1" /><path clip-path="url(#clip060)" d="M1831.64 377.408 L1831.64 379.491 L1812.06 379.491 Q1812.34 383.889 1814.7 386.204 Q1817.08 388.496 1821.32 388.496 Q1823.77 388.496 1826.06 387.894 Q1828.38 387.292 1830.65 386.089 L1830.65 390.116 Q1828.36 391.088 1825.95 391.598 Q1823.54 392.107 1821.06 392.107 Q1814.86 392.107 1811.23 388.496 Q1807.62 384.885 1807.62 378.727 Q1807.62 372.362 1811.04 368.635 Q1814.49 364.885 1820.32 364.885 Q1825.56 364.885 1828.59 368.265 Q1831.64 371.621 1831.64 377.408 M1827.38 376.158 Q1827.34 372.663 1825.42 370.579 Q1823.52 368.496 1820.37 368.496 Q1816.81 368.496 1814.65 370.51 Q1812.52 372.524 1812.2 376.181 L1827.38 376.158 Z" fill="#000000" fill-rule="nonzero" fill-opacity="1" /><path clip-path="url(#clip060)" d="M1842.85 358.149 L1842.85 365.51 L1851.62 365.51 L1851.62 368.82 L1842.85 368.82 L1842.85 382.894 Q1842.85 386.065 1843.7 386.968 Q1844.58 387.871 1847.24 387.871 L1851.62 387.871 L1851.62 391.436 L1847.24 391.436 Q1842.31 391.436 1840.44 389.607 Q1838.56 387.755 1838.56 382.894 L1838.56 368.82 L1835.44 368.82 L1835.44 365.51 L1838.56 365.51 L1838.56 358.149 L1842.85 358.149 Z" fill="#000000" fill-rule="nonzero" fill-opacity="1" /><path clip-path="url(#clip060)" d="M1873.75 366.274 L1873.75 370.302 Q1871.94 369.376 1870 368.913 Q1868.05 368.45 1865.97 368.45 Q1862.8 368.45 1861.2 369.422 Q1859.63 370.394 1859.63 372.339 Q1859.63 373.82 1860.76 374.677 Q1861.9 375.51 1865.32 376.274 L1866.78 376.598 Q1871.32 377.57 1873.22 379.352 Q1875.14 381.112 1875.14 384.283 Q1875.14 387.894 1872.27 390.001 Q1869.42 392.107 1864.42 392.107 Q1862.34 392.107 1860.07 391.69 Q1857.82 391.297 1855.32 390.487 L1855.32 386.089 Q1857.68 387.315 1859.98 387.94 Q1862.27 388.542 1864.51 388.542 Q1867.52 388.542 1869.14 387.524 Q1870.76 386.482 1870.76 384.607 Q1870.76 382.871 1869.58 381.945 Q1868.43 381.019 1864.47 380.163 L1862.99 379.815 Q1859.03 378.982 1857.27 377.269 Q1855.51 375.533 1855.51 372.524 Q1855.51 368.866 1858.1 366.876 Q1860.69 364.885 1865.46 364.885 Q1867.82 364.885 1869.91 365.232 Q1871.99 365.579 1873.75 366.274 Z" fill="#000000" fill-rule="nonzero" fill-opacity="1" /></svg>
