<?xml version="1.0" encoding="utf-8"?>
<svg xmlns="http://www.w3.org/2000/svg" xmlns:xlink="http://www.w3.org/1999/xlink" width="600" height="400" viewBox="0 0 2400 1600">
<defs>
  <clipPath id="clip320">
    <rect x="0" y="0" width="2400" height="1600"/>
  </clipPath>
</defs>
<path clip-path="url(#clip320)" d="M0 1600 L2400 1600 L2400 0 L0 0  Z" fill="#ffffff" fill-rule="evenodd" fill-opacity="1"/>
<defs>
  <clipPath id="clip321">
    <rect x="480" y="0" width="1681" height="1600"/>
  </clipPath>
</defs>
<path clip-path="url(#clip320)" d="M257.69 1410.9 L2352.76 1410.9 L2352.76 123.472 L257.69 123.472  Z" fill="#ffffff" fill-rule="evenodd" fill-opacity="1"/>
<defs>
  <clipPath id="clip322">
    <rect x="257" y="123" width="2096" height="1288"/>
  </clipPath>
</defs>
<polyline clip-path="url(#clip322)" style="stroke:#000000; stroke-linecap:round; stroke-linejoin:round; stroke-width:2; stroke-opacity:0.1; fill:none" points="646.397,1410.9 646.397,123.472 "/>
<polyline clip-path="url(#clip322)" style="stroke:#000000; stroke-linecap:round; stroke-linejoin:round; stroke-width:2; stroke-opacity:0.1; fill:none" points="1634.64,1410.9 1634.64,123.472 "/>
<polyline clip-path="url(#clip320)" style="stroke:#000000; stroke-linecap:round; stroke-linejoin:round; stroke-width:4; stroke-opacity:1; fill:none" points="257.69,1410.9 2352.76,1410.9 "/>
<polyline clip-path="url(#clip320)" style="stroke:#000000; stroke-linecap:round; stroke-linejoin:round; stroke-width:4; stroke-opacity:1; fill:none" points="646.397,1410.9 646.397,1392 "/>
<polyline clip-path="url(#clip320)" style="stroke:#000000; stroke-linecap:round; stroke-linejoin:round; stroke-width:4; stroke-opacity:1; fill:none" points="1634.64,1410.9 1634.64,1392 "/>
<path clip-path="url(#clip320)" d="M596.277 1485.02 L603.916 1485.02 L603.916 1458.66 L595.606 1460.32 L595.606 1456.06 L603.87 1454.4 L608.546 1454.4 L608.546 1485.02 L616.185 1485.02 L616.185 1488.96 L596.277 1488.96 L596.277 1485.02 Z" fill="#000000" fill-rule="nonzero" fill-opacity="1" /><path clip-path="url(#clip320)" d="M635.629 1457.48 Q632.018 1457.48 630.189 1461.04 Q628.384 1464.58 628.384 1471.71 Q628.384 1478.82 630.189 1482.38 Q632.018 1485.92 635.629 1485.92 Q639.263 1485.92 641.069 1482.38 Q642.898 1478.82 642.898 1471.71 Q642.898 1464.58 641.069 1461.04 Q639.263 1457.48 635.629 1457.48 M635.629 1453.77 Q641.439 1453.77 644.495 1458.38 Q647.574 1462.96 647.574 1471.71 Q647.574 1480.44 644.495 1485.04 Q641.439 1489.63 635.629 1489.63 Q629.819 1489.63 626.74 1485.04 Q623.685 1480.44 623.685 1471.71 Q623.685 1462.96 626.74 1458.38 Q629.819 1453.77 635.629 1453.77 Z" fill="#000000" fill-rule="nonzero" fill-opacity="1" /><path clip-path="url(#clip320)" d="M647.574 1447.87 L671.685 1447.87 L671.685 1451.07 L647.574 1451.07 L647.574 1447.87 Z" fill="#000000" fill-rule="nonzero" fill-opacity="1" /><path clip-path="url(#clip320)" d="M691.396 1446.41 Q694.123 1446.99 695.646 1448.83 Q697.188 1450.68 697.188 1453.38 Q697.188 1457.54 694.33 1459.82 Q691.471 1462.09 686.205 1462.09 Q684.437 1462.09 682.556 1461.73 Q680.694 1461.4 678.7 1460.7 L678.7 1457.03 Q680.28 1457.95 682.161 1458.42 Q684.042 1458.89 686.092 1458.89 Q689.665 1458.89 691.527 1457.48 Q693.408 1456.07 693.408 1453.38 Q693.408 1450.9 691.659 1449.51 Q689.929 1448.1 686.825 1448.1 L683.553 1448.1 L683.553 1444.98 L686.976 1444.98 Q689.778 1444.98 691.264 1443.87 Q692.75 1442.74 692.75 1440.63 Q692.75 1438.47 691.208 1437.32 Q689.684 1436.16 686.825 1436.16 Q685.264 1436.16 683.478 1436.49 Q681.691 1436.83 679.547 1437.55 L679.547 1434.16 Q681.71 1433.56 683.59 1433.26 Q685.49 1432.96 687.164 1432.96 Q691.49 1432.96 694.01 1434.93 Q696.53 1436.89 696.53 1440.24 Q696.53 1442.57 695.195 1444.19 Q693.859 1445.79 691.396 1446.41 Z" fill="#000000" fill-rule="nonzero" fill-opacity="1" /><path clip-path="url(#clip320)" d="M1599.62 1485.02 L1607.26 1485.02 L1607.26 1458.66 L1598.95 1460.32 L1598.95 1456.06 L1607.21 1454.4 L1611.89 1454.4 L1611.89 1485.02 L1619.53 1485.02 L1619.53 1488.96 L1599.62 1488.96 L1599.62 1485.02 Z" fill="#000000" fill-rule="nonzero" fill-opacity="1" /><path clip-path="url(#clip320)" d="M1638.97 1457.48 Q1635.36 1457.48 1633.53 1461.04 Q1631.73 1464.58 1631.73 1471.71 Q1631.73 1478.82 1633.53 1482.38 Q1635.36 1485.92 1638.97 1485.92 Q1642.6 1485.92 1644.41 1482.38 Q1646.24 1478.82 1646.24 1471.71 Q1646.24 1464.58 1644.41 1461.04 Q1642.6 1457.48 1638.97 1457.48 M1638.97 1453.77 Q1644.78 1453.77 1647.84 1458.38 Q1650.91 1462.96 1650.91 1471.71 Q1650.91 1480.44 1647.84 1485.04 Q1644.78 1489.63 1638.97 1489.63 Q1633.16 1489.63 1630.08 1485.04 Q1627.03 1480.44 1627.03 1471.71 Q1627.03 1462.96 1630.08 1458.38 Q1633.16 1453.77 1638.97 1453.77 Z" fill="#000000" fill-rule="nonzero" fill-opacity="1" /><path clip-path="url(#clip320)" d="M1660.62 1435.97 Q1657.69 1435.97 1656.2 1438.86 Q1654.73 1441.74 1654.73 1447.53 Q1654.73 1453.31 1656.2 1456.2 Q1657.69 1459.08 1660.62 1459.08 Q1663.57 1459.08 1665.04 1456.2 Q1666.53 1453.31 1666.53 1447.53 Q1666.53 1441.74 1665.04 1438.86 Q1663.57 1435.97 1660.62 1435.97 M1660.62 1432.96 Q1665.34 1432.96 1667.82 1436.7 Q1670.32 1440.43 1670.32 1447.53 Q1670.32 1454.62 1667.82 1458.37 Q1665.34 1462.09 1660.62 1462.09 Q1655.9 1462.09 1653.4 1458.37 Q1650.91 1454.62 1650.91 1447.53 Q1650.91 1440.43 1653.4 1436.7 Q1655.9 1432.96 1660.62 1432.96 Z" fill="#000000" fill-rule="nonzero" fill-opacity="1" /><path clip-path="url(#clip320)" d="M1189.13 1524.66 L1194.98 1524.66 L1194.98 1574.19 L1189.13 1574.19 L1189.13 1524.66 Z" fill="#000000" fill-rule="nonzero" fill-opacity="1" /><path clip-path="url(#clip320)" d="M1223.44 1556.27 Q1216.34 1556.27 1213.6 1557.89 Q1210.87 1559.51 1210.87 1563.43 Q1210.87 1566.55 1212.9 1568.39 Q1214.97 1570.21 1218.51 1570.21 Q1223.38 1570.21 1226.3 1566.77 Q1229.26 1563.3 1229.26 1557.57 L1229.26 1556.27 L1223.44 1556.27 M1235.12 1553.85 L1235.12 1574.19 L1229.26 1574.19 L1229.26 1568.77 Q1227.26 1572.02 1224.27 1573.58 Q1221.28 1575.11 1216.95 1575.11 Q1211.47 1575.11 1208.23 1572.05 Q1205.01 1568.97 1205.01 1563.81 Q1205.01 1557.79 1209.02 1554.74 Q1213.06 1551.68 1221.05 1551.68 L1229.26 1551.68 L1229.26 1551.11 Q1229.26 1547.07 1226.59 1544.87 Q1223.95 1542.64 1219.14 1542.64 Q1216.09 1542.64 1213.19 1543.38 Q1210.29 1544.11 1207.62 1545.57 L1207.62 1540.16 Q1210.84 1538.92 1213.86 1538.31 Q1216.88 1537.68 1219.75 1537.68 Q1227.48 1537.68 1231.3 1541.69 Q1235.12 1545.7 1235.12 1553.85 Z" fill="#000000" fill-rule="nonzero" fill-opacity="1" /><path clip-path="url(#clip320)" d="M1274.94 1545.38 Q1277.13 1541.43 1280.19 1539.56 Q1283.25 1537.68 1287.38 1537.68 Q1292.95 1537.68 1295.98 1541.59 Q1299 1545.48 1299 1552.67 L1299 1574.19 L1293.11 1574.19 L1293.11 1552.86 Q1293.11 1547.74 1291.3 1545.25 Q1289.48 1542.77 1285.76 1542.77 Q1281.21 1542.77 1278.57 1545.79 Q1275.92 1548.82 1275.92 1554.04 L1275.92 1574.19 L1270.04 1574.19 L1270.04 1552.86 Q1270.04 1547.7 1268.22 1545.25 Q1266.41 1542.77 1262.62 1542.77 Q1258.13 1542.77 1255.49 1545.83 Q1252.85 1548.85 1252.85 1554.04 L1252.85 1574.19 L1246.96 1574.19 L1246.96 1538.54 L1252.85 1538.54 L1252.85 1544.08 Q1254.85 1540.8 1257.66 1539.24 Q1260.46 1537.68 1264.31 1537.68 Q1268.19 1537.68 1270.9 1539.65 Q1273.63 1541.62 1274.94 1545.38 Z" fill="#000000" fill-rule="nonzero" fill-opacity="1" /><path clip-path="url(#clip320)" d="M1336.27 1556.39 Q1336.27 1549.93 1333.6 1546.27 Q1330.96 1542.58 1326.31 1542.58 Q1321.66 1542.58 1318.99 1546.27 Q1316.35 1549.93 1316.35 1556.39 Q1316.35 1562.85 1318.99 1566.55 Q1321.66 1570.21 1326.31 1570.21 Q1330.96 1570.21 1333.6 1566.55 Q1336.27 1562.85 1336.27 1556.39 M1316.35 1543.95 Q1318.19 1540.77 1320.99 1539.24 Q1323.83 1537.68 1327.74 1537.68 Q1334.23 1537.68 1338.28 1542.83 Q1342.35 1547.99 1342.35 1556.39 Q1342.35 1564.8 1338.28 1569.95 Q1334.23 1575.11 1327.74 1575.11 Q1323.83 1575.11 1320.99 1573.58 Q1318.19 1572.02 1316.35 1568.84 L1316.35 1574.19 L1310.46 1574.19 L1310.46 1524.66 L1316.35 1524.66 L1316.35 1543.95 Z" fill="#000000" fill-rule="nonzero" fill-opacity="1" /><path clip-path="url(#clip320)" d="M1375.52 1543.95 L1375.52 1524.66 L1381.37 1524.66 L1381.37 1574.19 L1375.52 1574.19 L1375.52 1568.84 Q1373.67 1572.02 1370.84 1573.58 Q1368.04 1575.11 1364.09 1575.11 Q1357.63 1575.11 1353.55 1569.95 Q1349.51 1564.8 1349.51 1556.39 Q1349.51 1547.99 1353.55 1542.83 Q1357.63 1537.68 1364.09 1537.68 Q1368.04 1537.68 1370.84 1539.24 Q1373.67 1540.77 1375.52 1543.95 M1355.56 1556.39 Q1355.56 1562.85 1358.2 1566.55 Q1360.88 1570.21 1365.52 1570.21 Q1370.17 1570.21 1372.84 1566.55 Q1375.52 1562.85 1375.52 1556.39 Q1375.52 1549.93 1372.84 1546.27 Q1370.17 1542.58 1365.52 1542.58 Q1360.88 1542.58 1358.2 1546.27 Q1355.56 1549.93 1355.56 1556.39 Z" fill="#000000" fill-rule="nonzero" fill-opacity="1" /><path clip-path="url(#clip320)" d="M1409.64 1556.27 Q1402.54 1556.27 1399.8 1557.89 Q1397.06 1559.51 1397.06 1563.43 Q1397.06 1566.55 1399.1 1568.39 Q1401.17 1570.21 1404.7 1570.21 Q1409.57 1570.21 1412.5 1566.77 Q1415.46 1563.3 1415.46 1557.57 L1415.46 1556.27 L1409.64 1556.27 M1421.32 1553.85 L1421.32 1574.19 L1415.46 1574.19 L1415.46 1568.77 Q1413.46 1572.02 1410.46 1573.58 Q1407.47 1575.11 1403.14 1575.11 Q1397.67 1575.11 1394.42 1572.05 Q1391.21 1568.97 1391.21 1563.81 Q1391.21 1557.79 1395.22 1554.74 Q1399.26 1551.68 1407.25 1551.68 L1415.46 1551.68 L1415.46 1551.11 Q1415.46 1547.07 1412.79 1544.87 Q1410.15 1542.64 1405.34 1542.64 Q1402.28 1542.64 1399.39 1543.38 Q1396.49 1544.11 1393.82 1545.57 L1393.82 1540.16 Q1397.03 1538.92 1400.06 1538.31 Q1403.08 1537.68 1405.94 1537.68 Q1413.68 1537.68 1417.5 1541.69 Q1421.32 1545.7 1421.32 1553.85 Z" fill="#000000" fill-rule="nonzero" fill-opacity="1" /><polyline clip-path="url(#clip322)" style="stroke:#000000; stroke-linecap:round; stroke-linejoin:round; stroke-width:2; stroke-opacity:0.1; fill:none" points="257.69,1282.73 2352.76,1282.73 "/>
<polyline clip-path="url(#clip322)" style="stroke:#000000; stroke-linecap:round; stroke-linejoin:round; stroke-width:2; stroke-opacity:0.1; fill:none" points="257.69,1045.08 2352.76,1045.08 "/>
<polyline clip-path="url(#clip322)" style="stroke:#000000; stroke-linecap:round; stroke-linejoin:round; stroke-width:2; stroke-opacity:0.1; fill:none" points="257.69,807.43 2352.76,807.43 "/>
<polyline clip-path="url(#clip322)" style="stroke:#000000; stroke-linecap:round; stroke-linejoin:round; stroke-width:2; stroke-opacity:0.1; fill:none" points="257.69,569.781 2352.76,569.781 "/>
<polyline clip-path="url(#clip322)" style="stroke:#000000; stroke-linecap:round; stroke-linejoin:round; stroke-width:2; stroke-opacity:0.1; fill:none" points="257.69,332.131 2352.76,332.131 "/>
<polyline clip-path="url(#clip320)" style="stroke:#000000; stroke-linecap:round; stroke-linejoin:round; stroke-width:4; stroke-opacity:1; fill:none" points="257.69,1410.9 257.69,123.472 "/>
<polyline clip-path="url(#clip320)" style="stroke:#000000; stroke-linecap:round; stroke-linejoin:round; stroke-width:4; stroke-opacity:1; fill:none" points="257.69,1282.73 276.588,1282.73 "/>
<polyline clip-path="url(#clip320)" style="stroke:#000000; stroke-linecap:round; stroke-linejoin:round; stroke-width:4; stroke-opacity:1; fill:none" points="257.69,1045.08 276.588,1045.08 "/>
<polyline clip-path="url(#clip320)" style="stroke:#000000; stroke-linecap:round; stroke-linejoin:round; stroke-width:4; stroke-opacity:1; fill:none" points="257.69,807.43 276.588,807.43 "/>
<polyline clip-path="url(#clip320)" style="stroke:#000000; stroke-linecap:round; stroke-linejoin:round; stroke-width:4; stroke-opacity:1; fill:none" points="257.69,569.781 276.588,569.781 "/>
<polyline clip-path="url(#clip320)" style="stroke:#000000; stroke-linecap:round; stroke-linejoin:round; stroke-width:4; stroke-opacity:1; fill:none" points="257.69,332.131 276.588,332.131 "/>
<path clip-path="url(#clip320)" d="M114.26 1283.18 L143.936 1283.18 L143.936 1287.12 L114.26 1287.12 L114.26 1283.18 Z" fill="#000000" fill-rule="nonzero" fill-opacity="1" /><path clip-path="url(#clip320)" d="M164.028 1268.53 Q160.417 1268.53 158.589 1272.09 Q156.783 1275.63 156.783 1282.76 Q156.783 1289.87 158.589 1293.43 Q160.417 1296.98 164.028 1296.98 Q167.663 1296.98 169.468 1293.43 Q171.297 1289.87 171.297 1282.76 Q171.297 1275.63 169.468 1272.09 Q167.663 1268.53 164.028 1268.53 M164.028 1264.82 Q169.839 1264.82 172.894 1269.43 Q175.973 1274.01 175.973 1282.76 Q175.973 1291.49 172.894 1296.1 Q169.839 1300.68 164.028 1300.68 Q158.218 1300.68 155.14 1296.1 Q152.084 1291.49 152.084 1282.76 Q152.084 1274.01 155.14 1269.43 Q158.218 1264.82 164.028 1264.82 Z" fill="#000000" fill-rule="nonzero" fill-opacity="1" /><path clip-path="url(#clip320)" d="M184.19 1294.13 L189.075 1294.13 L189.075 1300.01 L184.19 1300.01 L184.19 1294.13 Z" fill="#000000" fill-rule="nonzero" fill-opacity="1" /><path clip-path="url(#clip320)" d="M212.107 1269.52 L200.301 1287.97 L212.107 1287.97 L212.107 1269.52 M210.88 1265.45 L216.76 1265.45 L216.76 1287.97 L221.69 1287.97 L221.69 1291.86 L216.76 1291.86 L216.76 1300.01 L212.107 1300.01 L212.107 1291.86 L196.505 1291.86 L196.505 1287.35 L210.88 1265.45 Z" fill="#000000" fill-rule="nonzero" fill-opacity="1" /><path clip-path="url(#clip320)" d="M116.343 1045.53 L146.019 1045.53 L146.019 1049.47 L116.343 1049.47 L116.343 1045.53 Z" fill="#000000" fill-rule="nonzero" fill-opacity="1" /><path clip-path="url(#clip320)" d="M166.112 1030.88 Q162.501 1030.88 160.672 1034.44 Q158.866 1037.98 158.866 1045.11 Q158.866 1052.22 160.672 1055.79 Q162.501 1059.33 166.112 1059.33 Q169.746 1059.33 171.552 1055.79 Q173.38 1052.22 173.38 1045.11 Q173.38 1037.98 171.552 1034.44 Q169.746 1030.88 166.112 1030.88 M166.112 1027.17 Q171.922 1027.17 174.977 1031.78 Q178.056 1036.36 178.056 1045.11 Q178.056 1053.84 174.977 1058.45 Q171.922 1063.03 166.112 1063.03 Q160.302 1063.03 157.223 1058.45 Q154.167 1053.84 154.167 1045.11 Q154.167 1036.36 157.223 1031.78 Q160.302 1027.17 166.112 1027.17 Z" fill="#000000" fill-rule="nonzero" fill-opacity="1" /><path clip-path="url(#clip320)" d="M186.274 1056.48 L191.158 1056.48 L191.158 1062.36 L186.274 1062.36 L186.274 1056.48 Z" fill="#000000" fill-rule="nonzero" fill-opacity="1" /><path clip-path="url(#clip320)" d="M205.371 1058.42 L221.69 1058.42 L221.69 1062.36 L199.746 1062.36 L199.746 1058.42 Q202.408 1055.67 206.991 1051.04 Q211.598 1046.39 212.778 1045.04 Q215.024 1042.52 215.903 1040.79 Q216.806 1039.03 216.806 1037.34 Q216.806 1034.58 214.861 1032.85 Q212.94 1031.11 209.838 1031.11 Q207.639 1031.11 205.186 1031.87 Q202.755 1032.64 199.977 1034.19 L199.977 1029.47 Q202.801 1028.33 205.255 1027.75 Q207.709 1027.17 209.746 1027.17 Q215.116 1027.17 218.311 1029.86 Q221.505 1032.54 221.505 1037.04 Q221.505 1039.17 220.695 1041.09 Q219.908 1042.98 217.801 1045.58 Q217.223 1046.25 214.121 1049.47 Q211.019 1052.66 205.371 1058.42 Z" fill="#000000" fill-rule="nonzero" fill-opacity="1" /><path clip-path="url(#clip320)" d="M164.515 793.229 Q160.903 793.229 159.075 796.793 Q157.269 800.335 157.269 807.465 Q157.269 814.571 159.075 818.136 Q160.903 821.678 164.515 821.678 Q168.149 821.678 169.954 818.136 Q171.783 814.571 171.783 807.465 Q171.783 800.335 169.954 796.793 Q168.149 793.229 164.515 793.229 M164.515 789.525 Q170.325 789.525 173.38 794.131 Q176.459 798.715 176.459 807.465 Q176.459 816.192 173.38 820.798 Q170.325 825.381 164.515 825.381 Q158.704 825.381 155.626 820.798 Q152.57 816.192 152.57 807.465 Q152.57 798.715 155.626 794.131 Q158.704 789.525 164.515 789.525 Z" fill="#000000" fill-rule="nonzero" fill-opacity="1" /><path clip-path="url(#clip320)" d="M184.676 818.83 L189.561 818.83 L189.561 824.71 L184.676 824.71 L184.676 818.83 Z" fill="#000000" fill-rule="nonzero" fill-opacity="1" /><path clip-path="url(#clip320)" d="M209.746 793.229 Q206.135 793.229 204.306 796.793 Q202.5 800.335 202.5 807.465 Q202.5 814.571 204.306 818.136 Q206.135 821.678 209.746 821.678 Q213.38 821.678 215.186 818.136 Q217.014 814.571 217.014 807.465 Q217.014 800.335 215.186 796.793 Q213.38 793.229 209.746 793.229 M209.746 789.525 Q215.556 789.525 218.611 794.131 Q221.69 798.715 221.69 807.465 Q221.69 816.192 218.611 820.798 Q215.556 825.381 209.746 825.381 Q203.936 825.381 200.857 820.798 Q197.801 816.192 197.801 807.465 Q197.801 798.715 200.857 794.131 Q203.936 789.525 209.746 789.525 Z" fill="#000000" fill-rule="nonzero" fill-opacity="1" /><path clip-path="url(#clip320)" d="M166.112 555.579 Q162.501 555.579 160.672 559.144 Q158.866 562.686 158.866 569.815 Q158.866 576.922 160.672 580.487 Q162.501 584.028 166.112 584.028 Q169.746 584.028 171.552 580.487 Q173.38 576.922 173.38 569.815 Q173.38 562.686 171.552 559.144 Q169.746 555.579 166.112 555.579 M166.112 551.876 Q171.922 551.876 174.977 556.482 Q178.056 561.065 178.056 569.815 Q178.056 578.542 174.977 583.149 Q171.922 587.732 166.112 587.732 Q160.302 587.732 157.223 583.149 Q154.167 578.542 154.167 569.815 Q154.167 561.065 157.223 556.482 Q160.302 551.876 166.112 551.876 Z" fill="#000000" fill-rule="nonzero" fill-opacity="1" /><path clip-path="url(#clip320)" d="M186.274 581.181 L191.158 581.181 L191.158 587.061 L186.274 587.061 L186.274 581.181 Z" fill="#000000" fill-rule="nonzero" fill-opacity="1" /><path clip-path="url(#clip320)" d="M205.371 583.125 L221.69 583.125 L221.69 587.061 L199.746 587.061 L199.746 583.125 Q202.408 580.371 206.991 575.741 Q211.598 571.088 212.778 569.746 Q215.024 567.223 215.903 565.487 Q216.806 563.727 216.806 562.038 Q216.806 559.283 214.861 557.547 Q212.94 555.811 209.838 555.811 Q207.639 555.811 205.186 556.575 Q202.755 557.339 199.977 558.889 L199.977 554.167 Q202.801 553.033 205.255 552.454 Q207.709 551.876 209.746 551.876 Q215.116 551.876 218.311 554.561 Q221.505 557.246 221.505 561.737 Q221.505 563.866 220.695 565.788 Q219.908 567.686 217.801 570.278 Q217.223 570.95 214.121 574.167 Q211.019 577.362 205.371 583.125 Z" fill="#000000" fill-rule="nonzero" fill-opacity="1" /><path clip-path="url(#clip320)" d="M164.028 317.93 Q160.417 317.93 158.589 321.495 Q156.783 325.036 156.783 332.166 Q156.783 339.272 158.589 342.837 Q160.417 346.379 164.028 346.379 Q167.663 346.379 169.468 342.837 Q171.297 339.272 171.297 332.166 Q171.297 325.036 169.468 321.495 Q167.663 317.93 164.028 317.93 M164.028 314.226 Q169.839 314.226 172.894 318.833 Q175.973 323.416 175.973 332.166 Q175.973 340.893 172.894 345.499 Q169.839 350.083 164.028 350.083 Q158.218 350.083 155.14 345.499 Q152.084 340.893 152.084 332.166 Q152.084 323.416 155.14 318.833 Q158.218 314.226 164.028 314.226 Z" fill="#000000" fill-rule="nonzero" fill-opacity="1" /><path clip-path="url(#clip320)" d="M184.19 343.532 L189.075 343.532 L189.075 349.411 L184.19 349.411 L184.19 343.532 Z" fill="#000000" fill-rule="nonzero" fill-opacity="1" /><path clip-path="url(#clip320)" d="M212.107 318.925 L200.301 337.374 L212.107 337.374 L212.107 318.925 M210.88 314.851 L216.76 314.851 L216.76 337.374 L221.69 337.374 L221.69 341.263 L216.76 341.263 L216.76 349.411 L212.107 349.411 L212.107 341.263 L196.505 341.263 L196.505 336.749 L210.88 314.851 Z" fill="#000000" fill-rule="nonzero" fill-opacity="1" /><path clip-path="url(#clip320)" d="M28.3562 750.57 L45.7028 763.46 L64.0042 749.901 L64.0042 756.808 L49.9996 767.184 L64.0042 777.56 L64.0042 784.467 L45.3526 770.622 L28.3562 783.29 L28.3562 776.383 L41.0558 766.93 L28.3562 757.477 L28.3562 750.57 Z" fill="#000000" fill-rule="nonzero" fill-opacity="1" /><path clip-path="url(#clip320)" d="M849.719 12.096 L887.96 12.096 L887.96 18.9825 L857.902 18.9825 L857.902 36.8875 L886.704 36.8875 L886.704 43.7741 L857.902 43.7741 L857.902 65.6895 L888.689 65.6895 L888.689 72.576 L849.719 72.576 L849.719 12.096 Z" fill="#000000" fill-rule="nonzero" fill-opacity="1" /><path clip-path="url(#clip320)" d="M939.528 45.1919 L939.528 72.576 L932.074 72.576 L932.074 45.4349 Q932.074 38.994 929.562 35.7938 Q927.051 32.5936 922.028 32.5936 Q915.992 32.5936 912.508 36.4419 Q909.024 40.2903 909.024 46.9338 L909.024 72.576 L901.53 72.576 L901.53 27.2059 L909.024 27.2059 L909.024 34.2544 Q911.698 30.163 915.303 28.1376 Q918.949 26.1121 923.689 26.1121 Q931.507 26.1121 935.517 30.9732 Q939.528 35.7938 939.528 45.1919 Z" fill="#000000" fill-rule="nonzero" fill-opacity="1" /><path clip-path="url(#clip320)" d="M961.767 14.324 L961.767 27.2059 L977.12 27.2059 L977.12 32.9987 L961.767 32.9987 L961.767 57.6282 Q961.767 63.1779 963.266 64.7578 Q964.805 66.3376 969.464 66.3376 L977.12 66.3376 L977.12 72.576 L969.464 72.576 Q960.835 72.576 957.554 69.3758 Q954.273 66.1351 954.273 57.6282 L954.273 32.9987 L948.804 32.9987 L948.804 27.2059 L954.273 27.2059 L954.273 14.324 L961.767 14.324 Z" fill="#000000" fill-rule="nonzero" fill-opacity="1" /><path clip-path="url(#clip320)" d="M1013.21 34.1734 Q1011.96 33.4443 1010.46 33.1202 Q1009 32.7556 1007.22 32.7556 Q1000.9 32.7556 997.496 36.8875 Q994.134 40.9789 994.134 48.6757 L994.134 72.576 L986.64 72.576 L986.64 27.2059 L994.134 27.2059 L994.134 34.2544 Q996.483 30.1225 1000.25 28.1376 Q1004.02 26.1121 1009.41 26.1121 Q1010.18 26.1121 1011.11 26.2337 Q1012.04 26.3147 1013.17 26.5172 L1013.21 34.1734 Z" fill="#000000" fill-rule="nonzero" fill-opacity="1" /><path clip-path="url(#clip320)" d="M1021.03 27.2059 L1028.49 27.2059 L1028.49 72.576 L1021.03 72.576 L1021.03 27.2059 M1021.03 9.54393 L1028.49 9.54393 L1028.49 18.9825 L1021.03 18.9825 L1021.03 9.54393 Z" fill="#000000" fill-rule="nonzero" fill-opacity="1" /><path clip-path="url(#clip320)" d="M1082.89 48.0275 L1082.89 51.6733 L1048.62 51.6733 Q1049.1 59.3701 1053.24 63.421 Q1057.41 67.4314 1064.82 67.4314 Q1069.12 67.4314 1073.13 66.3781 Q1077.18 65.3249 1081.15 63.2184 L1081.15 70.267 Q1077.14 71.9684 1072.92 72.8596 Q1068.71 73.7508 1064.38 73.7508 Q1053.52 73.7508 1047.16 67.4314 Q1040.84 61.1119 1040.84 50.3365 Q1040.84 39.1965 1046.84 32.6746 Q1052.87 26.1121 1063.08 26.1121 Q1072.24 26.1121 1077.54 32.0264 Q1082.89 37.9003 1082.89 48.0275 M1075.44 45.84 Q1075.35 39.7232 1071.99 36.0774 Q1068.67 32.4315 1063.16 32.4315 Q1056.92 32.4315 1053.16 35.9558 Q1049.43 39.4801 1048.86 45.8805 L1075.44 45.84 Z" fill="#000000" fill-rule="nonzero" fill-opacity="1" /><path clip-path="url(#clip320)" d="M1124.05 28.5427 L1124.05 35.5912 Q1120.89 33.9709 1117.48 33.1607 Q1114.08 32.3505 1110.44 32.3505 Q1104.89 32.3505 1102.09 34.0519 Q1099.34 35.7533 1099.34 39.156 Q1099.34 41.7486 1101.32 43.2475 Q1103.31 44.7058 1109.3 46.0426 L1111.85 46.6097 Q1119.79 48.3111 1123.11 51.4303 Q1126.48 54.509 1126.48 60.0587 Q1126.48 66.3781 1121.45 70.0644 Q1116.47 73.7508 1107.72 73.7508 Q1104.08 73.7508 1100.11 73.0216 Q1096.18 72.3329 1091.8 70.9151 L1091.8 63.2184 Q1095.93 65.3654 1099.94 66.4591 Q1103.95 67.5124 1107.88 67.5124 Q1113.15 67.5124 1115.99 65.73 Q1118.82 63.9071 1118.82 60.6258 Q1118.82 57.5877 1116.75 55.9673 Q1114.73 54.3469 1107.8 52.8481 L1105.21 52.2405 Q1098.28 50.7821 1095.2 47.7845 Q1092.13 44.7463 1092.13 39.4801 Q1092.13 33.0797 1096.66 29.5959 Q1101.2 26.1121 1109.54 26.1121 Q1113.68 26.1121 1117.32 26.7198 Q1120.97 27.3274 1124.05 28.5427 Z" fill="#000000" fill-rule="nonzero" fill-opacity="1" /><path clip-path="url(#clip320)" d="M1182.3 32.4315 Q1176.3 32.4315 1172.82 37.1306 Q1169.34 41.7891 1169.34 49.9314 Q1169.34 58.0738 1172.78 62.7728 Q1176.26 67.4314 1182.3 67.4314 Q1188.25 67.4314 1191.74 62.7323 Q1195.22 58.0333 1195.22 49.9314 Q1195.22 41.8701 1191.74 37.1711 Q1188.25 32.4315 1182.3 32.4315 M1182.3 26.1121 Q1192.02 26.1121 1197.57 32.4315 Q1203.12 38.7509 1203.12 49.9314 Q1203.12 61.0714 1197.57 67.4314 Q1192.02 73.7508 1182.3 73.7508 Q1172.54 73.7508 1166.99 67.4314 Q1161.48 61.0714 1161.48 49.9314 Q1161.48 38.7509 1166.99 32.4315 Q1172.54 26.1121 1182.3 26.1121 Z" fill="#000000" fill-rule="nonzero" fill-opacity="1" /><path clip-path="url(#clip320)" d="M1238.44 9.54393 L1238.44 15.7418 L1231.31 15.7418 Q1227.3 15.7418 1225.72 17.3622 Q1224.18 18.9825 1224.18 23.1955 L1224.18 27.2059 L1236.46 27.2059 L1236.46 32.9987 L1224.18 32.9987 L1224.18 72.576 L1216.69 72.576 L1216.69 32.9987 L1209.56 32.9987 L1209.56 27.2059 L1216.69 27.2059 L1216.69 24.0462 Q1216.69 16.471 1220.21 13.0277 Q1223.74 9.54393 1231.4 9.54393 L1238.44 9.54393 Z" fill="#000000" fill-rule="nonzero" fill-opacity="1" /><path clip-path="url(#clip320)" d="M1308.77 27.2059 L1292.36 49.2833 L1309.62 72.576 L1300.83 72.576 L1287.62 54.752 L1274.42 72.576 L1265.63 72.576 L1283.25 48.8377 L1267.12 27.2059 L1275.91 27.2059 L1287.95 43.369 L1299.98 27.2059 L1308.77 27.2059 Z" fill="#000000" fill-rule="nonzero" fill-opacity="1" /><path clip-path="url(#clip320)" d="M1341.17 27.2059 L1349.07 27.2059 L1363.25 65.2844 L1377.43 27.2059 L1385.33 27.2059 L1368.32 72.576 L1358.19 72.576 L1341.17 27.2059 Z" fill="#000000" fill-rule="nonzero" fill-opacity="1" /><path clip-path="url(#clip320)" d="M1424.54 28.5427 L1424.54 35.5912 Q1421.38 33.9709 1417.98 33.1607 Q1414.58 32.3505 1410.93 32.3505 Q1405.38 32.3505 1402.59 34.0519 Q1399.83 35.7533 1399.83 39.156 Q1399.83 41.7486 1401.82 43.2475 Q1403.8 44.7058 1409.8 46.0426 L1412.35 46.6097 Q1420.29 48.3111 1423.61 51.4303 Q1426.97 54.509 1426.97 60.0587 Q1426.97 66.3781 1421.95 70.0644 Q1416.97 73.7508 1408.22 73.7508 Q1404.57 73.7508 1400.6 73.0216 Q1396.67 72.3329 1392.3 70.9151 L1392.3 63.2184 Q1396.43 65.3654 1400.44 66.4591 Q1404.45 67.5124 1408.38 67.5124 Q1413.65 67.5124 1416.48 65.73 Q1419.32 63.9071 1419.32 60.6258 Q1419.32 57.5877 1417.25 55.9673 Q1415.23 54.3469 1408.3 52.8481 L1405.71 52.2405 Q1398.78 50.7821 1395.7 47.7845 Q1392.62 44.7463 1392.62 39.4801 Q1392.62 33.0797 1397.16 29.5959 Q1401.7 26.1121 1410.04 26.1121 Q1414.17 26.1121 1417.82 26.7198 Q1421.46 27.3274 1424.54 28.5427 Z" fill="#000000" fill-rule="nonzero" fill-opacity="1" /><path clip-path="url(#clip320)" d="M1465.21 9.54393 L1472.67 9.54393 L1472.67 72.576 L1465.21 72.576 L1465.21 9.54393 Z" fill="#000000" fill-rule="nonzero" fill-opacity="1" /><path clip-path="url(#clip320)" d="M1508.88 49.7694 Q1499.85 49.7694 1496.36 51.8354 Q1492.88 53.9013 1492.88 58.8839 Q1492.88 62.8538 1495.47 65.2034 Q1498.11 67.5124 1502.6 67.5124 Q1508.8 67.5124 1512.53 63.1374 Q1516.3 58.7219 1516.3 51.4303 L1516.3 49.7694 L1508.88 49.7694 M1523.75 46.6907 L1523.75 72.576 L1516.3 72.576 L1516.3 65.6895 Q1513.74 69.8214 1509.94 71.8063 Q1506.13 73.7508 1500.62 73.7508 Q1493.65 73.7508 1489.52 69.8619 Q1485.43 65.9325 1485.43 59.3701 Q1485.43 51.7138 1490.53 47.825 Q1495.68 43.9361 1505.84 43.9361 L1516.3 43.9361 L1516.3 43.2069 Q1516.3 38.0623 1512.89 35.2672 Q1509.53 32.4315 1503.41 32.4315 Q1499.52 32.4315 1495.84 33.3632 Q1492.15 34.295 1488.75 36.1584 L1488.75 29.2718 Q1492.84 27.692 1496.69 26.9223 Q1500.54 26.1121 1504.18 26.1121 Q1514.03 26.1121 1518.89 31.2163 Q1523.75 36.3204 1523.75 46.6907 Z" fill="#000000" fill-rule="nonzero" fill-opacity="1" /><path clip-path="url(#clip320)" d="M1574.43 35.9153 Q1577.22 30.8922 1581.11 28.5022 Q1585 26.1121 1590.26 26.1121 Q1597.35 26.1121 1601.2 31.0947 Q1605.05 36.0368 1605.05 45.1919 L1605.05 72.576 L1597.56 72.576 L1597.56 45.4349 Q1597.56 38.913 1595.25 35.7533 Q1592.94 32.5936 1588.2 32.5936 Q1582.41 32.5936 1579.04 36.4419 Q1575.68 40.2903 1575.68 46.9338 L1575.68 72.576 L1568.19 72.576 L1568.19 45.4349 Q1568.19 38.8725 1565.88 35.7533 Q1563.57 32.5936 1558.75 32.5936 Q1553.04 32.5936 1549.67 36.4824 Q1546.31 40.3308 1546.31 46.9338 L1546.31 72.576 L1538.82 72.576 L1538.82 27.2059 L1546.31 27.2059 L1546.31 34.2544 Q1548.86 30.082 1552.43 28.0971 Q1555.99 26.1121 1560.9 26.1121 Q1565.84 26.1121 1569.28 28.6237 Q1572.76 31.1352 1574.43 35.9153 Z" fill="#000000" fill-rule="nonzero" fill-opacity="1" /><path clip-path="url(#clip320)" d="M1652.49 49.9314 Q1652.49 41.7081 1649.08 37.0496 Q1645.72 32.3505 1639.81 32.3505 Q1633.89 32.3505 1630.49 37.0496 Q1627.13 41.7081 1627.13 49.9314 Q1627.13 58.1548 1630.49 62.8538 Q1633.89 67.5124 1639.81 67.5124 Q1645.72 67.5124 1649.08 62.8538 Q1652.49 58.1548 1652.49 49.9314 M1627.13 34.0924 Q1629.48 30.0415 1633.04 28.0971 Q1636.65 26.1121 1641.63 26.1121 Q1649.89 26.1121 1655.04 32.6746 Q1660.22 39.2371 1660.22 49.9314 Q1660.22 60.6258 1655.04 67.1883 Q1649.89 73.7508 1641.63 73.7508 Q1636.65 73.7508 1633.04 71.8063 Q1629.48 69.8214 1627.13 65.7705 L1627.13 72.576 L1619.63 72.576 L1619.63 9.54393 L1627.13 9.54393 L1627.13 34.0924 Z" fill="#000000" fill-rule="nonzero" fill-opacity="1" /><path clip-path="url(#clip320)" d="M1702.43 34.0924 L1702.43 9.54393 L1709.89 9.54393 L1709.89 72.576 L1702.43 72.576 L1702.43 65.7705 Q1700.08 69.8214 1696.48 71.8063 Q1692.91 73.7508 1687.89 73.7508 Q1679.67 73.7508 1674.48 67.1883 Q1669.34 60.6258 1669.34 49.9314 Q1669.34 39.2371 1674.48 32.6746 Q1679.67 26.1121 1687.89 26.1121 Q1692.91 26.1121 1696.48 28.0971 Q1700.08 30.0415 1702.43 34.0924 M1677.04 49.9314 Q1677.04 58.1548 1680.4 62.8538 Q1683.8 67.5124 1689.71 67.5124 Q1695.63 67.5124 1699.03 62.8538 Q1702.43 58.1548 1702.43 49.9314 Q1702.43 41.7081 1699.03 37.0496 Q1695.63 32.3505 1689.71 32.3505 Q1683.8 32.3505 1680.4 37.0496 Q1677.04 41.7081 1677.04 49.9314 Z" fill="#000000" fill-rule="nonzero" fill-opacity="1" /><path clip-path="url(#clip320)" d="M1745.86 49.7694 Q1736.83 49.7694 1733.34 51.8354 Q1729.86 53.9013 1729.86 58.8839 Q1729.86 62.8538 1732.45 65.2034 Q1735.08 67.5124 1739.58 67.5124 Q1745.78 67.5124 1749.51 63.1374 Q1753.27 58.7219 1753.27 51.4303 L1753.27 49.7694 L1745.86 49.7694 M1760.73 46.6907 L1760.73 72.576 L1753.27 72.576 L1753.27 65.6895 Q1750.72 69.8214 1746.91 71.8063 Q1743.11 73.7508 1737.6 73.7508 Q1730.63 73.7508 1726.5 69.8619 Q1722.41 65.9325 1722.41 59.3701 Q1722.41 51.7138 1727.51 47.825 Q1732.65 43.9361 1742.82 43.9361 L1753.27 43.9361 L1753.27 43.2069 Q1753.27 38.0623 1749.87 35.2672 Q1746.51 32.4315 1740.39 32.4315 Q1736.5 32.4315 1732.82 33.3632 Q1729.13 34.295 1725.73 36.1584 L1725.73 29.2718 Q1729.82 27.692 1733.67 26.9223 Q1737.52 26.1121 1741.16 26.1121 Q1751 26.1121 1755.87 31.2163 Q1760.73 36.3204 1760.73 46.6907 Z" fill="#000000" fill-rule="nonzero" fill-opacity="1" /><polyline clip-path="url(#clip322)" style="stroke:#009af9; stroke-linecap:round; stroke-linejoin:round; stroke-width:4; stroke-opacity:1; fill:none" points="316.984,1374.41 336.949,1374.41 356.913,1374.41 376.878,1374.41 396.842,1374.41 416.807,1374.38 436.771,1374.43 456.735,1374.39 476.7,1373.94 496.664,1374.36 516.629,1374.37 536.593,1374.36 556.557,1374.36 576.522,1374.35 596.486,1374.18 616.451,1374.43 636.415,1374.46 656.38,1374.35 676.344,1374.29 696.308,1374.27 716.273,1374.25 736.237,1374.22 756.202,1374.2 776.166,1374.07 796.13,1374.32 816.095,1374.09 836.059,1374.05 856.024,1374 875.988,1373.93 895.953,1373.86 915.917,1373.78 935.881,1373.68 955.846,1373.57 975.81,1373.44 995.775,1373.3 1015.74,1373.13 1035.7,1372.94 1055.67,1372.71 1075.63,1372.46 1095.6,1372.17 1115.56,1371.83 1135.53,1371.44 1155.49,1370.99 1175.45,1370.48 1195.42,1369.89 1215.38,1369.21 1235.35,1368.43 1255.31,1367.54 1275.28,1366.51 1295.24,1365.33 1315.21,1363.96 1335.17,1362.39 1355.13,1360.59 1375.1,1358.52 1395.06,1356.14 1415.03,1353.4 1434.99,1350.26 1454.96,1346.64 1474.92,1342.48 1494.88,1337.69 1514.85,1332.17 1534.81,1325.65 1554.78,1318.22 1574.74,1309.66 1594.71,1299.92 1614.67,1288.7 1634.64,1275.49 1654.6,1260.57 1674.56,1243.36 1694.53,1228.02 1714.49,1213.84 1734.46,1198.7 1754.42,1181.59 1774.39,1161.8 1794.35,1140.91 1814.32,1117.26 1834.28,1090.28 1854.24,1059.23 1874.21,1036.29 1894.17,1012.44 1914.14,984.982 1934.1,953.501 1954.07,913.672 1974.03,872.891 1994,831.326 2013.96,807.421 2033.92,807.43 2053.89,807.43 2073.85,807.43 2093.82,807.43 2113.78,807.43 2133.75,807.43 2153.71,807.43 2173.68,807.43 2193.64,807.43 2213.6,807.43 2233.57,807.43 2253.53,807.43 2273.5,807.43 2293.46,807.43 "/>
<polyline clip-path="url(#clip322)" style="stroke:#e26f46; stroke-linecap:round; stroke-linejoin:round; stroke-width:4; stroke-opacity:1; fill:none" points="316.984,923.446 336.949,923.446 356.913,923.446 376.878,923.447 396.842,923.447 416.807,923.103 436.771,923.383 456.735,923.502 476.7,923.494 496.664,923.444 516.629,923.454 536.593,923.455 556.557,923.456 576.522,923.458 596.486,923.428 616.451,923.264 636.415,923.351 656.38,923.426 676.344,923.469 696.308,923.475 716.273,923.479 736.237,923.488 756.202,923.491 776.166,923.751 796.13,923.403 816.095,923.512 836.059,923.515 856.024,923.529 875.988,923.54 895.953,923.557 915.917,923.576 935.881,923.595 955.846,923.618 975.81,923.644 995.775,923.675 1015.74,923.711 1035.7,923.751 1055.67,923.797 1075.63,923.85 1095.6,923.912 1115.56,923.982 1135.53,924.063 1155.49,924.158 1175.45,924.266 1195.42,924.39 1215.38,924.533 1235.35,924.697 1255.31,924.883 1275.28,925.098 1295.24,925.346 1315.21,925.634 1335.17,925.964 1355.13,926.341 1375.1,926.776 1395.06,927.275 1415.03,927.85 1434.99,928.507 1454.96,929.265 1474.92,930.142 1494.88,931.142 1514.85,932.2 1534.81,932.89 1554.78,933.77 1574.74,934.746 1594.71,935.879 1614.67,937.172 1634.64,938.719 1654.6,940.598 1674.56,942.664 1694.53,943.312 1714.49,941.844 1734.46,937.904 1754.42,933.353 1774.39,928.194 1794.35,925.031 1814.32,922.071 1834.28,918.885 1854.24,915.221 1874.21,898.141 1894.17,875.898 1914.14,850.298 1934.1,820.953 1954.07,807.43 1974.03,807.432 1994,807.43 2013.96,807.42 2033.92,807.43 2053.89,807.43 2073.85,807.43 2093.82,807.43 2113.78,807.43 2133.75,807.43 2153.71,807.43 2173.68,807.43 2193.64,807.43 2213.6,807.43 2233.57,807.43 2253.53,807.43 2273.5,807.43 2293.46,807.43 "/>
<polyline clip-path="url(#clip322)" style="stroke:#3da44d; stroke-linecap:round; stroke-linejoin:round; stroke-width:4; stroke-opacity:1; fill:none" points="316.984,644.088 336.949,644.088 356.913,644.088 376.878,644.088 396.842,644.088 416.807,643.92 436.771,644.047 456.735,644.104 476.7,644.709 496.664,644.167 516.629,644.134 536.593,644.141 556.557,644.149 576.522,644.159 596.486,644.439 616.451,643.791 636.415,644.026 656.38,644.172 676.344,644.23 696.308,644.255 716.273,644.28 736.237,644.314 756.202,644.345 776.166,644.53 796.13,644.184 816.095,644.474 836.059,644.522 856.024,644.591 875.988,644.667 895.953,644.757 915.917,644.86 935.881,644.975 955.846,645.109 975.81,645.264 995.775,645.442 1015.74,645.647 1035.7,645.881 1055.67,646.15 1075.63,646.461 1095.6,646.818 1115.56,647.229 1135.53,647.7 1155.49,648.244 1175.45,648.87 1195.42,649.588 1215.38,650.414 1235.35,651.363 1255.31,652.45 1275.28,653.702 1295.24,655.143 1315.21,656.804 1335.17,658.712 1355.13,660.904 1375.1,663.426 1395.06,666.321 1415.03,669.656 1434.99,673.48 1454.96,677.883 1474.92,682.95 1494.88,688.771 1514.85,695.43 1534.81,702.909 1554.78,711.5 1574.74,721.39 1594.71,732.656 1614.67,745.639 1634.64,760.857 1654.6,778.2 1674.56,798.13 1694.53,806.543 1714.49,806.833 1734.46,807.499 1754.42,807.192 1774.39,807.381 1794.35,807.371 1814.32,807.372 1834.28,807.431 1854.24,807.431 1874.21,807.431 1894.17,807.43 1914.14,807.42 1934.1,807.43 1954.07,807.43 1974.03,807.425 1994,807.43 2013.96,807.421 2033.92,807.43 2053.89,807.43 2073.85,807.43 2093.82,807.43 2113.78,807.43 2133.75,807.43 2153.71,807.43 2173.68,807.43 2193.64,807.43 2213.6,807.43 2233.57,807.43 2253.53,807.43 2273.5,807.43 2293.46,807.43 "/>
<polyline clip-path="url(#clip322)" style="stroke:#c271d2; stroke-linecap:round; stroke-linejoin:round; stroke-width:4; stroke-opacity:1; fill:none" points="316.984,1214.19 336.949,1214.19 356.913,1214.19 376.878,1214.19 396.842,1214.19 416.807,1214.58 436.771,1214.28 456.735,1214.1 476.7,1213.89 496.664,1214.13 516.629,1214.14 536.593,1214.13 556.557,1214.12 576.522,1214.11 596.486,1213.8 616.451,1214.71 636.415,1214.24 656.38,1214.12 676.344,1214.04 696.308,1214.01 716.273,1213.99 736.237,1213.95 756.202,1213.92 776.166,1213.49 796.13,1214.04 816.095,1213.79 836.059,1213.75 856.024,1213.68 875.988,1213.6 895.953,1213.51 915.917,1213.4 935.881,1213.28 955.846,1213.14 975.81,1212.99 995.775,1212.8 1015.74,1212.59 1035.7,1212.36 1055.67,1212.08 1075.63,1211.76 1095.6,1211.4 1115.56,1210.98 1135.53,1210.5 1155.49,1209.94 1175.45,1209.3 1195.42,1208.57 1215.38,1207.72 1235.35,1206.75 1255.31,1205.64 1275.28,1204.37 1295.24,1202.89 1315.21,1201.2 1335.17,1199.25 1355.13,1197.01 1375.1,1194.43 1395.06,1191.47 1415.03,1188.07 1434.99,1184.15 1454.96,1179.65 1474.92,1174.48 1494.88,1168.54 1514.85,1161.73 1534.81,1154.03 1554.78,1145.19 1574.74,1135.02 1594.71,1123.49 1614.67,1110.16 1634.64,1094.41 1654.6,1076.59 1674.56,1056.09 1694.53,1039.03 1714.49,1023.71 1734.46,1006.28 1754.42,986.516 1774.39,963.65 1794.35,934.507 1814.32,900.185 1834.28,860.679 1854.24,815.18 1874.21,807.443 1894.17,807.43 1914.14,807.437 1934.1,807.429 1954.07,807.43 1974.03,807.433 1994,807.43 2013.96,807.433 2033.92,807.43 2053.89,807.43 2073.85,807.43 2093.82,807.43 2113.78,807.43 2133.75,807.43 2153.71,807.43 2173.68,807.43 2193.64,807.43 2213.6,807.43 2233.57,807.43 2253.53,807.43 2273.5,807.43 2293.46,807.43 "/>
<polyline clip-path="url(#clip322)" style="stroke:#ac8d18; stroke-linecap:round; stroke-linejoin:round; stroke-width:4; stroke-opacity:1; fill:none" points="316.984,825.332 336.949,825.332 356.913,825.332 376.878,825.332 396.842,825.332 416.807,825.367 436.771,825.351 456.735,825.278 476.7,825.47 496.664,825.325 516.629,825.315 536.593,825.312 556.557,825.309 576.522,825.306 596.486,825.313 616.451,825.326 636.415,825.296 656.38,825.295 676.344,825.28 696.308,825.271 716.273,825.262 736.237,825.251 756.202,825.24 776.166,825.132 796.13,825.184 816.095,825.192 836.059,825.174 856.024,825.149 875.988,825.122 895.953,825.09 915.917,825.053 935.881,825.011 955.846,824.962 975.81,824.907 995.775,824.843 1015.74,824.77 1035.7,824.685 1055.67,824.588 1075.63,824.477 1095.6,824.349 1115.56,824.201 1135.53,824.032 1155.49,823.837 1175.45,823.612 1195.42,823.354 1215.38,823.058 1235.35,822.717 1255.31,822.326 1275.28,821.876 1295.24,821.358 1315.21,820.762 1335.17,820.077 1355.13,819.29 1375.1,818.385 1395.06,817.345 1415.03,816.148 1434.99,814.775 1454.96,813.194 1474.92,811.374 1494.88,809.282 1514.85,807.312 1534.81,807.441 1554.78,807.437 1574.74,807.441 1594.71,807.263 1614.67,807.169 1634.64,807.437 1654.6,806.795 1674.56,806.451 1694.53,806.474 1714.49,806.721 1734.46,807.304 1754.42,807.159 1774.39,807.285 1794.35,807.363 1814.32,807.41 1834.28,807.432 1854.24,807.43 1874.21,807.447 1894.17,807.43 1914.14,807.426 1934.1,807.43 1954.07,807.43 1974.03,807.428 1994,807.43 2013.96,807.43 2033.92,807.43 2053.89,807.43 2073.85,807.43 2093.82,807.43 2113.78,807.43 2133.75,807.43 2153.71,807.43 2173.68,807.43 2193.64,807.43 2213.6,807.43 2233.57,807.43 2253.53,807.43 2273.5,807.43 2293.46,807.43 "/>
<polyline clip-path="url(#clip322)" style="stroke:#00a9ad; stroke-linecap:round; stroke-linejoin:round; stroke-width:4; stroke-opacity:1; fill:none" points="316.984,737.189 336.949,737.189 356.913,737.189 376.878,737.189 396.842,737.189 416.807,737.461 436.771,737.217 456.735,737.171 476.7,737.295 496.664,737.196 516.629,737.199 536.593,737.201 556.557,737.203 576.522,737.204 596.486,737.19 616.451,737.485 636.415,737.215 656.38,737.217 676.344,737.22 696.308,737.224 716.273,737.229 736.237,737.235 756.202,737.242 776.166,737.139 796.13,737.246 816.095,737.27 836.059,737.283 856.024,737.295 875.988,737.312 895.953,737.33 915.917,737.351 935.881,737.375 955.846,737.404 975.81,737.436 995.775,737.472 1015.74,737.515 1035.7,737.563 1055.67,737.619 1075.63,737.684 1095.6,737.757 1115.56,737.842 1135.53,737.94 1155.49,738.052 1175.45,738.181 1195.42,738.329 1215.38,738.5 1235.35,738.696 1255.31,738.922 1275.28,739.181 1295.24,739.479 1315.21,739.821 1335.17,740.215 1355.13,740.669 1375.1,741.19 1395.06,741.789 1415.03,742.478 1434.99,743.27 1454.96,744.181 1474.92,745.227 1494.88,746.434 1514.85,747.844 1534.81,749.628 1554.78,751.603 1574.74,753.909 1594.71,756.536 1614.67,759.552 1634.64,763.052 1654.6,767.023 1674.56,771.625 1694.53,777.461 1714.49,783.9 1734.46,790.011 1754.42,797.032 1774.39,805.05 1794.35,806.957 1814.32,807.407 1834.28,807.43 1854.24,807.431 1874.21,807.378 1894.17,807.43 1914.14,807.412 1934.1,807.43 1954.07,807.43 1974.03,807.43 1994,807.43 2013.96,807.412 2033.92,807.43 2053.89,807.43 2073.85,807.43 2093.82,807.43 2113.78,807.43 2133.75,807.43 2153.71,807.43 2173.68,807.43 2193.64,807.43 2213.6,807.43 2233.57,807.43 2253.53,807.43 2273.5,807.43 2293.46,807.43 "/>
<polyline clip-path="url(#clip322)" style="stroke:#ed5d92; stroke-linecap:round; stroke-linejoin:round; stroke-width:4; stroke-opacity:1; fill:none" points="316.984,851.138 336.949,851.138 356.913,851.138 376.878,851.138 396.842,851.138 416.807,851.012 436.771,851.139 456.735,851.11 476.7,851.202 496.664,851.148 516.629,851.126 536.593,851.124 556.557,851.122 576.522,851.12 596.486,851.228 616.451,850.853 636.415,851.13 656.38,851.122 676.344,851.102 696.308,851.096 716.273,851.09 736.237,851.082 756.202,851.074 776.166,851.032 796.13,851.059 816.095,851.041 836.059,851.028 856.024,851.012 875.988,850.993 895.953,850.97 915.917,850.944 935.881,850.916 955.846,850.882 975.81,850.844 995.775,850.8 1015.74,850.749 1035.7,850.691 1055.67,850.623 1075.63,850.546 1095.6,850.458 1115.56,850.356 1135.53,850.239 1155.49,850.104 1175.45,849.949 1195.42,849.771 1215.38,849.566 1235.35,849.33 1255.31,849.06 1275.28,848.749 1295.24,848.392 1315.21,847.98 1335.17,847.506 1355.13,846.962 1375.1,846.336 1395.06,845.618 1415.03,844.79 1434.99,843.841 1454.96,842.748 1474.92,841.491 1494.88,840.044 1514.85,838.461 1534.81,837.049 1554.78,835.462 1574.74,833.608 1594.71,831.473 1614.67,829.042 1634.64,826.268 1654.6,822.918 1674.56,819.137 1694.53,812.989 1714.49,807.695 1734.46,807.706 1754.42,807.566 1774.39,807.543 1794.35,807.374 1814.32,807.419 1834.28,807.429 1854.24,807.431 1874.21,807.405 1894.17,807.43 1914.14,807.424 1934.1,807.43 1954.07,807.43 1974.03,807.429 1994,807.43 2013.96,807.417 2033.92,807.43 2053.89,807.43 2073.85,807.43 2093.82,807.43 2113.78,807.43 2133.75,807.43 2153.71,807.43 2173.68,807.43 2193.64,807.43 2213.6,807.43 2233.57,807.43 2253.53,807.43 2273.5,807.43 2293.46,807.43 "/>
<polyline clip-path="url(#clip322)" style="stroke:#c68125; stroke-linecap:round; stroke-linejoin:round; stroke-width:4; stroke-opacity:1; fill:none" points="316.984,579.738 336.949,579.738 356.913,579.738 376.878,579.738 396.842,579.738 416.807,579.728 436.771,579.745 456.735,579.705 476.7,580.226 496.664,579.786 516.629,579.759 536.593,579.762 556.557,579.766 576.522,579.77 596.486,579.91 616.451,579.614 636.415,579.693 656.38,579.785 676.344,579.803 696.308,579.813 716.273,579.825 736.237,579.839 756.202,579.854 776.166,579.814 796.13,579.748 816.095,579.912 836.059,579.934 856.024,579.965 875.988,580 895.953,580.04 915.917,580.086 935.881,580.138 955.846,580.199 975.81,580.268 995.775,580.349 1015.74,580.441 1035.7,580.546 1055.67,580.668 1075.63,580.808 1095.6,580.968 1115.56,581.153 1135.53,581.366 1155.49,581.611 1175.45,581.893 1195.42,582.216 1215.38,582.588 1235.35,583.015 1255.31,583.505 1275.28,584.068 1295.24,584.717 1315.21,585.465 1335.17,586.324 1355.13,587.311 1375.1,588.447 1395.06,589.751 1415.03,591.252 1434.99,592.975 1454.96,594.957 1474.92,597.239 1494.88,599.861 1514.85,602.918 1534.81,606.681 1554.78,610.967 1574.74,615.911 1594.71,621.53 1614.67,628.02 1634.64,635.627 1654.6,644.188 1674.56,654.095 1694.53,659.743 1714.49,663.201 1734.46,668.705 1754.42,674.569 1774.39,681.513 1794.35,688.37 1814.32,696.038 1834.28,704.761 1854.24,714.777 1874.21,727.299 1894.17,741.92 1914.14,758.743 1934.1,778.037 1954.07,798.995 1974.03,807.437 1994,807.43 2013.96,807.447 2033.92,807.43 2053.89,807.43 2073.85,807.43 2093.82,807.43 2113.78,807.43 2133.75,807.43 2153.71,807.43 2173.68,807.43 2193.64,807.43 2213.6,807.43 2233.57,807.43 2253.53,807.43 2273.5,807.43 2293.46,807.43 "/>
<polyline clip-path="url(#clip322)" style="stroke:#00a98d; stroke-linecap:round; stroke-linejoin:round; stroke-width:4; stroke-opacity:1; fill:none" points="316.984,367.846 336.949,367.846 356.913,367.846 376.878,367.846 396.842,367.846 416.807,367.651 436.771,367.783 456.735,367.918 476.7,367.903 496.664,367.879 516.629,367.877 536.593,367.882 556.557,367.887 576.522,367.895 596.486,368.121 616.451,367.541 636.415,367.853 656.38,367.89 676.344,367.942 696.308,367.96 716.273,367.977 736.237,368.002 756.202,368.022 776.166,368.349 796.13,367.984 816.095,368.11 836.059,368.142 856.024,368.187 875.988,368.24 895.953,368.302 915.917,368.373 935.881,368.453 955.846,368.545 975.81,368.651 995.775,368.773 1015.74,368.914 1035.7,369.074 1055.67,369.258 1075.63,369.471 1095.6,369.716 1115.56,369.997 1135.53,370.32 1155.49,370.693 1175.45,371.122 1195.42,371.614 1215.38,372.18 1235.35,372.83 1255.31,373.574 1275.28,374.431 1295.24,375.419 1315.21,376.557 1335.17,377.864 1355.13,379.366 1375.1,381.094 1395.06,383.078 1415.03,385.363 1434.99,387.987 1454.96,391.005 1474.92,394.471 1494.88,398.46 1514.85,403.065 1534.81,408.492 1554.78,414.682 1574.74,421.821 1594.71,429.895 1614.67,439.226 1634.64,450.284 1654.6,462.743 1674.56,477.09 1694.53,489.89 1714.49,502.078 1734.46,515.796 1754.42,531.386 1774.39,549.394 1794.35,571.793 1814.32,598.045 1834.28,628.222 1854.24,662.98 1874.21,684.771 1894.17,706.178 1914.14,730.841 1934.1,759.106 1954.07,792.461 1974.03,807.434 1994,807.43 2013.96,807.441 2033.92,807.43 2053.89,807.43 2073.85,807.43 2093.82,807.43 2113.78,807.43 2133.75,807.43 2153.71,807.43 2173.68,807.43 2193.64,807.43 2213.6,807.43 2233.57,807.43 2253.53,807.43 2273.5,807.43 2293.46,807.43 "/>
<polyline clip-path="url(#clip322)" style="stroke:#8e971d; stroke-linecap:round; stroke-linejoin:round; stroke-width:4; stroke-opacity:1; fill:none" points="316.984,159.92 336.949,159.92 356.913,159.92 376.878,159.92 396.842,159.92 416.807,159.987 436.771,159.909 456.735,159.952 476.7,160.102 496.664,159.949 516.629,159.954 536.593,159.959 556.557,159.965 576.522,159.972 596.486,160.04 616.451,159.979 636.415,159.937 656.38,159.983 676.344,160.023 696.308,160.04 716.273,160.058 736.237,160.081 756.202,160.104 776.166,160.208 796.13,160.07 816.095,160.198 836.059,160.231 856.024,160.278 875.988,160.336 895.953,160.4 915.917,160.474 935.881,160.558 955.846,160.655 975.81,160.766 995.775,160.893 1015.74,161.04 1035.7,161.207 1055.67,161.401 1075.63,161.623 1095.6,161.879 1115.56,162.173 1135.53,162.51 1155.49,162.9 1175.45,163.348 1195.42,163.862 1215.38,164.452 1235.35,165.132 1255.31,165.91 1275.28,166.807 1295.24,167.838 1315.21,169.027 1335.17,170.392 1355.13,171.962 1375.1,173.768 1395.06,175.841 1415.03,178.228 1434.99,180.97 1454.96,184.123 1474.92,187.747 1494.88,191.919 1514.85,196.645 1534.81,201.753 1554.78,207.547 1574.74,214.258 1594.71,221.923 1614.67,230.72 1634.64,240.975 1654.6,252.784 1674.56,266.326 1694.53,280.85 1714.49,295.962 1734.46,311.317 1754.42,329.12 1774.39,349.481 1794.35,371.464 1814.32,396.394 1834.28,424.857 1854.24,457.646 1874.21,486.592 1894.17,518.138 1914.14,554.464 1934.1,596.099 1954.07,641.347 1974.03,683.606 1994,726.796 2013.96,769.112 2033.92,807.43 2053.89,807.43 2073.85,807.43 2093.82,807.43 2113.78,807.43 2133.75,807.43 2153.71,807.43 2173.68,807.43 2193.64,807.43 2213.6,807.43 2233.57,807.43 2253.53,807.43 2273.5,807.43 2293.46,807.43 "/>
<path clip-path="url(#clip320)" d="M1989.55 736.626 L2282.92 736.626 L2282.92 166.386 L1989.55 166.386  Z" fill="#ffffff" fill-rule="evenodd" fill-opacity="1"/>
<polyline clip-path="url(#clip320)" style="stroke:#000000; stroke-linecap:round; stroke-linejoin:round; stroke-width:4; stroke-opacity:1; fill:none" points="1989.55,736.626 2282.92,736.626 2282.92,166.386 1989.55,166.386 1989.55,736.626 "/>
<polyline clip-path="url(#clip320)" style="stroke:#009af9; stroke-linecap:round; stroke-linejoin:round; stroke-width:4; stroke-opacity:1; fill:none" points="2012.83,218.226 2152.5,218.226 "/>
<path clip-path="url(#clip320)" d="M2200.43 209.58 L2191.05 222.196 L2200.92 235.506 L2195.89 235.506 L2188.35 225.321 L2180.8 235.506 L2175.78 235.506 L2185.85 221.942 L2176.63 209.58 L2181.66 209.58 L2188.53 218.817 L2195.41 209.58 L2200.43 209.58 Z" fill="#000000" fill-rule="nonzero" fill-opacity="1" /><path clip-path="url(#clip320)" d="M2208.35 231.571 L2215.98 231.571 L2215.98 205.206 L2207.67 206.872 L2207.67 202.613 L2215.94 200.946 L2220.61 200.946 L2220.61 231.571 L2228.25 231.571 L2228.25 235.506 L2208.35 235.506 L2208.35 231.571 Z" fill="#000000" fill-rule="nonzero" fill-opacity="1" /><polyline clip-path="url(#clip320)" style="stroke:#e26f46; stroke-linecap:round; stroke-linejoin:round; stroke-width:4; stroke-opacity:1; fill:none" points="2012.83,270.066 2152.5,270.066 "/>
<path clip-path="url(#clip320)" d="M2200.43 261.42 L2191.05 274.036 L2200.92 287.346 L2195.89 287.346 L2188.35 277.161 L2180.8 287.346 L2175.78 287.346 L2185.85 273.782 L2176.63 261.42 L2181.66 261.42 L2188.53 270.657 L2195.41 261.42 L2200.43 261.42 Z" fill="#000000" fill-rule="nonzero" fill-opacity="1" /><path clip-path="url(#clip320)" d="M2211.56 283.411 L2227.88 283.411 L2227.88 287.346 L2205.94 287.346 L2205.94 283.411 Q2208.6 280.656 2213.18 276.027 Q2217.79 271.374 2218.97 270.032 Q2221.22 267.508 2222.1 265.772 Q2223 264.013 2223 262.323 Q2223 259.569 2221.05 257.833 Q2219.13 256.096 2216.03 256.096 Q2213.83 256.096 2211.38 256.86 Q2208.95 257.624 2206.17 259.175 L2206.17 254.453 Q2208.99 253.319 2211.45 252.74 Q2213.9 252.161 2215.94 252.161 Q2221.31 252.161 2224.5 254.846 Q2227.7 257.532 2227.7 262.022 Q2227.7 264.152 2226.89 266.073 Q2226.1 267.971 2223.99 270.564 Q2223.42 271.235 2220.31 274.453 Q2217.21 277.647 2211.56 283.411 Z" fill="#000000" fill-rule="nonzero" fill-opacity="1" /><polyline clip-path="url(#clip320)" style="stroke:#3da44d; stroke-linecap:round; stroke-linejoin:round; stroke-width:4; stroke-opacity:1; fill:none" points="2012.83,321.906 2152.5,321.906 "/>
<path clip-path="url(#clip320)" d="M2200.43 313.26 L2191.05 325.876 L2200.92 339.186 L2195.89 339.186 L2188.35 329.001 L2180.8 339.186 L2175.78 339.186 L2185.85 325.622 L2176.63 313.26 L2181.66 313.26 L2188.53 322.497 L2195.41 313.26 L2200.43 313.26 Z" fill="#000000" fill-rule="nonzero" fill-opacity="1" /><path clip-path="url(#clip320)" d="M2221.7 320.552 Q2225.06 321.27 2226.93 323.538 Q2228.83 325.807 2228.83 329.14 Q2228.83 334.256 2225.31 337.057 Q2221.79 339.858 2215.31 339.858 Q2213.14 339.858 2210.82 339.418 Q2208.53 339.001 2206.08 338.145 L2206.08 333.631 Q2208.02 334.765 2210.34 335.344 Q2212.65 335.922 2215.17 335.922 Q2219.57 335.922 2221.86 334.186 Q2224.18 332.45 2224.18 329.14 Q2224.18 326.084 2222.03 324.372 Q2219.9 322.635 2216.08 322.635 L2212.05 322.635 L2212.05 318.793 L2216.26 318.793 Q2219.71 318.793 2221.54 317.427 Q2223.37 316.038 2223.37 313.446 Q2223.37 310.784 2221.47 309.372 Q2219.6 307.936 2216.08 307.936 Q2214.16 307.936 2211.96 308.353 Q2209.76 308.77 2207.12 309.649 L2207.12 305.483 Q2209.78 304.742 2212.1 304.372 Q2214.43 304.001 2216.49 304.001 Q2221.82 304.001 2224.92 306.432 Q2228.02 308.839 2228.02 312.96 Q2228.02 315.83 2226.38 317.821 Q2224.73 319.788 2221.7 320.552 Z" fill="#000000" fill-rule="nonzero" fill-opacity="1" /><polyline clip-path="url(#clip320)" style="stroke:#c271d2; stroke-linecap:round; stroke-linejoin:round; stroke-width:4; stroke-opacity:1; fill:none" points="2012.83,373.746 2152.5,373.746 "/>
<path clip-path="url(#clip320)" d="M2200.43 365.1 L2191.05 377.716 L2200.92 391.026 L2195.89 391.026 L2188.35 380.841 L2180.8 391.026 L2175.78 391.026 L2185.85 377.462 L2176.63 365.1 L2181.66 365.1 L2188.53 374.337 L2195.41 365.1 L2200.43 365.1 Z" fill="#000000" fill-rule="nonzero" fill-opacity="1" /><path clip-path="url(#clip320)" d="M2220.38 360.54 L2208.58 378.989 L2220.38 378.989 L2220.38 360.54 M2219.16 356.466 L2225.04 356.466 L2225.04 378.989 L2229.97 378.989 L2229.97 382.878 L2225.04 382.878 L2225.04 391.026 L2220.38 391.026 L2220.38 382.878 L2204.78 382.878 L2204.78 378.364 L2219.16 356.466 Z" fill="#000000" fill-rule="nonzero" fill-opacity="1" /><polyline clip-path="url(#clip320)" style="stroke:#ac8d18; stroke-linecap:round; stroke-linejoin:round; stroke-width:4; stroke-opacity:1; fill:none" points="2012.83,425.586 2152.5,425.586 "/>
<path clip-path="url(#clip320)" d="M2200.43 416.94 L2191.05 429.556 L2200.92 442.866 L2195.89 442.866 L2188.35 432.681 L2180.8 442.866 L2175.78 442.866 L2185.85 429.302 L2176.63 416.94 L2181.66 416.94 L2188.53 426.177 L2195.41 416.94 L2200.43 416.94 Z" fill="#000000" fill-rule="nonzero" fill-opacity="1" /><path clip-path="url(#clip320)" d="M2207.58 408.306 L2225.94 408.306 L2225.94 412.241 L2211.86 412.241 L2211.86 420.714 Q2212.88 420.366 2213.9 420.204 Q2214.92 420.019 2215.94 420.019 Q2221.73 420.019 2225.11 423.19 Q2228.48 426.362 2228.48 431.778 Q2228.48 437.357 2225.01 440.459 Q2221.54 443.538 2215.22 443.538 Q2213.04 443.538 2210.78 443.167 Q2208.53 442.797 2206.12 442.056 L2206.12 437.357 Q2208.21 438.491 2210.43 439.047 Q2212.65 439.602 2215.13 439.602 Q2219.13 439.602 2221.47 437.496 Q2223.81 435.389 2223.81 431.778 Q2223.81 428.167 2221.47 426.061 Q2219.13 423.954 2215.13 423.954 Q2213.25 423.954 2211.38 424.371 Q2209.53 424.788 2207.58 425.667 L2207.58 408.306 Z" fill="#000000" fill-rule="nonzero" fill-opacity="1" /><polyline clip-path="url(#clip320)" style="stroke:#00a9ad; stroke-linecap:round; stroke-linejoin:round; stroke-width:4; stroke-opacity:1; fill:none" points="2012.83,477.426 2152.5,477.426 "/>
<path clip-path="url(#clip320)" d="M2200.43 468.78 L2191.05 481.396 L2200.92 494.706 L2195.89 494.706 L2188.35 484.521 L2180.8 494.706 L2175.78 494.706 L2185.85 481.142 L2176.63 468.78 L2181.66 468.78 L2188.53 478.017 L2195.41 468.78 L2200.43 468.78 Z" fill="#000000" fill-rule="nonzero" fill-opacity="1" /><path clip-path="url(#clip320)" d="M2218.11 475.563 Q2214.97 475.563 2213.11 477.716 Q2211.29 479.868 2211.29 483.618 Q2211.29 487.345 2213.11 489.521 Q2214.97 491.674 2218.11 491.674 Q2221.26 491.674 2223.09 489.521 Q2224.94 487.345 2224.94 483.618 Q2224.94 479.868 2223.09 477.716 Q2221.26 475.563 2218.11 475.563 M2227.4 460.91 L2227.4 465.169 Q2225.64 464.336 2223.83 463.896 Q2222.05 463.456 2220.29 463.456 Q2215.66 463.456 2213.21 466.581 Q2210.78 469.706 2210.43 476.026 Q2211.79 474.012 2213.86 472.947 Q2215.92 471.859 2218.39 471.859 Q2223.6 471.859 2226.61 475.03 Q2229.64 478.179 2229.64 483.618 Q2229.64 488.942 2226.49 492.16 Q2223.35 495.378 2218.11 495.378 Q2212.12 495.378 2208.95 490.794 Q2205.78 486.188 2205.78 477.461 Q2205.78 469.267 2209.67 464.406 Q2213.55 459.521 2220.11 459.521 Q2221.86 459.521 2223.65 459.869 Q2225.45 460.216 2227.4 460.91 Z" fill="#000000" fill-rule="nonzero" fill-opacity="1" /><polyline clip-path="url(#clip320)" style="stroke:#ed5d92; stroke-linecap:round; stroke-linejoin:round; stroke-width:4; stroke-opacity:1; fill:none" points="2012.83,529.266 2152.5,529.266 "/>
<path clip-path="url(#clip320)" d="M2200.43 520.62 L2191.05 533.236 L2200.92 546.546 L2195.89 546.546 L2188.35 536.361 L2180.8 546.546 L2175.78 546.546 L2185.85 532.982 L2176.63 520.62 L2181.66 520.62 L2188.53 529.857 L2195.41 520.62 L2200.43 520.62 Z" fill="#000000" fill-rule="nonzero" fill-opacity="1" /><path clip-path="url(#clip320)" d="M2206.36 511.986 L2228.58 511.986 L2228.58 513.977 L2216.03 546.546 L2211.15 546.546 L2222.95 515.921 L2206.36 515.921 L2206.36 511.986 Z" fill="#000000" fill-rule="nonzero" fill-opacity="1" /><polyline clip-path="url(#clip320)" style="stroke:#c68125; stroke-linecap:round; stroke-linejoin:round; stroke-width:4; stroke-opacity:1; fill:none" points="2012.83,581.106 2152.5,581.106 "/>
<path clip-path="url(#clip320)" d="M2200.43 572.46 L2191.05 585.076 L2200.92 598.386 L2195.89 598.386 L2188.35 588.201 L2180.8 598.386 L2175.78 598.386 L2185.85 584.822 L2176.63 572.46 L2181.66 572.46 L2188.53 581.697 L2195.41 572.46 L2200.43 572.46 Z" fill="#000000" fill-rule="nonzero" fill-opacity="1" /><path clip-path="url(#clip320)" d="M2217.54 581.974 Q2214.2 581.974 2212.28 583.757 Q2210.38 585.539 2210.38 588.664 Q2210.38 591.789 2212.28 593.571 Q2214.2 595.354 2217.54 595.354 Q2220.87 595.354 2222.79 593.571 Q2224.71 591.766 2224.71 588.664 Q2224.71 585.539 2222.79 583.757 Q2220.89 581.974 2217.54 581.974 M2212.86 579.984 Q2209.85 579.243 2208.16 577.183 Q2206.49 575.123 2206.49 572.16 Q2206.49 568.016 2209.43 565.609 Q2212.4 563.201 2217.54 563.201 Q2222.7 563.201 2225.64 565.609 Q2228.58 568.016 2228.58 572.16 Q2228.58 575.123 2226.89 577.183 Q2225.22 579.243 2222.23 579.984 Q2225.61 580.771 2227.49 583.062 Q2229.39 585.354 2229.39 588.664 Q2229.39 593.687 2226.31 596.372 Q2223.25 599.058 2217.54 599.058 Q2211.82 599.058 2208.74 596.372 Q2205.68 593.687 2205.68 588.664 Q2205.68 585.354 2207.58 583.062 Q2209.48 580.771 2212.86 579.984 M2211.15 572.599 Q2211.15 575.285 2212.81 576.789 Q2214.5 578.294 2217.54 578.294 Q2220.54 578.294 2222.23 576.789 Q2223.95 575.285 2223.95 572.599 Q2223.95 569.914 2222.23 568.41 Q2220.54 566.905 2217.54 566.905 Q2214.5 566.905 2212.81 568.41 Q2211.15 569.914 2211.15 572.599 Z" fill="#000000" fill-rule="nonzero" fill-opacity="1" /><polyline clip-path="url(#clip320)" style="stroke:#00a98d; stroke-linecap:round; stroke-linejoin:round; stroke-width:4; stroke-opacity:1; fill:none" points="2012.83,632.946 2152.5,632.946 "/>
<path clip-path="url(#clip320)" d="M2200.43 624.3 L2191.05 636.916 L2200.92 650.226 L2195.89 650.226 L2188.35 640.041 L2180.8 650.226 L2175.78 650.226 L2185.85 636.662 L2176.63 624.3 L2181.66 624.3 L2188.53 633.537 L2195.41 624.3 L2200.43 624.3 Z" fill="#000000" fill-rule="nonzero" fill-opacity="1" /><path clip-path="url(#clip320)" d="M2207.67 649.509 L2207.67 645.249 Q2209.43 646.083 2211.24 646.523 Q2213.04 646.962 2214.78 646.962 Q2219.41 646.962 2221.84 643.861 Q2224.29 640.736 2224.64 634.393 Q2223.3 636.384 2221.24 637.449 Q2219.18 638.513 2216.68 638.513 Q2211.49 638.513 2208.46 635.388 Q2205.45 632.24 2205.45 626.8 Q2205.45 621.476 2208.6 618.259 Q2211.75 615.041 2216.98 615.041 Q2222.98 615.041 2226.12 619.648 Q2229.29 624.231 2229.29 632.981 Q2229.29 641.152 2225.41 646.036 Q2221.54 650.898 2214.99 650.898 Q2213.23 650.898 2211.42 650.55 Q2209.62 650.203 2207.67 649.509 M2216.98 634.856 Q2220.13 634.856 2221.96 632.703 Q2223.81 630.55 2223.81 626.8 Q2223.81 623.074 2221.96 620.921 Q2220.13 618.745 2216.98 618.745 Q2213.83 618.745 2211.98 620.921 Q2210.15 623.074 2210.15 626.8 Q2210.15 630.55 2211.98 632.703 Q2213.83 634.856 2216.98 634.856 Z" fill="#000000" fill-rule="nonzero" fill-opacity="1" /><polyline clip-path="url(#clip320)" style="stroke:#8e971d; stroke-linecap:round; stroke-linejoin:round; stroke-width:4; stroke-opacity:1; fill:none" points="2012.83,684.786 2152.5,684.786 "/>
<path clip-path="url(#clip320)" d="M2200.43 676.14 L2191.05 688.756 L2200.92 702.066 L2195.89 702.066 L2188.35 691.881 L2180.8 702.066 L2175.78 702.066 L2185.85 688.502 L2176.63 676.14 L2181.66 676.14 L2188.53 685.377 L2195.41 676.14 L2200.43 676.14 Z" fill="#000000" fill-rule="nonzero" fill-opacity="1" /><path clip-path="url(#clip320)" d="M2208.35 698.131 L2215.98 698.131 L2215.98 671.766 L2207.67 673.432 L2207.67 669.173 L2215.94 667.506 L2220.61 667.506 L2220.61 698.131 L2228.25 698.131 L2228.25 702.066 L2208.35 702.066 L2208.35 698.131 Z" fill="#000000" fill-rule="nonzero" fill-opacity="1" /><path clip-path="url(#clip320)" d="M2247.7 670.585 Q2244.09 670.585 2242.26 674.15 Q2240.45 677.691 2240.45 684.821 Q2240.45 691.927 2242.26 695.492 Q2244.09 699.034 2247.7 699.034 Q2251.33 699.034 2253.14 695.492 Q2254.97 691.927 2254.97 684.821 Q2254.97 677.691 2253.14 674.15 Q2251.33 670.585 2247.7 670.585 M2247.7 666.881 Q2253.51 666.881 2256.56 671.488 Q2259.64 676.071 2259.64 684.821 Q2259.64 693.548 2256.56 698.154 Q2253.51 702.738 2247.7 702.738 Q2241.89 702.738 2238.81 698.154 Q2235.75 693.548 2235.75 684.821 Q2235.75 676.071 2238.81 671.488 Q2241.89 666.881 2247.7 666.881 Z" fill="#000000" fill-rule="nonzero" fill-opacity="1" /></svg>
