<?xml version="1.0" encoding="utf-8"?>
<svg xmlns="http://www.w3.org/2000/svg" xmlns:xlink="http://www.w3.org/1999/xlink" width="600" height="400" viewBox="0 0 2400 1600">
<defs>
  <clipPath id="clip380">
    <rect x="0" y="0" width="2400" height="1600"/>
  </clipPath>
</defs>
<path clip-path="url(#clip380)" d="M0 1600 L2400 1600 L2400 0 L0 0  Z" fill="#ffffff" fill-rule="evenodd" fill-opacity="1"/>
<defs>
  <clipPath id="clip381">
    <rect x="480" y="0" width="1681" height="1600"/>
  </clipPath>
</defs>
<path clip-path="url(#clip380)" d="M172.015 1486.45 L2352.76 1486.45 L2352.76 47.2441 L172.015 47.2441  Z" fill="#ffffff" fill-rule="evenodd" fill-opacity="1"/>
<defs>
  <clipPath id="clip382">
    <rect x="172" y="47" width="2182" height="1440"/>
  </clipPath>
</defs>
<polyline clip-path="url(#clip382)" style="stroke:#000000; stroke-linecap:round; stroke-linejoin:round; stroke-width:2; stroke-opacity:0.1; fill:none" points="212.741,1486.45 212.741,47.2441 "/>
<polyline clip-path="url(#clip382)" style="stroke:#000000; stroke-linecap:round; stroke-linejoin:round; stroke-width:2; stroke-opacity:0.1; fill:none" points="737.563,1486.45 737.563,47.2441 "/>
<polyline clip-path="url(#clip382)" style="stroke:#000000; stroke-linecap:round; stroke-linejoin:round; stroke-width:2; stroke-opacity:0.1; fill:none" points="1262.39,1486.45 1262.39,47.2441 "/>
<polyline clip-path="url(#clip382)" style="stroke:#000000; stroke-linecap:round; stroke-linejoin:round; stroke-width:2; stroke-opacity:0.1; fill:none" points="1787.21,1486.45 1787.21,47.2441 "/>
<polyline clip-path="url(#clip382)" style="stroke:#000000; stroke-linecap:round; stroke-linejoin:round; stroke-width:2; stroke-opacity:0.1; fill:none" points="2312.03,1486.45 2312.03,47.2441 "/>
<polyline clip-path="url(#clip382)" style="stroke:#000000; stroke-linecap:round; stroke-linejoin:round; stroke-width:2; stroke-opacity:0.1; fill:none" points="172.015,1464.5 2352.76,1464.5 "/>
<polyline clip-path="url(#clip382)" style="stroke:#000000; stroke-linecap:round; stroke-linejoin:round; stroke-width:2; stroke-opacity:0.1; fill:none" points="172.015,1251.85 2352.76,1251.85 "/>
<polyline clip-path="url(#clip382)" style="stroke:#000000; stroke-linecap:round; stroke-linejoin:round; stroke-width:2; stroke-opacity:0.1; fill:none" points="172.015,1039.19 2352.76,1039.19 "/>
<polyline clip-path="url(#clip382)" style="stroke:#000000; stroke-linecap:round; stroke-linejoin:round; stroke-width:2; stroke-opacity:0.1; fill:none" points="172.015,826.544 2352.76,826.544 "/>
<polyline clip-path="url(#clip382)" style="stroke:#000000; stroke-linecap:round; stroke-linejoin:round; stroke-width:2; stroke-opacity:0.1; fill:none" points="172.015,613.893 2352.76,613.893 "/>
<polyline clip-path="url(#clip382)" style="stroke:#000000; stroke-linecap:round; stroke-linejoin:round; stroke-width:2; stroke-opacity:0.1; fill:none" points="172.015,401.242 2352.76,401.242 "/>
<polyline clip-path="url(#clip382)" style="stroke:#000000; stroke-linecap:round; stroke-linejoin:round; stroke-width:2; stroke-opacity:0.1; fill:none" points="172.015,188.591 2352.76,188.591 "/>
<polyline clip-path="url(#clip380)" style="stroke:#000000; stroke-linecap:round; stroke-linejoin:round; stroke-width:4; stroke-opacity:1; fill:none" points="172.015,1486.45 2352.76,1486.45 "/>
<polyline clip-path="url(#clip380)" style="stroke:#000000; stroke-linecap:round; stroke-linejoin:round; stroke-width:4; stroke-opacity:1; fill:none" points="212.741,1486.45 212.741,1467.55 "/>
<polyline clip-path="url(#clip380)" style="stroke:#000000; stroke-linecap:round; stroke-linejoin:round; stroke-width:4; stroke-opacity:1; fill:none" points="737.563,1486.45 737.563,1467.55 "/>
<polyline clip-path="url(#clip380)" style="stroke:#000000; stroke-linecap:round; stroke-linejoin:round; stroke-width:4; stroke-opacity:1; fill:none" points="1262.39,1486.45 1262.39,1467.55 "/>
<polyline clip-path="url(#clip380)" style="stroke:#000000; stroke-linecap:round; stroke-linejoin:round; stroke-width:4; stroke-opacity:1; fill:none" points="1787.21,1486.45 1787.21,1467.55 "/>
<polyline clip-path="url(#clip380)" style="stroke:#000000; stroke-linecap:round; stroke-linejoin:round; stroke-width:4; stroke-opacity:1; fill:none" points="2312.03,1486.45 2312.03,1467.55 "/>
<path clip-path="url(#clip380)" d="M212.741 1517.37 Q209.13 1517.37 207.301 1520.93 Q205.496 1524.47 205.496 1531.6 Q205.496 1538.71 207.301 1542.27 Q209.13 1545.82 212.741 1545.82 Q216.375 1545.82 218.181 1542.27 Q220.009 1538.71 220.009 1531.6 Q220.009 1524.47 218.181 1520.93 Q216.375 1517.37 212.741 1517.37 M212.741 1513.66 Q218.551 1513.66 221.607 1518.27 Q224.685 1522.85 224.685 1531.6 Q224.685 1540.33 221.607 1544.94 Q218.551 1549.52 212.741 1549.52 Q206.931 1549.52 203.852 1544.94 Q200.797 1540.33 200.797 1531.6 Q200.797 1522.85 203.852 1518.27 Q206.931 1513.66 212.741 1513.66 Z" fill="#000000" fill-rule="nonzero" fill-opacity="1" /><path clip-path="url(#clip380)" d="M716.834 1544.91 L733.153 1544.91 L733.153 1548.85 L711.209 1548.85 L711.209 1544.91 Q713.871 1542.16 718.454 1537.53 Q723.061 1532.88 724.242 1531.53 Q726.487 1529.01 727.366 1527.27 Q728.269 1525.51 728.269 1523.82 Q728.269 1521.07 726.325 1519.33 Q724.404 1517.6 721.302 1517.6 Q719.103 1517.6 716.649 1518.36 Q714.218 1519.13 711.441 1520.68 L711.441 1515.95 Q714.265 1514.82 716.718 1514.24 Q719.172 1513.66 721.209 1513.66 Q726.579 1513.66 729.774 1516.35 Q732.968 1519.03 732.968 1523.52 Q732.968 1525.65 732.158 1527.57 Q731.371 1529.47 729.265 1532.07 Q728.686 1532.74 725.584 1535.95 Q722.482 1539.15 716.834 1544.91 Z" fill="#000000" fill-rule="nonzero" fill-opacity="1" /><path clip-path="url(#clip380)" d="M743.015 1514.29 L761.371 1514.29 L761.371 1518.22 L747.297 1518.22 L747.297 1526.7 Q748.315 1526.35 749.334 1526.19 Q750.352 1526 751.371 1526 Q757.158 1526 760.538 1529.17 Q763.917 1532.34 763.917 1537.76 Q763.917 1543.34 760.445 1546.44 Q756.973 1549.52 750.653 1549.52 Q748.477 1549.52 746.209 1549.15 Q743.964 1548.78 741.556 1548.04 L741.556 1543.34 Q743.64 1544.47 745.862 1545.03 Q748.084 1545.58 750.561 1545.58 Q754.565 1545.58 756.903 1543.48 Q759.241 1541.37 759.241 1537.76 Q759.241 1534.15 756.903 1532.04 Q754.565 1529.94 750.561 1529.94 Q748.686 1529.94 746.811 1530.35 Q744.959 1530.77 743.015 1531.65 L743.015 1514.29 Z" fill="#000000" fill-rule="nonzero" fill-opacity="1" /><path clip-path="url(#clip380)" d="M1237.08 1514.29 L1255.44 1514.29 L1255.44 1518.22 L1241.37 1518.22 L1241.37 1526.7 Q1242.39 1526.35 1243.4 1526.19 Q1244.42 1526 1245.44 1526 Q1251.23 1526 1254.61 1529.17 Q1257.99 1532.34 1257.99 1537.76 Q1257.99 1543.34 1254.52 1546.44 Q1251.04 1549.52 1244.72 1549.52 Q1242.55 1549.52 1240.28 1549.15 Q1238.03 1548.78 1235.63 1548.04 L1235.63 1543.34 Q1237.71 1544.47 1239.93 1545.03 Q1242.15 1545.58 1244.63 1545.58 Q1248.64 1545.58 1250.97 1543.48 Q1253.31 1541.37 1253.31 1537.76 Q1253.31 1534.15 1250.97 1532.04 Q1248.64 1529.94 1244.63 1529.94 Q1242.76 1529.94 1240.88 1530.35 Q1239.03 1530.77 1237.08 1531.65 L1237.08 1514.29 Z" fill="#000000" fill-rule="nonzero" fill-opacity="1" /><path clip-path="url(#clip380)" d="M1277.2 1517.37 Q1273.59 1517.37 1271.76 1520.93 Q1269.95 1524.47 1269.95 1531.6 Q1269.95 1538.71 1271.76 1542.27 Q1273.59 1545.82 1277.2 1545.82 Q1280.83 1545.82 1282.64 1542.27 Q1284.47 1538.71 1284.47 1531.6 Q1284.47 1524.47 1282.64 1520.93 Q1280.83 1517.37 1277.2 1517.37 M1277.2 1513.66 Q1283.01 1513.66 1286.07 1518.27 Q1289.14 1522.85 1289.14 1531.6 Q1289.14 1540.33 1286.07 1544.94 Q1283.01 1549.52 1277.2 1549.52 Q1271.39 1549.52 1268.31 1544.94 Q1265.26 1540.33 1265.26 1531.6 Q1265.26 1522.85 1268.31 1518.27 Q1271.39 1513.66 1277.2 1513.66 Z" fill="#000000" fill-rule="nonzero" fill-opacity="1" /><path clip-path="url(#clip380)" d="M1761.06 1514.29 L1783.28 1514.29 L1783.28 1516.28 L1770.74 1548.85 L1765.85 1548.85 L1777.66 1518.22 L1761.06 1518.22 L1761.06 1514.29 Z" fill="#000000" fill-rule="nonzero" fill-opacity="1" /><path clip-path="url(#clip380)" d="M1792.45 1514.29 L1810.81 1514.29 L1810.81 1518.22 L1796.73 1518.22 L1796.73 1526.7 Q1797.75 1526.35 1798.77 1526.19 Q1799.79 1526 1800.81 1526 Q1806.59 1526 1809.97 1529.17 Q1813.35 1532.34 1813.35 1537.76 Q1813.35 1543.34 1809.88 1546.44 Q1806.41 1549.52 1800.09 1549.52 Q1797.91 1549.52 1795.64 1549.15 Q1793.4 1548.78 1790.99 1548.04 L1790.99 1543.34 Q1793.08 1544.47 1795.3 1545.03 Q1797.52 1545.58 1800 1545.58 Q1804 1545.58 1806.34 1543.48 Q1808.68 1541.37 1808.68 1537.76 Q1808.68 1534.15 1806.34 1532.04 Q1804 1529.94 1800 1529.94 Q1798.12 1529.94 1796.25 1530.35 Q1794.39 1530.77 1792.45 1531.65 L1792.45 1514.29 Z" fill="#000000" fill-rule="nonzero" fill-opacity="1" /><path clip-path="url(#clip380)" d="M2271.64 1544.91 L2279.28 1544.91 L2279.28 1518.55 L2270.97 1520.21 L2270.97 1515.95 L2279.23 1514.29 L2283.9 1514.29 L2283.9 1544.91 L2291.54 1544.91 L2291.54 1548.85 L2271.64 1548.85 L2271.64 1544.91 Z" fill="#000000" fill-rule="nonzero" fill-opacity="1" /><path clip-path="url(#clip380)" d="M2310.99 1517.37 Q2307.38 1517.37 2305.55 1520.93 Q2303.74 1524.47 2303.74 1531.6 Q2303.74 1538.71 2305.55 1542.27 Q2307.38 1545.82 2310.99 1545.82 Q2314.62 1545.82 2316.43 1542.27 Q2318.26 1538.71 2318.26 1531.6 Q2318.26 1524.47 2316.43 1520.93 Q2314.62 1517.37 2310.99 1517.37 M2310.99 1513.66 Q2316.8 1513.66 2319.85 1518.27 Q2322.93 1522.85 2322.93 1531.6 Q2322.93 1540.33 2319.85 1544.94 Q2316.8 1549.52 2310.99 1549.52 Q2305.18 1549.52 2302.1 1544.94 Q2299.04 1540.33 2299.04 1531.6 Q2299.04 1522.85 2302.1 1518.27 Q2305.18 1513.66 2310.99 1513.66 Z" fill="#000000" fill-rule="nonzero" fill-opacity="1" /><path clip-path="url(#clip380)" d="M2341.15 1517.37 Q2337.54 1517.37 2335.71 1520.93 Q2333.9 1524.47 2333.9 1531.6 Q2333.9 1538.71 2335.71 1542.27 Q2337.54 1545.82 2341.15 1545.82 Q2344.78 1545.82 2346.59 1542.27 Q2348.42 1538.71 2348.42 1531.6 Q2348.42 1524.47 2346.59 1520.93 Q2344.78 1517.37 2341.15 1517.37 M2341.15 1513.66 Q2346.96 1513.66 2350.02 1518.27 Q2353.09 1522.85 2353.09 1531.6 Q2353.09 1540.33 2350.02 1544.94 Q2346.96 1549.52 2341.15 1549.52 Q2335.34 1549.52 2332.26 1544.94 Q2329.21 1540.33 2329.21 1531.6 Q2329.21 1522.85 2332.26 1518.27 Q2335.34 1513.66 2341.15 1513.66 Z" fill="#000000" fill-rule="nonzero" fill-opacity="1" /><polyline clip-path="url(#clip380)" style="stroke:#000000; stroke-linecap:round; stroke-linejoin:round; stroke-width:4; stroke-opacity:1; fill:none" points="172.015,1486.45 172.015,47.2441 "/>
<polyline clip-path="url(#clip380)" style="stroke:#000000; stroke-linecap:round; stroke-linejoin:round; stroke-width:4; stroke-opacity:1; fill:none" points="172.015,1464.5 190.912,1464.5 "/>
<polyline clip-path="url(#clip380)" style="stroke:#000000; stroke-linecap:round; stroke-linejoin:round; stroke-width:4; stroke-opacity:1; fill:none" points="172.015,1251.85 190.912,1251.85 "/>
<polyline clip-path="url(#clip380)" style="stroke:#000000; stroke-linecap:round; stroke-linejoin:round; stroke-width:4; stroke-opacity:1; fill:none" points="172.015,1039.19 190.912,1039.19 "/>
<polyline clip-path="url(#clip380)" style="stroke:#000000; stroke-linecap:round; stroke-linejoin:round; stroke-width:4; stroke-opacity:1; fill:none" points="172.015,826.544 190.912,826.544 "/>
<polyline clip-path="url(#clip380)" style="stroke:#000000; stroke-linecap:round; stroke-linejoin:round; stroke-width:4; stroke-opacity:1; fill:none" points="172.015,613.893 190.912,613.893 "/>
<polyline clip-path="url(#clip380)" style="stroke:#000000; stroke-linecap:round; stroke-linejoin:round; stroke-width:4; stroke-opacity:1; fill:none" points="172.015,401.242 190.912,401.242 "/>
<polyline clip-path="url(#clip380)" style="stroke:#000000; stroke-linecap:round; stroke-linejoin:round; stroke-width:4; stroke-opacity:1; fill:none" points="172.015,188.591 190.912,188.591 "/>
<path clip-path="url(#clip380)" d="M124.07 1450.3 Q120.459 1450.3 118.631 1453.86 Q116.825 1457.4 116.825 1464.53 Q116.825 1471.64 118.631 1475.2 Q120.459 1478.74 124.07 1478.74 Q127.705 1478.74 129.51 1475.2 Q131.339 1471.64 131.339 1464.53 Q131.339 1457.4 129.51 1453.86 Q127.705 1450.3 124.07 1450.3 M124.07 1446.59 Q129.881 1446.59 132.936 1451.2 Q136.015 1455.78 136.015 1464.53 Q136.015 1473.26 132.936 1477.86 Q129.881 1482.45 124.07 1482.45 Q118.26 1482.45 115.182 1477.86 Q112.126 1473.26 112.126 1464.53 Q112.126 1455.78 115.182 1451.2 Q118.26 1446.59 124.07 1446.59 Z" fill="#000000" fill-rule="nonzero" fill-opacity="1" /><path clip-path="url(#clip380)" d="M54.5569 1265.19 L62.1958 1265.19 L62.1958 1238.82 L53.8856 1240.49 L53.8856 1236.23 L62.1495 1234.57 L66.8254 1234.57 L66.8254 1265.19 L74.4642 1265.19 L74.4642 1269.13 L54.5569 1269.13 L54.5569 1265.19 Z" fill="#000000" fill-rule="nonzero" fill-opacity="1" /><path clip-path="url(#clip380)" d="M93.9086 1237.64 Q90.2975 1237.64 88.4688 1241.21 Q86.6632 1244.75 86.6632 1251.88 Q86.6632 1258.99 88.4688 1262.55 Q90.2975 1266.09 93.9086 1266.09 Q97.5428 1266.09 99.3483 1262.55 Q101.177 1258.99 101.177 1251.88 Q101.177 1244.75 99.3483 1241.21 Q97.5428 1237.64 93.9086 1237.64 M93.9086 1233.94 Q99.7187 1233.94 102.774 1238.55 Q105.853 1243.13 105.853 1251.88 Q105.853 1260.61 102.774 1265.21 Q99.7187 1269.8 93.9086 1269.8 Q88.0984 1269.8 85.0197 1265.21 Q81.9642 1260.61 81.9642 1251.88 Q81.9642 1243.13 85.0197 1238.55 Q88.0984 1233.94 93.9086 1233.94 Z" fill="#000000" fill-rule="nonzero" fill-opacity="1" /><path clip-path="url(#clip380)" d="M124.07 1237.64 Q120.459 1237.64 118.631 1241.21 Q116.825 1244.75 116.825 1251.88 Q116.825 1258.99 118.631 1262.55 Q120.459 1266.09 124.07 1266.09 Q127.705 1266.09 129.51 1262.55 Q131.339 1258.99 131.339 1251.88 Q131.339 1244.75 129.51 1241.21 Q127.705 1237.64 124.07 1237.64 M124.07 1233.94 Q129.881 1233.94 132.936 1238.55 Q136.015 1243.13 136.015 1251.88 Q136.015 1260.61 132.936 1265.21 Q129.881 1269.8 124.07 1269.8 Q118.26 1269.8 115.182 1265.21 Q112.126 1260.61 112.126 1251.88 Q112.126 1243.13 115.182 1238.55 Q118.26 1233.94 124.07 1233.94 Z" fill="#000000" fill-rule="nonzero" fill-opacity="1" /><path clip-path="url(#clip380)" d="M57.7745 1052.54 L74.0939 1052.54 L74.0939 1056.47 L52.1495 1056.47 L52.1495 1052.54 Q54.8115 1049.78 59.3949 1045.16 Q64.0013 1040.5 65.1819 1039.16 Q67.4272 1036.64 68.3068 1034.9 Q69.2096 1033.14 69.2096 1031.45 Q69.2096 1028.7 67.2652 1026.96 Q65.3439 1025.22 62.2421 1025.22 Q60.043 1025.22 57.5893 1025.99 Q55.1588 1026.75 52.381 1028.3 L52.381 1023.58 Q55.2051 1022.45 57.6588 1021.87 Q60.1124 1021.29 62.1495 1021.29 Q67.5198 1021.29 70.7142 1023.97 Q73.9087 1026.66 73.9087 1031.15 Q73.9087 1033.28 73.0985 1035.2 Q72.3115 1037.1 70.205 1039.69 Q69.6263 1040.36 66.5245 1043.58 Q63.4226 1046.78 57.7745 1052.54 Z" fill="#000000" fill-rule="nonzero" fill-opacity="1" /><path clip-path="url(#clip380)" d="M93.9086 1024.99 Q90.2975 1024.99 88.4688 1028.56 Q86.6632 1032.1 86.6632 1039.23 Q86.6632 1046.34 88.4688 1049.9 Q90.2975 1053.44 93.9086 1053.44 Q97.5428 1053.44 99.3483 1049.9 Q101.177 1046.34 101.177 1039.23 Q101.177 1032.1 99.3483 1028.56 Q97.5428 1024.99 93.9086 1024.99 M93.9086 1021.29 Q99.7187 1021.29 102.774 1025.9 Q105.853 1030.48 105.853 1039.23 Q105.853 1047.96 102.774 1052.56 Q99.7187 1057.15 93.9086 1057.15 Q88.0984 1057.15 85.0197 1052.56 Q81.9642 1047.96 81.9642 1039.23 Q81.9642 1030.48 85.0197 1025.9 Q88.0984 1021.29 93.9086 1021.29 Z" fill="#000000" fill-rule="nonzero" fill-opacity="1" /><path clip-path="url(#clip380)" d="M124.07 1024.99 Q120.459 1024.99 118.631 1028.56 Q116.825 1032.1 116.825 1039.23 Q116.825 1046.34 118.631 1049.9 Q120.459 1053.44 124.07 1053.44 Q127.705 1053.44 129.51 1049.9 Q131.339 1046.34 131.339 1039.23 Q131.339 1032.1 129.51 1028.56 Q127.705 1024.99 124.07 1024.99 M124.07 1021.29 Q129.881 1021.29 132.936 1025.9 Q136.015 1030.48 136.015 1039.23 Q136.015 1047.96 132.936 1052.56 Q129.881 1057.15 124.07 1057.15 Q118.26 1057.15 115.182 1052.56 Q112.126 1047.96 112.126 1039.23 Q112.126 1030.48 115.182 1025.9 Q118.26 1021.29 124.07 1021.29 Z" fill="#000000" fill-rule="nonzero" fill-opacity="1" /><path clip-path="url(#clip380)" d="M67.9133 825.19 Q71.2698 825.907 73.1448 828.176 Q75.0429 830.444 75.0429 833.778 Q75.0429 838.893 71.5244 841.694 Q68.0059 844.495 61.5245 844.495 Q59.3486 844.495 57.0338 844.055 Q54.7421 843.639 52.2884 842.782 L52.2884 838.268 Q54.2328 839.403 56.5477 839.981 Q58.8625 840.56 61.3856 840.56 Q65.7837 840.56 68.0754 838.824 Q70.3902 837.088 70.3902 833.778 Q70.3902 830.722 68.2374 829.009 Q66.1078 827.273 62.2884 827.273 L58.2606 827.273 L58.2606 823.43 L62.4735 823.43 Q65.9226 823.43 67.7513 822.065 Q69.58 820.676 69.58 818.083 Q69.58 815.421 67.6819 814.009 Q65.8069 812.574 62.2884 812.574 Q60.3671 812.574 58.168 812.991 Q55.969 813.407 53.3301 814.287 L53.3301 810.12 Q55.9921 809.38 58.3069 809.009 Q60.6449 808.639 62.705 808.639 Q68.0291 808.639 71.1309 811.069 Q74.2327 813.477 74.2327 817.597 Q74.2327 820.467 72.5892 822.458 Q70.9457 824.426 67.9133 825.19 Z" fill="#000000" fill-rule="nonzero" fill-opacity="1" /><path clip-path="url(#clip380)" d="M93.9086 812.342 Q90.2975 812.342 88.4688 815.907 Q86.6632 819.449 86.6632 826.579 Q86.6632 833.685 88.4688 837.25 Q90.2975 840.791 93.9086 840.791 Q97.5428 840.791 99.3483 837.25 Q101.177 833.685 101.177 826.579 Q101.177 819.449 99.3483 815.907 Q97.5428 812.342 93.9086 812.342 M93.9086 808.639 Q99.7187 808.639 102.774 813.245 Q105.853 817.829 105.853 826.579 Q105.853 835.305 102.774 839.912 Q99.7187 844.495 93.9086 844.495 Q88.0984 844.495 85.0197 839.912 Q81.9642 835.305 81.9642 826.579 Q81.9642 817.829 85.0197 813.245 Q88.0984 808.639 93.9086 808.639 Z" fill="#000000" fill-rule="nonzero" fill-opacity="1" /><path clip-path="url(#clip380)" d="M124.07 812.342 Q120.459 812.342 118.631 815.907 Q116.825 819.449 116.825 826.579 Q116.825 833.685 118.631 837.25 Q120.459 840.791 124.07 840.791 Q127.705 840.791 129.51 837.25 Q131.339 833.685 131.339 826.579 Q131.339 819.449 129.51 815.907 Q127.705 812.342 124.07 812.342 M124.07 808.639 Q129.881 808.639 132.936 813.245 Q136.015 817.829 136.015 826.579 Q136.015 835.305 132.936 839.912 Q129.881 844.495 124.07 844.495 Q118.26 844.495 115.182 839.912 Q112.126 835.305 112.126 826.579 Q112.126 817.829 115.182 813.245 Q118.26 808.639 124.07 808.639 Z" fill="#000000" fill-rule="nonzero" fill-opacity="1" /><path clip-path="url(#clip380)" d="M66.5939 600.687 L54.7884 619.136 L66.5939 619.136 L66.5939 600.687 M65.367 596.613 L71.2466 596.613 L71.2466 619.136 L76.1772 619.136 L76.1772 623.025 L71.2466 623.025 L71.2466 631.173 L66.5939 631.173 L66.5939 623.025 L50.9921 623.025 L50.9921 618.511 L65.367 596.613 Z" fill="#000000" fill-rule="nonzero" fill-opacity="1" /><path clip-path="url(#clip380)" d="M93.9086 599.692 Q90.2975 599.692 88.4688 603.256 Q86.6632 606.798 86.6632 613.928 Q86.6632 621.034 88.4688 624.599 Q90.2975 628.14 93.9086 628.14 Q97.5428 628.14 99.3483 624.599 Q101.177 621.034 101.177 613.928 Q101.177 606.798 99.3483 603.256 Q97.5428 599.692 93.9086 599.692 M93.9086 595.988 Q99.7187 595.988 102.774 600.594 Q105.853 605.178 105.853 613.928 Q105.853 622.654 102.774 627.261 Q99.7187 631.844 93.9086 631.844 Q88.0984 631.844 85.0197 627.261 Q81.9642 622.654 81.9642 613.928 Q81.9642 605.178 85.0197 600.594 Q88.0984 595.988 93.9086 595.988 Z" fill="#000000" fill-rule="nonzero" fill-opacity="1" /><path clip-path="url(#clip380)" d="M124.07 599.692 Q120.459 599.692 118.631 603.256 Q116.825 606.798 116.825 613.928 Q116.825 621.034 118.631 624.599 Q120.459 628.14 124.07 628.14 Q127.705 628.14 129.51 624.599 Q131.339 621.034 131.339 613.928 Q131.339 606.798 129.51 603.256 Q127.705 599.692 124.07 599.692 M124.07 595.988 Q129.881 595.988 132.936 600.594 Q136.015 605.178 136.015 613.928 Q136.015 622.654 132.936 627.261 Q129.881 631.844 124.07 631.844 Q118.26 631.844 115.182 627.261 Q112.126 622.654 112.126 613.928 Q112.126 605.178 115.182 600.594 Q118.26 595.988 124.07 595.988 Z" fill="#000000" fill-rule="nonzero" fill-opacity="1" /><path clip-path="url(#clip380)" d="M53.793 383.962 L72.1494 383.962 L72.1494 387.897 L58.0754 387.897 L58.0754 396.369 Q59.0939 396.022 60.1124 395.86 Q61.131 395.675 62.1495 395.675 Q67.9365 395.675 71.3161 398.846 Q74.6957 402.017 74.6957 407.434 Q74.6957 413.013 71.2235 416.115 Q67.7513 419.193 61.4319 419.193 Q59.256 419.193 56.9875 418.823 Q54.7421 418.453 52.3347 417.712 L52.3347 413.013 Q54.418 414.147 56.6402 414.703 Q58.8625 415.258 61.3393 415.258 Q65.3439 415.258 67.6819 413.152 Q70.0198 411.045 70.0198 407.434 Q70.0198 403.823 67.6819 401.717 Q65.3439 399.61 61.3393 399.61 Q59.4643 399.61 57.5893 400.027 Q55.7375 400.443 53.793 401.323 L53.793 383.962 Z" fill="#000000" fill-rule="nonzero" fill-opacity="1" /><path clip-path="url(#clip380)" d="M93.9086 387.041 Q90.2975 387.041 88.4688 390.605 Q86.6632 394.147 86.6632 401.277 Q86.6632 408.383 88.4688 411.948 Q90.2975 415.49 93.9086 415.49 Q97.5428 415.49 99.3483 411.948 Q101.177 408.383 101.177 401.277 Q101.177 394.147 99.3483 390.605 Q97.5428 387.041 93.9086 387.041 M93.9086 383.337 Q99.7187 383.337 102.774 387.943 Q105.853 392.527 105.853 401.277 Q105.853 410.004 102.774 414.61 Q99.7187 419.193 93.9086 419.193 Q88.0984 419.193 85.0197 414.61 Q81.9642 410.004 81.9642 401.277 Q81.9642 392.527 85.0197 387.943 Q88.0984 383.337 93.9086 383.337 Z" fill="#000000" fill-rule="nonzero" fill-opacity="1" /><path clip-path="url(#clip380)" d="M124.07 387.041 Q120.459 387.041 118.631 390.605 Q116.825 394.147 116.825 401.277 Q116.825 408.383 118.631 411.948 Q120.459 415.49 124.07 415.49 Q127.705 415.49 129.51 411.948 Q131.339 408.383 131.339 401.277 Q131.339 394.147 129.51 390.605 Q127.705 387.041 124.07 387.041 M124.07 383.337 Q129.881 383.337 132.936 387.943 Q136.015 392.527 136.015 401.277 Q136.015 410.004 132.936 414.61 Q129.881 419.193 124.07 419.193 Q118.26 419.193 115.182 414.61 Q112.126 410.004 112.126 401.277 Q112.126 392.527 115.182 387.943 Q118.26 383.337 124.07 383.337 Z" fill="#000000" fill-rule="nonzero" fill-opacity="1" /><path clip-path="url(#clip380)" d="M64.3254 186.728 Q61.1773 186.728 59.3254 188.88 Q57.4967 191.033 57.4967 194.783 Q57.4967 198.51 59.3254 200.686 Q61.1773 202.839 64.3254 202.839 Q67.4735 202.839 69.3022 200.686 Q71.1541 198.51 71.1541 194.783 Q71.1541 191.033 69.3022 188.88 Q67.4735 186.728 64.3254 186.728 M73.6077 172.075 L73.6077 176.334 Q71.8485 175.501 70.0429 175.061 Q68.2606 174.621 66.5013 174.621 Q61.8717 174.621 59.418 177.746 Q56.9875 180.871 56.6402 187.191 Q58.006 185.177 60.0662 184.112 Q62.1263 183.024 64.6032 183.024 Q69.8115 183.024 72.8207 186.195 Q75.8531 189.343 75.8531 194.783 Q75.8531 200.107 72.705 203.325 Q69.5568 206.542 64.3254 206.542 Q58.33 206.542 55.1588 201.959 Q51.9875 197.353 51.9875 188.626 Q51.9875 180.431 55.8764 175.57 Q59.7652 170.686 66.3161 170.686 Q68.0754 170.686 69.8578 171.033 Q71.6633 171.381 73.6077 172.075 Z" fill="#000000" fill-rule="nonzero" fill-opacity="1" /><path clip-path="url(#clip380)" d="M93.9086 174.39 Q90.2975 174.39 88.4688 177.955 Q86.6632 181.496 86.6632 188.626 Q86.6632 195.732 88.4688 199.297 Q90.2975 202.839 93.9086 202.839 Q97.5428 202.839 99.3483 199.297 Q101.177 195.732 101.177 188.626 Q101.177 181.496 99.3483 177.955 Q97.5428 174.39 93.9086 174.39 M93.9086 170.686 Q99.7187 170.686 102.774 175.293 Q105.853 179.876 105.853 188.626 Q105.853 197.353 102.774 201.959 Q99.7187 206.542 93.9086 206.542 Q88.0984 206.542 85.0197 201.959 Q81.9642 197.353 81.9642 188.626 Q81.9642 179.876 85.0197 175.293 Q88.0984 170.686 93.9086 170.686 Z" fill="#000000" fill-rule="nonzero" fill-opacity="1" /><path clip-path="url(#clip380)" d="M124.07 174.39 Q120.459 174.39 118.631 177.955 Q116.825 181.496 116.825 188.626 Q116.825 195.732 118.631 199.297 Q120.459 202.839 124.07 202.839 Q127.705 202.839 129.51 199.297 Q131.339 195.732 131.339 188.626 Q131.339 181.496 129.51 177.955 Q127.705 174.39 124.07 174.39 M124.07 170.686 Q129.881 170.686 132.936 175.293 Q136.015 179.876 136.015 188.626 Q136.015 197.353 132.936 201.959 Q129.881 206.542 124.07 206.542 Q118.26 206.542 115.182 201.959 Q112.126 197.353 112.126 188.626 Q112.126 179.876 115.182 175.293 Q118.26 170.686 124.07 170.686 Z" fill="#000000" fill-rule="nonzero" fill-opacity="1" /><polyline clip-path="url(#clip382)" style="stroke:#009af9; stroke-linecap:round; stroke-linejoin:round; stroke-width:4; stroke-opacity:1; fill:none" points="233.734,607.06 254.727,629.852 275.72,652.556 296.713,675.163 317.705,697.667 338.698,720.06 359.691,742.334 380.684,764.48 401.677,786.49 422.67,808.355 443.663,830.067 464.656,851.617 485.649,872.994 506.641,894.189 527.634,915.193 548.627,935.996 569.62,956.585 590.613,976.952 611.606,997.085 632.599,1016.97 653.592,1036.6 674.585,1055.97 695.577,1075.05 716.57,1093.84 737.563,1112.32 758.556,1130.48 779.549,1148.31 800.542,1165.79 821.535,1182.91 842.528,1199.66 863.521,1216.01 884.513,1231.96 905.506,1247.49 926.499,1262.58 947.492,1277.22 968.485,1291.39 989.478,1305.06 1010.47,1318.23 1031.46,1330.88 1052.46,1342.99 1073.45,1354.53 1094.44,1365.49 1115.44,1375.85 1136.43,1385.59 1157.42,1394.68 1178.41,1403.11 1199.41,1410.85 1220.4,1417.89 1241.39,1424.19 1262.39,1429.73 1283.38,1434.5 1304.37,1438.45 1325.36,1441.58 1346.36,1443.85 1367.35,1445.24 1388.34,1445.72 1409.34,1445.25 1430.33,1443.82 1451.32,1441.4 1472.31,1437.94 1493.31,1433.43 1514.3,1427.83 1535.29,1421.11 1556.29,1413.23 1577.28,1404.17 1598.27,1393.88 1619.26,1382.33 1640.26,1369.49 1661.25,1355.33 1682.24,1339.79 1703.24,1322.84 1724.23,1304.45 1745.22,1284.57 1766.21,1263.16 1787.21,1240.18 1808.2,1215.58 1829.19,1189.33 1850.19,1161.37 1871.18,1131.66 1892.17,1100.15 1913.16,1066.79 1934.16,1031.54 1955.15,994.339 1976.14,955.138 1997.14,913.885 2018.13,870.524 2039.12,825.001 2060.12,777.258 2081.11,727.237 2102.1,674.879 2123.09,620.123 2144.09,562.906 2165.08,503.165 2186.07,440.836 2207.07,375.851 2228.06,308.143 2249.05,237.642 2270.04,164.277 2291.04,87.9763 "/>
<path clip-path="url(#clip380)" d="M244.706 198.898 L885.486 198.898 L885.486 95.2176 L244.706 95.2176  Z" fill="#ffffff" fill-rule="evenodd" fill-opacity="1"/>
<polyline clip-path="url(#clip380)" style="stroke:#000000; stroke-linecap:round; stroke-linejoin:round; stroke-width:4; stroke-opacity:1; fill:none" points="244.706,198.898 885.486,198.898 885.486,95.2176 244.706,95.2176 244.706,198.898 "/>
<polyline clip-path="url(#clip380)" style="stroke:#009af9; stroke-linecap:round; stroke-linejoin:round; stroke-width:4; stroke-opacity:1; fill:none" points="268.937,147.058 414.319,147.058 "/>
<path clip-path="url(#clip380)" d="M455.054 128.319 L455.054 131.861 L450.98 131.861 Q448.689 131.861 447.786 132.787 Q446.906 133.713 446.906 136.12 L446.906 138.412 L453.92 138.412 L453.92 141.722 L446.906 141.722 L446.906 164.338 L442.624 164.338 L442.624 141.722 L438.55 141.722 L438.55 138.412 L442.624 138.412 L442.624 136.606 Q442.624 132.278 444.638 130.31 Q446.652 128.319 451.027 128.319 L455.054 128.319 Z" fill="#000000" fill-rule="nonzero" fill-opacity="1" /><path clip-path="url(#clip380)" d="M468.665 141.398 Q465.24 141.398 463.249 144.083 Q461.258 146.745 461.258 151.398 Q461.258 156.051 463.226 158.736 Q465.216 161.398 468.665 161.398 Q472.068 161.398 474.059 158.713 Q476.05 156.027 476.05 151.398 Q476.05 146.791 474.059 144.106 Q472.068 141.398 468.665 141.398 M468.665 137.787 Q474.221 137.787 477.392 141.398 Q480.564 145.009 480.564 151.398 Q480.564 157.764 477.392 161.398 Q474.221 165.009 468.665 165.009 Q463.087 165.009 459.915 161.398 Q456.767 157.764 456.767 151.398 Q456.767 145.009 459.915 141.398 Q463.087 137.787 468.665 137.787 Z" fill="#000000" fill-rule="nonzero" fill-opacity="1" /><path clip-path="url(#clip380)" d="M502.647 142.393 Q501.929 141.977 501.073 141.791 Q500.239 141.583 499.221 141.583 Q495.61 141.583 493.665 143.944 Q491.744 146.282 491.744 150.68 L491.744 164.338 L487.462 164.338 L487.462 138.412 L491.744 138.412 L491.744 142.44 Q493.087 140.078 495.239 138.944 Q497.392 137.787 500.471 137.787 Q500.911 137.787 501.443 137.856 Q501.975 137.903 502.624 138.018 L502.647 142.393 Z" fill="#000000" fill-rule="nonzero" fill-opacity="1" /><path clip-path="url(#clip380)" d="M524.73 139.407 L524.73 143.389 Q522.924 142.393 521.096 141.907 Q519.29 141.398 517.438 141.398 Q513.295 141.398 511.003 144.037 Q508.712 146.652 508.712 151.398 Q508.712 156.143 511.003 158.782 Q513.295 161.398 517.438 161.398 Q519.29 161.398 521.096 160.912 Q522.924 160.402 524.73 159.407 L524.73 163.342 Q522.948 164.176 521.026 164.592 Q519.128 165.009 516.975 165.009 Q511.119 165.009 507.67 161.328 Q504.221 157.648 504.221 151.398 Q504.221 145.055 507.693 141.421 Q511.188 137.787 517.253 137.787 Q519.221 137.787 521.096 138.203 Q522.971 138.597 524.73 139.407 Z" fill="#000000" fill-rule="nonzero" fill-opacity="1" /><path clip-path="url(#clip380)" d="M554.313 150.31 L554.313 152.393 L534.73 152.393 Q535.008 156.791 537.369 159.106 Q539.753 161.398 543.989 161.398 Q546.443 161.398 548.734 160.796 Q551.049 160.194 553.318 158.99 L553.318 163.018 Q551.026 163.99 548.619 164.5 Q546.211 165.009 543.734 165.009 Q537.531 165.009 533.897 161.398 Q530.285 157.787 530.285 151.629 Q530.285 145.264 533.711 141.537 Q537.16 137.787 542.994 137.787 Q548.225 137.787 551.258 141.166 Q554.313 144.523 554.313 150.31 M550.054 149.06 Q550.008 145.565 548.086 143.481 Q546.188 141.398 543.04 141.398 Q539.475 141.398 537.322 143.412 Q535.193 145.426 534.869 149.083 L550.054 149.06 Z" fill="#000000" fill-rule="nonzero" fill-opacity="1" /><path clip-path="url(#clip380)" d="M586.605 128.366 Q583.503 133.69 581.998 138.898 Q580.494 144.106 580.494 149.453 Q580.494 154.801 581.998 160.055 Q583.526 165.287 586.605 170.588 L582.901 170.588 Q579.429 165.148 577.693 159.893 Q575.98 154.639 575.98 149.453 Q575.98 144.291 577.693 139.06 Q579.406 133.828 582.901 128.366 L586.605 128.366 Z" fill="#000000" fill-rule="nonzero" fill-opacity="1" /><path clip-path="url(#clip380)" d="M615.054 143.389 Q616.651 140.518 618.873 139.153 Q621.095 137.787 624.104 137.787 Q628.155 137.787 630.354 140.634 Q632.553 143.458 632.553 148.689 L632.553 164.338 L628.271 164.338 L628.271 148.828 Q628.271 145.102 626.952 143.296 Q625.632 141.49 622.924 141.49 Q619.614 141.49 617.692 143.69 Q615.771 145.889 615.771 149.685 L615.771 164.338 L611.489 164.338 L611.489 148.828 Q611.489 145.078 610.169 143.296 Q608.85 141.49 606.095 141.49 Q602.831 141.49 600.91 143.713 Q598.989 145.912 598.989 149.685 L598.989 164.338 L594.706 164.338 L594.706 138.412 L598.989 138.412 L598.989 142.44 Q600.447 140.055 602.484 138.921 Q604.521 137.787 607.322 137.787 Q610.146 137.787 612.114 139.222 Q614.104 140.657 615.054 143.389 Z" fill="#000000" fill-rule="nonzero" fill-opacity="1" /><path clip-path="url(#clip380)" d="M652.831 151.305 Q647.669 151.305 645.678 152.486 Q643.688 153.666 643.688 156.514 Q643.688 158.782 645.169 160.125 Q646.674 161.444 649.243 161.444 Q652.785 161.444 654.914 158.944 Q657.067 156.421 657.067 152.254 L657.067 151.305 L652.831 151.305 M661.326 149.546 L661.326 164.338 L657.067 164.338 L657.067 160.402 Q655.609 162.763 653.433 163.898 Q651.257 165.009 648.109 165.009 Q644.127 165.009 641.766 162.787 Q639.428 160.541 639.428 156.791 Q639.428 152.416 642.345 150.194 Q645.285 147.972 651.095 147.972 L657.067 147.972 L657.067 147.555 Q657.067 144.615 655.123 143.018 Q653.201 141.398 649.706 141.398 Q647.484 141.398 645.377 141.93 Q643.271 142.463 641.327 143.527 L641.327 139.592 Q643.664 138.69 645.864 138.25 Q648.063 137.787 650.146 137.787 Q655.771 137.787 658.549 140.703 Q661.326 143.62 661.326 149.546 Z" fill="#000000" fill-rule="nonzero" fill-opacity="1" /><path clip-path="url(#clip380)" d="M687.16 151.074 Q687.16 146.444 685.238 143.898 Q683.34 141.352 679.891 141.352 Q676.465 141.352 674.544 143.898 Q672.646 146.444 672.646 151.074 Q672.646 155.68 674.544 158.226 Q676.465 160.773 679.891 160.773 Q683.34 160.773 685.238 158.226 Q687.16 155.68 687.16 151.074 M691.419 161.12 Q691.419 167.74 688.479 170.958 Q685.539 174.199 679.474 174.199 Q677.229 174.199 675.238 173.851 Q673.248 173.527 671.373 172.833 L671.373 168.689 Q673.248 169.708 675.076 170.194 Q676.905 170.68 678.803 170.68 Q682.993 170.68 685.076 168.481 Q687.16 166.305 687.16 161.884 L687.16 159.777 Q685.84 162.069 683.78 163.203 Q681.72 164.338 678.849 164.338 Q674.081 164.338 671.164 160.703 Q668.248 157.069 668.248 151.074 Q668.248 145.055 671.164 141.421 Q674.081 137.787 678.849 137.787 Q681.72 137.787 683.78 138.921 Q685.84 140.055 687.16 142.347 L687.16 138.412 L691.419 138.412 L691.419 161.12 Z" fill="#000000" fill-rule="nonzero" fill-opacity="1" /><path clip-path="url(#clip380)" d="M721.743 148.689 L721.743 164.338 L717.484 164.338 L717.484 148.828 Q717.484 145.148 716.048 143.319 Q714.613 141.49 711.743 141.49 Q708.294 141.49 706.303 143.69 Q704.312 145.889 704.312 149.685 L704.312 164.338 L700.03 164.338 L700.03 138.412 L704.312 138.412 L704.312 142.44 Q705.84 140.102 707.9 138.944 Q709.984 137.787 712.692 137.787 Q717.159 137.787 719.451 140.565 Q721.743 143.319 721.743 148.689 Z" fill="#000000" fill-rule="nonzero" fill-opacity="1" /><path clip-path="url(#clip380)" d="M730.238 138.412 L734.497 138.412 L734.497 164.338 L730.238 164.338 L730.238 138.412 M730.238 128.319 L734.497 128.319 L734.497 133.713 L730.238 133.713 L730.238 128.319 Z" fill="#000000" fill-rule="nonzero" fill-opacity="1" /><path clip-path="url(#clip380)" d="M747.622 131.051 L747.622 138.412 L756.395 138.412 L756.395 141.722 L747.622 141.722 L747.622 155.796 Q747.622 158.967 748.479 159.87 Q749.358 160.773 752.02 160.773 L756.395 160.773 L756.395 164.338 L752.02 164.338 Q747.09 164.338 745.215 162.509 Q743.34 160.657 743.34 155.796 L743.34 141.722 L740.215 141.722 L740.215 138.412 L743.34 138.412 L743.34 131.051 L747.622 131.051 Z" fill="#000000" fill-rule="nonzero" fill-opacity="1" /><path clip-path="url(#clip380)" d="M761.557 154.106 L761.557 138.412 L765.817 138.412 L765.817 153.944 Q765.817 157.625 767.252 159.476 Q768.687 161.305 771.557 161.305 Q775.006 161.305 776.997 159.106 Q779.011 156.907 779.011 153.111 L779.011 138.412 L783.27 138.412 L783.27 164.338 L779.011 164.338 L779.011 160.356 Q777.46 162.717 775.4 163.875 Q773.363 165.009 770.655 165.009 Q766.187 165.009 763.872 162.231 Q761.557 159.453 761.557 154.106 M772.275 137.787 L772.275 137.787 Z" fill="#000000" fill-rule="nonzero" fill-opacity="1" /><path clip-path="url(#clip380)" d="M809.103 142.347 L809.103 128.319 L813.363 128.319 L813.363 164.338 L809.103 164.338 L809.103 160.449 Q807.761 162.763 805.701 163.898 Q803.664 165.009 800.793 165.009 Q796.094 165.009 793.131 161.259 Q790.191 157.509 790.191 151.398 Q790.191 145.287 793.131 141.537 Q796.094 137.787 800.793 137.787 Q803.664 137.787 805.701 138.921 Q807.761 140.032 809.103 142.347 M794.59 151.398 Q794.59 156.097 796.511 158.782 Q798.455 161.444 801.835 161.444 Q805.215 161.444 807.159 158.782 Q809.103 156.097 809.103 151.398 Q809.103 146.699 807.159 144.037 Q805.215 141.352 801.835 141.352 Q798.455 141.352 796.511 144.037 Q794.59 146.699 794.59 151.398 Z" fill="#000000" fill-rule="nonzero" fill-opacity="1" /><path clip-path="url(#clip380)" d="M844.312 150.31 L844.312 152.393 L824.728 152.393 Q825.006 156.791 827.367 159.106 Q829.751 161.398 833.988 161.398 Q836.441 161.398 838.733 160.796 Q841.048 160.194 843.316 158.99 L843.316 163.018 Q841.025 163.99 838.617 164.5 Q836.21 165.009 833.733 165.009 Q827.529 165.009 823.895 161.398 Q820.284 157.787 820.284 151.629 Q820.284 145.264 823.71 141.537 Q827.159 137.787 832.992 137.787 Q838.224 137.787 841.256 141.166 Q844.312 144.523 844.312 150.31 M840.052 149.06 Q840.006 145.565 838.085 143.481 Q836.187 141.398 833.038 141.398 Q829.474 141.398 827.321 143.412 Q825.191 145.426 824.867 149.083 L840.052 149.06 Z" fill="#000000" fill-rule="nonzero" fill-opacity="1" /><path clip-path="url(#clip380)" d="M850.631 128.366 L854.335 128.366 Q857.807 133.828 859.52 139.06 Q861.256 144.291 861.256 149.453 Q861.256 154.639 859.52 159.893 Q857.807 165.148 854.335 170.588 L850.631 170.588 Q853.71 165.287 855.214 160.055 Q856.742 154.801 856.742 149.453 Q856.742 144.106 855.214 138.898 Q853.71 133.69 850.631 128.366 Z" fill="#000000" fill-rule="nonzero" fill-opacity="1" /></svg>
