<?xml version="1.0" encoding="utf-8"?>
<svg xmlns="http://www.w3.org/2000/svg" xmlns:xlink="http://www.w3.org/1999/xlink" width="600" height="400" viewBox="0 0 2400 1600">
<defs>
  <clipPath id="clip570">
    <rect x="0" y="0" width="2400" height="1600"/>
  </clipPath>
</defs>
<path clip-path="url(#clip570)" d="M0 1600 L2400 1600 L2400 0 L0 0  Z" fill="#ffffff" fill-rule="evenodd" fill-opacity="1"/>
<defs>
  <clipPath id="clip571">
    <rect x="480" y="0" width="1681" height="1600"/>
  </clipPath>
</defs>
<path clip-path="url(#clip570)" d="M219.866 1423.18 L2352.76 1423.18 L2352.76 47.2441 L219.866 47.2441  Z" fill="#ffffff" fill-rule="evenodd" fill-opacity="1"/>
<defs>
  <clipPath id="clip572">
    <rect x="219" y="47" width="2134" height="1377"/>
  </clipPath>
</defs>
<polyline clip-path="url(#clip572)" style="stroke:#000000; stroke-linecap:round; stroke-linejoin:round; stroke-width:2; stroke-opacity:0.1; fill:none" points="280.231,1423.18 280.231,47.2441 "/>
<polyline clip-path="url(#clip572)" style="stroke:#000000; stroke-linecap:round; stroke-linejoin:round; stroke-width:2; stroke-opacity:0.1; fill:none" points="950.951,1423.18 950.951,47.2441 "/>
<polyline clip-path="url(#clip572)" style="stroke:#000000; stroke-linecap:round; stroke-linejoin:round; stroke-width:2; stroke-opacity:0.1; fill:none" points="1621.67,1423.18 1621.67,47.2441 "/>
<polyline clip-path="url(#clip572)" style="stroke:#000000; stroke-linecap:round; stroke-linejoin:round; stroke-width:2; stroke-opacity:0.1; fill:none" points="2292.39,1423.18 2292.39,47.2441 "/>
<polyline clip-path="url(#clip572)" style="stroke:#000000; stroke-linecap:round; stroke-linejoin:round; stroke-width:2; stroke-opacity:0.1; fill:none" points="219.866,1115.14 2352.76,1115.14 "/>
<polyline clip-path="url(#clip572)" style="stroke:#000000; stroke-linecap:round; stroke-linejoin:round; stroke-width:2; stroke-opacity:0.1; fill:none" points="219.866,800.711 2352.76,800.711 "/>
<polyline clip-path="url(#clip572)" style="stroke:#000000; stroke-linecap:round; stroke-linejoin:round; stroke-width:2; stroke-opacity:0.1; fill:none" points="219.866,486.278 2352.76,486.278 "/>
<polyline clip-path="url(#clip572)" style="stroke:#000000; stroke-linecap:round; stroke-linejoin:round; stroke-width:2; stroke-opacity:0.1; fill:none" points="219.866,171.845 2352.76,171.845 "/>
<polyline clip-path="url(#clip570)" style="stroke:#000000; stroke-linecap:round; stroke-linejoin:round; stroke-width:4; stroke-opacity:1; fill:none" points="219.866,1423.18 2352.76,1423.18 "/>
<polyline clip-path="url(#clip570)" style="stroke:#000000; stroke-linecap:round; stroke-linejoin:round; stroke-width:4; stroke-opacity:1; fill:none" points="280.231,1423.18 280.231,1404.28 "/>
<polyline clip-path="url(#clip570)" style="stroke:#000000; stroke-linecap:round; stroke-linejoin:round; stroke-width:4; stroke-opacity:1; fill:none" points="950.951,1423.18 950.951,1404.28 "/>
<polyline clip-path="url(#clip570)" style="stroke:#000000; stroke-linecap:round; stroke-linejoin:round; stroke-width:4; stroke-opacity:1; fill:none" points="1621.67,1423.18 1621.67,1404.28 "/>
<polyline clip-path="url(#clip570)" style="stroke:#000000; stroke-linecap:round; stroke-linejoin:round; stroke-width:4; stroke-opacity:1; fill:none" points="2292.39,1423.18 2292.39,1404.28 "/>
<path clip-path="url(#clip570)" d="M242.535 1454.1 Q238.923 1454.1 237.095 1457.66 Q235.289 1461.2 235.289 1468.33 Q235.289 1475.44 237.095 1479.01 Q238.923 1482.55 242.535 1482.55 Q246.169 1482.55 247.974 1479.01 Q249.803 1475.44 249.803 1468.33 Q249.803 1461.2 247.974 1457.66 Q246.169 1454.1 242.535 1454.1 M242.535 1450.39 Q248.345 1450.39 251.4 1455 Q254.479 1459.58 254.479 1468.33 Q254.479 1477.06 251.4 1481.67 Q248.345 1486.25 242.535 1486.25 Q236.724 1486.25 233.646 1481.67 Q230.59 1477.06 230.59 1468.33 Q230.59 1459.58 233.646 1455 Q236.724 1450.39 242.535 1450.39 Z" fill="#000000" fill-rule="nonzero" fill-opacity="1" /><path clip-path="url(#clip570)" d="M262.696 1479.7 L267.581 1479.7 L267.581 1485.58 L262.696 1485.58 L262.696 1479.7 Z" fill="#000000" fill-rule="nonzero" fill-opacity="1" /><path clip-path="url(#clip570)" d="M287.766 1454.1 Q284.155 1454.1 282.326 1457.66 Q280.52 1461.2 280.52 1468.33 Q280.52 1475.44 282.326 1479.01 Q284.155 1482.55 287.766 1482.55 Q291.4 1482.55 293.206 1479.01 Q295.034 1475.44 295.034 1468.33 Q295.034 1461.2 293.206 1457.66 Q291.4 1454.1 287.766 1454.1 M287.766 1450.39 Q293.576 1450.39 296.631 1455 Q299.71 1459.58 299.71 1468.33 Q299.71 1477.06 296.631 1481.67 Q293.576 1486.25 287.766 1486.25 Q281.956 1486.25 278.877 1481.67 Q275.821 1477.06 275.821 1468.33 Q275.821 1459.58 278.877 1455 Q281.956 1450.39 287.766 1450.39 Z" fill="#000000" fill-rule="nonzero" fill-opacity="1" /><path clip-path="url(#clip570)" d="M317.928 1454.1 Q314.317 1454.1 312.488 1457.66 Q310.682 1461.2 310.682 1468.33 Q310.682 1475.44 312.488 1479.01 Q314.317 1482.55 317.928 1482.55 Q321.562 1482.55 323.367 1479.01 Q325.196 1475.44 325.196 1468.33 Q325.196 1461.2 323.367 1457.66 Q321.562 1454.1 317.928 1454.1 M317.928 1450.39 Q323.738 1450.39 326.793 1455 Q329.872 1459.58 329.872 1468.33 Q329.872 1477.06 326.793 1481.67 Q323.738 1486.25 317.928 1486.25 Q312.117 1486.25 309.039 1481.67 Q305.983 1477.06 305.983 1468.33 Q305.983 1459.58 309.039 1455 Q312.117 1450.39 317.928 1450.39 Z" fill="#000000" fill-rule="nonzero" fill-opacity="1" /><path clip-path="url(#clip570)" d="M913.752 1454.1 Q910.141 1454.1 908.312 1457.66 Q906.507 1461.2 906.507 1468.33 Q906.507 1475.44 908.312 1479.01 Q910.141 1482.55 913.752 1482.55 Q917.386 1482.55 919.192 1479.01 Q921.021 1475.44 921.021 1468.33 Q921.021 1461.2 919.192 1457.66 Q917.386 1454.1 913.752 1454.1 M913.752 1450.39 Q919.562 1450.39 922.618 1455 Q925.697 1459.58 925.697 1468.33 Q925.697 1477.06 922.618 1481.67 Q919.562 1486.25 913.752 1486.25 Q907.942 1486.25 904.863 1481.67 Q901.808 1477.06 901.808 1468.33 Q901.808 1459.58 904.863 1455 Q907.942 1450.39 913.752 1450.39 Z" fill="#000000" fill-rule="nonzero" fill-opacity="1" /><path clip-path="url(#clip570)" d="M933.914 1479.7 L938.798 1479.7 L938.798 1485.58 L933.914 1485.58 L933.914 1479.7 Z" fill="#000000" fill-rule="nonzero" fill-opacity="1" /><path clip-path="url(#clip570)" d="M958.983 1454.1 Q955.372 1454.1 953.544 1457.66 Q951.738 1461.2 951.738 1468.33 Q951.738 1475.44 953.544 1479.01 Q955.372 1482.55 958.983 1482.55 Q962.618 1482.55 964.423 1479.01 Q966.252 1475.44 966.252 1468.33 Q966.252 1461.2 964.423 1457.66 Q962.618 1454.1 958.983 1454.1 M958.983 1450.39 Q964.794 1450.39 967.849 1455 Q970.928 1459.58 970.928 1468.33 Q970.928 1477.06 967.849 1481.67 Q964.794 1486.25 958.983 1486.25 Q953.173 1486.25 950.095 1481.67 Q947.039 1477.06 947.039 1468.33 Q947.039 1459.58 950.095 1455 Q953.173 1450.39 958.983 1450.39 Z" fill="#000000" fill-rule="nonzero" fill-opacity="1" /><path clip-path="url(#clip570)" d="M979.192 1451.02 L997.548 1451.02 L997.548 1454.96 L983.474 1454.96 L983.474 1463.43 Q984.493 1463.08 985.511 1462.92 Q986.53 1462.73 987.548 1462.73 Q993.335 1462.73 996.715 1465.9 Q1000.09 1469.08 1000.09 1474.49 Q1000.09 1480.07 996.622 1483.17 Q993.15 1486.25 986.831 1486.25 Q984.655 1486.25 982.386 1485.88 Q980.141 1485.51 977.733 1484.77 L977.733 1480.07 Q979.817 1481.2 982.039 1481.76 Q984.261 1482.32 986.738 1482.32 Q990.743 1482.32 993.08 1480.21 Q995.418 1478.1 995.418 1474.49 Q995.418 1470.88 993.08 1468.77 Q990.743 1466.67 986.738 1466.67 Q984.863 1466.67 982.988 1467.08 Q981.136 1467.5 979.192 1468.38 L979.192 1451.02 Z" fill="#000000" fill-rule="nonzero" fill-opacity="1" /><path clip-path="url(#clip570)" d="M1583.97 1454.1 Q1580.36 1454.1 1578.53 1457.66 Q1576.73 1461.2 1576.73 1468.33 Q1576.73 1475.44 1578.53 1479.01 Q1580.36 1482.55 1583.97 1482.55 Q1587.61 1482.55 1589.41 1479.01 Q1591.24 1475.44 1591.24 1468.33 Q1591.24 1461.2 1589.41 1457.66 Q1587.61 1454.1 1583.97 1454.1 M1583.97 1450.39 Q1589.78 1450.39 1592.84 1455 Q1595.92 1459.58 1595.92 1468.33 Q1595.92 1477.06 1592.84 1481.67 Q1589.78 1486.25 1583.97 1486.25 Q1578.16 1486.25 1575.09 1481.67 Q1572.03 1477.06 1572.03 1468.33 Q1572.03 1459.58 1575.09 1455 Q1578.16 1450.39 1583.97 1450.39 Z" fill="#000000" fill-rule="nonzero" fill-opacity="1" /><path clip-path="url(#clip570)" d="M1604.14 1479.7 L1609.02 1479.7 L1609.02 1485.58 L1604.14 1485.58 L1604.14 1479.7 Z" fill="#000000" fill-rule="nonzero" fill-opacity="1" /><path clip-path="url(#clip570)" d="M1620.02 1481.64 L1627.65 1481.64 L1627.65 1455.28 L1619.34 1456.95 L1619.34 1452.69 L1627.61 1451.02 L1632.28 1451.02 L1632.28 1481.64 L1639.92 1481.64 L1639.92 1485.58 L1620.02 1485.58 L1620.02 1481.64 Z" fill="#000000" fill-rule="nonzero" fill-opacity="1" /><path clip-path="url(#clip570)" d="M1659.37 1454.1 Q1655.76 1454.1 1653.93 1457.66 Q1652.12 1461.2 1652.12 1468.33 Q1652.12 1475.44 1653.93 1479.01 Q1655.76 1482.55 1659.37 1482.55 Q1663 1482.55 1664.81 1479.01 Q1666.64 1475.44 1666.64 1468.33 Q1666.64 1461.2 1664.81 1457.66 Q1663 1454.1 1659.37 1454.1 M1659.37 1450.39 Q1665.18 1450.39 1668.23 1455 Q1671.31 1459.58 1671.31 1468.33 Q1671.31 1477.06 1668.23 1481.67 Q1665.18 1486.25 1659.37 1486.25 Q1653.56 1486.25 1650.48 1481.67 Q1647.42 1477.06 1647.42 1468.33 Q1647.42 1459.58 1650.48 1455 Q1653.56 1450.39 1659.37 1450.39 Z" fill="#000000" fill-rule="nonzero" fill-opacity="1" /><path clip-path="url(#clip570)" d="M2255.19 1454.1 Q2251.58 1454.1 2249.75 1457.66 Q2247.95 1461.2 2247.95 1468.33 Q2247.95 1475.44 2249.75 1479.01 Q2251.58 1482.55 2255.19 1482.55 Q2258.83 1482.55 2260.63 1479.01 Q2262.46 1475.44 2262.46 1468.33 Q2262.46 1461.2 2260.63 1457.66 Q2258.83 1454.1 2255.19 1454.1 M2255.19 1450.39 Q2261 1450.39 2264.06 1455 Q2267.14 1459.58 2267.14 1468.33 Q2267.14 1477.06 2264.06 1481.67 Q2261 1486.25 2255.19 1486.25 Q2249.38 1486.25 2246.3 1481.67 Q2243.25 1477.06 2243.25 1468.33 Q2243.25 1459.58 2246.3 1455 Q2249.38 1450.39 2255.19 1450.39 Z" fill="#000000" fill-rule="nonzero" fill-opacity="1" /><path clip-path="url(#clip570)" d="M2275.35 1479.7 L2280.24 1479.7 L2280.24 1485.58 L2275.35 1485.58 L2275.35 1479.7 Z" fill="#000000" fill-rule="nonzero" fill-opacity="1" /><path clip-path="url(#clip570)" d="M2291.23 1481.64 L2298.87 1481.64 L2298.87 1455.28 L2290.56 1456.95 L2290.56 1452.69 L2298.83 1451.02 L2303.5 1451.02 L2303.5 1481.64 L2311.14 1481.64 L2311.14 1485.58 L2291.23 1485.58 L2291.23 1481.64 Z" fill="#000000" fill-rule="nonzero" fill-opacity="1" /><path clip-path="url(#clip570)" d="M2320.63 1451.02 L2338.99 1451.02 L2338.99 1454.96 L2324.91 1454.96 L2324.91 1463.43 Q2325.93 1463.08 2326.95 1462.92 Q2327.97 1462.73 2328.99 1462.73 Q2334.78 1462.73 2338.15 1465.9 Q2341.53 1469.08 2341.53 1474.49 Q2341.53 1480.07 2338.06 1483.17 Q2334.59 1486.25 2328.27 1486.25 Q2326.09 1486.25 2323.83 1485.88 Q2321.58 1485.51 2319.17 1484.77 L2319.17 1480.07 Q2321.26 1481.2 2323.48 1481.76 Q2325.7 1482.32 2328.18 1482.32 Q2332.18 1482.32 2334.52 1480.21 Q2336.86 1478.1 2336.86 1474.49 Q2336.86 1470.88 2334.52 1468.77 Q2332.18 1466.67 2328.18 1466.67 Q2326.3 1466.67 2324.43 1467.08 Q2322.58 1467.5 2320.63 1468.38 L2320.63 1451.02 Z" fill="#000000" fill-rule="nonzero" fill-opacity="1" /><path clip-path="url(#clip570)" d="M1276.25 1562.7 L1276.25 1581.6 L1270.36 1581.6 L1270.36 1532.4 L1276.25 1532.4 L1276.25 1537.81 Q1278.1 1534.62 1280.9 1533.1 Q1283.73 1531.54 1287.65 1531.54 Q1294.14 1531.54 1298.18 1536.69 Q1302.26 1541.85 1302.26 1550.25 Q1302.26 1558.65 1298.18 1563.81 Q1294.14 1568.97 1287.65 1568.97 Q1283.73 1568.97 1280.9 1567.44 Q1278.1 1565.88 1276.25 1562.7 M1296.18 1550.25 Q1296.18 1543.79 1293.5 1540.13 Q1290.86 1536.44 1286.22 1536.44 Q1281.57 1536.44 1278.9 1540.13 Q1276.25 1543.79 1276.25 1550.25 Q1276.25 1556.71 1278.9 1560.4 Q1281.57 1564.07 1286.22 1564.07 Q1290.86 1564.07 1293.5 1560.4 Q1296.18 1556.71 1296.18 1550.25 Z" fill="#000000" fill-rule="nonzero" fill-opacity="1" /><polyline clip-path="url(#clip570)" style="stroke:#000000; stroke-linecap:round; stroke-linejoin:round; stroke-width:4; stroke-opacity:1; fill:none" points="219.866,1423.18 219.866,47.2441 "/>
<polyline clip-path="url(#clip570)" style="stroke:#000000; stroke-linecap:round; stroke-linejoin:round; stroke-width:4; stroke-opacity:1; fill:none" points="219.866,1115.14 238.764,1115.14 "/>
<polyline clip-path="url(#clip570)" style="stroke:#000000; stroke-linecap:round; stroke-linejoin:round; stroke-width:4; stroke-opacity:1; fill:none" points="219.866,800.711 238.764,800.711 "/>
<polyline clip-path="url(#clip570)" style="stroke:#000000; stroke-linecap:round; stroke-linejoin:round; stroke-width:4; stroke-opacity:1; fill:none" points="219.866,486.278 238.764,486.278 "/>
<polyline clip-path="url(#clip570)" style="stroke:#000000; stroke-linecap:round; stroke-linejoin:round; stroke-width:4; stroke-opacity:1; fill:none" points="219.866,171.845 238.764,171.845 "/>
<path clip-path="url(#clip570)" d="M128.288 1100.94 Q124.677 1100.94 122.848 1104.51 Q121.043 1108.05 121.043 1115.18 Q121.043 1122.28 122.848 1125.85 Q124.677 1129.39 128.288 1129.39 Q131.922 1129.39 133.728 1125.85 Q135.556 1122.28 135.556 1115.18 Q135.556 1108.05 133.728 1104.51 Q131.922 1100.94 128.288 1100.94 M128.288 1097.24 Q134.098 1097.24 137.154 1101.84 Q140.232 1106.43 140.232 1115.18 Q140.232 1123.9 137.154 1128.51 Q134.098 1133.09 128.288 1133.09 Q122.478 1133.09 119.399 1128.51 Q116.343 1123.9 116.343 1115.18 Q116.343 1106.43 119.399 1101.84 Q122.478 1097.24 128.288 1097.24 Z" fill="#000000" fill-rule="nonzero" fill-opacity="1" /><path clip-path="url(#clip570)" d="M148.45 1126.54 L153.334 1126.54 L153.334 1132.42 L148.45 1132.42 L148.45 1126.54 Z" fill="#000000" fill-rule="nonzero" fill-opacity="1" /><path clip-path="url(#clip570)" d="M167.547 1128.49 L183.866 1128.49 L183.866 1132.42 L161.922 1132.42 L161.922 1128.49 Q164.584 1125.73 169.167 1121.1 Q173.774 1116.45 174.954 1115.11 Q177.2 1112.59 178.079 1110.85 Q178.982 1109.09 178.982 1107.4 Q178.982 1104.65 177.038 1102.91 Q175.116 1101.17 172.014 1101.17 Q169.815 1101.17 167.362 1101.94 Q164.931 1102.7 162.153 1104.25 L162.153 1099.53 Q164.977 1098.4 167.431 1097.82 Q169.885 1097.24 171.922 1097.24 Q177.292 1097.24 180.487 1099.92 Q183.681 1102.61 183.681 1107.1 Q183.681 1109.23 182.871 1111.15 Q182.084 1113.05 179.977 1115.64 Q179.399 1116.31 176.297 1119.53 Q173.195 1122.72 167.547 1128.49 Z" fill="#000000" fill-rule="nonzero" fill-opacity="1" /><path clip-path="url(#clip570)" d="M126.205 786.509 Q122.593 786.509 120.765 790.074 Q118.959 793.616 118.959 800.745 Q118.959 807.852 120.765 811.417 Q122.593 814.958 126.205 814.958 Q129.839 814.958 131.644 811.417 Q133.473 807.852 133.473 800.745 Q133.473 793.616 131.644 790.074 Q129.839 786.509 126.205 786.509 M126.205 782.806 Q132.015 782.806 135.07 787.412 Q138.149 791.995 138.149 800.745 Q138.149 809.472 135.07 814.079 Q132.015 818.662 126.205 818.662 Q120.394 818.662 117.316 814.079 Q114.26 809.472 114.26 800.745 Q114.26 791.995 117.316 787.412 Q120.394 782.806 126.205 782.806 Z" fill="#000000" fill-rule="nonzero" fill-opacity="1" /><path clip-path="url(#clip570)" d="M146.366 812.111 L151.251 812.111 L151.251 817.991 L146.366 817.991 L146.366 812.111 Z" fill="#000000" fill-rule="nonzero" fill-opacity="1" /><path clip-path="url(#clip570)" d="M174.283 787.505 L162.477 805.954 L174.283 805.954 L174.283 787.505 M173.056 783.431 L178.936 783.431 L178.936 805.954 L183.866 805.954 L183.866 809.842 L178.936 809.842 L178.936 817.991 L174.283 817.991 L174.283 809.842 L158.681 809.842 L158.681 805.329 L173.056 783.431 Z" fill="#000000" fill-rule="nonzero" fill-opacity="1" /><path clip-path="url(#clip570)" d="M126.529 472.076 Q122.918 472.076 121.089 475.641 Q119.283 479.183 119.283 486.312 Q119.283 493.419 121.089 496.984 Q122.918 500.525 126.529 500.525 Q130.163 500.525 131.968 496.984 Q133.797 493.419 133.797 486.312 Q133.797 479.183 131.968 475.641 Q130.163 472.076 126.529 472.076 M126.529 468.373 Q132.339 468.373 135.394 472.979 Q138.473 477.562 138.473 486.312 Q138.473 495.039 135.394 499.646 Q132.339 504.229 126.529 504.229 Q120.718 504.229 117.64 499.646 Q114.584 495.039 114.584 486.312 Q114.584 477.562 117.64 472.979 Q120.718 468.373 126.529 468.373 Z" fill="#000000" fill-rule="nonzero" fill-opacity="1" /><path clip-path="url(#clip570)" d="M146.691 497.678 L151.575 497.678 L151.575 503.558 L146.691 503.558 L146.691 497.678 Z" fill="#000000" fill-rule="nonzero" fill-opacity="1" /><path clip-path="url(#clip570)" d="M172.339 484.414 Q169.19 484.414 167.339 486.567 Q165.51 488.72 165.51 492.47 Q165.51 496.197 167.339 498.373 Q169.19 500.525 172.339 500.525 Q175.487 500.525 177.315 498.373 Q179.167 496.197 179.167 492.47 Q179.167 488.72 177.315 486.567 Q175.487 484.414 172.339 484.414 M181.621 469.762 L181.621 474.021 Q179.862 473.188 178.056 472.748 Q176.274 472.308 174.514 472.308 Q169.885 472.308 167.431 475.433 Q165.001 478.558 164.653 484.877 Q166.019 482.863 168.079 481.799 Q170.139 480.711 172.616 480.711 Q177.825 480.711 180.834 483.882 Q183.866 487.03 183.866 492.47 Q183.866 497.794 180.718 501.011 Q177.57 504.229 172.339 504.229 Q166.343 504.229 163.172 499.646 Q160.001 495.039 160.001 486.312 Q160.001 478.118 163.89 473.257 Q167.778 468.373 174.329 468.373 Q176.089 468.373 177.871 468.72 Q179.676 469.067 181.621 469.762 Z" fill="#000000" fill-rule="nonzero" fill-opacity="1" /><path clip-path="url(#clip570)" d="M126.783 157.644 Q123.172 157.644 121.343 161.208 Q119.538 164.75 119.538 171.88 Q119.538 178.986 121.343 182.551 Q123.172 186.093 126.783 186.093 Q130.417 186.093 132.223 182.551 Q134.052 178.986 134.052 171.88 Q134.052 164.75 132.223 161.208 Q130.417 157.644 126.783 157.644 M126.783 153.94 Q132.593 153.94 135.649 158.546 Q138.728 163.13 138.728 171.88 Q138.728 180.606 135.649 185.213 Q132.593 189.796 126.783 189.796 Q120.973 189.796 117.894 185.213 Q114.839 180.606 114.839 171.88 Q114.839 163.13 117.894 158.546 Q120.973 153.94 126.783 153.94 Z" fill="#000000" fill-rule="nonzero" fill-opacity="1" /><path clip-path="url(#clip570)" d="M146.945 183.245 L151.829 183.245 L151.829 189.125 L146.945 189.125 L146.945 183.245 Z" fill="#000000" fill-rule="nonzero" fill-opacity="1" /><path clip-path="url(#clip570)" d="M172.014 172.713 Q168.681 172.713 166.76 174.495 Q164.862 176.278 164.862 179.403 Q164.862 182.528 166.76 184.31 Q168.681 186.093 172.014 186.093 Q175.348 186.093 177.269 184.31 Q179.19 182.505 179.19 179.403 Q179.19 176.278 177.269 174.495 Q175.371 172.713 172.014 172.713 M167.339 170.722 Q164.329 169.981 162.64 167.921 Q160.973 165.861 160.973 162.898 Q160.973 158.755 163.913 156.347 Q166.876 153.94 172.014 153.94 Q177.176 153.94 180.116 156.347 Q183.056 158.755 183.056 162.898 Q183.056 165.861 181.366 167.921 Q179.7 169.981 176.714 170.722 Q180.093 171.509 181.968 173.801 Q183.866 176.093 183.866 179.403 Q183.866 184.426 180.788 187.111 Q177.732 189.796 172.014 189.796 Q166.297 189.796 163.218 187.111 Q160.163 184.426 160.163 179.403 Q160.163 176.093 162.061 173.801 Q163.959 171.509 167.339 170.722 M165.626 163.338 Q165.626 166.023 167.292 167.528 Q168.982 169.032 172.014 169.032 Q175.024 169.032 176.714 167.528 Q178.426 166.023 178.426 163.338 Q178.426 160.653 176.714 159.148 Q175.024 157.644 172.014 157.644 Q168.982 157.644 167.292 159.148 Q165.626 160.653 165.626 163.338 Z" fill="#000000" fill-rule="nonzero" fill-opacity="1" /><path clip-path="url(#clip570)" d="M16.4842 769.444 L16.4842 742.135 L21.895 742.135 L21.895 763.014 L35.8996 763.014 L35.8996 744.172 L41.3104 744.172 L41.3104 763.014 L64.0042 763.014 L64.0042 769.444 L16.4842 769.444 Z" fill="#000000" fill-rule="nonzero" fill-opacity="1" /><path clip-path="url(#clip570)" d="M28.3562 736.947 L28.3562 731.09 L64.0042 731.09 L64.0042 736.947 L28.3562 736.947 M14.479 736.947 L14.479 731.09 L21.895 731.09 L21.895 736.947 L14.479 736.947 Z" fill="#000000" fill-rule="nonzero" fill-opacity="1" /><path clip-path="url(#clip570)" d="M18.2347 713.043 L28.3562 713.043 L28.3562 700.98 L32.9077 700.98 L32.9077 713.043 L52.2594 713.043 Q56.6199 713.043 57.8613 711.866 Q59.1026 710.656 59.1026 706.996 L59.1026 700.98 L64.0042 700.98 L64.0042 706.996 Q64.0042 713.775 61.4897 716.354 Q58.9434 718.932 52.2594 718.932 L32.9077 718.932 L32.9077 723.229 L28.3562 723.229 L28.3562 718.932 L18.2347 718.932 L18.2347 713.043 Z" fill="#000000" fill-rule="nonzero" fill-opacity="1" /><polyline clip-path="url(#clip572)" style="stroke:#009af9; stroke-linecap:round; stroke-linejoin:round; stroke-width:4; stroke-opacity:1; fill:none" points="280.231,1376.15 503.804,1376.15 727.378,1362.03 950.951,1336.28 1174.52,1278.49 1398.1,1224.62 1621.67,1270.18 1845.24,1326.7 2068.82,748.079 2292.39,1195.04 "/>
<polyline clip-path="url(#clip572)" style="stroke:#e26f46; stroke-linecap:round; stroke-linejoin:round; stroke-width:4; stroke-opacity:1; fill:none" points="280.231,1374.59 503.804,1374.59 727.378,346.872 950.951,1182.91 1174.52,230.643 1398.1,684.477 1621.67,258.422 1845.24,211.79 2068.82,86.1857 2292.39,94.687 "/>
<polyline clip-path="url(#clip572)" style="stroke:#3da44d; stroke-linecap:round; stroke-linejoin:round; stroke-width:4; stroke-opacity:1; fill:none" points="280.231,1374.59 503.804,1374.59 727.378,1375.82 950.951,1382.07 1174.52,1384.24 1398.1,1362.27 1621.67,1369.67 1845.24,1374.91 2068.82,1363.91 2292.39,1367.45 "/>
<path clip-path="url(#clip570)" d="M290.963 300.469 L825.639 300.469 L825.639 93.1086 L290.963 93.1086  Z" fill="#ffffff" fill-rule="evenodd" fill-opacity="1"/>
<polyline clip-path="url(#clip570)" style="stroke:#000000; stroke-linecap:round; stroke-linejoin:round; stroke-width:4; stroke-opacity:1; fill:none" points="290.963,300.469 825.639,300.469 825.639,93.1086 290.963,93.1086 290.963,300.469 "/>
<polyline clip-path="url(#clip570)" style="stroke:#009af9; stroke-linecap:round; stroke-linejoin:round; stroke-width:4; stroke-opacity:1; fill:none" points="314.661,144.949 456.854,144.949 "/>
<path clip-path="url(#clip570)" d="M480.553 127.669 L485.229 127.669 L485.229 141.835 L502.219 141.835 L502.219 127.669 L506.895 127.669 L506.895 162.229 L502.219 162.229 L502.219 145.77 L485.229 145.77 L485.229 162.229 L480.553 162.229 L480.553 127.669 Z" fill="#000000" fill-rule="nonzero" fill-opacity="1" /><path clip-path="url(#clip570)" d="M515.576 151.997 L515.576 136.303 L519.835 136.303 L519.835 151.835 Q519.835 155.516 521.27 157.368 Q522.705 159.196 525.576 159.196 Q529.025 159.196 531.015 156.997 Q533.029 154.798 533.029 151.002 L533.029 136.303 L537.289 136.303 L537.289 162.229 L533.029 162.229 L533.029 158.247 Q531.478 160.608 529.418 161.766 Q527.381 162.9 524.673 162.9 Q520.205 162.9 517.891 160.122 Q515.576 157.344 515.576 151.997 M526.293 135.678 L526.293 135.678 Z" fill="#000000" fill-rule="nonzero" fill-opacity="1" /><path clip-path="url(#clip570)" d="M564.673 149.289 Q564.673 144.59 562.728 141.928 Q560.807 139.243 557.427 139.243 Q554.048 139.243 552.103 141.928 Q550.182 144.59 550.182 149.289 Q550.182 153.988 552.103 156.673 Q554.048 159.335 557.427 159.335 Q560.807 159.335 562.728 156.673 Q564.673 153.988 564.673 149.289 M550.182 140.238 Q551.525 137.923 553.562 136.812 Q555.622 135.678 558.469 135.678 Q563.191 135.678 566.131 139.428 Q569.094 143.178 569.094 149.289 Q569.094 155.4 566.131 159.15 Q563.191 162.9 558.469 162.9 Q555.622 162.9 553.562 161.789 Q551.525 160.655 550.182 158.34 L550.182 162.229 L545.9 162.229 L545.9 126.21 L550.182 126.21 L550.182 140.238 Z" fill="#000000" fill-rule="nonzero" fill-opacity="1" /><path clip-path="url(#clip570)" d="M598.33 148.201 L598.33 150.284 L578.747 150.284 Q579.024 154.682 581.386 156.997 Q583.77 159.289 588.006 159.289 Q590.46 159.289 592.751 158.687 Q595.066 158.085 597.335 156.881 L597.335 160.909 Q595.043 161.881 592.636 162.391 Q590.228 162.9 587.751 162.9 Q581.548 162.9 577.913 159.289 Q574.302 155.678 574.302 149.52 Q574.302 143.155 577.728 139.428 Q581.177 135.678 587.011 135.678 Q592.242 135.678 595.274 139.057 Q598.33 142.414 598.33 148.201 M594.071 146.951 Q594.024 143.456 592.103 141.372 Q590.205 139.289 587.057 139.289 Q583.492 139.289 581.339 141.303 Q579.21 143.317 578.886 146.974 L594.071 146.951 Z" fill="#000000" fill-rule="nonzero" fill-opacity="1" /><path clip-path="url(#clip570)" d="M620.344 140.284 Q619.626 139.868 618.77 139.682 Q617.936 139.474 616.918 139.474 Q613.307 139.474 611.362 141.835 Q609.441 144.173 609.441 148.571 L609.441 162.229 L605.159 162.229 L605.159 136.303 L609.441 136.303 L609.441 140.331 Q610.784 137.969 612.936 136.835 Q615.089 135.678 618.168 135.678 Q618.608 135.678 619.14 135.747 Q619.672 135.794 620.321 135.909 L620.344 140.284 Z" fill="#000000" fill-rule="nonzero" fill-opacity="1" /><polyline clip-path="url(#clip570)" style="stroke:#e26f46; stroke-linecap:round; stroke-linejoin:round; stroke-width:4; stroke-opacity:1; fill:none" points="314.661,196.789 456.854,196.789 "/>
<path clip-path="url(#clip570)" d="M480.553 179.509 L485.229 179.509 L485.229 210.133 L502.057 210.133 L502.057 214.069 L480.553 214.069 L480.553 179.509 Z" fill="#000000" fill-rule="nonzero" fill-opacity="1" /><path clip-path="url(#clip570)" d="M528.122 200.041 L528.122 202.124 L508.539 202.124 Q508.817 206.522 511.178 208.837 Q513.562 211.129 517.798 211.129 Q520.252 211.129 522.543 210.527 Q524.858 209.925 527.127 208.721 L527.127 212.749 Q524.835 213.721 522.428 214.231 Q520.02 214.74 517.543 214.74 Q511.34 214.74 507.705 211.129 Q504.094 207.518 504.094 201.36 Q504.094 194.995 507.52 191.268 Q510.969 187.518 516.803 187.518 Q522.034 187.518 525.066 190.897 Q528.122 194.254 528.122 200.041 M523.863 198.791 Q523.816 195.296 521.895 193.212 Q519.997 191.129 516.849 191.129 Q513.284 191.129 511.131 193.143 Q509.002 195.157 508.678 198.814 L523.863 198.791 Z" fill="#000000" fill-rule="nonzero" fill-opacity="1" /><path clip-path="url(#clip570)" d="M546.895 201.036 Q541.733 201.036 539.742 202.217 Q537.752 203.397 537.752 206.245 Q537.752 208.513 539.233 209.856 Q540.738 211.175 543.307 211.175 Q546.849 211.175 548.978 208.675 Q551.131 206.152 551.131 201.985 L551.131 201.036 L546.895 201.036 M555.39 199.277 L555.39 214.069 L551.131 214.069 L551.131 210.133 Q549.673 212.495 547.497 213.629 Q545.321 214.74 542.173 214.74 Q538.191 214.74 535.83 212.518 Q533.492 210.272 533.492 206.522 Q533.492 202.147 536.409 199.925 Q539.349 197.703 545.159 197.703 L551.131 197.703 L551.131 197.286 Q551.131 194.347 549.187 192.749 Q547.265 191.129 543.77 191.129 Q541.548 191.129 539.441 191.661 Q537.335 192.194 535.39 193.259 L535.39 189.323 Q537.728 188.421 539.927 187.981 Q542.127 187.518 544.21 187.518 Q549.835 187.518 552.613 190.434 Q555.39 193.351 555.39 199.277 Z" fill="#000000" fill-rule="nonzero" fill-opacity="1" /><path clip-path="url(#clip570)" d="M580.691 188.907 L580.691 192.934 Q578.886 192.009 576.941 191.546 Q574.997 191.083 572.913 191.083 Q569.742 191.083 568.145 192.055 Q566.571 193.027 566.571 194.971 Q566.571 196.453 567.705 197.309 Q568.839 198.143 572.265 198.907 L573.724 199.231 Q578.261 200.203 580.159 201.985 Q582.08 203.745 582.08 206.916 Q582.08 210.527 579.21 212.633 Q576.362 214.74 571.362 214.74 Q569.279 214.74 567.011 214.323 Q564.765 213.93 562.265 213.12 L562.265 208.721 Q564.626 209.948 566.918 210.573 Q569.21 211.175 571.455 211.175 Q574.464 211.175 576.085 210.157 Q577.705 209.115 577.705 207.24 Q577.705 205.504 576.524 204.578 Q575.367 203.652 571.409 202.796 L569.927 202.448 Q565.969 201.615 564.21 199.902 Q562.45 198.166 562.45 195.157 Q562.45 191.499 565.043 189.509 Q567.636 187.518 572.404 187.518 Q574.765 187.518 576.849 187.865 Q578.932 188.212 580.691 188.907 Z" fill="#000000" fill-rule="nonzero" fill-opacity="1" /><path clip-path="url(#clip570)" d="M593.075 180.782 L593.075 188.143 L601.848 188.143 L601.848 191.453 L593.075 191.453 L593.075 205.527 Q593.075 208.698 593.932 209.601 Q594.811 210.504 597.473 210.504 L601.848 210.504 L601.848 214.069 L597.473 214.069 Q592.543 214.069 590.668 212.24 Q588.793 210.388 588.793 205.527 L588.793 191.453 L585.668 191.453 L585.668 188.143 L588.793 188.143 L588.793 180.782 L593.075 180.782 Z" fill="#000000" fill-rule="nonzero" fill-opacity="1" /><path clip-path="url(#clip570)" d="M639.047 188.907 L639.047 192.934 Q637.242 192.009 635.297 191.546 Q633.353 191.083 631.27 191.083 Q628.098 191.083 626.501 192.055 Q624.927 193.027 624.927 194.971 Q624.927 196.453 626.061 197.309 Q627.196 198.143 630.621 198.907 L632.08 199.231 Q636.617 200.203 638.515 201.985 Q640.436 203.745 640.436 206.916 Q640.436 210.527 637.566 212.633 Q634.719 214.74 629.719 214.74 Q627.635 214.74 625.367 214.323 Q623.121 213.93 620.621 213.12 L620.621 208.721 Q622.983 209.948 625.274 210.573 Q627.566 211.175 629.811 211.175 Q632.82 211.175 634.441 210.157 Q636.061 209.115 636.061 207.24 Q636.061 205.504 634.881 204.578 Q633.723 203.652 629.765 202.796 L628.283 202.448 Q624.325 201.615 622.566 199.902 Q620.807 198.166 620.807 195.157 Q620.807 191.499 623.399 189.509 Q625.992 187.518 630.76 187.518 Q633.121 187.518 635.205 187.865 Q637.288 188.212 639.047 188.907 Z" fill="#000000" fill-rule="nonzero" fill-opacity="1" /><path clip-path="url(#clip570)" d="M649.765 201.129 Q649.765 205.828 651.686 208.513 Q653.631 211.175 657.01 211.175 Q660.39 211.175 662.334 208.513 Q664.279 205.828 664.279 201.129 Q664.279 196.43 662.334 193.768 Q660.39 191.083 657.01 191.083 Q653.631 191.083 651.686 193.768 Q649.765 196.43 649.765 201.129 M664.279 210.18 Q662.936 212.495 660.876 213.629 Q658.839 214.74 655.969 214.74 Q651.269 214.74 648.307 210.99 Q645.367 207.24 645.367 201.129 Q645.367 195.018 648.307 191.268 Q651.269 187.518 655.969 187.518 Q658.839 187.518 660.876 188.652 Q662.936 189.763 664.279 192.078 L664.279 188.143 L668.538 188.143 L668.538 223.93 L664.279 223.93 L664.279 210.18 Z" fill="#000000" fill-rule="nonzero" fill-opacity="1" /><path clip-path="url(#clip570)" d="M676.871 203.837 L676.871 188.143 L681.13 188.143 L681.13 203.675 Q681.13 207.356 682.566 209.208 Q684.001 211.036 686.871 211.036 Q690.32 211.036 692.311 208.837 Q694.325 206.638 694.325 202.842 L694.325 188.143 L698.584 188.143 L698.584 214.069 L694.325 214.069 L694.325 210.087 Q692.774 212.448 690.714 213.606 Q688.677 214.74 685.968 214.74 Q681.501 214.74 679.186 211.962 Q676.871 209.184 676.871 203.837 M687.589 187.518 L687.589 187.518 Z" fill="#000000" fill-rule="nonzero" fill-opacity="1" /><path clip-path="url(#clip570)" d="M719.139 201.036 Q713.977 201.036 711.987 202.217 Q709.996 203.397 709.996 206.245 Q709.996 208.513 711.477 209.856 Q712.982 211.175 715.552 211.175 Q719.093 211.175 721.223 208.675 Q723.376 206.152 723.376 201.985 L723.376 201.036 L719.139 201.036 M727.635 199.277 L727.635 214.069 L723.376 214.069 L723.376 210.133 Q721.917 212.495 719.741 213.629 Q717.565 214.74 714.417 214.74 Q710.436 214.74 708.075 212.518 Q705.737 210.272 705.737 206.522 Q705.737 202.147 708.653 199.925 Q711.593 197.703 717.403 197.703 L723.376 197.703 L723.376 197.286 Q723.376 194.347 721.431 192.749 Q719.51 191.129 716.014 191.129 Q713.792 191.129 711.686 191.661 Q709.579 192.194 707.635 193.259 L707.635 189.323 Q709.973 188.421 712.172 187.981 Q714.371 187.518 716.454 187.518 Q722.079 187.518 724.857 190.434 Q727.635 193.351 727.635 199.277 Z" fill="#000000" fill-rule="nonzero" fill-opacity="1" /><path clip-path="url(#clip570)" d="M751.431 192.124 Q750.713 191.708 749.857 191.522 Q749.024 191.314 748.005 191.314 Q744.394 191.314 742.45 193.675 Q740.528 196.013 740.528 200.411 L740.528 214.069 L736.246 214.069 L736.246 188.143 L740.528 188.143 L740.528 192.171 Q741.871 189.809 744.024 188.675 Q746.176 187.518 749.255 187.518 Q749.695 187.518 750.227 187.587 Q750.76 187.634 751.408 187.749 L751.431 192.124 Z" fill="#000000" fill-rule="nonzero" fill-opacity="1" /><path clip-path="url(#clip570)" d="M777.033 200.041 L777.033 202.124 L757.449 202.124 Q757.727 206.522 760.088 208.837 Q762.473 211.129 766.709 211.129 Q769.162 211.129 771.454 210.527 Q773.769 209.925 776.037 208.721 L776.037 212.749 Q773.746 213.721 771.338 214.231 Q768.931 214.74 766.454 214.74 Q760.25 214.74 756.616 211.129 Q753.005 207.518 753.005 201.36 Q753.005 194.995 756.431 191.268 Q759.88 187.518 765.713 187.518 Q770.945 187.518 773.977 190.897 Q777.033 194.254 777.033 200.041 M772.773 198.791 Q772.727 195.296 770.806 193.212 Q768.908 191.129 765.76 191.129 Q762.195 191.129 760.042 193.143 Q757.912 195.157 757.588 198.814 L772.773 198.791 Z" fill="#000000" fill-rule="nonzero" fill-opacity="1" /><path clip-path="url(#clip570)" d="M800.551 188.907 L800.551 192.934 Q798.746 192.009 796.801 191.546 Q794.857 191.083 792.773 191.083 Q789.602 191.083 788.005 192.055 Q786.431 193.027 786.431 194.971 Q786.431 196.453 787.565 197.309 Q788.699 198.143 792.125 198.907 L793.584 199.231 Q798.121 200.203 800.019 201.985 Q801.94 203.745 801.94 206.916 Q801.94 210.527 799.07 212.633 Q796.222 214.74 791.222 214.74 Q789.139 214.74 786.871 214.323 Q784.625 213.93 782.125 213.12 L782.125 208.721 Q784.486 209.948 786.778 210.573 Q789.07 211.175 791.315 211.175 Q794.324 211.175 795.945 210.157 Q797.565 209.115 797.565 207.24 Q797.565 205.504 796.384 204.578 Q795.227 203.652 791.269 202.796 L789.787 202.448 Q785.829 201.615 784.07 199.902 Q782.31 198.166 782.31 195.157 Q782.31 191.499 784.903 189.509 Q787.496 187.518 792.264 187.518 Q794.625 187.518 796.708 187.865 Q798.792 188.212 800.551 188.907 Z" fill="#000000" fill-rule="nonzero" fill-opacity="1" /><polyline clip-path="url(#clip570)" style="stroke:#3da44d; stroke-linecap:round; stroke-linejoin:round; stroke-width:4; stroke-opacity:1; fill:none" points="314.661,248.629 456.854,248.629 "/>
<path clip-path="url(#clip570)" d="M485.229 235.191 L485.229 248.177 L491.108 248.177 Q494.372 248.177 496.155 246.487 Q497.937 244.798 497.937 241.673 Q497.937 238.571 496.155 236.881 Q494.372 235.191 491.108 235.191 L485.229 235.191 M480.553 231.349 L491.108 231.349 Q496.918 231.349 499.881 233.987 Q502.867 236.603 502.867 241.673 Q502.867 246.788 499.881 249.404 Q496.918 252.02 491.108 252.02 L485.229 252.02 L485.229 265.909 L480.553 265.909 L480.553 231.349 Z" fill="#000000" fill-rule="nonzero" fill-opacity="1" /><path clip-path="url(#clip570)" d="M523.145 243.964 Q522.428 243.548 521.571 243.362 Q520.738 243.154 519.719 243.154 Q516.108 243.154 514.164 245.515 Q512.242 247.853 512.242 252.251 L512.242 265.909 L507.96 265.909 L507.96 239.983 L512.242 239.983 L512.242 244.011 Q513.585 241.649 515.738 240.515 Q517.891 239.358 520.969 239.358 Q521.409 239.358 521.941 239.427 Q522.474 239.474 523.122 239.589 L523.145 243.964 Z" fill="#000000" fill-rule="nonzero" fill-opacity="1" /><path clip-path="url(#clip570)" d="M548.747 251.881 L548.747 253.964 L529.164 253.964 Q529.441 258.362 531.803 260.677 Q534.187 262.969 538.423 262.969 Q540.877 262.969 543.168 262.367 Q545.483 261.765 547.751 260.561 L547.751 264.589 Q545.46 265.561 543.052 266.071 Q540.645 266.58 538.168 266.58 Q531.965 266.58 528.33 262.969 Q524.719 259.358 524.719 253.2 Q524.719 246.835 528.145 243.108 Q531.594 239.358 537.427 239.358 Q542.659 239.358 545.691 242.737 Q548.747 246.094 548.747 251.881 M544.488 250.631 Q544.441 247.136 542.52 245.052 Q540.622 242.969 537.474 242.969 Q533.909 242.969 531.756 244.983 Q529.627 246.997 529.303 250.654 L544.488 250.631 Z" fill="#000000" fill-rule="nonzero" fill-opacity="1" /><path clip-path="url(#clip570)" d="M572.265 240.747 L572.265 244.774 Q570.46 243.849 568.515 243.386 Q566.571 242.923 564.488 242.923 Q561.316 242.923 559.719 243.895 Q558.145 244.867 558.145 246.811 Q558.145 248.293 559.279 249.149 Q560.413 249.983 563.839 250.747 L565.298 251.071 Q569.835 252.043 571.733 253.825 Q573.654 255.585 573.654 258.756 Q573.654 262.367 570.784 264.473 Q567.937 266.58 562.937 266.58 Q560.853 266.58 558.585 266.163 Q556.339 265.77 553.839 264.96 L553.839 260.561 Q556.201 261.788 558.492 262.413 Q560.784 263.015 563.029 263.015 Q566.038 263.015 567.659 261.997 Q569.279 260.955 569.279 259.08 Q569.279 257.344 568.099 256.418 Q566.941 255.492 562.983 254.636 L561.501 254.288 Q557.543 253.455 555.784 251.742 Q554.025 250.006 554.025 246.997 Q554.025 243.339 556.617 241.349 Q559.21 239.358 563.978 239.358 Q566.339 239.358 568.423 239.705 Q570.506 240.052 572.265 240.747 Z" fill="#000000" fill-rule="nonzero" fill-opacity="1" /><path clip-path="url(#clip570)" d="M599.094 240.978 L599.094 244.96 Q597.288 243.964 595.46 243.478 Q593.654 242.969 591.802 242.969 Q587.659 242.969 585.367 245.608 Q583.075 248.224 583.075 252.969 Q583.075 257.714 585.367 260.353 Q587.659 262.969 591.802 262.969 Q593.654 262.969 595.46 262.483 Q597.288 261.973 599.094 260.978 L599.094 264.913 Q597.311 265.747 595.39 266.163 Q593.492 266.58 591.339 266.58 Q585.483 266.58 582.034 262.899 Q578.585 259.219 578.585 252.969 Q578.585 246.626 582.057 242.992 Q585.552 239.358 591.617 239.358 Q593.585 239.358 595.46 239.775 Q597.335 240.168 599.094 240.978 Z" fill="#000000" fill-rule="nonzero" fill-opacity="1" /><path clip-path="url(#clip570)" d="M606.501 239.983 L610.76 239.983 L610.76 265.909 L606.501 265.909 L606.501 239.983 M606.501 229.89 L610.76 229.89 L610.76 235.284 L606.501 235.284 L606.501 229.89 Z" fill="#000000" fill-rule="nonzero" fill-opacity="1" /><path clip-path="url(#clip570)" d="M641.848 251.881 L641.848 253.964 L622.265 253.964 Q622.543 258.362 624.904 260.677 Q627.288 262.969 631.524 262.969 Q633.978 262.969 636.27 262.367 Q638.584 261.765 640.853 260.561 L640.853 264.589 Q638.561 265.561 636.154 266.071 Q633.746 266.58 631.27 266.58 Q625.066 266.58 621.432 262.969 Q617.821 259.358 617.821 253.2 Q617.821 246.835 621.246 243.108 Q624.696 239.358 630.529 239.358 Q635.76 239.358 638.793 242.737 Q641.848 246.094 641.848 251.881 M637.589 250.631 Q637.543 247.136 635.621 245.052 Q633.723 242.969 630.575 242.969 Q627.01 242.969 624.858 244.983 Q622.728 246.997 622.404 250.654 L637.589 250.631 Z" fill="#000000" fill-rule="nonzero" fill-opacity="1" /><path clip-path="url(#clip570)" d="M670.39 250.261 L670.39 265.909 L666.13 265.909 L666.13 250.399 Q666.13 246.719 664.695 244.89 Q663.26 243.062 660.39 243.062 Q656.941 243.062 654.95 245.261 Q652.959 247.46 652.959 251.256 L652.959 265.909 L648.677 265.909 L648.677 239.983 L652.959 239.983 L652.959 244.011 Q654.487 241.673 656.547 240.515 Q658.631 239.358 661.339 239.358 Q665.806 239.358 668.098 242.136 Q670.39 244.89 670.39 250.261 Z" fill="#000000" fill-rule="nonzero" fill-opacity="1" /><path clip-path="url(#clip570)" d="M683.098 232.622 L683.098 239.983 L691.871 239.983 L691.871 243.293 L683.098 243.293 L683.098 257.367 Q683.098 260.538 683.954 261.441 Q684.834 262.344 687.496 262.344 L691.871 262.344 L691.871 265.909 L687.496 265.909 Q682.566 265.909 680.691 264.08 Q678.816 262.228 678.816 257.367 L678.816 243.293 L675.691 243.293 L675.691 239.983 L678.816 239.983 L678.816 232.622 L683.098 232.622 Z" fill="#000000" fill-rule="nonzero" fill-opacity="1" /></svg>
