<?xml version="1.0" encoding="utf-8"?>
<svg xmlns="http://www.w3.org/2000/svg" xmlns:xlink="http://www.w3.org/1999/xlink" width="600" height="400" viewBox="0 0 2400 1600">
<defs>
  <clipPath id="clip920">
    <rect x="0" y="0" width="2400" height="1600"/>
  </clipPath>
</defs>
<path clip-path="url(#clip920)" d="M0 1600 L2400 1600 L2400 0 L0 0  Z" fill="#ffffff" fill-rule="evenodd" fill-opacity="1"/>
<defs>
  <clipPath id="clip921">
    <rect x="480" y="0" width="1681" height="1600"/>
  </clipPath>
</defs>
<path clip-path="url(#clip920)" d="M210.977 1423.18 L2352.76 1423.18 L2352.76 47.2441 L210.977 47.2441  Z" fill="#ffffff" fill-rule="evenodd" fill-opacity="1"/>
<defs>
  <clipPath id="clip922">
    <rect x="210" y="47" width="2143" height="1377"/>
  </clipPath>
</defs>
<polyline clip-path="url(#clip922)" style="stroke:#000000; stroke-linecap:round; stroke-linejoin:round; stroke-width:2; stroke-opacity:0.1; fill:none" points="251.184,1423.18 251.184,47.2441 "/>
<polyline clip-path="url(#clip922)" style="stroke:#000000; stroke-linecap:round; stroke-linejoin:round; stroke-width:2; stroke-opacity:0.1; fill:none" points="761.423,1423.18 761.423,47.2441 "/>
<polyline clip-path="url(#clip922)" style="stroke:#000000; stroke-linecap:round; stroke-linejoin:round; stroke-width:2; stroke-opacity:0.1; fill:none" points="1271.66,1423.18 1271.66,47.2441 "/>
<polyline clip-path="url(#clip922)" style="stroke:#000000; stroke-linecap:round; stroke-linejoin:round; stroke-width:2; stroke-opacity:0.1; fill:none" points="1781.9,1423.18 1781.9,47.2441 "/>
<polyline clip-path="url(#clip922)" style="stroke:#000000; stroke-linecap:round; stroke-linejoin:round; stroke-width:2; stroke-opacity:0.1; fill:none" points="2292.14,1423.18 2292.14,47.2441 "/>
<polyline clip-path="url(#clip920)" style="stroke:#000000; stroke-linecap:round; stroke-linejoin:round; stroke-width:4; stroke-opacity:1; fill:none" points="210.977,1423.18 2352.76,1423.18 "/>
<polyline clip-path="url(#clip920)" style="stroke:#000000; stroke-linecap:round; stroke-linejoin:round; stroke-width:4; stroke-opacity:1; fill:none" points="251.184,1423.18 251.184,1404.28 "/>
<polyline clip-path="url(#clip920)" style="stroke:#000000; stroke-linecap:round; stroke-linejoin:round; stroke-width:4; stroke-opacity:1; fill:none" points="761.423,1423.18 761.423,1404.28 "/>
<polyline clip-path="url(#clip920)" style="stroke:#000000; stroke-linecap:round; stroke-linejoin:round; stroke-width:4; stroke-opacity:1; fill:none" points="1271.66,1423.18 1271.66,1404.28 "/>
<polyline clip-path="url(#clip920)" style="stroke:#000000; stroke-linecap:round; stroke-linejoin:round; stroke-width:4; stroke-opacity:1; fill:none" points="1781.9,1423.18 1781.9,1404.28 "/>
<polyline clip-path="url(#clip920)" style="stroke:#000000; stroke-linecap:round; stroke-linejoin:round; stroke-width:4; stroke-opacity:1; fill:none" points="2292.14,1423.18 2292.14,1404.28 "/>
<path clip-path="url(#clip920)" d="M251.184 1454.1 Q247.573 1454.1 245.744 1457.66 Q243.939 1461.2 243.939 1468.33 Q243.939 1475.44 245.744 1479.01 Q247.573 1482.55 251.184 1482.55 Q254.818 1482.55 256.624 1479.01 Q258.453 1475.44 258.453 1468.33 Q258.453 1461.2 256.624 1457.66 Q254.818 1454.1 251.184 1454.1 M251.184 1450.39 Q256.994 1450.39 260.05 1455 Q263.129 1459.58 263.129 1468.33 Q263.129 1477.06 260.05 1481.67 Q256.994 1486.25 251.184 1486.25 Q245.374 1486.25 242.295 1481.67 Q239.24 1477.06 239.24 1468.33 Q239.24 1459.58 242.295 1455 Q245.374 1450.39 251.184 1450.39 Z" fill="#000000" fill-rule="nonzero" fill-opacity="1" /><path clip-path="url(#clip920)" d="M740.694 1481.64 L757.013 1481.64 L757.013 1485.58 L735.069 1485.58 L735.069 1481.64 Q737.731 1478.89 742.314 1474.26 Q746.921 1469.61 748.101 1468.27 Q750.347 1465.74 751.226 1464.01 Q752.129 1462.25 752.129 1460.56 Q752.129 1457.8 750.185 1456.07 Q748.263 1454.33 745.162 1454.33 Q742.963 1454.33 740.509 1455.09 Q738.078 1455.86 735.301 1457.41 L735.301 1452.69 Q738.125 1451.55 740.578 1450.97 Q743.032 1450.39 745.069 1450.39 Q750.439 1450.39 753.634 1453.08 Q756.828 1455.77 756.828 1460.26 Q756.828 1462.39 756.018 1464.31 Q755.231 1466.2 753.124 1468.8 Q752.546 1469.47 749.444 1472.69 Q746.342 1475.88 740.694 1481.64 Z" fill="#000000" fill-rule="nonzero" fill-opacity="1" /><path clip-path="url(#clip920)" d="M766.874 1451.02 L785.231 1451.02 L785.231 1454.96 L771.157 1454.96 L771.157 1463.43 Q772.175 1463.08 773.194 1462.92 Q774.212 1462.73 775.231 1462.73 Q781.018 1462.73 784.397 1465.9 Q787.777 1469.08 787.777 1474.49 Q787.777 1480.07 784.305 1483.17 Q780.833 1486.25 774.513 1486.25 Q772.337 1486.25 770.069 1485.88 Q767.823 1485.51 765.416 1484.77 L765.416 1480.07 Q767.499 1481.2 769.722 1481.76 Q771.944 1482.32 774.421 1482.32 Q778.425 1482.32 780.763 1480.21 Q783.101 1478.1 783.101 1474.49 Q783.101 1470.88 780.763 1468.77 Q778.425 1466.67 774.421 1466.67 Q772.546 1466.67 770.671 1467.08 Q768.819 1467.5 766.874 1468.38 L766.874 1451.02 Z" fill="#000000" fill-rule="nonzero" fill-opacity="1" /><path clip-path="url(#clip920)" d="M1246.36 1451.02 L1264.72 1451.02 L1264.72 1454.96 L1250.64 1454.96 L1250.64 1463.43 Q1251.66 1463.08 1252.68 1462.92 Q1253.7 1462.73 1254.72 1462.73 Q1260.5 1462.73 1263.88 1465.9 Q1267.26 1469.08 1267.26 1474.49 Q1267.26 1480.07 1263.79 1483.17 Q1260.32 1486.25 1254 1486.25 Q1251.82 1486.25 1249.56 1485.88 Q1247.31 1485.51 1244.9 1484.77 L1244.9 1480.07 Q1246.99 1481.2 1249.21 1481.76 Q1251.43 1482.32 1253.91 1482.32 Q1257.91 1482.32 1260.25 1480.21 Q1262.59 1478.1 1262.59 1474.49 Q1262.59 1470.88 1260.25 1468.77 Q1257.91 1466.67 1253.91 1466.67 Q1252.03 1466.67 1250.16 1467.08 Q1248.31 1467.5 1246.36 1468.38 L1246.36 1451.02 Z" fill="#000000" fill-rule="nonzero" fill-opacity="1" /><path clip-path="url(#clip920)" d="M1286.48 1454.1 Q1282.87 1454.1 1281.04 1457.66 Q1279.23 1461.2 1279.23 1468.33 Q1279.23 1475.44 1281.04 1479.01 Q1282.87 1482.55 1286.48 1482.55 Q1290.11 1482.55 1291.92 1479.01 Q1293.75 1475.44 1293.75 1468.33 Q1293.75 1461.2 1291.92 1457.66 Q1290.11 1454.1 1286.48 1454.1 M1286.48 1450.39 Q1292.29 1450.39 1295.34 1455 Q1298.42 1459.58 1298.42 1468.33 Q1298.42 1477.06 1295.34 1481.67 Q1292.29 1486.25 1286.48 1486.25 Q1280.67 1486.25 1277.59 1481.67 Q1274.53 1477.06 1274.53 1468.33 Q1274.53 1459.58 1277.59 1455 Q1280.67 1450.39 1286.48 1450.39 Z" fill="#000000" fill-rule="nonzero" fill-opacity="1" /><path clip-path="url(#clip920)" d="M1755.76 1451.02 L1777.98 1451.02 L1777.98 1453.01 L1765.43 1485.58 L1760.55 1485.58 L1772.35 1454.96 L1755.76 1454.96 L1755.76 1451.02 Z" fill="#000000" fill-rule="nonzero" fill-opacity="1" /><path clip-path="url(#clip920)" d="M1787.14 1451.02 L1805.5 1451.02 L1805.5 1454.96 L1791.43 1454.96 L1791.43 1463.43 Q1792.44 1463.08 1793.46 1462.92 Q1794.48 1462.73 1795.5 1462.73 Q1801.29 1462.73 1804.67 1465.9 Q1808.05 1469.08 1808.05 1474.49 Q1808.05 1480.07 1804.57 1483.17 Q1801.1 1486.25 1794.78 1486.25 Q1792.61 1486.25 1790.34 1485.88 Q1788.09 1485.51 1785.69 1484.77 L1785.69 1480.07 Q1787.77 1481.2 1789.99 1481.76 Q1792.21 1482.32 1794.69 1482.32 Q1798.69 1482.32 1801.03 1480.21 Q1803.37 1478.1 1803.37 1474.49 Q1803.37 1470.88 1801.03 1468.77 Q1798.69 1466.67 1794.69 1466.67 Q1792.82 1466.67 1790.94 1467.08 Q1789.09 1467.5 1787.14 1468.38 L1787.14 1451.02 Z" fill="#000000" fill-rule="nonzero" fill-opacity="1" /><path clip-path="url(#clip920)" d="M2251.75 1481.64 L2259.39 1481.64 L2259.39 1455.28 L2251.07 1456.95 L2251.07 1452.69 L2259.34 1451.02 L2264.01 1451.02 L2264.01 1481.64 L2271.65 1481.64 L2271.65 1485.58 L2251.75 1485.58 L2251.75 1481.64 Z" fill="#000000" fill-rule="nonzero" fill-opacity="1" /><path clip-path="url(#clip920)" d="M2291.1 1454.1 Q2287.49 1454.1 2285.66 1457.66 Q2283.85 1461.2 2283.85 1468.33 Q2283.85 1475.44 2285.66 1479.01 Q2287.49 1482.55 2291.1 1482.55 Q2294.73 1482.55 2296.54 1479.01 Q2298.37 1475.44 2298.37 1468.33 Q2298.37 1461.2 2296.54 1457.66 Q2294.73 1454.1 2291.1 1454.1 M2291.1 1450.39 Q2296.91 1450.39 2299.96 1455 Q2303.04 1459.58 2303.04 1468.33 Q2303.04 1477.06 2299.96 1481.67 Q2296.91 1486.25 2291.1 1486.25 Q2285.29 1486.25 2282.21 1481.67 Q2279.15 1477.06 2279.15 1468.33 Q2279.15 1459.58 2282.21 1455 Q2285.29 1450.39 2291.1 1450.39 Z" fill="#000000" fill-rule="nonzero" fill-opacity="1" /><path clip-path="url(#clip920)" d="M2321.26 1454.1 Q2317.65 1454.1 2315.82 1457.66 Q2314.01 1461.2 2314.01 1468.33 Q2314.01 1475.44 2315.82 1479.01 Q2317.65 1482.55 2321.26 1482.55 Q2324.89 1482.55 2326.7 1479.01 Q2328.53 1475.44 2328.53 1468.33 Q2328.53 1461.2 2326.7 1457.66 Q2324.89 1454.1 2321.26 1454.1 M2321.26 1450.39 Q2327.07 1450.39 2330.13 1455 Q2333.2 1459.58 2333.2 1468.33 Q2333.2 1477.06 2330.13 1481.67 Q2327.07 1486.25 2321.26 1486.25 Q2315.45 1486.25 2312.37 1481.67 Q2309.32 1477.06 2309.32 1468.33 Q2309.32 1459.58 2312.37 1455 Q2315.45 1450.39 2321.26 1450.39 Z" fill="#000000" fill-rule="nonzero" fill-opacity="1" /><path clip-path="url(#clip920)" d="M1092.09 1520.52 L1132.29 1520.52 L1132.29 1525.93 L1115.42 1525.93 L1115.42 1568.04 L1108.96 1568.04 L1108.96 1525.93 L1092.09 1525.93 L1092.09 1520.52 Z" fill="#000000" fill-rule="nonzero" fill-opacity="1" /><path clip-path="url(#clip920)" d="M1136.24 1532.4 L1142.09 1532.4 L1142.09 1568.04 L1136.24 1568.04 L1136.24 1532.4 M1136.24 1518.52 L1142.09 1518.52 L1142.09 1525.93 L1136.24 1525.93 L1136.24 1518.52 Z" fill="#000000" fill-rule="nonzero" fill-opacity="1" /><path clip-path="url(#clip920)" d="M1182.1 1539.24 Q1184.3 1535.29 1187.35 1533.41 Q1190.41 1531.54 1194.55 1531.54 Q1200.12 1531.54 1203.14 1535.45 Q1206.16 1539.33 1206.16 1546.53 L1206.16 1568.04 L1200.27 1568.04 L1200.27 1546.72 Q1200.27 1541.59 1198.46 1539.11 Q1196.65 1536.63 1192.92 1536.63 Q1188.37 1536.63 1185.73 1539.65 Q1183.09 1542.68 1183.09 1547.9 L1183.09 1568.04 L1177.2 1568.04 L1177.2 1546.72 Q1177.2 1541.56 1175.38 1539.11 Q1173.57 1536.63 1169.78 1536.63 Q1165.29 1536.63 1162.65 1539.68 Q1160.01 1542.71 1160.01 1547.9 L1160.01 1568.04 L1154.12 1568.04 L1154.12 1532.4 L1160.01 1532.4 L1160.01 1537.93 Q1162.02 1534.66 1164.82 1533.1 Q1167.62 1531.54 1171.47 1531.54 Q1175.35 1531.54 1178.06 1533.51 Q1180.8 1535.48 1182.1 1539.24 Z" fill="#000000" fill-rule="nonzero" fill-opacity="1" /><path clip-path="url(#clip920)" d="M1248.34 1548.76 L1248.34 1551.62 L1221.41 1551.62 Q1221.79 1557.67 1225.04 1560.85 Q1228.32 1564 1234.14 1564 Q1237.51 1564 1240.66 1563.17 Q1243.85 1562.35 1246.97 1560.69 L1246.97 1566.23 Q1243.82 1567.57 1240.51 1568.27 Q1237.2 1568.97 1233.79 1568.97 Q1225.26 1568.97 1220.26 1564 Q1215.3 1559.04 1215.3 1550.57 Q1215.3 1541.82 1220.01 1536.69 Q1224.75 1531.54 1232.77 1531.54 Q1239.96 1531.54 1244.13 1536.18 Q1248.34 1540.8 1248.34 1548.76 M1242.48 1547.04 Q1242.42 1542.23 1239.77 1539.37 Q1237.16 1536.5 1232.83 1536.5 Q1227.93 1536.5 1224.97 1539.27 Q1222.04 1542.04 1221.6 1547.07 L1242.48 1547.04 Z" fill="#000000" fill-rule="nonzero" fill-opacity="1" /><path clip-path="url(#clip920)" d="M1292.74 1518.58 Q1288.47 1525.9 1286.4 1533.06 Q1284.33 1540.23 1284.33 1547.58 Q1284.33 1554.93 1286.4 1562.16 Q1288.5 1569.35 1292.74 1576.64 L1287.64 1576.64 Q1282.87 1569.16 1280.48 1561.93 Q1278.13 1554.71 1278.13 1547.58 Q1278.13 1540.48 1280.48 1533.29 Q1282.84 1526.09 1287.64 1518.58 L1292.74 1518.58 Z" fill="#000000" fill-rule="nonzero" fill-opacity="1" /><path clip-path="url(#clip920)" d="M1327.56 1537.81 L1327.56 1518.52 L1333.41 1518.52 L1333.41 1568.04 L1327.56 1568.04 L1327.56 1562.7 Q1325.71 1565.88 1322.88 1567.44 Q1320.08 1568.97 1316.13 1568.97 Q1309.67 1568.97 1305.59 1563.81 Q1301.55 1558.65 1301.55 1550.25 Q1301.55 1541.85 1305.59 1536.69 Q1309.67 1531.54 1316.13 1531.54 Q1320.08 1531.54 1322.88 1533.1 Q1325.71 1534.62 1327.56 1537.81 M1307.6 1550.25 Q1307.6 1556.71 1310.24 1560.4 Q1312.92 1564.07 1317.56 1564.07 Q1322.21 1564.07 1324.88 1560.4 Q1327.56 1556.71 1327.56 1550.25 Q1327.56 1543.79 1324.88 1540.13 Q1322.21 1536.44 1317.56 1536.44 Q1312.92 1536.44 1310.24 1540.13 Q1307.6 1543.79 1307.6 1550.25 Z" fill="#000000" fill-rule="nonzero" fill-opacity="1" /><path clip-path="url(#clip920)" d="M1361.68 1550.12 Q1354.58 1550.12 1351.84 1551.75 Q1349.1 1553.37 1349.1 1557.29 Q1349.1 1560.4 1351.14 1562.25 Q1353.21 1564.07 1356.74 1564.07 Q1361.61 1564.07 1364.54 1560.63 Q1367.5 1557.16 1367.5 1551.43 L1367.5 1550.12 L1361.68 1550.12 M1373.36 1547.71 L1373.36 1568.04 L1367.5 1568.04 L1367.5 1562.63 Q1365.5 1565.88 1362.5 1567.44 Q1359.51 1568.97 1355.18 1568.97 Q1349.71 1568.97 1346.46 1565.91 Q1343.25 1562.82 1343.25 1557.67 Q1343.25 1551.65 1347.26 1548.6 Q1351.3 1545.54 1359.29 1545.54 L1367.5 1545.54 L1367.5 1544.97 Q1367.5 1540.93 1364.83 1538.73 Q1362.19 1536.5 1357.38 1536.5 Q1354.32 1536.5 1351.43 1537.23 Q1348.53 1537.97 1345.86 1539.43 L1345.86 1534.02 Q1349.07 1532.78 1352.1 1532.17 Q1355.12 1531.54 1357.98 1531.54 Q1365.72 1531.54 1369.54 1535.55 Q1373.36 1539.56 1373.36 1547.71 Z" fill="#000000" fill-rule="nonzero" fill-opacity="1" /><path clip-path="url(#clip920)" d="M1400.25 1571.35 Q1397.77 1577.72 1395.41 1579.66 Q1393.06 1581.6 1389.11 1581.6 L1384.43 1581.6 L1384.43 1576.7 L1387.87 1576.7 Q1390.29 1576.7 1391.63 1575.56 Q1392.96 1574.41 1394.59 1570.14 L1395.64 1567.47 L1381.22 1532.4 L1387.43 1532.4 L1398.57 1560.28 L1409.71 1532.4 L1415.91 1532.4 L1400.25 1571.35 Z" fill="#000000" fill-rule="nonzero" fill-opacity="1" /><path clip-path="url(#clip920)" d="M1446.72 1533.45 L1446.72 1538.98 Q1444.24 1537.71 1441.57 1537.07 Q1438.89 1536.44 1436.03 1536.44 Q1431.67 1536.44 1429.47 1537.77 Q1427.31 1539.11 1427.31 1541.79 Q1427.31 1543.82 1428.87 1545 Q1430.43 1546.15 1435.14 1547.2 L1437.14 1547.64 Q1443.38 1548.98 1445.99 1551.43 Q1448.63 1553.85 1448.63 1558.21 Q1448.63 1563.17 1444.69 1566.07 Q1440.77 1568.97 1433.9 1568.97 Q1431.03 1568.97 1427.91 1568.39 Q1424.82 1567.85 1421.39 1566.74 L1421.39 1560.69 Q1424.63 1562.38 1427.78 1563.24 Q1430.94 1564.07 1434.02 1564.07 Q1438.16 1564.07 1440.39 1562.66 Q1442.62 1561.23 1442.62 1558.65 Q1442.62 1556.27 1440.99 1554.99 Q1439.4 1553.72 1433.96 1552.54 L1431.92 1552.07 Q1426.48 1550.92 1424.06 1548.56 Q1421.64 1546.18 1421.64 1542.04 Q1421.64 1537.01 1425.21 1534.27 Q1428.77 1531.54 1435.33 1531.54 Q1438.57 1531.54 1441.44 1532.01 Q1444.3 1532.49 1446.72 1533.45 Z" fill="#000000" fill-rule="nonzero" fill-opacity="1" /><path clip-path="url(#clip920)" d="M1457.03 1518.58 L1462.13 1518.58 Q1466.9 1526.09 1469.26 1533.29 Q1471.64 1540.48 1471.64 1547.58 Q1471.64 1554.71 1469.26 1561.93 Q1466.9 1569.16 1462.13 1576.64 L1457.03 1576.64 Q1461.27 1569.35 1463.34 1562.16 Q1465.44 1554.93 1465.44 1547.58 Q1465.44 1540.23 1463.34 1533.06 Q1461.27 1525.9 1457.03 1518.58 Z" fill="#000000" fill-rule="nonzero" fill-opacity="1" /><polyline clip-path="url(#clip922)" style="stroke:#000000; stroke-linecap:round; stroke-linejoin:round; stroke-width:2; stroke-opacity:0.1; fill:none" points="210.977,1291.71 2352.76,1291.71 "/>
<polyline clip-path="url(#clip922)" style="stroke:#000000; stroke-linecap:round; stroke-linejoin:round; stroke-width:2; stroke-opacity:0.1; fill:none" points="210.977,888.278 2352.76,888.278 "/>
<polyline clip-path="url(#clip922)" style="stroke:#000000; stroke-linecap:round; stroke-linejoin:round; stroke-width:2; stroke-opacity:0.1; fill:none" points="210.977,484.843 2352.76,484.843 "/>
<polyline clip-path="url(#clip922)" style="stroke:#000000; stroke-linecap:round; stroke-linejoin:round; stroke-width:2; stroke-opacity:0.1; fill:none" points="210.977,81.4076 2352.76,81.4076 "/>
<polyline clip-path="url(#clip920)" style="stroke:#000000; stroke-linecap:round; stroke-linejoin:round; stroke-width:4; stroke-opacity:1; fill:none" points="210.977,1423.18 210.977,47.2441 "/>
<polyline clip-path="url(#clip920)" style="stroke:#000000; stroke-linecap:round; stroke-linejoin:round; stroke-width:4; stroke-opacity:1; fill:none" points="210.977,1291.71 229.875,1291.71 "/>
<polyline clip-path="url(#clip920)" style="stroke:#000000; stroke-linecap:round; stroke-linejoin:round; stroke-width:4; stroke-opacity:1; fill:none" points="210.977,888.278 229.875,888.278 "/>
<polyline clip-path="url(#clip920)" style="stroke:#000000; stroke-linecap:round; stroke-linejoin:round; stroke-width:4; stroke-opacity:1; fill:none" points="210.977,484.843 229.875,484.843 "/>
<polyline clip-path="url(#clip920)" style="stroke:#000000; stroke-linecap:round; stroke-linejoin:round; stroke-width:4; stroke-opacity:1; fill:none" points="210.977,81.4076 229.875,81.4076 "/>
<path clip-path="url(#clip920)" d="M114.26 1292.16 L143.936 1292.16 L143.936 1296.1 L114.26 1296.1 L114.26 1292.16 Z" fill="#000000" fill-rule="nonzero" fill-opacity="1" /><path clip-path="url(#clip920)" d="M154.075 1274.43 L172.431 1274.43 L172.431 1278.37 L158.357 1278.37 L158.357 1286.84 Q159.376 1286.49 160.394 1286.33 Q161.413 1286.15 162.431 1286.15 Q168.218 1286.15 171.598 1289.32 Q174.977 1292.49 174.977 1297.91 Q174.977 1303.48 171.505 1306.59 Q168.033 1309.66 161.714 1309.66 Q159.538 1309.66 157.269 1309.29 Q155.024 1308.92 152.616 1308.18 L152.616 1303.48 Q154.7 1304.62 156.922 1305.17 Q159.144 1305.73 161.621 1305.73 Q165.626 1305.73 167.964 1303.62 Q170.302 1301.52 170.302 1297.91 Q170.302 1294.29 167.964 1292.19 Q165.626 1290.08 161.621 1290.08 Q159.746 1290.08 157.871 1290.5 Q156.019 1290.91 154.075 1291.79 L154.075 1274.43 Z" fill="#000000" fill-rule="nonzero" fill-opacity="1" /><path clip-path="url(#clip920)" d="M163.033 874.077 Q159.422 874.077 157.593 877.642 Q155.788 881.183 155.788 888.313 Q155.788 895.419 157.593 898.984 Q159.422 902.526 163.033 902.526 Q166.667 902.526 168.473 898.984 Q170.302 895.419 170.302 888.313 Q170.302 881.183 168.473 877.642 Q166.667 874.077 163.033 874.077 M163.033 870.373 Q168.843 870.373 171.899 874.98 Q174.977 879.563 174.977 888.313 Q174.977 897.04 171.899 901.646 Q168.843 906.229 163.033 906.229 Q157.223 906.229 154.144 901.646 Q151.089 897.04 151.089 888.313 Q151.089 879.563 154.144 874.98 Q157.223 870.373 163.033 870.373 Z" fill="#000000" fill-rule="nonzero" fill-opacity="1" /><path clip-path="url(#clip920)" d="M154.075 467.563 L172.431 467.563 L172.431 471.498 L158.357 471.498 L158.357 479.97 Q159.376 479.623 160.394 479.461 Q161.413 479.276 162.431 479.276 Q168.218 479.276 171.598 482.447 Q174.977 485.618 174.977 491.035 Q174.977 496.614 171.505 499.715 Q168.033 502.794 161.714 502.794 Q159.538 502.794 157.269 502.424 Q155.024 502.053 152.616 501.313 L152.616 496.614 Q154.7 497.748 156.922 498.303 Q159.144 498.859 161.621 498.859 Q165.626 498.859 167.964 496.752 Q170.302 494.646 170.302 491.035 Q170.302 487.424 167.964 485.317 Q165.626 483.211 161.621 483.211 Q159.746 483.211 157.871 483.628 Q156.019 484.044 154.075 484.924 L154.075 467.563 Z" fill="#000000" fill-rule="nonzero" fill-opacity="1" /><path clip-path="url(#clip920)" d="M123.681 94.7524 L131.32 94.7524 L131.32 68.3868 L123.01 70.0535 L123.01 65.7942 L131.274 64.1276 L135.95 64.1276 L135.95 94.7524 L143.589 94.7524 L143.589 98.6876 L123.681 98.6876 L123.681 94.7524 Z" fill="#000000" fill-rule="nonzero" fill-opacity="1" /><path clip-path="url(#clip920)" d="M163.033 67.2063 Q159.422 67.2063 157.593 70.7711 Q155.788 74.3127 155.788 81.4423 Q155.788 88.5487 157.593 92.1135 Q159.422 95.6552 163.033 95.6552 Q166.667 95.6552 168.473 92.1135 Q170.302 88.5487 170.302 81.4423 Q170.302 74.3127 168.473 70.7711 Q166.667 67.2063 163.033 67.2063 M163.033 63.5026 Q168.843 63.5026 171.899 68.109 Q174.977 72.6923 174.977 81.4423 Q174.977 90.1691 171.899 94.7756 Q168.843 99.3589 163.033 99.3589 Q157.223 99.3589 154.144 94.7756 Q151.089 90.1691 151.089 81.4423 Q151.089 72.6923 154.144 68.109 Q157.223 63.5026 163.033 63.5026 Z" fill="#000000" fill-rule="nonzero" fill-opacity="1" /><path clip-path="url(#clip920)" d="M41.7242 862.51 Q42.4244 860.441 44.7161 858.5 Q47.0077 856.526 51.0181 854.553 L64.0042 848.028 L64.0042 854.935 L51.8138 861.014 Q47.0395 863.37 45.48 865.598 Q43.9204 867.794 43.9204 871.613 L43.9204 878.615 L64.0042 878.615 L64.0042 885.045 L16.4842 885.045 L16.4842 870.531 Q16.4842 862.383 19.8898 858.372 Q23.2955 854.362 30.1704 854.362 Q34.6582 854.362 37.6183 856.463 Q40.5784 858.532 41.7242 862.51 M21.7677 878.615 L38.6368 878.615 L38.6368 870.531 Q38.6368 865.884 36.5043 863.529 Q34.34 861.142 30.1704 861.142 Q26.0009 861.142 23.9002 863.529 Q21.7677 865.884 21.7677 870.531 L21.7677 878.615 Z" fill="#000000" fill-rule="nonzero" fill-opacity="1" /><path clip-path="url(#clip920)" d="M44.7161 812.444 L47.5806 812.444 L47.5806 839.371 Q53.6281 838.989 56.8109 835.742 Q59.9619 832.464 59.9619 826.639 Q59.9619 823.266 59.1344 820.115 Q58.3069 816.932 56.6518 813.813 L62.1899 813.813 Q63.5267 816.964 64.227 820.274 Q64.9272 823.584 64.9272 826.99 Q64.9272 835.52 59.9619 840.517 Q54.9967 845.482 46.5303 845.482 Q37.7774 845.482 32.6531 840.771 Q27.4968 836.029 27.4968 828.008 Q27.4968 820.815 32.1438 816.645 Q36.7589 812.444 44.7161 812.444 M42.9973 818.3 Q38.1912 818.364 35.3266 821.006 Q32.4621 823.616 32.4621 827.944 Q32.4621 832.846 35.2312 835.806 Q38.0002 838.734 43.0292 839.18 L42.9973 818.3 Z" fill="#000000" fill-rule="nonzero" fill-opacity="1" /><path clip-path="url(#clip920)" d="M29.4065 780.106 L34.9447 780.106 Q33.6716 782.589 33.035 785.262 Q32.3984 787.936 32.3984 790.801 Q32.3984 795.161 33.7352 797.357 Q35.072 799.522 37.7456 799.522 Q39.7826 799.522 40.9603 797.962 Q42.1061 796.402 43.1565 791.692 L43.6021 789.687 Q44.9389 783.448 47.3897 780.838 Q49.8086 778.196 54.1691 778.196 Q59.1344 778.196 62.0308 782.143 Q64.9272 786.058 64.9272 792.933 Q64.9272 795.798 64.3543 798.917 Q63.8132 802.004 62.6992 805.442 L56.6518 805.442 Q58.3387 802.195 59.198 799.044 Q60.0256 795.893 60.0256 792.806 Q60.0256 788.668 58.6251 786.44 Q57.1929 784.212 54.6147 784.212 Q52.2276 784.212 50.9545 785.835 Q49.6813 787.427 48.5037 792.869 L48.0262 794.906 Q46.8804 800.349 44.5251 802.768 Q42.138 805.187 38.0002 805.187 Q32.9713 805.187 30.2341 801.622 Q27.4968 798.057 27.4968 791.501 Q27.4968 788.254 27.9743 785.39 Q28.4517 782.525 29.4065 780.106 Z" fill="#000000" fill-rule="nonzero" fill-opacity="1" /><path clip-path="url(#clip920)" d="M28.3562 768.871 L28.3562 763.014 L64.0042 763.014 L64.0042 768.871 L28.3562 768.871 M14.479 768.871 L14.479 763.014 L21.895 763.014 L21.895 768.871 L14.479 768.871 Z" fill="#000000" fill-rule="nonzero" fill-opacity="1" /><path clip-path="url(#clip920)" d="M33.7671 727.303 L14.479 727.303 L14.479 721.446 L64.0042 721.446 L64.0042 727.303 L58.657 727.303 Q61.8398 729.149 63.3994 731.981 Q64.9272 734.782 64.9272 738.729 Q64.9272 745.19 59.771 749.264 Q54.6147 753.306 46.212 753.306 Q37.8093 753.306 32.6531 749.264 Q27.4968 745.19 27.4968 738.729 Q27.4968 734.782 29.0564 731.981 Q30.5842 729.149 33.7671 727.303 M46.212 747.259 Q52.6732 747.259 56.3653 744.617 Q60.0256 741.944 60.0256 737.297 Q60.0256 732.65 56.3653 729.976 Q52.6732 727.303 46.212 727.303 Q39.7508 727.303 36.0905 729.976 Q32.3984 732.65 32.3984 737.297 Q32.3984 741.944 36.0905 744.617 Q39.7508 747.259 46.212 747.259 Z" fill="#000000" fill-rule="nonzero" fill-opacity="1" /><path clip-path="url(#clip920)" d="M49.9359 709.988 L28.3562 709.988 L28.3562 704.131 L49.7131 704.131 Q54.7739 704.131 57.3202 702.158 Q59.8346 700.185 59.8346 696.238 Q59.8346 691.495 56.8109 688.758 Q53.7872 685.989 48.5673 685.989 L28.3562 685.989 L28.3562 680.133 L64.0042 680.133 L64.0042 685.989 L58.5296 685.989 Q61.7762 688.122 63.3676 690.954 Q64.9272 693.755 64.9272 697.479 Q64.9272 703.622 61.1078 706.805 Q57.2883 709.988 49.9359 709.988 M27.4968 695.251 L27.4968 695.251 Z" fill="#000000" fill-rule="nonzero" fill-opacity="1" /><path clip-path="url(#clip920)" d="M46.0847 651.869 Q46.0847 658.967 47.7079 661.704 Q49.3312 664.441 53.2461 664.441 Q56.3653 664.441 58.2114 662.404 Q60.0256 660.335 60.0256 656.802 Q60.0256 651.933 56.5881 649.004 Q53.1188 646.044 47.3897 646.044 L46.0847 646.044 L46.0847 651.869 M43.6657 640.188 L64.0042 640.188 L64.0042 646.044 L58.5933 646.044 Q61.8398 648.05 63.3994 651.041 Q64.9272 654.033 64.9272 658.362 Q64.9272 663.836 61.8716 667.083 Q58.7843 670.298 53.6281 670.298 Q47.6125 670.298 44.5569 666.287 Q41.5014 662.245 41.5014 654.256 L41.5014 646.044 L40.9285 646.044 Q36.8862 646.044 34.6901 648.718 Q32.4621 651.36 32.4621 656.166 Q32.4621 659.221 33.1941 662.118 Q33.9262 665.014 35.3903 667.688 L29.9795 667.688 Q28.7381 664.473 28.1334 661.449 Q27.4968 658.426 27.4968 655.561 Q27.4968 647.827 31.5072 644.007 Q35.5176 640.188 43.6657 640.188 Z" fill="#000000" fill-rule="nonzero" fill-opacity="1" /><path clip-path="url(#clip920)" d="M14.479 628.125 L14.479 622.268 L64.0042 622.268 L64.0042 628.125 L14.479 628.125 Z" fill="#000000" fill-rule="nonzero" fill-opacity="1" /><path clip-path="url(#clip920)" d="M29.4065 587.289 L34.9447 587.289 Q33.6716 589.771 33.035 592.445 Q32.3984 595.119 32.3984 597.983 Q32.3984 602.344 33.7352 604.54 Q35.072 606.704 37.7456 606.704 Q39.7826 606.704 40.9603 605.145 Q42.1061 603.585 43.1565 598.874 L43.6021 596.869 Q44.9389 590.631 47.3897 588.021 Q49.8086 585.379 54.1691 585.379 Q59.1344 585.379 62.0308 589.326 Q64.9272 593.241 64.9272 600.116 Q64.9272 602.98 64.3543 606.1 Q63.8132 609.187 62.6992 612.624 L56.6518 612.624 Q58.3387 609.378 59.198 606.227 Q60.0256 603.076 60.0256 599.988 Q60.0256 595.851 58.6251 593.623 Q57.1929 591.395 54.6147 591.395 Q52.2276 591.395 50.9545 593.018 Q49.6813 594.609 48.5037 600.052 L48.0262 602.089 Q46.8804 607.532 44.5251 609.951 Q42.138 612.37 38.0002 612.37 Q32.9713 612.37 30.2341 608.805 Q27.4968 605.24 27.4968 598.683 Q27.4968 595.437 27.9743 592.572 Q28.4517 589.708 29.4065 587.289 Z" fill="#000000" fill-rule="nonzero" fill-opacity="1" /><polyline clip-path="url(#clip922)" style="stroke:#009af9; stroke-linecap:round; stroke-linejoin:round; stroke-width:4; stroke-opacity:1; fill:none" points="271.594,393.49 292.003,623.127 312.413,553.878 332.822,896.097 353.232,802.781 373.642,806.467 394.051,810.174 414.461,684.674 434.87,333.062 455.28,481.293 475.689,790.462 496.099,1026.67 516.508,754.115 536.918,368.003 557.328,86.1857 577.737,433.242 598.147,441.141 618.556,101.957 638.966,674.482 659.375,851.684 679.785,633.605 700.194,1125.74 720.604,940.383 741.014,811.861 761.423,772.306 781.833,595.645 802.242,539.975 822.652,718.36 843.061,856.48 863.471,889.696 883.88,866.672 904.29,876.344 924.699,595.998 945.109,348.412 965.519,512.712 985.928,782.227 1006.34,769.548 1026.75,950.562 1047.16,752.069 1067.57,117.467 1087.98,926.858 1108.39,1034.19 1128.8,1020.33 1149.2,667.219 1169.61,369.85 1190.02,361.973 1210.43,433.683 1230.84,657.845 1251.25,800.87 1271.66,838.856 1292.07,868.643 1312.48,793.443 1332.89,798.978 1353.3,966.126 1373.71,964.169 1394.12,631.813 1414.53,759.559 1434.94,709.672 1455.35,409.273 1475.76,681.195 1496.17,613.675 1516.58,739.261 1536.99,815.966 1557.4,1029.35 1577.81,943.613 1598.21,1172.15 1618.62,771.115 1639.03,781.514 1659.44,1123.07 1679.85,1086.05 1700.26,880.338 1720.67,1110.84 1741.08,1148.08 1761.49,1201.69 1781.9,1110.16 1802.31,905.534 1822.72,1144.39 1843.13,680.835 1863.54,692.747 1883.95,1381.75 1904.36,1384.24 1924.77,1313.53 1945.18,935.859 1965.59,1130.96 1986,922.789 2006.41,1110.2 2026.82,781.53 2047.22,719.38 2067.63,810.52 2088.04,699.757 2108.45,621.125 2128.86,606.979 2149.27,544.127 2169.68,569.589 2190.09,481.669 2210.5,595.162 2230.91,1120.02 2251.32,717.126 2271.73,629.1 2292.14,855.739 "/>
<path clip-path="url(#clip920)" d="M2014.76 196.789 L2281.36 196.789 L2281.36 93.1086 L2014.76 93.1086  Z" fill="#ffffff" fill-rule="evenodd" fill-opacity="1"/>
<polyline clip-path="url(#clip920)" style="stroke:#000000; stroke-linecap:round; stroke-linejoin:round; stroke-width:4; stroke-opacity:1; fill:none" points="2014.76,196.789 2281.36,196.789 2281.36,93.1086 2014.76,93.1086 2014.76,196.789 "/>
<polyline clip-path="url(#clip920)" style="stroke:#009af9; stroke-linecap:round; stroke-linejoin:round; stroke-width:4; stroke-opacity:1; fill:none" points="2038.55,144.949 2181.34,144.949 "/>
<path clip-path="url(#clip920)" d="M2218.98 164.636 Q2217.17 169.266 2215.46 170.678 Q2213.75 172.09 2210.88 172.09 L2207.47 172.09 L2207.47 168.525 L2209.97 168.525 Q2211.73 168.525 2212.7 167.692 Q2213.68 166.858 2214.86 163.756 L2215.62 161.812 L2205.14 136.303 L2209.65 136.303 L2217.75 156.581 L2225.85 136.303 L2230.37 136.303 L2218.98 164.636 Z" fill="#000000" fill-rule="nonzero" fill-opacity="1" /><path clip-path="url(#clip920)" d="M2237.66 158.293 L2245.3 158.293 L2245.3 131.928 L2236.99 133.595 L2236.99 129.335 L2245.25 127.669 L2249.93 127.669 L2249.93 158.293 L2257.57 158.293 L2257.57 162.229 L2237.66 162.229 L2237.66 158.293 Z" fill="#000000" fill-rule="nonzero" fill-opacity="1" /></svg>
