<?xml version="1.0" encoding="utf-8"?>
<svg xmlns="http://www.w3.org/2000/svg" xmlns:xlink="http://www.w3.org/1999/xlink" width="600" height="400" viewBox="0 0 2400 1600">
<defs>
  <clipPath id="clip500">
    <rect x="0" y="0" width="2400" height="1600"/>
  </clipPath>
</defs>
<path clip-path="url(#clip500)" d="M0 1600 L2400 1600 L2400 0 L0 0  Z" fill="#ffffff" fill-rule="evenodd" fill-opacity="1"/>
<defs>
  <clipPath id="clip501">
    <rect x="480" y="0" width="1681" height="1600"/>
  </clipPath>
</defs>
<path clip-path="url(#clip500)" d="M289.514 1410.9 L2352.76 1410.9 L2352.76 47.2441 L289.514 47.2441  Z" fill="#ffffff" fill-rule="evenodd" fill-opacity="1"/>
<defs>
  <clipPath id="clip502">
    <rect x="289" y="47" width="2064" height="1365"/>
  </clipPath>
</defs>
<polyline clip-path="url(#clip502)" style="stroke:#000000; stroke-linecap:round; stroke-linejoin:round; stroke-width:2; stroke-opacity:0.1; fill:none" points="347.908,1410.9 347.908,47.2441 "/>
<polyline clip-path="url(#clip502)" style="stroke:#000000; stroke-linecap:round; stroke-linejoin:round; stroke-width:2; stroke-opacity:0.1; fill:none" points="1321.14,1410.9 1321.14,47.2441 "/>
<polyline clip-path="url(#clip502)" style="stroke:#000000; stroke-linecap:round; stroke-linejoin:round; stroke-width:2; stroke-opacity:0.1; fill:none" points="2294.36,1410.9 2294.36,47.2441 "/>
<polyline clip-path="url(#clip500)" style="stroke:#000000; stroke-linecap:round; stroke-linejoin:round; stroke-width:4; stroke-opacity:1; fill:none" points="289.514,1410.9 2352.76,1410.9 "/>
<polyline clip-path="url(#clip500)" style="stroke:#000000; stroke-linecap:round; stroke-linejoin:round; stroke-width:4; stroke-opacity:1; fill:none" points="347.908,1410.9 347.908,1392 "/>
<polyline clip-path="url(#clip500)" style="stroke:#000000; stroke-linecap:round; stroke-linejoin:round; stroke-width:4; stroke-opacity:1; fill:none" points="1321.14,1410.9 1321.14,1392 "/>
<polyline clip-path="url(#clip500)" style="stroke:#000000; stroke-linecap:round; stroke-linejoin:round; stroke-width:4; stroke-opacity:1; fill:none" points="2294.36,1410.9 2294.36,1392 "/>
<path clip-path="url(#clip500)" d="M298.174 1485.02 L305.813 1485.02 L305.813 1458.66 L297.502 1460.32 L297.502 1456.06 L305.766 1454.4 L310.442 1454.4 L310.442 1485.02 L318.081 1485.02 L318.081 1488.96 L298.174 1488.96 L298.174 1485.02 Z" fill="#000000" fill-rule="nonzero" fill-opacity="1" /><path clip-path="url(#clip500)" d="M337.525 1457.48 Q333.914 1457.48 332.086 1461.04 Q330.28 1464.58 330.28 1471.71 Q330.28 1478.82 332.086 1482.38 Q333.914 1485.92 337.525 1485.92 Q341.16 1485.92 342.965 1482.38 Q344.794 1478.82 344.794 1471.71 Q344.794 1464.58 342.965 1461.04 Q341.16 1457.48 337.525 1457.48 M337.525 1453.77 Q343.336 1453.77 346.391 1458.38 Q349.47 1462.96 349.47 1471.71 Q349.47 1480.44 346.391 1485.04 Q343.336 1489.63 337.525 1489.63 Q331.715 1489.63 328.637 1485.04 Q325.581 1480.44 325.581 1471.71 Q325.581 1462.96 328.637 1458.38 Q331.715 1453.77 337.525 1453.77 Z" fill="#000000" fill-rule="nonzero" fill-opacity="1" /><path clip-path="url(#clip500)" d="M349.47 1447.87 L373.581 1447.87 L373.581 1451.07 L349.47 1451.07 L349.47 1447.87 Z" fill="#000000" fill-rule="nonzero" fill-opacity="1" /><path clip-path="url(#clip500)" d="M385.054 1458.35 L398.314 1458.35 L398.314 1461.55 L380.484 1461.55 L380.484 1458.35 Q382.647 1456.11 386.371 1452.35 Q390.113 1448.57 391.073 1447.48 Q392.897 1445.43 393.612 1444.02 Q394.345 1442.59 394.345 1441.22 Q394.345 1438.98 392.765 1437.57 Q391.204 1436.16 388.684 1436.16 Q386.897 1436.16 384.904 1436.78 Q382.929 1437.4 380.672 1438.66 L380.672 1434.82 Q382.966 1433.9 384.96 1433.43 Q386.954 1432.96 388.609 1432.96 Q392.972 1432.96 395.568 1435.14 Q398.163 1437.32 398.163 1440.97 Q398.163 1442.7 397.505 1444.26 Q396.865 1445.8 395.154 1447.91 Q394.684 1448.46 392.163 1451.07 Q389.643 1453.67 385.054 1458.35 Z" fill="#000000" fill-rule="nonzero" fill-opacity="1" /><path clip-path="url(#clip500)" d="M1271.25 1485.02 L1278.89 1485.02 L1278.89 1458.66 L1270.58 1460.32 L1270.58 1456.06 L1278.84 1454.4 L1283.52 1454.4 L1283.52 1485.02 L1291.16 1485.02 L1291.16 1488.96 L1271.25 1488.96 L1271.25 1485.02 Z" fill="#000000" fill-rule="nonzero" fill-opacity="1" /><path clip-path="url(#clip500)" d="M1310.6 1457.48 Q1306.99 1457.48 1305.16 1461.04 Q1303.36 1464.58 1303.36 1471.71 Q1303.36 1478.82 1305.16 1482.38 Q1306.99 1485.92 1310.6 1485.92 Q1314.24 1485.92 1316.04 1482.38 Q1317.87 1478.82 1317.87 1471.71 Q1317.87 1464.58 1316.04 1461.04 Q1314.24 1457.48 1310.6 1457.48 M1310.6 1453.77 Q1316.41 1453.77 1319.47 1458.38 Q1322.55 1462.96 1322.55 1471.71 Q1322.55 1480.44 1319.47 1485.04 Q1316.41 1489.63 1310.6 1489.63 Q1304.79 1489.63 1301.71 1485.04 Q1298.66 1480.44 1298.66 1471.71 Q1298.66 1462.96 1301.71 1458.38 Q1304.79 1453.77 1310.6 1453.77 Z" fill="#000000" fill-rule="nonzero" fill-opacity="1" /><path clip-path="url(#clip500)" d="M1322.55 1447.87 L1346.66 1447.87 L1346.66 1451.07 L1322.55 1451.07 L1322.55 1447.87 Z" fill="#000000" fill-rule="nonzero" fill-opacity="1" /><path clip-path="url(#clip500)" d="M1355.52 1458.35 L1361.72 1458.35 L1361.72 1436.93 L1354.97 1438.28 L1354.97 1434.82 L1361.69 1433.47 L1365.48 1433.47 L1365.48 1458.35 L1371.69 1458.35 L1371.69 1461.55 L1355.52 1461.55 L1355.52 1458.35 Z" fill="#000000" fill-rule="nonzero" fill-opacity="1" /><path clip-path="url(#clip500)" d="M2259.35 1485.02 L2266.98 1485.02 L2266.98 1458.66 L2258.67 1460.32 L2258.67 1456.06 L2266.94 1454.4 L2271.61 1454.4 L2271.61 1485.02 L2279.25 1485.02 L2279.25 1488.96 L2259.35 1488.96 L2259.35 1485.02 Z" fill="#000000" fill-rule="nonzero" fill-opacity="1" /><path clip-path="url(#clip500)" d="M2298.7 1457.48 Q2295.09 1457.48 2293.26 1461.04 Q2291.45 1464.58 2291.45 1471.71 Q2291.45 1478.82 2293.26 1482.38 Q2295.09 1485.92 2298.7 1485.92 Q2302.33 1485.92 2304.14 1482.38 Q2305.97 1478.82 2305.97 1471.71 Q2305.97 1464.58 2304.14 1461.04 Q2302.33 1457.48 2298.7 1457.48 M2298.7 1453.77 Q2304.51 1453.77 2307.56 1458.38 Q2310.64 1462.96 2310.64 1471.71 Q2310.64 1480.44 2307.56 1485.04 Q2304.51 1489.63 2298.7 1489.63 Q2292.89 1489.63 2289.81 1485.04 Q2286.75 1480.44 2286.75 1471.71 Q2286.75 1462.96 2289.81 1458.38 Q2292.89 1453.77 2298.7 1453.77 Z" fill="#000000" fill-rule="nonzero" fill-opacity="1" /><path clip-path="url(#clip500)" d="M2320.35 1435.97 Q2317.41 1435.97 2315.93 1438.86 Q2314.46 1441.74 2314.46 1447.53 Q2314.46 1453.31 2315.93 1456.2 Q2317.41 1459.08 2320.35 1459.08 Q2323.3 1459.08 2324.77 1456.2 Q2326.25 1453.31 2326.25 1447.53 Q2326.25 1441.74 2324.77 1438.86 Q2323.3 1435.97 2320.35 1435.97 M2320.35 1432.96 Q2325.07 1432.96 2327.55 1436.7 Q2330.05 1440.43 2330.05 1447.53 Q2330.05 1454.62 2327.55 1458.37 Q2325.07 1462.09 2320.35 1462.09 Q2315.63 1462.09 2313.12 1458.37 Q2310.64 1454.62 2310.64 1447.53 Q2310.64 1440.43 2313.12 1436.7 Q2315.63 1432.96 2320.35 1432.96 Z" fill="#000000" fill-rule="nonzero" fill-opacity="1" /><path clip-path="url(#clip500)" d="M1205.04 1524.66 L1210.9 1524.66 L1210.9 1574.19 L1205.04 1574.19 L1205.04 1524.66 Z" fill="#000000" fill-rule="nonzero" fill-opacity="1" /><path clip-path="url(#clip500)" d="M1239.35 1556.27 Q1232.25 1556.27 1229.52 1557.89 Q1226.78 1559.51 1226.78 1563.43 Q1226.78 1566.55 1228.82 1568.39 Q1230.89 1570.21 1234.42 1570.21 Q1239.29 1570.21 1242.22 1566.77 Q1245.18 1563.3 1245.18 1557.57 L1245.18 1556.27 L1239.35 1556.27 M1251.03 1553.85 L1251.03 1574.19 L1245.18 1574.19 L1245.18 1568.77 Q1243.17 1572.02 1240.18 1573.58 Q1237.19 1575.11 1232.86 1575.11 Q1227.38 1575.11 1224.14 1572.05 Q1220.92 1568.97 1220.92 1563.81 Q1220.92 1557.79 1224.93 1554.74 Q1228.98 1551.68 1236.96 1551.68 L1245.18 1551.68 L1245.18 1551.11 Q1245.18 1547.07 1242.5 1544.87 Q1239.86 1542.64 1235.05 1542.64 Q1232 1542.64 1229.1 1543.38 Q1226.21 1544.11 1223.53 1545.57 L1223.53 1540.16 Q1226.75 1538.92 1229.77 1538.31 Q1232.8 1537.68 1235.66 1537.68 Q1243.39 1537.68 1247.21 1541.69 Q1251.03 1545.7 1251.03 1553.85 Z" fill="#000000" fill-rule="nonzero" fill-opacity="1" /><path clip-path="url(#clip500)" d="M1290.85 1545.38 Q1293.05 1541.43 1296.1 1539.56 Q1299.16 1537.68 1303.3 1537.68 Q1308.87 1537.68 1311.89 1541.59 Q1314.91 1545.48 1314.91 1552.67 L1314.91 1574.19 L1309.02 1574.19 L1309.02 1552.86 Q1309.02 1547.74 1307.21 1545.25 Q1305.4 1542.77 1301.67 1542.77 Q1297.12 1542.77 1294.48 1545.79 Q1291.84 1548.82 1291.84 1554.04 L1291.84 1574.19 L1285.95 1574.19 L1285.95 1552.86 Q1285.95 1547.7 1284.13 1545.25 Q1282.32 1542.77 1278.53 1542.77 Q1274.04 1542.77 1271.4 1545.83 Q1268.76 1548.85 1268.76 1554.04 L1268.76 1574.19 L1262.87 1574.19 L1262.87 1538.54 L1268.76 1538.54 L1268.76 1544.08 Q1270.77 1540.8 1273.57 1539.24 Q1276.37 1537.68 1280.22 1537.68 Q1284.1 1537.68 1286.81 1539.65 Q1289.55 1541.62 1290.85 1545.38 Z" fill="#000000" fill-rule="nonzero" fill-opacity="1" /><path clip-path="url(#clip500)" d="M1352.18 1556.39 Q1352.18 1549.93 1349.51 1546.27 Q1346.87 1542.58 1342.22 1542.58 Q1337.57 1542.58 1334.9 1546.27 Q1332.26 1549.93 1332.26 1556.39 Q1332.26 1562.85 1334.9 1566.55 Q1337.57 1570.21 1342.22 1570.21 Q1346.87 1570.21 1349.51 1566.55 Q1352.18 1562.85 1352.18 1556.39 M1332.26 1543.95 Q1334.11 1540.77 1336.91 1539.24 Q1339.74 1537.68 1343.65 1537.68 Q1350.15 1537.68 1354.19 1542.83 Q1358.26 1547.99 1358.26 1556.39 Q1358.26 1564.8 1354.19 1569.95 Q1350.15 1575.11 1343.65 1575.11 Q1339.74 1575.11 1336.91 1573.58 Q1334.11 1572.02 1332.26 1568.84 L1332.26 1574.19 L1326.37 1574.19 L1326.37 1524.66 L1332.26 1524.66 L1332.26 1543.95 Z" fill="#000000" fill-rule="nonzero" fill-opacity="1" /><path clip-path="url(#clip500)" d="M1391.43 1543.95 L1391.43 1524.66 L1397.28 1524.66 L1397.28 1574.19 L1391.43 1574.19 L1391.43 1568.84 Q1389.58 1572.02 1386.75 1573.58 Q1383.95 1575.11 1380 1575.11 Q1373.54 1575.11 1369.47 1569.95 Q1365.42 1564.8 1365.42 1556.39 Q1365.42 1547.99 1369.47 1542.83 Q1373.54 1537.68 1380 1537.68 Q1383.95 1537.68 1386.75 1539.24 Q1389.58 1540.77 1391.43 1543.95 M1371.47 1556.39 Q1371.47 1562.85 1374.11 1566.55 Q1376.79 1570.21 1381.43 1570.21 Q1386.08 1570.21 1388.75 1566.55 Q1391.43 1562.85 1391.43 1556.39 Q1391.43 1549.93 1388.75 1546.27 Q1386.08 1542.58 1381.43 1542.58 Q1376.79 1542.58 1374.11 1546.27 Q1371.47 1549.93 1371.47 1556.39 Z" fill="#000000" fill-rule="nonzero" fill-opacity="1" /><path clip-path="url(#clip500)" d="M1425.55 1556.27 Q1418.45 1556.27 1415.71 1557.89 Q1412.98 1559.51 1412.98 1563.43 Q1412.98 1566.55 1415.01 1568.39 Q1417.08 1570.21 1420.62 1570.21 Q1425.48 1570.21 1428.41 1566.77 Q1431.37 1563.3 1431.37 1557.57 L1431.37 1556.27 L1425.55 1556.27 M1437.23 1553.85 L1437.23 1574.19 L1431.37 1574.19 L1431.37 1568.77 Q1429.37 1572.02 1426.38 1573.58 Q1423.38 1575.11 1419.06 1575.11 Q1413.58 1575.11 1410.33 1572.05 Q1407.12 1568.97 1407.12 1563.81 Q1407.12 1557.79 1411.13 1554.74 Q1415.17 1551.68 1423.16 1551.68 L1431.37 1551.68 L1431.37 1551.11 Q1431.37 1547.07 1428.7 1544.87 Q1426.06 1542.64 1421.25 1542.64 Q1418.2 1542.64 1415.3 1543.38 Q1412.4 1544.11 1409.73 1545.57 L1409.73 1540.16 Q1412.94 1538.92 1415.97 1538.31 Q1418.99 1537.68 1421.86 1537.68 Q1429.59 1537.68 1433.41 1541.69 Q1437.23 1545.7 1437.23 1553.85 Z" fill="#000000" fill-rule="nonzero" fill-opacity="1" /><polyline clip-path="url(#clip502)" style="stroke:#000000; stroke-linecap:round; stroke-linejoin:round; stroke-width:2; stroke-opacity:0.1; fill:none" points="289.514,1159.76 2352.76,1159.76 "/>
<polyline clip-path="url(#clip502)" style="stroke:#000000; stroke-linecap:round; stroke-linejoin:round; stroke-width:2; stroke-opacity:0.1; fill:none" points="289.514,469.053 2352.76,469.053 "/>
<polyline clip-path="url(#clip500)" style="stroke:#000000; stroke-linecap:round; stroke-linejoin:round; stroke-width:4; stroke-opacity:1; fill:none" points="289.514,1410.9 289.514,47.2441 "/>
<polyline clip-path="url(#clip500)" style="stroke:#000000; stroke-linecap:round; stroke-linejoin:round; stroke-width:4; stroke-opacity:1; fill:none" points="289.514,1159.76 308.412,1159.76 "/>
<polyline clip-path="url(#clip500)" style="stroke:#000000; stroke-linecap:round; stroke-linejoin:round; stroke-width:4; stroke-opacity:1; fill:none" points="289.514,469.053 308.412,469.053 "/>
<path clip-path="url(#clip500)" d="M115.195 1179.55 L122.834 1179.55 L122.834 1153.19 L114.523 1154.85 L114.523 1150.59 L122.787 1148.93 L127.463 1148.93 L127.463 1179.55 L135.102 1179.55 L135.102 1183.49 L115.195 1183.49 L115.195 1179.55 Z" fill="#000000" fill-rule="nonzero" fill-opacity="1" /><path clip-path="url(#clip500)" d="M154.546 1152.01 Q150.935 1152.01 149.107 1155.57 Q147.301 1159.11 147.301 1166.24 Q147.301 1173.35 149.107 1176.91 Q150.935 1180.46 154.546 1180.46 Q158.181 1180.46 159.986 1176.91 Q161.815 1173.35 161.815 1166.24 Q161.815 1159.11 159.986 1155.57 Q158.181 1152.01 154.546 1152.01 M154.546 1148.3 Q160.357 1148.3 163.412 1152.91 Q166.491 1157.49 166.491 1166.24 Q166.491 1174.97 163.412 1179.58 Q160.357 1184.16 154.546 1184.16 Q148.736 1184.16 145.658 1179.58 Q142.602 1174.97 142.602 1166.24 Q142.602 1157.49 145.658 1152.91 Q148.736 1148.3 154.546 1148.3 Z" fill="#000000" fill-rule="nonzero" fill-opacity="1" /><path clip-path="url(#clip500)" d="M166.491 1142.4 L190.602 1142.4 L190.602 1145.6 L166.491 1145.6 L166.491 1142.4 Z" fill="#000000" fill-rule="nonzero" fill-opacity="1" /><path clip-path="url(#clip500)" d="M206.927 1130.5 Q203.993 1130.5 202.508 1133.4 Q201.041 1136.27 201.041 1142.07 Q201.041 1147.84 202.508 1150.74 Q203.993 1153.61 206.927 1153.61 Q209.88 1153.61 211.347 1150.74 Q212.833 1147.84 212.833 1142.07 Q212.833 1136.27 211.347 1133.4 Q209.88 1130.5 206.927 1130.5 M206.927 1127.49 Q211.648 1127.49 214.131 1131.23 Q216.632 1134.96 216.632 1142.07 Q216.632 1149.16 214.131 1152.9 Q211.648 1156.62 206.927 1156.62 Q202.207 1156.62 199.705 1152.9 Q197.223 1149.16 197.223 1142.07 Q197.223 1134.96 199.705 1131.23 Q202.207 1127.49 206.927 1127.49 Z" fill="#000000" fill-rule="nonzero" fill-opacity="1" /><path clip-path="url(#clip500)" d="M223.309 1151.3 L227.277 1151.3 L227.277 1156.08 L223.309 1156.08 L223.309 1151.3 Z" fill="#000000" fill-rule="nonzero" fill-opacity="1" /><path clip-path="url(#clip500)" d="M244.148 1140.52 Q241.59 1140.52 240.086 1142.27 Q238.6 1144.02 238.6 1147.07 Q238.6 1150.1 240.086 1151.86 Q241.59 1153.61 244.148 1153.61 Q246.706 1153.61 248.192 1151.86 Q249.696 1150.1 249.696 1147.07 Q249.696 1144.02 248.192 1142.27 Q246.706 1140.52 244.148 1140.52 M251.69 1128.62 L251.69 1132.08 Q250.261 1131.4 248.794 1131.04 Q247.345 1130.69 245.916 1130.69 Q242.154 1130.69 240.161 1133.23 Q238.186 1135.76 237.904 1140.9 Q239.014 1139.26 240.687 1138.4 Q242.361 1137.51 244.374 1137.51 Q248.606 1137.51 251.051 1140.09 Q253.514 1142.65 253.514 1147.07 Q253.514 1151.39 250.956 1154.01 Q248.399 1156.62 244.148 1156.62 Q239.277 1156.62 236.7 1152.9 Q234.124 1149.16 234.124 1142.07 Q234.124 1135.41 237.283 1131.46 Q240.443 1127.49 245.766 1127.49 Q247.195 1127.49 248.643 1127.77 Q250.11 1128.05 251.69 1128.62 Z" fill="#000000" fill-rule="nonzero" fill-opacity="1" /><path clip-path="url(#clip500)" d="M114.931 488.845 L122.57 488.845 L122.57 462.48 L114.26 464.147 L114.26 459.887 L122.524 458.221 L127.2 458.221 L127.2 488.845 L134.839 488.845 L134.839 492.781 L114.931 492.781 L114.931 488.845 Z" fill="#000000" fill-rule="nonzero" fill-opacity="1" /><path clip-path="url(#clip500)" d="M154.283 461.299 Q150.672 461.299 148.843 464.864 Q147.038 468.406 147.038 475.535 Q147.038 482.642 148.843 486.207 Q150.672 489.748 154.283 489.748 Q157.917 489.748 159.723 486.207 Q161.552 482.642 161.552 475.535 Q161.552 468.406 159.723 464.864 Q157.917 461.299 154.283 461.299 M154.283 457.596 Q160.093 457.596 163.149 462.202 Q166.227 466.785 166.227 475.535 Q166.227 484.262 163.149 488.869 Q160.093 493.452 154.283 493.452 Q148.473 493.452 145.394 488.869 Q142.339 484.262 142.339 475.535 Q142.339 466.785 145.394 462.202 Q148.473 457.596 154.283 457.596 Z" fill="#000000" fill-rule="nonzero" fill-opacity="1" /><path clip-path="url(#clip500)" d="M166.227 451.697 L190.339 451.697 L190.339 454.894 L166.227 454.894 L166.227 451.697 Z" fill="#000000" fill-rule="nonzero" fill-opacity="1" /><path clip-path="url(#clip500)" d="M206.664 439.792 Q203.73 439.792 202.244 442.688 Q200.777 445.566 200.777 451.358 Q200.777 457.132 202.244 460.029 Q203.73 462.906 206.664 462.906 Q209.617 462.906 211.084 460.029 Q212.57 457.132 212.57 451.358 Q212.57 445.566 211.084 442.688 Q209.617 439.792 206.664 439.792 M206.664 436.782 Q211.385 436.782 213.868 440.525 Q216.369 444.249 216.369 451.358 Q216.369 458.449 213.868 462.192 Q211.385 465.916 206.664 465.916 Q201.943 465.916 199.442 462.192 Q196.959 458.449 196.959 451.358 Q196.959 444.249 199.442 440.525 Q201.943 436.782 206.664 436.782 Z" fill="#000000" fill-rule="nonzero" fill-opacity="1" /><path clip-path="url(#clip500)" d="M223.046 460.593 L227.014 460.593 L227.014 465.37 L223.046 465.37 L223.046 460.593 Z" fill="#000000" fill-rule="nonzero" fill-opacity="1" /><path clip-path="url(#clip500)" d="M245.728 440.6 L236.136 455.59 L245.728 455.59 L245.728 440.6 M244.731 437.29 L249.508 437.29 L249.508 455.59 L253.514 455.59 L253.514 458.75 L249.508 458.75 L249.508 465.37 L245.728 465.37 L245.728 458.75 L233.051 458.75 L233.051 455.082 L244.731 437.29 Z" fill="#000000" fill-rule="nonzero" fill-opacity="1" /><path clip-path="url(#clip500)" d="M44.7161 788.526 L47.5806 788.526 L47.5806 815.453 Q53.6281 815.071 56.8109 811.825 Q59.9619 808.546 59.9619 802.722 Q59.9619 799.348 59.1344 796.197 Q58.3069 793.014 56.6518 789.895 L62.1899 789.895 Q63.5267 793.046 64.227 796.356 Q64.9272 799.666 64.9272 803.072 Q64.9272 811.602 59.9619 816.599 Q54.9967 821.564 46.5303 821.564 Q37.7774 821.564 32.6531 816.853 Q27.4968 812.111 27.4968 804.09 Q27.4968 796.897 32.1438 792.727 Q36.7589 788.526 44.7161 788.526 M42.9973 794.383 Q38.1912 794.446 35.3266 797.088 Q32.4621 799.698 32.4621 804.027 Q32.4621 808.928 35.2312 811.888 Q38.0002 814.816 43.0292 815.262 L42.9973 794.383 Z" fill="#000000" fill-rule="nonzero" fill-opacity="1" /><path clip-path="url(#clip500)" d="M33.8307 758.257 Q33.2578 759.244 33.0032 760.421 Q32.7167 761.567 32.7167 762.968 Q32.7167 767.933 35.9632 770.607 Q39.1779 773.248 45.2253 773.248 L64.0042 773.248 L64.0042 779.137 L28.3562 779.137 L28.3562 773.248 L33.8944 773.248 Q30.6479 771.402 29.0883 768.442 Q27.4968 765.482 27.4968 761.249 Q27.4968 760.644 27.5923 759.912 Q27.656 759.18 27.8151 758.289 L33.8307 758.257 Z" fill="#000000" fill-rule="nonzero" fill-opacity="1" /><path clip-path="url(#clip500)" d="M33.8307 732.603 Q33.2578 733.59 33.0032 734.768 Q32.7167 735.914 32.7167 737.314 Q32.7167 742.279 35.9632 744.953 Q39.1779 747.595 45.2253 747.595 L64.0042 747.595 L64.0042 753.483 L28.3562 753.483 L28.3562 747.595 L33.8944 747.595 Q30.6479 745.749 29.0883 742.788 Q27.4968 739.828 27.4968 735.595 Q27.4968 734.99 27.5923 734.258 Q27.656 733.526 27.8151 732.635 L33.8307 732.603 Z" fill="#000000" fill-rule="nonzero" fill-opacity="1" /><path clip-path="url(#clip500)" d="M32.4621 714.079 Q32.4621 718.79 36.1542 721.527 Q39.8145 724.264 46.212 724.264 Q52.6095 724.264 56.3017 721.559 Q59.9619 718.822 59.9619 714.079 Q59.9619 709.4 56.2698 706.663 Q52.5777 703.926 46.212 703.926 Q39.8781 703.926 36.186 706.663 Q32.4621 709.4 32.4621 714.079 M27.4968 714.079 Q27.4968 706.44 32.4621 702.08 Q37.4273 697.719 46.212 697.719 Q54.9649 697.719 59.9619 702.08 Q64.9272 706.44 64.9272 714.079 Q64.9272 721.75 59.9619 726.11 Q54.9649 730.439 46.212 730.439 Q37.4273 730.439 32.4621 726.11 Q27.4968 721.75 27.4968 714.079 Z" fill="#000000" fill-rule="nonzero" fill-opacity="1" /><path clip-path="url(#clip500)" d="M33.8307 667.355 Q33.2578 668.342 33.0032 669.519 Q32.7167 670.665 32.7167 672.065 Q32.7167 677.031 35.9632 679.704 Q39.1779 682.346 45.2253 682.346 L64.0042 682.346 L64.0042 688.234 L28.3562 688.234 L28.3562 682.346 L33.8944 682.346 Q30.6479 680.5 29.0883 677.54 Q27.4968 674.58 27.4968 670.347 Q27.4968 669.742 27.5923 669.01 Q27.656 668.278 27.8151 667.387 L33.8307 667.355 Z" fill="#000000" fill-rule="nonzero" fill-opacity="1" /><path clip-path="url(#clip500)" d="M29.4065 638.486 L34.9447 638.486 Q33.6716 640.969 33.035 643.643 Q32.3984 646.316 32.3984 649.181 Q32.3984 653.541 33.7352 655.737 Q35.072 657.902 37.7456 657.902 Q39.7826 657.902 40.9603 656.342 Q42.1061 654.783 43.1565 650.072 L43.6021 648.067 Q44.9389 641.828 47.3897 639.218 Q49.8086 636.577 54.1691 636.577 Q59.1344 636.577 62.0308 640.523 Q64.9272 644.438 64.9272 651.313 Q64.9272 654.178 64.3543 657.297 Q63.8132 660.384 62.6992 663.822 L56.6518 663.822 Q58.3387 660.575 59.198 657.424 Q60.0256 654.273 60.0256 651.186 Q60.0256 647.048 58.6251 644.82 Q57.1929 642.592 54.6147 642.592 Q52.2276 642.592 50.9545 644.215 Q49.6813 645.807 48.5037 651.25 L48.0262 653.287 Q46.8804 658.729 44.5251 661.148 Q42.138 663.567 38.0002 663.567 Q32.9713 663.567 30.2341 660.002 Q27.4968 656.438 27.4968 649.881 Q27.4968 646.634 27.9743 643.77 Q28.4517 640.905 29.4065 638.486 Z" fill="#000000" fill-rule="nonzero" fill-opacity="1" /><polyline clip-path="url(#clip502)" style="stroke:#009af9; stroke-linecap:round; stroke-linejoin:round; stroke-width:4; stroke-opacity:1; fill:none" points="347.908,1324.9 367.569,1345.03 387.23,1345.03 406.891,1345.03 426.553,1345.03 446.214,1351.8 465.875,1351.8 485.536,1338.29 505.197,1345.03 524.858,1324.9 544.52,1338.29 564.181,1324.9 583.842,1318.25 603.503,1324.9 623.164,1331.58 642.825,1338.29 662.486,1345.03 682.148,1338.29 701.809,1338.29 721.47,1338.29 741.131,1338.29 760.792,1331.58 780.453,1324.9 800.115,1351.8 819.776,1358.61 839.437,1331.58 859.098,1318.25 878.759,1331.58 898.42,1345.03 918.081,1338.29 937.743,1351.8 957.404,1345.03 977.065,1365.44 996.726,1351.8 1016.39,1365.44 1036.05,1351.8 1055.71,1345.03 1075.37,1351.8 1095.03,1345.03 1114.69,1351.8 1134.35,1338.29 1154.02,1372.3 1173.68,1358.61 1193.34,1365.44 1213,1358.61 1232.66,1365.44 1252.32,1338.29 1271.98,1365.44 1291.64,1345.03 1311.3,1318.25 1330.97,1285.43 1350.63,1266.07 1370.29,1240.65 1389.95,1240.65 1409.61,1240.65 1429.27,1234.36 1448.93,1246.97 1468.59,1228.1 1488.25,1209.47 1507.92,1197.18 1527.58,1203.31 1547.24,1184.98 1566.9,1203.31 1586.56,1166.87 1606.22,1148.98 1625.88,1090.84 1645.54,1034.87 1665.21,1034.87 1684.87,1023.92 1704.53,986.223 1724.19,1007.65 1743.85,933.958 1763.51,829.794 1783.17,791.941 1802.83,666.507 1822.49,666.507 1842.16,115.306 1861.82,325.821 1881.48,115.306 1901.14,115.306 1920.8,115.306 1940.46,115.306 1960.12,115.306 1979.78,115.306 1999.44,115.306 2019.11,115.306 2038.77,115.306 2058.43,115.306 2078.09,115.306 2097.75,115.306 2117.41,115.306 2137.07,115.306 2156.73,115.306 2176.4,115.306 2196.06,115.306 2215.72,115.306 2235.38,115.306 2255.04,115.306 2274.7,115.306 2294.36,115.306 "/>
<polyline clip-path="url(#clip502)" style="stroke:#e26f46; stroke-linecap:round; stroke-linejoin:round; stroke-width:4; stroke-opacity:1; fill:none" points="347.908,1203.31 367.569,1221.86 387.23,1221.86 406.891,1221.86 426.553,1221.86 446.214,1221.86 465.875,1221.86 485.536,1228.1 505.197,1228.1 524.858,1240.65 544.52,1240.65 564.181,1234.36 583.842,1234.36 603.503,1234.36 623.164,1240.65 642.825,1228.1 662.486,1228.1 682.148,1228.1 701.809,1228.1 721.47,1240.65 741.131,1228.1 760.792,1228.1 780.453,1234.36 800.115,1253.31 819.776,1246.97 839.437,1253.31 859.098,1246.97 878.759,1246.97 898.42,1272.5 918.081,1272.5 937.743,1278.95 957.404,1272.5 977.065,1266.07 996.726,1259.68 1016.39,1272.5 1036.05,1259.68 1055.71,1266.07 1075.37,1259.68 1095.03,1259.68 1114.69,1259.68 1134.35,1266.07 1154.02,1272.5 1173.68,1298.47 1193.34,1240.65 1213,1228.1 1232.66,1209.47 1252.32,1178.92 1271.98,1221.86 1291.64,1209.47 1311.3,1209.47 1330.97,1172.89 1350.63,1197.18 1370.29,1160.89 1389.95,1160.89 1409.61,1125.46 1429.27,1119.63 1448.93,1137.17 1468.59,1119.63 1488.25,1108.05 1507.92,1068.2 1527.58,1068.2 1547.24,1018.48 1566.9,1040.38 1586.56,1029.39 1606.22,1029.39 1625.88,1034.87 1645.54,980.914 1665.21,933.958 1684.87,939.103 1704.53,898.427 1724.19,908.493 1743.85,863.718 1763.51,810.748 1783.17,773.367 1802.83,645.172 1822.49,670.811 1842.16,85.838 1861.82,239.331 1881.48,85.838 1901.14,85.838 1920.8,85.838 1940.46,85.838 1960.12,85.838 1979.78,85.838 1999.44,85.838 2019.11,85.838 2038.77,85.838 2058.43,85.838 2078.09,85.838 2097.75,85.838 2117.41,85.838 2137.07,85.838 2156.73,85.838 2176.4,85.838 2196.06,85.838 2215.72,85.838 2235.38,85.838 2255.04,85.838 2274.7,85.838 2294.36,85.838 "/>
<path clip-path="url(#clip500)" d="M358.289 248.219 L808.339 248.219 L808.339 92.6992 L358.289 92.6992  Z" fill="#ffffff" fill-rule="evenodd" fill-opacity="1"/>
<polyline clip-path="url(#clip500)" style="stroke:#000000; stroke-linecap:round; stroke-linejoin:round; stroke-width:4; stroke-opacity:1; fill:none" points="358.289,248.219 808.339,248.219 808.339,92.6992 358.289,92.6992 358.289,248.219 "/>
<polyline clip-path="url(#clip500)" style="stroke:#009af9; stroke-linecap:round; stroke-linejoin:round; stroke-width:4; stroke-opacity:1; fill:none" points="381.214,144.539 518.763,144.539 "/>
<path clip-path="url(#clip500)" d="M541.688 127.259 L570.924 127.259 L570.924 131.194 L558.656 131.194 L558.656 161.819 L553.957 161.819 L553.957 131.194 L541.688 131.194 L541.688 127.259 Z" fill="#000000" fill-rule="nonzero" fill-opacity="1" /><path clip-path="url(#clip500)" d="M583.308 139.875 Q582.591 139.458 581.734 139.273 Q580.901 139.065 579.883 139.065 Q576.271 139.065 574.327 141.426 Q572.406 143.764 572.406 148.162 L572.406 161.819 L568.123 161.819 L568.123 135.893 L572.406 135.893 L572.406 139.921 Q573.748 137.56 575.901 136.426 Q578.054 135.268 581.133 135.268 Q581.572 135.268 582.105 135.338 Q582.637 135.384 583.285 135.5 L583.308 139.875 Z" fill="#000000" fill-rule="nonzero" fill-opacity="1" /><path clip-path="url(#clip500)" d="M599.558 148.787 Q594.396 148.787 592.406 149.967 Q590.415 151.148 590.415 153.995 Q590.415 156.264 591.896 157.606 Q593.401 158.926 595.97 158.926 Q599.512 158.926 601.642 156.426 Q603.794 153.903 603.794 149.736 L603.794 148.787 L599.558 148.787 M608.054 147.028 L608.054 161.819 L603.794 161.819 L603.794 157.884 Q602.336 160.245 600.16 161.379 Q597.984 162.49 594.836 162.49 Q590.855 162.49 588.494 160.268 Q586.156 158.023 586.156 154.273 Q586.156 149.898 589.072 147.676 Q592.012 145.454 597.822 145.454 L603.794 145.454 L603.794 145.037 Q603.794 142.097 601.85 140.5 Q599.929 138.879 596.433 138.879 Q594.211 138.879 592.105 139.412 Q589.998 139.944 588.054 141.009 L588.054 137.074 Q590.392 136.171 592.591 135.731 Q594.79 135.268 596.873 135.268 Q602.498 135.268 605.276 138.185 Q608.054 141.102 608.054 147.028 Z" fill="#000000" fill-rule="nonzero" fill-opacity="1" /><path clip-path="url(#clip500)" d="M616.827 135.893 L621.086 135.893 L621.086 161.819 L616.827 161.819 L616.827 135.893 M616.827 125.801 L621.086 125.801 L621.086 131.194 L616.827 131.194 L616.827 125.801 Z" fill="#000000" fill-rule="nonzero" fill-opacity="1" /><path clip-path="url(#clip500)" d="M651.549 146.171 L651.549 161.819 L647.29 161.819 L647.29 146.31 Q647.29 142.629 645.854 140.801 Q644.419 138.972 641.549 138.972 Q638.1 138.972 636.109 141.171 Q634.118 143.37 634.118 147.166 L634.118 161.819 L629.836 161.819 L629.836 135.893 L634.118 135.893 L634.118 139.921 Q635.646 137.583 637.706 136.426 Q639.79 135.268 642.498 135.268 Q646.966 135.268 649.257 138.046 Q651.549 140.801 651.549 146.171 Z" fill="#000000" fill-rule="nonzero" fill-opacity="1" /><path clip-path="url(#clip500)" d="M697.289 147.791 L697.289 149.875 L677.706 149.875 Q677.984 154.273 680.345 156.588 Q682.729 158.879 686.965 158.879 Q689.419 158.879 691.711 158.278 Q694.025 157.676 696.294 156.472 L696.294 160.5 Q694.002 161.472 691.595 161.981 Q689.188 162.49 686.711 162.49 Q680.507 162.49 676.873 158.879 Q673.262 155.268 673.262 149.111 Q673.262 142.745 676.688 139.018 Q680.137 135.268 685.97 135.268 Q691.201 135.268 694.234 138.648 Q697.289 142.004 697.289 147.791 M693.03 146.541 Q692.984 143.046 691.063 140.963 Q689.164 138.879 686.016 138.879 Q682.451 138.879 680.299 140.893 Q678.169 142.907 677.845 146.565 L693.03 146.541 Z" fill="#000000" fill-rule="nonzero" fill-opacity="1" /><path clip-path="url(#clip500)" d="M719.303 139.875 Q718.586 139.458 717.729 139.273 Q716.896 139.065 715.877 139.065 Q712.266 139.065 710.322 141.426 Q708.4 143.764 708.4 148.162 L708.4 161.819 L704.118 161.819 L704.118 135.893 L708.4 135.893 L708.4 139.921 Q709.743 137.56 711.896 136.426 Q714.048 135.268 717.127 135.268 Q717.567 135.268 718.099 135.338 Q718.632 135.384 719.28 135.5 L719.303 139.875 Z" fill="#000000" fill-rule="nonzero" fill-opacity="1" /><path clip-path="url(#clip500)" d="M737.96 139.875 Q737.243 139.458 736.386 139.273 Q735.553 139.065 734.534 139.065 Q730.923 139.065 728.979 141.426 Q727.058 143.764 727.058 148.162 L727.058 161.819 L722.775 161.819 L722.775 135.893 L727.058 135.893 L727.058 139.921 Q728.4 137.56 730.553 136.426 Q732.706 135.268 735.784 135.268 Q736.224 135.268 736.757 135.338 Q737.289 135.384 737.937 135.5 L737.96 139.875 Z" fill="#000000" fill-rule="nonzero" fill-opacity="1" /><path clip-path="url(#clip500)" d="M751.433 138.879 Q748.007 138.879 746.016 141.565 Q744.025 144.227 744.025 148.879 Q744.025 153.532 745.993 156.217 Q747.983 158.879 751.433 158.879 Q754.835 158.879 756.826 156.194 Q758.817 153.509 758.817 148.879 Q758.817 144.273 756.826 141.588 Q754.835 138.879 751.433 138.879 M751.433 135.268 Q756.988 135.268 760.159 138.879 Q763.331 142.491 763.331 148.879 Q763.331 155.245 760.159 158.879 Q756.988 162.49 751.433 162.49 Q745.854 162.49 742.683 158.879 Q739.534 155.245 739.534 148.879 Q739.534 142.491 742.683 138.879 Q745.854 135.268 751.433 135.268 Z" fill="#000000" fill-rule="nonzero" fill-opacity="1" /><path clip-path="url(#clip500)" d="M785.414 139.875 Q784.696 139.458 783.84 139.273 Q783.006 139.065 781.988 139.065 Q778.377 139.065 776.432 141.426 Q774.511 143.764 774.511 148.162 L774.511 161.819 L770.229 161.819 L770.229 135.893 L774.511 135.893 L774.511 139.921 Q775.854 137.56 778.006 136.426 Q780.159 135.268 783.238 135.268 Q783.678 135.268 784.21 135.338 Q784.743 135.384 785.391 135.5 L785.414 139.875 Z" fill="#000000" fill-rule="nonzero" fill-opacity="1" /><polyline clip-path="url(#clip500)" style="stroke:#e26f46; stroke-linecap:round; stroke-linejoin:round; stroke-width:4; stroke-opacity:1; fill:none" points="381.214,196.379 518.763,196.379 "/>
<path clip-path="url(#clip500)" d="M541.688 179.099 L570.924 179.099 L570.924 183.034 L558.656 183.034 L558.656 213.659 L553.957 213.659 L553.957 183.034 L541.688 183.034 L541.688 179.099 Z" fill="#000000" fill-rule="nonzero" fill-opacity="1" /><path clip-path="url(#clip500)" d="M589.373 199.631 L589.373 201.715 L569.79 201.715 Q570.068 206.113 572.429 208.428 Q574.813 210.719 579.049 210.719 Q581.503 210.719 583.795 210.118 Q586.109 209.516 588.378 208.312 L588.378 212.34 Q586.086 213.312 583.679 213.821 Q581.271 214.33 578.795 214.33 Q572.591 214.33 568.957 210.719 Q565.346 207.108 565.346 200.951 Q565.346 194.585 568.771 190.858 Q572.221 187.108 578.054 187.108 Q583.285 187.108 586.318 190.488 Q589.373 193.844 589.373 199.631 M585.114 198.381 Q585.068 194.886 583.146 192.803 Q581.248 190.719 578.1 190.719 Q574.535 190.719 572.383 192.733 Q570.253 194.747 569.929 198.405 L585.114 198.381 Z" fill="#000000" fill-rule="nonzero" fill-opacity="1" /><path clip-path="url(#clip500)" d="M612.892 188.497 L612.892 192.525 Q611.086 191.599 609.142 191.136 Q607.197 190.673 605.114 190.673 Q601.943 190.673 600.345 191.645 Q598.771 192.618 598.771 194.562 Q598.771 196.044 599.906 196.9 Q601.04 197.733 604.466 198.497 L605.924 198.821 Q610.461 199.794 612.359 201.576 Q614.281 203.335 614.281 206.506 Q614.281 210.118 611.41 212.224 Q608.563 214.33 603.563 214.33 Q601.48 214.33 599.211 213.914 Q596.966 213.52 594.466 212.71 L594.466 208.312 Q596.827 209.539 599.119 210.164 Q601.41 210.766 603.656 210.766 Q606.665 210.766 608.285 209.747 Q609.906 208.706 609.906 206.831 Q609.906 205.094 608.725 204.168 Q607.568 203.243 603.609 202.386 L602.128 202.039 Q598.169 201.206 596.41 199.493 Q594.651 197.756 594.651 194.747 Q594.651 191.09 597.244 189.099 Q599.836 187.108 604.605 187.108 Q606.966 187.108 609.049 187.456 Q611.132 187.803 612.892 188.497 Z" fill="#000000" fill-rule="nonzero" fill-opacity="1" /><path clip-path="url(#clip500)" d="M625.276 180.372 L625.276 187.733 L634.049 187.733 L634.049 191.044 L625.276 191.044 L625.276 205.118 Q625.276 208.289 626.132 209.192 Q627.012 210.094 629.674 210.094 L634.049 210.094 L634.049 213.659 L629.674 213.659 Q624.743 213.659 622.868 211.83 Q620.993 209.979 620.993 205.118 L620.993 191.044 L617.868 191.044 L617.868 187.733 L620.993 187.733 L620.993 180.372 L625.276 180.372 Z" fill="#000000" fill-rule="nonzero" fill-opacity="1" /><path clip-path="url(#clip500)" d="M676.896 199.631 L676.896 201.715 L657.313 201.715 Q657.59 206.113 659.952 208.428 Q662.336 210.719 666.572 210.719 Q669.026 210.719 671.317 210.118 Q673.632 209.516 675.901 208.312 L675.901 212.34 Q673.609 213.312 671.201 213.821 Q668.794 214.33 666.317 214.33 Q660.114 214.33 656.479 210.719 Q652.868 207.108 652.868 200.951 Q652.868 194.585 656.294 190.858 Q659.743 187.108 665.577 187.108 Q670.808 187.108 673.84 190.488 Q676.896 193.844 676.896 199.631 M672.637 198.381 Q672.59 194.886 670.669 192.803 Q668.771 190.719 665.623 190.719 Q662.058 190.719 659.905 192.733 Q657.776 194.747 657.452 198.405 L672.637 198.381 Z" fill="#000000" fill-rule="nonzero" fill-opacity="1" /><path clip-path="url(#clip500)" d="M698.91 191.715 Q698.192 191.298 697.336 191.113 Q696.502 190.905 695.484 190.905 Q691.873 190.905 689.928 193.266 Q688.007 195.604 688.007 200.002 L688.007 213.659 L683.725 213.659 L683.725 187.733 L688.007 187.733 L688.007 191.761 Q689.35 189.4 691.502 188.266 Q693.655 187.108 696.734 187.108 Q697.174 187.108 697.706 187.178 Q698.238 187.224 698.887 187.34 L698.91 191.715 Z" fill="#000000" fill-rule="nonzero" fill-opacity="1" /><path clip-path="url(#clip500)" d="M717.567 191.715 Q716.849 191.298 715.993 191.113 Q715.16 190.905 714.141 190.905 Q710.53 190.905 708.586 193.266 Q706.664 195.604 706.664 200.002 L706.664 213.659 L702.382 213.659 L702.382 187.733 L706.664 187.733 L706.664 191.761 Q708.007 189.4 710.16 188.266 Q712.312 187.108 715.391 187.108 Q715.831 187.108 716.363 187.178 Q716.896 187.224 717.544 187.34 L717.567 191.715 Z" fill="#000000" fill-rule="nonzero" fill-opacity="1" /><path clip-path="url(#clip500)" d="M731.039 190.719 Q727.613 190.719 725.623 193.405 Q723.632 196.067 723.632 200.719 Q723.632 205.372 725.599 208.057 Q727.59 210.719 731.039 210.719 Q734.442 210.719 736.433 208.034 Q738.423 205.349 738.423 200.719 Q738.423 196.113 736.433 193.428 Q734.442 190.719 731.039 190.719 M731.039 187.108 Q736.595 187.108 739.766 190.719 Q742.937 194.331 742.937 200.719 Q742.937 207.085 739.766 210.719 Q736.595 214.33 731.039 214.33 Q725.46 214.33 722.289 210.719 Q719.141 207.085 719.141 200.719 Q719.141 194.331 722.289 190.719 Q725.46 187.108 731.039 187.108 Z" fill="#000000" fill-rule="nonzero" fill-opacity="1" /><path clip-path="url(#clip500)" d="M765.02 191.715 Q764.303 191.298 763.446 191.113 Q762.613 190.905 761.595 190.905 Q757.983 190.905 756.039 193.266 Q754.118 195.604 754.118 200.002 L754.118 213.659 L749.835 213.659 L749.835 187.733 L754.118 187.733 L754.118 191.761 Q755.46 189.4 757.613 188.266 Q759.766 187.108 762.845 187.108 Q763.284 187.108 763.817 187.178 Q764.349 187.224 764.997 187.34 L765.02 191.715 Z" fill="#000000" fill-rule="nonzero" fill-opacity="1" /></svg>
