<?xml version="1.0" encoding="utf-8"?>
<svg xmlns="http://www.w3.org/2000/svg" xmlns:xlink="http://www.w3.org/1999/xlink" width="600" height="400" viewBox="0 0 2400 1600">
<defs>
  <clipPath id="clip900">
    <rect x="0" y="0" width="2400" height="1600"/>
  </clipPath>
</defs>
<path clip-path="url(#clip900)" d="M0 1600 L2400 1600 L2400 0 L0 0  Z" fill="#ffffff" fill-rule="evenodd" fill-opacity="1"/>
<defs>
  <clipPath id="clip901">
    <rect x="480" y="0" width="1681" height="1600"/>
  </clipPath>
</defs>
<path clip-path="url(#clip900)" d="M186.76 1486.45 L2352.76 1486.45 L2352.76 47.2441 L186.76 47.2441  Z" fill="#ffffff" fill-rule="evenodd" fill-opacity="1"/>
<defs>
  <clipPath id="clip902">
    <rect x="186" y="47" width="2167" height="1440"/>
  </clipPath>
</defs>
<polyline clip-path="url(#clip902)" style="stroke:#000000; stroke-linecap:round; stroke-linejoin:round; stroke-width:2; stroke-opacity:0.1; fill:none" points="248.062,1486.45 248.062,47.2441 "/>
<polyline clip-path="url(#clip902)" style="stroke:#000000; stroke-linecap:round; stroke-linejoin:round; stroke-width:2; stroke-opacity:0.1; fill:none" points="554.571,1486.45 554.571,47.2441 "/>
<polyline clip-path="url(#clip902)" style="stroke:#000000; stroke-linecap:round; stroke-linejoin:round; stroke-width:2; stroke-opacity:0.1; fill:none" points="861.08,1486.45 861.08,47.2441 "/>
<polyline clip-path="url(#clip902)" style="stroke:#000000; stroke-linecap:round; stroke-linejoin:round; stroke-width:2; stroke-opacity:0.1; fill:none" points="1167.59,1486.45 1167.59,47.2441 "/>
<polyline clip-path="url(#clip902)" style="stroke:#000000; stroke-linecap:round; stroke-linejoin:round; stroke-width:2; stroke-opacity:0.1; fill:none" points="1474.1,1486.45 1474.1,47.2441 "/>
<polyline clip-path="url(#clip902)" style="stroke:#000000; stroke-linecap:round; stroke-linejoin:round; stroke-width:2; stroke-opacity:0.1; fill:none" points="1780.61,1486.45 1780.61,47.2441 "/>
<polyline clip-path="url(#clip902)" style="stroke:#000000; stroke-linecap:round; stroke-linejoin:round; stroke-width:2; stroke-opacity:0.1; fill:none" points="2087.11,1486.45 2087.11,47.2441 "/>
<polyline clip-path="url(#clip900)" style="stroke:#000000; stroke-linecap:round; stroke-linejoin:round; stroke-width:4; stroke-opacity:1; fill:none" points="186.76,1486.45 2352.76,1486.45 "/>
<polyline clip-path="url(#clip900)" style="stroke:#000000; stroke-linecap:round; stroke-linejoin:round; stroke-width:4; stroke-opacity:1; fill:none" points="248.062,1486.45 248.062,1467.55 "/>
<polyline clip-path="url(#clip900)" style="stroke:#000000; stroke-linecap:round; stroke-linejoin:round; stroke-width:4; stroke-opacity:1; fill:none" points="554.571,1486.45 554.571,1467.55 "/>
<polyline clip-path="url(#clip900)" style="stroke:#000000; stroke-linecap:round; stroke-linejoin:round; stroke-width:4; stroke-opacity:1; fill:none" points="861.08,1486.45 861.08,1467.55 "/>
<polyline clip-path="url(#clip900)" style="stroke:#000000; stroke-linecap:round; stroke-linejoin:round; stroke-width:4; stroke-opacity:1; fill:none" points="1167.59,1486.45 1167.59,1467.55 "/>
<polyline clip-path="url(#clip900)" style="stroke:#000000; stroke-linecap:round; stroke-linejoin:round; stroke-width:4; stroke-opacity:1; fill:none" points="1474.1,1486.45 1474.1,1467.55 "/>
<polyline clip-path="url(#clip900)" style="stroke:#000000; stroke-linecap:round; stroke-linejoin:round; stroke-width:4; stroke-opacity:1; fill:none" points="1780.61,1486.45 1780.61,1467.55 "/>
<polyline clip-path="url(#clip900)" style="stroke:#000000; stroke-linecap:round; stroke-linejoin:round; stroke-width:4; stroke-opacity:1; fill:none" points="2087.11,1486.45 2087.11,1467.55 "/>
<path clip-path="url(#clip900)" d="M210.365 1517.37 Q206.754 1517.37 204.926 1520.93 Q203.12 1524.47 203.12 1531.6 Q203.12 1538.71 204.926 1542.27 Q206.754 1545.82 210.365 1545.82 Q214 1545.82 215.805 1542.27 Q217.634 1538.71 217.634 1531.6 Q217.634 1524.47 215.805 1520.93 Q214 1517.37 210.365 1517.37 M210.365 1513.66 Q216.175 1513.66 219.231 1518.27 Q222.31 1522.85 222.31 1531.6 Q222.31 1540.33 219.231 1544.94 Q216.175 1549.52 210.365 1549.52 Q204.555 1549.52 201.476 1544.94 Q198.421 1540.33 198.421 1531.6 Q198.421 1522.85 201.476 1518.27 Q204.555 1513.66 210.365 1513.66 Z" fill="#000000" fill-rule="nonzero" fill-opacity="1" /><path clip-path="url(#clip900)" d="M230.527 1542.97 L235.411 1542.97 L235.411 1548.85 L230.527 1548.85 L230.527 1542.97 Z" fill="#000000" fill-rule="nonzero" fill-opacity="1" /><path clip-path="url(#clip900)" d="M255.597 1517.37 Q251.985 1517.37 250.157 1520.93 Q248.351 1524.47 248.351 1531.6 Q248.351 1538.71 250.157 1542.27 Q251.985 1545.82 255.597 1545.82 Q259.231 1545.82 261.036 1542.27 Q262.865 1538.71 262.865 1531.6 Q262.865 1524.47 261.036 1520.93 Q259.231 1517.37 255.597 1517.37 M255.597 1513.66 Q261.407 1513.66 264.462 1518.27 Q267.541 1522.85 267.541 1531.6 Q267.541 1540.33 264.462 1544.94 Q261.407 1549.52 255.597 1549.52 Q249.786 1549.52 246.708 1544.94 Q243.652 1540.33 243.652 1531.6 Q243.652 1522.85 246.708 1518.27 Q249.786 1513.66 255.597 1513.66 Z" fill="#000000" fill-rule="nonzero" fill-opacity="1" /><path clip-path="url(#clip900)" d="M285.758 1517.37 Q282.147 1517.37 280.319 1520.93 Q278.513 1524.47 278.513 1531.6 Q278.513 1538.71 280.319 1542.27 Q282.147 1545.82 285.758 1545.82 Q289.393 1545.82 291.198 1542.27 Q293.027 1538.71 293.027 1531.6 Q293.027 1524.47 291.198 1520.93 Q289.393 1517.37 285.758 1517.37 M285.758 1513.66 Q291.569 1513.66 294.624 1518.27 Q297.703 1522.85 297.703 1531.6 Q297.703 1540.33 294.624 1544.94 Q291.569 1549.52 285.758 1549.52 Q279.948 1549.52 276.87 1544.94 Q273.814 1540.33 273.814 1531.6 Q273.814 1522.85 276.87 1518.27 Q279.948 1513.66 285.758 1513.66 Z" fill="#000000" fill-rule="nonzero" fill-opacity="1" /><path clip-path="url(#clip900)" d="M517.488 1517.37 Q513.876 1517.37 512.048 1520.93 Q510.242 1524.47 510.242 1531.6 Q510.242 1538.71 512.048 1542.27 Q513.876 1545.82 517.488 1545.82 Q521.122 1545.82 522.927 1542.27 Q524.756 1538.71 524.756 1531.6 Q524.756 1524.47 522.927 1520.93 Q521.122 1517.37 517.488 1517.37 M517.488 1513.66 Q523.298 1513.66 526.353 1518.27 Q529.432 1522.85 529.432 1531.6 Q529.432 1540.33 526.353 1544.94 Q523.298 1549.52 517.488 1549.52 Q511.677 1549.52 508.599 1544.94 Q505.543 1540.33 505.543 1531.6 Q505.543 1522.85 508.599 1518.27 Q511.677 1513.66 517.488 1513.66 Z" fill="#000000" fill-rule="nonzero" fill-opacity="1" /><path clip-path="url(#clip900)" d="M537.65 1542.97 L542.534 1542.97 L542.534 1548.85 L537.65 1548.85 L537.65 1542.97 Z" fill="#000000" fill-rule="nonzero" fill-opacity="1" /><path clip-path="url(#clip900)" d="M562.719 1517.37 Q559.108 1517.37 557.279 1520.93 Q555.473 1524.47 555.473 1531.6 Q555.473 1538.71 557.279 1542.27 Q559.108 1545.82 562.719 1545.82 Q566.353 1545.82 568.159 1542.27 Q569.987 1538.71 569.987 1531.6 Q569.987 1524.47 568.159 1520.93 Q566.353 1517.37 562.719 1517.37 M562.719 1513.66 Q568.529 1513.66 571.585 1518.27 Q574.663 1522.85 574.663 1531.6 Q574.663 1540.33 571.585 1544.94 Q568.529 1549.52 562.719 1549.52 Q556.909 1549.52 553.83 1544.94 Q550.774 1540.33 550.774 1531.6 Q550.774 1522.85 553.83 1518.27 Q556.909 1513.66 562.719 1513.66 Z" fill="#000000" fill-rule="nonzero" fill-opacity="1" /><path clip-path="url(#clip900)" d="M583.691 1544.91 L591.33 1544.91 L591.33 1518.55 L583.02 1520.21 L583.02 1515.95 L591.283 1514.29 L595.959 1514.29 L595.959 1544.91 L603.598 1544.91 L603.598 1548.85 L583.691 1548.85 L583.691 1544.91 Z" fill="#000000" fill-rule="nonzero" fill-opacity="1" /><path clip-path="url(#clip900)" d="M824.182 1517.37 Q820.571 1517.37 818.742 1520.93 Q816.936 1524.47 816.936 1531.6 Q816.936 1538.71 818.742 1542.27 Q820.571 1545.82 824.182 1545.82 Q827.816 1545.82 829.621 1542.27 Q831.45 1538.71 831.45 1531.6 Q831.45 1524.47 829.621 1520.93 Q827.816 1517.37 824.182 1517.37 M824.182 1513.66 Q829.992 1513.66 833.047 1518.27 Q836.126 1522.85 836.126 1531.6 Q836.126 1540.33 833.047 1544.94 Q829.992 1549.52 824.182 1549.52 Q818.371 1549.52 815.293 1544.94 Q812.237 1540.33 812.237 1531.6 Q812.237 1522.85 815.293 1518.27 Q818.371 1513.66 824.182 1513.66 Z" fill="#000000" fill-rule="nonzero" fill-opacity="1" /><path clip-path="url(#clip900)" d="M844.344 1542.97 L849.228 1542.97 L849.228 1548.85 L844.344 1548.85 L844.344 1542.97 Z" fill="#000000" fill-rule="nonzero" fill-opacity="1" /><path clip-path="url(#clip900)" d="M869.413 1517.37 Q865.802 1517.37 863.973 1520.93 Q862.168 1524.47 862.168 1531.6 Q862.168 1538.71 863.973 1542.27 Q865.802 1545.82 869.413 1545.82 Q873.047 1545.82 874.853 1542.27 Q876.681 1538.71 876.681 1531.6 Q876.681 1524.47 874.853 1520.93 Q873.047 1517.37 869.413 1517.37 M869.413 1513.66 Q875.223 1513.66 878.279 1518.27 Q881.357 1522.85 881.357 1531.6 Q881.357 1540.33 878.279 1544.94 Q875.223 1549.52 869.413 1549.52 Q863.603 1549.52 860.524 1544.94 Q857.468 1540.33 857.468 1531.6 Q857.468 1522.85 860.524 1518.27 Q863.603 1513.66 869.413 1513.66 Z" fill="#000000" fill-rule="nonzero" fill-opacity="1" /><path clip-path="url(#clip900)" d="M893.603 1544.91 L909.922 1544.91 L909.922 1548.85 L887.978 1548.85 L887.978 1544.91 Q890.64 1542.16 895.223 1537.53 Q899.829 1532.88 901.01 1531.53 Q903.255 1529.01 904.135 1527.27 Q905.038 1525.51 905.038 1523.82 Q905.038 1521.07 903.093 1519.33 Q901.172 1517.6 898.07 1517.6 Q895.871 1517.6 893.417 1518.36 Q890.987 1519.13 888.209 1520.68 L888.209 1515.95 Q891.033 1514.82 893.487 1514.24 Q895.94 1513.66 897.978 1513.66 Q903.348 1513.66 906.542 1516.35 Q909.737 1519.03 909.737 1523.52 Q909.737 1525.65 908.927 1527.57 Q908.139 1529.47 906.033 1532.07 Q905.454 1532.74 902.352 1535.95 Q899.251 1539.15 893.603 1544.91 Z" fill="#000000" fill-rule="nonzero" fill-opacity="1" /><path clip-path="url(#clip900)" d="M1130.22 1517.37 Q1126.6 1517.37 1124.78 1520.93 Q1122.97 1524.47 1122.97 1531.6 Q1122.97 1538.71 1124.78 1542.27 Q1126.6 1545.82 1130.22 1545.82 Q1133.85 1545.82 1135.66 1542.27 Q1137.48 1538.71 1137.48 1531.6 Q1137.48 1524.47 1135.66 1520.93 Q1133.85 1517.37 1130.22 1517.37 M1130.22 1513.66 Q1136.03 1513.66 1139.08 1518.27 Q1142.16 1522.85 1142.16 1531.6 Q1142.16 1540.33 1139.08 1544.94 Q1136.03 1549.52 1130.22 1549.52 Q1124.41 1549.52 1121.33 1544.94 Q1118.27 1540.33 1118.27 1531.6 Q1118.27 1522.85 1121.33 1518.27 Q1124.41 1513.66 1130.22 1513.66 Z" fill="#000000" fill-rule="nonzero" fill-opacity="1" /><path clip-path="url(#clip900)" d="M1150.38 1542.97 L1155.26 1542.97 L1155.26 1548.85 L1150.38 1548.85 L1150.38 1542.97 Z" fill="#000000" fill-rule="nonzero" fill-opacity="1" /><path clip-path="url(#clip900)" d="M1175.45 1517.37 Q1171.84 1517.37 1170.01 1520.93 Q1168.2 1524.47 1168.2 1531.6 Q1168.2 1538.71 1170.01 1542.27 Q1171.84 1545.82 1175.45 1545.82 Q1179.08 1545.82 1180.89 1542.27 Q1182.72 1538.71 1182.72 1531.6 Q1182.72 1524.47 1180.89 1520.93 Q1179.08 1517.37 1175.45 1517.37 M1175.45 1513.66 Q1181.26 1513.66 1184.31 1518.27 Q1187.39 1522.85 1187.39 1531.6 Q1187.39 1540.33 1184.31 1544.94 Q1181.26 1549.52 1175.45 1549.52 Q1169.64 1549.52 1166.56 1544.94 Q1163.5 1540.33 1163.5 1531.6 Q1163.5 1522.85 1166.56 1518.27 Q1169.64 1513.66 1175.45 1513.66 Z" fill="#000000" fill-rule="nonzero" fill-opacity="1" /><path clip-path="url(#clip900)" d="M1209.78 1530.21 Q1213.13 1530.93 1215.01 1533.2 Q1216.91 1535.47 1216.91 1538.8 Q1216.91 1543.92 1213.39 1546.72 Q1209.87 1549.52 1203.39 1549.52 Q1201.21 1549.52 1198.9 1549.08 Q1196.6 1548.66 1194.15 1547.81 L1194.15 1543.29 Q1196.1 1544.43 1198.41 1545.01 Q1200.72 1545.58 1203.25 1545.58 Q1207.65 1545.58 1209.94 1543.85 Q1212.25 1542.11 1212.25 1538.8 Q1212.25 1535.75 1210.1 1534.03 Q1207.97 1532.3 1204.15 1532.3 L1200.12 1532.3 L1200.12 1528.45 L1204.34 1528.45 Q1207.78 1528.45 1209.61 1527.09 Q1211.44 1525.7 1211.44 1523.11 Q1211.44 1520.45 1209.54 1519.03 Q1207.67 1517.6 1204.15 1517.6 Q1202.23 1517.6 1200.03 1518.01 Q1197.83 1518.43 1195.19 1519.31 L1195.19 1515.14 Q1197.85 1514.4 1200.17 1514.03 Q1202.51 1513.66 1204.57 1513.66 Q1209.89 1513.66 1212.99 1516.09 Q1216.1 1518.5 1216.1 1522.62 Q1216.1 1525.49 1214.45 1527.48 Q1212.81 1529.45 1209.78 1530.21 Z" fill="#000000" fill-rule="nonzero" fill-opacity="1" /><path clip-path="url(#clip900)" d="M1436.16 1517.37 Q1432.55 1517.37 1430.72 1520.93 Q1428.91 1524.47 1428.91 1531.6 Q1428.91 1538.71 1430.72 1542.27 Q1432.55 1545.82 1436.16 1545.82 Q1439.79 1545.82 1441.6 1542.27 Q1443.43 1538.71 1443.43 1531.6 Q1443.43 1524.47 1441.6 1520.93 Q1439.79 1517.37 1436.16 1517.37 M1436.16 1513.66 Q1441.97 1513.66 1445.02 1518.27 Q1448.1 1522.85 1448.1 1531.6 Q1448.1 1540.33 1445.02 1544.94 Q1441.97 1549.52 1436.16 1549.52 Q1430.35 1549.52 1427.27 1544.94 Q1424.21 1540.33 1424.21 1531.6 Q1424.21 1522.85 1427.27 1518.27 Q1430.35 1513.66 1436.16 1513.66 Z" fill="#000000" fill-rule="nonzero" fill-opacity="1" /><path clip-path="url(#clip900)" d="M1456.32 1542.97 L1461.2 1542.97 L1461.2 1548.85 L1456.32 1548.85 L1456.32 1542.97 Z" fill="#000000" fill-rule="nonzero" fill-opacity="1" /><path clip-path="url(#clip900)" d="M1481.39 1517.37 Q1477.78 1517.37 1475.95 1520.93 Q1474.14 1524.47 1474.14 1531.6 Q1474.14 1538.71 1475.95 1542.27 Q1477.78 1545.82 1481.39 1545.82 Q1485.02 1545.82 1486.83 1542.27 Q1488.66 1538.71 1488.66 1531.6 Q1488.66 1524.47 1486.83 1520.93 Q1485.02 1517.37 1481.39 1517.37 M1481.39 1513.66 Q1487.2 1513.66 1490.25 1518.27 Q1493.33 1522.85 1493.33 1531.6 Q1493.33 1540.33 1490.25 1544.94 Q1487.2 1549.52 1481.39 1549.52 Q1475.58 1549.52 1472.5 1544.94 Q1469.44 1540.33 1469.44 1531.6 Q1469.44 1522.85 1472.5 1518.27 Q1475.58 1513.66 1481.39 1513.66 Z" fill="#000000" fill-rule="nonzero" fill-opacity="1" /><path clip-path="url(#clip900)" d="M1514.4 1518.36 L1502.59 1536.81 L1514.4 1536.81 L1514.4 1518.36 M1513.17 1514.29 L1519.05 1514.29 L1519.05 1536.81 L1523.98 1536.81 L1523.98 1540.7 L1519.05 1540.7 L1519.05 1548.85 L1514.4 1548.85 L1514.4 1540.7 L1498.8 1540.7 L1498.8 1536.19 L1513.17 1514.29 Z" fill="#000000" fill-rule="nonzero" fill-opacity="1" /><path clip-path="url(#clip900)" d="M1743.41 1517.37 Q1739.8 1517.37 1737.97 1520.93 Q1736.16 1524.47 1736.16 1531.6 Q1736.16 1538.71 1737.97 1542.27 Q1739.8 1545.82 1743.41 1545.82 Q1747.04 1545.82 1748.85 1542.27 Q1750.68 1538.71 1750.68 1531.6 Q1750.68 1524.47 1748.85 1520.93 Q1747.04 1517.37 1743.41 1517.37 M1743.41 1513.66 Q1749.22 1513.66 1752.27 1518.27 Q1755.35 1522.85 1755.35 1531.6 Q1755.35 1540.33 1752.27 1544.94 Q1749.22 1549.52 1743.41 1549.52 Q1737.6 1549.52 1734.52 1544.94 Q1731.46 1540.33 1731.46 1531.6 Q1731.46 1522.85 1734.52 1518.27 Q1737.6 1513.66 1743.41 1513.66 Z" fill="#000000" fill-rule="nonzero" fill-opacity="1" /><path clip-path="url(#clip900)" d="M1763.57 1542.97 L1768.45 1542.97 L1768.45 1548.85 L1763.57 1548.85 L1763.57 1542.97 Z" fill="#000000" fill-rule="nonzero" fill-opacity="1" /><path clip-path="url(#clip900)" d="M1788.64 1517.37 Q1785.03 1517.37 1783.2 1520.93 Q1781.39 1524.47 1781.39 1531.6 Q1781.39 1538.71 1783.2 1542.27 Q1785.03 1545.82 1788.64 1545.82 Q1792.27 1545.82 1794.08 1542.27 Q1795.91 1538.71 1795.91 1531.6 Q1795.91 1524.47 1794.08 1520.93 Q1792.27 1517.37 1788.64 1517.37 M1788.64 1513.66 Q1794.45 1513.66 1797.5 1518.27 Q1800.58 1522.85 1800.58 1531.6 Q1800.58 1540.33 1797.5 1544.94 Q1794.45 1549.52 1788.64 1549.52 Q1782.83 1549.52 1779.75 1544.94 Q1776.69 1540.33 1776.69 1531.6 Q1776.69 1522.85 1779.75 1518.27 Q1782.83 1513.66 1788.64 1513.66 Z" fill="#000000" fill-rule="nonzero" fill-opacity="1" /><path clip-path="url(#clip900)" d="M1808.85 1514.29 L1827.2 1514.29 L1827.2 1518.22 L1813.13 1518.22 L1813.13 1526.7 Q1814.15 1526.35 1815.17 1526.19 Q1816.18 1526 1817.2 1526 Q1822.99 1526 1826.37 1529.17 Q1829.75 1532.34 1829.75 1537.76 Q1829.75 1543.34 1826.28 1546.44 Q1822.8 1549.52 1816.49 1549.52 Q1814.31 1549.52 1812.04 1549.15 Q1809.8 1548.78 1807.39 1548.04 L1807.39 1543.34 Q1809.47 1544.47 1811.69 1545.03 Q1813.92 1545.58 1816.39 1545.58 Q1820.4 1545.58 1822.74 1543.48 Q1825.07 1541.37 1825.07 1537.76 Q1825.07 1534.15 1822.74 1532.04 Q1820.4 1529.94 1816.39 1529.94 Q1814.52 1529.94 1812.64 1530.35 Q1810.79 1530.77 1808.85 1531.65 L1808.85 1514.29 Z" fill="#000000" fill-rule="nonzero" fill-opacity="1" /><path clip-path="url(#clip900)" d="M2049.34 1517.37 Q2045.73 1517.37 2043.9 1520.93 Q2042.09 1524.47 2042.09 1531.6 Q2042.09 1538.71 2043.9 1542.27 Q2045.73 1545.82 2049.34 1545.82 Q2052.97 1545.82 2054.78 1542.27 Q2056.61 1538.71 2056.61 1531.6 Q2056.61 1524.47 2054.78 1520.93 Q2052.97 1517.37 2049.34 1517.37 M2049.34 1513.66 Q2055.15 1513.66 2058.2 1518.27 Q2061.28 1522.85 2061.28 1531.6 Q2061.28 1540.33 2058.2 1544.94 Q2055.15 1549.52 2049.34 1549.52 Q2043.53 1549.52 2040.45 1544.94 Q2037.39 1540.33 2037.39 1531.6 Q2037.39 1522.85 2040.45 1518.27 Q2043.53 1513.66 2049.34 1513.66 Z" fill="#000000" fill-rule="nonzero" fill-opacity="1" /><path clip-path="url(#clip900)" d="M2069.5 1542.97 L2074.38 1542.97 L2074.38 1548.85 L2069.5 1548.85 L2069.5 1542.97 Z" fill="#000000" fill-rule="nonzero" fill-opacity="1" /><path clip-path="url(#clip900)" d="M2094.57 1517.37 Q2090.96 1517.37 2089.13 1520.93 Q2087.32 1524.47 2087.32 1531.6 Q2087.32 1538.71 2089.13 1542.27 Q2090.96 1545.82 2094.57 1545.82 Q2098.2 1545.82 2100.01 1542.27 Q2101.84 1538.71 2101.84 1531.6 Q2101.84 1524.47 2100.01 1520.93 Q2098.2 1517.37 2094.57 1517.37 M2094.57 1513.66 Q2100.38 1513.66 2103.43 1518.27 Q2106.51 1522.85 2106.51 1531.6 Q2106.51 1540.33 2103.43 1544.94 Q2100.38 1549.52 2094.57 1549.52 Q2088.76 1549.52 2085.68 1544.94 Q2082.62 1540.33 2082.62 1531.6 Q2082.62 1522.85 2085.68 1518.27 Q2088.76 1513.66 2094.57 1513.66 Z" fill="#000000" fill-rule="nonzero" fill-opacity="1" /><path clip-path="url(#clip900)" d="M2125.31 1529.7 Q2122.16 1529.7 2120.31 1531.86 Q2118.48 1534.01 2118.48 1537.76 Q2118.48 1541.49 2120.31 1543.66 Q2122.16 1545.82 2125.31 1545.82 Q2128.46 1545.82 2130.29 1543.66 Q2132.14 1541.49 2132.14 1537.76 Q2132.14 1534.01 2130.29 1531.86 Q2128.46 1529.7 2125.31 1529.7 M2134.59 1515.05 L2134.59 1519.31 Q2132.83 1518.48 2131.03 1518.04 Q2129.24 1517.6 2127.49 1517.6 Q2122.86 1517.6 2120.4 1520.72 Q2117.97 1523.85 2117.62 1530.17 Q2118.99 1528.15 2121.05 1527.09 Q2123.11 1526 2125.59 1526 Q2130.8 1526 2133.8 1529.17 Q2136.84 1532.32 2136.84 1537.76 Q2136.84 1543.08 2133.69 1546.3 Q2130.54 1549.52 2125.31 1549.52 Q2119.31 1549.52 2116.14 1544.94 Q2112.97 1540.33 2112.97 1531.6 Q2112.97 1523.41 2116.86 1518.55 Q2120.75 1513.66 2127.3 1513.66 Q2129.06 1513.66 2130.84 1514.01 Q2132.65 1514.36 2134.59 1515.05 Z" fill="#000000" fill-rule="nonzero" fill-opacity="1" /><polyline clip-path="url(#clip902)" style="stroke:#000000; stroke-linecap:round; stroke-linejoin:round; stroke-width:2; stroke-opacity:0.1; fill:none" points="186.76,1407.25 2352.76,1407.25 "/>
<polyline clip-path="url(#clip902)" style="stroke:#000000; stroke-linecap:round; stroke-linejoin:round; stroke-width:2; stroke-opacity:0.1; fill:none" points="186.76,1131.7 2352.76,1131.7 "/>
<polyline clip-path="url(#clip902)" style="stroke:#000000; stroke-linecap:round; stroke-linejoin:round; stroke-width:2; stroke-opacity:0.1; fill:none" points="186.76,856.153 2352.76,856.153 "/>
<polyline clip-path="url(#clip902)" style="stroke:#000000; stroke-linecap:round; stroke-linejoin:round; stroke-width:2; stroke-opacity:0.1; fill:none" points="186.76,580.606 2352.76,580.606 "/>
<polyline clip-path="url(#clip902)" style="stroke:#000000; stroke-linecap:round; stroke-linejoin:round; stroke-width:2; stroke-opacity:0.1; fill:none" points="186.76,305.06 2352.76,305.06 "/>
<polyline clip-path="url(#clip900)" style="stroke:#000000; stroke-linecap:round; stroke-linejoin:round; stroke-width:4; stroke-opacity:1; fill:none" points="186.76,1486.45 186.76,47.2441 "/>
<polyline clip-path="url(#clip900)" style="stroke:#000000; stroke-linecap:round; stroke-linejoin:round; stroke-width:4; stroke-opacity:1; fill:none" points="186.76,1407.25 205.658,1407.25 "/>
<polyline clip-path="url(#clip900)" style="stroke:#000000; stroke-linecap:round; stroke-linejoin:round; stroke-width:4; stroke-opacity:1; fill:none" points="186.76,1131.7 205.658,1131.7 "/>
<polyline clip-path="url(#clip900)" style="stroke:#000000; stroke-linecap:round; stroke-linejoin:round; stroke-width:4; stroke-opacity:1; fill:none" points="186.76,856.153 205.658,856.153 "/>
<polyline clip-path="url(#clip900)" style="stroke:#000000; stroke-linecap:round; stroke-linejoin:round; stroke-width:4; stroke-opacity:1; fill:none" points="186.76,580.606 205.658,580.606 "/>
<polyline clip-path="url(#clip900)" style="stroke:#000000; stroke-linecap:round; stroke-linejoin:round; stroke-width:4; stroke-opacity:1; fill:none" points="186.76,305.06 205.658,305.06 "/>
<path clip-path="url(#clip900)" d="M62.9365 1393.04 Q59.3254 1393.04 57.4967 1396.61 Q55.6912 1400.15 55.6912 1407.28 Q55.6912 1414.39 57.4967 1417.95 Q59.3254 1421.49 62.9365 1421.49 Q66.5707 1421.49 68.3763 1417.95 Q70.205 1414.39 70.205 1407.28 Q70.205 1400.15 68.3763 1396.61 Q66.5707 1393.04 62.9365 1393.04 M62.9365 1389.34 Q68.7467 1389.34 71.8022 1393.95 Q74.8809 1398.53 74.8809 1407.28 Q74.8809 1416.01 71.8022 1420.61 Q68.7467 1425.2 62.9365 1425.2 Q57.1264 1425.2 54.0477 1420.61 Q50.9921 1416.01 50.9921 1407.28 Q50.9921 1398.53 54.0477 1393.95 Q57.1264 1389.34 62.9365 1389.34 Z" fill="#000000" fill-rule="nonzero" fill-opacity="1" /><path clip-path="url(#clip900)" d="M83.0984 1418.65 L87.9827 1418.65 L87.9827 1424.53 L83.0984 1424.53 L83.0984 1418.65 Z" fill="#000000" fill-rule="nonzero" fill-opacity="1" /><path clip-path="url(#clip900)" d="M108.168 1393.04 Q104.557 1393.04 102.728 1396.61 Q100.922 1400.15 100.922 1407.28 Q100.922 1414.39 102.728 1417.95 Q104.557 1421.49 108.168 1421.49 Q111.802 1421.49 113.608 1417.95 Q115.436 1414.39 115.436 1407.28 Q115.436 1400.15 113.608 1396.61 Q111.802 1393.04 108.168 1393.04 M108.168 1389.34 Q113.978 1389.34 117.033 1393.95 Q120.112 1398.53 120.112 1407.28 Q120.112 1416.01 117.033 1420.61 Q113.978 1425.2 108.168 1425.2 Q102.358 1425.2 99.2789 1420.61 Q96.2234 1416.01 96.2234 1407.28 Q96.2234 1398.53 99.2789 1393.95 Q102.358 1389.34 108.168 1389.34 Z" fill="#000000" fill-rule="nonzero" fill-opacity="1" /><path clip-path="url(#clip900)" d="M141.177 1394.04 L129.371 1412.49 L141.177 1412.49 L141.177 1394.04 M139.95 1389.97 L145.83 1389.97 L145.83 1412.49 L150.76 1412.49 L150.76 1416.38 L145.83 1416.38 L145.83 1424.53 L141.177 1424.53 L141.177 1416.38 L125.575 1416.38 L125.575 1411.86 L139.95 1389.97 Z" fill="#000000" fill-rule="nonzero" fill-opacity="1" /><path clip-path="url(#clip900)" d="M63.2606 1117.5 Q59.6495 1117.5 57.8208 1121.06 Q56.0152 1124.6 56.0152 1131.73 Q56.0152 1138.84 57.8208 1142.4 Q59.6495 1145.95 63.2606 1145.95 Q66.8948 1145.95 68.7004 1142.4 Q70.5291 1138.84 70.5291 1131.73 Q70.5291 1124.6 68.7004 1121.06 Q66.8948 1117.5 63.2606 1117.5 M63.2606 1113.79 Q69.0707 1113.79 72.1263 1118.4 Q75.205 1122.98 75.205 1131.73 Q75.205 1140.46 72.1263 1145.07 Q69.0707 1149.65 63.2606 1149.65 Q57.4504 1149.65 54.3717 1145.07 Q51.3162 1140.46 51.3162 1131.73 Q51.3162 1122.98 54.3717 1118.4 Q57.4504 1113.79 63.2606 1113.79 Z" fill="#000000" fill-rule="nonzero" fill-opacity="1" /><path clip-path="url(#clip900)" d="M83.4225 1143.1 L88.3067 1143.1 L88.3067 1148.98 L83.4225 1148.98 L83.4225 1143.1 Z" fill="#000000" fill-rule="nonzero" fill-opacity="1" /><path clip-path="url(#clip900)" d="M108.492 1117.5 Q104.881 1117.5 103.052 1121.06 Q101.246 1124.6 101.246 1131.73 Q101.246 1138.84 103.052 1142.4 Q104.881 1145.95 108.492 1145.95 Q112.126 1145.95 113.932 1142.4 Q115.76 1138.84 115.76 1131.73 Q115.76 1124.6 113.932 1121.06 Q112.126 1117.5 108.492 1117.5 M108.492 1113.79 Q114.302 1113.79 117.358 1118.4 Q120.436 1122.98 120.436 1131.73 Q120.436 1140.46 117.358 1145.07 Q114.302 1149.65 108.492 1149.65 Q102.682 1149.65 99.603 1145.07 Q96.5474 1140.46 96.5474 1131.73 Q96.5474 1122.98 99.603 1118.4 Q102.682 1113.79 108.492 1113.79 Z" fill="#000000" fill-rule="nonzero" fill-opacity="1" /><path clip-path="url(#clip900)" d="M139.232 1129.84 Q136.084 1129.84 134.232 1131.99 Q132.404 1134.14 132.404 1137.89 Q132.404 1141.62 134.232 1143.79 Q136.084 1145.95 139.232 1145.95 Q142.381 1145.95 144.209 1143.79 Q146.061 1141.62 146.061 1137.89 Q146.061 1134.14 144.209 1131.99 Q142.381 1129.84 139.232 1129.84 M148.515 1115.18 L148.515 1119.44 Q146.756 1118.61 144.95 1118.17 Q143.168 1117.73 141.408 1117.73 Q136.779 1117.73 134.325 1120.85 Q131.894 1123.98 131.547 1130.3 Q132.913 1128.28 134.973 1127.22 Q137.033 1126.13 139.51 1126.13 Q144.718 1126.13 147.728 1129.3 Q150.76 1132.45 150.76 1137.89 Q150.76 1143.22 147.612 1146.43 Q144.464 1149.65 139.232 1149.65 Q133.237 1149.65 130.066 1145.07 Q126.894 1140.46 126.894 1131.73 Q126.894 1123.54 130.783 1118.68 Q134.672 1113.79 141.223 1113.79 Q142.982 1113.79 144.765 1114.14 Q146.57 1114.49 148.515 1115.18 Z" fill="#000000" fill-rule="nonzero" fill-opacity="1" /><path clip-path="url(#clip900)" d="M63.5152 841.951 Q59.9041 841.951 58.0754 845.516 Q56.2699 849.058 56.2699 856.187 Q56.2699 863.294 58.0754 866.858 Q59.9041 870.4 63.5152 870.4 Q67.1494 870.4 68.955 866.858 Q70.7837 863.294 70.7837 856.187 Q70.7837 849.058 68.955 845.516 Q67.1494 841.951 63.5152 841.951 M63.5152 838.248 Q69.3254 838.248 72.3809 842.854 Q75.4596 847.437 75.4596 856.187 Q75.4596 864.914 72.3809 869.521 Q69.3254 874.104 63.5152 874.104 Q57.7051 874.104 54.6264 869.521 Q51.5708 864.914 51.5708 856.187 Q51.5708 847.437 54.6264 842.854 Q57.7051 838.248 63.5152 838.248 Z" fill="#000000" fill-rule="nonzero" fill-opacity="1" /><path clip-path="url(#clip900)" d="M83.6771 867.553 L88.5614 867.553 L88.5614 873.433 L83.6771 873.433 L83.6771 867.553 Z" fill="#000000" fill-rule="nonzero" fill-opacity="1" /><path clip-path="url(#clip900)" d="M108.746 841.951 Q105.135 841.951 103.307 845.516 Q101.501 849.058 101.501 856.187 Q101.501 863.294 103.307 866.858 Q105.135 870.4 108.746 870.4 Q112.381 870.4 114.186 866.858 Q116.015 863.294 116.015 856.187 Q116.015 849.058 114.186 845.516 Q112.381 841.951 108.746 841.951 M108.746 838.248 Q114.557 838.248 117.612 842.854 Q120.691 847.437 120.691 856.187 Q120.691 864.914 117.612 869.521 Q114.557 874.104 108.746 874.104 Q102.936 874.104 99.8576 869.521 Q96.8021 864.914 96.8021 856.187 Q96.8021 847.437 99.8576 842.854 Q102.936 838.248 108.746 838.248 Z" fill="#000000" fill-rule="nonzero" fill-opacity="1" /><path clip-path="url(#clip900)" d="M138.908 857.021 Q135.575 857.021 133.654 858.803 Q131.756 860.585 131.756 863.71 Q131.756 866.835 133.654 868.618 Q135.575 870.4 138.908 870.4 Q142.242 870.4 144.163 868.618 Q146.084 866.812 146.084 863.71 Q146.084 860.585 144.163 858.803 Q142.265 857.021 138.908 857.021 M134.232 855.03 Q131.223 854.289 129.533 852.229 Q127.867 850.169 127.867 847.206 Q127.867 843.062 130.807 840.655 Q133.769 838.248 138.908 838.248 Q144.07 838.248 147.01 840.655 Q149.95 843.062 149.95 847.206 Q149.95 850.169 148.26 852.229 Q146.593 854.289 143.607 855.03 Q146.987 855.817 148.862 858.109 Q150.76 860.4 150.76 863.71 Q150.76 868.733 147.681 871.419 Q144.626 874.104 138.908 874.104 Q133.191 874.104 130.112 871.419 Q127.057 868.733 127.057 863.71 Q127.057 860.4 128.955 858.109 Q130.853 855.817 134.232 855.03 M132.519 847.646 Q132.519 850.331 134.186 851.835 Q135.876 853.34 138.908 853.34 Q141.918 853.34 143.607 851.835 Q145.32 850.331 145.32 847.646 Q145.32 844.96 143.607 843.456 Q141.918 841.951 138.908 841.951 Q135.876 841.951 134.186 843.456 Q132.519 844.96 132.519 847.646 Z" fill="#000000" fill-rule="nonzero" fill-opacity="1" /><path clip-path="url(#clip900)" d="M63.4226 566.405 Q59.8115 566.405 57.9828 569.97 Q56.1773 573.511 56.1773 580.641 Q56.1773 587.747 57.9828 591.312 Q59.8115 594.854 63.4226 594.854 Q67.0569 594.854 68.8624 591.312 Q70.6911 587.747 70.6911 580.641 Q70.6911 573.511 68.8624 569.97 Q67.0569 566.405 63.4226 566.405 M63.4226 562.701 Q69.2328 562.701 72.2883 567.308 Q75.367 571.891 75.367 580.641 Q75.367 589.368 72.2883 593.974 Q69.2328 598.557 63.4226 598.557 Q57.6125 598.557 54.5338 593.974 Q51.4782 589.368 51.4782 580.641 Q51.4782 571.891 54.5338 567.308 Q57.6125 562.701 63.4226 562.701 Z" fill="#000000" fill-rule="nonzero" fill-opacity="1" /><path clip-path="url(#clip900)" d="M83.5845 592.007 L88.4688 592.007 L88.4688 597.886 L83.5845 597.886 L83.5845 592.007 Z" fill="#000000" fill-rule="nonzero" fill-opacity="1" /><path clip-path="url(#clip900)" d="M99.4641 593.951 L107.103 593.951 L107.103 567.585 L98.7928 569.252 L98.7928 564.993 L107.057 563.326 L111.733 563.326 L111.733 593.951 L119.371 593.951 L119.371 597.886 L99.4641 597.886 L99.4641 593.951 Z" fill="#000000" fill-rule="nonzero" fill-opacity="1" /><path clip-path="url(#clip900)" d="M138.816 566.405 Q135.205 566.405 133.376 569.97 Q131.57 573.511 131.57 580.641 Q131.57 587.747 133.376 591.312 Q135.205 594.854 138.816 594.854 Q142.45 594.854 144.256 591.312 Q146.084 587.747 146.084 580.641 Q146.084 573.511 144.256 569.97 Q142.45 566.405 138.816 566.405 M138.816 562.701 Q144.626 562.701 147.681 567.308 Q150.76 571.891 150.76 580.641 Q150.76 589.368 147.681 593.974 Q144.626 598.557 138.816 598.557 Q133.006 598.557 129.927 593.974 Q126.871 589.368 126.871 580.641 Q126.871 571.891 129.927 567.308 Q133.006 562.701 138.816 562.701 Z" fill="#000000" fill-rule="nonzero" fill-opacity="1" /><path clip-path="url(#clip900)" d="M65.0198 290.858 Q61.4087 290.858 59.58 294.423 Q57.7745 297.965 57.7745 305.095 Q57.7745 312.201 59.58 315.766 Q61.4087 319.307 65.0198 319.307 Q68.6541 319.307 70.4596 315.766 Q72.2883 312.201 72.2883 305.095 Q72.2883 297.965 70.4596 294.423 Q68.6541 290.858 65.0198 290.858 M65.0198 287.155 Q70.83 287.155 73.8855 291.761 Q76.9642 296.345 76.9642 305.095 Q76.9642 313.821 73.8855 318.428 Q70.83 323.011 65.0198 323.011 Q59.2097 323.011 56.131 318.428 Q53.0754 313.821 53.0754 305.095 Q53.0754 296.345 56.131 291.761 Q59.2097 287.155 65.0198 287.155 Z" fill="#000000" fill-rule="nonzero" fill-opacity="1" /><path clip-path="url(#clip900)" d="M85.1818 316.46 L90.066 316.46 L90.066 322.34 L85.1818 322.34 L85.1818 316.46 Z" fill="#000000" fill-rule="nonzero" fill-opacity="1" /><path clip-path="url(#clip900)" d="M101.061 318.405 L108.7 318.405 L108.7 292.039 L100.39 293.706 L100.39 289.446 L108.654 287.78 L113.33 287.78 L113.33 318.405 L120.969 318.405 L120.969 322.34 L101.061 322.34 L101.061 318.405 Z" fill="#000000" fill-rule="nonzero" fill-opacity="1" /><path clip-path="url(#clip900)" d="M134.441 318.405 L150.76 318.405 L150.76 322.34 L128.816 322.34 L128.816 318.405 Q131.478 315.65 136.061 311.02 Q140.668 306.368 141.848 305.025 Q144.093 302.502 144.973 300.766 Q145.876 299.007 145.876 297.317 Q145.876 294.562 143.931 292.826 Q142.01 291.09 138.908 291.09 Q136.709 291.09 134.256 291.854 Q131.825 292.618 129.047 294.169 L129.047 289.446 Q131.871 288.312 134.325 287.733 Q136.779 287.155 138.816 287.155 Q144.186 287.155 147.38 289.84 Q150.575 292.525 150.575 297.016 Q150.575 299.145 149.765 301.067 Q148.978 302.965 146.871 305.557 Q146.293 306.229 143.191 309.446 Q140.089 312.641 134.441 318.405 Z" fill="#000000" fill-rule="nonzero" fill-opacity="1" /><polyline clip-path="url(#clip902)" style="stroke:#009af9; stroke-linecap:round; stroke-linejoin:round; stroke-width:4; stroke-opacity:1; fill:none" points="248.062,1314.8 758.91,1148.71 1269.76,1111.96 1780.61,1021.08 2291.45,87.9763 "/>
<polyline clip-path="url(#clip902)" style="stroke:#e26f46; stroke-linecap:round; stroke-linejoin:round; stroke-width:4; stroke-opacity:1; fill:none" points="248.062,1346.14 758.91,1365.58 1269.76,1377.23 1780.61,1382.1 2291.45,1445.72 "/>
<path clip-path="url(#clip900)" d="M258.96 250.738 L686.878 250.738 L686.878 95.2176 L258.96 95.2176  Z" fill="#ffffff" fill-rule="evenodd" fill-opacity="1"/>
<polyline clip-path="url(#clip900)" style="stroke:#000000; stroke-linecap:round; stroke-linejoin:round; stroke-width:4; stroke-opacity:1; fill:none" points="258.96,250.738 686.878,250.738 686.878,95.2176 258.96,95.2176 258.96,250.738 "/>
<polyline clip-path="url(#clip900)" style="stroke:#009af9; stroke-linecap:round; stroke-linejoin:round; stroke-width:4; stroke-opacity:1; fill:none" points="283.027,147.058 427.426,147.058 "/>
<path clip-path="url(#clip900)" d="M451.493 129.778 L456.169 129.778 L456.169 143.944 L473.159 143.944 L473.159 129.778 L477.835 129.778 L477.835 164.338 L473.159 164.338 L473.159 147.879 L456.169 147.879 L456.169 164.338 L451.493 164.338 L451.493 129.778 Z" fill="#000000" fill-rule="nonzero" fill-opacity="1" /><path clip-path="url(#clip900)" d="M486.516 154.106 L486.516 138.412 L490.775 138.412 L490.775 153.944 Q490.775 157.625 492.21 159.476 Q493.645 161.305 496.516 161.305 Q499.965 161.305 501.956 159.106 Q503.97 156.907 503.97 153.111 L503.97 138.412 L508.229 138.412 L508.229 164.338 L503.97 164.338 L503.97 160.356 Q502.419 162.717 500.358 163.875 Q498.321 165.009 495.613 165.009 Q491.145 165.009 488.831 162.231 Q486.516 159.453 486.516 154.106 M497.233 137.787 L497.233 137.787 Z" fill="#000000" fill-rule="nonzero" fill-opacity="1" /><path clip-path="url(#clip900)" d="M535.613 151.398 Q535.613 146.699 533.668 144.037 Q531.747 141.352 528.368 141.352 Q524.988 141.352 523.043 144.037 Q521.122 146.699 521.122 151.398 Q521.122 156.097 523.043 158.782 Q524.988 161.444 528.368 161.444 Q531.747 161.444 533.668 158.782 Q535.613 156.097 535.613 151.398 M521.122 142.347 Q522.465 140.032 524.502 138.921 Q526.562 137.787 529.409 137.787 Q534.131 137.787 537.071 141.537 Q540.034 145.287 540.034 151.398 Q540.034 157.509 537.071 161.259 Q534.131 165.009 529.409 165.009 Q526.562 165.009 524.502 163.898 Q522.465 162.763 521.122 160.449 L521.122 164.338 L516.84 164.338 L516.84 128.319 L521.122 128.319 L521.122 142.347 Z" fill="#000000" fill-rule="nonzero" fill-opacity="1" /><path clip-path="url(#clip900)" d="M569.27 150.31 L569.27 152.393 L549.687 152.393 Q549.965 156.791 552.326 159.106 Q554.71 161.398 558.946 161.398 Q561.4 161.398 563.691 160.796 Q566.006 160.194 568.275 158.99 L568.275 163.018 Q565.983 163.99 563.576 164.5 Q561.168 165.009 558.691 165.009 Q552.488 165.009 548.854 161.398 Q545.242 157.787 545.242 151.629 Q545.242 145.264 548.668 141.537 Q552.117 137.787 557.951 137.787 Q563.182 137.787 566.215 141.166 Q569.27 144.523 569.27 150.31 M565.011 149.06 Q564.965 145.565 563.043 143.481 Q561.145 141.398 557.997 141.398 Q554.432 141.398 552.279 143.412 Q550.15 145.426 549.826 149.083 L565.011 149.06 Z" fill="#000000" fill-rule="nonzero" fill-opacity="1" /><path clip-path="url(#clip900)" d="M591.284 142.393 Q590.566 141.977 589.71 141.791 Q588.876 141.583 587.858 141.583 Q584.247 141.583 582.302 143.944 Q580.381 146.282 580.381 150.68 L580.381 164.338 L576.099 164.338 L576.099 138.412 L580.381 138.412 L580.381 142.44 Q581.724 140.078 583.876 138.944 Q586.029 137.787 589.108 137.787 Q589.548 137.787 590.08 137.856 Q590.613 137.903 591.261 138.018 L591.284 142.393 Z" fill="#000000" fill-rule="nonzero" fill-opacity="1" /><polyline clip-path="url(#clip900)" style="stroke:#e26f46; stroke-linecap:round; stroke-linejoin:round; stroke-width:4; stroke-opacity:1; fill:none" points="283.027,198.898 427.426,198.898 "/>
<path clip-path="url(#clip900)" d="M456.169 185.46 L456.169 198.446 L462.048 198.446 Q465.312 198.446 467.095 196.756 Q468.877 195.067 468.877 191.942 Q468.877 188.84 467.095 187.15 Q465.312 185.46 462.048 185.46 L456.169 185.46 M451.493 181.618 L462.048 181.618 Q467.859 181.618 470.822 184.256 Q473.808 186.872 473.808 191.942 Q473.808 197.057 470.822 199.673 Q467.859 202.289 462.048 202.289 L456.169 202.289 L456.169 216.178 L451.493 216.178 L451.493 181.618 Z" fill="#000000" fill-rule="nonzero" fill-opacity="1" /><path clip-path="url(#clip900)" d="M494.085 194.233 Q493.368 193.817 492.511 193.631 Q491.678 193.423 490.659 193.423 Q487.048 193.423 485.104 195.784 Q483.183 198.122 483.183 202.52 L483.183 216.178 L478.9 216.178 L478.9 190.252 L483.183 190.252 L483.183 194.28 Q484.525 191.918 486.678 190.784 Q488.831 189.627 491.909 189.627 Q492.349 189.627 492.882 189.696 Q493.414 189.743 494.062 189.858 L494.085 194.233 Z" fill="#000000" fill-rule="nonzero" fill-opacity="1" /><path clip-path="url(#clip900)" d="M519.687 202.15 L519.687 204.233 L500.104 204.233 Q500.382 208.631 502.743 210.946 Q505.127 213.238 509.363 213.238 Q511.817 213.238 514.108 212.636 Q516.423 212.034 518.692 210.83 L518.692 214.858 Q516.4 215.83 513.993 216.34 Q511.585 216.849 509.108 216.849 Q502.905 216.849 499.27 213.238 Q495.659 209.627 495.659 203.469 Q495.659 197.104 499.085 193.377 Q502.534 189.627 508.368 189.627 Q513.599 189.627 516.631 193.006 Q519.687 196.363 519.687 202.15 M515.428 200.9 Q515.381 197.405 513.46 195.321 Q511.562 193.238 508.414 193.238 Q504.849 193.238 502.696 195.252 Q500.567 197.266 500.243 200.923 L515.428 200.9 Z" fill="#000000" fill-rule="nonzero" fill-opacity="1" /><path clip-path="url(#clip900)" d="M543.205 191.016 L543.205 195.043 Q541.4 194.117 539.455 193.655 Q537.511 193.192 535.428 193.192 Q532.256 193.192 530.659 194.164 Q529.085 195.136 529.085 197.08 Q529.085 198.562 530.219 199.418 Q531.354 200.252 534.78 201.016 L536.238 201.34 Q540.775 202.312 542.673 204.094 Q544.594 205.854 544.594 209.025 Q544.594 212.636 541.724 214.742 Q538.877 216.849 533.877 216.849 Q531.793 216.849 529.525 216.432 Q527.28 216.039 524.78 215.228 L524.78 210.83 Q527.141 212.057 529.432 212.682 Q531.724 213.284 533.969 213.284 Q536.979 213.284 538.599 212.266 Q540.219 211.224 540.219 209.349 Q540.219 207.613 539.039 206.687 Q537.881 205.761 533.923 204.904 L532.442 204.557 Q528.483 203.724 526.724 202.011 Q524.965 200.275 524.965 197.266 Q524.965 193.608 527.557 191.618 Q530.15 189.627 534.918 189.627 Q537.28 189.627 539.363 189.974 Q541.446 190.321 543.205 191.016 Z" fill="#000000" fill-rule="nonzero" fill-opacity="1" /><path clip-path="url(#clip900)" d="M570.034 191.247 L570.034 195.229 Q568.228 194.233 566.4 193.747 Q564.594 193.238 562.742 193.238 Q558.599 193.238 556.307 195.877 Q554.016 198.492 554.016 203.238 Q554.016 207.983 556.307 210.622 Q558.599 213.238 562.742 213.238 Q564.594 213.238 566.4 212.752 Q568.228 212.242 570.034 211.247 L570.034 215.182 Q568.252 216.016 566.33 216.432 Q564.432 216.849 562.279 216.849 Q556.423 216.849 552.974 213.168 Q549.525 209.488 549.525 203.238 Q549.525 196.895 552.997 193.261 Q556.492 189.627 562.557 189.627 Q564.525 189.627 566.4 190.043 Q568.275 190.437 570.034 191.247 Z" fill="#000000" fill-rule="nonzero" fill-opacity="1" /><path clip-path="url(#clip900)" d="M577.441 190.252 L581.701 190.252 L581.701 216.178 L577.441 216.178 L577.441 190.252 M577.441 180.159 L581.701 180.159 L581.701 185.553 L577.441 185.553 L577.441 180.159 Z" fill="#000000" fill-rule="nonzero" fill-opacity="1" /><path clip-path="url(#clip900)" d="M612.788 202.15 L612.788 204.233 L593.205 204.233 Q593.483 208.631 595.844 210.946 Q598.228 213.238 602.464 213.238 Q604.918 213.238 607.21 212.636 Q609.524 212.034 611.793 210.83 L611.793 214.858 Q609.501 215.83 607.094 216.34 Q604.687 216.849 602.21 216.849 Q596.006 216.849 592.372 213.238 Q588.761 209.627 588.761 203.469 Q588.761 197.104 592.187 193.377 Q595.636 189.627 601.469 189.627 Q606.7 189.627 609.733 193.006 Q612.788 196.363 612.788 202.15 M608.529 200.9 Q608.483 197.405 606.562 195.321 Q604.663 193.238 601.515 193.238 Q597.95 193.238 595.798 195.252 Q593.668 197.266 593.344 200.923 L608.529 200.9 Z" fill="#000000" fill-rule="nonzero" fill-opacity="1" /><path clip-path="url(#clip900)" d="M641.33 200.529 L641.33 216.178 L637.071 216.178 L637.071 200.668 Q637.071 196.988 635.635 195.159 Q634.2 193.33 631.33 193.33 Q627.881 193.33 625.89 195.53 Q623.899 197.729 623.899 201.525 L623.899 216.178 L619.617 216.178 L619.617 190.252 L623.899 190.252 L623.899 194.28 Q625.427 191.942 627.487 190.784 Q629.571 189.627 632.279 189.627 Q636.747 189.627 639.038 192.405 Q641.33 195.159 641.33 200.529 Z" fill="#000000" fill-rule="nonzero" fill-opacity="1" /><path clip-path="url(#clip900)" d="M654.038 182.891 L654.038 190.252 L662.811 190.252 L662.811 193.562 L654.038 193.562 L654.038 207.636 Q654.038 210.807 654.895 211.71 Q655.774 212.613 658.436 212.613 L662.811 212.613 L662.811 216.178 L658.436 216.178 Q653.506 216.178 651.631 214.349 Q649.756 212.497 649.756 207.636 L649.756 193.562 L646.631 193.562 L646.631 190.252 L649.756 190.252 L649.756 182.891 L654.038 182.891 Z" fill="#000000" fill-rule="nonzero" fill-opacity="1" /></svg>
