<?xml version="1.0" encoding="utf-8"?>
<svg xmlns="http://www.w3.org/2000/svg" xmlns:xlink="http://www.w3.org/1999/xlink" width="600" height="400" viewBox="0 0 2400 1600">
<defs>
  <clipPath id="clip930">
    <rect x="0" y="0" width="2400" height="1600"/>
  </clipPath>
</defs>
<path clip-path="url(#clip930)" d="M0 1600 L2400 1600 L2400 0 L0 0  Z" fill="#ffffff" fill-rule="evenodd" fill-opacity="1"/>
<defs>
  <clipPath id="clip931">
    <rect x="480" y="0" width="1681" height="1600"/>
  </clipPath>
</defs>
<path clip-path="url(#clip930)" d="M369.703 1423.18 L2352.76 1423.18 L2352.76 47.2441 L369.703 47.2441  Z" fill="#ffffff" fill-rule="evenodd" fill-opacity="1"/>
<defs>
  <clipPath id="clip932">
    <rect x="369" y="47" width="1984" height="1377"/>
  </clipPath>
</defs>
<polyline clip-path="url(#clip932)" style="stroke:#000000; stroke-linecap:round; stroke-linejoin:round; stroke-width:2; stroke-opacity:0.1; fill:none" points="751.185,1423.18 751.185,47.2441 "/>
<polyline clip-path="url(#clip932)" style="stroke:#000000; stroke-linecap:round; stroke-linejoin:round; stroke-width:2; stroke-opacity:0.1; fill:none" points="1157.88,1423.18 1157.88,47.2441 "/>
<polyline clip-path="url(#clip932)" style="stroke:#000000; stroke-linecap:round; stroke-linejoin:round; stroke-width:2; stroke-opacity:0.1; fill:none" points="1564.58,1423.18 1564.58,47.2441 "/>
<polyline clip-path="url(#clip932)" style="stroke:#000000; stroke-linecap:round; stroke-linejoin:round; stroke-width:2; stroke-opacity:0.1; fill:none" points="1971.27,1423.18 1971.27,47.2441 "/>
<polyline clip-path="url(#clip932)" style="stroke:#000000; stroke-linecap:round; stroke-linejoin:round; stroke-width:2; stroke-opacity:0.1; fill:none" points="369.703,1384.24 2352.76,1384.24 "/>
<polyline clip-path="url(#clip932)" style="stroke:#000000; stroke-linecap:round; stroke-linejoin:round; stroke-width:2; stroke-opacity:0.1; fill:none" points="369.703,1058.97 2352.76,1058.97 "/>
<polyline clip-path="url(#clip932)" style="stroke:#000000; stroke-linecap:round; stroke-linejoin:round; stroke-width:2; stroke-opacity:0.1; fill:none" points="369.703,733.695 2352.76,733.695 "/>
<polyline clip-path="url(#clip932)" style="stroke:#000000; stroke-linecap:round; stroke-linejoin:round; stroke-width:2; stroke-opacity:0.1; fill:none" points="369.703,408.424 2352.76,408.424 "/>
<polyline clip-path="url(#clip932)" style="stroke:#000000; stroke-linecap:round; stroke-linejoin:round; stroke-width:2; stroke-opacity:0.1; fill:none" points="369.703,83.1525 2352.76,83.1525 "/>
<polyline clip-path="url(#clip930)" style="stroke:#000000; stroke-linecap:round; stroke-linejoin:round; stroke-width:4; stroke-opacity:1; fill:none" points="369.703,1423.18 2352.76,1423.18 "/>
<polyline clip-path="url(#clip930)" style="stroke:#000000; stroke-linecap:round; stroke-linejoin:round; stroke-width:4; stroke-opacity:1; fill:none" points="751.185,1423.18 751.185,1404.28 "/>
<polyline clip-path="url(#clip930)" style="stroke:#000000; stroke-linecap:round; stroke-linejoin:round; stroke-width:4; stroke-opacity:1; fill:none" points="1157.88,1423.18 1157.88,1404.28 "/>
<polyline clip-path="url(#clip930)" style="stroke:#000000; stroke-linecap:round; stroke-linejoin:round; stroke-width:4; stroke-opacity:1; fill:none" points="1564.58,1423.18 1564.58,1404.28 "/>
<polyline clip-path="url(#clip930)" style="stroke:#000000; stroke-linecap:round; stroke-linejoin:round; stroke-width:4; stroke-opacity:1; fill:none" points="1971.27,1423.18 1971.27,1404.28 "/>
<path clip-path="url(#clip930)" d="M741.463 1451.02 L759.819 1451.02 L759.819 1454.96 L745.745 1454.96 L745.745 1463.43 Q746.764 1463.08 747.782 1462.92 Q748.801 1462.73 749.819 1462.73 Q755.606 1462.73 758.986 1465.9 Q762.365 1469.08 762.365 1474.49 Q762.365 1480.07 758.893 1483.17 Q755.421 1486.25 749.101 1486.25 Q746.926 1486.25 744.657 1485.88 Q742.412 1485.51 740.004 1484.77 L740.004 1480.07 Q742.088 1481.2 744.31 1481.76 Q746.532 1482.32 749.009 1482.32 Q753.014 1482.32 755.351 1480.21 Q757.689 1478.1 757.689 1474.49 Q757.689 1470.88 755.351 1468.77 Q753.014 1466.67 749.009 1466.67 Q747.134 1466.67 745.259 1467.08 Q743.407 1467.5 741.463 1468.38 L741.463 1451.02 Z" fill="#000000" fill-rule="nonzero" fill-opacity="1" /><path clip-path="url(#clip930)" d="M1132.57 1481.64 L1140.21 1481.64 L1140.21 1455.28 L1131.9 1456.95 L1131.9 1452.69 L1140.16 1451.02 L1144.84 1451.02 L1144.84 1481.64 L1152.48 1481.64 L1152.48 1485.58 L1132.57 1485.58 L1132.57 1481.64 Z" fill="#000000" fill-rule="nonzero" fill-opacity="1" /><path clip-path="url(#clip930)" d="M1171.92 1454.1 Q1168.31 1454.1 1166.48 1457.66 Q1164.68 1461.2 1164.68 1468.33 Q1164.68 1475.44 1166.48 1479.01 Q1168.31 1482.55 1171.92 1482.55 Q1175.55 1482.55 1177.36 1479.01 Q1179.19 1475.44 1179.19 1468.33 Q1179.19 1461.2 1177.36 1457.66 Q1175.55 1454.1 1171.92 1454.1 M1171.92 1450.39 Q1177.73 1450.39 1180.79 1455 Q1183.87 1459.58 1183.87 1468.33 Q1183.87 1477.06 1180.79 1481.67 Q1177.73 1486.25 1171.92 1486.25 Q1166.11 1486.25 1163.03 1481.67 Q1159.98 1477.06 1159.98 1468.33 Q1159.98 1459.58 1163.03 1455 Q1166.11 1450.39 1171.92 1450.39 Z" fill="#000000" fill-rule="nonzero" fill-opacity="1" /><path clip-path="url(#clip930)" d="M1539.76 1481.64 L1547.4 1481.64 L1547.4 1455.28 L1539.09 1456.95 L1539.09 1452.69 L1547.36 1451.02 L1552.03 1451.02 L1552.03 1481.64 L1559.67 1481.64 L1559.67 1485.58 L1539.76 1485.58 L1539.76 1481.64 Z" fill="#000000" fill-rule="nonzero" fill-opacity="1" /><path clip-path="url(#clip930)" d="M1569.16 1451.02 L1587.52 1451.02 L1587.52 1454.96 L1573.44 1454.96 L1573.44 1463.43 Q1574.46 1463.08 1575.48 1462.92 Q1576.5 1462.73 1577.52 1462.73 Q1583.3 1462.73 1586.68 1465.9 Q1590.06 1469.08 1590.06 1474.49 Q1590.06 1480.07 1586.59 1483.17 Q1583.12 1486.25 1576.8 1486.25 Q1574.62 1486.25 1572.36 1485.88 Q1570.11 1485.51 1567.7 1484.77 L1567.7 1480.07 Q1569.79 1481.2 1572.01 1481.76 Q1574.23 1482.32 1576.71 1482.32 Q1580.71 1482.32 1583.05 1480.21 Q1585.39 1478.1 1585.39 1474.49 Q1585.39 1470.88 1583.05 1468.77 Q1580.71 1466.67 1576.71 1466.67 Q1574.83 1466.67 1572.96 1467.08 Q1571.11 1467.5 1569.16 1468.38 L1569.16 1451.02 Z" fill="#000000" fill-rule="nonzero" fill-opacity="1" /><path clip-path="url(#clip930)" d="M1950.05 1481.64 L1966.37 1481.64 L1966.37 1485.58 L1944.42 1485.58 L1944.42 1481.64 Q1947.08 1478.89 1951.67 1474.26 Q1956.27 1469.61 1957.46 1468.27 Q1959.7 1465.74 1960.58 1464.01 Q1961.48 1462.25 1961.48 1460.56 Q1961.48 1457.8 1959.54 1456.07 Q1957.62 1454.33 1954.52 1454.33 Q1952.32 1454.33 1949.86 1455.09 Q1947.43 1455.86 1944.65 1457.41 L1944.65 1452.69 Q1947.48 1451.55 1949.93 1450.97 Q1952.39 1450.39 1954.42 1450.39 Q1959.79 1450.39 1962.99 1453.08 Q1966.18 1455.77 1966.18 1460.26 Q1966.18 1462.39 1965.37 1464.31 Q1964.58 1466.2 1962.48 1468.8 Q1961.9 1469.47 1958.8 1472.69 Q1955.7 1475.88 1950.05 1481.64 Z" fill="#000000" fill-rule="nonzero" fill-opacity="1" /><path clip-path="url(#clip930)" d="M1986.18 1454.1 Q1982.57 1454.1 1980.74 1457.66 Q1978.94 1461.2 1978.94 1468.33 Q1978.94 1475.44 1980.74 1479.01 Q1982.57 1482.55 1986.18 1482.55 Q1989.82 1482.55 1991.62 1479.01 Q1993.45 1475.44 1993.45 1468.33 Q1993.45 1461.2 1991.62 1457.66 Q1989.82 1454.1 1986.18 1454.1 M1986.18 1450.39 Q1991.99 1450.39 1995.05 1455 Q1998.13 1459.58 1998.13 1468.33 Q1998.13 1477.06 1995.05 1481.67 Q1991.99 1486.25 1986.18 1486.25 Q1980.37 1486.25 1977.29 1481.67 Q1974.24 1477.06 1974.24 1468.33 Q1974.24 1459.58 1977.29 1455 Q1980.37 1450.39 1986.18 1450.39 Z" fill="#000000" fill-rule="nonzero" fill-opacity="1" /><path clip-path="url(#clip930)" d="M1319.39 1546.53 L1319.39 1568.04 L1313.53 1568.04 L1313.53 1546.72 Q1313.53 1541.66 1311.56 1539.14 Q1309.59 1536.63 1305.64 1536.63 Q1300.9 1536.63 1298.16 1539.65 Q1295.42 1542.68 1295.42 1547.9 L1295.42 1568.04 L1289.54 1568.04 L1289.54 1518.52 L1295.42 1518.52 L1295.42 1537.93 Q1297.52 1534.72 1300.36 1533.13 Q1303.22 1531.54 1306.95 1531.54 Q1313.09 1531.54 1316.24 1535.36 Q1319.39 1539.14 1319.39 1546.53 Z" fill="#000000" fill-rule="nonzero" fill-opacity="1" /><path clip-path="url(#clip930)" d="M1344.89 1536.5 Q1340.18 1536.5 1337.44 1540.19 Q1334.7 1543.85 1334.7 1550.25 Q1334.7 1556.65 1337.41 1560.34 Q1340.14 1564 1344.89 1564 Q1349.56 1564 1352.3 1560.31 Q1355.04 1556.62 1355.04 1550.25 Q1355.04 1543.92 1352.3 1540.23 Q1349.56 1536.5 1344.89 1536.5 M1344.89 1531.54 Q1352.52 1531.54 1356.89 1536.5 Q1361.25 1541.47 1361.25 1550.25 Q1361.25 1559 1356.89 1564 Q1352.52 1568.97 1344.89 1568.97 Q1337.22 1568.97 1332.85 1564 Q1328.53 1559 1328.53 1550.25 Q1328.53 1541.47 1332.85 1536.5 Q1337.22 1531.54 1344.89 1531.54 Z" fill="#000000" fill-rule="nonzero" fill-opacity="1" /><path clip-path="url(#clip930)" d="M1370.35 1553.98 L1370.35 1532.4 L1376.2 1532.4 L1376.2 1553.75 Q1376.2 1558.81 1378.18 1561.36 Q1380.15 1563.87 1384.1 1563.87 Q1388.84 1563.87 1391.58 1560.85 Q1394.35 1557.83 1394.35 1552.61 L1394.35 1532.4 L1400.2 1532.4 L1400.2 1568.04 L1394.35 1568.04 L1394.35 1562.57 Q1392.21 1565.82 1389.38 1567.41 Q1386.58 1568.97 1382.86 1568.97 Q1376.71 1568.97 1373.53 1565.15 Q1370.35 1561.33 1370.35 1553.98 M1385.09 1531.54 L1385.09 1531.54 Z" fill="#000000" fill-rule="nonzero" fill-opacity="1" /><path clip-path="url(#clip930)" d="M1432.92 1537.87 Q1431.94 1537.3 1430.76 1537.04 Q1429.61 1536.76 1428.21 1536.76 Q1423.25 1536.76 1420.57 1540 Q1417.93 1543.22 1417.93 1549.27 L1417.93 1568.04 L1412.04 1568.04 L1412.04 1532.4 L1417.93 1532.4 L1417.93 1537.93 Q1419.78 1534.69 1422.74 1533.13 Q1425.7 1531.54 1429.93 1531.54 Q1430.54 1531.54 1431.27 1531.63 Q1432 1531.7 1432.89 1531.85 L1432.92 1537.87 Z" fill="#000000" fill-rule="nonzero" fill-opacity="1" /><polyline clip-path="url(#clip930)" style="stroke:#000000; stroke-linecap:round; stroke-linejoin:round; stroke-width:4; stroke-opacity:1; fill:none" points="369.703,1423.18 369.703,47.2441 "/>
<polyline clip-path="url(#clip930)" style="stroke:#000000; stroke-linecap:round; stroke-linejoin:round; stroke-width:4; stroke-opacity:1; fill:none" points="369.703,1384.24 388.601,1384.24 "/>
<polyline clip-path="url(#clip930)" style="stroke:#000000; stroke-linecap:round; stroke-linejoin:round; stroke-width:4; stroke-opacity:1; fill:none" points="369.703,1058.97 388.601,1058.97 "/>
<polyline clip-path="url(#clip930)" style="stroke:#000000; stroke-linecap:round; stroke-linejoin:round; stroke-width:4; stroke-opacity:1; fill:none" points="369.703,733.695 388.601,733.695 "/>
<polyline clip-path="url(#clip930)" style="stroke:#000000; stroke-linecap:round; stroke-linejoin:round; stroke-width:4; stroke-opacity:1; fill:none" points="369.703,408.424 388.601,408.424 "/>
<polyline clip-path="url(#clip930)" style="stroke:#000000; stroke-linecap:round; stroke-linejoin:round; stroke-width:4; stroke-opacity:1; fill:none" points="369.703,83.1525 388.601,83.1525 "/>
<path clip-path="url(#clip930)" d="M116.668 1404.03 L124.306 1404.03 L124.306 1377.67 L115.996 1379.33 L115.996 1375.07 L124.26 1373.41 L128.936 1373.41 L128.936 1404.03 L136.575 1404.03 L136.575 1407.97 L116.668 1407.97 L116.668 1404.03 Z" fill="#000000" fill-rule="nonzero" fill-opacity="1" /><path clip-path="url(#clip930)" d="M146.019 1402.09 L150.903 1402.09 L150.903 1407.97 L146.019 1407.97 L146.019 1402.09 Z" fill="#000000" fill-rule="nonzero" fill-opacity="1" /><path clip-path="url(#clip930)" d="M171.089 1376.48 Q167.477 1376.48 165.649 1380.05 Q163.843 1383.59 163.843 1390.72 Q163.843 1397.83 165.649 1401.39 Q167.477 1404.93 171.089 1404.93 Q174.723 1404.93 176.528 1401.39 Q178.357 1397.83 178.357 1390.72 Q178.357 1383.59 176.528 1380.05 Q174.723 1376.48 171.089 1376.48 M171.089 1372.78 Q176.899 1372.78 179.954 1377.39 Q183.033 1381.97 183.033 1390.72 Q183.033 1399.45 179.954 1404.05 Q176.899 1408.64 171.089 1408.64 Q165.278 1408.64 162.2 1404.05 Q159.144 1399.45 159.144 1390.72 Q159.144 1381.97 162.2 1377.39 Q165.278 1372.78 171.089 1372.78 Z" fill="#000000" fill-rule="nonzero" fill-opacity="1" /><path clip-path="url(#clip930)" d="M201.25 1376.48 Q197.639 1376.48 195.811 1380.05 Q194.005 1383.59 194.005 1390.72 Q194.005 1397.83 195.811 1401.39 Q197.639 1404.93 201.25 1404.93 Q204.885 1404.93 206.69 1401.39 Q208.519 1397.83 208.519 1390.72 Q208.519 1383.59 206.69 1380.05 Q204.885 1376.48 201.25 1376.48 M201.25 1372.78 Q207.061 1372.78 210.116 1377.39 Q213.195 1381.97 213.195 1390.72 Q213.195 1399.45 210.116 1404.05 Q207.061 1408.64 201.25 1408.64 Q195.44 1408.64 192.362 1404.05 Q189.306 1399.45 189.306 1390.72 Q189.306 1381.97 192.362 1377.39 Q195.44 1372.78 201.25 1372.78 Z" fill="#000000" fill-rule="nonzero" fill-opacity="1" /><path clip-path="url(#clip930)" d="M249.584 1382.5 L239.005 1393.13 L249.584 1403.71 L246.829 1406.51 L236.204 1395.88 L225.579 1406.51 L222.848 1403.71 L233.403 1393.13 L222.848 1382.5 L225.579 1379.7 L236.204 1390.33 L246.829 1379.7 L249.584 1382.5 Z" fill="#000000" fill-rule="nonzero" fill-opacity="1" /><path clip-path="url(#clip930)" d="M261.945 1404.03 L269.583 1404.03 L269.583 1377.67 L261.273 1379.33 L261.273 1375.07 L269.537 1373.41 L274.213 1373.41 L274.213 1404.03 L281.852 1404.03 L281.852 1407.97 L261.945 1407.97 L261.945 1404.03 Z" fill="#000000" fill-rule="nonzero" fill-opacity="1" /><path clip-path="url(#clip930)" d="M301.296 1376.48 Q297.685 1376.48 295.856 1380.05 Q294.051 1383.59 294.051 1390.72 Q294.051 1397.83 295.856 1401.39 Q297.685 1404.93 301.296 1404.93 Q304.93 1404.93 306.736 1401.39 Q308.565 1397.83 308.565 1390.72 Q308.565 1383.59 306.736 1380.05 Q304.93 1376.48 301.296 1376.48 M301.296 1372.78 Q307.106 1372.78 310.162 1377.39 Q313.241 1381.97 313.241 1390.72 Q313.241 1399.45 310.162 1404.05 Q307.106 1408.64 301.296 1408.64 Q295.486 1408.64 292.407 1404.05 Q289.352 1399.45 289.352 1390.72 Q289.352 1381.97 292.407 1377.39 Q295.486 1372.78 301.296 1372.78 Z" fill="#000000" fill-rule="nonzero" fill-opacity="1" /><path clip-path="url(#clip930)" d="M325.917 1355.79 L316.325 1370.78 L325.917 1370.78 L325.917 1355.79 M324.92 1352.48 L329.697 1352.48 L329.697 1370.78 L333.703 1370.78 L333.703 1373.94 L329.697 1373.94 L329.697 1380.56 L325.917 1380.56 L325.917 1373.94 L313.241 1373.94 L313.241 1370.27 L324.92 1352.48 Z" fill="#000000" fill-rule="nonzero" fill-opacity="1" /><path clip-path="url(#clip930)" d="M116.668 1078.76 L124.306 1078.76 L124.306 1052.39 L115.996 1054.06 L115.996 1049.8 L124.26 1048.13 L128.936 1048.13 L128.936 1078.76 L136.575 1078.76 L136.575 1082.69 L116.668 1082.69 L116.668 1078.76 Z" fill="#000000" fill-rule="nonzero" fill-opacity="1" /><path clip-path="url(#clip930)" d="M146.019 1076.81 L150.903 1076.81 L150.903 1082.69 L146.019 1082.69 L146.019 1076.81 Z" fill="#000000" fill-rule="nonzero" fill-opacity="1" /><path clip-path="url(#clip930)" d="M161.135 1048.13 L179.491 1048.13 L179.491 1052.07 L165.417 1052.07 L165.417 1060.54 Q166.436 1060.19 167.454 1060.03 Q168.473 1059.85 169.491 1059.85 Q175.278 1059.85 178.658 1063.02 Q182.038 1066.19 182.038 1071.61 Q182.038 1077.19 178.565 1080.29 Q175.093 1083.37 168.774 1083.37 Q166.598 1083.37 164.329 1083 Q162.084 1082.62 159.677 1081.88 L159.677 1077.19 Q161.76 1078.32 163.982 1078.88 Q166.204 1079.43 168.681 1079.43 Q172.686 1079.43 175.024 1077.32 Q177.362 1075.22 177.362 1071.61 Q177.362 1068 175.024 1065.89 Q172.686 1063.78 168.681 1063.78 Q166.806 1063.78 164.931 1064.2 Q163.079 1064.62 161.135 1065.5 L161.135 1048.13 Z" fill="#000000" fill-rule="nonzero" fill-opacity="1" /><path clip-path="url(#clip930)" d="M201.25 1051.21 Q197.639 1051.21 195.811 1054.78 Q194.005 1058.32 194.005 1065.45 Q194.005 1072.56 195.811 1076.12 Q197.639 1079.66 201.25 1079.66 Q204.885 1079.66 206.69 1076.12 Q208.519 1072.56 208.519 1065.45 Q208.519 1058.32 206.69 1054.78 Q204.885 1051.21 201.25 1051.21 M201.25 1047.51 Q207.061 1047.51 210.116 1052.12 Q213.195 1056.7 213.195 1065.45 Q213.195 1074.18 210.116 1078.78 Q207.061 1083.37 201.25 1083.37 Q195.44 1083.37 192.362 1078.78 Q189.306 1074.18 189.306 1065.45 Q189.306 1056.7 192.362 1052.12 Q195.44 1047.51 201.25 1047.51 Z" fill="#000000" fill-rule="nonzero" fill-opacity="1" /><path clip-path="url(#clip930)" d="M249.584 1057.23 L239.005 1067.86 L249.584 1078.44 L246.829 1081.24 L236.204 1070.61 L225.579 1081.24 L222.848 1078.44 L233.403 1067.86 L222.848 1057.23 L225.579 1054.43 L236.204 1065.06 L246.829 1054.43 L249.584 1057.23 Z" fill="#000000" fill-rule="nonzero" fill-opacity="1" /><path clip-path="url(#clip930)" d="M261.945 1078.76 L269.583 1078.76 L269.583 1052.39 L261.273 1054.06 L261.273 1049.8 L269.537 1048.13 L274.213 1048.13 L274.213 1078.76 L281.852 1078.76 L281.852 1082.69 L261.945 1082.69 L261.945 1078.76 Z" fill="#000000" fill-rule="nonzero" fill-opacity="1" /><path clip-path="url(#clip930)" d="M301.296 1051.21 Q297.685 1051.21 295.856 1054.78 Q294.051 1058.32 294.051 1065.45 Q294.051 1072.56 295.856 1076.12 Q297.685 1079.66 301.296 1079.66 Q304.93 1079.66 306.736 1076.12 Q308.565 1072.56 308.565 1065.45 Q308.565 1058.32 306.736 1054.78 Q304.93 1051.21 301.296 1051.21 M301.296 1047.51 Q307.106 1047.51 310.162 1052.12 Q313.241 1056.7 313.241 1065.45 Q313.241 1074.18 310.162 1078.78 Q307.106 1083.37 301.296 1083.37 Q295.486 1083.37 292.407 1078.78 Q289.352 1074.18 289.352 1065.45 Q289.352 1056.7 292.407 1052.12 Q295.486 1047.51 301.296 1047.51 Z" fill="#000000" fill-rule="nonzero" fill-opacity="1" /><path clip-path="url(#clip930)" d="M325.917 1030.51 L316.325 1045.5 L325.917 1045.5 L325.917 1030.51 M324.92 1027.2 L329.697 1027.2 L329.697 1045.5 L333.703 1045.5 L333.703 1048.66 L329.697 1048.66 L329.697 1055.28 L325.917 1055.28 L325.917 1048.66 L313.241 1048.66 L313.241 1045 L324.92 1027.2 Z" fill="#000000" fill-rule="nonzero" fill-opacity="1" /><path clip-path="url(#clip930)" d="M119.885 753.488 L136.204 753.488 L136.204 757.423 L114.26 757.423 L114.26 753.488 Q116.922 750.733 121.505 746.104 Q126.112 741.451 127.292 740.108 Q129.538 737.585 130.417 735.849 Q131.32 734.09 131.32 732.4 Q131.32 729.645 129.376 727.909 Q127.455 726.173 124.353 726.173 Q122.154 726.173 119.7 726.937 Q117.269 727.701 114.492 729.252 L114.492 724.53 Q117.316 723.395 119.769 722.817 Q122.223 722.238 124.26 722.238 Q129.63 722.238 132.825 724.923 Q136.019 727.608 136.019 732.099 Q136.019 734.229 135.209 736.15 Q134.422 738.048 132.316 740.641 Q131.737 741.312 128.635 744.53 Q125.533 747.724 119.885 753.488 Z" fill="#000000" fill-rule="nonzero" fill-opacity="1" /><path clip-path="url(#clip930)" d="M146.019 751.543 L150.903 751.543 L150.903 757.423 L146.019 757.423 L146.019 751.543 Z" fill="#000000" fill-rule="nonzero" fill-opacity="1" /><path clip-path="url(#clip930)" d="M171.089 725.942 Q167.477 725.942 165.649 729.506 Q163.843 733.048 163.843 740.178 Q163.843 747.284 165.649 750.849 Q167.477 754.391 171.089 754.391 Q174.723 754.391 176.528 750.849 Q178.357 747.284 178.357 740.178 Q178.357 733.048 176.528 729.506 Q174.723 725.942 171.089 725.942 M171.089 722.238 Q176.899 722.238 179.954 726.844 Q183.033 731.428 183.033 740.178 Q183.033 748.905 179.954 753.511 Q176.899 758.094 171.089 758.094 Q165.278 758.094 162.2 753.511 Q159.144 748.905 159.144 740.178 Q159.144 731.428 162.2 726.844 Q165.278 722.238 171.089 722.238 Z" fill="#000000" fill-rule="nonzero" fill-opacity="1" /><path clip-path="url(#clip930)" d="M201.25 725.942 Q197.639 725.942 195.811 729.506 Q194.005 733.048 194.005 740.178 Q194.005 747.284 195.811 750.849 Q197.639 754.391 201.25 754.391 Q204.885 754.391 206.69 750.849 Q208.519 747.284 208.519 740.178 Q208.519 733.048 206.69 729.506 Q204.885 725.942 201.25 725.942 M201.25 722.238 Q207.061 722.238 210.116 726.844 Q213.195 731.428 213.195 740.178 Q213.195 748.905 210.116 753.511 Q207.061 758.094 201.25 758.094 Q195.44 758.094 192.362 753.511 Q189.306 748.905 189.306 740.178 Q189.306 731.428 192.362 726.844 Q195.44 722.238 201.25 722.238 Z" fill="#000000" fill-rule="nonzero" fill-opacity="1" /><path clip-path="url(#clip930)" d="M249.584 731.96 L239.005 742.585 L249.584 753.164 L246.829 755.965 L236.204 745.34 L225.579 755.965 L222.848 753.164 L233.403 742.585 L222.848 731.96 L225.579 729.159 L236.204 739.784 L246.829 729.159 L249.584 731.96 Z" fill="#000000" fill-rule="nonzero" fill-opacity="1" /><path clip-path="url(#clip930)" d="M261.945 753.488 L269.583 753.488 L269.583 727.122 L261.273 728.789 L261.273 724.53 L269.537 722.863 L274.213 722.863 L274.213 753.488 L281.852 753.488 L281.852 757.423 L261.945 757.423 L261.945 753.488 Z" fill="#000000" fill-rule="nonzero" fill-opacity="1" /><path clip-path="url(#clip930)" d="M301.296 725.942 Q297.685 725.942 295.856 729.506 Q294.051 733.048 294.051 740.178 Q294.051 747.284 295.856 750.849 Q297.685 754.391 301.296 754.391 Q304.93 754.391 306.736 750.849 Q308.565 747.284 308.565 740.178 Q308.565 733.048 306.736 729.506 Q304.93 725.942 301.296 725.942 M301.296 722.238 Q307.106 722.238 310.162 726.844 Q313.241 731.428 313.241 740.178 Q313.241 748.905 310.162 753.511 Q307.106 758.094 301.296 758.094 Q295.486 758.094 292.407 753.511 Q289.352 748.905 289.352 740.178 Q289.352 731.428 292.407 726.844 Q295.486 722.238 301.296 722.238 Z" fill="#000000" fill-rule="nonzero" fill-opacity="1" /><path clip-path="url(#clip930)" d="M325.917 705.243 L316.325 720.233 L325.917 720.233 L325.917 705.243 M324.92 701.933 L329.697 701.933 L329.697 720.233 L333.703 720.233 L333.703 723.392 L329.697 723.392 L329.697 730.013 L325.917 730.013 L325.917 723.392 L313.241 723.392 L313.241 719.725 L324.92 701.933 Z" fill="#000000" fill-rule="nonzero" fill-opacity="1" /><path clip-path="url(#clip930)" d="M119.885 428.216 L136.204 428.216 L136.204 432.152 L114.26 432.152 L114.26 428.216 Q116.922 425.462 121.505 420.832 Q126.112 416.179 127.292 414.837 Q129.538 412.314 130.417 410.578 Q131.32 408.818 131.32 407.129 Q131.32 404.374 129.376 402.638 Q127.455 400.902 124.353 400.902 Q122.154 400.902 119.7 401.666 Q117.269 402.43 114.492 403.98 L114.492 399.258 Q117.316 398.124 119.769 397.545 Q122.223 396.967 124.26 396.967 Q129.63 396.967 132.825 399.652 Q136.019 402.337 136.019 406.828 Q136.019 408.957 135.209 410.879 Q134.422 412.777 132.316 415.369 Q131.737 416.041 128.635 419.258 Q125.533 422.453 119.885 428.216 Z" fill="#000000" fill-rule="nonzero" fill-opacity="1" /><path clip-path="url(#clip930)" d="M146.019 426.272 L150.903 426.272 L150.903 432.152 L146.019 432.152 L146.019 426.272 Z" fill="#000000" fill-rule="nonzero" fill-opacity="1" /><path clip-path="url(#clip930)" d="M161.135 397.592 L179.491 397.592 L179.491 401.527 L165.417 401.527 L165.417 409.999 Q166.436 409.652 167.454 409.49 Q168.473 409.304 169.491 409.304 Q175.278 409.304 178.658 412.476 Q182.038 415.647 182.038 421.064 Q182.038 426.642 178.565 429.744 Q175.093 432.823 168.774 432.823 Q166.598 432.823 164.329 432.452 Q162.084 432.082 159.677 431.341 L159.677 426.642 Q161.76 427.777 163.982 428.332 Q166.204 428.888 168.681 428.888 Q172.686 428.888 175.024 426.781 Q177.362 424.675 177.362 421.064 Q177.362 417.453 175.024 415.346 Q172.686 413.24 168.681 413.24 Q166.806 413.24 164.931 413.656 Q163.079 414.073 161.135 414.953 L161.135 397.592 Z" fill="#000000" fill-rule="nonzero" fill-opacity="1" /><path clip-path="url(#clip930)" d="M201.25 400.67 Q197.639 400.67 195.811 404.235 Q194.005 407.777 194.005 414.906 Q194.005 422.013 195.811 425.578 Q197.639 429.119 201.25 429.119 Q204.885 429.119 206.69 425.578 Q208.519 422.013 208.519 414.906 Q208.519 407.777 206.69 404.235 Q204.885 400.67 201.25 400.67 M201.25 396.967 Q207.061 396.967 210.116 401.573 Q213.195 406.156 213.195 414.906 Q213.195 423.633 210.116 428.24 Q207.061 432.823 201.25 432.823 Q195.44 432.823 192.362 428.24 Q189.306 423.633 189.306 414.906 Q189.306 406.156 192.362 401.573 Q195.44 396.967 201.25 396.967 Z" fill="#000000" fill-rule="nonzero" fill-opacity="1" /><path clip-path="url(#clip930)" d="M249.584 406.689 L239.005 417.314 L249.584 427.892 L246.829 430.693 L236.204 420.068 L225.579 430.693 L222.848 427.892 L233.403 417.314 L222.848 406.689 L225.579 403.888 L236.204 414.513 L246.829 403.888 L249.584 406.689 Z" fill="#000000" fill-rule="nonzero" fill-opacity="1" /><path clip-path="url(#clip930)" d="M261.945 428.216 L269.583 428.216 L269.583 401.851 L261.273 403.517 L261.273 399.258 L269.537 397.592 L274.213 397.592 L274.213 428.216 L281.852 428.216 L281.852 432.152 L261.945 432.152 L261.945 428.216 Z" fill="#000000" fill-rule="nonzero" fill-opacity="1" /><path clip-path="url(#clip930)" d="M301.296 400.67 Q297.685 400.67 295.856 404.235 Q294.051 407.777 294.051 414.906 Q294.051 422.013 295.856 425.578 Q297.685 429.119 301.296 429.119 Q304.93 429.119 306.736 425.578 Q308.565 422.013 308.565 414.906 Q308.565 407.777 306.736 404.235 Q304.93 400.67 301.296 400.67 M301.296 396.967 Q307.106 396.967 310.162 401.573 Q313.241 406.156 313.241 414.906 Q313.241 423.633 310.162 428.24 Q307.106 432.823 301.296 432.823 Q295.486 432.823 292.407 428.24 Q289.352 423.633 289.352 414.906 Q289.352 406.156 292.407 401.573 Q295.486 396.967 301.296 396.967 Z" fill="#000000" fill-rule="nonzero" fill-opacity="1" /><path clip-path="url(#clip930)" d="M325.917 379.971 L316.325 394.961 L325.917 394.961 L325.917 379.971 M324.92 376.661 L329.697 376.661 L329.697 394.961 L333.703 394.961 L333.703 398.121 L329.697 398.121 L329.697 404.741 L325.917 404.741 L325.917 398.121 L313.241 398.121 L313.241 394.453 L324.92 376.661 Z" fill="#000000" fill-rule="nonzero" fill-opacity="1" /><path clip-path="url(#clip930)" d="M130.024 88.246 Q133.38 88.9636 135.255 91.2321 Q137.154 93.5006 137.154 96.8339 Q137.154 101.95 133.635 104.751 Q130.117 107.551 123.635 107.551 Q121.459 107.551 119.144 107.112 Q116.853 106.695 114.399 105.838 L114.399 101.325 Q116.343 102.459 118.658 103.038 Q120.973 103.616 123.496 103.616 Q127.894 103.616 130.186 101.88 Q132.501 100.144 132.501 96.8339 Q132.501 93.7784 130.348 92.0654 Q128.218 90.3293 124.399 90.3293 L120.371 90.3293 L120.371 86.4867 L124.584 86.4867 Q128.033 86.4867 129.862 85.121 Q131.691 83.7321 131.691 81.1395 Q131.691 78.4775 129.792 77.0655 Q127.917 75.6303 124.399 75.6303 Q122.478 75.6303 120.279 76.047 Q118.08 76.4636 115.441 77.3433 L115.441 73.1766 Q118.103 72.4359 120.418 72.0655 Q122.755 71.6951 124.816 71.6951 Q130.14 71.6951 133.242 74.1257 Q136.343 76.5331 136.343 80.6534 Q136.343 83.5238 134.7 85.5145 Q133.056 87.4821 130.024 88.246 Z" fill="#000000" fill-rule="nonzero" fill-opacity="1" /><path clip-path="url(#clip930)" d="M146.019 101.001 L150.903 101.001 L150.903 106.88 L146.019 106.88 L146.019 101.001 Z" fill="#000000" fill-rule="nonzero" fill-opacity="1" /><path clip-path="url(#clip930)" d="M171.089 75.3988 Q167.477 75.3988 165.649 78.9636 Q163.843 82.5053 163.843 89.6349 Q163.843 96.7413 165.649 100.306 Q167.477 103.848 171.089 103.848 Q174.723 103.848 176.528 100.306 Q178.357 96.7413 178.357 89.6349 Q178.357 82.5053 176.528 78.9636 Q174.723 75.3988 171.089 75.3988 M171.089 71.6951 Q176.899 71.6951 179.954 76.3016 Q183.033 80.8849 183.033 89.6349 Q183.033 98.3617 179.954 102.968 Q176.899 107.551 171.089 107.551 Q165.278 107.551 162.2 102.968 Q159.144 98.3617 159.144 89.6349 Q159.144 80.8849 162.2 76.3016 Q165.278 71.6951 171.089 71.6951 Z" fill="#000000" fill-rule="nonzero" fill-opacity="1" /><path clip-path="url(#clip930)" d="M201.25 75.3988 Q197.639 75.3988 195.811 78.9636 Q194.005 82.5053 194.005 89.6349 Q194.005 96.7413 195.811 100.306 Q197.639 103.848 201.25 103.848 Q204.885 103.848 206.69 100.306 Q208.519 96.7413 208.519 89.6349 Q208.519 82.5053 206.69 78.9636 Q204.885 75.3988 201.25 75.3988 M201.25 71.6951 Q207.061 71.6951 210.116 76.3016 Q213.195 80.8849 213.195 89.6349 Q213.195 98.3617 210.116 102.968 Q207.061 107.551 201.25 107.551 Q195.44 107.551 192.362 102.968 Q189.306 98.3617 189.306 89.6349 Q189.306 80.8849 192.362 76.3016 Q195.44 71.6951 201.25 71.6951 Z" fill="#000000" fill-rule="nonzero" fill-opacity="1" /><path clip-path="url(#clip930)" d="M249.584 81.4173 L239.005 92.0423 L249.584 102.621 L246.829 105.422 L236.204 94.7969 L225.579 105.422 L222.848 102.621 L233.403 92.0423 L222.848 81.4173 L225.579 78.6164 L236.204 89.2413 L246.829 78.6164 L249.584 81.4173 Z" fill="#000000" fill-rule="nonzero" fill-opacity="1" /><path clip-path="url(#clip930)" d="M261.945 102.945 L269.583 102.945 L269.583 76.5794 L261.273 78.246 L261.273 73.9868 L269.537 72.3201 L274.213 72.3201 L274.213 102.945 L281.852 102.945 L281.852 106.88 L261.945 106.88 L261.945 102.945 Z" fill="#000000" fill-rule="nonzero" fill-opacity="1" /><path clip-path="url(#clip930)" d="M301.296 75.3988 Q297.685 75.3988 295.856 78.9636 Q294.051 82.5053 294.051 89.6349 Q294.051 96.7413 295.856 100.306 Q297.685 103.848 301.296 103.848 Q304.93 103.848 306.736 100.306 Q308.565 96.7413 308.565 89.6349 Q308.565 82.5053 306.736 78.9636 Q304.93 75.3988 301.296 75.3988 M301.296 71.6951 Q307.106 71.6951 310.162 76.3016 Q313.241 80.8849 313.241 89.6349 Q313.241 98.3617 310.162 102.968 Q307.106 107.551 301.296 107.551 Q295.486 107.551 292.407 102.968 Q289.352 98.3617 289.352 89.6349 Q289.352 80.8849 292.407 76.3016 Q295.486 71.6951 301.296 71.6951 Z" fill="#000000" fill-rule="nonzero" fill-opacity="1" /><path clip-path="url(#clip930)" d="M325.917 54.6999 L316.325 69.6897 L325.917 69.6897 L325.917 54.6999 M324.92 51.3897 L329.697 51.3897 L329.697 69.6897 L333.703 69.6897 L333.703 72.8494 L329.697 72.8494 L329.697 79.4697 L325.917 79.4697 L325.917 72.8494 L313.241 72.8494 L313.241 69.1819 L324.92 51.3897 Z" fill="#000000" fill-rule="nonzero" fill-opacity="1" /><path clip-path="url(#clip930)" d="M16.4842 831.7 L16.4842 791.501 L21.895 791.501 L21.895 808.37 L64.0042 808.37 L64.0042 814.831 L21.895 814.831 L21.895 831.7 L16.4842 831.7 Z" fill="#000000" fill-rule="nonzero" fill-opacity="1" /><path clip-path="url(#clip930)" d="M33.8307 774.472 Q33.2578 775.459 33.0032 776.637 Q32.7167 777.783 32.7167 779.183 Q32.7167 784.148 35.9632 786.822 Q39.1779 789.464 45.2253 789.464 L64.0042 789.464 L64.0042 795.352 L28.3562 795.352 L28.3562 789.464 L33.8944 789.464 Q30.6479 787.618 29.0883 784.658 Q27.4968 781.698 27.4968 777.464 Q27.4968 776.86 27.5923 776.128 Q27.656 775.395 27.8151 774.504 L33.8307 774.472 Z" fill="#000000" fill-rule="nonzero" fill-opacity="1" /><path clip-path="url(#clip930)" d="M46.0847 752.129 Q46.0847 759.227 47.7079 761.964 Q49.3312 764.701 53.2461 764.701 Q56.3653 764.701 58.2114 762.664 Q60.0256 760.595 60.0256 757.062 Q60.0256 752.192 56.5881 749.264 Q53.1188 746.304 47.3897 746.304 L46.0847 746.304 L46.0847 752.129 M43.6657 740.448 L64.0042 740.448 L64.0042 746.304 L58.5933 746.304 Q61.8398 748.309 63.3994 751.301 Q64.9272 754.293 64.9272 758.622 Q64.9272 764.096 61.8716 767.343 Q58.7843 770.558 53.6281 770.558 Q47.6125 770.558 44.5569 766.547 Q41.5014 762.505 41.5014 754.516 L41.5014 746.304 L40.9285 746.304 Q36.8862 746.304 34.6901 748.978 Q32.4621 751.62 32.4621 756.426 Q32.4621 759.481 33.1941 762.378 Q33.9262 765.274 35.3903 767.948 L29.9795 767.948 Q28.7381 764.733 28.1334 761.709 Q27.4968 758.686 27.4968 755.821 Q27.4968 748.087 31.5072 744.267 Q35.5176 740.448 43.6657 740.448 Z" fill="#000000" fill-rule="nonzero" fill-opacity="1" /><path clip-path="url(#clip930)" d="M14.479 710.338 L19.3487 710.338 L19.3487 715.94 Q19.3487 719.091 20.6219 720.332 Q21.895 721.542 25.2052 721.542 L28.3562 721.542 L28.3562 711.898 L32.9077 711.898 L32.9077 721.542 L64.0042 721.542 L64.0042 727.43 L32.9077 727.43 L32.9077 733.032 L28.3562 733.032 L28.3562 727.43 L25.8736 727.43 Q19.9216 727.43 17.2162 724.661 Q14.479 721.892 14.479 715.876 L14.479 710.338 Z" fill="#000000" fill-rule="nonzero" fill-opacity="1" /><path clip-path="url(#clip930)" d="M14.479 687.39 L19.3487 687.39 L19.3487 692.991 Q19.3487 696.142 20.6219 697.384 Q21.895 698.593 25.2052 698.593 L28.3562 698.593 L28.3562 688.949 L32.9077 688.949 L32.9077 698.593 L64.0042 698.593 L64.0042 704.482 L32.9077 704.482 L32.9077 710.083 L28.3562 710.083 L28.3562 704.482 L25.8736 704.482 Q19.9216 704.482 17.2162 701.712 Q14.479 698.943 14.479 692.928 L14.479 687.39 Z" fill="#000000" fill-rule="nonzero" fill-opacity="1" /><path clip-path="url(#clip930)" d="M28.3562 682.488 L28.3562 676.632 L64.0042 676.632 L64.0042 682.488 L28.3562 682.488 M14.479 682.488 L14.479 676.632 L21.895 676.632 L21.895 682.488 L14.479 682.488 Z" fill="#000000" fill-rule="nonzero" fill-opacity="1" /><path clip-path="url(#clip930)" d="M29.7248 638.724 L35.1993 638.724 Q33.8307 641.206 33.1623 643.721 Q32.4621 646.203 32.4621 648.75 Q32.4621 654.447 36.0905 657.598 Q39.6872 660.749 46.212 660.749 Q52.7369 660.749 56.3653 657.598 Q59.9619 654.447 59.9619 648.75 Q59.9619 646.203 59.2935 643.721 Q58.5933 641.206 57.2247 638.724 L62.6355 638.724 Q63.7814 641.175 64.3543 643.816 Q64.9272 646.426 64.9272 649.386 Q64.9272 657.439 59.8664 662.181 Q54.8057 666.924 46.212 666.924 Q37.491 666.924 32.4939 662.15 Q27.4968 657.343 27.4968 649.004 Q27.4968 646.299 28.0697 643.721 Q28.6108 641.143 29.7248 638.724 Z" fill="#000000" fill-rule="nonzero" fill-opacity="1" /><polyline clip-path="url(#clip932)" style="stroke:#009af9; stroke-linecap:round; stroke-linejoin:round; stroke-width:4; stroke-opacity:1; fill:none" points="425.828,735.212 507.167,910.726 588.506,1073.22 669.845,1210.65 751.185,1312.82 832.524,1372.15 913.863,1384.24 995.203,1348.19 1076.54,1266.69 1157.88,1145.76 1239.22,994.389 1320.56,823.794 1401.9,646.63 1483.24,476.035 1564.58,324.662 1645.92,203.738 1727.26,122.231 1808.6,86.1857 1889.94,98.2758 1971.27,157.605 2052.61,259.772 2133.95,397.2 2215.29,559.698 2296.63,735.212 "/>
<path clip-path="url(#clip930)" d="M435.805 196.789 L686.541 196.789 L686.541 93.1086 L435.805 93.1086  Z" fill="#ffffff" fill-rule="evenodd" fill-opacity="1"/>
<polyline clip-path="url(#clip930)" style="stroke:#000000; stroke-linecap:round; stroke-linejoin:round; stroke-width:4; stroke-opacity:1; fill:none" points="435.805,196.789 686.541,196.789 686.541,93.1086 435.805,93.1086 435.805,196.789 "/>
<polyline clip-path="url(#clip930)" style="stroke:#009af9; stroke-linecap:round; stroke-linejoin:round; stroke-width:4; stroke-opacity:1; fill:none" points="457.839,144.949 590.043,144.949 "/>
<path clip-path="url(#clip930)" d="M625.919 164.636 Q624.113 169.266 622.401 170.678 Q620.688 172.09 617.817 172.09 L614.414 172.09 L614.414 168.525 L616.914 168.525 Q618.674 168.525 619.646 167.692 Q620.618 166.858 621.799 163.756 L622.563 161.812 L612.077 136.303 L616.59 136.303 L624.692 156.581 L632.794 136.303 L637.308 136.303 L625.919 164.636 Z" fill="#000000" fill-rule="nonzero" fill-opacity="1" /><path clip-path="url(#clip930)" d="M644.599 158.293 L652.238 158.293 L652.238 131.928 L643.928 133.595 L643.928 129.335 L652.192 127.669 L656.868 127.669 L656.868 158.293 L664.507 158.293 L664.507 162.229 L644.599 162.229 L644.599 158.293 Z" fill="#000000" fill-rule="nonzero" fill-opacity="1" /></svg>
