<?xml version="1.0" encoding="utf-8"?>
<svg xmlns="http://www.w3.org/2000/svg" xmlns:xlink="http://www.w3.org/1999/xlink" width="600" height="400" viewBox="0 0 2400 1600">
<defs>
  <clipPath id="clip820">
    <rect x="0" y="0" width="2400" height="1600"/>
  </clipPath>
</defs>
<path clip-path="url(#clip820)" d="M0 1600 L2400 1600 L2400 0 L0 0  Z" fill="#ffffff" fill-rule="evenodd" fill-opacity="1"/>
<defs>
  <clipPath id="clip821">
    <rect x="480" y="0" width="1681" height="1600"/>
  </clipPath>
</defs>
<path clip-path="url(#clip820)" d="M289.514 1410.9 L2352.76 1410.9 L2352.76 47.2441 L289.514 47.2441  Z" fill="#ffffff" fill-rule="evenodd" fill-opacity="1"/>
<defs>
  <clipPath id="clip822">
    <rect x="289" y="47" width="2064" height="1365"/>
  </clipPath>
</defs>
<polyline clip-path="url(#clip822)" style="stroke:#000000; stroke-linecap:round; stroke-linejoin:round; stroke-width:2; stroke-opacity:0.1; fill:none" points="347.908,1410.9 347.908,47.2441 "/>
<polyline clip-path="url(#clip822)" style="stroke:#000000; stroke-linecap:round; stroke-linejoin:round; stroke-width:2; stroke-opacity:0.1; fill:none" points="1321.14,1410.9 1321.14,47.2441 "/>
<polyline clip-path="url(#clip822)" style="stroke:#000000; stroke-linecap:round; stroke-linejoin:round; stroke-width:2; stroke-opacity:0.1; fill:none" points="2294.36,1410.9 2294.36,47.2441 "/>
<polyline clip-path="url(#clip820)" style="stroke:#000000; stroke-linecap:round; stroke-linejoin:round; stroke-width:4; stroke-opacity:1; fill:none" points="289.514,1410.9 2352.76,1410.9 "/>
<polyline clip-path="url(#clip820)" style="stroke:#000000; stroke-linecap:round; stroke-linejoin:round; stroke-width:4; stroke-opacity:1; fill:none" points="347.908,1410.9 347.908,1392 "/>
<polyline clip-path="url(#clip820)" style="stroke:#000000; stroke-linecap:round; stroke-linejoin:round; stroke-width:4; stroke-opacity:1; fill:none" points="1321.14,1410.9 1321.14,1392 "/>
<polyline clip-path="url(#clip820)" style="stroke:#000000; stroke-linecap:round; stroke-linejoin:round; stroke-width:4; stroke-opacity:1; fill:none" points="2294.36,1410.9 2294.36,1392 "/>
<path clip-path="url(#clip820)" d="M298.174 1485.02 L305.813 1485.02 L305.813 1458.66 L297.502 1460.32 L297.502 1456.06 L305.766 1454.4 L310.442 1454.4 L310.442 1485.02 L318.081 1485.02 L318.081 1488.96 L298.174 1488.96 L298.174 1485.02 Z" fill="#000000" fill-rule="nonzero" fill-opacity="1" /><path clip-path="url(#clip820)" d="M337.525 1457.48 Q333.914 1457.48 332.086 1461.04 Q330.28 1464.58 330.28 1471.71 Q330.28 1478.82 332.086 1482.38 Q333.914 1485.92 337.525 1485.92 Q341.16 1485.92 342.965 1482.38 Q344.794 1478.82 344.794 1471.71 Q344.794 1464.58 342.965 1461.04 Q341.16 1457.48 337.525 1457.48 M337.525 1453.77 Q343.336 1453.77 346.391 1458.38 Q349.47 1462.96 349.47 1471.71 Q349.47 1480.44 346.391 1485.04 Q343.336 1489.63 337.525 1489.63 Q331.715 1489.63 328.637 1485.04 Q325.581 1480.44 325.581 1471.71 Q325.581 1462.96 328.637 1458.38 Q331.715 1453.77 337.525 1453.77 Z" fill="#000000" fill-rule="nonzero" fill-opacity="1" /><path clip-path="url(#clip820)" d="M349.47 1447.87 L373.581 1447.87 L373.581 1451.07 L349.47 1451.07 L349.47 1447.87 Z" fill="#000000" fill-rule="nonzero" fill-opacity="1" /><path clip-path="url(#clip820)" d="M385.054 1458.35 L398.314 1458.35 L398.314 1461.55 L380.484 1461.55 L380.484 1458.35 Q382.647 1456.11 386.371 1452.35 Q390.113 1448.57 391.073 1447.48 Q392.897 1445.43 393.612 1444.02 Q394.345 1442.59 394.345 1441.22 Q394.345 1438.98 392.765 1437.57 Q391.204 1436.16 388.684 1436.16 Q386.897 1436.16 384.904 1436.78 Q382.929 1437.4 380.672 1438.66 L380.672 1434.82 Q382.966 1433.9 384.96 1433.43 Q386.954 1432.96 388.609 1432.96 Q392.972 1432.96 395.568 1435.14 Q398.163 1437.32 398.163 1440.97 Q398.163 1442.7 397.505 1444.26 Q396.865 1445.8 395.154 1447.91 Q394.684 1448.46 392.163 1451.07 Q389.643 1453.67 385.054 1458.35 Z" fill="#000000" fill-rule="nonzero" fill-opacity="1" /><path clip-path="url(#clip820)" d="M1271.25 1485.02 L1278.89 1485.02 L1278.89 1458.66 L1270.58 1460.32 L1270.58 1456.06 L1278.84 1454.4 L1283.52 1454.4 L1283.52 1485.02 L1291.16 1485.02 L1291.16 1488.96 L1271.25 1488.96 L1271.25 1485.02 Z" fill="#000000" fill-rule="nonzero" fill-opacity="1" /><path clip-path="url(#clip820)" d="M1310.6 1457.48 Q1306.99 1457.48 1305.16 1461.04 Q1303.36 1464.58 1303.36 1471.71 Q1303.36 1478.82 1305.16 1482.38 Q1306.99 1485.92 1310.6 1485.92 Q1314.24 1485.92 1316.04 1482.38 Q1317.87 1478.82 1317.87 1471.71 Q1317.87 1464.58 1316.04 1461.04 Q1314.24 1457.48 1310.6 1457.48 M1310.6 1453.77 Q1316.41 1453.77 1319.47 1458.38 Q1322.55 1462.96 1322.55 1471.71 Q1322.55 1480.44 1319.47 1485.04 Q1316.41 1489.63 1310.6 1489.63 Q1304.79 1489.63 1301.71 1485.04 Q1298.66 1480.44 1298.66 1471.71 Q1298.66 1462.96 1301.71 1458.38 Q1304.79 1453.77 1310.6 1453.77 Z" fill="#000000" fill-rule="nonzero" fill-opacity="1" /><path clip-path="url(#clip820)" d="M1322.55 1447.87 L1346.66 1447.87 L1346.66 1451.07 L1322.55 1451.07 L1322.55 1447.87 Z" fill="#000000" fill-rule="nonzero" fill-opacity="1" /><path clip-path="url(#clip820)" d="M1355.52 1458.35 L1361.72 1458.35 L1361.72 1436.93 L1354.97 1438.28 L1354.97 1434.82 L1361.69 1433.47 L1365.48 1433.47 L1365.48 1458.35 L1371.69 1458.35 L1371.69 1461.55 L1355.52 1461.55 L1355.52 1458.35 Z" fill="#000000" fill-rule="nonzero" fill-opacity="1" /><path clip-path="url(#clip820)" d="M2259.35 1485.02 L2266.98 1485.02 L2266.98 1458.66 L2258.67 1460.32 L2258.67 1456.06 L2266.94 1454.4 L2271.61 1454.4 L2271.61 1485.02 L2279.25 1485.02 L2279.25 1488.96 L2259.35 1488.96 L2259.35 1485.02 Z" fill="#000000" fill-rule="nonzero" fill-opacity="1" /><path clip-path="url(#clip820)" d="M2298.7 1457.48 Q2295.09 1457.48 2293.26 1461.04 Q2291.45 1464.58 2291.45 1471.71 Q2291.45 1478.82 2293.26 1482.38 Q2295.09 1485.92 2298.7 1485.92 Q2302.33 1485.92 2304.14 1482.38 Q2305.97 1478.82 2305.97 1471.71 Q2305.97 1464.58 2304.14 1461.04 Q2302.33 1457.48 2298.7 1457.48 M2298.7 1453.77 Q2304.51 1453.77 2307.56 1458.38 Q2310.64 1462.96 2310.64 1471.71 Q2310.64 1480.44 2307.56 1485.04 Q2304.51 1489.63 2298.7 1489.63 Q2292.89 1489.63 2289.81 1485.04 Q2286.75 1480.44 2286.75 1471.71 Q2286.75 1462.96 2289.81 1458.38 Q2292.89 1453.77 2298.7 1453.77 Z" fill="#000000" fill-rule="nonzero" fill-opacity="1" /><path clip-path="url(#clip820)" d="M2320.35 1435.97 Q2317.41 1435.97 2315.93 1438.86 Q2314.46 1441.74 2314.46 1447.53 Q2314.46 1453.31 2315.93 1456.2 Q2317.41 1459.08 2320.35 1459.08 Q2323.3 1459.08 2324.77 1456.2 Q2326.25 1453.31 2326.25 1447.53 Q2326.25 1441.74 2324.77 1438.86 Q2323.3 1435.97 2320.35 1435.97 M2320.35 1432.96 Q2325.07 1432.96 2327.55 1436.7 Q2330.05 1440.43 2330.05 1447.53 Q2330.05 1454.62 2327.55 1458.37 Q2325.07 1462.09 2320.35 1462.09 Q2315.63 1462.09 2313.12 1458.37 Q2310.64 1454.62 2310.64 1447.53 Q2310.64 1440.43 2313.12 1436.7 Q2315.63 1432.96 2320.35 1432.96 Z" fill="#000000" fill-rule="nonzero" fill-opacity="1" /><path clip-path="url(#clip820)" d="M1205.04 1524.66 L1210.9 1524.66 L1210.9 1574.19 L1205.04 1574.19 L1205.04 1524.66 Z" fill="#000000" fill-rule="nonzero" fill-opacity="1" /><path clip-path="url(#clip820)" d="M1239.35 1556.27 Q1232.25 1556.27 1229.52 1557.89 Q1226.78 1559.51 1226.78 1563.43 Q1226.78 1566.55 1228.82 1568.39 Q1230.89 1570.21 1234.42 1570.21 Q1239.29 1570.21 1242.22 1566.77 Q1245.18 1563.3 1245.18 1557.57 L1245.18 1556.27 L1239.35 1556.27 M1251.03 1553.85 L1251.03 1574.19 L1245.18 1574.19 L1245.18 1568.77 Q1243.17 1572.02 1240.18 1573.58 Q1237.19 1575.11 1232.86 1575.11 Q1227.38 1575.11 1224.14 1572.05 Q1220.92 1568.97 1220.92 1563.81 Q1220.92 1557.79 1224.93 1554.74 Q1228.98 1551.68 1236.96 1551.68 L1245.18 1551.68 L1245.18 1551.11 Q1245.18 1547.07 1242.5 1544.87 Q1239.86 1542.64 1235.05 1542.64 Q1232 1542.64 1229.1 1543.38 Q1226.21 1544.11 1223.53 1545.57 L1223.53 1540.16 Q1226.75 1538.92 1229.77 1538.31 Q1232.8 1537.68 1235.66 1537.68 Q1243.39 1537.68 1247.21 1541.69 Q1251.03 1545.7 1251.03 1553.85 Z" fill="#000000" fill-rule="nonzero" fill-opacity="1" /><path clip-path="url(#clip820)" d="M1290.85 1545.38 Q1293.05 1541.43 1296.1 1539.56 Q1299.16 1537.68 1303.3 1537.68 Q1308.87 1537.68 1311.89 1541.59 Q1314.91 1545.48 1314.91 1552.67 L1314.91 1574.19 L1309.02 1574.19 L1309.02 1552.86 Q1309.02 1547.74 1307.21 1545.25 Q1305.4 1542.77 1301.67 1542.77 Q1297.12 1542.77 1294.48 1545.79 Q1291.84 1548.82 1291.84 1554.04 L1291.84 1574.19 L1285.95 1574.19 L1285.95 1552.86 Q1285.95 1547.7 1284.13 1545.25 Q1282.32 1542.77 1278.53 1542.77 Q1274.04 1542.77 1271.4 1545.83 Q1268.76 1548.85 1268.76 1554.04 L1268.76 1574.19 L1262.87 1574.19 L1262.87 1538.54 L1268.76 1538.54 L1268.76 1544.08 Q1270.77 1540.8 1273.57 1539.24 Q1276.37 1537.68 1280.22 1537.68 Q1284.1 1537.68 1286.81 1539.65 Q1289.55 1541.62 1290.85 1545.38 Z" fill="#000000" fill-rule="nonzero" fill-opacity="1" /><path clip-path="url(#clip820)" d="M1352.18 1556.39 Q1352.18 1549.93 1349.51 1546.27 Q1346.87 1542.58 1342.22 1542.58 Q1337.57 1542.58 1334.9 1546.27 Q1332.26 1549.93 1332.26 1556.39 Q1332.26 1562.85 1334.9 1566.55 Q1337.57 1570.21 1342.22 1570.21 Q1346.87 1570.21 1349.51 1566.55 Q1352.18 1562.85 1352.18 1556.39 M1332.26 1543.95 Q1334.11 1540.77 1336.91 1539.24 Q1339.74 1537.68 1343.65 1537.68 Q1350.15 1537.68 1354.19 1542.83 Q1358.26 1547.99 1358.26 1556.39 Q1358.26 1564.8 1354.19 1569.95 Q1350.15 1575.11 1343.65 1575.11 Q1339.74 1575.11 1336.91 1573.58 Q1334.11 1572.02 1332.26 1568.84 L1332.26 1574.19 L1326.37 1574.19 L1326.37 1524.66 L1332.26 1524.66 L1332.26 1543.95 Z" fill="#000000" fill-rule="nonzero" fill-opacity="1" /><path clip-path="url(#clip820)" d="M1391.43 1543.95 L1391.43 1524.66 L1397.28 1524.66 L1397.28 1574.19 L1391.43 1574.19 L1391.43 1568.84 Q1389.58 1572.02 1386.75 1573.58 Q1383.95 1575.11 1380 1575.11 Q1373.54 1575.11 1369.47 1569.95 Q1365.42 1564.8 1365.42 1556.39 Q1365.42 1547.99 1369.47 1542.83 Q1373.54 1537.68 1380 1537.68 Q1383.95 1537.68 1386.75 1539.24 Q1389.58 1540.77 1391.43 1543.95 M1371.47 1556.39 Q1371.47 1562.85 1374.11 1566.55 Q1376.79 1570.21 1381.43 1570.21 Q1386.08 1570.21 1388.75 1566.55 Q1391.43 1562.85 1391.43 1556.39 Q1391.43 1549.93 1388.75 1546.27 Q1386.08 1542.58 1381.43 1542.58 Q1376.79 1542.58 1374.11 1546.27 Q1371.47 1549.93 1371.47 1556.39 Z" fill="#000000" fill-rule="nonzero" fill-opacity="1" /><path clip-path="url(#clip820)" d="M1425.55 1556.27 Q1418.45 1556.27 1415.71 1557.89 Q1412.98 1559.51 1412.98 1563.43 Q1412.98 1566.55 1415.01 1568.39 Q1417.08 1570.21 1420.62 1570.21 Q1425.48 1570.21 1428.41 1566.77 Q1431.37 1563.3 1431.37 1557.57 L1431.37 1556.27 L1425.55 1556.27 M1437.23 1553.85 L1437.23 1574.19 L1431.37 1574.19 L1431.37 1568.77 Q1429.37 1572.02 1426.38 1573.58 Q1423.38 1575.11 1419.06 1575.11 Q1413.58 1575.11 1410.33 1572.05 Q1407.12 1568.97 1407.12 1563.81 Q1407.12 1557.79 1411.13 1554.74 Q1415.17 1551.68 1423.16 1551.68 L1431.37 1551.68 L1431.37 1551.11 Q1431.37 1547.07 1428.7 1544.87 Q1426.06 1542.64 1421.25 1542.64 Q1418.2 1542.64 1415.3 1543.38 Q1412.4 1544.11 1409.73 1545.57 L1409.73 1540.16 Q1412.94 1538.92 1415.97 1538.31 Q1418.99 1537.68 1421.86 1537.68 Q1429.59 1537.68 1433.41 1541.69 Q1437.23 1545.7 1437.23 1553.85 Z" fill="#000000" fill-rule="nonzero" fill-opacity="1" /><polyline clip-path="url(#clip822)" style="stroke:#000000; stroke-linecap:round; stroke-linejoin:round; stroke-width:2; stroke-opacity:0.1; fill:none" points="289.514,977.987 2352.76,977.987 "/>
<polyline clip-path="url(#clip822)" style="stroke:#000000; stroke-linecap:round; stroke-linejoin:round; stroke-width:2; stroke-opacity:0.1; fill:none" points="289.514,495.341 2352.76,495.341 "/>
<polyline clip-path="url(#clip820)" style="stroke:#000000; stroke-linecap:round; stroke-linejoin:round; stroke-width:4; stroke-opacity:1; fill:none" points="289.514,1410.9 289.514,47.2441 "/>
<polyline clip-path="url(#clip820)" style="stroke:#000000; stroke-linecap:round; stroke-linejoin:round; stroke-width:4; stroke-opacity:1; fill:none" points="289.514,977.987 308.412,977.987 "/>
<polyline clip-path="url(#clip820)" style="stroke:#000000; stroke-linecap:round; stroke-linejoin:round; stroke-width:4; stroke-opacity:1; fill:none" points="289.514,495.341 308.412,495.341 "/>
<path clip-path="url(#clip820)" d="M116.135 997.779 L123.774 997.779 L123.774 971.414 L115.464 973.081 L115.464 968.821 L123.728 967.155 L128.404 967.155 L128.404 997.779 L136.042 997.779 L136.042 1001.71 L116.135 1001.71 L116.135 997.779 Z" fill="#000000" fill-rule="nonzero" fill-opacity="1" /><path clip-path="url(#clip820)" d="M155.487 970.233 Q151.876 970.233 150.047 973.798 Q148.241 977.34 148.241 984.469 Q148.241 991.576 150.047 995.141 Q151.876 998.682 155.487 998.682 Q159.121 998.682 160.927 995.141 Q162.755 991.576 162.755 984.469 Q162.755 977.34 160.927 973.798 Q159.121 970.233 155.487 970.233 M155.487 966.53 Q161.297 966.53 164.352 971.136 Q167.431 975.719 167.431 984.469 Q167.431 993.196 164.352 997.803 Q161.297 1002.39 155.487 1002.39 Q149.677 1002.39 146.598 997.803 Q143.542 993.196 143.542 984.469 Q143.542 975.719 146.598 971.136 Q149.677 966.53 155.487 966.53 Z" fill="#000000" fill-rule="nonzero" fill-opacity="1" /><path clip-path="url(#clip820)" d="M167.431 960.631 L191.543 960.631 L191.543 963.828 L167.431 963.828 L167.431 960.631 Z" fill="#000000" fill-rule="nonzero" fill-opacity="1" /><path clip-path="url(#clip820)" d="M207.868 948.726 Q204.934 948.726 203.448 951.622 Q201.981 954.5 201.981 960.292 Q201.981 966.066 203.448 968.963 Q204.934 971.84 207.868 971.84 Q210.821 971.84 212.288 968.963 Q213.774 966.066 213.774 960.292 Q213.774 954.5 212.288 951.622 Q210.821 948.726 207.868 948.726 M207.868 945.716 Q212.589 945.716 215.071 949.459 Q217.573 953.183 217.573 960.292 Q217.573 967.383 215.071 971.126 Q212.589 974.85 207.868 974.85 Q203.147 974.85 200.646 971.126 Q198.163 967.383 198.163 960.292 Q198.163 953.183 200.646 949.459 Q203.147 945.716 207.868 945.716 Z" fill="#000000" fill-rule="nonzero" fill-opacity="1" /><path clip-path="url(#clip820)" d="M224.249 969.527 L228.218 969.527 L228.218 974.304 L224.249 974.304 L224.249 969.527 Z" fill="#000000" fill-rule="nonzero" fill-opacity="1" /><path clip-path="url(#clip820)" d="M236.531 946.224 L251.445 946.224 L251.445 949.422 L240.01 949.422 L240.01 956.305 Q240.838 956.023 241.665 955.891 Q242.493 955.741 243.321 955.741 Q248.022 955.741 250.768 958.318 Q253.514 960.894 253.514 965.295 Q253.514 969.828 250.693 972.348 Q247.872 974.85 242.737 974.85 Q240.97 974.85 239.126 974.549 Q237.302 974.248 235.346 973.646 L235.346 969.828 Q237.039 970.75 238.844 971.201 Q240.65 971.652 242.662 971.652 Q245.916 971.652 247.816 969.941 Q249.715 968.229 249.715 965.295 Q249.715 962.361 247.816 960.65 Q245.916 958.938 242.662 958.938 Q241.139 958.938 239.615 959.277 Q238.111 959.615 236.531 960.33 L236.531 946.224 Z" fill="#000000" fill-rule="nonzero" fill-opacity="1" /><path clip-path="url(#clip820)" d="M114.931 515.133 L122.57 515.133 L122.57 488.768 L114.26 490.434 L114.26 486.175 L122.524 484.508 L127.2 484.508 L127.2 515.133 L134.839 515.133 L134.839 519.068 L114.931 519.068 L114.931 515.133 Z" fill="#000000" fill-rule="nonzero" fill-opacity="1" /><path clip-path="url(#clip820)" d="M154.283 487.587 Q150.672 487.587 148.843 491.152 Q147.038 494.694 147.038 501.823 Q147.038 508.93 148.843 512.494 Q150.672 516.036 154.283 516.036 Q157.917 516.036 159.723 512.494 Q161.552 508.93 161.552 501.823 Q161.552 494.694 159.723 491.152 Q157.917 487.587 154.283 487.587 M154.283 483.884 Q160.093 483.884 163.149 488.49 Q166.227 493.073 166.227 501.823 Q166.227 510.55 163.149 515.156 Q160.093 519.74 154.283 519.74 Q148.473 519.74 145.394 515.156 Q142.339 510.55 142.339 501.823 Q142.339 493.073 145.394 488.49 Q148.473 483.884 154.283 483.884 Z" fill="#000000" fill-rule="nonzero" fill-opacity="1" /><path clip-path="url(#clip820)" d="M166.227 477.985 L190.339 477.985 L190.339 481.182 L166.227 481.182 L166.227 477.985 Z" fill="#000000" fill-rule="nonzero" fill-opacity="1" /><path clip-path="url(#clip820)" d="M206.664 466.08 Q203.73 466.08 202.244 468.976 Q200.777 471.854 200.777 477.646 Q200.777 483.42 202.244 486.317 Q203.73 489.194 206.664 489.194 Q209.617 489.194 211.084 486.317 Q212.57 483.42 212.57 477.646 Q212.57 471.854 211.084 468.976 Q209.617 466.08 206.664 466.08 M206.664 463.07 Q211.385 463.07 213.868 466.813 Q216.369 470.537 216.369 477.646 Q216.369 484.737 213.868 488.48 Q211.385 492.204 206.664 492.204 Q201.943 492.204 199.442 488.48 Q196.959 484.737 196.959 477.646 Q196.959 470.537 199.442 466.813 Q201.943 463.07 206.664 463.07 Z" fill="#000000" fill-rule="nonzero" fill-opacity="1" /><path clip-path="url(#clip820)" d="M223.046 486.881 L227.014 486.881 L227.014 491.658 L223.046 491.658 L223.046 486.881 Z" fill="#000000" fill-rule="nonzero" fill-opacity="1" /><path clip-path="url(#clip820)" d="M245.728 466.888 L236.136 481.878 L245.728 481.878 L245.728 466.888 M244.731 463.578 L249.508 463.578 L249.508 481.878 L253.514 481.878 L253.514 485.038 L249.508 485.038 L249.508 491.658 L245.728 491.658 L245.728 485.038 L233.051 485.038 L233.051 481.37 L244.731 463.578 Z" fill="#000000" fill-rule="nonzero" fill-opacity="1" /><path clip-path="url(#clip820)" d="M44.7161 788.526 L47.5806 788.526 L47.5806 815.453 Q53.6281 815.071 56.8109 811.825 Q59.9619 808.546 59.9619 802.722 Q59.9619 799.348 59.1344 796.197 Q58.3069 793.014 56.6518 789.895 L62.1899 789.895 Q63.5267 793.046 64.227 796.356 Q64.9272 799.666 64.9272 803.072 Q64.9272 811.602 59.9619 816.599 Q54.9967 821.564 46.5303 821.564 Q37.7774 821.564 32.6531 816.853 Q27.4968 812.111 27.4968 804.09 Q27.4968 796.897 32.1438 792.727 Q36.7589 788.526 44.7161 788.526 M42.9973 794.383 Q38.1912 794.446 35.3266 797.088 Q32.4621 799.698 32.4621 804.027 Q32.4621 808.928 35.2312 811.888 Q38.0002 814.816 43.0292 815.262 L42.9973 794.383 Z" fill="#000000" fill-rule="nonzero" fill-opacity="1" /><path clip-path="url(#clip820)" d="M33.8307 758.257 Q33.2578 759.244 33.0032 760.421 Q32.7167 761.567 32.7167 762.968 Q32.7167 767.933 35.9632 770.607 Q39.1779 773.248 45.2253 773.248 L64.0042 773.248 L64.0042 779.137 L28.3562 779.137 L28.3562 773.248 L33.8944 773.248 Q30.6479 771.402 29.0883 768.442 Q27.4968 765.482 27.4968 761.249 Q27.4968 760.644 27.5923 759.912 Q27.656 759.18 27.8151 758.289 L33.8307 758.257 Z" fill="#000000" fill-rule="nonzero" fill-opacity="1" /><path clip-path="url(#clip820)" d="M33.8307 732.603 Q33.2578 733.59 33.0032 734.768 Q32.7167 735.914 32.7167 737.314 Q32.7167 742.279 35.9632 744.953 Q39.1779 747.595 45.2253 747.595 L64.0042 747.595 L64.0042 753.483 L28.3562 753.483 L28.3562 747.595 L33.8944 747.595 Q30.6479 745.749 29.0883 742.788 Q27.4968 739.828 27.4968 735.595 Q27.4968 734.99 27.5923 734.258 Q27.656 733.526 27.8151 732.635 L33.8307 732.603 Z" fill="#000000" fill-rule="nonzero" fill-opacity="1" /><path clip-path="url(#clip820)" d="M32.4621 714.079 Q32.4621 718.79 36.1542 721.527 Q39.8145 724.264 46.212 724.264 Q52.6095 724.264 56.3017 721.559 Q59.9619 718.822 59.9619 714.079 Q59.9619 709.4 56.2698 706.663 Q52.5777 703.926 46.212 703.926 Q39.8781 703.926 36.186 706.663 Q32.4621 709.4 32.4621 714.079 M27.4968 714.079 Q27.4968 706.44 32.4621 702.08 Q37.4273 697.719 46.212 697.719 Q54.9649 697.719 59.9619 702.08 Q64.9272 706.44 64.9272 714.079 Q64.9272 721.75 59.9619 726.11 Q54.9649 730.439 46.212 730.439 Q37.4273 730.439 32.4621 726.11 Q27.4968 721.75 27.4968 714.079 Z" fill="#000000" fill-rule="nonzero" fill-opacity="1" /><path clip-path="url(#clip820)" d="M33.8307 667.355 Q33.2578 668.342 33.0032 669.519 Q32.7167 670.665 32.7167 672.065 Q32.7167 677.031 35.9632 679.704 Q39.1779 682.346 45.2253 682.346 L64.0042 682.346 L64.0042 688.234 L28.3562 688.234 L28.3562 682.346 L33.8944 682.346 Q30.6479 680.5 29.0883 677.54 Q27.4968 674.58 27.4968 670.347 Q27.4968 669.742 27.5923 669.01 Q27.656 668.278 27.8151 667.387 L33.8307 667.355 Z" fill="#000000" fill-rule="nonzero" fill-opacity="1" /><path clip-path="url(#clip820)" d="M29.4065 638.486 L34.9447 638.486 Q33.6716 640.969 33.035 643.643 Q32.3984 646.316 32.3984 649.181 Q32.3984 653.541 33.7352 655.737 Q35.072 657.902 37.7456 657.902 Q39.7826 657.902 40.9603 656.342 Q42.1061 654.783 43.1565 650.072 L43.6021 648.067 Q44.9389 641.828 47.3897 639.218 Q49.8086 636.577 54.1691 636.577 Q59.1344 636.577 62.0308 640.523 Q64.9272 644.438 64.9272 651.313 Q64.9272 654.178 64.3543 657.297 Q63.8132 660.384 62.6992 663.822 L56.6518 663.822 Q58.3387 660.575 59.198 657.424 Q60.0256 654.273 60.0256 651.186 Q60.0256 647.048 58.6251 644.82 Q57.1929 642.592 54.6147 642.592 Q52.2276 642.592 50.9545 644.215 Q49.6813 645.807 48.5037 651.25 L48.0262 653.287 Q46.8804 658.729 44.5251 661.148 Q42.138 663.567 38.0002 663.567 Q32.9713 663.567 30.2341 660.002 Q27.4968 656.438 27.4968 649.881 Q27.4968 646.634 27.9743 643.77 Q28.4517 640.905 29.4065 638.486 Z" fill="#000000" fill-rule="nonzero" fill-opacity="1" /><polyline clip-path="url(#clip822)" style="stroke:#009af9; stroke-linecap:round; stroke-linejoin:round; stroke-width:4; stroke-opacity:1; fill:none" points="347.908,1324.84 367.569,1332.68 387.23,1332.68 406.891,1332.68 426.553,1324.84 446.214,1324.84 465.875,1332.68 485.536,1309.26 505.197,1324.84 524.858,1317.03 544.52,1356.36 564.181,1372.3 583.842,1372.3 603.503,1364.32 623.164,1293.79 642.825,1309.26 662.486,1270.8 682.148,1270.8 701.809,1233.03 721.47,1233.03 741.131,1225.55 760.792,1218.11 780.453,1210.69 800.115,1218.11 819.776,1218.11 839.437,1203.29 859.098,1218.11 878.759,1210.69 898.42,1195.93 918.081,1195.93 937.743,1166.71 957.404,1173.98 977.065,1181.27 996.726,1188.58 1016.39,1181.27 1036.05,1145.07 1055.71,1159.47 1075.37,1159.47 1095.03,1173.98 1114.69,1166.71 1134.35,1173.98 1154.02,1203.29 1173.68,1181.27 1193.34,1203.29 1213,1210.69 1232.66,1195.93 1252.32,1159.47 1271.98,1145.07 1291.64,1145.07 1311.3,1123.64 1330.97,1102.43 1350.63,1123.64 1370.29,1102.43 1389.95,1060.65 1409.61,959.691 1429.27,888.63 1448.93,901.373 1468.59,914.193 1488.25,901.373 1507.92,826.055 1527.58,747.404 1547.24,717.923 1566.9,660.175 1586.56,142.908 1606.22,85.838 1625.88,85.838 1645.54,85.838 1665.21,85.838 1684.87,85.838 1704.53,85.838 1724.19,85.838 1743.85,85.838 1763.51,85.838 1783.17,85.838 1802.83,85.838 1822.49,85.838 1842.16,85.838 1861.82,85.838 1881.48,85.838 1901.14,85.838 1920.8,85.838 1940.46,85.838 1960.12,85.838 1979.78,85.838 1999.44,85.838 2019.11,85.838 2038.77,85.838 2058.43,85.838 2078.09,85.838 2097.75,85.838 2117.41,85.838 2137.07,85.838 2156.73,85.838 2176.4,85.838 2196.06,85.838 2215.72,85.838 2235.38,85.838 2255.04,85.838 2274.7,85.838 2294.36,85.838 "/>
<polyline clip-path="url(#clip822)" style="stroke:#e26f46; stroke-linecap:round; stroke-linejoin:round; stroke-width:4; stroke-opacity:1; fill:none" points="347.908,1263.19 367.569,1263.19 387.23,1270.8 406.891,1270.8 426.553,1263.19 446.214,1263.19 465.875,1270.8 485.536,1225.55 505.197,1278.43 524.858,1195.93 544.52,1210.69 564.181,1225.55 583.842,1233.03 603.503,1218.11 623.164,1203.29 642.825,1188.58 662.486,1166.71 682.148,1166.71 701.809,1152.26 721.47,1145.07 741.131,1173.98 760.792,1210.69 780.453,1210.69 800.115,1240.53 819.776,1218.11 839.437,1210.69 859.098,1218.11 878.759,1218.11 898.42,1210.69 918.081,1225.55 937.743,1248.05 957.404,1255.61 977.065,1255.61 996.726,1210.69 1016.39,1233.03 1036.05,1270.8 1055.71,1195.93 1075.37,1203.29 1095.03,1195.93 1114.69,1233.03 1134.35,1210.69 1154.02,1173.98 1173.68,1233.03 1193.34,1263.19 1213,1255.61 1232.66,1218.11 1252.32,1188.58 1271.98,1181.27 1291.64,1203.29 1311.3,1181.27 1330.97,1166.71 1350.63,1130.76 1370.29,1088.41 1389.95,1053.76 1409.61,946.591 1429.27,894.992 1448.93,894.992 1468.59,907.773 1488.25,888.63 1507.92,826.055 1527.58,783.338 1547.24,753.351 1566.9,688.85 1586.56,219.963 1606.22,156.302 1625.88,151.828 1645.54,151.828 1665.21,151.828 1684.87,151.828 1704.53,151.828 1724.19,151.828 1743.85,151.828 1763.51,151.828 1783.17,151.828 1802.83,151.828 1822.49,151.828 1842.16,151.828 1861.82,151.828 1881.48,151.828 1901.14,151.828 1920.8,151.828 1940.46,151.828 1960.12,151.828 1979.78,151.828 1999.44,151.828 2019.11,151.828 2038.77,151.828 2058.43,151.828 2078.09,151.828 2097.75,151.828 2117.41,151.828 2137.07,151.828 2156.73,151.828 2176.4,151.828 2196.06,151.828 2215.72,151.828 2235.38,151.828 2255.04,151.828 2274.7,151.828 2294.36,151.828 "/>
<path clip-path="url(#clip820)" d="M1833.93 1365.44 L2283.98 1365.44 L2283.98 1209.92 L1833.93 1209.92  Z" fill="#ffffff" fill-rule="evenodd" fill-opacity="1"/>
<polyline clip-path="url(#clip820)" style="stroke:#000000; stroke-linecap:round; stroke-linejoin:round; stroke-width:4; stroke-opacity:1; fill:none" points="1833.93,1365.44 2283.98,1365.44 2283.98,1209.92 1833.93,1209.92 1833.93,1365.44 "/>
<polyline clip-path="url(#clip820)" style="stroke:#009af9; stroke-linecap:round; stroke-linejoin:round; stroke-width:4; stroke-opacity:1; fill:none" points="1856.86,1261.76 1994.41,1261.76 "/>
<path clip-path="url(#clip820)" d="M2017.33 1244.48 L2046.57 1244.48 L2046.57 1248.42 L2034.3 1248.42 L2034.3 1279.04 L2029.6 1279.04 L2029.6 1248.42 L2017.33 1248.42 L2017.33 1244.48 Z" fill="#000000" fill-rule="nonzero" fill-opacity="1" /><path clip-path="url(#clip820)" d="M2058.95 1257.1 Q2058.23 1256.68 2057.38 1256.5 Q2056.54 1256.29 2055.52 1256.29 Q2051.91 1256.29 2049.97 1258.65 Q2048.05 1260.99 2048.05 1265.38 L2048.05 1279.04 L2043.77 1279.04 L2043.77 1253.12 L2048.05 1253.12 L2048.05 1257.14 Q2049.39 1254.78 2051.54 1253.65 Q2053.7 1252.49 2056.77 1252.49 Q2057.21 1252.49 2057.75 1252.56 Q2058.28 1252.61 2058.93 1252.72 L2058.95 1257.1 Z" fill="#000000" fill-rule="nonzero" fill-opacity="1" /><path clip-path="url(#clip820)" d="M2075.2 1266.01 Q2070.04 1266.01 2068.05 1267.19 Q2066.06 1268.37 2066.06 1271.22 Q2066.06 1273.49 2067.54 1274.83 Q2069.04 1276.15 2071.61 1276.15 Q2075.15 1276.15 2077.28 1273.65 Q2079.44 1271.12 2079.44 1266.96 L2079.44 1266.01 L2075.2 1266.01 M2083.7 1264.25 L2083.7 1279.04 L2079.44 1279.04 L2079.44 1275.11 Q2077.98 1277.47 2075.8 1278.6 Q2073.63 1279.71 2070.48 1279.71 Q2066.5 1279.71 2064.14 1277.49 Q2061.8 1275.25 2061.8 1271.5 Q2061.8 1267.12 2064.71 1264.9 Q2067.65 1262.68 2073.46 1262.68 L2079.44 1262.68 L2079.44 1262.26 Q2079.44 1259.32 2077.49 1257.72 Q2075.57 1256.1 2072.08 1256.1 Q2069.85 1256.1 2067.75 1256.63 Q2065.64 1257.17 2063.7 1258.23 L2063.7 1254.3 Q2066.03 1253.39 2068.23 1252.95 Q2070.43 1252.49 2072.52 1252.49 Q2078.14 1252.49 2080.92 1255.41 Q2083.7 1258.32 2083.7 1264.25 Z" fill="#000000" fill-rule="nonzero" fill-opacity="1" /><path clip-path="url(#clip820)" d="M2092.47 1253.12 L2096.73 1253.12 L2096.73 1279.04 L2092.47 1279.04 L2092.47 1253.12 M2092.47 1243.02 L2096.73 1243.02 L2096.73 1248.42 L2092.47 1248.42 L2092.47 1243.02 Z" fill="#000000" fill-rule="nonzero" fill-opacity="1" /><path clip-path="url(#clip820)" d="M2127.19 1263.39 L2127.19 1279.04 L2122.93 1279.04 L2122.93 1263.53 Q2122.93 1259.85 2121.5 1258.02 Q2120.06 1256.19 2117.19 1256.19 Q2113.74 1256.19 2111.75 1258.39 Q2109.76 1260.59 2109.76 1264.39 L2109.76 1279.04 L2105.48 1279.04 L2105.48 1253.12 L2109.76 1253.12 L2109.76 1257.14 Q2111.29 1254.81 2113.35 1253.65 Q2115.43 1252.49 2118.14 1252.49 Q2122.61 1252.49 2124.9 1255.27 Q2127.19 1258.02 2127.19 1263.39 Z" fill="#000000" fill-rule="nonzero" fill-opacity="1" /><path clip-path="url(#clip820)" d="M2172.93 1265.01 L2172.93 1267.1 L2153.35 1267.1 Q2153.63 1271.5 2155.99 1273.81 Q2158.37 1276.1 2162.61 1276.1 Q2165.06 1276.1 2167.35 1275.5 Q2169.67 1274.9 2171.94 1273.69 L2171.94 1277.72 Q2169.64 1278.69 2167.24 1279.2 Q2164.83 1279.71 2162.35 1279.71 Q2156.15 1279.71 2152.52 1276.1 Q2148.9 1272.49 2148.9 1266.33 Q2148.9 1259.97 2152.33 1256.24 Q2155.78 1252.49 2161.61 1252.49 Q2166.84 1252.49 2169.88 1255.87 Q2172.93 1259.23 2172.93 1265.01 M2168.67 1263.76 Q2168.63 1260.27 2166.7 1258.19 Q2164.81 1256.1 2161.66 1256.1 Q2158.09 1256.1 2155.94 1258.12 Q2153.81 1260.13 2153.49 1263.79 L2168.67 1263.76 Z" fill="#000000" fill-rule="nonzero" fill-opacity="1" /><path clip-path="url(#clip820)" d="M2194.95 1257.1 Q2194.23 1256.68 2193.37 1256.5 Q2192.54 1256.29 2191.52 1256.29 Q2187.91 1256.29 2185.96 1258.65 Q2184.04 1260.99 2184.04 1265.38 L2184.04 1279.04 L2179.76 1279.04 L2179.76 1253.12 L2184.04 1253.12 L2184.04 1257.14 Q2185.39 1254.78 2187.54 1253.65 Q2189.69 1252.49 2192.77 1252.49 Q2193.21 1252.49 2193.74 1252.56 Q2194.27 1252.61 2194.92 1252.72 L2194.95 1257.1 Z" fill="#000000" fill-rule="nonzero" fill-opacity="1" /><path clip-path="url(#clip820)" d="M2213.6 1257.1 Q2212.89 1256.68 2212.03 1256.5 Q2211.2 1256.29 2210.18 1256.29 Q2206.57 1256.29 2204.62 1258.65 Q2202.7 1260.99 2202.7 1265.38 L2202.7 1279.04 L2198.42 1279.04 L2198.42 1253.12 L2202.7 1253.12 L2202.7 1257.14 Q2204.04 1254.78 2206.2 1253.65 Q2208.35 1252.49 2211.43 1252.49 Q2211.87 1252.49 2212.4 1252.56 Q2212.93 1252.61 2213.58 1252.72 L2213.6 1257.1 Z" fill="#000000" fill-rule="nonzero" fill-opacity="1" /><path clip-path="url(#clip820)" d="M2227.07 1256.1 Q2223.65 1256.1 2221.66 1258.79 Q2219.67 1261.45 2219.67 1266.1 Q2219.67 1270.75 2221.64 1273.44 Q2223.63 1276.1 2227.07 1276.1 Q2230.48 1276.1 2232.47 1273.42 Q2234.46 1270.73 2234.46 1266.1 Q2234.46 1261.5 2232.47 1258.81 Q2230.48 1256.1 2227.07 1256.1 M2227.07 1252.49 Q2232.63 1252.49 2235.8 1256.1 Q2238.97 1259.71 2238.97 1266.1 Q2238.97 1272.47 2235.8 1276.1 Q2232.63 1279.71 2227.07 1279.71 Q2221.5 1279.71 2218.33 1276.1 Q2215.18 1272.47 2215.18 1266.1 Q2215.18 1259.71 2218.33 1256.1 Q2221.5 1252.49 2227.07 1252.49 Z" fill="#000000" fill-rule="nonzero" fill-opacity="1" /><path clip-path="url(#clip820)" d="M2261.06 1257.1 Q2260.34 1256.68 2259.48 1256.5 Q2258.65 1256.29 2257.63 1256.29 Q2254.02 1256.29 2252.07 1258.65 Q2250.15 1260.99 2250.15 1265.38 L2250.15 1279.04 L2245.87 1279.04 L2245.87 1253.12 L2250.15 1253.12 L2250.15 1257.14 Q2251.5 1254.78 2253.65 1253.65 Q2255.8 1252.49 2258.88 1252.49 Q2259.32 1252.49 2259.85 1252.56 Q2260.38 1252.61 2261.03 1252.72 L2261.06 1257.1 Z" fill="#000000" fill-rule="nonzero" fill-opacity="1" /><polyline clip-path="url(#clip820)" style="stroke:#e26f46; stroke-linecap:round; stroke-linejoin:round; stroke-width:4; stroke-opacity:1; fill:none" points="1856.86,1313.6 1994.41,1313.6 "/>
<path clip-path="url(#clip820)" d="M2017.33 1296.32 L2046.57 1296.32 L2046.57 1300.26 L2034.3 1300.26 L2034.3 1330.88 L2029.6 1330.88 L2029.6 1300.26 L2017.33 1300.26 L2017.33 1296.32 Z" fill="#000000" fill-rule="nonzero" fill-opacity="1" /><path clip-path="url(#clip820)" d="M2065.02 1316.85 L2065.02 1318.94 L2045.43 1318.94 Q2045.71 1323.34 2048.07 1325.65 Q2050.46 1327.94 2054.69 1327.94 Q2057.15 1327.94 2059.44 1327.34 Q2061.75 1326.74 2064.02 1325.53 L2064.02 1329.56 Q2061.73 1330.53 2059.32 1331.04 Q2056.91 1331.55 2054.44 1331.55 Q2048.23 1331.55 2044.6 1327.94 Q2040.99 1324.33 2040.99 1318.17 Q2040.99 1311.81 2044.41 1308.08 Q2047.86 1304.33 2053.7 1304.33 Q2058.93 1304.33 2061.96 1307.71 Q2065.02 1311.07 2065.02 1316.85 M2060.76 1315.6 Q2060.71 1312.11 2058.79 1310.03 Q2056.89 1307.94 2053.74 1307.94 Q2050.18 1307.94 2048.03 1309.96 Q2045.9 1311.97 2045.57 1315.63 L2060.76 1315.6 Z" fill="#000000" fill-rule="nonzero" fill-opacity="1" /><path clip-path="url(#clip820)" d="M2088.53 1305.72 L2088.53 1309.75 Q2086.73 1308.82 2084.78 1308.36 Q2082.84 1307.9 2080.76 1307.9 Q2077.59 1307.9 2075.99 1308.87 Q2074.41 1309.84 2074.41 1311.78 Q2074.41 1313.27 2075.55 1314.12 Q2076.68 1314.96 2080.11 1315.72 L2081.57 1316.04 Q2086.1 1317.02 2088 1318.8 Q2089.92 1320.56 2089.92 1323.73 Q2089.92 1327.34 2087.05 1329.45 Q2084.21 1331.55 2079.21 1331.55 Q2077.12 1331.55 2074.85 1331.14 Q2072.61 1330.74 2070.11 1329.93 L2070.11 1325.53 Q2072.47 1326.76 2074.76 1327.39 Q2077.05 1327.99 2079.3 1327.99 Q2082.31 1327.99 2083.93 1326.97 Q2085.55 1325.93 2085.55 1324.05 Q2085.55 1322.32 2084.37 1321.39 Q2083.21 1320.46 2079.25 1319.61 L2077.77 1319.26 Q2073.81 1318.43 2072.05 1316.71 Q2070.29 1314.98 2070.29 1311.97 Q2070.29 1308.31 2072.89 1306.32 Q2075.48 1304.33 2080.25 1304.33 Q2082.61 1304.33 2084.69 1304.68 Q2086.77 1305.03 2088.53 1305.72 Z" fill="#000000" fill-rule="nonzero" fill-opacity="1" /><path clip-path="url(#clip820)" d="M2100.92 1297.59 L2100.92 1304.96 L2109.69 1304.96 L2109.69 1308.27 L2100.92 1308.27 L2100.92 1322.34 Q2100.92 1325.51 2101.77 1326.41 Q2102.65 1327.32 2105.32 1327.32 L2109.69 1327.32 L2109.69 1330.88 L2105.32 1330.88 Q2100.39 1330.88 2098.51 1329.05 Q2096.64 1327.2 2096.64 1322.34 L2096.64 1308.27 L2093.51 1308.27 L2093.51 1304.96 L2096.64 1304.96 L2096.64 1297.59 L2100.92 1297.59 Z" fill="#000000" fill-rule="nonzero" fill-opacity="1" /><path clip-path="url(#clip820)" d="M2152.54 1316.85 L2152.54 1318.94 L2132.96 1318.94 Q2133.23 1323.34 2135.59 1325.65 Q2137.98 1327.94 2142.21 1327.94 Q2144.67 1327.94 2146.96 1327.34 Q2149.27 1326.74 2151.54 1325.53 L2151.54 1329.56 Q2149.25 1330.53 2146.84 1331.04 Q2144.44 1331.55 2141.96 1331.55 Q2135.76 1331.55 2132.12 1327.94 Q2128.51 1324.33 2128.51 1318.17 Q2128.51 1311.81 2131.94 1308.08 Q2135.39 1304.33 2141.22 1304.33 Q2146.45 1304.33 2149.48 1307.71 Q2152.54 1311.07 2152.54 1316.85 M2148.28 1315.6 Q2148.23 1312.11 2146.31 1310.03 Q2144.41 1307.94 2141.27 1307.94 Q2137.7 1307.94 2135.55 1309.96 Q2133.42 1311.97 2133.09 1315.63 L2148.28 1315.6 Z" fill="#000000" fill-rule="nonzero" fill-opacity="1" /><path clip-path="url(#clip820)" d="M2174.55 1308.94 Q2173.83 1308.52 2172.98 1308.34 Q2172.14 1308.13 2171.13 1308.13 Q2167.52 1308.13 2165.57 1310.49 Q2163.65 1312.83 2163.65 1317.22 L2163.65 1330.88 L2159.37 1330.88 L2159.37 1304.96 L2163.65 1304.96 L2163.65 1308.98 Q2164.99 1306.62 2167.14 1305.49 Q2169.3 1304.33 2172.38 1304.33 Q2172.82 1304.33 2173.35 1304.4 Q2173.88 1304.45 2174.53 1304.56 L2174.55 1308.94 Z" fill="#000000" fill-rule="nonzero" fill-opacity="1" /><path clip-path="url(#clip820)" d="M2193.21 1308.94 Q2192.49 1308.52 2191.64 1308.34 Q2190.8 1308.13 2189.78 1308.13 Q2186.17 1308.13 2184.23 1310.49 Q2182.31 1312.83 2182.31 1317.22 L2182.31 1330.88 L2178.02 1330.88 L2178.02 1304.96 L2182.31 1304.96 L2182.31 1308.98 Q2183.65 1306.62 2185.8 1305.49 Q2187.95 1304.33 2191.03 1304.33 Q2191.47 1304.33 2192.01 1304.4 Q2192.54 1304.45 2193.19 1304.56 L2193.21 1308.94 Z" fill="#000000" fill-rule="nonzero" fill-opacity="1" /><path clip-path="url(#clip820)" d="M2206.68 1307.94 Q2203.26 1307.94 2201.26 1310.63 Q2199.27 1313.29 2199.27 1317.94 Q2199.27 1322.59 2201.24 1325.28 Q2203.23 1327.94 2206.68 1327.94 Q2210.08 1327.94 2212.08 1325.26 Q2214.07 1322.57 2214.07 1317.94 Q2214.07 1313.34 2212.08 1310.65 Q2210.08 1307.94 2206.68 1307.94 M2206.68 1304.33 Q2212.24 1304.33 2215.41 1307.94 Q2218.58 1311.55 2218.58 1317.94 Q2218.58 1324.31 2215.41 1327.94 Q2212.24 1331.55 2206.68 1331.55 Q2201.1 1331.55 2197.93 1327.94 Q2194.78 1324.31 2194.78 1317.94 Q2194.78 1311.55 2197.93 1307.94 Q2201.1 1304.33 2206.68 1304.33 Z" fill="#000000" fill-rule="nonzero" fill-opacity="1" /><path clip-path="url(#clip820)" d="M2240.66 1308.94 Q2239.95 1308.52 2239.09 1308.34 Q2238.26 1308.13 2237.24 1308.13 Q2233.63 1308.13 2231.68 1310.49 Q2229.76 1312.83 2229.76 1317.22 L2229.76 1330.88 L2225.48 1330.88 L2225.48 1304.96 L2229.76 1304.96 L2229.76 1308.98 Q2231.1 1306.62 2233.26 1305.49 Q2235.41 1304.33 2238.49 1304.33 Q2238.93 1304.33 2239.46 1304.4 Q2239.99 1304.45 2240.64 1304.56 L2240.66 1308.94 Z" fill="#000000" fill-rule="nonzero" fill-opacity="1" /></svg>
