<?xml version="1.0" encoding="utf-8"?>
<svg xmlns="http://www.w3.org/2000/svg" xmlns:xlink="http://www.w3.org/1999/xlink" width="600" height="400" viewBox="0 0 2400 1600">
<defs>
  <clipPath id="clip720">
    <rect x="0" y="0" width="2400" height="1600"/>
  </clipPath>
</defs>
<path clip-path="url(#clip720)" d="M0 1600 L2400 1600 L2400 0 L0 0  Z" fill="#ffffff" fill-rule="evenodd" fill-opacity="1"/>
<defs>
  <clipPath id="clip721">
    <rect x="480" y="0" width="1681" height="1600"/>
  </clipPath>
</defs>
<path clip-path="url(#clip720)" d="M169.121 1486.45 L2352.76 1486.45 L2352.76 47.2441 L169.121 47.2441  Z" fill="#ffffff" fill-rule="evenodd" fill-opacity="1"/>
<defs>
  <clipPath id="clip722">
    <rect x="169" y="47" width="2185" height="1440"/>
  </clipPath>
</defs>
<polyline clip-path="url(#clip722)" style="stroke:#000000; stroke-linecap:round; stroke-linejoin:round; stroke-width:2; stroke-opacity:0.1; fill:none" points="517.662,1486.45 517.662,47.2441 "/>
<polyline clip-path="url(#clip722)" style="stroke:#000000; stroke-linecap:round; stroke-linejoin:round; stroke-width:2; stroke-opacity:0.1; fill:none" points="960.985,1486.45 960.985,47.2441 "/>
<polyline clip-path="url(#clip722)" style="stroke:#000000; stroke-linecap:round; stroke-linejoin:round; stroke-width:2; stroke-opacity:0.1; fill:none" points="1404.31,1486.45 1404.31,47.2441 "/>
<polyline clip-path="url(#clip722)" style="stroke:#000000; stroke-linecap:round; stroke-linejoin:round; stroke-width:2; stroke-opacity:0.1; fill:none" points="1847.63,1486.45 1847.63,47.2441 "/>
<polyline clip-path="url(#clip722)" style="stroke:#000000; stroke-linecap:round; stroke-linejoin:round; stroke-width:2; stroke-opacity:0.1; fill:none" points="2290.95,1486.45 2290.95,47.2441 "/>
<polyline clip-path="url(#clip720)" style="stroke:#000000; stroke-linecap:round; stroke-linejoin:round; stroke-width:4; stroke-opacity:1; fill:none" points="169.121,1486.45 2352.76,1486.45 "/>
<polyline clip-path="url(#clip720)" style="stroke:#000000; stroke-linecap:round; stroke-linejoin:round; stroke-width:4; stroke-opacity:1; fill:none" points="517.662,1486.45 517.662,1467.55 "/>
<polyline clip-path="url(#clip720)" style="stroke:#000000; stroke-linecap:round; stroke-linejoin:round; stroke-width:4; stroke-opacity:1; fill:none" points="960.985,1486.45 960.985,1467.55 "/>
<polyline clip-path="url(#clip720)" style="stroke:#000000; stroke-linecap:round; stroke-linejoin:round; stroke-width:4; stroke-opacity:1; fill:none" points="1404.31,1486.45 1404.31,1467.55 "/>
<polyline clip-path="url(#clip720)" style="stroke:#000000; stroke-linecap:round; stroke-linejoin:round; stroke-width:4; stroke-opacity:1; fill:none" points="1847.63,1486.45 1847.63,1467.55 "/>
<polyline clip-path="url(#clip720)" style="stroke:#000000; stroke-linecap:round; stroke-linejoin:round; stroke-width:4; stroke-opacity:1; fill:none" points="2290.95,1486.45 2290.95,1467.55 "/>
<path clip-path="url(#clip720)" d="M517.662 1517.37 Q514.051 1517.37 512.223 1520.93 Q510.417 1524.47 510.417 1531.6 Q510.417 1538.71 512.223 1542.27 Q514.051 1545.82 517.662 1545.82 Q521.297 1545.82 523.102 1542.27 Q524.931 1538.71 524.931 1531.6 Q524.931 1524.47 523.102 1520.93 Q521.297 1517.37 517.662 1517.37 M517.662 1513.66 Q523.472 1513.66 526.528 1518.27 Q529.607 1522.85 529.607 1531.6 Q529.607 1540.33 526.528 1544.94 Q523.472 1549.52 517.662 1549.52 Q511.852 1549.52 508.773 1544.94 Q505.718 1540.33 505.718 1531.6 Q505.718 1522.85 508.773 1518.27 Q511.852 1513.66 517.662 1513.66 Z" fill="#000000" fill-rule="nonzero" fill-opacity="1" /><path clip-path="url(#clip720)" d="M940.256 1544.91 L956.576 1544.91 L956.576 1548.85 L934.631 1548.85 L934.631 1544.91 Q937.293 1542.16 941.877 1537.53 Q946.483 1532.88 947.664 1531.53 Q949.909 1529.01 950.789 1527.27 Q951.691 1525.51 951.691 1523.82 Q951.691 1521.07 949.747 1519.33 Q947.826 1517.6 944.724 1517.6 Q942.525 1517.6 940.071 1518.36 Q937.641 1519.13 934.863 1520.68 L934.863 1515.95 Q937.687 1514.82 940.141 1514.24 Q942.594 1513.66 944.631 1513.66 Q950.002 1513.66 953.196 1516.35 Q956.39 1519.03 956.39 1523.52 Q956.39 1525.65 955.58 1527.57 Q954.793 1529.47 952.687 1532.07 Q952.108 1532.74 949.006 1535.95 Q945.904 1539.15 940.256 1544.91 Z" fill="#000000" fill-rule="nonzero" fill-opacity="1" /><path clip-path="url(#clip720)" d="M966.437 1514.29 L984.793 1514.29 L984.793 1518.22 L970.719 1518.22 L970.719 1526.7 Q971.738 1526.35 972.756 1526.19 Q973.775 1526 974.793 1526 Q980.58 1526 983.96 1529.17 Q987.339 1532.34 987.339 1537.76 Q987.339 1543.34 983.867 1546.44 Q980.395 1549.52 974.076 1549.52 Q971.9 1549.52 969.631 1549.15 Q967.386 1548.78 964.978 1548.04 L964.978 1543.34 Q967.062 1544.47 969.284 1545.03 Q971.506 1545.58 973.983 1545.58 Q977.988 1545.58 980.326 1543.48 Q982.663 1541.37 982.663 1537.76 Q982.663 1534.15 980.326 1532.04 Q977.988 1529.94 973.983 1529.94 Q972.108 1529.94 970.233 1530.35 Q968.381 1530.77 966.437 1531.65 L966.437 1514.29 Z" fill="#000000" fill-rule="nonzero" fill-opacity="1" /><path clip-path="url(#clip720)" d="M1379.01 1514.29 L1397.36 1514.29 L1397.36 1518.22 L1383.29 1518.22 L1383.29 1526.7 Q1384.31 1526.35 1385.33 1526.19 Q1386.35 1526 1387.36 1526 Q1393.15 1526 1396.53 1529.17 Q1399.91 1532.34 1399.91 1537.76 Q1399.91 1543.34 1396.44 1546.44 Q1392.97 1549.52 1386.65 1549.52 Q1384.47 1549.52 1382.2 1549.15 Q1379.96 1548.78 1377.55 1548.04 L1377.55 1543.34 Q1379.63 1544.47 1381.85 1545.03 Q1384.08 1545.58 1386.55 1545.58 Q1390.56 1545.58 1392.9 1543.48 Q1395.23 1541.37 1395.23 1537.76 Q1395.23 1534.15 1392.9 1532.04 Q1390.56 1529.94 1386.55 1529.94 Q1384.68 1529.94 1382.8 1530.35 Q1380.95 1530.77 1379.01 1531.65 L1379.01 1514.29 Z" fill="#000000" fill-rule="nonzero" fill-opacity="1" /><path clip-path="url(#clip720)" d="M1419.12 1517.37 Q1415.51 1517.37 1413.68 1520.93 Q1411.88 1524.47 1411.88 1531.6 Q1411.88 1538.71 1413.68 1542.27 Q1415.51 1545.82 1419.12 1545.82 Q1422.76 1545.82 1424.56 1542.27 Q1426.39 1538.71 1426.39 1531.6 Q1426.39 1524.47 1424.56 1520.93 Q1422.76 1517.37 1419.12 1517.37 M1419.12 1513.66 Q1424.93 1513.66 1427.99 1518.27 Q1431.07 1522.85 1431.07 1531.6 Q1431.07 1540.33 1427.99 1544.94 Q1424.93 1549.52 1419.12 1549.52 Q1413.31 1549.52 1410.23 1544.94 Q1407.18 1540.33 1407.18 1531.6 Q1407.18 1522.85 1410.23 1518.27 Q1413.31 1513.66 1419.12 1513.66 Z" fill="#000000" fill-rule="nonzero" fill-opacity="1" /><path clip-path="url(#clip720)" d="M1821.49 1514.29 L1843.71 1514.29 L1843.71 1516.28 L1831.16 1548.85 L1826.28 1548.85 L1838.08 1518.22 L1821.49 1518.22 L1821.49 1514.29 Z" fill="#000000" fill-rule="nonzero" fill-opacity="1" /><path clip-path="url(#clip720)" d="M1852.87 1514.29 L1871.23 1514.29 L1871.23 1518.22 L1857.16 1518.22 L1857.16 1526.7 Q1858.18 1526.35 1859.19 1526.19 Q1860.21 1526 1861.23 1526 Q1867.02 1526 1870.4 1529.17 Q1873.78 1532.34 1873.78 1537.76 Q1873.78 1543.34 1870.3 1546.44 Q1866.83 1549.52 1860.51 1549.52 Q1858.34 1549.52 1856.07 1549.15 Q1853.82 1548.78 1851.42 1548.04 L1851.42 1543.34 Q1853.5 1544.47 1855.72 1545.03 Q1857.94 1545.58 1860.42 1545.58 Q1864.43 1545.58 1866.76 1543.48 Q1869.1 1541.37 1869.1 1537.76 Q1869.1 1534.15 1866.76 1532.04 Q1864.43 1529.94 1860.42 1529.94 Q1858.55 1529.94 1856.67 1530.35 Q1854.82 1530.77 1852.87 1531.65 L1852.87 1514.29 Z" fill="#000000" fill-rule="nonzero" fill-opacity="1" /><path clip-path="url(#clip720)" d="M2250.56 1544.91 L2258.2 1544.91 L2258.2 1518.55 L2249.89 1520.21 L2249.89 1515.95 L2258.15 1514.29 L2262.83 1514.29 L2262.83 1544.91 L2270.47 1544.91 L2270.47 1548.85 L2250.56 1548.85 L2250.56 1544.91 Z" fill="#000000" fill-rule="nonzero" fill-opacity="1" /><path clip-path="url(#clip720)" d="M2289.91 1517.37 Q2286.3 1517.37 2284.47 1520.93 Q2282.67 1524.47 2282.67 1531.6 Q2282.67 1538.71 2284.47 1542.27 Q2286.3 1545.82 2289.91 1545.82 Q2293.55 1545.82 2295.35 1542.27 Q2297.18 1538.71 2297.18 1531.6 Q2297.18 1524.47 2295.35 1520.93 Q2293.55 1517.37 2289.91 1517.37 M2289.91 1513.66 Q2295.72 1513.66 2298.78 1518.27 Q2301.86 1522.85 2301.86 1531.6 Q2301.86 1540.33 2298.78 1544.94 Q2295.72 1549.52 2289.91 1549.52 Q2284.1 1549.52 2281.02 1544.94 Q2277.97 1540.33 2277.97 1531.6 Q2277.97 1522.85 2281.02 1518.27 Q2284.1 1513.66 2289.91 1513.66 Z" fill="#000000" fill-rule="nonzero" fill-opacity="1" /><path clip-path="url(#clip720)" d="M2320.07 1517.37 Q2316.46 1517.37 2314.63 1520.93 Q2312.83 1524.47 2312.83 1531.6 Q2312.83 1538.71 2314.63 1542.27 Q2316.46 1545.82 2320.07 1545.82 Q2323.71 1545.82 2325.51 1542.27 Q2327.34 1538.71 2327.34 1531.6 Q2327.34 1524.47 2325.51 1520.93 Q2323.71 1517.37 2320.07 1517.37 M2320.07 1513.66 Q2325.88 1513.66 2328.94 1518.27 Q2332.02 1522.85 2332.02 1531.6 Q2332.02 1540.33 2328.94 1544.94 Q2325.88 1549.52 2320.07 1549.52 Q2314.26 1549.52 2311.19 1544.94 Q2308.13 1540.33 2308.13 1531.6 Q2308.13 1522.85 2311.19 1518.27 Q2314.26 1513.66 2320.07 1513.66 Z" fill="#000000" fill-rule="nonzero" fill-opacity="1" /><polyline clip-path="url(#clip722)" style="stroke:#000000; stroke-linecap:round; stroke-linejoin:round; stroke-width:2; stroke-opacity:0.1; fill:none" points="169.121,1445.72 2352.76,1445.72 "/>
<polyline clip-path="url(#clip722)" style="stroke:#000000; stroke-linecap:round; stroke-linejoin:round; stroke-width:2; stroke-opacity:0.1; fill:none" points="169.121,1065.59 2352.76,1065.59 "/>
<polyline clip-path="url(#clip722)" style="stroke:#000000; stroke-linecap:round; stroke-linejoin:round; stroke-width:2; stroke-opacity:0.1; fill:none" points="169.121,685.455 2352.76,685.455 "/>
<polyline clip-path="url(#clip722)" style="stroke:#000000; stroke-linecap:round; stroke-linejoin:round; stroke-width:2; stroke-opacity:0.1; fill:none" points="169.121,305.324 2352.76,305.324 "/>
<polyline clip-path="url(#clip720)" style="stroke:#000000; stroke-linecap:round; stroke-linejoin:round; stroke-width:4; stroke-opacity:1; fill:none" points="169.121,1486.45 169.121,47.2441 "/>
<polyline clip-path="url(#clip720)" style="stroke:#000000; stroke-linecap:round; stroke-linejoin:round; stroke-width:4; stroke-opacity:1; fill:none" points="169.121,1445.72 188.019,1445.72 "/>
<polyline clip-path="url(#clip720)" style="stroke:#000000; stroke-linecap:round; stroke-linejoin:round; stroke-width:4; stroke-opacity:1; fill:none" points="169.121,1065.59 188.019,1065.59 "/>
<polyline clip-path="url(#clip720)" style="stroke:#000000; stroke-linecap:round; stroke-linejoin:round; stroke-width:4; stroke-opacity:1; fill:none" points="169.121,685.455 188.019,685.455 "/>
<polyline clip-path="url(#clip720)" style="stroke:#000000; stroke-linecap:round; stroke-linejoin:round; stroke-width:4; stroke-opacity:1; fill:none" points="169.121,305.324 188.019,305.324 "/>
<path clip-path="url(#clip720)" d="M121.177 1431.51 Q117.566 1431.51 115.737 1435.08 Q113.932 1438.62 113.932 1445.75 Q113.932 1452.86 115.737 1456.42 Q117.566 1459.96 121.177 1459.96 Q124.811 1459.96 126.617 1456.42 Q128.445 1452.86 128.445 1445.75 Q128.445 1438.62 126.617 1435.08 Q124.811 1431.51 121.177 1431.51 M121.177 1427.81 Q126.987 1427.81 130.043 1432.42 Q133.121 1437 133.121 1445.75 Q133.121 1454.48 130.043 1459.08 Q126.987 1463.67 121.177 1463.67 Q115.367 1463.67 112.288 1459.08 Q109.233 1454.48 109.233 1445.75 Q109.233 1437 112.288 1432.42 Q115.367 1427.81 121.177 1427.81 Z" fill="#000000" fill-rule="nonzero" fill-opacity="1" /><path clip-path="url(#clip720)" d="M81.0614 1048.31 L99.4178 1048.31 L99.4178 1052.24 L85.3438 1052.24 L85.3438 1060.71 Q86.3623 1060.37 87.3808 1060.2 Q88.3993 1060.02 89.4178 1060.02 Q95.2049 1060.02 98.5845 1063.19 Q101.964 1066.36 101.964 1071.78 Q101.964 1077.36 98.4919 1080.46 Q95.0197 1083.54 88.7003 1083.54 Q86.5243 1083.54 84.2558 1083.17 Q82.0105 1082.8 79.6031 1082.06 L79.6031 1077.36 Q81.6864 1078.49 83.9086 1079.05 Q86.1308 1079.6 88.6077 1079.6 Q92.6123 1079.6 94.9502 1077.5 Q97.2882 1075.39 97.2882 1071.78 Q97.2882 1068.17 94.9502 1066.06 Q92.6123 1063.95 88.6077 1063.95 Q86.7327 1063.95 84.8577 1064.37 Q83.0058 1064.79 81.0614 1065.67 L81.0614 1048.31 Z" fill="#000000" fill-rule="nonzero" fill-opacity="1" /><path clip-path="url(#clip720)" d="M121.177 1051.38 Q117.566 1051.38 115.737 1054.95 Q113.932 1058.49 113.932 1065.62 Q113.932 1072.73 115.737 1076.29 Q117.566 1079.83 121.177 1079.83 Q124.811 1079.83 126.617 1076.29 Q128.445 1072.73 128.445 1065.62 Q128.445 1058.49 126.617 1054.95 Q124.811 1051.38 121.177 1051.38 M121.177 1047.68 Q126.987 1047.68 130.043 1052.29 Q133.121 1056.87 133.121 1065.62 Q133.121 1074.35 130.043 1078.95 Q126.987 1083.54 121.177 1083.54 Q115.367 1083.54 112.288 1078.95 Q109.233 1074.35 109.233 1065.62 Q109.233 1056.87 112.288 1052.29 Q115.367 1047.68 121.177 1047.68 Z" fill="#000000" fill-rule="nonzero" fill-opacity="1" /><path clip-path="url(#clip720)" d="M51.6634 698.8 L59.3023 698.8 L59.3023 672.434 L50.9921 674.101 L50.9921 669.842 L59.256 668.175 L63.9319 668.175 L63.9319 698.8 L71.5707 698.8 L71.5707 702.735 L51.6634 702.735 L51.6634 698.8 Z" fill="#000000" fill-rule="nonzero" fill-opacity="1" /><path clip-path="url(#clip720)" d="M91.0151 671.254 Q87.404 671.254 85.5753 674.818 Q83.7697 678.36 83.7697 685.49 Q83.7697 692.596 85.5753 696.161 Q87.404 699.702 91.0151 699.702 Q94.6493 699.702 96.4548 696.161 Q98.2835 692.596 98.2835 685.49 Q98.2835 678.36 96.4548 674.818 Q94.6493 671.254 91.0151 671.254 M91.0151 667.55 Q96.8252 667.55 99.8808 672.156 Q102.959 676.74 102.959 685.49 Q102.959 694.216 99.8808 698.823 Q96.8252 703.406 91.0151 703.406 Q85.2049 703.406 82.1262 698.823 Q79.0707 694.216 79.0707 685.49 Q79.0707 676.74 82.1262 672.156 Q85.2049 667.55 91.0151 667.55 Z" fill="#000000" fill-rule="nonzero" fill-opacity="1" /><path clip-path="url(#clip720)" d="M121.177 671.254 Q117.566 671.254 115.737 674.818 Q113.932 678.36 113.932 685.49 Q113.932 692.596 115.737 696.161 Q117.566 699.702 121.177 699.702 Q124.811 699.702 126.617 696.161 Q128.445 692.596 128.445 685.49 Q128.445 678.36 126.617 674.818 Q124.811 671.254 121.177 671.254 M121.177 667.55 Q126.987 667.55 130.043 672.156 Q133.121 676.74 133.121 685.49 Q133.121 694.216 130.043 698.823 Q126.987 703.406 121.177 703.406 Q115.367 703.406 112.288 698.823 Q109.233 694.216 109.233 685.49 Q109.233 676.74 112.288 672.156 Q115.367 667.55 121.177 667.55 Z" fill="#000000" fill-rule="nonzero" fill-opacity="1" /><path clip-path="url(#clip720)" d="M51.6634 318.669 L59.3023 318.669 L59.3023 292.303 L50.9921 293.97 L50.9921 289.711 L59.256 288.044 L63.9319 288.044 L63.9319 318.669 L71.5707 318.669 L71.5707 322.604 L51.6634 322.604 L51.6634 318.669 Z" fill="#000000" fill-rule="nonzero" fill-opacity="1" /><path clip-path="url(#clip720)" d="M81.0614 288.044 L99.4178 288.044 L99.4178 291.979 L85.3438 291.979 L85.3438 300.452 Q86.3623 300.104 87.3808 299.942 Q88.3993 299.757 89.4178 299.757 Q95.2049 299.757 98.5845 302.928 Q101.964 306.1 101.964 311.516 Q101.964 317.095 98.4919 320.197 Q95.0197 323.276 88.7003 323.276 Q86.5243 323.276 84.2558 322.905 Q82.0105 322.535 79.6031 321.794 L79.6031 317.095 Q81.6864 318.229 83.9086 318.785 Q86.1308 319.34 88.6077 319.34 Q92.6123 319.34 94.9502 317.234 Q97.2882 315.127 97.2882 311.516 Q97.2882 307.905 94.9502 305.799 Q92.6123 303.692 88.6077 303.692 Q86.7327 303.692 84.8577 304.109 Q83.0058 304.526 81.0614 305.405 L81.0614 288.044 Z" fill="#000000" fill-rule="nonzero" fill-opacity="1" /><path clip-path="url(#clip720)" d="M121.177 291.123 Q117.566 291.123 115.737 294.688 Q113.932 298.229 113.932 305.359 Q113.932 312.465 115.737 316.03 Q117.566 319.572 121.177 319.572 Q124.811 319.572 126.617 316.03 Q128.445 312.465 128.445 305.359 Q128.445 298.229 126.617 294.688 Q124.811 291.123 121.177 291.123 M121.177 287.419 Q126.987 287.419 130.043 292.026 Q133.121 296.609 133.121 305.359 Q133.121 314.086 130.043 318.692 Q126.987 323.276 121.177 323.276 Q115.367 323.276 112.288 318.692 Q109.233 314.086 109.233 305.359 Q109.233 296.609 112.288 292.026 Q115.367 287.419 121.177 287.419 Z" fill="#000000" fill-rule="nonzero" fill-opacity="1" /><circle clip-path="url(#clip722)" cx="517.662" cy="1445.72" r="14.4" fill="#009af9" fill-rule="evenodd" fill-opacity="1" stroke="#000000" stroke-opacity="1" stroke-width="3.2"/>
<circle clip-path="url(#clip722)" cx="2290.95" cy="685.455" r="14.4" fill="#e26f46" fill-rule="evenodd" fill-opacity="1" stroke="#000000" stroke-opacity="1" stroke-width="3.2"/>
<polyline clip-path="url(#clip722)" style="stroke:#3da44d; stroke-linecap:round; stroke-linejoin:round; stroke-width:4; stroke-opacity:1; fill:none" points="517.662,1445.72 482.196,1369.69 449.299,1296.36 418.921,1225.69 391.014,1157.63 365.528,1092.13 342.413,1029.16 321.622,968.666 303.106,910.607 286.816,854.938 272.704,801.618 260.722,750.603 250.824,701.851 242.961,655.319 237.086,610.965 233.153,568.747 231.114,528.623 230.922,490.553 232.532,454.493 235.897,420.404 240.972,388.245 247.709,357.974 256.064,329.551 265.99,302.936 277.443,278.088 290.377,254.968 304.748,233.536 320.509,213.751 337.616,195.576 356.026,178.969 375.692,163.892 396.571,150.307 418.618,138.173 441.789,127.453 466.04,118.108 491.327,110.1 517.607,103.389 544.835,97.9384 572.967,93.7097 601.961,90.6649 631.773,88.7664 662.359,87.9763 693.676,88.2571 725.68,89.5714 758.33,91.8818 791.58,95.151 825.389,99.3419 859.714,104.417 894.511,110.34 929.737,117.074 965.35,124.582 1001.31,132.827 1037.57,141.772 1074.08,151.381 1110.81,161.618 1147.72,172.446 1184.75,183.828 1221.88,195.728 1259.04,208.11 1296.21,220.938 1333.34,234.175 1370.39,247.786 1407.31,261.734 1444.06,275.983 1480.6,290.497 1516.89,305.239 1552.88,320.175 1588.53,335.268 1623.8,350.482 1658.64,365.781 1693.02,381.129 1726.89,396.491 1760.2,411.829 1792.91,427.109 1824.98,442.294 1856.37,457.349 1887.04,472.237 1916.93,486.923 1946.01,501.37 1974.24,515.542 2001.56,529.403 2027.94,542.918 2053.34,556.05 2077.7,568.763 2100.98,581.021 2123.15,592.787 2144.15,604.025 2163.95,614.699 2182.49,624.772 2199.73,634.209 2215.64,642.971 2230.15,651.024 2243.24,658.329 2254.85,664.851 2264.94,670.552 2273.46,675.396 2280.37,679.345 2285.61,682.363 2289.16,684.412 2290.95,685.455 "/>
<path clip-path="url(#clip720)" d="M1800.87 302.578 L2279.97 302.578 L2279.97 95.2176 L1800.87 95.2176  Z" fill="#ffffff" fill-rule="evenodd" fill-opacity="1"/>
<polyline clip-path="url(#clip720)" style="stroke:#000000; stroke-linecap:round; stroke-linejoin:round; stroke-width:4; stroke-opacity:1; fill:none" points="1800.87,302.578 2279.97,302.578 2279.97,95.2176 1800.87,95.2176 1800.87,302.578 "/>
<circle clip-path="url(#clip720)" cx="1897.92" cy="147.058" r="20.48" fill="#009af9" fill-rule="evenodd" fill-opacity="1" stroke="#000000" stroke-opacity="1" stroke-width="4.55111"/>
<path clip-path="url(#clip720)" d="M1994.97 138.412 L1999.23 138.412 L1999.23 164.338 L1994.97 164.338 L1994.97 138.412 M1994.97 128.319 L1999.23 128.319 L1999.23 133.713 L1994.97 133.713 L1994.97 128.319 Z" fill="#000000" fill-rule="nonzero" fill-opacity="1" /><path clip-path="url(#clip720)" d="M2029.69 148.689 L2029.69 164.338 L2025.43 164.338 L2025.43 148.828 Q2025.43 145.148 2023.99 143.319 Q2022.56 141.49 2019.69 141.49 Q2016.24 141.49 2014.25 143.69 Q2012.26 145.889 2012.26 149.685 L2012.26 164.338 L2007.98 164.338 L2007.98 138.412 L2012.26 138.412 L2012.26 142.44 Q2013.79 140.102 2015.85 138.944 Q2017.93 137.787 2020.64 137.787 Q2025.1 137.787 2027.4 140.565 Q2029.69 143.319 2029.69 148.689 Z" fill="#000000" fill-rule="nonzero" fill-opacity="1" /><path clip-path="url(#clip720)" d="M2038.18 138.412 L2042.44 138.412 L2042.44 164.338 L2038.18 164.338 L2038.18 138.412 M2038.18 128.319 L2042.44 128.319 L2042.44 133.713 L2038.18 133.713 L2038.18 128.319 Z" fill="#000000" fill-rule="nonzero" fill-opacity="1" /><path clip-path="url(#clip720)" d="M2055.57 131.051 L2055.57 138.412 L2064.34 138.412 L2064.34 141.722 L2055.57 141.722 L2055.57 155.796 Q2055.57 158.967 2056.42 159.87 Q2057.3 160.773 2059.97 160.773 L2064.34 160.773 L2064.34 164.338 L2059.97 164.338 Q2055.04 164.338 2053.16 162.509 Q2051.29 160.657 2051.29 155.796 L2051.29 141.722 L2048.16 141.722 L2048.16 138.412 L2051.29 138.412 L2051.29 131.051 L2055.57 131.051 Z" fill="#000000" fill-rule="nonzero" fill-opacity="1" /><path clip-path="url(#clip720)" d="M2069.94 138.412 L2074.2 138.412 L2074.2 164.338 L2069.94 164.338 L2069.94 138.412 M2069.94 128.319 L2074.2 128.319 L2074.2 133.713 L2069.94 133.713 L2069.94 128.319 Z" fill="#000000" fill-rule="nonzero" fill-opacity="1" /><path clip-path="url(#clip720)" d="M2094.9 151.305 Q2089.73 151.305 2087.74 152.486 Q2085.75 153.666 2085.75 156.514 Q2085.75 158.782 2087.23 160.125 Q2088.74 161.444 2091.31 161.444 Q2094.85 161.444 2096.98 158.944 Q2099.13 156.421 2099.13 152.254 L2099.13 151.305 L2094.9 151.305 M2103.39 149.546 L2103.39 164.338 L2099.13 164.338 L2099.13 160.402 Q2097.67 162.763 2095.5 163.898 Q2093.32 165.009 2090.17 165.009 Q2086.19 165.009 2083.83 162.787 Q2081.49 160.541 2081.49 156.791 Q2081.49 152.416 2084.41 150.194 Q2087.35 147.972 2093.16 147.972 L2099.13 147.972 L2099.13 147.555 Q2099.13 144.615 2097.19 143.018 Q2095.27 141.398 2091.77 141.398 Q2089.55 141.398 2087.44 141.93 Q2085.34 142.463 2083.39 143.527 L2083.39 139.592 Q2085.73 138.69 2087.93 138.25 Q2090.13 137.787 2092.21 137.787 Q2097.84 137.787 2100.61 140.703 Q2103.39 143.62 2103.39 149.546 Z" fill="#000000" fill-rule="nonzero" fill-opacity="1" /><path clip-path="url(#clip720)" d="M2112.16 128.319 L2116.42 128.319 L2116.42 164.338 L2112.16 164.338 L2112.16 128.319 Z" fill="#000000" fill-rule="nonzero" fill-opacity="1" /><path clip-path="url(#clip720)" d="M2144.53 160.449 L2144.53 174.199 L2140.24 174.199 L2140.24 138.412 L2144.53 138.412 L2144.53 142.347 Q2145.87 140.032 2147.91 138.921 Q2149.97 137.787 2152.81 137.787 Q2157.53 137.787 2160.47 141.537 Q2163.44 145.287 2163.44 151.398 Q2163.44 157.509 2160.47 161.259 Q2157.53 165.009 2152.81 165.009 Q2149.97 165.009 2147.91 163.898 Q2145.87 162.763 2144.53 160.449 M2159.02 151.398 Q2159.02 146.699 2157.07 144.037 Q2155.15 141.352 2151.77 141.352 Q2148.39 141.352 2146.45 144.037 Q2144.53 146.699 2144.53 151.398 Q2144.53 156.097 2146.45 158.782 Q2148.39 161.444 2151.77 161.444 Q2155.15 161.444 2157.07 158.782 Q2159.02 156.097 2159.02 151.398 Z" fill="#000000" fill-rule="nonzero" fill-opacity="1" /><path clip-path="url(#clip720)" d="M2180.54 141.398 Q2177.12 141.398 2175.13 144.083 Q2173.14 146.745 2173.14 151.398 Q2173.14 156.051 2175.1 158.736 Q2177.09 161.398 2180.54 161.398 Q2183.95 161.398 2185.94 158.713 Q2187.93 156.027 2187.93 151.398 Q2187.93 146.791 2185.94 144.106 Q2183.95 141.398 2180.54 141.398 M2180.54 137.787 Q2186.1 137.787 2189.27 141.398 Q2192.44 145.009 2192.44 151.398 Q2192.44 157.764 2189.27 161.398 Q2186.1 165.009 2180.54 165.009 Q2174.97 165.009 2171.79 161.398 Q2168.65 157.764 2168.65 151.398 Q2168.65 145.009 2171.79 141.398 Q2174.97 137.787 2180.54 137.787 Z" fill="#000000" fill-rule="nonzero" fill-opacity="1" /><path clip-path="url(#clip720)" d="M2199.5 138.412 L2203.76 138.412 L2203.76 164.338 L2199.5 164.338 L2199.5 138.412 M2199.5 128.319 L2203.76 128.319 L2203.76 133.713 L2199.5 133.713 L2199.5 128.319 Z" fill="#000000" fill-rule="nonzero" fill-opacity="1" /><path clip-path="url(#clip720)" d="M2234.22 148.689 L2234.22 164.338 L2229.96 164.338 L2229.96 148.828 Q2229.96 145.148 2228.53 143.319 Q2227.09 141.49 2224.22 141.49 Q2220.78 141.49 2218.78 143.69 Q2216.79 145.889 2216.79 149.685 L2216.79 164.338 L2212.51 164.338 L2212.51 138.412 L2216.79 138.412 L2216.79 142.44 Q2218.32 140.102 2220.38 138.944 Q2222.46 137.787 2225.17 137.787 Q2229.64 137.787 2231.93 140.565 Q2234.22 143.319 2234.22 148.689 Z" fill="#000000" fill-rule="nonzero" fill-opacity="1" /><path clip-path="url(#clip720)" d="M2246.93 131.051 L2246.93 138.412 L2255.71 138.412 L2255.71 141.722 L2246.93 141.722 L2246.93 155.796 Q2246.93 158.967 2247.79 159.87 Q2248.67 160.773 2251.33 160.773 L2255.71 160.773 L2255.71 164.338 L2251.33 164.338 Q2246.4 164.338 2244.52 162.509 Q2242.65 160.657 2242.65 155.796 L2242.65 141.722 L2239.53 141.722 L2239.53 138.412 L2242.65 138.412 L2242.65 131.051 L2246.93 131.051 Z" fill="#000000" fill-rule="nonzero" fill-opacity="1" /><circle clip-path="url(#clip720)" cx="1897.92" cy="198.898" r="20.48" fill="#e26f46" fill-rule="evenodd" fill-opacity="1" stroke="#000000" stroke-opacity="1" stroke-width="4.55111"/>
<path clip-path="url(#clip720)" d="M2011.47 180.159 L2011.47 183.701 L2007.4 183.701 Q2005.1 183.701 2004.2 184.627 Q2003.32 185.553 2003.32 187.96 L2003.32 190.252 L2010.34 190.252 L2010.34 193.562 L2003.32 193.562 L2003.32 216.178 L1999.04 216.178 L1999.04 193.562 L1994.97 193.562 L1994.97 190.252 L1999.04 190.252 L1999.04 188.446 Q1999.04 184.118 2001.05 182.15 Q2003.07 180.159 2007.44 180.159 L2011.47 180.159 Z" fill="#000000" fill-rule="nonzero" fill-opacity="1" /><path clip-path="url(#clip720)" d="M2015.04 190.252 L2019.29 190.252 L2019.29 216.178 L2015.04 216.178 L2015.04 190.252 M2015.04 180.159 L2019.29 180.159 L2019.29 185.553 L2015.04 185.553 L2015.04 180.159 Z" fill="#000000" fill-rule="nonzero" fill-opacity="1" /><path clip-path="url(#clip720)" d="M2049.76 200.529 L2049.76 216.178 L2045.5 216.178 L2045.5 200.668 Q2045.5 196.988 2044.06 195.159 Q2042.63 193.33 2039.76 193.33 Q2036.31 193.33 2034.32 195.53 Q2032.33 197.729 2032.33 201.525 L2032.33 216.178 L2028.04 216.178 L2028.04 190.252 L2032.33 190.252 L2032.33 194.28 Q2033.85 191.942 2035.91 190.784 Q2038 189.627 2040.71 189.627 Q2045.17 189.627 2047.47 192.405 Q2049.76 195.159 2049.76 200.529 Z" fill="#000000" fill-rule="nonzero" fill-opacity="1" /><path clip-path="url(#clip720)" d="M2070.04 203.145 Q2064.87 203.145 2062.88 204.326 Q2060.89 205.506 2060.89 208.354 Q2060.89 210.622 2062.37 211.965 Q2063.88 213.284 2066.45 213.284 Q2069.99 213.284 2072.12 210.784 Q2074.27 208.261 2074.27 204.094 L2074.27 203.145 L2070.04 203.145 M2078.53 201.386 L2078.53 216.178 L2074.27 216.178 L2074.27 212.242 Q2072.81 214.603 2070.64 215.738 Q2068.46 216.849 2065.31 216.849 Q2061.33 216.849 2058.97 214.627 Q2056.63 212.381 2056.63 208.631 Q2056.63 204.256 2059.55 202.034 Q2062.49 199.812 2068.3 199.812 L2074.27 199.812 L2074.27 199.395 Q2074.27 196.455 2072.33 194.858 Q2070.41 193.238 2066.91 193.238 Q2064.69 193.238 2062.58 193.77 Q2060.48 194.303 2058.53 195.367 L2058.53 191.432 Q2060.87 190.53 2063.07 190.09 Q2065.27 189.627 2067.35 189.627 Q2072.97 189.627 2075.75 192.543 Q2078.53 195.46 2078.53 201.386 Z" fill="#000000" fill-rule="nonzero" fill-opacity="1" /><path clip-path="url(#clip720)" d="M2087.3 180.159 L2091.56 180.159 L2091.56 216.178 L2087.3 216.178 L2087.3 180.159 Z" fill="#000000" fill-rule="nonzero" fill-opacity="1" /><path clip-path="url(#clip720)" d="M2119.66 212.289 L2119.66 226.039 L2115.38 226.039 L2115.38 190.252 L2119.66 190.252 L2119.66 194.187 Q2121.01 191.872 2123.04 190.761 Q2125.1 189.627 2127.95 189.627 Q2132.67 189.627 2135.61 193.377 Q2138.58 197.127 2138.58 203.238 Q2138.58 209.349 2135.61 213.099 Q2132.67 216.849 2127.95 216.849 Q2125.1 216.849 2123.04 215.738 Q2121.01 214.603 2119.66 212.289 M2134.16 203.238 Q2134.16 198.539 2132.21 195.877 Q2130.29 193.192 2126.91 193.192 Q2123.53 193.192 2121.59 195.877 Q2119.66 198.539 2119.66 203.238 Q2119.66 207.937 2121.59 210.622 Q2123.53 213.284 2126.91 213.284 Q2130.29 213.284 2132.21 210.622 Q2134.16 207.937 2134.16 203.238 Z" fill="#000000" fill-rule="nonzero" fill-opacity="1" /><path clip-path="url(#clip720)" d="M2155.68 193.238 Q2152.26 193.238 2150.27 195.923 Q2148.28 198.585 2148.28 203.238 Q2148.28 207.891 2150.24 210.576 Q2152.23 213.238 2155.68 213.238 Q2159.09 213.238 2161.08 210.553 Q2163.07 207.867 2163.07 203.238 Q2163.07 198.631 2161.08 195.946 Q2159.09 193.238 2155.68 193.238 M2155.68 189.627 Q2161.24 189.627 2164.41 193.238 Q2167.58 196.849 2167.58 203.238 Q2167.58 209.604 2164.41 213.238 Q2161.24 216.849 2155.68 216.849 Q2150.1 216.849 2146.93 213.238 Q2143.78 209.604 2143.78 203.238 Q2143.78 196.849 2146.93 193.238 Q2150.1 189.627 2155.68 189.627 Z" fill="#000000" fill-rule="nonzero" fill-opacity="1" /><path clip-path="url(#clip720)" d="M2174.64 190.252 L2178.9 190.252 L2178.9 216.178 L2174.64 216.178 L2174.64 190.252 M2174.64 180.159 L2178.9 180.159 L2178.9 185.553 L2174.64 185.553 L2174.64 180.159 Z" fill="#000000" fill-rule="nonzero" fill-opacity="1" /><path clip-path="url(#clip720)" d="M2209.36 200.529 L2209.36 216.178 L2205.1 216.178 L2205.1 200.668 Q2205.1 196.988 2203.67 195.159 Q2202.23 193.33 2199.36 193.33 Q2195.91 193.33 2193.92 195.53 Q2191.93 197.729 2191.93 201.525 L2191.93 216.178 L2187.65 216.178 L2187.65 190.252 L2191.93 190.252 L2191.93 194.28 Q2193.46 191.942 2195.52 190.784 Q2197.6 189.627 2200.31 189.627 Q2204.78 189.627 2207.07 192.405 Q2209.36 195.159 2209.36 200.529 Z" fill="#000000" fill-rule="nonzero" fill-opacity="1" /><path clip-path="url(#clip720)" d="M2222.07 182.891 L2222.07 190.252 L2230.84 190.252 L2230.84 193.562 L2222.07 193.562 L2222.07 207.636 Q2222.07 210.807 2222.93 211.71 Q2223.81 212.613 2226.47 212.613 L2230.84 212.613 L2230.84 216.178 L2226.47 216.178 Q2221.54 216.178 2219.66 214.349 Q2217.79 212.497 2217.79 207.636 L2217.79 193.562 L2214.66 193.562 L2214.66 190.252 L2217.79 190.252 L2217.79 182.891 L2222.07 182.891 Z" fill="#000000" fill-rule="nonzero" fill-opacity="1" /><polyline clip-path="url(#clip720)" style="stroke:#3da44d; stroke-linecap:round; stroke-linejoin:round; stroke-width:4; stroke-opacity:1; fill:none" points="1825.13,250.738 1970.7,250.738 "/>
<path clip-path="url(#clip720)" d="M2002.37 234.731 L2002.37 242.092 L2011.15 242.092 L2011.15 245.402 L2002.37 245.402 L2002.37 259.476 Q2002.37 262.647 2003.23 263.55 Q2004.11 264.453 2006.77 264.453 L2011.15 264.453 L2011.15 268.018 L2006.77 268.018 Q2001.84 268.018 1999.97 266.189 Q1998.09 264.337 1998.09 259.476 L1998.09 245.402 L1994.97 245.402 L1994.97 242.092 L1998.09 242.092 L1998.09 234.731 L2002.37 234.731 Z" fill="#000000" fill-rule="nonzero" fill-opacity="1" /><path clip-path="url(#clip720)" d="M2031.77 246.073 Q2031.05 245.657 2030.2 245.471 Q2029.36 245.263 2028.35 245.263 Q2024.73 245.263 2022.79 247.624 Q2020.87 249.962 2020.87 254.36 L2020.87 268.018 L2016.59 268.018 L2016.59 242.092 L2020.87 242.092 L2020.87 246.12 Q2022.21 243.758 2024.36 242.624 Q2026.52 241.467 2029.6 241.467 Q2030.04 241.467 2030.57 241.536 Q2031.1 241.583 2031.75 241.698 L2031.77 246.073 Z" fill="#000000" fill-rule="nonzero" fill-opacity="1" /><path clip-path="url(#clip720)" d="M2048.02 254.985 Q2042.86 254.985 2040.87 256.166 Q2038.88 257.346 2038.88 260.194 Q2038.88 262.462 2040.36 263.805 Q2041.86 265.124 2044.43 265.124 Q2047.98 265.124 2050.1 262.624 Q2052.26 260.101 2052.26 255.934 L2052.26 254.985 L2048.02 254.985 M2056.52 253.226 L2056.52 268.018 L2052.26 268.018 L2052.26 264.082 Q2050.8 266.443 2048.62 267.578 Q2046.45 268.689 2043.3 268.689 Q2039.32 268.689 2036.96 266.467 Q2034.62 264.221 2034.62 260.471 Q2034.62 256.096 2037.54 253.874 Q2040.48 251.652 2046.29 251.652 L2052.26 251.652 L2052.26 251.235 Q2052.26 248.295 2050.31 246.698 Q2048.39 245.078 2044.9 245.078 Q2042.67 245.078 2040.57 245.61 Q2038.46 246.143 2036.52 247.207 L2036.52 243.272 Q2038.85 242.37 2041.05 241.93 Q2043.25 241.467 2045.34 241.467 Q2050.96 241.467 2053.74 244.383 Q2056.52 247.3 2056.52 253.226 Z" fill="#000000" fill-rule="nonzero" fill-opacity="1" /><path clip-path="url(#clip720)" d="M2065.29 242.092 L2069.55 242.092 L2069.55 268.481 Q2069.55 273.434 2067.65 275.656 Q2065.78 277.879 2061.59 277.879 L2059.97 277.879 L2059.97 274.268 L2061.1 274.268 Q2063.53 274.268 2064.41 273.133 Q2065.29 272.022 2065.29 268.481 L2065.29 242.092 M2065.29 231.999 L2069.55 231.999 L2069.55 237.393 L2065.29 237.393 L2065.29 231.999 Z" fill="#000000" fill-rule="nonzero" fill-opacity="1" /><path clip-path="url(#clip720)" d="M2100.64 253.99 L2100.64 256.073 L2081.05 256.073 Q2081.33 260.471 2083.69 262.786 Q2086.08 265.078 2090.31 265.078 Q2092.77 265.078 2095.06 264.476 Q2097.37 263.874 2099.64 262.67 L2099.64 266.698 Q2097.35 267.67 2094.94 268.18 Q2092.54 268.689 2090.06 268.689 Q2083.85 268.689 2080.22 265.078 Q2076.61 261.467 2076.61 255.309 Q2076.61 248.944 2080.04 245.217 Q2083.48 241.467 2089.32 241.467 Q2094.55 241.467 2097.58 244.846 Q2100.64 248.203 2100.64 253.99 M2096.38 252.74 Q2096.33 249.245 2094.41 247.161 Q2092.51 245.078 2089.36 245.078 Q2085.8 245.078 2083.65 247.092 Q2081.52 249.106 2081.19 252.763 L2096.38 252.74 Z" fill="#000000" fill-rule="nonzero" fill-opacity="1" /><path clip-path="url(#clip720)" d="M2126.28 243.087 L2126.28 247.069 Q2124.48 246.073 2122.65 245.587 Q2120.85 245.078 2118.99 245.078 Q2114.85 245.078 2112.56 247.717 Q2110.27 250.332 2110.27 255.078 Q2110.27 259.823 2112.56 262.462 Q2114.85 265.078 2118.99 265.078 Q2120.85 265.078 2122.65 264.592 Q2124.48 264.082 2126.28 263.087 L2126.28 267.022 Q2124.5 267.856 2122.58 268.272 Q2120.68 268.689 2118.53 268.689 Q2112.67 268.689 2109.22 265.008 Q2105.78 261.328 2105.78 255.078 Q2105.78 248.735 2109.25 245.101 Q2112.74 241.467 2118.81 241.467 Q2120.78 241.467 2122.65 241.883 Q2124.53 242.277 2126.28 243.087 Z" fill="#000000" fill-rule="nonzero" fill-opacity="1" /><path clip-path="url(#clip720)" d="M2137.91 234.731 L2137.91 242.092 L2146.68 242.092 L2146.68 245.402 L2137.91 245.402 L2137.91 259.476 Q2137.91 262.647 2138.76 263.55 Q2139.64 264.453 2142.3 264.453 L2146.68 264.453 L2146.68 268.018 L2142.3 268.018 Q2137.37 268.018 2135.5 266.189 Q2133.62 264.337 2133.62 259.476 L2133.62 245.402 L2130.5 245.402 L2130.5 242.092 L2133.62 242.092 L2133.62 234.731 L2137.91 234.731 Z" fill="#000000" fill-rule="nonzero" fill-opacity="1" /><path clip-path="url(#clip720)" d="M2162.33 245.078 Q2158.9 245.078 2156.91 247.763 Q2154.92 250.425 2154.92 255.078 Q2154.92 259.731 2156.89 262.416 Q2158.88 265.078 2162.33 265.078 Q2165.73 265.078 2167.72 262.393 Q2169.71 259.707 2169.71 255.078 Q2169.71 250.471 2167.72 247.786 Q2165.73 245.078 2162.33 245.078 M2162.33 241.467 Q2167.88 241.467 2171.05 245.078 Q2174.22 248.689 2174.22 255.078 Q2174.22 261.444 2171.05 265.078 Q2167.88 268.689 2162.33 268.689 Q2156.75 268.689 2153.58 265.078 Q2150.43 261.444 2150.43 255.078 Q2150.43 248.689 2153.58 245.078 Q2156.75 241.467 2162.33 241.467 Z" fill="#000000" fill-rule="nonzero" fill-opacity="1" /><path clip-path="url(#clip720)" d="M2196.31 246.073 Q2195.59 245.657 2194.73 245.471 Q2193.9 245.263 2192.88 245.263 Q2189.27 245.263 2187.33 247.624 Q2185.4 249.962 2185.4 254.36 L2185.4 268.018 L2181.12 268.018 L2181.12 242.092 L2185.4 242.092 L2185.4 246.12 Q2186.75 243.758 2188.9 242.624 Q2191.05 241.467 2194.13 241.467 Q2194.57 241.467 2195.1 241.536 Q2195.64 241.583 2196.28 241.698 L2196.31 246.073 Z" fill="#000000" fill-rule="nonzero" fill-opacity="1" /><path clip-path="url(#clip720)" d="M2211.56 270.425 Q2209.76 275.055 2208.04 276.467 Q2206.33 277.879 2203.46 277.879 L2200.06 277.879 L2200.06 274.314 L2202.56 274.314 Q2204.32 274.314 2205.29 273.48 Q2206.26 272.647 2207.44 269.545 L2208.21 267.601 L2197.72 242.092 L2202.23 242.092 L2210.34 262.369 L2218.44 242.092 L2222.95 242.092 L2211.56 270.425 Z" fill="#000000" fill-rule="nonzero" fill-opacity="1" /></svg>
