<?xml version="1.0" encoding="utf-8"?>
<svg xmlns="http://www.w3.org/2000/svg" xmlns:xlink="http://www.w3.org/1999/xlink" width="600" height="400" viewBox="0 0 2400 1600">
<defs>
  <clipPath id="clip780">
    <rect x="0" y="0" width="2400" height="1600"/>
  </clipPath>
</defs>
<path clip-path="url(#clip780)" d="M0 1600 L2400 1600 L2400 0 L0 0  Z" fill="#ffffff" fill-rule="evenodd" fill-opacity="1"/>
<defs>
  <clipPath id="clip781">
    <rect x="480" y="0" width="1681" height="1600"/>
  </clipPath>
</defs>
<path clip-path="url(#clip780)" d="M172.015 1486.45 L2352.76 1486.45 L2352.76 47.2441 L172.015 47.2441  Z" fill="#ffffff" fill-rule="evenodd" fill-opacity="1"/>
<defs>
  <clipPath id="clip782">
    <rect x="172" y="47" width="2182" height="1440"/>
  </clipPath>
</defs>
<polyline clip-path="url(#clip782)" style="stroke:#000000; stroke-linecap:round; stroke-linejoin:round; stroke-width:2; stroke-opacity:0.1; fill:none" points="212.741,1486.45 212.741,47.2441 "/>
<polyline clip-path="url(#clip782)" style="stroke:#000000; stroke-linecap:round; stroke-linejoin:round; stroke-width:2; stroke-opacity:0.1; fill:none" points="737.563,1486.45 737.563,47.2441 "/>
<polyline clip-path="url(#clip782)" style="stroke:#000000; stroke-linecap:round; stroke-linejoin:round; stroke-width:2; stroke-opacity:0.1; fill:none" points="1262.39,1486.45 1262.39,47.2441 "/>
<polyline clip-path="url(#clip782)" style="stroke:#000000; stroke-linecap:round; stroke-linejoin:round; stroke-width:2; stroke-opacity:0.1; fill:none" points="1787.21,1486.45 1787.21,47.2441 "/>
<polyline clip-path="url(#clip782)" style="stroke:#000000; stroke-linecap:round; stroke-linejoin:round; stroke-width:2; stroke-opacity:0.1; fill:none" points="2312.03,1486.45 2312.03,47.2441 "/>
<polyline clip-path="url(#clip780)" style="stroke:#000000; stroke-linecap:round; stroke-linejoin:round; stroke-width:4; stroke-opacity:1; fill:none" points="172.015,1486.45 2352.76,1486.45 "/>
<polyline clip-path="url(#clip780)" style="stroke:#000000; stroke-linecap:round; stroke-linejoin:round; stroke-width:4; stroke-opacity:1; fill:none" points="212.741,1486.45 212.741,1467.55 "/>
<polyline clip-path="url(#clip780)" style="stroke:#000000; stroke-linecap:round; stroke-linejoin:round; stroke-width:4; stroke-opacity:1; fill:none" points="737.563,1486.45 737.563,1467.55 "/>
<polyline clip-path="url(#clip780)" style="stroke:#000000; stroke-linecap:round; stroke-linejoin:round; stroke-width:4; stroke-opacity:1; fill:none" points="1262.39,1486.45 1262.39,1467.55 "/>
<polyline clip-path="url(#clip780)" style="stroke:#000000; stroke-linecap:round; stroke-linejoin:round; stroke-width:4; stroke-opacity:1; fill:none" points="1787.21,1486.45 1787.21,1467.55 "/>
<polyline clip-path="url(#clip780)" style="stroke:#000000; stroke-linecap:round; stroke-linejoin:round; stroke-width:4; stroke-opacity:1; fill:none" points="2312.03,1486.45 2312.03,1467.55 "/>
<path clip-path="url(#clip780)" d="M212.741 1517.37 Q209.13 1517.37 207.301 1520.93 Q205.496 1524.47 205.496 1531.6 Q205.496 1538.71 207.301 1542.27 Q209.13 1545.82 212.741 1545.82 Q216.375 1545.82 218.181 1542.27 Q220.009 1538.71 220.009 1531.6 Q220.009 1524.47 218.181 1520.93 Q216.375 1517.37 212.741 1517.37 M212.741 1513.66 Q218.551 1513.66 221.607 1518.27 Q224.685 1522.85 224.685 1531.6 Q224.685 1540.33 221.607 1544.94 Q218.551 1549.52 212.741 1549.52 Q206.931 1549.52 203.852 1544.94 Q200.797 1540.33 200.797 1531.6 Q200.797 1522.85 203.852 1518.27 Q206.931 1513.66 212.741 1513.66 Z" fill="#000000" fill-rule="nonzero" fill-opacity="1" /><path clip-path="url(#clip780)" d="M716.834 1544.91 L733.153 1544.91 L733.153 1548.85 L711.209 1548.85 L711.209 1544.91 Q713.871 1542.16 718.454 1537.53 Q723.061 1532.88 724.242 1531.53 Q726.487 1529.01 727.366 1527.27 Q728.269 1525.51 728.269 1523.82 Q728.269 1521.07 726.325 1519.33 Q724.404 1517.6 721.302 1517.6 Q719.103 1517.6 716.649 1518.36 Q714.218 1519.13 711.441 1520.68 L711.441 1515.95 Q714.265 1514.82 716.718 1514.24 Q719.172 1513.66 721.209 1513.66 Q726.579 1513.66 729.774 1516.35 Q732.968 1519.03 732.968 1523.52 Q732.968 1525.65 732.158 1527.57 Q731.371 1529.47 729.265 1532.07 Q728.686 1532.74 725.584 1535.95 Q722.482 1539.15 716.834 1544.91 Z" fill="#000000" fill-rule="nonzero" fill-opacity="1" /><path clip-path="url(#clip780)" d="M743.015 1514.29 L761.371 1514.29 L761.371 1518.22 L747.297 1518.22 L747.297 1526.7 Q748.315 1526.35 749.334 1526.19 Q750.352 1526 751.371 1526 Q757.158 1526 760.538 1529.17 Q763.917 1532.34 763.917 1537.76 Q763.917 1543.34 760.445 1546.44 Q756.973 1549.52 750.653 1549.52 Q748.477 1549.52 746.209 1549.15 Q743.964 1548.78 741.556 1548.04 L741.556 1543.34 Q743.64 1544.47 745.862 1545.03 Q748.084 1545.58 750.561 1545.58 Q754.565 1545.58 756.903 1543.48 Q759.241 1541.37 759.241 1537.76 Q759.241 1534.15 756.903 1532.04 Q754.565 1529.94 750.561 1529.94 Q748.686 1529.94 746.811 1530.35 Q744.959 1530.77 743.015 1531.65 L743.015 1514.29 Z" fill="#000000" fill-rule="nonzero" fill-opacity="1" /><path clip-path="url(#clip780)" d="M1237.08 1514.29 L1255.44 1514.29 L1255.44 1518.22 L1241.37 1518.22 L1241.37 1526.7 Q1242.39 1526.35 1243.4 1526.19 Q1244.42 1526 1245.44 1526 Q1251.23 1526 1254.61 1529.17 Q1257.99 1532.34 1257.99 1537.76 Q1257.99 1543.34 1254.52 1546.44 Q1251.04 1549.52 1244.72 1549.52 Q1242.55 1549.52 1240.28 1549.15 Q1238.03 1548.78 1235.63 1548.04 L1235.63 1543.34 Q1237.71 1544.47 1239.93 1545.03 Q1242.15 1545.58 1244.63 1545.58 Q1248.64 1545.58 1250.97 1543.48 Q1253.31 1541.37 1253.31 1537.76 Q1253.31 1534.15 1250.97 1532.04 Q1248.64 1529.94 1244.63 1529.94 Q1242.76 1529.94 1240.88 1530.35 Q1239.03 1530.77 1237.08 1531.65 L1237.08 1514.29 Z" fill="#000000" fill-rule="nonzero" fill-opacity="1" /><path clip-path="url(#clip780)" d="M1277.2 1517.37 Q1273.59 1517.37 1271.76 1520.93 Q1269.95 1524.47 1269.95 1531.6 Q1269.95 1538.71 1271.76 1542.27 Q1273.59 1545.82 1277.2 1545.82 Q1280.83 1545.82 1282.64 1542.27 Q1284.47 1538.71 1284.47 1531.6 Q1284.47 1524.47 1282.64 1520.93 Q1280.83 1517.37 1277.2 1517.37 M1277.2 1513.66 Q1283.01 1513.66 1286.07 1518.27 Q1289.14 1522.85 1289.14 1531.6 Q1289.14 1540.33 1286.07 1544.94 Q1283.01 1549.52 1277.2 1549.52 Q1271.39 1549.52 1268.31 1544.94 Q1265.26 1540.33 1265.26 1531.6 Q1265.26 1522.85 1268.31 1518.27 Q1271.39 1513.66 1277.2 1513.66 Z" fill="#000000" fill-rule="nonzero" fill-opacity="1" /><path clip-path="url(#clip780)" d="M1761.06 1514.29 L1783.28 1514.29 L1783.28 1516.28 L1770.74 1548.85 L1765.85 1548.85 L1777.66 1518.22 L1761.06 1518.22 L1761.06 1514.29 Z" fill="#000000" fill-rule="nonzero" fill-opacity="1" /><path clip-path="url(#clip780)" d="M1792.45 1514.29 L1810.81 1514.29 L1810.81 1518.22 L1796.73 1518.22 L1796.73 1526.7 Q1797.75 1526.35 1798.77 1526.19 Q1799.79 1526 1800.81 1526 Q1806.59 1526 1809.97 1529.17 Q1813.35 1532.34 1813.35 1537.76 Q1813.35 1543.34 1809.88 1546.44 Q1806.41 1549.52 1800.09 1549.52 Q1797.91 1549.52 1795.64 1549.15 Q1793.4 1548.78 1790.99 1548.04 L1790.99 1543.34 Q1793.08 1544.47 1795.3 1545.03 Q1797.52 1545.58 1800 1545.58 Q1804 1545.58 1806.34 1543.48 Q1808.68 1541.37 1808.68 1537.76 Q1808.68 1534.15 1806.34 1532.04 Q1804 1529.94 1800 1529.94 Q1798.12 1529.94 1796.25 1530.35 Q1794.39 1530.77 1792.45 1531.65 L1792.45 1514.29 Z" fill="#000000" fill-rule="nonzero" fill-opacity="1" /><path clip-path="url(#clip780)" d="M2271.64 1544.91 L2279.28 1544.91 L2279.28 1518.55 L2270.97 1520.21 L2270.97 1515.95 L2279.23 1514.29 L2283.9 1514.29 L2283.9 1544.91 L2291.54 1544.91 L2291.54 1548.85 L2271.64 1548.85 L2271.64 1544.91 Z" fill="#000000" fill-rule="nonzero" fill-opacity="1" /><path clip-path="url(#clip780)" d="M2310.99 1517.37 Q2307.38 1517.37 2305.55 1520.93 Q2303.74 1524.47 2303.74 1531.6 Q2303.74 1538.71 2305.55 1542.27 Q2307.38 1545.82 2310.99 1545.82 Q2314.62 1545.82 2316.43 1542.27 Q2318.26 1538.71 2318.26 1531.6 Q2318.26 1524.47 2316.43 1520.93 Q2314.62 1517.37 2310.99 1517.37 M2310.99 1513.66 Q2316.8 1513.66 2319.85 1518.27 Q2322.93 1522.85 2322.93 1531.6 Q2322.93 1540.33 2319.85 1544.94 Q2316.8 1549.52 2310.99 1549.52 Q2305.18 1549.52 2302.1 1544.94 Q2299.04 1540.33 2299.04 1531.6 Q2299.04 1522.85 2302.1 1518.27 Q2305.18 1513.66 2310.99 1513.66 Z" fill="#000000" fill-rule="nonzero" fill-opacity="1" /><path clip-path="url(#clip780)" d="M2341.15 1517.37 Q2337.54 1517.37 2335.71 1520.93 Q2333.9 1524.47 2333.9 1531.6 Q2333.9 1538.71 2335.71 1542.27 Q2337.54 1545.82 2341.15 1545.82 Q2344.78 1545.82 2346.59 1542.27 Q2348.42 1538.71 2348.42 1531.6 Q2348.42 1524.47 2346.59 1520.93 Q2344.78 1517.37 2341.15 1517.37 M2341.15 1513.66 Q2346.96 1513.66 2350.02 1518.27 Q2353.09 1522.85 2353.09 1531.6 Q2353.09 1540.33 2350.02 1544.94 Q2346.96 1549.52 2341.15 1549.52 Q2335.34 1549.52 2332.26 1544.94 Q2329.21 1540.33 2329.21 1531.6 Q2329.21 1522.85 2332.26 1518.27 Q2335.34 1513.66 2341.15 1513.66 Z" fill="#000000" fill-rule="nonzero" fill-opacity="1" /><polyline clip-path="url(#clip782)" style="stroke:#000000; stroke-linecap:round; stroke-linejoin:round; stroke-width:2; stroke-opacity:0.1; fill:none" points="172.015,1464.51 2352.76,1464.51 "/>
<polyline clip-path="url(#clip782)" style="stroke:#000000; stroke-linecap:round; stroke-linejoin:round; stroke-width:2; stroke-opacity:0.1; fill:none" points="172.015,1251.88 2352.76,1251.88 "/>
<polyline clip-path="url(#clip782)" style="stroke:#000000; stroke-linecap:round; stroke-linejoin:round; stroke-width:2; stroke-opacity:0.1; fill:none" points="172.015,1039.26 2352.76,1039.26 "/>
<polyline clip-path="url(#clip782)" style="stroke:#000000; stroke-linecap:round; stroke-linejoin:round; stroke-width:2; stroke-opacity:0.1; fill:none" points="172.015,826.63 2352.76,826.63 "/>
<polyline clip-path="url(#clip782)" style="stroke:#000000; stroke-linecap:round; stroke-linejoin:round; stroke-width:2; stroke-opacity:0.1; fill:none" points="172.015,614.003 2352.76,614.003 "/>
<polyline clip-path="url(#clip782)" style="stroke:#000000; stroke-linecap:round; stroke-linejoin:round; stroke-width:2; stroke-opacity:0.1; fill:none" points="172.015,401.376 2352.76,401.376 "/>
<polyline clip-path="url(#clip782)" style="stroke:#000000; stroke-linecap:round; stroke-linejoin:round; stroke-width:2; stroke-opacity:0.1; fill:none" points="172.015,188.749 2352.76,188.749 "/>
<polyline clip-path="url(#clip780)" style="stroke:#000000; stroke-linecap:round; stroke-linejoin:round; stroke-width:4; stroke-opacity:1; fill:none" points="172.015,1486.45 172.015,47.2441 "/>
<polyline clip-path="url(#clip780)" style="stroke:#000000; stroke-linecap:round; stroke-linejoin:round; stroke-width:4; stroke-opacity:1; fill:none" points="172.015,1464.51 190.912,1464.51 "/>
<polyline clip-path="url(#clip780)" style="stroke:#000000; stroke-linecap:round; stroke-linejoin:round; stroke-width:4; stroke-opacity:1; fill:none" points="172.015,1251.88 190.912,1251.88 "/>
<polyline clip-path="url(#clip780)" style="stroke:#000000; stroke-linecap:round; stroke-linejoin:round; stroke-width:4; stroke-opacity:1; fill:none" points="172.015,1039.26 190.912,1039.26 "/>
<polyline clip-path="url(#clip780)" style="stroke:#000000; stroke-linecap:round; stroke-linejoin:round; stroke-width:4; stroke-opacity:1; fill:none" points="172.015,826.63 190.912,826.63 "/>
<polyline clip-path="url(#clip780)" style="stroke:#000000; stroke-linecap:round; stroke-linejoin:round; stroke-width:4; stroke-opacity:1; fill:none" points="172.015,614.003 190.912,614.003 "/>
<polyline clip-path="url(#clip780)" style="stroke:#000000; stroke-linecap:round; stroke-linejoin:round; stroke-width:4; stroke-opacity:1; fill:none" points="172.015,401.376 190.912,401.376 "/>
<polyline clip-path="url(#clip780)" style="stroke:#000000; stroke-linecap:round; stroke-linejoin:round; stroke-width:4; stroke-opacity:1; fill:none" points="172.015,188.749 190.912,188.749 "/>
<path clip-path="url(#clip780)" d="M124.07 1450.31 Q120.459 1450.31 118.631 1453.87 Q116.825 1457.42 116.825 1464.54 Q116.825 1471.65 118.631 1475.22 Q120.459 1478.76 124.07 1478.76 Q127.705 1478.76 129.51 1475.22 Q131.339 1471.65 131.339 1464.54 Q131.339 1457.42 129.51 1453.87 Q127.705 1450.31 124.07 1450.31 M124.07 1446.61 Q129.881 1446.61 132.936 1451.21 Q136.015 1455.79 136.015 1464.54 Q136.015 1473.27 132.936 1477.88 Q129.881 1482.46 124.07 1482.46 Q118.26 1482.46 115.182 1477.88 Q112.126 1473.27 112.126 1464.54 Q112.126 1455.79 115.182 1451.21 Q118.26 1446.61 124.07 1446.61 Z" fill="#000000" fill-rule="nonzero" fill-opacity="1" /><path clip-path="url(#clip780)" d="M54.5569 1265.23 L62.1958 1265.23 L62.1958 1238.86 L53.8856 1240.53 L53.8856 1236.27 L62.1495 1234.6 L66.8254 1234.6 L66.8254 1265.23 L74.4642 1265.23 L74.4642 1269.16 L54.5569 1269.16 L54.5569 1265.23 Z" fill="#000000" fill-rule="nonzero" fill-opacity="1" /><path clip-path="url(#clip780)" d="M93.9086 1237.68 Q90.2975 1237.68 88.4688 1241.25 Q86.6632 1244.79 86.6632 1251.92 Q86.6632 1259.02 88.4688 1262.59 Q90.2975 1266.13 93.9086 1266.13 Q97.5428 1266.13 99.3483 1262.59 Q101.177 1259.02 101.177 1251.92 Q101.177 1244.79 99.3483 1241.25 Q97.5428 1237.68 93.9086 1237.68 M93.9086 1233.98 Q99.7187 1233.98 102.774 1238.58 Q105.853 1243.17 105.853 1251.92 Q105.853 1260.64 102.774 1265.25 Q99.7187 1269.83 93.9086 1269.83 Q88.0984 1269.83 85.0197 1265.25 Q81.9642 1260.64 81.9642 1251.92 Q81.9642 1243.17 85.0197 1238.58 Q88.0984 1233.98 93.9086 1233.98 Z" fill="#000000" fill-rule="nonzero" fill-opacity="1" /><path clip-path="url(#clip780)" d="M124.07 1237.68 Q120.459 1237.68 118.631 1241.25 Q116.825 1244.79 116.825 1251.92 Q116.825 1259.02 118.631 1262.59 Q120.459 1266.13 124.07 1266.13 Q127.705 1266.13 129.51 1262.59 Q131.339 1259.02 131.339 1251.92 Q131.339 1244.79 129.51 1241.25 Q127.705 1237.68 124.07 1237.68 M124.07 1233.98 Q129.881 1233.98 132.936 1238.58 Q136.015 1243.17 136.015 1251.92 Q136.015 1260.64 132.936 1265.25 Q129.881 1269.83 124.07 1269.83 Q118.26 1269.83 115.182 1265.25 Q112.126 1260.64 112.126 1251.92 Q112.126 1243.17 115.182 1238.58 Q118.26 1233.98 124.07 1233.98 Z" fill="#000000" fill-rule="nonzero" fill-opacity="1" /><path clip-path="url(#clip780)" d="M57.7745 1052.6 L74.0939 1052.6 L74.0939 1056.54 L52.1495 1056.54 L52.1495 1052.6 Q54.8115 1049.85 59.3949 1045.22 Q64.0013 1040.56 65.1819 1039.22 Q67.4272 1036.7 68.3068 1034.96 Q69.2096 1033.2 69.2096 1031.51 Q69.2096 1028.76 67.2652 1027.02 Q65.3439 1025.29 62.2421 1025.29 Q60.043 1025.29 57.5893 1026.05 Q55.1588 1026.81 52.381 1028.37 L52.381 1023.64 Q55.2051 1022.51 57.6588 1021.93 Q60.1124 1021.35 62.1495 1021.35 Q67.5198 1021.35 70.7142 1024.04 Q73.9087 1026.72 73.9087 1031.21 Q73.9087 1033.34 73.0985 1035.26 Q72.3115 1037.16 70.205 1039.75 Q69.6263 1040.43 66.5245 1043.64 Q63.4226 1046.84 57.7745 1052.6 Z" fill="#000000" fill-rule="nonzero" fill-opacity="1" /><path clip-path="url(#clip780)" d="M93.9086 1025.06 Q90.2975 1025.06 88.4688 1028.62 Q86.6632 1032.16 86.6632 1039.29 Q86.6632 1046.4 88.4688 1049.96 Q90.2975 1053.5 93.9086 1053.5 Q97.5428 1053.5 99.3483 1049.96 Q101.177 1046.4 101.177 1039.29 Q101.177 1032.16 99.3483 1028.62 Q97.5428 1025.06 93.9086 1025.06 M93.9086 1021.35 Q99.7187 1021.35 102.774 1025.96 Q105.853 1030.54 105.853 1039.29 Q105.853 1048.02 102.774 1052.62 Q99.7187 1057.21 93.9086 1057.21 Q88.0984 1057.21 85.0197 1052.62 Q81.9642 1048.02 81.9642 1039.29 Q81.9642 1030.54 85.0197 1025.96 Q88.0984 1021.35 93.9086 1021.35 Z" fill="#000000" fill-rule="nonzero" fill-opacity="1" /><path clip-path="url(#clip780)" d="M124.07 1025.06 Q120.459 1025.06 118.631 1028.62 Q116.825 1032.16 116.825 1039.29 Q116.825 1046.4 118.631 1049.96 Q120.459 1053.5 124.07 1053.5 Q127.705 1053.5 129.51 1049.96 Q131.339 1046.4 131.339 1039.29 Q131.339 1032.16 129.51 1028.62 Q127.705 1025.06 124.07 1025.06 M124.07 1021.35 Q129.881 1021.35 132.936 1025.96 Q136.015 1030.54 136.015 1039.29 Q136.015 1048.02 132.936 1052.62 Q129.881 1057.21 124.07 1057.21 Q118.26 1057.21 115.182 1052.62 Q112.126 1048.02 112.126 1039.29 Q112.126 1030.54 115.182 1025.96 Q118.26 1021.35 124.07 1021.35 Z" fill="#000000" fill-rule="nonzero" fill-opacity="1" /><path clip-path="url(#clip780)" d="M67.9133 825.275 Q71.2698 825.993 73.1448 828.262 Q75.0429 830.53 75.0429 833.863 Q75.0429 838.979 71.5244 841.78 Q68.0059 844.581 61.5245 844.581 Q59.3486 844.581 57.0338 844.141 Q54.7421 843.724 52.2884 842.868 L52.2884 838.354 Q54.2328 839.488 56.5477 840.067 Q58.8625 840.646 61.3856 840.646 Q65.7837 840.646 68.0754 838.91 Q70.3902 837.174 70.3902 833.863 Q70.3902 830.808 68.2374 829.095 Q66.1078 827.359 62.2884 827.359 L58.2606 827.359 L58.2606 823.516 L62.4735 823.516 Q65.9226 823.516 67.7513 822.15 Q69.58 820.762 69.58 818.169 Q69.58 815.507 67.6819 814.095 Q65.8069 812.66 62.2884 812.66 Q60.3671 812.66 58.168 813.076 Q55.969 813.493 53.3301 814.373 L53.3301 810.206 Q55.9921 809.465 58.3069 809.095 Q60.6449 808.725 62.705 808.725 Q68.0291 808.725 71.1309 811.155 Q74.2327 813.563 74.2327 817.683 Q74.2327 820.553 72.5892 822.544 Q70.9457 824.512 67.9133 825.275 Z" fill="#000000" fill-rule="nonzero" fill-opacity="1" /><path clip-path="url(#clip780)" d="M93.9086 812.428 Q90.2975 812.428 88.4688 815.993 Q86.6632 819.535 86.6632 826.664 Q86.6632 833.771 88.4688 837.336 Q90.2975 840.877 93.9086 840.877 Q97.5428 840.877 99.3483 837.336 Q101.177 833.771 101.177 826.664 Q101.177 819.535 99.3483 815.993 Q97.5428 812.428 93.9086 812.428 M93.9086 808.725 Q99.7187 808.725 102.774 813.331 Q105.853 817.914 105.853 826.664 Q105.853 835.391 102.774 839.998 Q99.7187 844.581 93.9086 844.581 Q88.0984 844.581 85.0197 839.998 Q81.9642 835.391 81.9642 826.664 Q81.9642 817.914 85.0197 813.331 Q88.0984 808.725 93.9086 808.725 Z" fill="#000000" fill-rule="nonzero" fill-opacity="1" /><path clip-path="url(#clip780)" d="M124.07 812.428 Q120.459 812.428 118.631 815.993 Q116.825 819.535 116.825 826.664 Q116.825 833.771 118.631 837.336 Q120.459 840.877 124.07 840.877 Q127.705 840.877 129.51 837.336 Q131.339 833.771 131.339 826.664 Q131.339 819.535 129.51 815.993 Q127.705 812.428 124.07 812.428 M124.07 808.725 Q129.881 808.725 132.936 813.331 Q136.015 817.914 136.015 826.664 Q136.015 835.391 132.936 839.998 Q129.881 844.581 124.07 844.581 Q118.26 844.581 115.182 839.998 Q112.126 835.391 112.126 826.664 Q112.126 817.914 115.182 813.331 Q118.26 808.725 124.07 808.725 Z" fill="#000000" fill-rule="nonzero" fill-opacity="1" /><path clip-path="url(#clip780)" d="M66.5939 600.797 L54.7884 619.246 L66.5939 619.246 L66.5939 600.797 M65.367 596.723 L71.2466 596.723 L71.2466 619.246 L76.1772 619.246 L76.1772 623.135 L71.2466 623.135 L71.2466 631.283 L66.5939 631.283 L66.5939 623.135 L50.9921 623.135 L50.9921 618.621 L65.367 596.723 Z" fill="#000000" fill-rule="nonzero" fill-opacity="1" /><path clip-path="url(#clip780)" d="M93.9086 599.802 Q90.2975 599.802 88.4688 603.366 Q86.6632 606.908 86.6632 614.038 Q86.6632 621.144 88.4688 624.709 Q90.2975 628.25 93.9086 628.25 Q97.5428 628.25 99.3483 624.709 Q101.177 621.144 101.177 614.038 Q101.177 606.908 99.3483 603.366 Q97.5428 599.802 93.9086 599.802 M93.9086 596.098 Q99.7187 596.098 102.774 600.704 Q105.853 605.288 105.853 614.038 Q105.853 622.764 102.774 627.371 Q99.7187 631.954 93.9086 631.954 Q88.0984 631.954 85.0197 627.371 Q81.9642 622.764 81.9642 614.038 Q81.9642 605.288 85.0197 600.704 Q88.0984 596.098 93.9086 596.098 Z" fill="#000000" fill-rule="nonzero" fill-opacity="1" /><path clip-path="url(#clip780)" d="M124.07 599.802 Q120.459 599.802 118.631 603.366 Q116.825 606.908 116.825 614.038 Q116.825 621.144 118.631 624.709 Q120.459 628.25 124.07 628.25 Q127.705 628.25 129.51 624.709 Q131.339 621.144 131.339 614.038 Q131.339 606.908 129.51 603.366 Q127.705 599.802 124.07 599.802 M124.07 596.098 Q129.881 596.098 132.936 600.704 Q136.015 605.288 136.015 614.038 Q136.015 622.764 132.936 627.371 Q129.881 631.954 124.07 631.954 Q118.26 631.954 115.182 627.371 Q112.126 622.764 112.126 614.038 Q112.126 605.288 115.182 600.704 Q118.26 596.098 124.07 596.098 Z" fill="#000000" fill-rule="nonzero" fill-opacity="1" /><path clip-path="url(#clip780)" d="M53.793 384.096 L72.1494 384.096 L72.1494 388.031 L58.0754 388.031 L58.0754 396.503 Q59.0939 396.156 60.1124 395.994 Q61.131 395.809 62.1495 395.809 Q67.9365 395.809 71.3161 398.98 Q74.6957 402.151 74.6957 407.568 Q74.6957 413.147 71.2235 416.249 Q67.7513 419.327 61.4319 419.327 Q59.256 419.327 56.9875 418.957 Q54.7421 418.587 52.3347 417.846 L52.3347 413.147 Q54.418 414.281 56.6402 414.837 Q58.8625 415.392 61.3393 415.392 Q65.3439 415.392 67.6819 413.286 Q70.0198 411.179 70.0198 407.568 Q70.0198 403.957 67.6819 401.851 Q65.3439 399.744 61.3393 399.744 Q59.4643 399.744 57.5893 400.161 Q55.7375 400.577 53.793 401.457 L53.793 384.096 Z" fill="#000000" fill-rule="nonzero" fill-opacity="1" /><path clip-path="url(#clip780)" d="M93.9086 387.175 Q90.2975 387.175 88.4688 390.739 Q86.6632 394.281 86.6632 401.411 Q86.6632 408.517 88.4688 412.082 Q90.2975 415.624 93.9086 415.624 Q97.5428 415.624 99.3483 412.082 Q101.177 408.517 101.177 401.411 Q101.177 394.281 99.3483 390.739 Q97.5428 387.175 93.9086 387.175 M93.9086 383.471 Q99.7187 383.471 102.774 388.077 Q105.853 392.661 105.853 401.411 Q105.853 410.138 102.774 414.744 Q99.7187 419.327 93.9086 419.327 Q88.0984 419.327 85.0197 414.744 Q81.9642 410.138 81.9642 401.411 Q81.9642 392.661 85.0197 388.077 Q88.0984 383.471 93.9086 383.471 Z" fill="#000000" fill-rule="nonzero" fill-opacity="1" /><path clip-path="url(#clip780)" d="M124.07 387.175 Q120.459 387.175 118.631 390.739 Q116.825 394.281 116.825 401.411 Q116.825 408.517 118.631 412.082 Q120.459 415.624 124.07 415.624 Q127.705 415.624 129.51 412.082 Q131.339 408.517 131.339 401.411 Q131.339 394.281 129.51 390.739 Q127.705 387.175 124.07 387.175 M124.07 383.471 Q129.881 383.471 132.936 388.077 Q136.015 392.661 136.015 401.411 Q136.015 410.138 132.936 414.744 Q129.881 419.327 124.07 419.327 Q118.26 419.327 115.182 414.744 Q112.126 410.138 112.126 401.411 Q112.126 392.661 115.182 388.077 Q118.26 383.471 124.07 383.471 Z" fill="#000000" fill-rule="nonzero" fill-opacity="1" /><path clip-path="url(#clip780)" d="M64.3254 186.886 Q61.1773 186.886 59.3254 189.039 Q57.4967 191.191 57.4967 194.941 Q57.4967 198.668 59.3254 200.844 Q61.1773 202.997 64.3254 202.997 Q67.4735 202.997 69.3022 200.844 Q71.1541 198.668 71.1541 194.941 Q71.1541 191.191 69.3022 189.039 Q67.4735 186.886 64.3254 186.886 M73.6077 172.233 L73.6077 176.492 Q71.8485 175.659 70.0429 175.219 Q68.2606 174.779 66.5013 174.779 Q61.8717 174.779 59.418 177.904 Q56.9875 181.029 56.6402 187.349 Q58.006 185.335 60.0662 184.27 Q62.1263 183.182 64.6032 183.182 Q69.8115 183.182 72.8207 186.353 Q75.8531 189.501 75.8531 194.941 Q75.8531 200.265 72.705 203.483 Q69.5568 206.7 64.3254 206.7 Q58.33 206.7 55.1588 202.117 Q51.9875 197.511 51.9875 188.784 Q51.9875 180.589 55.8764 175.728 Q59.7652 170.844 66.3161 170.844 Q68.0754 170.844 69.8578 171.191 Q71.6633 171.539 73.6077 172.233 Z" fill="#000000" fill-rule="nonzero" fill-opacity="1" /><path clip-path="url(#clip780)" d="M93.9086 174.548 Q90.2975 174.548 88.4688 178.113 Q86.6632 181.654 86.6632 188.784 Q86.6632 195.89 88.4688 199.455 Q90.2975 202.997 93.9086 202.997 Q97.5428 202.997 99.3483 199.455 Q101.177 195.89 101.177 188.784 Q101.177 181.654 99.3483 178.113 Q97.5428 174.548 93.9086 174.548 M93.9086 170.844 Q99.7187 170.844 102.774 175.451 Q105.853 180.034 105.853 188.784 Q105.853 197.511 102.774 202.117 Q99.7187 206.7 93.9086 206.7 Q88.0984 206.7 85.0197 202.117 Q81.9642 197.511 81.9642 188.784 Q81.9642 180.034 85.0197 175.451 Q88.0984 170.844 93.9086 170.844 Z" fill="#000000" fill-rule="nonzero" fill-opacity="1" /><path clip-path="url(#clip780)" d="M124.07 174.548 Q120.459 174.548 118.631 178.113 Q116.825 181.654 116.825 188.784 Q116.825 195.89 118.631 199.455 Q120.459 202.997 124.07 202.997 Q127.705 202.997 129.51 199.455 Q131.339 195.89 131.339 188.784 Q131.339 181.654 129.51 178.113 Q127.705 174.548 124.07 174.548 M124.07 170.844 Q129.881 170.844 132.936 175.451 Q136.015 180.034 136.015 188.784 Q136.015 197.511 132.936 202.117 Q129.881 206.7 124.07 206.7 Q118.26 206.7 115.182 202.117 Q112.126 197.511 112.126 188.784 Q112.126 180.034 115.182 175.451 Q118.26 170.844 124.07 170.844 Z" fill="#000000" fill-rule="nonzero" fill-opacity="1" /><polyline clip-path="url(#clip782)" style="stroke:#009af9; stroke-linecap:round; stroke-linejoin:round; stroke-width:4; stroke-opacity:1; fill:none" points="233.734,607.182 254.727,629.971 275.72,652.672 296.713,675.277 317.705,697.779 338.698,720.169 359.691,742.44 380.684,764.584 401.677,786.592 422.67,808.455 443.663,830.164 464.656,851.711 485.649,873.086 506.641,894.279 527.634,915.281 548.627,936.081 569.62,956.668 590.613,977.033 611.606,997.164 632.599,1017.05 653.592,1036.68 674.585,1056.04 695.577,1075.12 716.57,1093.9 737.563,1112.38 758.556,1130.54 779.549,1148.37 800.542,1165.85 821.535,1182.97 842.528,1199.71 863.521,1216.06 884.513,1232.01 905.506,1247.54 926.499,1262.63 947.492,1277.26 968.485,1291.42 989.478,1305.1 1010.47,1318.27 1031.46,1330.91 1052.46,1343.02 1073.45,1354.56 1094.44,1365.52 1115.44,1375.87 1136.43,1385.61 1157.42,1394.7 1178.41,1403.13 1199.41,1410.87 1220.4,1417.9 1241.39,1424.2 1262.39,1429.74 1283.38,1434.5 1304.37,1438.46 1325.36,1441.59 1346.36,1443.86 1367.35,1445.24 1388.34,1445.72 1409.34,1445.25 1430.33,1443.82 1451.32,1441.39 1472.31,1437.94 1493.31,1433.42 1514.3,1427.82 1535.29,1421.1 1556.29,1413.22 1577.28,1404.15 1598.27,1393.86 1619.26,1382.32 1640.26,1369.48 1661.25,1355.31 1682.24,1339.77 1703.24,1322.82 1724.23,1304.43 1745.22,1284.55 1766.21,1263.14 1787.21,1240.16 1808.2,1215.56 1829.19,1189.31 1850.19,1161.35 1871.18,1131.64 1892.17,1100.13 1913.16,1066.77 1934.16,1031.52 1955.15,994.317 1976.14,955.117 1997.14,913.864 2018.13,870.504 2039.12,824.982 2060.12,777.239 2081.11,727.22 2102.1,674.862 2123.09,620.107 2144.09,562.892 2165.08,503.153 2186.07,440.825 2207.07,375.842 2228.06,308.136 2249.05,237.637 2270.04,164.275 2291.04,87.9763 "/>
<path clip-path="url(#clip780)" d="M244.706 198.898 L885.486 198.898 L885.486 95.2176 L244.706 95.2176  Z" fill="#ffffff" fill-rule="evenodd" fill-opacity="1"/>
<polyline clip-path="url(#clip780)" style="stroke:#000000; stroke-linecap:round; stroke-linejoin:round; stroke-width:4; stroke-opacity:1; fill:none" points="244.706,198.898 885.486,198.898 885.486,95.2176 244.706,95.2176 244.706,198.898 "/>
<polyline clip-path="url(#clip780)" style="stroke:#009af9; stroke-linecap:round; stroke-linejoin:round; stroke-width:4; stroke-opacity:1; fill:none" points="268.937,147.058 414.319,147.058 "/>
<path clip-path="url(#clip780)" d="M455.054 128.319 L455.054 131.861 L450.98 131.861 Q448.689 131.861 447.786 132.787 Q446.906 133.713 446.906 136.12 L446.906 138.412 L453.92 138.412 L453.92 141.722 L446.906 141.722 L446.906 164.338 L442.624 164.338 L442.624 141.722 L438.55 141.722 L438.55 138.412 L442.624 138.412 L442.624 136.606 Q442.624 132.278 444.638 130.31 Q446.652 128.319 451.027 128.319 L455.054 128.319 Z" fill="#000000" fill-rule="nonzero" fill-opacity="1" /><path clip-path="url(#clip780)" d="M468.665 141.398 Q465.24 141.398 463.249 144.083 Q461.258 146.745 461.258 151.398 Q461.258 156.051 463.226 158.736 Q465.216 161.398 468.665 161.398 Q472.068 161.398 474.059 158.713 Q476.05 156.027 476.05 151.398 Q476.05 146.791 474.059 144.106 Q472.068 141.398 468.665 141.398 M468.665 137.787 Q474.221 137.787 477.392 141.398 Q480.564 145.009 480.564 151.398 Q480.564 157.764 477.392 161.398 Q474.221 165.009 468.665 165.009 Q463.087 165.009 459.915 161.398 Q456.767 157.764 456.767 151.398 Q456.767 145.009 459.915 141.398 Q463.087 137.787 468.665 137.787 Z" fill="#000000" fill-rule="nonzero" fill-opacity="1" /><path clip-path="url(#clip780)" d="M502.647 142.393 Q501.929 141.977 501.073 141.791 Q500.239 141.583 499.221 141.583 Q495.61 141.583 493.665 143.944 Q491.744 146.282 491.744 150.68 L491.744 164.338 L487.462 164.338 L487.462 138.412 L491.744 138.412 L491.744 142.44 Q493.087 140.078 495.239 138.944 Q497.392 137.787 500.471 137.787 Q500.911 137.787 501.443 137.856 Q501.975 137.903 502.624 138.018 L502.647 142.393 Z" fill="#000000" fill-rule="nonzero" fill-opacity="1" /><path clip-path="url(#clip780)" d="M524.73 139.407 L524.73 143.389 Q522.924 142.393 521.096 141.907 Q519.29 141.398 517.438 141.398 Q513.295 141.398 511.003 144.037 Q508.712 146.652 508.712 151.398 Q508.712 156.143 511.003 158.782 Q513.295 161.398 517.438 161.398 Q519.29 161.398 521.096 160.912 Q522.924 160.402 524.73 159.407 L524.73 163.342 Q522.948 164.176 521.026 164.592 Q519.128 165.009 516.975 165.009 Q511.119 165.009 507.67 161.328 Q504.221 157.648 504.221 151.398 Q504.221 145.055 507.693 141.421 Q511.188 137.787 517.253 137.787 Q519.221 137.787 521.096 138.203 Q522.971 138.597 524.73 139.407 Z" fill="#000000" fill-rule="nonzero" fill-opacity="1" /><path clip-path="url(#clip780)" d="M554.313 150.31 L554.313 152.393 L534.73 152.393 Q535.008 156.791 537.369 159.106 Q539.753 161.398 543.989 161.398 Q546.443 161.398 548.734 160.796 Q551.049 160.194 553.318 158.99 L553.318 163.018 Q551.026 163.99 548.619 164.5 Q546.211 165.009 543.734 165.009 Q537.531 165.009 533.897 161.398 Q530.285 157.787 530.285 151.629 Q530.285 145.264 533.711 141.537 Q537.16 137.787 542.994 137.787 Q548.225 137.787 551.258 141.166 Q554.313 144.523 554.313 150.31 M550.054 149.06 Q550.008 145.565 548.086 143.481 Q546.188 141.398 543.04 141.398 Q539.475 141.398 537.322 143.412 Q535.193 145.426 534.869 149.083 L550.054 149.06 Z" fill="#000000" fill-rule="nonzero" fill-opacity="1" /><path clip-path="url(#clip780)" d="M586.605 128.366 Q583.503 133.69 581.998 138.898 Q580.494 144.106 580.494 149.453 Q580.494 154.801 581.998 160.055 Q583.526 165.287 586.605 170.588 L582.901 170.588 Q579.429 165.148 577.693 159.893 Q575.98 154.639 575.98 149.453 Q575.98 144.291 577.693 139.06 Q579.406 133.828 582.901 128.366 L586.605 128.366 Z" fill="#000000" fill-rule="nonzero" fill-opacity="1" /><path clip-path="url(#clip780)" d="M615.054 143.389 Q616.651 140.518 618.873 139.153 Q621.095 137.787 624.104 137.787 Q628.155 137.787 630.354 140.634 Q632.553 143.458 632.553 148.689 L632.553 164.338 L628.271 164.338 L628.271 148.828 Q628.271 145.102 626.952 143.296 Q625.632 141.49 622.924 141.49 Q619.614 141.49 617.692 143.69 Q615.771 145.889 615.771 149.685 L615.771 164.338 L611.489 164.338 L611.489 148.828 Q611.489 145.078 610.169 143.296 Q608.85 141.49 606.095 141.49 Q602.831 141.49 600.91 143.713 Q598.989 145.912 598.989 149.685 L598.989 164.338 L594.706 164.338 L594.706 138.412 L598.989 138.412 L598.989 142.44 Q600.447 140.055 602.484 138.921 Q604.521 137.787 607.322 137.787 Q610.146 137.787 612.114 139.222 Q614.104 140.657 615.054 143.389 Z" fill="#000000" fill-rule="nonzero" fill-opacity="1" /><path clip-path="url(#clip780)" d="M652.831 151.305 Q647.669 151.305 645.678 152.486 Q643.688 153.666 643.688 156.514 Q643.688 158.782 645.169 160.125 Q646.674 161.444 649.243 161.444 Q652.785 161.444 654.914 158.944 Q657.067 156.421 657.067 152.254 L657.067 151.305 L652.831 151.305 M661.326 149.546 L661.326 164.338 L657.067 164.338 L657.067 160.402 Q655.609 162.763 653.433 163.898 Q651.257 165.009 648.109 165.009 Q644.127 165.009 641.766 162.787 Q639.428 160.541 639.428 156.791 Q639.428 152.416 642.345 150.194 Q645.285 147.972 651.095 147.972 L657.067 147.972 L657.067 147.555 Q657.067 144.615 655.123 143.018 Q653.201 141.398 649.706 141.398 Q647.484 141.398 645.377 141.93 Q643.271 142.463 641.327 143.527 L641.327 139.592 Q643.664 138.69 645.864 138.25 Q648.063 137.787 650.146 137.787 Q655.771 137.787 658.549 140.703 Q661.326 143.62 661.326 149.546 Z" fill="#000000" fill-rule="nonzero" fill-opacity="1" /><path clip-path="url(#clip780)" d="M687.16 151.074 Q687.16 146.444 685.238 143.898 Q683.34 141.352 679.891 141.352 Q676.465 141.352 674.544 143.898 Q672.646 146.444 672.646 151.074 Q672.646 155.68 674.544 158.226 Q676.465 160.773 679.891 160.773 Q683.34 160.773 685.238 158.226 Q687.16 155.68 687.16 151.074 M691.419 161.12 Q691.419 167.74 688.479 170.958 Q685.539 174.199 679.474 174.199 Q677.229 174.199 675.238 173.851 Q673.248 173.527 671.373 172.833 L671.373 168.689 Q673.248 169.708 675.076 170.194 Q676.905 170.68 678.803 170.68 Q682.993 170.68 685.076 168.481 Q687.16 166.305 687.16 161.884 L687.16 159.777 Q685.84 162.069 683.78 163.203 Q681.72 164.338 678.849 164.338 Q674.081 164.338 671.164 160.703 Q668.248 157.069 668.248 151.074 Q668.248 145.055 671.164 141.421 Q674.081 137.787 678.849 137.787 Q681.72 137.787 683.78 138.921 Q685.84 140.055 687.16 142.347 L687.16 138.412 L691.419 138.412 L691.419 161.12 Z" fill="#000000" fill-rule="nonzero" fill-opacity="1" /><path clip-path="url(#clip780)" d="M721.743 148.689 L721.743 164.338 L717.484 164.338 L717.484 148.828 Q717.484 145.148 716.048 143.319 Q714.613 141.49 711.743 141.49 Q708.294 141.49 706.303 143.69 Q704.312 145.889 704.312 149.685 L704.312 164.338 L700.03 164.338 L700.03 138.412 L704.312 138.412 L704.312 142.44 Q705.84 140.102 707.9 138.944 Q709.984 137.787 712.692 137.787 Q717.159 137.787 719.451 140.565 Q721.743 143.319 721.743 148.689 Z" fill="#000000" fill-rule="nonzero" fill-opacity="1" /><path clip-path="url(#clip780)" d="M730.238 138.412 L734.497 138.412 L734.497 164.338 L730.238 164.338 L730.238 138.412 M730.238 128.319 L734.497 128.319 L734.497 133.713 L730.238 133.713 L730.238 128.319 Z" fill="#000000" fill-rule="nonzero" fill-opacity="1" /><path clip-path="url(#clip780)" d="M747.622 131.051 L747.622 138.412 L756.395 138.412 L756.395 141.722 L747.622 141.722 L747.622 155.796 Q747.622 158.967 748.479 159.87 Q749.358 160.773 752.02 160.773 L756.395 160.773 L756.395 164.338 L752.02 164.338 Q747.09 164.338 745.215 162.509 Q743.34 160.657 743.34 155.796 L743.34 141.722 L740.215 141.722 L740.215 138.412 L743.34 138.412 L743.34 131.051 L747.622 131.051 Z" fill="#000000" fill-rule="nonzero" fill-opacity="1" /><path clip-path="url(#clip780)" d="M761.557 154.106 L761.557 138.412 L765.817 138.412 L765.817 153.944 Q765.817 157.625 767.252 159.476 Q768.687 161.305 771.557 161.305 Q775.006 161.305 776.997 159.106 Q779.011 156.907 779.011 153.111 L779.011 138.412 L783.27 138.412 L783.27 164.338 L779.011 164.338 L779.011 160.356 Q777.46 162.717 775.4 163.875 Q773.363 165.009 770.655 165.009 Q766.187 165.009 763.872 162.231 Q761.557 159.453 761.557 154.106 M772.275 137.787 L772.275 137.787 Z" fill="#000000" fill-rule="nonzero" fill-opacity="1" /><path clip-path="url(#clip780)" d="M809.103 142.347 L809.103 128.319 L813.363 128.319 L813.363 164.338 L809.103 164.338 L809.103 160.449 Q807.761 162.763 805.701 163.898 Q803.664 165.009 800.793 165.009 Q796.094 165.009 793.131 161.259 Q790.191 157.509 790.191 151.398 Q790.191 145.287 793.131 141.537 Q796.094 137.787 800.793 137.787 Q803.664 137.787 805.701 138.921 Q807.761 140.032 809.103 142.347 M794.59 151.398 Q794.59 156.097 796.511 158.782 Q798.455 161.444 801.835 161.444 Q805.215 161.444 807.159 158.782 Q809.103 156.097 809.103 151.398 Q809.103 146.699 807.159 144.037 Q805.215 141.352 801.835 141.352 Q798.455 141.352 796.511 144.037 Q794.59 146.699 794.59 151.398 Z" fill="#000000" fill-rule="nonzero" fill-opacity="1" /><path clip-path="url(#clip780)" d="M844.312 150.31 L844.312 152.393 L824.728 152.393 Q825.006 156.791 827.367 159.106 Q829.751 161.398 833.988 161.398 Q836.441 161.398 838.733 160.796 Q841.048 160.194 843.316 158.99 L843.316 163.018 Q841.025 163.99 838.617 164.5 Q836.21 165.009 833.733 165.009 Q827.529 165.009 823.895 161.398 Q820.284 157.787 820.284 151.629 Q820.284 145.264 823.71 141.537 Q827.159 137.787 832.992 137.787 Q838.224 137.787 841.256 141.166 Q844.312 144.523 844.312 150.31 M840.052 149.06 Q840.006 145.565 838.085 143.481 Q836.187 141.398 833.038 141.398 Q829.474 141.398 827.321 143.412 Q825.191 145.426 824.867 149.083 L840.052 149.06 Z" fill="#000000" fill-rule="nonzero" fill-opacity="1" /><path clip-path="url(#clip780)" d="M850.631 128.366 L854.335 128.366 Q857.807 133.828 859.52 139.06 Q861.256 144.291 861.256 149.453 Q861.256 154.639 859.52 159.893 Q857.807 165.148 854.335 170.588 L850.631 170.588 Q853.71 165.287 855.214 160.055 Q856.742 154.801 856.742 149.453 Q856.742 144.106 855.214 138.898 Q853.71 133.69 850.631 128.366 Z" fill="#000000" fill-rule="nonzero" fill-opacity="1" /></svg>
