<?xml version="1.0" encoding="utf-8"?>
<svg xmlns="http://www.w3.org/2000/svg" xmlns:xlink="http://www.w3.org/1999/xlink" width="600" height="400" viewBox="0 0 2400 1600">
<defs>
  <clipPath id="clip750">
    <rect x="0" y="0" width="2400" height="1600"/>
  </clipPath>
</defs>
<path clip-path="url(#clip750)" d="M0 1600 L2400 1600 L2400 0 L0 0  Z" fill="#ffffff" fill-rule="evenodd" fill-opacity="1"/>
<defs>
  <clipPath id="clip751">
    <rect x="480" y="0" width="1681" height="1600"/>
  </clipPath>
</defs>
<path clip-path="url(#clip750)" d="M194.422 1423.18 L2352.76 1423.18 L2352.76 123.472 L194.422 123.472  Z" fill="#ffffff" fill-rule="evenodd" fill-opacity="1"/>
<defs>
  <clipPath id="clip752">
    <rect x="194" y="123" width="2159" height="1301"/>
  </clipPath>
</defs>
<polyline clip-path="url(#clip752)" style="stroke:#000000; stroke-linecap:round; stroke-linejoin:round; stroke-width:2; stroke-opacity:0.1; fill:none" points="382.705,1423.18 382.705,123.472 "/>
<polyline clip-path="url(#clip752)" style="stroke:#000000; stroke-linecap:round; stroke-linejoin:round; stroke-width:2; stroke-opacity:0.1; fill:none" points="891.746,1423.18 891.746,123.472 "/>
<polyline clip-path="url(#clip752)" style="stroke:#000000; stroke-linecap:round; stroke-linejoin:round; stroke-width:2; stroke-opacity:0.1; fill:none" points="1400.79,1423.18 1400.79,123.472 "/>
<polyline clip-path="url(#clip752)" style="stroke:#000000; stroke-linecap:round; stroke-linejoin:round; stroke-width:2; stroke-opacity:0.1; fill:none" points="1909.83,1423.18 1909.83,123.472 "/>
<polyline clip-path="url(#clip752)" style="stroke:#000000; stroke-linecap:round; stroke-linejoin:round; stroke-width:2; stroke-opacity:0.1; fill:none" points="194.422,1289.01 2352.76,1289.01 "/>
<polyline clip-path="url(#clip752)" style="stroke:#000000; stroke-linecap:round; stroke-linejoin:round; stroke-width:2; stroke-opacity:0.1; fill:none" points="194.422,1026.07 2352.76,1026.07 "/>
<polyline clip-path="url(#clip752)" style="stroke:#000000; stroke-linecap:round; stroke-linejoin:round; stroke-width:2; stroke-opacity:0.1; fill:none" points="194.422,763.139 2352.76,763.139 "/>
<polyline clip-path="url(#clip752)" style="stroke:#000000; stroke-linecap:round; stroke-linejoin:round; stroke-width:2; stroke-opacity:0.1; fill:none" points="194.422,500.204 2352.76,500.204 "/>
<polyline clip-path="url(#clip752)" style="stroke:#000000; stroke-linecap:round; stroke-linejoin:round; stroke-width:2; stroke-opacity:0.1; fill:none" points="194.422,237.269 2352.76,237.269 "/>
<polyline clip-path="url(#clip750)" style="stroke:#000000; stroke-linecap:round; stroke-linejoin:round; stroke-width:4; stroke-opacity:1; fill:none" points="194.422,1423.18 2352.76,1423.18 "/>
<polyline clip-path="url(#clip750)" style="stroke:#000000; stroke-linecap:round; stroke-linejoin:round; stroke-width:4; stroke-opacity:1; fill:none" points="382.705,1423.18 382.705,1404.28 "/>
<polyline clip-path="url(#clip750)" style="stroke:#000000; stroke-linecap:round; stroke-linejoin:round; stroke-width:4; stroke-opacity:1; fill:none" points="891.746,1423.18 891.746,1404.28 "/>
<polyline clip-path="url(#clip750)" style="stroke:#000000; stroke-linecap:round; stroke-linejoin:round; stroke-width:4; stroke-opacity:1; fill:none" points="1400.79,1423.18 1400.79,1404.28 "/>
<polyline clip-path="url(#clip750)" style="stroke:#000000; stroke-linecap:round; stroke-linejoin:round; stroke-width:4; stroke-opacity:1; fill:none" points="1909.83,1423.18 1909.83,1404.28 "/>
<path clip-path="url(#clip750)" d="M329.233 1468.75 L358.909 1468.75 L358.909 1472.69 L329.233 1472.69 L329.233 1468.75 Z" fill="#000000" fill-rule="nonzero" fill-opacity="1" /><path clip-path="url(#clip750)" d="M369.811 1481.64 L377.45 1481.64 L377.45 1455.28 L369.14 1456.95 L369.14 1452.69 L377.404 1451.02 L382.08 1451.02 L382.08 1481.64 L389.719 1481.64 L389.719 1485.58 L369.811 1485.58 L369.811 1481.64 Z" fill="#000000" fill-rule="nonzero" fill-opacity="1" /><path clip-path="url(#clip750)" d="M399.163 1479.7 L404.047 1479.7 L404.047 1485.58 L399.163 1485.58 L399.163 1479.7 Z" fill="#000000" fill-rule="nonzero" fill-opacity="1" /><path clip-path="url(#clip750)" d="M424.232 1454.1 Q420.621 1454.1 418.793 1457.66 Q416.987 1461.2 416.987 1468.33 Q416.987 1475.44 418.793 1479.01 Q420.621 1482.55 424.232 1482.55 Q427.867 1482.55 429.672 1479.01 Q431.501 1475.44 431.501 1468.33 Q431.501 1461.2 429.672 1457.66 Q427.867 1454.1 424.232 1454.1 M424.232 1450.39 Q430.043 1450.39 433.098 1455 Q436.177 1459.58 436.177 1468.33 Q436.177 1477.06 433.098 1481.67 Q430.043 1486.25 424.232 1486.25 Q418.422 1486.25 415.344 1481.67 Q412.288 1477.06 412.288 1468.33 Q412.288 1459.58 415.344 1455 Q418.422 1450.39 424.232 1450.39 Z" fill="#000000" fill-rule="nonzero" fill-opacity="1" /><path clip-path="url(#clip750)" d="M838.772 1468.75 L868.447 1468.75 L868.447 1472.69 L838.772 1472.69 L838.772 1468.75 Z" fill="#000000" fill-rule="nonzero" fill-opacity="1" /><path clip-path="url(#clip750)" d="M888.54 1454.1 Q884.929 1454.1 883.1 1457.66 Q881.295 1461.2 881.295 1468.33 Q881.295 1475.44 883.1 1479.01 Q884.929 1482.55 888.54 1482.55 Q892.174 1482.55 893.98 1479.01 Q895.808 1475.44 895.808 1468.33 Q895.808 1461.2 893.98 1457.66 Q892.174 1454.1 888.54 1454.1 M888.54 1450.39 Q894.35 1450.39 897.406 1455 Q900.484 1459.58 900.484 1468.33 Q900.484 1477.06 897.406 1481.67 Q894.35 1486.25 888.54 1486.25 Q882.73 1486.25 879.651 1481.67 Q876.596 1477.06 876.596 1468.33 Q876.596 1459.58 879.651 1455 Q882.73 1450.39 888.54 1450.39 Z" fill="#000000" fill-rule="nonzero" fill-opacity="1" /><path clip-path="url(#clip750)" d="M908.702 1479.7 L913.586 1479.7 L913.586 1485.58 L908.702 1485.58 L908.702 1479.7 Z" fill="#000000" fill-rule="nonzero" fill-opacity="1" /><path clip-path="url(#clip750)" d="M923.817 1451.02 L942.174 1451.02 L942.174 1454.96 L928.1 1454.96 L928.1 1463.43 Q929.118 1463.08 930.137 1462.92 Q931.155 1462.73 932.174 1462.73 Q937.961 1462.73 941.341 1465.9 Q944.72 1469.08 944.72 1474.49 Q944.72 1480.07 941.248 1483.17 Q937.776 1486.25 931.456 1486.25 Q929.28 1486.25 927.012 1485.88 Q924.767 1485.51 922.359 1484.77 L922.359 1480.07 Q924.442 1481.2 926.665 1481.76 Q928.887 1482.32 931.364 1482.32 Q935.368 1482.32 937.706 1480.21 Q940.044 1478.1 940.044 1474.49 Q940.044 1470.88 937.706 1468.77 Q935.368 1466.67 931.364 1466.67 Q929.489 1466.67 927.614 1467.08 Q925.762 1467.5 923.817 1468.38 L923.817 1451.02 Z" fill="#000000" fill-rule="nonzero" fill-opacity="1" /><path clip-path="url(#clip750)" d="M1378.17 1454.1 Q1374.56 1454.1 1372.73 1457.66 Q1370.93 1461.2 1370.93 1468.33 Q1370.93 1475.44 1372.73 1479.01 Q1374.56 1482.55 1378.17 1482.55 Q1381.81 1482.55 1383.61 1479.01 Q1385.44 1475.44 1385.44 1468.33 Q1385.44 1461.2 1383.61 1457.66 Q1381.81 1454.1 1378.17 1454.1 M1378.17 1450.39 Q1383.98 1450.39 1387.04 1455 Q1390.12 1459.58 1390.12 1468.33 Q1390.12 1477.06 1387.04 1481.67 Q1383.98 1486.25 1378.17 1486.25 Q1372.36 1486.25 1369.28 1481.67 Q1366.23 1477.06 1366.23 1468.33 Q1366.23 1459.58 1369.28 1455 Q1372.36 1450.39 1378.17 1450.39 Z" fill="#000000" fill-rule="nonzero" fill-opacity="1" /><path clip-path="url(#clip750)" d="M1398.33 1479.7 L1403.22 1479.7 L1403.22 1485.58 L1398.33 1485.58 L1398.33 1479.7 Z" fill="#000000" fill-rule="nonzero" fill-opacity="1" /><path clip-path="url(#clip750)" d="M1423.4 1454.1 Q1419.79 1454.1 1417.96 1457.66 Q1416.16 1461.2 1416.16 1468.33 Q1416.16 1475.44 1417.96 1479.01 Q1419.79 1482.55 1423.4 1482.55 Q1427.04 1482.55 1428.84 1479.01 Q1430.67 1475.44 1430.67 1468.33 Q1430.67 1461.2 1428.84 1457.66 Q1427.04 1454.1 1423.4 1454.1 M1423.4 1450.39 Q1429.21 1450.39 1432.27 1455 Q1435.35 1459.58 1435.35 1468.33 Q1435.35 1477.06 1432.27 1481.67 Q1429.21 1486.25 1423.4 1486.25 Q1417.59 1486.25 1414.51 1481.67 Q1411.46 1477.06 1411.46 1468.33 Q1411.46 1459.58 1414.51 1455 Q1417.59 1450.39 1423.4 1450.39 Z" fill="#000000" fill-rule="nonzero" fill-opacity="1" /><path clip-path="url(#clip750)" d="M1887.71 1454.1 Q1884.1 1454.1 1882.27 1457.66 Q1880.46 1461.2 1880.46 1468.33 Q1880.46 1475.44 1882.27 1479.01 Q1884.1 1482.55 1887.71 1482.55 Q1891.34 1482.55 1893.15 1479.01 Q1894.98 1475.44 1894.98 1468.33 Q1894.98 1461.2 1893.15 1457.66 Q1891.34 1454.1 1887.71 1454.1 M1887.71 1450.39 Q1893.52 1450.39 1896.58 1455 Q1899.65 1459.58 1899.65 1468.33 Q1899.65 1477.06 1896.58 1481.67 Q1893.52 1486.25 1887.71 1486.25 Q1881.9 1486.25 1878.82 1481.67 Q1875.77 1477.06 1875.77 1468.33 Q1875.77 1459.58 1878.82 1455 Q1881.9 1450.39 1887.71 1450.39 Z" fill="#000000" fill-rule="nonzero" fill-opacity="1" /><path clip-path="url(#clip750)" d="M1907.87 1479.7 L1912.76 1479.7 L1912.76 1485.58 L1907.87 1485.58 L1907.87 1479.7 Z" fill="#000000" fill-rule="nonzero" fill-opacity="1" /><path clip-path="url(#clip750)" d="M1922.99 1451.02 L1941.34 1451.02 L1941.34 1454.96 L1927.27 1454.96 L1927.27 1463.43 Q1928.29 1463.08 1929.31 1462.92 Q1930.33 1462.73 1931.34 1462.73 Q1937.13 1462.73 1940.51 1465.9 Q1943.89 1469.08 1943.89 1474.49 Q1943.89 1480.07 1940.42 1483.17 Q1936.95 1486.25 1930.63 1486.25 Q1928.45 1486.25 1926.18 1485.88 Q1923.94 1485.51 1921.53 1484.77 L1921.53 1480.07 Q1923.61 1481.2 1925.83 1481.76 Q1928.06 1482.32 1930.53 1482.32 Q1934.54 1482.32 1936.88 1480.21 Q1939.21 1478.1 1939.21 1474.49 Q1939.21 1470.88 1936.88 1468.77 Q1934.54 1466.67 1930.53 1466.67 Q1928.66 1466.67 1926.78 1467.08 Q1924.93 1467.5 1922.99 1468.38 L1922.99 1451.02 Z" fill="#000000" fill-rule="nonzero" fill-opacity="1" /><path clip-path="url(#clip750)" d="M1143.59 1518.52 L1149.44 1518.52 L1149.44 1568.04 L1143.59 1568.04 L1143.59 1518.52 Z" fill="#000000" fill-rule="nonzero" fill-opacity="1" /><path clip-path="url(#clip750)" d="M1175.51 1536.5 Q1170.8 1536.5 1168.06 1540.19 Q1165.32 1543.85 1165.32 1550.25 Q1165.32 1556.65 1168.03 1560.34 Q1170.77 1564 1175.51 1564 Q1180.19 1564 1182.93 1560.31 Q1185.66 1556.62 1185.66 1550.25 Q1185.66 1543.92 1182.93 1540.23 Q1180.19 1536.5 1175.51 1536.5 M1175.51 1531.54 Q1183.15 1531.54 1187.51 1536.5 Q1191.87 1541.47 1191.87 1550.25 Q1191.87 1559 1187.51 1564 Q1183.15 1568.97 1175.51 1568.97 Q1167.84 1568.97 1163.48 1564 Q1159.15 1559 1159.15 1550.25 Q1159.15 1541.47 1163.48 1536.5 Q1167.84 1531.54 1175.51 1531.54 Z" fill="#000000" fill-rule="nonzero" fill-opacity="1" /><path clip-path="url(#clip750)" d="M1225.03 1549.81 Q1225.03 1543.44 1222.39 1539.94 Q1219.78 1536.44 1215.04 1536.44 Q1210.33 1536.44 1207.69 1539.94 Q1205.08 1543.44 1205.08 1549.81 Q1205.08 1556.14 1207.69 1559.64 Q1210.33 1563.14 1215.04 1563.14 Q1219.78 1563.14 1222.39 1559.64 Q1225.03 1556.14 1225.03 1549.81 M1230.89 1563.62 Q1230.89 1572.72 1226.85 1577.15 Q1222.81 1581.6 1214.47 1581.6 Q1211.38 1581.6 1208.64 1581.13 Q1205.91 1580.68 1203.33 1579.72 L1203.33 1574.03 Q1205.91 1575.43 1208.42 1576.1 Q1210.93 1576.76 1213.54 1576.76 Q1219.31 1576.76 1222.17 1573.74 Q1225.03 1570.75 1225.03 1564.67 L1225.03 1561.77 Q1223.22 1564.92 1220.39 1566.48 Q1217.55 1568.04 1213.61 1568.04 Q1207.05 1568.04 1203.04 1563.05 Q1199.03 1558.05 1199.03 1549.81 Q1199.03 1541.53 1203.04 1536.53 Q1207.05 1531.54 1213.61 1531.54 Q1217.55 1531.54 1220.39 1533.1 Q1223.22 1534.66 1225.03 1537.81 L1225.03 1532.4 L1230.89 1532.4 L1230.89 1563.62 Z" fill="#000000" fill-rule="nonzero" fill-opacity="1" /><path clip-path="url(#clip750)" d="M1244.9 1562.63 L1255.4 1562.63 L1255.4 1526.38 L1243.97 1528.67 L1243.97 1522.82 L1255.34 1520.52 L1261.76 1520.52 L1261.76 1562.63 L1272.27 1562.63 L1272.27 1568.04 L1244.9 1568.04 L1244.9 1562.63 Z" fill="#000000" fill-rule="nonzero" fill-opacity="1" /><path clip-path="url(#clip750)" d="M1299 1524.76 Q1294.04 1524.76 1291.52 1529.66 Q1289.04 1534.53 1289.04 1544.33 Q1289.04 1554.1 1291.52 1559 Q1294.04 1563.87 1299 1563.87 Q1304 1563.87 1306.48 1559 Q1309 1554.1 1309 1544.33 Q1309 1534.53 1306.48 1529.66 Q1304 1524.76 1299 1524.76 M1299 1519.66 Q1306.99 1519.66 1311.19 1526 Q1315.43 1532.3 1315.43 1544.33 Q1315.43 1556.33 1311.19 1562.66 Q1306.99 1568.97 1299 1568.97 Q1291.02 1568.97 1286.78 1562.66 Q1282.58 1556.33 1282.58 1544.33 Q1282.58 1532.3 1286.78 1526 Q1291.02 1519.66 1299 1519.66 Z" fill="#000000" fill-rule="nonzero" fill-opacity="1" /><path clip-path="url(#clip750)" d="M1339.97 1518.58 Q1335.7 1525.9 1333.63 1533.06 Q1331.56 1540.23 1331.56 1547.58 Q1331.56 1554.93 1333.63 1562.16 Q1335.73 1569.35 1339.97 1576.64 L1334.87 1576.64 Q1330.1 1569.16 1327.71 1561.93 Q1325.36 1554.71 1325.36 1547.58 Q1325.36 1540.48 1327.71 1533.29 Q1330.07 1526.09 1334.87 1518.58 L1339.97 1518.58 Z" fill="#000000" fill-rule="nonzero" fill-opacity="1" /><path clip-path="url(#clip750)" d="M1365.37 1524.09 L1381.82 1568.04 L1375.62 1568.04 L1365.62 1541.69 L1353.34 1568.04 L1347.13 1568.04 L1362.76 1533.86 L1360.4 1527.56 Q1358.91 1523.55 1355.5 1523.55 L1352.44 1523.55 L1352.44 1518.52 L1356.17 1518.58 Q1363.36 1518.68 1365.37 1524.09 Z" fill="#000000" fill-rule="nonzero" fill-opacity="1" /><path clip-path="url(#clip750)" d="M1388.98 1518.58 L1394.08 1518.58 Q1398.85 1526.09 1401.21 1533.29 Q1403.59 1540.48 1403.59 1547.58 Q1403.59 1554.71 1401.21 1561.93 Q1398.85 1569.16 1394.08 1576.64 L1388.98 1576.64 Q1393.22 1569.35 1395.29 1562.16 Q1397.39 1554.93 1397.39 1547.58 Q1397.39 1540.23 1395.29 1533.06 Q1393.22 1525.9 1388.98 1518.58 Z" fill="#000000" fill-rule="nonzero" fill-opacity="1" /><polyline clip-path="url(#clip750)" style="stroke:#000000; stroke-linecap:round; stroke-linejoin:round; stroke-width:4; stroke-opacity:1; fill:none" points="194.422,1423.18 194.422,123.472 "/>
<polyline clip-path="url(#clip750)" style="stroke:#000000; stroke-linecap:round; stroke-linejoin:round; stroke-width:4; stroke-opacity:1; fill:none" points="194.422,1289.01 213.32,1289.01 "/>
<polyline clip-path="url(#clip750)" style="stroke:#000000; stroke-linecap:round; stroke-linejoin:round; stroke-width:4; stroke-opacity:1; fill:none" points="194.422,1026.07 213.32,1026.07 "/>
<polyline clip-path="url(#clip750)" style="stroke:#000000; stroke-linecap:round; stroke-linejoin:round; stroke-width:4; stroke-opacity:1; fill:none" points="194.422,763.139 213.32,763.139 "/>
<polyline clip-path="url(#clip750)" style="stroke:#000000; stroke-linecap:round; stroke-linejoin:round; stroke-width:4; stroke-opacity:1; fill:none" points="194.422,500.204 213.32,500.204 "/>
<polyline clip-path="url(#clip750)" style="stroke:#000000; stroke-linecap:round; stroke-linejoin:round; stroke-width:4; stroke-opacity:1; fill:none" points="194.422,237.269 213.32,237.269 "/>
<path clip-path="url(#clip750)" d="M50.9921 1289.46 L80.6679 1289.46 L80.6679 1293.4 L50.9921 1293.4 L50.9921 1289.46 Z" fill="#000000" fill-rule="nonzero" fill-opacity="1" /><path clip-path="url(#clip750)" d="M100.76 1274.81 Q97.1493 1274.81 95.3206 1278.37 Q93.515 1281.92 93.515 1289.04 Q93.515 1296.15 95.3206 1299.72 Q97.1493 1303.26 100.76 1303.26 Q104.395 1303.26 106.2 1299.72 Q108.029 1296.15 108.029 1289.04 Q108.029 1281.92 106.2 1278.37 Q104.395 1274.81 100.76 1274.81 M100.76 1271.11 Q106.571 1271.11 109.626 1275.71 Q112.705 1280.29 112.705 1289.04 Q112.705 1297.77 109.626 1302.38 Q106.571 1306.96 100.76 1306.96 Q94.9502 1306.96 91.8715 1302.38 Q88.816 1297.77 88.816 1289.04 Q88.816 1280.29 91.8715 1275.71 Q94.9502 1271.11 100.76 1271.11 Z" fill="#000000" fill-rule="nonzero" fill-opacity="1" /><path clip-path="url(#clip750)" d="M120.922 1300.41 L125.807 1300.41 L125.807 1306.29 L120.922 1306.29 L120.922 1300.41 Z" fill="#000000" fill-rule="nonzero" fill-opacity="1" /><path clip-path="url(#clip750)" d="M148.839 1275.8 L137.033 1294.25 L148.839 1294.25 L148.839 1275.8 M147.612 1271.73 L153.492 1271.73 L153.492 1294.25 L158.422 1294.25 L158.422 1298.14 L153.492 1298.14 L153.492 1306.29 L148.839 1306.29 L148.839 1298.14 L133.237 1298.14 L133.237 1293.63 L147.612 1271.73 Z" fill="#000000" fill-rule="nonzero" fill-opacity="1" /><path clip-path="url(#clip750)" d="M53.0754 1026.53 L82.7512 1026.53 L82.7512 1030.46 L53.0754 1030.46 L53.0754 1026.53 Z" fill="#000000" fill-rule="nonzero" fill-opacity="1" /><path clip-path="url(#clip750)" d="M102.844 1011.87 Q99.2326 1011.87 97.4039 1015.44 Q95.5984 1018.98 95.5984 1026.11 Q95.5984 1033.22 97.4039 1036.78 Q99.2326 1040.32 102.844 1040.32 Q106.478 1040.32 108.283 1036.78 Q110.112 1033.22 110.112 1026.11 Q110.112 1018.98 108.283 1015.44 Q106.478 1011.87 102.844 1011.87 M102.844 1008.17 Q108.654 1008.17 111.709 1012.78 Q114.788 1017.36 114.788 1026.11 Q114.788 1034.84 111.709 1039.44 Q108.654 1044.03 102.844 1044.03 Q97.0335 1044.03 93.9549 1039.44 Q90.8993 1034.84 90.8993 1026.11 Q90.8993 1017.36 93.9549 1012.78 Q97.0335 1008.17 102.844 1008.17 Z" fill="#000000" fill-rule="nonzero" fill-opacity="1" /><path clip-path="url(#clip750)" d="M123.006 1037.48 L127.89 1037.48 L127.89 1043.35 L123.006 1043.35 L123.006 1037.48 Z" fill="#000000" fill-rule="nonzero" fill-opacity="1" /><path clip-path="url(#clip750)" d="M142.103 1039.42 L158.422 1039.42 L158.422 1043.35 L136.478 1043.35 L136.478 1039.42 Q139.14 1036.66 143.723 1032.04 Q148.33 1027.38 149.51 1026.04 Q151.755 1023.52 152.635 1021.78 Q153.538 1020.02 153.538 1018.33 Q153.538 1015.58 151.593 1013.84 Q149.672 1012.1 146.57 1012.1 Q144.371 1012.1 141.918 1012.87 Q139.487 1013.63 136.709 1015.18 L136.709 1010.46 Q139.533 1009.33 141.987 1008.75 Q144.441 1008.17 146.478 1008.17 Q151.848 1008.17 155.042 1010.85 Q158.237 1013.54 158.237 1018.03 Q158.237 1020.16 157.427 1022.08 Q156.64 1023.98 154.533 1026.57 Q153.955 1027.24 150.853 1030.46 Q147.751 1033.66 142.103 1039.42 Z" fill="#000000" fill-rule="nonzero" fill-opacity="1" /><path clip-path="url(#clip750)" d="M101.246 748.938 Q97.6354 748.938 95.8067 752.503 Q94.0012 756.045 94.0012 763.174 Q94.0012 770.281 95.8067 773.845 Q97.6354 777.387 101.246 777.387 Q104.881 777.387 106.686 773.845 Q108.515 770.281 108.515 763.174 Q108.515 756.045 106.686 752.503 Q104.881 748.938 101.246 748.938 M101.246 745.234 Q107.057 745.234 110.112 749.841 Q113.191 754.424 113.191 763.174 Q113.191 771.901 110.112 776.507 Q107.057 781.091 101.246 781.091 Q95.4363 781.091 92.3576 776.507 Q89.3021 771.901 89.3021 763.174 Q89.3021 754.424 92.3576 749.841 Q95.4363 745.234 101.246 745.234 Z" fill="#000000" fill-rule="nonzero" fill-opacity="1" /><path clip-path="url(#clip750)" d="M121.408 774.54 L126.293 774.54 L126.293 780.419 L121.408 780.419 L121.408 774.54 Z" fill="#000000" fill-rule="nonzero" fill-opacity="1" /><path clip-path="url(#clip750)" d="M146.478 748.938 Q142.867 748.938 141.038 752.503 Q139.232 756.045 139.232 763.174 Q139.232 770.281 141.038 773.845 Q142.867 777.387 146.478 777.387 Q150.112 777.387 151.918 773.845 Q153.746 770.281 153.746 763.174 Q153.746 756.045 151.918 752.503 Q150.112 748.938 146.478 748.938 M146.478 745.234 Q152.288 745.234 155.343 749.841 Q158.422 754.424 158.422 763.174 Q158.422 771.901 155.343 776.507 Q152.288 781.091 146.478 781.091 Q140.668 781.091 137.589 776.507 Q134.533 771.901 134.533 763.174 Q134.533 754.424 137.589 749.841 Q140.668 745.234 146.478 745.234 Z" fill="#000000" fill-rule="nonzero" fill-opacity="1" /><path clip-path="url(#clip750)" d="M102.844 486.003 Q99.2326 486.003 97.4039 489.568 Q95.5984 493.109 95.5984 500.239 Q95.5984 507.345 97.4039 510.91 Q99.2326 514.452 102.844 514.452 Q106.478 514.452 108.283 510.91 Q110.112 507.345 110.112 500.239 Q110.112 493.109 108.283 489.568 Q106.478 486.003 102.844 486.003 M102.844 482.299 Q108.654 482.299 111.709 486.906 Q114.788 491.489 114.788 500.239 Q114.788 508.966 111.709 513.572 Q108.654 518.155 102.844 518.155 Q97.0335 518.155 93.9549 513.572 Q90.8993 508.966 90.8993 500.239 Q90.8993 491.489 93.9549 486.906 Q97.0335 482.299 102.844 482.299 Z" fill="#000000" fill-rule="nonzero" fill-opacity="1" /><path clip-path="url(#clip750)" d="M123.006 511.605 L127.89 511.605 L127.89 517.484 L123.006 517.484 L123.006 511.605 Z" fill="#000000" fill-rule="nonzero" fill-opacity="1" /><path clip-path="url(#clip750)" d="M142.103 513.549 L158.422 513.549 L158.422 517.484 L136.478 517.484 L136.478 513.549 Q139.14 510.794 143.723 506.165 Q148.33 501.512 149.51 500.169 Q151.755 497.646 152.635 495.91 Q153.538 494.151 153.538 492.461 Q153.538 489.706 151.593 487.97 Q149.672 486.234 146.57 486.234 Q144.371 486.234 141.918 486.998 Q139.487 487.762 136.709 489.313 L136.709 484.591 Q139.533 483.457 141.987 482.878 Q144.441 482.299 146.478 482.299 Q151.848 482.299 155.042 484.984 Q158.237 487.669 158.237 492.16 Q158.237 494.29 157.427 496.211 Q156.64 498.109 154.533 500.702 Q153.955 501.373 150.853 504.591 Q147.751 507.785 142.103 513.549 Z" fill="#000000" fill-rule="nonzero" fill-opacity="1" /><path clip-path="url(#clip750)" d="M100.76 223.067 Q97.1493 223.067 95.3206 226.632 Q93.515 230.174 93.515 237.304 Q93.515 244.41 95.3206 247.975 Q97.1493 251.516 100.76 251.516 Q104.395 251.516 106.2 247.975 Q108.029 244.41 108.029 237.304 Q108.029 230.174 106.2 226.632 Q104.395 223.067 100.76 223.067 M100.76 219.364 Q106.571 219.364 109.626 223.97 Q112.705 228.554 112.705 237.304 Q112.705 246.03 109.626 250.637 Q106.571 255.22 100.76 255.22 Q94.9502 255.22 91.8715 250.637 Q88.816 246.03 88.816 237.304 Q88.816 228.554 91.8715 223.97 Q94.9502 219.364 100.76 219.364 Z" fill="#000000" fill-rule="nonzero" fill-opacity="1" /><path clip-path="url(#clip750)" d="M120.922 248.669 L125.807 248.669 L125.807 254.549 L120.922 254.549 L120.922 248.669 Z" fill="#000000" fill-rule="nonzero" fill-opacity="1" /><path clip-path="url(#clip750)" d="M148.839 224.063 L137.033 242.512 L148.839 242.512 L148.839 224.063 M147.612 219.989 L153.492 219.989 L153.492 242.512 L158.422 242.512 L158.422 246.401 L153.492 246.401 L153.492 254.549 L148.839 254.549 L148.839 246.401 L133.237 246.401 L133.237 241.887 L147.612 219.989 Z" fill="#000000" fill-rule="nonzero" fill-opacity="1" /><path clip-path="url(#clip750)" d="M708.933 44.2197 Q711.567 45.1109 714.038 48.0275 Q716.549 50.9442 719.061 56.0483 L727.365 72.576 L718.575 72.576 L710.837 57.061 Q707.84 50.9847 705.004 48.9997 Q702.209 47.0148 697.348 47.0148 L688.436 47.0148 L688.436 72.576 L680.253 72.576 L680.253 12.096 L698.725 12.096 Q709.096 12.096 714.2 16.4305 Q719.304 20.7649 719.304 29.5149 Q719.304 35.2267 716.63 38.994 Q713.997 42.7613 708.933 44.2197 M688.436 18.8205 L688.436 40.2903 L698.725 40.2903 Q704.64 40.2903 707.637 37.5762 Q710.675 34.8216 710.675 29.5149 Q710.675 24.2082 707.637 21.5346 Q704.64 18.8205 698.725 18.8205 L688.436 18.8205 Z" fill="#000000" fill-rule="nonzero" fill-opacity="1" /><path clip-path="url(#clip750)" d="M737.573 27.2059 L745.027 27.2059 L745.027 72.576 L737.573 72.576 L737.573 27.2059 M737.573 9.54393 L745.027 9.54393 L745.027 18.9825 L737.573 18.9825 L737.573 9.54393 Z" fill="#000000" fill-rule="nonzero" fill-opacity="1" /><path clip-path="url(#clip750)" d="M790.478 34.0924 L790.478 9.54393 L797.932 9.54393 L797.932 72.576 L790.478 72.576 L790.478 65.7705 Q788.129 69.8214 784.523 71.8063 Q780.959 73.7508 775.935 73.7508 Q767.712 73.7508 762.527 67.1883 Q757.382 60.6258 757.382 49.9314 Q757.382 39.2371 762.527 32.6746 Q767.712 26.1121 775.935 26.1121 Q780.959 26.1121 784.523 28.0971 Q788.129 30.0415 790.478 34.0924 M765.079 49.9314 Q765.079 58.1548 768.441 62.8538 Q771.844 67.5124 777.758 67.5124 Q783.673 67.5124 787.075 62.8538 Q790.478 58.1548 790.478 49.9314 Q790.478 41.7081 787.075 37.0496 Q783.673 32.3505 777.758 32.3505 Q771.844 32.3505 768.441 37.0496 Q765.079 41.7081 765.079 49.9314 Z" fill="#000000" fill-rule="nonzero" fill-opacity="1" /><path clip-path="url(#clip750)" d="M843.14 49.3643 Q843.14 41.2625 839.778 36.8065 Q836.456 32.3505 830.42 32.3505 Q824.425 32.3505 821.062 36.8065 Q817.741 41.2625 817.741 49.3643 Q817.741 57.4256 821.062 61.8816 Q824.425 66.3376 830.42 66.3376 Q836.456 66.3376 839.778 61.8816 Q843.14 57.4256 843.14 49.3643 M850.594 66.9452 Q850.594 78.5308 845.449 84.1616 Q840.304 89.8329 829.691 89.8329 Q825.762 89.8329 822.278 89.2252 Q818.794 88.6581 815.513 87.4428 L815.513 80.1917 Q818.794 81.9741 821.994 82.8248 Q825.194 83.6755 828.516 83.6755 Q835.848 83.6755 839.494 79.8271 Q843.14 76.0193 843.14 68.282 L843.14 64.5957 Q840.831 68.6061 837.226 70.5911 Q833.62 72.576 828.597 72.576 Q820.252 72.576 815.148 66.2161 Q810.044 59.8562 810.044 49.3643 Q810.044 38.832 815.148 32.472 Q820.252 26.1121 828.597 26.1121 Q833.62 26.1121 837.226 28.0971 Q840.831 30.082 843.14 34.0924 L843.14 27.2059 L850.594 27.2059 L850.594 66.9452 Z" fill="#000000" fill-rule="nonzero" fill-opacity="1" /><path clip-path="url(#clip750)" d="M904.754 48.0275 L904.754 51.6733 L870.484 51.6733 Q870.97 59.3701 875.102 63.421 Q879.274 67.4314 886.687 67.4314 Q890.981 67.4314 894.991 66.3781 Q899.042 65.3249 903.012 63.2184 L903.012 70.267 Q899.002 71.9684 894.789 72.8596 Q890.576 73.7508 886.242 73.7508 Q875.385 73.7508 869.025 67.4314 Q862.706 61.1119 862.706 50.3365 Q862.706 39.1965 868.701 32.6746 Q874.737 26.1121 884.945 26.1121 Q894.1 26.1121 899.407 32.0264 Q904.754 37.9003 904.754 48.0275 M897.301 45.84 Q897.219 39.7232 893.857 36.0774 Q890.536 32.4315 885.026 32.4315 Q878.788 32.4315 875.021 35.9558 Q871.294 39.4801 870.727 45.8805 L897.301 45.84 Z" fill="#000000" fill-rule="nonzero" fill-opacity="1" /><path clip-path="url(#clip750)" d="M969.65 34.1734 Q968.394 33.4443 966.895 33.1202 Q965.437 32.7556 963.654 32.7556 Q957.335 32.7556 953.932 36.8875 Q950.57 40.9789 950.57 48.6757 L950.57 72.576 L943.076 72.576 L943.076 27.2059 L950.57 27.2059 L950.57 34.2544 Q952.919 30.1225 956.687 28.1376 Q960.454 26.1121 965.842 26.1121 Q966.611 26.1121 967.543 26.2337 Q968.475 26.3147 969.609 26.5172 L969.65 34.1734 Z" fill="#000000" fill-rule="nonzero" fill-opacity="1" /><path clip-path="url(#clip750)" d="M1014.45 48.0275 L1014.45 51.6733 L980.182 51.6733 Q980.668 59.3701 984.8 63.421 Q988.972 67.4314 996.386 67.4314 Q1000.68 67.4314 1004.69 66.3781 Q1008.74 65.3249 1012.71 63.2184 L1012.71 70.267 Q1008.7 71.9684 1004.49 72.8596 Q1000.27 73.7508 995.94 73.7508 Q985.084 73.7508 978.724 67.4314 Q972.404 61.1119 972.404 50.3365 Q972.404 39.1965 978.4 32.6746 Q984.435 26.1121 994.644 26.1121 Q1003.8 26.1121 1009.11 32.0264 Q1014.45 37.9003 1014.45 48.0275 M1007 45.84 Q1006.92 39.7232 1003.56 36.0774 Q1000.23 32.4315 994.725 32.4315 Q988.486 32.4315 984.719 35.9558 Q980.992 39.4801 980.425 45.8805 L1007 45.84 Z" fill="#000000" fill-rule="nonzero" fill-opacity="1" /><path clip-path="url(#clip750)" d="M1056.54 49.3643 Q1056.54 41.2625 1053.18 36.8065 Q1049.86 32.3505 1043.82 32.3505 Q1037.83 32.3505 1034.46 36.8065 Q1031.14 41.2625 1031.14 49.3643 Q1031.14 57.4256 1034.46 61.8816 Q1037.83 66.3376 1043.82 66.3376 Q1049.86 66.3376 1053.18 61.8816 Q1056.54 57.4256 1056.54 49.3643 M1064 66.9452 Q1064 78.5308 1058.85 84.1616 Q1053.71 89.8329 1043.09 89.8329 Q1039.16 89.8329 1035.68 89.2252 Q1032.2 88.6581 1028.91 87.4428 L1028.91 80.1917 Q1032.2 81.9741 1035.4 82.8248 Q1038.6 83.6755 1041.92 83.6755 Q1049.25 83.6755 1052.9 79.8271 Q1056.54 76.0193 1056.54 68.282 L1056.54 64.5957 Q1054.23 68.6061 1050.63 70.5911 Q1047.02 72.576 1042 72.576 Q1033.65 72.576 1028.55 66.2161 Q1023.45 59.8562 1023.45 49.3643 Q1023.45 38.832 1028.55 32.472 Q1033.65 26.1121 1042 26.1121 Q1047.02 26.1121 1050.63 28.0971 Q1054.23 30.082 1056.54 34.0924 L1056.54 27.2059 L1064 27.2059 L1064 66.9452 Z" fill="#000000" fill-rule="nonzero" fill-opacity="1" /><path clip-path="url(#clip750)" d="M1105.64 34.1734 Q1104.38 33.4443 1102.88 33.1202 Q1101.43 32.7556 1099.64 32.7556 Q1093.32 32.7556 1089.92 36.8875 Q1086.56 40.9789 1086.56 48.6757 L1086.56 72.576 L1079.06 72.576 L1079.06 27.2059 L1086.56 27.2059 L1086.56 34.2544 Q1088.91 30.1225 1092.68 28.1376 Q1096.44 26.1121 1101.83 26.1121 Q1102.6 26.1121 1103.53 26.2337 Q1104.46 26.3147 1105.6 26.5172 L1105.64 34.1734 Z" fill="#000000" fill-rule="nonzero" fill-opacity="1" /><path clip-path="url(#clip750)" d="M1150.44 48.0275 L1150.44 51.6733 L1116.17 51.6733 Q1116.66 59.3701 1120.79 63.421 Q1124.96 67.4314 1132.37 67.4314 Q1136.67 67.4314 1140.68 66.3781 Q1144.73 65.3249 1148.7 63.2184 L1148.7 70.267 Q1144.69 71.9684 1140.48 72.8596 Q1136.26 73.7508 1131.93 73.7508 Q1121.07 73.7508 1114.71 67.4314 Q1108.39 61.1119 1108.39 50.3365 Q1108.39 39.1965 1114.39 32.6746 Q1120.42 26.1121 1130.63 26.1121 Q1139.79 26.1121 1145.09 32.0264 Q1150.44 37.9003 1150.44 48.0275 M1142.99 45.84 Q1142.91 39.7232 1139.54 36.0774 Q1136.22 32.4315 1130.71 32.4315 Q1124.48 32.4315 1120.71 35.9558 Q1116.98 39.4801 1116.41 45.8805 L1142.99 45.84 Z" fill="#000000" fill-rule="nonzero" fill-opacity="1" /><path clip-path="url(#clip750)" d="M1191.6 28.5427 L1191.6 35.5912 Q1188.44 33.9709 1185.04 33.1607 Q1181.63 32.3505 1177.99 32.3505 Q1172.44 32.3505 1169.64 34.0519 Q1166.89 35.7533 1166.89 39.156 Q1166.89 41.7486 1168.87 43.2475 Q1170.86 44.7058 1176.85 46.0426 L1179.41 46.6097 Q1187.35 48.3111 1190.67 51.4303 Q1194.03 54.509 1194.03 60.0587 Q1194.03 66.3781 1189.01 70.0644 Q1184.02 73.7508 1175.27 73.7508 Q1171.63 73.7508 1167.66 73.0216 Q1163.73 72.3329 1159.35 70.9151 L1159.35 63.2184 Q1163.49 65.3654 1167.5 66.4591 Q1171.51 67.5124 1175.44 67.5124 Q1180.7 67.5124 1183.54 65.73 Q1186.37 63.9071 1186.37 60.6258 Q1186.37 57.5877 1184.31 55.9673 Q1182.28 54.3469 1175.35 52.8481 L1172.76 52.2405 Q1165.83 50.7821 1162.76 47.7845 Q1159.68 44.7463 1159.68 39.4801 Q1159.68 33.0797 1164.21 29.5959 Q1168.75 26.1121 1177.1 26.1121 Q1181.23 26.1121 1184.87 26.7198 Q1188.52 27.3274 1191.6 28.5427 Z" fill="#000000" fill-rule="nonzero" fill-opacity="1" /><path clip-path="url(#clip750)" d="M1234.82 28.5427 L1234.82 35.5912 Q1231.66 33.9709 1228.26 33.1607 Q1224.86 32.3505 1221.21 32.3505 Q1215.66 32.3505 1212.87 34.0519 Q1210.11 35.7533 1210.11 39.156 Q1210.11 41.7486 1212.1 43.2475 Q1214.08 44.7058 1220.08 46.0426 L1222.63 46.6097 Q1230.57 48.3111 1233.89 51.4303 Q1237.25 54.509 1237.25 60.0587 Q1237.25 66.3781 1232.23 70.0644 Q1227.25 73.7508 1218.5 73.7508 Q1214.85 73.7508 1210.88 73.0216 Q1206.95 72.3329 1202.58 70.9151 L1202.58 63.2184 Q1206.71 65.3654 1210.72 66.4591 Q1214.73 67.5124 1218.66 67.5124 Q1223.92 67.5124 1226.76 65.73 Q1229.6 63.9071 1229.6 60.6258 Q1229.6 57.5877 1227.53 55.9673 Q1225.5 54.3469 1218.58 52.8481 L1215.99 52.2405 Q1209.06 50.7821 1205.98 47.7845 Q1202.9 44.7463 1202.9 39.4801 Q1202.9 33.0797 1207.44 29.5959 Q1211.97 26.1121 1220.32 26.1121 Q1224.45 26.1121 1228.1 26.7198 Q1231.74 27.3274 1234.82 28.5427 Z" fill="#000000" fill-rule="nonzero" fill-opacity="1" /><path clip-path="url(#clip750)" d="M1249.12 27.2059 L1256.58 27.2059 L1256.58 72.576 L1249.12 72.576 L1249.12 27.2059 M1249.12 9.54393 L1256.58 9.54393 L1256.58 18.9825 L1249.12 18.9825 L1249.12 9.54393 Z" fill="#000000" fill-rule="nonzero" fill-opacity="1" /><path clip-path="url(#clip750)" d="M1289.75 32.4315 Q1283.76 32.4315 1280.27 37.1306 Q1276.79 41.7891 1276.79 49.9314 Q1276.79 58.0738 1280.23 62.7728 Q1283.72 67.4314 1289.75 67.4314 Q1295.71 67.4314 1299.19 62.7323 Q1302.67 58.0333 1302.67 49.9314 Q1302.67 41.8701 1299.19 37.1711 Q1295.71 32.4315 1289.75 32.4315 M1289.75 26.1121 Q1299.47 26.1121 1305.02 32.4315 Q1310.57 38.7509 1310.57 49.9314 Q1310.57 61.0714 1305.02 67.4314 Q1299.47 73.7508 1289.75 73.7508 Q1279.99 73.7508 1274.44 67.4314 Q1268.93 61.0714 1268.93 49.9314 Q1268.93 38.7509 1274.44 32.4315 Q1279.99 26.1121 1289.75 26.1121 Z" fill="#000000" fill-rule="nonzero" fill-opacity="1" /><path clip-path="url(#clip750)" d="M1360.64 45.1919 L1360.64 72.576 L1353.19 72.576 L1353.19 45.4349 Q1353.19 38.994 1350.68 35.7938 Q1348.17 32.5936 1343.14 32.5936 Q1337.11 32.5936 1333.62 36.4419 Q1330.14 40.2903 1330.14 46.9338 L1330.14 72.576 L1322.65 72.576 L1322.65 27.2059 L1330.14 27.2059 L1330.14 34.2544 Q1332.81 30.163 1336.42 28.1376 Q1340.06 26.1121 1344.8 26.1121 Q1352.62 26.1121 1356.63 30.9732 Q1360.64 35.7938 1360.64 45.1919 Z" fill="#000000" fill-rule="nonzero" fill-opacity="1" /><path clip-path="url(#clip750)" d="M1434.53 28.9478 L1434.53 35.9153 Q1431.37 34.1734 1428.17 33.3227 Q1425.01 32.4315 1421.77 32.4315 Q1414.52 32.4315 1410.51 37.0496 Q1406.5 41.6271 1406.5 49.9314 Q1406.5 58.2358 1410.51 62.8538 Q1414.52 67.4314 1421.77 67.4314 Q1425.01 67.4314 1428.17 66.5807 Q1431.37 65.6895 1434.53 63.9476 L1434.53 70.8341 Q1431.41 72.2924 1428.05 73.0216 Q1424.73 73.7508 1420.96 73.7508 Q1410.71 73.7508 1404.68 67.3098 Q1398.64 60.8689 1398.64 49.9314 Q1398.64 38.832 1404.72 32.472 Q1410.83 26.1121 1421.45 26.1121 Q1424.89 26.1121 1428.17 26.8413 Q1431.45 27.5299 1434.53 28.9478 Z" fill="#000000" fill-rule="nonzero" fill-opacity="1" /><path clip-path="url(#clip750)" d="M1465.08 32.4315 Q1459.08 32.4315 1455.6 37.1306 Q1452.11 41.7891 1452.11 49.9314 Q1452.11 58.0738 1455.56 62.7728 Q1459.04 67.4314 1465.08 67.4314 Q1471.03 67.4314 1474.51 62.7323 Q1478 58.0333 1478 49.9314 Q1478 41.8701 1474.51 37.1711 Q1471.03 32.4315 1465.08 32.4315 M1465.08 26.1121 Q1474.8 26.1121 1480.35 32.4315 Q1485.9 38.7509 1485.9 49.9314 Q1485.9 61.0714 1480.35 67.4314 Q1474.8 73.7508 1465.08 73.7508 Q1455.31 73.7508 1449.76 67.4314 Q1444.25 61.0714 1444.25 49.9314 Q1444.25 38.7509 1449.76 32.4315 Q1455.31 26.1121 1465.08 26.1121 Z" fill="#000000" fill-rule="nonzero" fill-opacity="1" /><path clip-path="url(#clip750)" d="M1537.06 48.0275 L1537.06 51.6733 L1502.79 51.6733 Q1503.28 59.3701 1507.41 63.421 Q1511.58 67.4314 1518.99 67.4314 Q1523.29 67.4314 1527.3 66.3781 Q1531.35 65.3249 1535.32 63.2184 L1535.32 70.267 Q1531.31 71.9684 1527.09 72.8596 Q1522.88 73.7508 1518.55 73.7508 Q1507.69 73.7508 1501.33 67.4314 Q1495.01 61.1119 1495.01 50.3365 Q1495.01 39.1965 1501.01 32.6746 Q1507.04 26.1121 1517.25 26.1121 Q1526.41 26.1121 1531.71 32.0264 Q1537.06 37.9003 1537.06 48.0275 M1529.61 45.84 Q1529.53 39.7232 1526.16 36.0774 Q1522.84 32.4315 1517.33 32.4315 Q1511.09 32.4315 1507.33 35.9558 Q1503.6 39.4801 1503.03 45.8805 L1529.61 45.84 Z" fill="#000000" fill-rule="nonzero" fill-opacity="1" /><path clip-path="url(#clip750)" d="M1572.26 9.54393 L1572.26 15.7418 L1565.13 15.7418 Q1561.12 15.7418 1559.54 17.3622 Q1558 18.9825 1558 23.1955 L1558 27.2059 L1570.28 27.2059 L1570.28 32.9987 L1558 32.9987 L1558 72.576 L1550.51 72.576 L1550.51 32.9987 L1543.38 32.9987 L1543.38 27.2059 L1550.51 27.2059 L1550.51 24.0462 Q1550.51 16.471 1554.03 13.0277 Q1557.56 9.54393 1565.21 9.54393 L1572.26 9.54393 Z" fill="#000000" fill-rule="nonzero" fill-opacity="1" /><path clip-path="url(#clip750)" d="M1601.47 9.54393 L1601.47 15.7418 L1594.34 15.7418 Q1590.33 15.7418 1588.75 17.3622 Q1587.21 18.9825 1587.21 23.1955 L1587.21 27.2059 L1599.48 27.2059 L1599.48 32.9987 L1587.21 32.9987 L1587.21 72.576 L1579.72 72.576 L1579.72 32.9987 L1572.59 32.9987 L1572.59 27.2059 L1579.72 27.2059 L1579.72 24.0462 Q1579.72 16.471 1583.24 13.0277 Q1586.76 9.54393 1594.42 9.54393 L1601.47 9.54393 Z" fill="#000000" fill-rule="nonzero" fill-opacity="1" /><path clip-path="url(#clip750)" d="M1607.71 27.2059 L1615.16 27.2059 L1615.16 72.576 L1607.71 72.576 L1607.71 27.2059 M1607.71 9.54393 L1615.16 9.54393 L1615.16 18.9825 L1607.71 18.9825 L1607.71 9.54393 Z" fill="#000000" fill-rule="nonzero" fill-opacity="1" /><path clip-path="url(#clip750)" d="M1663.41 28.9478 L1663.41 35.9153 Q1660.25 34.1734 1657.05 33.3227 Q1653.89 32.4315 1650.65 32.4315 Q1643.4 32.4315 1639.39 37.0496 Q1635.38 41.6271 1635.38 49.9314 Q1635.38 58.2358 1639.39 62.8538 Q1643.4 67.4314 1650.65 67.4314 Q1653.89 67.4314 1657.05 66.5807 Q1660.25 65.6895 1663.41 63.9476 L1663.41 70.8341 Q1660.29 72.2924 1656.93 73.0216 Q1653.6 73.7508 1649.84 73.7508 Q1639.59 73.7508 1633.55 67.3098 Q1627.52 60.8689 1627.52 49.9314 Q1627.52 38.832 1633.59 32.472 Q1639.71 26.1121 1650.32 26.1121 Q1653.77 26.1121 1657.05 26.8413 Q1660.33 27.5299 1663.41 28.9478 Z" fill="#000000" fill-rule="nonzero" fill-opacity="1" /><path clip-path="url(#clip750)" d="M1676.37 27.2059 L1683.82 27.2059 L1683.82 72.576 L1676.37 72.576 L1676.37 27.2059 M1676.37 9.54393 L1683.82 9.54393 L1683.82 18.9825 L1676.37 18.9825 L1676.37 9.54393 Z" fill="#000000" fill-rule="nonzero" fill-opacity="1" /><path clip-path="url(#clip750)" d="M1738.23 48.0275 L1738.23 51.6733 L1703.96 51.6733 Q1704.44 59.3701 1708.58 63.421 Q1712.75 67.4314 1720.16 67.4314 Q1724.45 67.4314 1728.47 66.3781 Q1732.52 65.3249 1736.49 63.2184 L1736.49 70.267 Q1732.48 71.9684 1728.26 72.8596 Q1724.05 73.7508 1719.72 73.7508 Q1708.86 73.7508 1702.5 67.4314 Q1696.18 61.1119 1696.18 50.3365 Q1696.18 39.1965 1702.17 32.6746 Q1708.21 26.1121 1718.42 26.1121 Q1727.57 26.1121 1732.88 32.0264 Q1738.23 37.9003 1738.23 48.0275 M1730.77 45.84 Q1730.69 39.7232 1727.33 36.0774 Q1724.01 32.4315 1718.5 32.4315 Q1712.26 32.4315 1708.49 35.9558 Q1704.77 39.4801 1704.2 45.8805 L1730.77 45.84 Z" fill="#000000" fill-rule="nonzero" fill-opacity="1" /><path clip-path="url(#clip750)" d="M1788.18 45.1919 L1788.18 72.576 L1780.72 72.576 L1780.72 45.4349 Q1780.72 38.994 1778.21 35.7938 Q1775.7 32.5936 1770.68 32.5936 Q1764.64 32.5936 1761.16 36.4419 Q1757.67 40.2903 1757.67 46.9338 L1757.67 72.576 L1750.18 72.576 L1750.18 27.2059 L1757.67 27.2059 L1757.67 34.2544 Q1760.35 30.163 1763.95 28.1376 Q1767.6 26.1121 1772.34 26.1121 Q1780.15 26.1121 1784.16 30.9732 Q1788.18 35.7938 1788.18 45.1919 Z" fill="#000000" fill-rule="nonzero" fill-opacity="1" /><path clip-path="url(#clip750)" d="M1810.41 14.324 L1810.41 27.2059 L1825.77 27.2059 L1825.77 32.9987 L1810.41 32.9987 L1810.41 57.6282 Q1810.41 63.1779 1811.91 64.7578 Q1813.45 66.3376 1818.11 66.3376 L1825.77 66.3376 L1825.77 72.576 L1818.11 72.576 Q1809.48 72.576 1806.2 69.3758 Q1802.92 66.1351 1802.92 57.6282 L1802.92 32.9987 L1797.45 32.9987 L1797.45 27.2059 L1802.92 27.2059 L1802.92 14.324 L1810.41 14.324 Z" fill="#000000" fill-rule="nonzero" fill-opacity="1" /><path clip-path="url(#clip750)" d="M1864.49 28.5427 L1864.49 35.5912 Q1861.33 33.9709 1857.93 33.1607 Q1854.53 32.3505 1850.88 32.3505 Q1845.33 32.3505 1842.54 34.0519 Q1839.78 35.7533 1839.78 39.156 Q1839.78 41.7486 1841.77 43.2475 Q1843.75 44.7058 1849.75 46.0426 L1852.3 46.6097 Q1860.24 48.3111 1863.56 51.4303 Q1866.92 54.509 1866.92 60.0587 Q1866.92 66.3781 1861.9 70.0644 Q1856.92 73.7508 1848.17 73.7508 Q1844.52 73.7508 1840.55 73.0216 Q1836.62 72.3329 1832.25 70.9151 L1832.25 63.2184 Q1836.38 65.3654 1840.39 66.4591 Q1844.4 67.5124 1848.33 67.5124 Q1853.6 67.5124 1856.43 65.73 Q1859.27 63.9071 1859.27 60.6258 Q1859.27 57.5877 1857.2 55.9673 Q1855.18 54.3469 1848.25 52.8481 L1845.66 52.2405 Q1838.73 50.7821 1835.65 47.7845 Q1832.57 44.7463 1832.57 39.4801 Q1832.57 33.0797 1837.11 29.5959 Q1841.65 26.1121 1849.99 26.1121 Q1854.12 26.1121 1857.77 26.7198 Q1861.42 27.3274 1864.49 28.5427 Z" fill="#000000" fill-rule="nonzero" fill-opacity="1" /><polyline clip-path="url(#clip752)" style="stroke:#009af9; stroke-linecap:round; stroke-linejoin:round; stroke-width:4; stroke-opacity:1; fill:none" points="255.507,763.611 561.98,759.292 741.256,755.726 868.453,752.73 967.116,750.188 1047.73,748.024 1115.89,746.172 1174.93,744.585 1227,743.22 1273.59,742.046 1315.73,741.034 1354.2,740.162 1389.59,739.411 1422.36,738.765 1452.86,738.21 1481.4,737.737 1508.2,737.337 1533.48,736.995 1557.38,736.707 1580.06,736.467 1601.63,736.27 1622.2,736.113 1641.86,735.991 1660.68,735.898 1678.72,735.831 1696.07,735.788 1712.75,735.766 1728.83,735.763 1744.35,735.777 1759.34,735.805 1773.84,735.848 1787.87,735.902 1801.48,735.967 1814.68,736.039 1827.49,736.12 1839.95,736.21 1852.06,736.306 1863.86,736.389 1875.34,736.502 1886.54,736.602 1897.45,736.725 1908.11,736.851 1918.51,736.977 1928.68,737.104 1938.61,737.232 1948.33,737.366 1957.84,737.495 1967.15,737.636 1976.27,737.771 1985.2,737.906 1993.95,738.042 2002.54,738.179 2010.96,738.316 2019.23,738.454 2027.34,738.592 2035.31,738.73 2043.13,738.868 2050.82,739.006 2058.38,739.144 2065.81,739.282 2073.12,739.42 2080.31,739.556 2087.38,739.692 2094.35,739.827 2101.2,739.962 2107.95,740.096 2114.6,740.23 2121.15,740.363 2127.61,740.496 2133.97,740.628 2140.24,740.761 2146.42,740.887 2152.52,741.031 2158.54,741.159 2164.47,741.286 2170.33,741.411 2176.11,741.536 2181.81,741.66 2187.45,741.783 2193.01,741.905 2198.5,742.026 2203.93,742.146 2209.29,742.264 2214.58,742.382 2219.81,742.499 2224.99,742.615 2230.1,742.73 2235.15,742.844 2240.15,742.957 2245.09,743.069 2249.97,743.179 2254.8,743.289 2259.58,743.398 2264.31,743.506 2268.99,743.613 2273.62,743.719 2278.2,743.824 2282.74,743.928 2287.23,744.032 2291.67,744.134 "/>
<polyline clip-path="url(#clip752)" style="stroke:#e26f46; stroke-linecap:round; stroke-linejoin:round; stroke-width:4; stroke-opacity:1; fill:none" points="255.507,936.926 561.98,920.956 741.256,907.238 868.453,895.218 967.116,884.653 1047.73,875.246 1115.89,866.923 1174.93,859.489 1227,852.818 1273.59,846.808 1315.73,841.373 1354.2,836.439 1389.59,831.945 1422.36,827.84 1452.86,824.078 1481.4,820.624 1508.2,817.445 1533.48,814.508 1557.38,811.789 1580.06,809.27 1601.63,806.929 1622.2,804.754 1641.86,802.727 1660.68,800.834 1678.72,799.063 1696.07,797.405 1712.75,795.85 1728.83,794.39 1744.35,793.018 1759.34,791.725 1773.84,790.507 1787.87,789.357 1801.48,788.272 1814.68,787.241 1827.49,786.267 1839.95,785.345 1852.06,784.47 1863.86,783.613 1875.34,782.834 1886.54,782.092 1897.45,781.391 1908.11,780.722 1918.51,780.083 1928.68,779.473 1938.61,778.888 1948.33,778.305 1957.84,777.768 1967.15,777.234 1976.27,776.741 1985.2,776.269 1993.95,775.817 2002.54,775.383 2010.96,774.967 2019.23,774.568 2027.34,774.185 2035.31,773.817 2043.13,773.463 2050.82,773.123 2058.38,772.796 2065.81,772.482 2073.12,772.179 2080.31,771.888 2087.38,771.607 2094.35,771.336 2101.2,771.075 2107.95,770.823 2114.6,770.581 2121.15,770.347 2127.61,770.121 2133.97,769.903 2140.24,769.694 2146.42,769.488 2152.52,769.3 2158.54,769.11 2164.47,768.926 2170.33,768.748 2176.11,768.575 2181.81,768.408 2187.45,768.247 2193.01,768.09 2198.5,767.938 2203.93,767.791 2209.29,767.649 2214.58,767.51 2219.81,767.376 2224.99,767.246 2230.1,767.12 2235.15,766.998 2240.15,766.879 2245.09,766.764 2249.97,766.652 2254.8,766.543 2259.58,766.437 2264.31,766.334 2268.99,766.234 2273.62,766.137 2278.2,766.043 2282.74,765.951 2287.23,765.862 2291.67,765.776 "/>
<polyline clip-path="url(#clip752)" style="stroke:#3da44d; stroke-linecap:round; stroke-linejoin:round; stroke-width:4; stroke-opacity:1; fill:none" points="255.507,358.298 561.98,379.415 741.256,398.018 868.453,414.746 967.116,429.767 1047.73,443.513 1115.89,455.919 1174.93,467.261 1227,477.674 1273.59,487.28 1315.73,496.169 1354.2,504.425 1389.59,512.118 1422.36,519.307 1452.86,526.044 1481.4,532.376 1508.2,538.344 1533.48,543.968 1557.38,549.285 1580.06,554.322 1601.63,559.103 1622.2,563.651 1641.86,567.98 1660.68,572.107 1678.72,576.045 1696.07,579.81 1712.75,583.412 1728.83,586.862 1744.35,590.171 1759.34,593.348 1773.84,596.4 1787.87,599.335 1801.48,602.16 1814.68,604.881 1827.49,607.505 1839.95,610.037 1852.06,612.482 1863.86,614.857 1875.34,617.141 1886.54,619.347 1897.45,621.485 1908.11,623.553 1918.51,625.554 1928.68,627.491 1938.61,629.367 1948.33,631.194 1957.84,632.962 1967.15,634.74 1976.27,636.421 1985.2,638.056 1993.95,639.649 2002.54,641.2 2010.96,642.711 2019.23,644.182 2027.34,645.616 2035.31,647.014 2043.13,648.378 2050.82,649.709 2058.38,651.009 2065.81,652.278 2073.12,653.517 2080.31,654.727 2087.38,655.908 2094.35,657.064 2101.2,658.194 2107.95,659.3 2114.6,660.382 2121.15,661.441 2127.61,662.479 2133.97,663.496 2140.24,664.494 2146.42,665.461 2152.52,666.447 2158.54,667.381 2164.47,668.297 2170.33,669.195 2176.11,670.076 2181.81,670.939 2187.45,671.786 2193.01,672.618 2198.5,673.433 2203.93,674.234 2209.29,675.02 2214.58,675.792 2219.81,676.55 2224.99,677.295 2230.1,678.027 2235.15,678.746 2240.15,679.452 2245.09,680.147 2249.97,680.83 2254.8,681.501 2259.58,682.161 2264.31,682.811 2268.99,683.449 2273.62,684.078 2278.2,684.696 2282.74,685.305 2287.23,685.905 2291.67,686.496 "/>
<polyline clip-path="url(#clip752)" style="stroke:#c271d2; stroke-linecap:round; stroke-linejoin:round; stroke-width:4; stroke-opacity:1; fill:none" points="255.507,514.241 561.98,525.499 741.256,535.356 868.453,544.286 967.116,552.366 1047.73,559.831 1115.89,566.616 1174.93,572.868 1227,578.652 1273.59,584.027 1315.73,589.036 1354.2,593.72 1389.59,598.115 1422.36,602.247 1452.86,606.143 1481.4,609.829 1508.2,613.323 1533.48,616.633 1557.38,619.778 1580.06,622.773 1601.63,625.63 1622.2,628.363 1641.86,630.976 1660.68,633.478 1678.72,635.876 1696.07,638.177 1712.75,640.388 1728.83,642.515 1744.35,644.561 1759.34,646.533 1773.84,648.434 1787.87,650.269 1801.48,652.041 1814.68,653.751 1827.49,655.406 1839.95,657.008 1852.06,658.559 1863.86,660.064 1875.34,661.523 1886.54,662.931 1897.45,664.306 1908.11,665.637 1918.51,666.928 1928.68,668.18 1938.61,669.394 1948.33,670.578 1957.84,671.726 1967.15,672.885 1976.27,673.981 1985.2,675.05 1993.95,676.094 2002.54,677.112 2010.96,678.105 2019.23,679.074 2027.34,680.02 2035.31,680.944 2043.13,681.846 2050.82,682.729 2058.38,683.592 2065.81,684.436 2073.12,685.262 2080.31,686.068 2087.38,686.857 2094.35,687.63 2101.2,688.387 2107.95,689.129 2114.6,689.856 2121.15,690.568 2127.61,691.267 2133.97,691.952 2140.24,692.627 2146.42,693.279 2152.52,693.951 2158.54,694.583 2164.47,695.204 2170.33,695.814 2176.11,696.412 2181.81,696.999 2187.45,697.576 2193.01,698.142 2198.5,698.699 2203.93,699.246 2209.29,699.783 2214.58,700.311 2219.81,700.83 2224.99,701.34 2230.1,701.842 2235.15,702.336 2240.15,702.821 2245.09,703.299 2249.97,703.769 2254.8,704.231 2259.58,704.686 2264.31,705.134 2268.99,705.575 2273.62,706.009 2278.2,706.436 2282.74,706.858 2287.23,707.273 2291.67,707.683 "/>
<polyline clip-path="url(#clip752)" style="stroke:#ac8d18; stroke-linecap:round; stroke-linejoin:round; stroke-width:4; stroke-opacity:1; fill:none" points="255.507,846.735 561.98,812.887 741.256,798.526 868.453,789.669 967.116,783.263 1047.73,778.24 1115.89,774.117 1174.93,770.634 1227,767.634 1273.59,765.018 1315.73,762.714 1354.2,760.67 1389.59,758.848 1422.36,757.214 1452.86,755.746 1481.4,754.424 1508.2,753.233 1533.48,752.151 1557.38,751.168 1580.06,750.276 1601.63,749.466 1622.2,748.732 1641.86,748.065 1660.68,747.457 1678.72,746.903 1696.07,746.399 1712.75,745.94 1728.83,745.523 1744.35,745.143 1759.34,744.798 1773.84,744.484 1787.87,744.2 1801.48,743.942 1814.68,743.706 1827.49,743.493 1839.95,743.302 1852.06,743.131 1863.86,742.941 1875.34,742.813 1886.54,742.67 1897.45,742.574 1908.11,742.488 1918.51,742.413 1928.68,742.346 1938.61,742.286 1948.33,742.242 1957.84,742.197 1967.15,742.17 1976.27,742.142 1985.2,742.122 1993.95,742.109 2002.54,742.102 2010.96,742.101 2019.23,742.106 2027.34,742.115 2035.31,742.13 2043.13,742.148 2050.82,742.171 2058.38,742.198 2065.81,742.229 2073.12,742.263 2080.31,742.299 2087.38,742.338 2094.35,742.381 2101.2,742.425 2107.95,742.473 2114.6,742.522 2121.15,742.574 2127.61,742.628 2133.97,742.684 2140.24,742.744 2146.42,742.798 2152.52,742.877 2158.54,742.938 2164.47,743 2170.33,743.063 2176.11,743.127 2181.81,743.192 2187.45,743.257 2193.01,743.324 2198.5,743.39 2203.93,743.458 2209.29,743.526 2214.58,743.595 2219.81,743.664 2224.99,743.733 2230.1,743.803 2235.15,743.873 2240.15,743.943 2245.09,744.014 2249.97,744.084 2254.8,744.155 2259.58,744.226 2264.31,744.297 2268.99,744.367 2273.62,744.438 2278.2,744.509 2282.74,744.58 2287.23,744.652 2291.67,744.724 "/>
<polyline clip-path="url(#clip752)" style="stroke:#00a9ad; stroke-linecap:round; stroke-linejoin:round; stroke-width:4; stroke-opacity:1; fill:none" points="255.507,812.045 561.98,826.751 741.256,826.458 868.453,822.775 967.116,818.21 1047.73,813.489 1115.89,808.971 1174.93,804.729 1227,800.792 1273.59,797.159 1315.73,793.815 1354.2,790.741 1389.59,787.914 1422.36,785.312 1452.86,782.917 1481.4,780.711 1508.2,778.678 1533.48,776.796 1557.38,775.055 1580.06,773.443 1601.63,771.949 1622.2,770.567 1641.86,769.283 1660.68,768.09 1678.72,766.979 1696.07,765.945 1712.75,764.981 1728.83,764.083 1744.35,763.244 1759.34,762.46 1773.84,761.728 1787.87,761.043 1801.48,760.402 1814.68,759.798 1827.49,759.234 1839.95,758.705 1852.06,758.209 1863.86,757.702 1875.34,757.275 1886.54,756.842 1897.45,756.471 1908.11,756.12 1918.51,755.789 1928.68,755.476 1938.61,755.179 1948.33,754.905 1957.84,754.638 1967.15,754.39 1976.27,754.154 1985.2,753.932 1993.95,753.723 2002.54,753.527 2010.96,753.343 2019.23,753.169 2027.34,753.006 2035.31,752.853 2043.13,752.709 2050.82,752.574 2058.38,752.448 2065.81,752.329 2073.12,752.218 2080.31,752.114 2087.38,752.016 2094.35,751.925 2101.2,751.84 2107.95,751.761 2114.6,751.687 2121.15,751.619 2127.61,751.556 2133.97,751.498 2140.24,751.446 2146.42,751.392 2152.52,751.364 2158.54,751.322 2164.47,751.283 2170.33,751.247 2176.11,751.215 2181.81,751.185 2187.45,751.159 2193.01,751.135 2198.5,751.114 2203.93,751.095 2209.29,751.079 2214.58,751.065 2219.81,751.054 2224.99,751.044 2230.1,751.037 2235.15,751.031 2240.15,751.027 2245.09,751.025 2249.97,751.024 2254.8,751.025 2259.58,751.027 2264.31,751.031 2268.99,751.036 2273.62,751.042 2278.2,751.05 2282.74,751.059 2287.23,751.069 2291.67,751.081 "/>
<polyline clip-path="url(#clip752)" style="stroke:#ed5d92; stroke-linecap:round; stroke-linejoin:round; stroke-width:4; stroke-opacity:1; fill:none" points="255.507,913.113 561.98,917.877 741.256,916.403 868.453,913.595 967.116,910.458 1047.73,907.195 1115.89,904.031 1174.93,900.963 1227,898.01 1273.59,895.172 1315.73,892.454 1354.2,889.849 1389.59,887.353 1422.36,884.96 1452.86,882.664 1481.4,880.456 1508.2,878.33 1533.48,876.29 1557.38,874.329 1580.06,872.439 1601.63,870.615 1622.2,868.852 1641.86,867.149 1660.68,865.504 1678.72,863.914 1696.07,862.376 1712.75,860.886 1728.83,859.443 1744.35,858.044 1759.34,856.688 1773.84,855.372 1787.87,854.095 1801.48,852.854 1814.68,851.65 1827.49,850.479 1839.95,849.341 1852.06,848.232 1863.86,847.161 1875.34,846.106 1886.54,845.092 1897.45,844.089 1908.11,843.115 1918.51,842.168 1928.68,841.247 1938.61,840.352 1948.33,839.473 1957.84,838.622 1967.15,837.757 1976.27,836.938 1985.2,836.138 1993.95,835.353 2002.54,834.587 2010.96,833.836 2019.23,833.102 2027.34,832.384 2035.31,831.681 2043.13,830.992 2050.82,830.317 2058.38,829.655 2065.81,829.007 2073.12,828.371 2080.31,827.749 2087.38,827.139 2094.35,826.541 2101.2,825.953 2107.95,825.377 2114.6,824.811 2121.15,824.255 2127.61,823.708 2133.97,823.171 2140.24,822.642 2146.42,822.13 2152.52,821.597 2158.54,821.099 2164.47,820.609 2170.33,820.127 2176.11,819.654 2181.81,819.188 2187.45,818.73 2193.01,818.28 2198.5,817.837 2203.93,817.402 2209.29,816.973 2214.58,816.552 2219.81,816.137 2224.99,815.728 2230.1,815.326 2235.15,814.93 2240.15,814.54 2245.09,814.156 2249.97,813.777 2254.8,813.405 2259.58,813.038 2264.31,812.676 2268.99,812.32 2273.62,811.969 2278.2,811.623 2282.74,811.281 2287.23,810.944 2291.67,810.611 "/>
<polyline clip-path="url(#clip752)" style="stroke:#c68125; stroke-linecap:round; stroke-linejoin:round; stroke-width:4; stroke-opacity:1; fill:none" points="255.507,670.215 561.98,667.334 741.256,665.454 868.453,664.48 967.116,664.035 1047.73,663.99 1115.89,664.16 1174.93,664.507 1227,664.98 1273.59,665.551 1315.73,666.194 1354.2,666.891 1389.59,667.632 1422.36,668.403 1452.86,669.199 1481.4,670.016 1508.2,670.851 1533.48,671.687 1557.38,672.526 1580.06,673.369 1601.63,674.212 1622.2,675.059 1641.86,675.902 1660.68,676.74 1678.72,677.571 1696.07,678.395 1712.75,679.211 1728.83,680.019 1744.35,680.818 1759.34,681.607 1773.84,682.387 1787.87,683.156 1801.48,683.916 1814.68,684.661 1827.49,685.397 1839.95,686.123 1852.06,686.838 1863.86,687.515 1875.34,688.219 1886.54,688.883 1897.45,689.568 1908.11,690.239 1918.51,690.896 1928.68,691.54 1938.61,692.169 1948.33,692.795 1957.84,693.401 1967.15,694.027 1976.27,694.62 1985.2,695.204 1993.95,695.78 2002.54,696.348 2010.96,696.906 2019.23,697.456 2027.34,697.998 2035.31,698.531 2043.13,699.056 2050.82,699.575 2058.38,700.085 2065.81,700.589 2073.12,701.084 2080.31,701.571 2087.38,702.051 2094.35,702.525 2101.2,702.991 2107.95,703.451 2114.6,703.905 2121.15,704.353 2127.61,704.795 2133.97,705.232 2140.24,705.665 2146.42,706.082 2152.52,706.53 2158.54,706.94 2164.47,707.346 2170.33,707.745 2176.11,708.139 2181.81,708.528 2187.45,708.912 2193.01,709.29 2198.5,709.663 2203.93,710.031 2209.29,710.395 2214.58,710.753 2219.81,711.107 2224.99,711.456 2230.1,711.801 2235.15,712.142 2240.15,712.478 2245.09,712.809 2249.97,713.137 2254.8,713.46 2259.58,713.779 2264.31,714.095 2268.99,714.406 2273.62,714.713 2278.2,715.017 2282.74,715.317 2287.23,715.615 2291.67,715.909 "/>
<polyline clip-path="url(#clip752)" style="stroke:#00a98d; stroke-linecap:round; stroke-linejoin:round; stroke-width:4; stroke-opacity:1; fill:none" points="255.507,389.522 561.98,422.696 741.256,444.527 868.453,461.831 967.116,476.332 1047.73,489.001 1115.89,500.093 1174.93,510.004 1227,518.947 1273.59,527.086 1315.73,534.54 1354.2,541.406 1389.59,547.763 1422.36,553.673 1452.86,559.19 1481.4,564.36 1508.2,569.222 1533.48,573.796 1557.38,578.114 1580.06,582.202 1601.63,586.081 1622.2,589.772 1641.86,593.286 1660.68,596.637 1678.72,599.837 1696.07,602.898 1712.75,605.83 1728.83,608.641 1744.35,611.34 1759.34,613.933 1773.84,616.428 1787.87,618.831 1801.48,621.147 1814.68,623.379 1827.49,625.535 1839.95,627.619 1852.06,629.633 1863.86,631.582 1875.34,633.472 1886.54,635.29 1897.45,637.066 1908.11,638.785 1918.51,640.45 1928.68,642.063 1938.61,643.627 1948.33,645.154 1957.84,646.63 1967.15,648.12 1976.27,649.528 1985.2,650.899 1993.95,652.237 2002.54,653.542 2010.96,654.814 2019.23,656.054 2027.34,657.265 2035.31,658.446 2043.13,659.6 2050.82,660.728 2058.38,661.831 2065.81,662.909 2073.12,663.962 2080.31,664.991 2087.38,665.998 2094.35,666.984 2101.2,667.949 2107.95,668.895 2114.6,669.821 2121.15,670.729 2127.61,671.619 2133.97,672.492 2140.24,673.351 2146.42,674.182 2152.52,675.037 2158.54,675.842 2164.47,676.633 2170.33,677.408 2176.11,678.169 2181.81,678.916 2187.45,679.65 2193.01,680.37 2198.5,681.078 2203.93,681.773 2209.29,682.456 2214.58,683.127 2219.81,683.787 2224.99,684.436 2230.1,685.074 2235.15,685.701 2240.15,686.318 2245.09,686.925 2249.97,687.522 2254.8,688.11 2259.58,688.688 2264.31,689.257 2268.99,689.817 2273.62,690.369 2278.2,690.912 2282.74,691.447 2287.23,691.975 2291.67,692.495 "/>
<polyline clip-path="url(#clip752)" style="stroke:#8e971d; stroke-linecap:round; stroke-linejoin:round; stroke-width:4; stroke-opacity:1; fill:none" points="255.507,695.533 561.98,687.896 741.256,682.428 868.453,678.567 967.116,675.83 1047.73,673.97 1115.89,672.716 1174.93,671.936 1227,671.522 1273.59,671.391 1315.73,671.479 1354.2,671.738 1389.59,672.133 1422.36,672.632 1452.86,673.215 1481.4,673.867 1508.2,674.575 1533.48,675.316 1557.38,676.085 1580.06,676.877 1601.63,677.685 1622.2,678.51 1641.86,679.342 1660.68,680.176 1678.72,681.01 1696.07,681.842 1712.75,682.67 1728.83,683.493 1744.35,684.309 1759.34,685.117 1773.84,685.916 1787.87,686.706 1801.48,687.486 1814.68,688.252 1827.49,689.009 1839.95,689.756 1852.06,690.491 1863.86,691.196 1875.34,691.916 1886.54,692.602 1897.45,693.301 1908.11,693.985 1918.51,694.655 1928.68,695.31 1938.61,695.952 1948.33,696.59 1957.84,697.207 1967.15,697.845 1976.27,698.447 1985.2,699.04 1993.95,699.624 2002.54,700.199 2010.96,700.763 2019.23,701.319 2027.34,701.865 2035.31,702.403 2043.13,702.932 2050.82,703.453 2058.38,703.965 2065.81,704.47 2073.12,704.966 2080.31,705.453 2087.38,705.933 2094.35,706.406 2101.2,706.871 2107.95,707.329 2114.6,707.781 2121.15,708.226 2127.61,708.664 2133.97,709.097 2140.24,709.525 2146.42,709.938 2152.52,710.376 2158.54,710.782 2164.47,711.182 2170.33,711.576 2176.11,711.964 2181.81,712.346 2187.45,712.723 2193.01,713.094 2198.5,713.46 2203.93,713.821 2209.29,714.177 2214.58,714.528 2219.81,714.874 2224.99,715.215 2230.1,715.551 2235.15,715.883 2240.15,716.211 2245.09,716.534 2249.97,716.852 2254.8,717.166 2259.58,717.476 2264.31,717.782 2268.99,718.084 2273.62,718.382 2278.2,718.677 2282.74,718.967 2287.23,719.255 2291.67,719.539 "/>
<path clip-path="url(#clip750)" d="M1970.09 1379.86 L2280.81 1379.86 L2280.81 809.616 L1970.09 809.616  Z" fill="#ffffff" fill-rule="evenodd" fill-opacity="1"/>
<polyline clip-path="url(#clip750)" style="stroke:#000000; stroke-linecap:round; stroke-linejoin:round; stroke-width:4; stroke-opacity:1; fill:none" points="1970.09,1379.86 2280.81,1379.86 2280.81,809.616 1970.09,809.616 1970.09,1379.86 "/>
<polyline clip-path="url(#clip750)" style="stroke:#009af9; stroke-linecap:round; stroke-linejoin:round; stroke-width:4; stroke-opacity:1; fill:none" points="1994.08,861.456 2137.96,861.456 "/>
<path clip-path="url(#clip750)" d="M2177.78 848.783 L2171.44 865.982 L2184.15 865.982 L2177.78 848.783 M2175.14 844.176 L2180.44 844.176 L2193.61 878.736 L2188.75 878.736 L2185.6 869.871 L2170.02 869.871 L2166.88 878.736 L2161.95 878.736 L2175.14 844.176 Z" fill="#000000" fill-rule="nonzero" fill-opacity="1" /><path clip-path="url(#clip750)" d="M2221.39 873.806 L2221.39 864.523 L2213.75 864.523 L2213.75 860.681 L2226.02 860.681 L2226.02 875.519 Q2223.31 877.44 2220.05 878.435 Q2216.78 879.408 2213.08 879.408 Q2204.98 879.408 2200.4 874.685 Q2195.83 869.94 2195.83 861.491 Q2195.83 853.019 2200.4 848.297 Q2204.98 843.551 2213.08 843.551 Q2216.46 843.551 2219.49 844.385 Q2222.55 845.218 2225.12 846.838 L2225.12 851.815 Q2222.52 849.616 2219.61 848.505 Q2216.69 847.394 2213.47 847.394 Q2207.13 847.394 2203.94 850.935 Q2200.77 854.477 2200.77 861.491 Q2200.77 868.482 2203.94 872.023 Q2207.13 875.565 2213.47 875.565 Q2215.95 875.565 2217.89 875.148 Q2219.84 874.708 2221.39 873.806 Z" fill="#000000" fill-rule="nonzero" fill-opacity="1" /><path clip-path="url(#clip750)" d="M2234.56 844.176 L2256.41 844.176 L2256.41 848.111 L2239.24 848.111 L2239.24 858.343 L2255.7 858.343 L2255.7 862.278 L2239.24 862.278 L2239.24 874.801 L2256.83 874.801 L2256.83 878.736 L2234.56 878.736 L2234.56 844.176 Z" fill="#000000" fill-rule="nonzero" fill-opacity="1" /><polyline clip-path="url(#clip750)" style="stroke:#e26f46; stroke-linecap:round; stroke-linejoin:round; stroke-width:4; stroke-opacity:1; fill:none" points="1994.08,913.296 2137.96,913.296 "/>
<path clip-path="url(#clip750)" d="M2184.19 897.151 L2184.19 901.711 Q2181.53 900.438 2179.17 899.813 Q2176.81 899.188 2174.61 899.188 Q2170.79 899.188 2168.71 900.669 Q2166.65 902.15 2166.65 904.882 Q2166.65 907.174 2168.01 908.354 Q2169.4 909.512 2173.24 910.229 L2176.07 910.808 Q2181.3 911.803 2183.77 914.326 Q2186.27 916.826 2186.27 921.039 Q2186.27 926.062 2182.9 928.655 Q2179.54 931.248 2173.03 931.248 Q2170.58 931.248 2167.8 930.692 Q2165.05 930.136 2162.09 929.048 L2162.09 924.234 Q2164.93 925.831 2167.66 926.641 Q2170.4 927.451 2173.03 927.451 Q2177.04 927.451 2179.21 925.877 Q2181.39 924.303 2181.39 921.386 Q2181.39 918.84 2179.82 917.405 Q2178.27 915.97 2174.7 915.252 L2171.85 914.697 Q2166.62 913.655 2164.28 911.433 Q2161.95 909.211 2161.95 905.252 Q2161.95 900.669 2165.16 898.03 Q2168.4 895.391 2174.08 895.391 Q2176.51 895.391 2179.03 895.831 Q2181.55 896.271 2184.19 897.151 Z" fill="#000000" fill-rule="nonzero" fill-opacity="1" /><path clip-path="url(#clip750)" d="M2193.57 896.016 L2215.42 896.016 L2215.42 899.951 L2198.24 899.951 L2198.24 910.183 L2214.7 910.183 L2214.7 914.118 L2198.24 914.118 L2198.24 926.641 L2215.83 926.641 L2215.83 930.576 L2193.57 930.576 L2193.57 896.016 Z" fill="#000000" fill-rule="nonzero" fill-opacity="1" /><path clip-path="url(#clip750)" d="M2221.85 896.016 L2226.88 896.016 L2235.46 908.863 L2244.1 896.016 L2249.12 896.016 L2238.01 912.613 L2249.86 930.576 L2244.84 930.576 L2235.12 915.877 L2225.33 930.576 L2220.28 930.576 L2232.62 912.127 L2221.85 896.016 Z" fill="#000000" fill-rule="nonzero" fill-opacity="1" /><polyline clip-path="url(#clip750)" style="stroke:#3da44d; stroke-linecap:round; stroke-linejoin:round; stroke-width:4; stroke-opacity:1; fill:none" points="1994.08,965.136 2137.96,965.136 "/>
<path clip-path="url(#clip750)" d="M2166.62 965.912 L2166.62 978.574 L2174.12 978.574 Q2177.9 978.574 2179.7 977.023 Q2181.53 975.449 2181.53 972.231 Q2181.53 968.99 2179.7 967.463 Q2177.9 965.912 2174.12 965.912 L2166.62 965.912 M2166.62 951.699 L2166.62 962.115 L2173.54 962.115 Q2176.97 962.115 2178.64 960.842 Q2180.33 959.546 2180.33 956.907 Q2180.33 954.291 2178.64 952.995 Q2176.97 951.699 2173.54 951.699 L2166.62 951.699 M2161.95 947.856 L2173.89 947.856 Q2179.24 947.856 2182.13 950.078 Q2185.02 952.301 2185.02 956.398 Q2185.02 959.569 2183.54 961.444 Q2182.06 963.319 2179.19 963.782 Q2182.64 964.523 2184.54 966.884 Q2186.46 969.222 2186.46 972.74 Q2186.46 977.37 2183.31 979.893 Q2180.16 982.416 2174.35 982.416 L2161.95 982.416 L2161.95 947.856 Z" fill="#000000" fill-rule="nonzero" fill-opacity="1" /><path clip-path="url(#clip750)" d="M2194.47 947.856 L2201.44 947.856 L2210.26 971.375 L2219.12 947.856 L2226.09 947.856 L2226.09 982.416 L2221.53 982.416 L2221.53 952.069 L2212.62 975.773 L2207.92 975.773 L2199.01 952.069 L2199.01 982.416 L2194.47 982.416 L2194.47 947.856 Z" fill="#000000" fill-rule="nonzero" fill-opacity="1" /><path clip-path="url(#clip750)" d="M2235.37 947.856 L2240.05 947.856 L2240.05 982.416 L2235.37 982.416 L2235.37 947.856 Z" fill="#000000" fill-rule="nonzero" fill-opacity="1" /><polyline clip-path="url(#clip750)" style="stroke:#c271d2; stroke-linecap:round; stroke-linejoin:round; stroke-width:4; stroke-opacity:1; fill:none" points="1994.08,1016.98 2137.96,1016.98 "/>
<path clip-path="url(#clip750)" d="M2166.62 1017.75 L2166.62 1030.41 L2174.12 1030.41 Q2177.9 1030.41 2179.7 1028.86 Q2181.53 1027.29 2181.53 1024.07 Q2181.53 1020.83 2179.7 1019.3 Q2177.9 1017.75 2174.12 1017.75 L2166.62 1017.75 M2166.62 1003.54 L2166.62 1013.96 L2173.54 1013.96 Q2176.97 1013.96 2178.64 1012.68 Q2180.33 1011.39 2180.33 1008.75 Q2180.33 1006.13 2178.64 1004.84 Q2176.97 1003.54 2173.54 1003.54 L2166.62 1003.54 M2161.95 999.696 L2173.89 999.696 Q2179.24 999.696 2182.13 1001.92 Q2185.02 1004.14 2185.02 1008.24 Q2185.02 1011.41 2183.54 1013.28 Q2182.06 1015.16 2179.19 1015.62 Q2182.64 1016.36 2184.54 1018.72 Q2186.46 1021.06 2186.46 1024.58 Q2186.46 1029.21 2183.31 1031.73 Q2180.16 1034.26 2174.35 1034.26 L2161.95 1034.26 L2161.95 999.696 Z" fill="#000000" fill-rule="nonzero" fill-opacity="1" /><path clip-path="url(#clip750)" d="M2199.15 1003.54 L2199.15 1016.52 L2205.02 1016.52 Q2208.29 1016.52 2210.07 1014.84 Q2211.85 1013.15 2211.85 1010.02 Q2211.85 1006.92 2210.07 1005.23 Q2208.29 1003.54 2205.02 1003.54 L2199.15 1003.54 M2194.47 999.696 L2205.02 999.696 Q2210.83 999.696 2213.8 1002.34 Q2216.78 1004.95 2216.78 1010.02 Q2216.78 1015.14 2213.8 1017.75 Q2210.83 1020.37 2205.02 1020.37 L2199.15 1020.37 L2199.15 1034.26 L2194.47 1034.26 L2194.47 999.696 Z" fill="#000000" fill-rule="nonzero" fill-opacity="1" /><polyline clip-path="url(#clip750)" style="stroke:#ac8d18; stroke-linecap:round; stroke-linejoin:round; stroke-width:4; stroke-opacity:1; fill:none" points="1994.08,1068.82 2137.96,1068.82 "/>
<path clip-path="url(#clip750)" d="M2184.19 1052.67 L2184.19 1057.23 Q2181.53 1055.96 2179.17 1055.33 Q2176.81 1054.71 2174.61 1054.71 Q2170.79 1054.71 2168.71 1056.19 Q2166.65 1057.67 2166.65 1060.4 Q2166.65 1062.69 2168.01 1063.87 Q2169.4 1065.03 2173.24 1065.75 L2176.07 1066.33 Q2181.3 1067.32 2183.77 1069.85 Q2186.27 1072.35 2186.27 1076.56 Q2186.27 1081.58 2182.9 1084.17 Q2179.54 1086.77 2173.03 1086.77 Q2170.58 1086.77 2167.8 1086.21 Q2165.05 1085.66 2162.09 1084.57 L2162.09 1079.75 Q2164.93 1081.35 2167.66 1082.16 Q2170.4 1082.97 2173.03 1082.97 Q2177.04 1082.97 2179.21 1081.4 Q2181.39 1079.82 2181.39 1076.91 Q2181.39 1074.36 2179.82 1072.93 Q2178.27 1071.49 2174.7 1070.77 L2171.85 1070.22 Q2166.62 1069.18 2164.28 1066.95 Q2161.95 1064.73 2161.95 1060.77 Q2161.95 1056.19 2165.16 1053.55 Q2168.4 1050.91 2174.08 1050.91 Q2176.51 1050.91 2179.03 1051.35 Q2181.55 1051.79 2184.19 1052.67 Z" fill="#000000" fill-rule="nonzero" fill-opacity="1" /><path clip-path="url(#clip750)" d="M2194.79 1082.16 L2202.43 1082.16 L2202.43 1055.8 L2194.12 1057.46 L2194.12 1053.2 L2202.39 1051.54 L2207.06 1051.54 L2207.06 1082.16 L2214.7 1082.16 L2214.7 1086.1 L2194.79 1086.1 L2194.79 1082.16 Z" fill="#000000" fill-rule="nonzero" fill-opacity="1" /><polyline clip-path="url(#clip750)" style="stroke:#00a9ad; stroke-linecap:round; stroke-linejoin:round; stroke-width:4; stroke-opacity:1; fill:none" points="1994.08,1120.66 2137.96,1120.66 "/>
<path clip-path="url(#clip750)" d="M2184.19 1104.51 L2184.19 1109.07 Q2181.53 1107.8 2179.17 1107.17 Q2176.81 1106.55 2174.61 1106.55 Q2170.79 1106.55 2168.71 1108.03 Q2166.65 1109.51 2166.65 1112.24 Q2166.65 1114.53 2168.01 1115.71 Q2169.4 1116.87 2173.24 1117.59 L2176.07 1118.17 Q2181.3 1119.16 2183.77 1121.69 Q2186.27 1124.19 2186.27 1128.4 Q2186.27 1133.42 2182.9 1136.01 Q2179.54 1138.61 2173.03 1138.61 Q2170.58 1138.61 2167.8 1138.05 Q2165.05 1137.5 2162.09 1136.41 L2162.09 1131.59 Q2164.93 1133.19 2167.66 1134 Q2170.4 1134.81 2173.03 1134.81 Q2177.04 1134.81 2179.21 1133.24 Q2181.39 1131.66 2181.39 1128.75 Q2181.39 1126.2 2179.82 1124.77 Q2178.27 1123.33 2174.7 1122.61 L2171.85 1122.06 Q2166.62 1121.02 2164.28 1118.79 Q2161.95 1116.57 2161.95 1112.61 Q2161.95 1108.03 2165.16 1105.39 Q2168.4 1102.75 2174.08 1102.75 Q2176.51 1102.75 2179.03 1103.19 Q2181.55 1103.63 2184.19 1104.51 Z" fill="#000000" fill-rule="nonzero" fill-opacity="1" /><path clip-path="url(#clip750)" d="M2198.01 1134 L2214.33 1134 L2214.33 1137.94 L2192.39 1137.94 L2192.39 1134 Q2195.05 1131.25 2199.63 1126.62 Q2204.24 1121.96 2205.42 1120.62 Q2207.66 1118.1 2208.54 1116.36 Q2209.45 1114.6 2209.45 1112.91 Q2209.45 1110.16 2207.5 1108.42 Q2205.58 1106.69 2202.48 1106.69 Q2200.28 1106.69 2197.83 1107.45 Q2195.4 1108.21 2192.62 1109.77 L2192.62 1105.04 Q2195.44 1103.91 2197.9 1103.33 Q2200.35 1102.75 2202.39 1102.75 Q2207.76 1102.75 2210.95 1105.44 Q2214.15 1108.12 2214.15 1112.61 Q2214.15 1114.74 2213.33 1116.66 Q2212.55 1118.56 2210.44 1121.15 Q2209.86 1121.83 2206.76 1125.04 Q2203.66 1128.24 2198.01 1134 Z" fill="#000000" fill-rule="nonzero" fill-opacity="1" /><polyline clip-path="url(#clip750)" style="stroke:#ed5d92; stroke-linecap:round; stroke-linejoin:round; stroke-width:4; stroke-opacity:1; fill:none" points="1994.08,1172.5 2137.96,1172.5 "/>
<path clip-path="url(#clip750)" d="M2184.19 1156.35 L2184.19 1160.91 Q2181.53 1159.64 2179.17 1159.01 Q2176.81 1158.39 2174.61 1158.39 Q2170.79 1158.39 2168.71 1159.87 Q2166.65 1161.35 2166.65 1164.08 Q2166.65 1166.37 2168.01 1167.55 Q2169.4 1168.71 2173.24 1169.43 L2176.07 1170.01 Q2181.3 1171 2183.77 1173.53 Q2186.27 1176.03 2186.27 1180.24 Q2186.27 1185.26 2182.9 1187.85 Q2179.54 1190.45 2173.03 1190.45 Q2170.58 1190.45 2167.8 1189.89 Q2165.05 1189.34 2162.09 1188.25 L2162.09 1183.43 Q2164.93 1185.03 2167.66 1185.84 Q2170.4 1186.65 2173.03 1186.65 Q2177.04 1186.65 2179.21 1185.08 Q2181.39 1183.5 2181.39 1180.59 Q2181.39 1178.04 2179.82 1176.61 Q2178.27 1175.17 2174.7 1174.45 L2171.85 1173.9 Q2166.62 1172.86 2164.28 1170.63 Q2161.95 1168.41 2161.95 1164.45 Q2161.95 1159.87 2165.16 1157.23 Q2168.4 1154.59 2174.08 1154.59 Q2176.51 1154.59 2179.03 1155.03 Q2181.55 1155.47 2184.19 1156.35 Z" fill="#000000" fill-rule="nonzero" fill-opacity="1" /><path clip-path="url(#clip750)" d="M2208.15 1171.14 Q2211.51 1171.86 2213.38 1174.13 Q2215.28 1176.4 2215.28 1179.73 Q2215.28 1184.85 2211.76 1187.65 Q2208.24 1190.45 2201.76 1190.45 Q2199.58 1190.45 2197.27 1190.01 Q2194.98 1189.59 2192.52 1188.73 L2192.52 1184.22 Q2194.47 1185.35 2196.78 1185.93 Q2199.1 1186.51 2201.62 1186.51 Q2206.02 1186.51 2208.31 1184.78 Q2210.63 1183.04 2210.63 1179.73 Q2210.63 1176.67 2208.47 1174.96 Q2206.34 1173.23 2202.52 1173.23 L2198.5 1173.23 L2198.5 1169.38 L2202.71 1169.38 Q2206.16 1169.38 2207.99 1168.02 Q2209.82 1166.63 2209.82 1164.04 Q2209.82 1161.37 2207.92 1159.96 Q2206.04 1158.53 2202.52 1158.53 Q2200.6 1158.53 2198.4 1158.94 Q2196.21 1159.36 2193.57 1160.24 L2193.57 1156.07 Q2196.23 1155.33 2198.54 1154.96 Q2200.88 1154.59 2202.94 1154.59 Q2208.27 1154.59 2211.37 1157.02 Q2214.47 1159.43 2214.47 1163.55 Q2214.47 1166.42 2212.83 1168.41 Q2211.18 1170.38 2208.15 1171.14 Z" fill="#000000" fill-rule="nonzero" fill-opacity="1" /><polyline clip-path="url(#clip750)" style="stroke:#c68125; stroke-linecap:round; stroke-linejoin:round; stroke-width:4; stroke-opacity:1; fill:none" points="1994.08,1224.34 2137.96,1224.34 "/>
<path clip-path="url(#clip750)" d="M2184.19 1208.19 L2184.19 1212.75 Q2181.53 1211.48 2179.17 1210.85 Q2176.81 1210.23 2174.61 1210.23 Q2170.79 1210.23 2168.71 1211.71 Q2166.65 1213.19 2166.65 1215.92 Q2166.65 1218.21 2168.01 1219.39 Q2169.4 1220.55 2173.24 1221.27 L2176.07 1221.85 Q2181.3 1222.84 2183.77 1225.37 Q2186.27 1227.87 2186.27 1232.08 Q2186.27 1237.1 2182.9 1239.69 Q2179.54 1242.29 2173.03 1242.29 Q2170.58 1242.29 2167.8 1241.73 Q2165.05 1241.18 2162.09 1240.09 L2162.09 1235.27 Q2164.93 1236.87 2167.66 1237.68 Q2170.4 1238.49 2173.03 1238.49 Q2177.04 1238.49 2179.21 1236.92 Q2181.39 1235.34 2181.39 1232.43 Q2181.39 1229.88 2179.82 1228.45 Q2178.27 1227.01 2174.7 1226.29 L2171.85 1225.74 Q2166.62 1224.7 2164.28 1222.47 Q2161.95 1220.25 2161.95 1216.29 Q2161.95 1211.71 2165.16 1209.07 Q2168.4 1206.43 2174.08 1206.43 Q2176.51 1206.43 2179.03 1206.87 Q2181.55 1207.31 2184.19 1208.19 Z" fill="#000000" fill-rule="nonzero" fill-opacity="1" /><path clip-path="url(#clip750)" d="M2206.83 1211.13 L2195.02 1229.58 L2206.83 1229.58 L2206.83 1211.13 M2205.6 1207.06 L2211.48 1207.06 L2211.48 1229.58 L2216.41 1229.58 L2216.41 1233.47 L2211.48 1233.47 L2211.48 1241.62 L2206.83 1241.62 L2206.83 1233.47 L2191.23 1233.47 L2191.23 1228.95 L2205.6 1207.06 Z" fill="#000000" fill-rule="nonzero" fill-opacity="1" /><polyline clip-path="url(#clip750)" style="stroke:#00a98d; stroke-linecap:round; stroke-linejoin:round; stroke-width:4; stroke-opacity:1; fill:none" points="1994.08,1276.18 2137.96,1276.18 "/>
<path clip-path="url(#clip750)" d="M2184.19 1260.03 L2184.19 1264.59 Q2181.53 1263.32 2179.17 1262.69 Q2176.81 1262.07 2174.61 1262.07 Q2170.79 1262.07 2168.71 1263.55 Q2166.65 1265.03 2166.65 1267.76 Q2166.65 1270.05 2168.01 1271.23 Q2169.4 1272.39 2173.24 1273.11 L2176.07 1273.69 Q2181.3 1274.68 2183.77 1277.21 Q2186.27 1279.71 2186.27 1283.92 Q2186.27 1288.94 2182.9 1291.53 Q2179.54 1294.13 2173.03 1294.13 Q2170.58 1294.13 2167.8 1293.57 Q2165.05 1293.02 2162.09 1291.93 L2162.09 1287.11 Q2164.93 1288.71 2167.66 1289.52 Q2170.4 1290.33 2173.03 1290.33 Q2177.04 1290.33 2179.21 1288.76 Q2181.39 1287.18 2181.39 1284.27 Q2181.39 1281.72 2179.82 1280.29 Q2178.27 1278.85 2174.7 1278.13 L2171.85 1277.58 Q2166.62 1276.54 2164.28 1274.31 Q2161.95 1272.09 2161.95 1268.13 Q2161.95 1263.55 2165.16 1260.91 Q2168.4 1258.27 2174.08 1258.27 Q2176.51 1258.27 2179.03 1258.71 Q2181.55 1259.15 2184.19 1260.03 Z" fill="#000000" fill-rule="nonzero" fill-opacity="1" /><path clip-path="url(#clip750)" d="M2194.03 1258.9 L2212.39 1258.9 L2212.39 1262.83 L2198.31 1262.83 L2198.31 1271.3 Q2199.33 1270.96 2200.35 1270.79 Q2201.37 1270.61 2202.39 1270.61 Q2208.17 1270.61 2211.55 1273.78 Q2214.93 1276.95 2214.93 1282.37 Q2214.93 1287.95 2211.46 1291.05 Q2207.99 1294.13 2201.67 1294.13 Q2199.49 1294.13 2197.22 1293.76 Q2194.98 1293.39 2192.57 1292.65 L2192.57 1287.95 Q2194.65 1289.08 2196.88 1289.64 Q2199.1 1290.19 2201.58 1290.19 Q2205.58 1290.19 2207.92 1288.09 Q2210.26 1285.98 2210.26 1282.37 Q2210.26 1278.76 2207.92 1276.65 Q2205.58 1274.54 2201.58 1274.54 Q2199.7 1274.54 2197.83 1274.96 Q2195.97 1275.38 2194.03 1276.26 L2194.03 1258.9 Z" fill="#000000" fill-rule="nonzero" fill-opacity="1" /><polyline clip-path="url(#clip750)" style="stroke:#8e971d; stroke-linecap:round; stroke-linejoin:round; stroke-width:4; stroke-opacity:1; fill:none" points="1994.08,1328.02 2137.96,1328.02 "/>
<path clip-path="url(#clip750)" d="M2184.19 1311.87 L2184.19 1316.43 Q2181.53 1315.16 2179.17 1314.53 Q2176.81 1313.91 2174.61 1313.91 Q2170.79 1313.91 2168.71 1315.39 Q2166.65 1316.87 2166.65 1319.6 Q2166.65 1321.89 2168.01 1323.07 Q2169.4 1324.23 2173.24 1324.95 L2176.07 1325.53 Q2181.3 1326.52 2183.77 1329.05 Q2186.27 1331.55 2186.27 1335.76 Q2186.27 1340.78 2182.9 1343.37 Q2179.54 1345.97 2173.03 1345.97 Q2170.58 1345.97 2167.8 1345.41 Q2165.05 1344.86 2162.09 1343.77 L2162.09 1338.95 Q2164.93 1340.55 2167.66 1341.36 Q2170.4 1342.17 2173.03 1342.17 Q2177.04 1342.17 2179.21 1340.6 Q2181.39 1339.02 2181.39 1336.11 Q2181.39 1333.56 2179.82 1332.13 Q2178.27 1330.69 2174.7 1329.97 L2171.85 1329.42 Q2166.62 1328.38 2164.28 1326.15 Q2161.95 1323.93 2161.95 1319.97 Q2161.95 1315.39 2165.16 1312.75 Q2168.4 1310.11 2174.08 1310.11 Q2176.51 1310.11 2179.03 1310.55 Q2181.55 1310.99 2184.19 1311.87 Z" fill="#000000" fill-rule="nonzero" fill-opacity="1" /><path clip-path="url(#clip750)" d="M2204.56 1326.15 Q2201.41 1326.15 2199.56 1328.31 Q2197.73 1330.46 2197.73 1334.21 Q2197.73 1337.94 2199.56 1340.11 Q2201.41 1342.26 2204.56 1342.26 Q2207.71 1342.26 2209.54 1340.11 Q2211.39 1337.94 2211.39 1334.21 Q2211.39 1330.46 2209.54 1328.31 Q2207.71 1326.15 2204.56 1326.15 M2213.84 1311.5 L2213.84 1315.76 Q2212.08 1314.93 2210.28 1314.49 Q2208.5 1314.05 2206.74 1314.05 Q2202.11 1314.05 2199.65 1317.17 Q2197.22 1320.3 2196.88 1326.62 Q2198.24 1324.6 2200.3 1323.54 Q2202.36 1322.45 2204.84 1322.45 Q2210.05 1322.45 2213.06 1325.62 Q2216.09 1328.77 2216.09 1334.21 Q2216.09 1339.53 2212.94 1342.75 Q2209.79 1345.97 2204.56 1345.97 Q2198.57 1345.97 2195.4 1341.38 Q2192.22 1336.78 2192.22 1328.05 Q2192.22 1319.86 2196.11 1315 Q2200 1310.11 2206.55 1310.11 Q2208.31 1310.11 2210.09 1310.46 Q2211.9 1310.81 2213.84 1311.5 Z" fill="#000000" fill-rule="nonzero" fill-opacity="1" /></svg>
