<?xml version="1.0" encoding="utf-8"?>
<svg xmlns="http://www.w3.org/2000/svg" xmlns:xlink="http://www.w3.org/1999/xlink" width="600" height="400" viewBox="0 0 2400 1600">
<defs>
  <clipPath id="clip180">
    <rect x="0" y="0" width="2400" height="1600"/>
  </clipPath>
</defs>
<path clip-path="url(#clip180)" d="M0 1600 L2400 1600 L2400 0 L0 0  Z" fill="#ffffff" fill-rule="evenodd" fill-opacity="1"/>
<defs>
  <clipPath id="clip181">
    <rect x="480" y="0" width="1681" height="1600"/>
  </clipPath>
</defs>
<path clip-path="url(#clip180)" d="M192.709 1423.18 L2352.76 1423.18 L2352.76 123.472 L192.709 123.472  Z" fill="#ffffff" fill-rule="evenodd" fill-opacity="1"/>
<defs>
  <clipPath id="clip182">
    <rect x="192" y="123" width="2161" height="1301"/>
  </clipPath>
</defs>
<polyline clip-path="url(#clip182)" style="stroke:#000000; stroke-linecap:round; stroke-linejoin:round; stroke-width:2; stroke-opacity:0.1; fill:none" points="583.87,1423.18 583.87,123.472 "/>
<polyline clip-path="url(#clip182)" style="stroke:#000000; stroke-linecap:round; stroke-linejoin:round; stroke-width:2; stroke-opacity:0.1; fill:none" points="1093.31,1423.18 1093.31,123.472 "/>
<polyline clip-path="url(#clip182)" style="stroke:#000000; stroke-linecap:round; stroke-linejoin:round; stroke-width:2; stroke-opacity:0.1; fill:none" points="1602.76,1423.18 1602.76,123.472 "/>
<polyline clip-path="url(#clip182)" style="stroke:#000000; stroke-linecap:round; stroke-linejoin:round; stroke-width:2; stroke-opacity:0.1; fill:none" points="2112.2,1423.18 2112.2,123.472 "/>
<polyline clip-path="url(#clip180)" style="stroke:#000000; stroke-linecap:round; stroke-linejoin:round; stroke-width:4; stroke-opacity:1; fill:none" points="192.709,1423.18 2352.76,1423.18 "/>
<polyline clip-path="url(#clip180)" style="stroke:#000000; stroke-linecap:round; stroke-linejoin:round; stroke-width:4; stroke-opacity:1; fill:none" points="583.87,1423.18 583.87,1404.28 "/>
<polyline clip-path="url(#clip180)" style="stroke:#000000; stroke-linecap:round; stroke-linejoin:round; stroke-width:4; stroke-opacity:1; fill:none" points="1093.31,1423.18 1093.31,1404.28 "/>
<polyline clip-path="url(#clip180)" style="stroke:#000000; stroke-linecap:round; stroke-linejoin:round; stroke-width:4; stroke-opacity:1; fill:none" points="1602.76,1423.18 1602.76,1404.28 "/>
<polyline clip-path="url(#clip180)" style="stroke:#000000; stroke-linecap:round; stroke-linejoin:round; stroke-width:4; stroke-opacity:1; fill:none" points="2112.2,1423.18 2112.2,1404.28 "/>
<path clip-path="url(#clip180)" d="M530.896 1468.75 L560.571 1468.75 L560.571 1472.69 L530.896 1472.69 L530.896 1468.75 Z" fill="#000000" fill-rule="nonzero" fill-opacity="1" /><path clip-path="url(#clip180)" d="M571.474 1481.64 L579.113 1481.64 L579.113 1455.28 L570.803 1456.95 L570.803 1452.69 L579.067 1451.02 L583.743 1451.02 L583.743 1481.64 L591.381 1481.64 L591.381 1485.58 L571.474 1485.58 L571.474 1481.64 Z" fill="#000000" fill-rule="nonzero" fill-opacity="1" /><path clip-path="url(#clip180)" d="M600.826 1479.7 L605.71 1479.7 L605.71 1485.58 L600.826 1485.58 L600.826 1479.7 Z" fill="#000000" fill-rule="nonzero" fill-opacity="1" /><path clip-path="url(#clip180)" d="M615.942 1451.02 L634.298 1451.02 L634.298 1454.96 L620.224 1454.96 L620.224 1463.43 Q621.242 1463.08 622.261 1462.92 Q623.279 1462.73 624.298 1462.73 Q630.085 1462.73 633.465 1465.9 Q636.844 1469.08 636.844 1474.49 Q636.844 1480.07 633.372 1483.17 Q629.9 1486.25 623.58 1486.25 Q621.404 1486.25 619.136 1485.88 Q616.891 1485.51 614.483 1484.77 L614.483 1480.07 Q616.567 1481.2 618.789 1481.76 Q621.011 1482.32 623.488 1482.32 Q627.492 1482.32 629.83 1480.21 Q632.168 1478.1 632.168 1474.49 Q632.168 1470.88 629.83 1468.77 Q627.492 1466.67 623.488 1466.67 Q621.613 1466.67 619.738 1467.08 Q617.886 1467.5 615.942 1468.38 L615.942 1451.02 Z" fill="#000000" fill-rule="nonzero" fill-opacity="1" /><path clip-path="url(#clip180)" d="M1039.84 1468.75 L1069.52 1468.75 L1069.52 1472.69 L1039.84 1472.69 L1039.84 1468.75 Z" fill="#000000" fill-rule="nonzero" fill-opacity="1" /><path clip-path="url(#clip180)" d="M1080.42 1481.64 L1088.06 1481.64 L1088.06 1455.28 L1079.75 1456.95 L1079.75 1452.69 L1088.01 1451.02 L1092.69 1451.02 L1092.69 1481.64 L1100.33 1481.64 L1100.33 1485.58 L1080.42 1485.58 L1080.42 1481.64 Z" fill="#000000" fill-rule="nonzero" fill-opacity="1" /><path clip-path="url(#clip180)" d="M1109.77 1479.7 L1114.66 1479.7 L1114.66 1485.58 L1109.77 1485.58 L1109.77 1479.7 Z" fill="#000000" fill-rule="nonzero" fill-opacity="1" /><path clip-path="url(#clip180)" d="M1134.84 1454.1 Q1131.23 1454.1 1129.4 1457.66 Q1127.6 1461.2 1127.6 1468.33 Q1127.6 1475.44 1129.4 1479.01 Q1131.23 1482.55 1134.84 1482.55 Q1138.48 1482.55 1140.28 1479.01 Q1142.11 1475.44 1142.11 1468.33 Q1142.11 1461.2 1140.28 1457.66 Q1138.48 1454.1 1134.84 1454.1 M1134.84 1450.39 Q1140.65 1450.39 1143.71 1455 Q1146.79 1459.58 1146.79 1468.33 Q1146.79 1477.06 1143.71 1481.67 Q1140.65 1486.25 1134.84 1486.25 Q1129.03 1486.25 1125.95 1481.67 Q1122.9 1477.06 1122.9 1468.33 Q1122.9 1459.58 1125.95 1455 Q1129.03 1450.39 1134.84 1450.39 Z" fill="#000000" fill-rule="nonzero" fill-opacity="1" /><path clip-path="url(#clip180)" d="M1549.79 1468.75 L1579.46 1468.75 L1579.46 1472.69 L1549.79 1472.69 L1549.79 1468.75 Z" fill="#000000" fill-rule="nonzero" fill-opacity="1" /><path clip-path="url(#clip180)" d="M1599.55 1454.1 Q1595.94 1454.1 1594.11 1457.66 Q1592.31 1461.2 1592.31 1468.33 Q1592.31 1475.44 1594.11 1479.01 Q1595.94 1482.55 1599.55 1482.55 Q1603.19 1482.55 1604.99 1479.01 Q1606.82 1475.44 1606.82 1468.33 Q1606.82 1461.2 1604.99 1457.66 Q1603.19 1454.1 1599.55 1454.1 M1599.55 1450.39 Q1605.36 1450.39 1608.42 1455 Q1611.5 1459.58 1611.5 1468.33 Q1611.5 1477.06 1608.42 1481.67 Q1605.36 1486.25 1599.55 1486.25 Q1593.74 1486.25 1590.67 1481.67 Q1587.61 1477.06 1587.61 1468.33 Q1587.61 1459.58 1590.67 1455 Q1593.74 1450.39 1599.55 1450.39 Z" fill="#000000" fill-rule="nonzero" fill-opacity="1" /><path clip-path="url(#clip180)" d="M1619.72 1479.7 L1624.6 1479.7 L1624.6 1485.58 L1619.72 1485.58 L1619.72 1479.7 Z" fill="#000000" fill-rule="nonzero" fill-opacity="1" /><path clip-path="url(#clip180)" d="M1634.83 1451.02 L1653.19 1451.02 L1653.19 1454.96 L1639.11 1454.96 L1639.11 1463.43 Q1640.13 1463.08 1641.15 1462.92 Q1642.17 1462.73 1643.19 1462.73 Q1648.97 1462.73 1652.35 1465.9 Q1655.73 1469.08 1655.73 1474.49 Q1655.73 1480.07 1652.26 1483.17 Q1648.79 1486.25 1642.47 1486.25 Q1640.29 1486.25 1638.03 1485.88 Q1635.78 1485.51 1633.37 1484.77 L1633.37 1480.07 Q1635.46 1481.2 1637.68 1481.76 Q1639.9 1482.32 1642.38 1482.32 Q1646.38 1482.32 1648.72 1480.21 Q1651.06 1478.1 1651.06 1474.49 Q1651.06 1470.88 1648.72 1468.77 Q1646.38 1466.67 1642.38 1466.67 Q1640.5 1466.67 1638.63 1467.08 Q1636.78 1467.5 1634.83 1468.38 L1634.83 1451.02 Z" fill="#000000" fill-rule="nonzero" fill-opacity="1" /><path clip-path="url(#clip180)" d="M2089.59 1454.1 Q2085.98 1454.1 2084.15 1457.66 Q2082.34 1461.2 2082.34 1468.33 Q2082.34 1475.44 2084.15 1479.01 Q2085.98 1482.55 2089.59 1482.55 Q2093.22 1482.55 2095.03 1479.01 Q2096.86 1475.44 2096.86 1468.33 Q2096.86 1461.2 2095.03 1457.66 Q2093.22 1454.1 2089.59 1454.1 M2089.59 1450.39 Q2095.4 1450.39 2098.45 1455 Q2101.53 1459.58 2101.53 1468.33 Q2101.53 1477.06 2098.45 1481.67 Q2095.4 1486.25 2089.59 1486.25 Q2083.78 1486.25 2080.7 1481.67 Q2077.64 1477.06 2077.64 1468.33 Q2077.64 1459.58 2080.7 1455 Q2083.78 1450.39 2089.59 1450.39 Z" fill="#000000" fill-rule="nonzero" fill-opacity="1" /><path clip-path="url(#clip180)" d="M2109.75 1479.7 L2114.64 1479.7 L2114.64 1485.58 L2109.75 1485.58 L2109.75 1479.7 Z" fill="#000000" fill-rule="nonzero" fill-opacity="1" /><path clip-path="url(#clip180)" d="M2134.82 1454.1 Q2131.21 1454.1 2129.38 1457.66 Q2127.58 1461.2 2127.58 1468.33 Q2127.58 1475.44 2129.38 1479.01 Q2131.21 1482.55 2134.82 1482.55 Q2138.45 1482.55 2140.26 1479.01 Q2142.09 1475.44 2142.09 1468.33 Q2142.09 1461.2 2140.26 1457.66 Q2138.45 1454.1 2134.82 1454.1 M2134.82 1450.39 Q2140.63 1450.39 2143.69 1455 Q2146.76 1459.58 2146.76 1468.33 Q2146.76 1477.06 2143.69 1481.67 Q2140.63 1486.25 2134.82 1486.25 Q2129.01 1486.25 2125.93 1481.67 Q2122.88 1477.06 2122.88 1468.33 Q2122.88 1459.58 2125.93 1455 Q2129.01 1450.39 2134.82 1450.39 Z" fill="#000000" fill-rule="nonzero" fill-opacity="1" /><path clip-path="url(#clip180)" d="M1142.73 1518.52 L1148.59 1518.52 L1148.59 1568.04 L1142.73 1568.04 L1142.73 1518.52 Z" fill="#000000" fill-rule="nonzero" fill-opacity="1" /><path clip-path="url(#clip180)" d="M1174.65 1536.5 Q1169.94 1536.5 1167.21 1540.19 Q1164.47 1543.85 1164.47 1550.25 Q1164.47 1556.65 1167.17 1560.34 Q1169.91 1564 1174.65 1564 Q1179.33 1564 1182.07 1560.31 Q1184.81 1556.62 1184.81 1550.25 Q1184.81 1543.92 1182.07 1540.23 Q1179.33 1536.5 1174.65 1536.5 M1174.65 1531.54 Q1182.29 1531.54 1186.65 1536.5 Q1191.01 1541.47 1191.01 1550.25 Q1191.01 1559 1186.65 1564 Q1182.29 1568.97 1174.65 1568.97 Q1166.98 1568.97 1162.62 1564 Q1158.29 1559 1158.29 1550.25 Q1158.29 1541.47 1162.62 1536.5 Q1166.98 1531.54 1174.65 1531.54 Z" fill="#000000" fill-rule="nonzero" fill-opacity="1" /><path clip-path="url(#clip180)" d="M1224.18 1549.81 Q1224.18 1543.44 1221.54 1539.94 Q1218.93 1536.44 1214.18 1536.44 Q1209.47 1536.44 1206.83 1539.94 Q1204.22 1543.44 1204.22 1549.81 Q1204.22 1556.14 1206.83 1559.64 Q1209.47 1563.14 1214.18 1563.14 Q1218.93 1563.14 1221.54 1559.64 Q1224.18 1556.14 1224.18 1549.81 M1230.03 1563.62 Q1230.03 1572.72 1225.99 1577.15 Q1221.95 1581.6 1213.61 1581.6 Q1210.52 1581.6 1207.79 1581.13 Q1205.05 1580.68 1202.47 1579.72 L1202.47 1574.03 Q1205.05 1575.43 1207.56 1576.1 Q1210.08 1576.76 1212.69 1576.76 Q1218.45 1576.76 1221.31 1573.74 Q1224.18 1570.75 1224.18 1564.67 L1224.18 1561.77 Q1222.36 1564.92 1219.53 1566.48 Q1216.7 1568.04 1212.75 1568.04 Q1206.19 1568.04 1202.18 1563.05 Q1198.17 1558.05 1198.17 1549.81 Q1198.17 1541.53 1202.18 1536.53 Q1206.19 1531.54 1212.75 1531.54 Q1216.7 1531.54 1219.53 1533.1 Q1222.36 1534.66 1224.18 1537.81 L1224.18 1532.4 L1230.03 1532.4 L1230.03 1563.62 Z" fill="#000000" fill-rule="nonzero" fill-opacity="1" /><path clip-path="url(#clip180)" d="M1244.04 1562.63 L1254.54 1562.63 L1254.54 1526.38 L1243.12 1528.67 L1243.12 1522.82 L1254.48 1520.52 L1260.91 1520.52 L1260.91 1562.63 L1271.41 1562.63 L1271.41 1568.04 L1244.04 1568.04 L1244.04 1562.63 Z" fill="#000000" fill-rule="nonzero" fill-opacity="1" /><path clip-path="url(#clip180)" d="M1298.15 1524.76 Q1293.18 1524.76 1290.67 1529.66 Q1288.19 1534.53 1288.19 1544.33 Q1288.19 1554.1 1290.67 1559 Q1293.18 1563.87 1298.15 1563.87 Q1303.14 1563.87 1305.63 1559 Q1308.14 1554.1 1308.14 1544.33 Q1308.14 1534.53 1305.63 1529.66 Q1303.14 1524.76 1298.15 1524.76 M1298.15 1519.66 Q1306.14 1519.66 1310.34 1526 Q1314.57 1532.3 1314.57 1544.33 Q1314.57 1556.33 1310.34 1562.66 Q1306.14 1568.97 1298.15 1568.97 Q1290.16 1568.97 1285.93 1562.66 Q1281.72 1556.33 1281.72 1544.33 Q1281.72 1532.3 1285.93 1526 Q1290.16 1519.66 1298.15 1519.66 Z" fill="#000000" fill-rule="nonzero" fill-opacity="1" /><path clip-path="url(#clip180)" d="M1339.11 1518.58 Q1334.85 1525.9 1332.78 1533.06 Q1330.71 1540.23 1330.71 1547.58 Q1330.71 1554.93 1332.78 1562.16 Q1334.88 1569.35 1339.11 1576.64 L1334.02 1576.64 Q1329.24 1569.16 1326.86 1561.93 Q1324.5 1554.71 1324.5 1547.58 Q1324.5 1540.48 1326.86 1533.29 Q1329.21 1526.09 1334.02 1518.58 L1339.11 1518.58 Z" fill="#000000" fill-rule="nonzero" fill-opacity="1" /><path clip-path="url(#clip180)" d="M1355.82 1538 L1363.62 1560.02 L1374.76 1532.4 L1380.97 1532.4 L1366.55 1568.04 L1366.55 1581.6 L1360.69 1581.6 L1360.69 1568.04 L1351.33 1541.44 Q1349.93 1537.42 1346.91 1537.42 L1345.35 1537.42 L1345.35 1532.4 L1347.58 1532.4 Q1353.85 1532.4 1355.82 1538 Z" fill="#000000" fill-rule="nonzero" fill-opacity="1" /><path clip-path="url(#clip180)" d="M1388.13 1518.58 L1393.22 1518.58 Q1397.99 1526.09 1400.35 1533.29 Q1402.74 1540.48 1402.74 1547.58 Q1402.74 1554.71 1400.35 1561.93 Q1397.99 1569.16 1393.22 1576.64 L1388.13 1576.64 Q1392.36 1569.35 1394.43 1562.16 Q1396.53 1554.93 1396.53 1547.58 Q1396.53 1540.23 1394.43 1533.06 Q1392.36 1525.9 1388.13 1518.58 Z" fill="#000000" fill-rule="nonzero" fill-opacity="1" /><polyline clip-path="url(#clip182)" style="stroke:#000000; stroke-linecap:round; stroke-linejoin:round; stroke-width:2; stroke-opacity:0.1; fill:none" points="192.709,1358.07 2352.76,1358.07 "/>
<polyline clip-path="url(#clip182)" style="stroke:#000000; stroke-linecap:round; stroke-linejoin:round; stroke-width:2; stroke-opacity:0.1; fill:none" points="192.709,1002.36 2352.76,1002.36 "/>
<polyline clip-path="url(#clip182)" style="stroke:#000000; stroke-linecap:round; stroke-linejoin:round; stroke-width:2; stroke-opacity:0.1; fill:none" points="192.709,646.641 2352.76,646.641 "/>
<polyline clip-path="url(#clip182)" style="stroke:#000000; stroke-linecap:round; stroke-linejoin:round; stroke-width:2; stroke-opacity:0.1; fill:none" points="192.709,290.926 2352.76,290.926 "/>
<polyline clip-path="url(#clip180)" style="stroke:#000000; stroke-linecap:round; stroke-linejoin:round; stroke-width:4; stroke-opacity:1; fill:none" points="192.709,1423.18 192.709,123.472 "/>
<polyline clip-path="url(#clip180)" style="stroke:#000000; stroke-linecap:round; stroke-linejoin:round; stroke-width:4; stroke-opacity:1; fill:none" points="192.709,1358.07 211.607,1358.07 "/>
<polyline clip-path="url(#clip180)" style="stroke:#000000; stroke-linecap:round; stroke-linejoin:round; stroke-width:4; stroke-opacity:1; fill:none" points="192.709,1002.36 211.607,1002.36 "/>
<polyline clip-path="url(#clip180)" style="stroke:#000000; stroke-linecap:round; stroke-linejoin:round; stroke-width:4; stroke-opacity:1; fill:none" points="192.709,646.641 211.607,646.641 "/>
<polyline clip-path="url(#clip180)" style="stroke:#000000; stroke-linecap:round; stroke-linejoin:round; stroke-width:4; stroke-opacity:1; fill:none" points="192.709,290.926 211.607,290.926 "/>
<path clip-path="url(#clip180)" d="M50.9921 1358.52 L80.6679 1358.52 L80.6679 1362.46 L50.9921 1362.46 L50.9921 1358.52 Z" fill="#000000" fill-rule="nonzero" fill-opacity="1" /><path clip-path="url(#clip180)" d="M100.76 1343.87 Q97.1493 1343.87 95.3206 1347.43 Q93.515 1350.98 93.515 1358.11 Q93.515 1365.21 95.3206 1368.78 Q97.1493 1372.32 100.76 1372.32 Q104.395 1372.32 106.2 1368.78 Q108.029 1365.21 108.029 1358.11 Q108.029 1350.98 106.2 1347.43 Q104.395 1343.87 100.76 1343.87 M100.76 1340.17 Q106.571 1340.17 109.626 1344.77 Q112.705 1349.36 112.705 1358.11 Q112.705 1366.83 109.626 1371.44 Q106.571 1376.02 100.76 1376.02 Q94.9502 1376.02 91.8715 1371.44 Q88.816 1366.83 88.816 1358.11 Q88.816 1349.36 91.8715 1344.77 Q94.9502 1340.17 100.76 1340.17 Z" fill="#000000" fill-rule="nonzero" fill-opacity="1" /><path clip-path="url(#clip180)" d="M120.922 1369.47 L125.807 1369.47 L125.807 1375.35 L120.922 1375.35 L120.922 1369.47 Z" fill="#000000" fill-rule="nonzero" fill-opacity="1" /><path clip-path="url(#clip180)" d="M136.802 1371.42 L144.441 1371.42 L144.441 1345.05 L136.131 1346.72 L136.131 1342.46 L144.394 1340.79 L149.07 1340.79 L149.07 1371.42 L156.709 1371.42 L156.709 1375.35 L136.802 1375.35 L136.802 1371.42 Z" fill="#000000" fill-rule="nonzero" fill-opacity="1" /><path clip-path="url(#clip180)" d="M99.5335 988.155 Q95.9224 988.155 94.0937 991.72 Q92.2882 995.261 92.2882 1002.39 Q92.2882 1009.5 94.0937 1013.06 Q95.9224 1016.6 99.5335 1016.6 Q103.168 1016.6 104.973 1013.06 Q106.802 1009.5 106.802 1002.39 Q106.802 995.261 104.973 991.72 Q103.168 988.155 99.5335 988.155 M99.5335 984.451 Q105.344 984.451 108.399 989.058 Q111.478 993.641 111.478 1002.39 Q111.478 1011.12 108.399 1015.72 Q105.344 1020.31 99.5335 1020.31 Q93.7234 1020.31 90.6447 1015.72 Q87.5892 1011.12 87.5892 1002.39 Q87.5892 993.641 90.6447 989.058 Q93.7234 984.451 99.5335 984.451 Z" fill="#000000" fill-rule="nonzero" fill-opacity="1" /><path clip-path="url(#clip180)" d="M119.695 1013.76 L124.58 1013.76 L124.58 1019.64 L119.695 1019.64 L119.695 1013.76 Z" fill="#000000" fill-rule="nonzero" fill-opacity="1" /><path clip-path="url(#clip180)" d="M144.765 988.155 Q141.154 988.155 139.325 991.72 Q137.519 995.261 137.519 1002.39 Q137.519 1009.5 139.325 1013.06 Q141.154 1016.6 144.765 1016.6 Q148.399 1016.6 150.205 1013.06 Q152.033 1009.5 152.033 1002.39 Q152.033 995.261 150.205 991.72 Q148.399 988.155 144.765 988.155 M144.765 984.451 Q150.575 984.451 153.63 989.058 Q156.709 993.641 156.709 1002.39 Q156.709 1011.12 153.63 1015.72 Q150.575 1020.31 144.765 1020.31 Q138.955 1020.31 135.876 1015.72 Q132.82 1011.12 132.82 1002.39 Q132.82 993.641 135.876 989.058 Q138.955 984.451 144.765 984.451 Z" fill="#000000" fill-rule="nonzero" fill-opacity="1" /><path clip-path="url(#clip180)" d="M100.76 632.44 Q97.1493 632.44 95.3206 636.005 Q93.515 639.546 93.515 646.676 Q93.515 653.782 95.3206 657.347 Q97.1493 660.889 100.76 660.889 Q104.395 660.889 106.2 657.347 Q108.029 653.782 108.029 646.676 Q108.029 639.546 106.2 636.005 Q104.395 632.44 100.76 632.44 M100.76 628.736 Q106.571 628.736 109.626 633.343 Q112.705 637.926 112.705 646.676 Q112.705 655.403 109.626 660.009 Q106.571 664.593 100.76 664.593 Q94.9502 664.593 91.8715 660.009 Q88.816 655.403 88.816 646.676 Q88.816 637.926 91.8715 633.343 Q94.9502 628.736 100.76 628.736 Z" fill="#000000" fill-rule="nonzero" fill-opacity="1" /><path clip-path="url(#clip180)" d="M120.922 658.042 L125.807 658.042 L125.807 663.921 L120.922 663.921 L120.922 658.042 Z" fill="#000000" fill-rule="nonzero" fill-opacity="1" /><path clip-path="url(#clip180)" d="M136.802 659.986 L144.441 659.986 L144.441 633.62 L136.131 635.287 L136.131 631.028 L144.394 629.361 L149.07 629.361 L149.07 659.986 L156.709 659.986 L156.709 663.921 L136.802 663.921 L136.802 659.986 Z" fill="#000000" fill-rule="nonzero" fill-opacity="1" /><path clip-path="url(#clip180)" d="M101.131 276.725 Q97.5197 276.725 95.691 280.29 Q93.8854 283.832 93.8854 290.961 Q93.8854 298.068 95.691 301.632 Q97.5197 305.174 101.131 305.174 Q104.765 305.174 106.571 301.632 Q108.399 298.068 108.399 290.961 Q108.399 283.832 106.571 280.29 Q104.765 276.725 101.131 276.725 M101.131 273.021 Q106.941 273.021 109.996 277.628 Q113.075 282.211 113.075 290.961 Q113.075 299.688 109.996 304.294 Q106.941 308.878 101.131 308.878 Q95.3206 308.878 92.2419 304.294 Q89.1864 299.688 89.1864 290.961 Q89.1864 282.211 92.2419 277.628 Q95.3206 273.021 101.131 273.021 Z" fill="#000000" fill-rule="nonzero" fill-opacity="1" /><path clip-path="url(#clip180)" d="M121.293 302.327 L126.177 302.327 L126.177 308.206 L121.293 308.206 L121.293 302.327 Z" fill="#000000" fill-rule="nonzero" fill-opacity="1" /><path clip-path="url(#clip180)" d="M140.39 304.271 L156.709 304.271 L156.709 308.206 L134.765 308.206 L134.765 304.271 Q137.427 301.517 142.01 296.887 Q146.617 292.234 147.797 290.892 Q150.043 288.369 150.922 286.632 Q151.825 284.873 151.825 283.183 Q151.825 280.429 149.88 278.693 Q147.959 276.957 144.857 276.957 Q142.658 276.957 140.205 277.72 Q137.774 278.484 134.996 280.035 L134.996 275.313 Q137.82 274.179 140.274 273.6 Q142.728 273.021 144.765 273.021 Q150.135 273.021 153.33 275.707 Q156.524 278.392 156.524 282.882 Q156.524 285.012 155.714 286.933 Q154.927 288.831 152.82 291.424 Q152.242 292.095 149.14 295.313 Q146.038 298.507 140.39 304.271 Z" fill="#000000" fill-rule="nonzero" fill-opacity="1" /><path clip-path="url(#clip180)" d="M576.564 12.096 L614.805 12.096 L614.805 18.9825 L584.747 18.9825 L584.747 36.8875 L613.549 36.8875 L613.549 43.7741 L584.747 43.7741 L584.747 65.6895 L615.534 65.6895 L615.534 72.576 L576.564 72.576 L576.564 12.096 Z" fill="#000000" fill-rule="nonzero" fill-opacity="1" /><path clip-path="url(#clip180)" d="M628.659 9.54393 L636.113 9.54393 L636.113 72.576 L628.659 72.576 L628.659 9.54393 Z" fill="#000000" fill-rule="nonzero" fill-opacity="1" /><path clip-path="url(#clip180)" d="M672.328 49.7694 Q663.294 49.7694 659.81 51.8354 Q656.327 53.9013 656.327 58.8839 Q656.327 62.8538 658.919 65.2034 Q661.552 67.5124 666.049 67.5124 Q672.247 67.5124 675.974 63.1374 Q679.741 58.7219 679.741 51.4303 L679.741 49.7694 L672.328 49.7694 M687.195 46.6907 L687.195 72.576 L679.741 72.576 L679.741 65.6895 Q677.189 69.8214 673.381 71.8063 Q669.573 73.7508 664.064 73.7508 Q657.096 73.7508 652.964 69.8619 Q648.873 65.9325 648.873 59.3701 Q648.873 51.7138 653.977 47.825 Q659.122 43.9361 669.29 43.9361 L679.741 43.9361 L679.741 43.2069 Q679.741 38.0623 676.338 35.2672 Q672.976 32.4315 666.859 32.4315 Q662.97 32.4315 659.284 33.3632 Q655.598 34.295 652.195 36.1584 L652.195 29.2718 Q656.286 27.692 660.135 26.9223 Q663.983 26.1121 667.629 26.1121 Q677.472 26.1121 682.333 31.2163 Q687.195 36.3204 687.195 46.6907 Z" fill="#000000" fill-rule="nonzero" fill-opacity="1" /><path clip-path="url(#clip180)" d="M731.471 28.5427 L731.471 35.5912 Q728.311 33.9709 724.908 33.1607 Q721.506 32.3505 717.86 32.3505 Q712.31 32.3505 709.515 34.0519 Q706.76 35.7533 706.76 39.156 Q706.76 41.7486 708.745 43.2475 Q710.73 44.7058 716.726 46.0426 L719.278 46.6097 Q727.218 48.3111 730.539 51.4303 Q733.902 54.509 733.902 60.0587 Q733.902 66.3781 728.878 70.0644 Q723.896 73.7508 715.146 73.7508 Q711.5 73.7508 707.53 73.0216 Q703.601 72.3329 699.226 70.9151 L699.226 63.2184 Q703.358 65.3654 707.368 66.4591 Q711.378 67.5124 715.308 67.5124 Q720.574 67.5124 723.41 65.73 Q726.245 63.9071 726.245 60.6258 Q726.245 57.5877 724.179 55.9673 Q722.154 54.3469 715.227 52.8481 L712.634 52.2405 Q705.707 50.7821 702.629 47.7845 Q699.55 44.7463 699.55 39.4801 Q699.55 33.0797 704.087 29.5959 Q708.624 26.1121 716.969 26.1121 Q721.101 26.1121 724.746 26.7198 Q728.392 27.3274 731.471 28.5427 Z" fill="#000000" fill-rule="nonzero" fill-opacity="1" /><path clip-path="url(#clip180)" d="M753.143 14.324 L753.143 27.2059 L768.496 27.2059 L768.496 32.9987 L753.143 32.9987 L753.143 57.6282 Q753.143 63.1779 754.642 64.7578 Q756.181 66.3376 760.84 66.3376 L768.496 66.3376 L768.496 72.576 L760.84 72.576 Q752.212 72.576 748.93 69.3758 Q745.649 66.1351 745.649 57.6282 L745.649 32.9987 L740.18 32.9987 L740.18 27.2059 L745.649 27.2059 L745.649 14.324 L753.143 14.324 Z" fill="#000000" fill-rule="nonzero" fill-opacity="1" /><path clip-path="url(#clip180)" d="M778.299 27.2059 L785.753 27.2059 L785.753 72.576 L778.299 72.576 L778.299 27.2059 M778.299 9.54393 L785.753 9.54393 L785.753 18.9825 L778.299 18.9825 L778.299 9.54393 Z" fill="#000000" fill-rule="nonzero" fill-opacity="1" /><path clip-path="url(#clip180)" d="M833.999 28.9478 L833.999 35.9153 Q830.84 34.1734 827.639 33.3227 Q824.48 32.4315 821.239 32.4315 Q813.988 32.4315 809.977 37.0496 Q805.967 41.6271 805.967 49.9314 Q805.967 58.2358 809.977 62.8538 Q813.988 67.4314 821.239 67.4314 Q824.48 67.4314 827.639 66.5807 Q830.84 65.6895 833.999 63.9476 L833.999 70.8341 Q830.88 72.2924 827.518 73.0216 Q824.196 73.7508 820.429 73.7508 Q810.18 73.7508 804.144 67.3098 Q798.108 60.8689 798.108 49.9314 Q798.108 38.832 804.185 32.472 Q810.302 26.1121 820.915 26.1121 Q824.358 26.1121 827.639 26.8413 Q830.921 27.5299 833.999 28.9478 Z" fill="#000000" fill-rule="nonzero" fill-opacity="1" /><path clip-path="url(#clip180)" d="M873.658 12.096 L884.676 12.096 L911.493 62.6918 L911.493 12.096 L919.433 12.096 L919.433 72.576 L908.414 72.576 L881.597 21.9802 L881.597 72.576 L873.658 72.576 L873.658 12.096 Z" fill="#000000" fill-rule="nonzero" fill-opacity="1" /><path clip-path="url(#clip180)" d="M974.201 48.0275 L974.201 51.6733 L939.93 51.6733 Q940.417 59.3701 944.549 63.421 Q948.721 67.4314 956.134 67.4314 Q960.428 67.4314 964.438 66.3781 Q968.489 65.3249 972.459 63.2184 L972.459 70.267 Q968.449 71.9684 964.236 72.8596 Q960.023 73.7508 955.689 73.7508 Q944.832 73.7508 938.472 67.4314 Q932.153 61.1119 932.153 50.3365 Q932.153 39.1965 938.148 32.6746 Q944.184 26.1121 954.392 26.1121 Q963.547 26.1121 968.854 32.0264 Q974.201 37.9003 974.201 48.0275 M966.747 45.84 Q966.666 39.7232 963.304 36.0774 Q959.982 32.4315 954.473 32.4315 Q948.235 32.4315 944.468 35.9558 Q940.741 39.4801 940.174 45.8805 L966.747 45.84 Z" fill="#000000" fill-rule="nonzero" fill-opacity="1" /><path clip-path="url(#clip180)" d="M993.808 14.324 L993.808 27.2059 L1009.16 27.2059 L1009.16 32.9987 L993.808 32.9987 L993.808 57.6282 Q993.808 63.1779 995.306 64.7578 Q996.846 66.3376 1001.5 66.3376 L1009.16 66.3376 L1009.16 72.576 L1001.5 72.576 Q992.876 72.576 989.595 69.3758 Q986.313 66.1351 986.313 57.6282 L986.313 32.9987 L980.845 32.9987 L980.845 27.2059 L986.313 27.2059 L986.313 14.324 L993.808 14.324 Z" fill="#000000" fill-rule="nonzero" fill-opacity="1" /><path clip-path="url(#clip180)" d="M1071.63 34.1734 Q1070.37 33.4443 1068.87 33.1202 Q1067.41 32.7556 1065.63 32.7556 Q1059.31 32.7556 1055.91 36.8875 Q1052.55 40.9789 1052.55 48.6757 L1052.55 72.576 L1045.05 72.576 L1045.05 27.2059 L1052.55 27.2059 L1052.55 34.2544 Q1054.9 30.1225 1058.66 28.1376 Q1062.43 26.1121 1067.82 26.1121 Q1068.59 26.1121 1069.52 26.2337 Q1070.45 26.3147 1071.58 26.5172 L1071.63 34.1734 Z" fill="#000000" fill-rule="nonzero" fill-opacity="1" /><path clip-path="url(#clip180)" d="M1116.43 48.0275 L1116.43 51.6733 L1082.16 51.6733 Q1082.64 59.3701 1086.78 63.421 Q1090.95 67.4314 1098.36 67.4314 Q1102.66 67.4314 1106.67 66.3781 Q1110.72 65.3249 1114.69 63.2184 L1114.69 70.267 Q1110.68 71.9684 1106.46 72.8596 Q1102.25 73.7508 1097.92 73.7508 Q1087.06 73.7508 1080.7 67.4314 Q1074.38 61.1119 1074.38 50.3365 Q1074.38 39.1965 1080.38 32.6746 Q1086.41 26.1121 1096.62 26.1121 Q1105.77 26.1121 1111.08 32.0264 Q1116.43 37.9003 1116.43 48.0275 M1108.97 45.84 Q1108.89 39.7232 1105.53 36.0774 Q1102.21 32.4315 1096.7 32.4315 Q1090.46 32.4315 1086.69 35.9558 Q1082.97 39.4801 1082.4 45.8805 L1108.97 45.84 Z" fill="#000000" fill-rule="nonzero" fill-opacity="1" /><path clip-path="url(#clip180)" d="M1158.52 49.3643 Q1158.52 41.2625 1155.16 36.8065 Q1151.83 32.3505 1145.8 32.3505 Q1139.8 32.3505 1136.44 36.8065 Q1133.12 41.2625 1133.12 49.3643 Q1133.12 57.4256 1136.44 61.8816 Q1139.8 66.3376 1145.8 66.3376 Q1151.83 66.3376 1155.16 61.8816 Q1158.52 57.4256 1158.52 49.3643 M1165.97 66.9452 Q1165.97 78.5308 1160.83 84.1616 Q1155.68 89.8329 1145.07 89.8329 Q1141.14 89.8329 1137.66 89.2252 Q1134.17 88.6581 1130.89 87.4428 L1130.89 80.1917 Q1134.17 81.9741 1137.37 82.8248 Q1140.57 83.6755 1143.89 83.6755 Q1151.23 83.6755 1154.87 79.8271 Q1158.52 76.0193 1158.52 68.282 L1158.52 64.5957 Q1156.21 68.6061 1152.6 70.5911 Q1149 72.576 1143.97 72.576 Q1135.63 72.576 1130.53 66.2161 Q1125.42 59.8562 1125.42 49.3643 Q1125.42 38.832 1130.53 32.472 Q1135.63 26.1121 1143.97 26.1121 Q1149 26.1121 1152.6 28.0971 Q1156.21 30.082 1158.52 34.0924 L1158.52 27.2059 L1165.97 27.2059 L1165.97 66.9452 Z" fill="#000000" fill-rule="nonzero" fill-opacity="1" /><path clip-path="url(#clip180)" d="M1207.61 34.1734 Q1206.36 33.4443 1204.86 33.1202 Q1203.4 32.7556 1201.62 32.7556 Q1195.3 32.7556 1191.9 36.8875 Q1188.53 40.9789 1188.53 48.6757 L1188.53 72.576 L1181.04 72.576 L1181.04 27.2059 L1188.53 27.2059 L1188.53 34.2544 Q1190.88 30.1225 1194.65 28.1376 Q1198.42 26.1121 1203.81 26.1121 Q1204.58 26.1121 1205.51 26.2337 Q1206.44 26.3147 1207.57 26.5172 L1207.61 34.1734 Z" fill="#000000" fill-rule="nonzero" fill-opacity="1" /><path clip-path="url(#clip180)" d="M1252.42 48.0275 L1252.42 51.6733 L1218.15 51.6733 Q1218.63 59.3701 1222.76 63.421 Q1226.94 67.4314 1234.35 67.4314 Q1238.64 67.4314 1242.65 66.3781 Q1246.71 65.3249 1250.68 63.2184 L1250.68 70.267 Q1246.66 71.9684 1242.45 72.8596 Q1238.24 73.7508 1233.9 73.7508 Q1223.05 73.7508 1216.69 67.4314 Q1210.37 61.1119 1210.37 50.3365 Q1210.37 39.1965 1216.36 32.6746 Q1222.4 26.1121 1232.61 26.1121 Q1241.76 26.1121 1247.07 32.0264 Q1252.42 37.9003 1252.42 48.0275 M1244.96 45.84 Q1244.88 39.7232 1241.52 36.0774 Q1238.2 32.4315 1232.69 32.4315 Q1226.45 32.4315 1222.68 35.9558 Q1218.96 39.4801 1218.39 45.8805 L1244.96 45.84 Z" fill="#000000" fill-rule="nonzero" fill-opacity="1" /><path clip-path="url(#clip180)" d="M1293.57 28.5427 L1293.57 35.5912 Q1290.41 33.9709 1287.01 33.1607 Q1283.61 32.3505 1279.96 32.3505 Q1274.41 32.3505 1271.62 34.0519 Q1268.86 35.7533 1268.86 39.156 Q1268.86 41.7486 1270.85 43.2475 Q1272.83 44.7058 1278.83 46.0426 L1281.38 46.6097 Q1289.32 48.3111 1292.64 51.4303 Q1296 54.509 1296 60.0587 Q1296 66.3781 1290.98 70.0644 Q1286 73.7508 1277.25 73.7508 Q1273.6 73.7508 1269.63 73.0216 Q1265.7 72.3329 1261.33 70.9151 L1261.33 63.2184 Q1265.46 65.3654 1269.47 66.4591 Q1273.48 67.5124 1277.41 67.5124 Q1282.68 67.5124 1285.51 65.73 Q1288.35 63.9071 1288.35 60.6258 Q1288.35 57.5877 1286.28 55.9673 Q1284.26 54.3469 1277.33 52.8481 L1274.74 52.2405 Q1267.81 50.7821 1264.73 47.7845 Q1261.65 44.7463 1261.65 39.4801 Q1261.65 33.0797 1266.19 29.5959 Q1270.73 26.1121 1279.07 26.1121 Q1283.2 26.1121 1286.85 26.7198 Q1290.5 27.3274 1293.57 28.5427 Z" fill="#000000" fill-rule="nonzero" fill-opacity="1" /><path clip-path="url(#clip180)" d="M1336.8 28.5427 L1336.8 35.5912 Q1333.64 33.9709 1330.24 33.1607 Q1326.83 32.3505 1323.19 32.3505 Q1317.64 32.3505 1314.84 34.0519 Q1312.09 35.7533 1312.09 39.156 Q1312.09 41.7486 1314.07 43.2475 Q1316.06 44.7058 1322.05 46.0426 L1324.6 46.6097 Q1332.54 48.3111 1335.87 51.4303 Q1339.23 54.509 1339.23 60.0587 Q1339.23 66.3781 1334.21 70.0644 Q1329.22 73.7508 1320.47 73.7508 Q1316.83 73.7508 1312.86 73.0216 Q1308.93 72.3329 1304.55 70.9151 L1304.55 63.2184 Q1308.68 65.3654 1312.69 66.4591 Q1316.71 67.5124 1320.63 67.5124 Q1325.9 67.5124 1328.74 65.73 Q1331.57 63.9071 1331.57 60.6258 Q1331.57 57.5877 1329.51 55.9673 Q1327.48 54.3469 1320.55 52.8481 L1317.96 52.2405 Q1311.03 50.7821 1307.96 47.7845 Q1304.88 44.7463 1304.88 39.4801 Q1304.88 33.0797 1309.41 29.5959 Q1313.95 26.1121 1322.3 26.1121 Q1326.43 26.1121 1330.07 26.7198 Q1333.72 27.3274 1336.8 28.5427 Z" fill="#000000" fill-rule="nonzero" fill-opacity="1" /><path clip-path="url(#clip180)" d="M1351.1 27.2059 L1358.55 27.2059 L1358.55 72.576 L1351.1 72.576 L1351.1 27.2059 M1351.1 9.54393 L1358.55 9.54393 L1358.55 18.9825 L1351.1 18.9825 L1351.1 9.54393 Z" fill="#000000" fill-rule="nonzero" fill-opacity="1" /><path clip-path="url(#clip180)" d="M1391.73 32.4315 Q1385.73 32.4315 1382.25 37.1306 Q1378.76 41.7891 1378.76 49.9314 Q1378.76 58.0738 1382.21 62.7728 Q1385.69 67.4314 1391.73 67.4314 Q1397.68 67.4314 1401.17 62.7323 Q1404.65 58.0333 1404.65 49.9314 Q1404.65 41.8701 1401.17 37.1711 Q1397.68 32.4315 1391.73 32.4315 M1391.73 26.1121 Q1401.45 26.1121 1407 32.4315 Q1412.55 38.7509 1412.55 49.9314 Q1412.55 61.0714 1407 67.4314 Q1401.45 73.7508 1391.73 73.7508 Q1381.97 73.7508 1376.42 67.4314 Q1370.91 61.0714 1370.91 49.9314 Q1370.91 38.7509 1376.42 32.4315 Q1381.97 26.1121 1391.73 26.1121 Z" fill="#000000" fill-rule="nonzero" fill-opacity="1" /><path clip-path="url(#clip180)" d="M1462.62 45.1919 L1462.62 72.576 L1455.17 72.576 L1455.17 45.4349 Q1455.17 38.994 1452.65 35.7938 Q1450.14 32.5936 1445.12 32.5936 Q1439.08 32.5936 1435.6 36.4419 Q1432.12 40.2903 1432.12 46.9338 L1432.12 72.576 L1424.62 72.576 L1424.62 27.2059 L1432.12 27.2059 L1432.12 34.2544 Q1434.79 30.163 1438.39 28.1376 Q1442.04 26.1121 1446.78 26.1121 Q1454.6 26.1121 1458.61 30.9732 Q1462.62 35.7938 1462.62 45.1919 Z" fill="#000000" fill-rule="nonzero" fill-opacity="1" /><path clip-path="url(#clip180)" d="M1536.51 28.9478 L1536.51 35.9153 Q1533.35 34.1734 1530.15 33.3227 Q1526.99 32.4315 1523.75 32.4315 Q1516.5 32.4315 1512.49 37.0496 Q1508.47 41.6271 1508.47 49.9314 Q1508.47 58.2358 1512.49 62.8538 Q1516.5 67.4314 1523.75 67.4314 Q1526.99 67.4314 1530.15 66.5807 Q1533.35 65.6895 1536.51 63.9476 L1536.51 70.8341 Q1533.39 72.2924 1530.03 73.0216 Q1526.7 73.7508 1522.94 73.7508 Q1512.69 73.7508 1506.65 67.3098 Q1500.62 60.8689 1500.62 49.9314 Q1500.62 38.832 1506.69 32.472 Q1512.81 26.1121 1523.42 26.1121 Q1526.87 26.1121 1530.15 26.8413 Q1533.43 27.5299 1536.51 28.9478 Z" fill="#000000" fill-rule="nonzero" fill-opacity="1" /><path clip-path="url(#clip180)" d="M1567.05 32.4315 Q1561.06 32.4315 1557.57 37.1306 Q1554.09 41.7891 1554.09 49.9314 Q1554.09 58.0738 1557.53 62.7728 Q1561.02 67.4314 1567.05 67.4314 Q1573.01 67.4314 1576.49 62.7323 Q1579.97 58.0333 1579.97 49.9314 Q1579.97 41.8701 1576.49 37.1711 Q1573.01 32.4315 1567.05 32.4315 M1567.05 26.1121 Q1576.77 26.1121 1582.32 32.4315 Q1587.87 38.7509 1587.87 49.9314 Q1587.87 61.0714 1582.32 67.4314 Q1576.77 73.7508 1567.05 73.7508 Q1557.29 73.7508 1551.74 67.4314 Q1546.23 61.0714 1546.23 49.9314 Q1546.23 38.7509 1551.74 32.4315 Q1557.29 26.1121 1567.05 26.1121 Z" fill="#000000" fill-rule="nonzero" fill-opacity="1" /><path clip-path="url(#clip180)" d="M1639.04 48.0275 L1639.04 51.6733 L1604.76 51.6733 Q1605.25 59.3701 1609.38 63.421 Q1613.56 67.4314 1620.97 67.4314 Q1625.26 67.4314 1629.27 66.3781 Q1633.32 65.3249 1637.29 63.2184 L1637.29 70.267 Q1633.28 71.9684 1629.07 72.8596 Q1624.86 73.7508 1620.52 73.7508 Q1609.67 73.7508 1603.31 67.4314 Q1596.99 61.1119 1596.99 50.3365 Q1596.99 39.1965 1602.98 32.6746 Q1609.02 26.1121 1619.23 26.1121 Q1628.38 26.1121 1633.69 32.0264 Q1639.04 37.9003 1639.04 48.0275 M1631.58 45.84 Q1631.5 39.7232 1628.14 36.0774 Q1624.82 32.4315 1619.31 32.4315 Q1613.07 32.4315 1609.3 35.9558 Q1605.58 39.4801 1605.01 45.8805 L1631.58 45.84 Z" fill="#000000" fill-rule="nonzero" fill-opacity="1" /><path clip-path="url(#clip180)" d="M1674.24 9.54393 L1674.24 15.7418 L1667.11 15.7418 Q1663.1 15.7418 1661.52 17.3622 Q1659.98 18.9825 1659.98 23.1955 L1659.98 27.2059 L1672.25 27.2059 L1672.25 32.9987 L1659.98 32.9987 L1659.98 72.576 L1652.48 72.576 L1652.48 32.9987 L1645.35 32.9987 L1645.35 27.2059 L1652.48 27.2059 L1652.48 24.0462 Q1652.48 16.471 1656.01 13.0277 Q1659.53 9.54393 1667.19 9.54393 L1674.24 9.54393 Z" fill="#000000" fill-rule="nonzero" fill-opacity="1" /><path clip-path="url(#clip180)" d="M1703.44 9.54393 L1703.44 15.7418 L1696.32 15.7418 Q1692.3 15.7418 1690.73 17.3622 Q1689.19 18.9825 1689.19 23.1955 L1689.19 27.2059 L1701.46 27.2059 L1701.46 32.9987 L1689.19 32.9987 L1689.19 72.576 L1681.69 72.576 L1681.69 32.9987 L1674.56 32.9987 L1674.56 27.2059 L1681.69 27.2059 L1681.69 24.0462 Q1681.69 16.471 1685.22 13.0277 Q1688.74 9.54393 1696.4 9.54393 L1703.44 9.54393 Z" fill="#000000" fill-rule="nonzero" fill-opacity="1" /><path clip-path="url(#clip180)" d="M1709.68 27.2059 L1717.14 27.2059 L1717.14 72.576 L1709.68 72.576 L1709.68 27.2059 M1709.68 9.54393 L1717.14 9.54393 L1717.14 18.9825 L1709.68 18.9825 L1709.68 9.54393 Z" fill="#000000" fill-rule="nonzero" fill-opacity="1" /><path clip-path="url(#clip180)" d="M1765.38 28.9478 L1765.38 35.9153 Q1762.22 34.1734 1759.02 33.3227 Q1755.86 32.4315 1752.62 32.4315 Q1745.37 32.4315 1741.36 37.0496 Q1737.35 41.6271 1737.35 49.9314 Q1737.35 58.2358 1741.36 62.8538 Q1745.37 67.4314 1752.62 67.4314 Q1755.86 67.4314 1759.02 66.5807 Q1762.22 65.6895 1765.38 63.9476 L1765.38 70.8341 Q1762.26 72.2924 1758.9 73.0216 Q1755.58 73.7508 1751.81 73.7508 Q1741.56 73.7508 1735.53 67.3098 Q1729.49 60.8689 1729.49 49.9314 Q1729.49 38.832 1735.57 32.472 Q1741.69 26.1121 1752.3 26.1121 Q1755.74 26.1121 1759.02 26.8413 Q1762.3 27.5299 1765.38 28.9478 Z" fill="#000000" fill-rule="nonzero" fill-opacity="1" /><path clip-path="url(#clip180)" d="M1778.35 27.2059 L1785.8 27.2059 L1785.8 72.576 L1778.35 72.576 L1778.35 27.2059 M1778.35 9.54393 L1785.8 9.54393 L1785.8 18.9825 L1778.35 18.9825 L1778.35 9.54393 Z" fill="#000000" fill-rule="nonzero" fill-opacity="1" /><path clip-path="url(#clip180)" d="M1840.2 48.0275 L1840.2 51.6733 L1805.93 51.6733 Q1806.42 59.3701 1810.55 63.421 Q1814.72 67.4314 1822.14 67.4314 Q1826.43 67.4314 1830.44 66.3781 Q1834.49 65.3249 1838.46 63.2184 L1838.46 70.267 Q1834.45 71.9684 1830.24 72.8596 Q1826.03 73.7508 1821.69 73.7508 Q1810.83 73.7508 1804.47 67.4314 Q1798.16 61.1119 1798.16 50.3365 Q1798.16 39.1965 1804.15 32.6746 Q1810.19 26.1121 1820.39 26.1121 Q1829.55 26.1121 1834.86 32.0264 Q1840.2 37.9003 1840.2 48.0275 M1832.75 45.84 Q1832.67 39.7232 1829.31 36.0774 Q1825.98 32.4315 1820.48 32.4315 Q1814.24 32.4315 1810.47 35.9558 Q1806.74 39.4801 1806.18 45.8805 L1832.75 45.84 Z" fill="#000000" fill-rule="nonzero" fill-opacity="1" /><path clip-path="url(#clip180)" d="M1890.15 45.1919 L1890.15 72.576 L1882.7 72.576 L1882.7 45.4349 Q1882.7 38.994 1880.19 35.7938 Q1877.67 32.5936 1872.65 32.5936 Q1866.62 32.5936 1863.13 36.4419 Q1859.65 40.2903 1859.65 46.9338 L1859.65 72.576 L1852.15 72.576 L1852.15 27.2059 L1859.65 27.2059 L1859.65 34.2544 Q1862.32 30.163 1865.93 28.1376 Q1869.57 26.1121 1874.31 26.1121 Q1882.13 26.1121 1886.14 30.9732 Q1890.15 35.7938 1890.15 45.1919 Z" fill="#000000" fill-rule="nonzero" fill-opacity="1" /><path clip-path="url(#clip180)" d="M1912.39 14.324 L1912.39 27.2059 L1927.74 27.2059 L1927.74 32.9987 L1912.39 32.9987 L1912.39 57.6282 Q1912.39 63.1779 1913.89 64.7578 Q1915.43 66.3376 1920.09 66.3376 L1927.74 66.3376 L1927.74 72.576 L1920.09 72.576 Q1911.46 72.576 1908.18 69.3758 Q1904.9 66.1351 1904.9 57.6282 L1904.9 32.9987 L1899.43 32.9987 L1899.43 27.2059 L1904.9 27.2059 L1904.9 14.324 L1912.39 14.324 Z" fill="#000000" fill-rule="nonzero" fill-opacity="1" /><path clip-path="url(#clip180)" d="M1966.47 28.5427 L1966.47 35.5912 Q1963.31 33.9709 1959.91 33.1607 Q1956.5 32.3505 1952.86 32.3505 Q1947.31 32.3505 1944.51 34.0519 Q1941.76 35.7533 1941.76 39.156 Q1941.76 41.7486 1943.74 43.2475 Q1945.73 44.7058 1951.72 46.0426 L1954.28 46.6097 Q1962.22 48.3111 1965.54 51.4303 Q1968.9 54.509 1968.9 60.0587 Q1968.9 66.3781 1963.88 70.0644 Q1958.89 73.7508 1950.14 73.7508 Q1946.5 73.7508 1942.53 73.0216 Q1938.6 72.3329 1934.22 70.9151 L1934.22 63.2184 Q1938.36 65.3654 1942.37 66.4591 Q1946.38 67.5124 1950.31 67.5124 Q1955.57 67.5124 1958.41 65.73 Q1961.24 63.9071 1961.24 60.6258 Q1961.24 57.5877 1959.18 55.9673 Q1957.15 54.3469 1950.23 52.8481 L1947.63 52.2405 Q1940.71 50.7821 1937.63 47.7845 Q1934.55 44.7463 1934.55 39.4801 Q1934.55 33.0797 1939.09 29.5959 Q1943.62 26.1121 1951.97 26.1121 Q1956.1 26.1121 1959.75 26.7198 Q1963.39 27.3274 1966.47 28.5427 Z" fill="#000000" fill-rule="nonzero" fill-opacity="1" /><polyline clip-path="url(#clip182)" style="stroke:#009af9; stroke-linecap:round; stroke-linejoin:round; stroke-width:4; stroke-opacity:1; fill:none" points="253.843,975.136 560.559,991.487 739.977,1002.36 867.275,1002.36 966.016,1002.36 1046.69,1002.36 1114.9,1002.36 1173.99,1002.36 1226.11,1002.36 1272.73,1002.36 1314.91,1002.36 1353.41,1002.36 1388.83,1002.36 1421.62,1002.36 1452.15,1002.36 1480.71,1002.36 1507.53,1002.36 1532.83,1002.36 1556.75,1002.36 1579.45,1002.36 1601.04,1002.36 1621.62,1002.36 1641.29,1002.36 1660.13,1002.36 1678.19,1002.63 1695.54,1002.48 1712.24,1002.36 1728.34,1002.36 1743.87,1002.36 1758.87,1002.36 1773.38,1002.35 1787.42,1002.35 1801.04,1002.35 1814.25,1002.35 1827.08,1002.35 1839.54,1002.35 1851.67,1002.35 1863.47,1002.35 1874.96,1002.35 1886.17,1002.35 1897.09,1002.35 1907.75,1002.35 1918.17,1002.35 1928.34,1002.35 1938.28,1002.35 1948.01,1002.35 1957.53,1002.35 1966.84,1002.34 1975.97,1002.34 1984.91,1002.35 1993.67,1002.35 2002.26,1002.35 2010.69,1002.35 2018.96,1002.34 2027.08,1002.34 2035.05,1002.35 2042.89,1002.34 2050.58,1002.35 2058.15,1002.34 2065.58,1002.35 2072.9,1002.34 2080.09,1002.33 2087.17,1002.34 2094.14,1002.2 2101,1002.35 2107.76,1002.33 2114.41,1002.31 2120.97,1002.33 2127.43,1002.35 2133.79,1002.35 2140.07,1002.31 2146.26,1002.34 2152.36,1002.33 2158.38,1002.3 2164.32,1002.36 2170.18,1002.36 2175.97,1002.36 2181.68,1002.35 2187.32,1002.35 2192.88,1002.35 2198.38,1002.35 2203.81,1002.35 2209.17,1002.35 2214.47,1002.35 2219.71,1002.35 2224.88,1002.35 2230,1002.35 2235.06,1002.35 2240.06,1002.35 2245,1002.35 2249.89,1002.35 2254.73,1002.35 2259.51,1002.35 2264.24,1002.35 2268.93,1002.35 2273.56,1002.35 2278.14,1002.35 2282.68,1002.35 2287.18,1002.35 2291.62,1002.35 "/>
<polyline clip-path="url(#clip182)" style="stroke:#e26f46; stroke-linecap:round; stroke-linejoin:round; stroke-width:4; stroke-opacity:1; fill:none" points="253.843,1260.97 560.559,1232.18 739.977,1204.01 867.275,1176.59 966.016,1148.95 1046.69,1121.24 1114.9,1093.53 1173.99,1065.83 1226.11,1038.12 1272.73,1010.41 1314.91,1002.36 1353.41,1002.36 1388.83,1002.36 1421.62,1002.36 1452.15,1002.36 1480.71,1002.36 1507.53,1002.36 1532.83,1002.36 1556.75,1002.36 1579.45,1002.36 1601.04,1002.36 1621.62,1002.36 1641.29,1002.36 1660.13,1002.36 1678.19,1002.5 1695.54,1002.42 1712.24,1002.36 1728.34,1002.36 1743.87,1002.36 1758.87,1002.36 1773.38,1002.36 1787.42,1002.36 1801.04,1002.35 1814.25,1002.35 1827.08,1002.35 1839.54,1002.35 1851.67,1002.34 1863.47,1002.34 1874.96,1002.34 1886.17,1002.34 1897.09,1002.34 1907.75,1002.34 1918.17,1002.35 1928.34,1002.35 1938.28,1002.35 1948.01,1002.35 1957.53,1002.34 1966.84,1002.34 1975.97,1002.34 1984.91,1002.34 1993.67,1002.34 2002.26,1002.34 2010.69,1002.34 2018.96,1002.34 2027.08,1002.33 2035.05,1002.35 2042.89,1002.33 2050.58,1002.35 2058.15,1002.34 2065.58,1002.34 2072.9,1002.34 2080.09,1002.33 2087.17,1002.34 2094.14,1002.15 2101,1002.34 2107.76,1002.32 2114.41,1002.29 2120.97,1002.32 2127.43,1002.35 2133.79,1002.34 2140.07,1002.3 2146.26,1002.33 2152.36,1002.32 2158.38,1002.28 2164.32,1002.36 2170.18,1002.36 2175.97,1002.36 2181.68,1002.35 2187.32,1002.35 2192.88,1002.35 2198.38,1002.35 2203.81,1002.35 2209.17,1002.35 2214.47,1002.35 2219.71,1002.35 2224.88,1002.35 2230,1002.35 2235.06,1002.35 2240.06,1002.35 2245,1002.35 2249.89,1002.35 2254.73,1002.35 2259.51,1002.35 2264.24,1002.35 2268.93,1002.35 2273.56,1002.35 2278.14,1002.35 2282.68,1002.35 2287.18,1002.35 2291.62,1002.35 "/>
<polyline clip-path="url(#clip182)" style="stroke:#3da44d; stroke-linecap:round; stroke-linejoin:round; stroke-width:4; stroke-opacity:1; fill:none" points="253.843,167.91 560.559,175.35 739.977,182.811 867.275,190.497 966.016,196.867 1046.69,202.856 1114.9,208.845 1173.99,214.834 1226.11,220.822 1272.73,226.811 1314.91,233.982 1353.41,241.638 1388.83,249.293 1421.62,256.949 1452.15,264.605 1480.71,272.261 1507.53,279.917 1532.83,287.573 1556.75,295.228 1579.45,302.884 1601.04,310.54 1621.62,318.196 1641.29,325.852 1660.13,333.507 1678.19,340.864 1695.54,348.564 1712.24,357.281 1728.34,365.978 1743.87,374.676 1758.87,383.373 1773.38,392.071 1787.42,400.769 1801.04,409.467 1814.25,418.165 1827.08,427.372 1839.54,436.594 1851.67,446.252 1863.47,457.572 1874.96,468.89 1886.17,480.206 1897.09,491.526 1907.75,502.843 1918.17,514.157 1928.34,525.478 1938.28,536.791 1948.01,548.111 1957.53,560.588 1966.84,574.323 1975.97,588.054 1984.91,601.782 1993.67,615.51 2002.26,629.243 2010.69,642.976 2018.96,656.708 2027.08,670.455 2035.05,684.155 2042.89,697.911 2050.58,711.616 2058.15,725.372 2065.58,739.092 2072.9,752.827 2080.09,766.577 2087.17,780.293 2094.14,794.313 2101,807.746 2107.76,821.507 2114.41,835.291 2120.97,848.975 2127.43,862.669 2133.79,876.406 2140.07,890.196 2146.26,903.89 2152.36,917.637 2158.38,931.362 2164.32,948.626 2170.18,966.439 2175.97,984.252 2181.68,1002.11 2187.32,1002.34 2192.88,1002.34 2198.38,1002.35 2203.81,1002.35 2209.17,1002.35 2214.47,1002.35 2219.71,1002.35 2224.88,1002.35 2230,1002.35 2235.06,1002.35 2240.06,1002.35 2245,1002.35 2249.89,1002.35 2254.73,1002.35 2259.51,1002.35 2264.24,1002.35 2268.93,1002.35 2273.56,1002.35 2278.14,1002.35 2282.68,1002.35 2287.18,1002.35 2291.62,1002.35 "/>
<polyline clip-path="url(#clip182)" style="stroke:#c271d2; stroke-linecap:round; stroke-linejoin:round; stroke-width:4; stroke-opacity:1; fill:none" points="253.843,477.504 560.559,489.797 739.977,502.645 867.275,517.12 966.016,530.953 1046.69,544.6 1114.9,558.248 1173.99,571.894 1226.11,585.541 1272.73,599.187 1314.91,610.366 1353.41,620.532 1388.83,630.699 1421.62,640.866 1452.15,651.033 1480.71,661.2 1507.53,671.367 1532.83,681.533 1556.75,691.7 1579.45,701.867 1601.04,712.034 1621.62,722.2 1641.29,732.367 1660.13,742.534 1678.19,752.482 1695.54,762.696 1712.24,774.051 1728.34,785.532 1743.87,797.013 1758.87,808.494 1773.38,819.975 1787.42,831.456 1801.04,842.937 1814.25,854.419 1827.08,866.066 1839.54,877.72 1851.67,889.413 1863.47,901.273 1874.96,913.131 1886.17,924.989 1897.09,936.848 1907.75,948.706 1918.17,960.562 1928.34,972.422 1938.28,984.278 1948.01,996.138 1957.53,1002.35 1966.84,1002.35 1975.97,1002.35 1984.91,1002.35 1993.67,1002.35 2002.26,1002.35 2010.69,1002.35 2018.96,1002.35 2027.08,1002.34 2035.05,1002.35 2042.89,1002.35 2050.58,1002.35 2058.15,1002.35 2065.58,1002.35 2072.9,1002.35 2080.09,1002.34 2087.17,1002.35 2094.14,1002.25 2101,1002.35 2107.76,1002.34 2114.41,1002.32 2120.97,1002.34 2127.43,1002.35 2133.79,1002.35 2140.07,1002.33 2146.26,1002.35 2152.36,1002.34 2158.38,1002.33 2164.32,1002.36 2170.18,1002.36 2175.97,1002.36 2181.68,1002.35 2187.32,1002.35 2192.88,1002.35 2198.38,1002.35 2203.81,1002.35 2209.17,1002.35 2214.47,1002.35 2219.71,1002.35 2224.88,1002.35 2230,1002.35 2235.06,1002.35 2240.06,1002.35 2245,1002.35 2249.89,1002.35 2254.73,1002.35 2259.51,1002.35 2264.24,1002.35 2268.93,1002.35 2273.56,1002.35 2278.14,1002.35 2282.68,1002.35 2287.18,1002.35 2291.62,1002.35 "/>
<polyline clip-path="url(#clip182)" style="stroke:#ac8d18; stroke-linecap:round; stroke-linejoin:round; stroke-width:4; stroke-opacity:1; fill:none" points="253.843,1009.85 560.559,1002.36 739.977,1002.36 867.275,1002.36 966.016,1002.36 1046.69,1002.36 1114.9,1002.36 1173.99,1002.36 1226.11,1002.36 1272.73,1002.36 1314.91,1002.36 1353.41,1002.36 1388.83,1002.36 1421.62,1002.36 1452.15,1002.36 1480.71,1002.36 1507.53,1002.36 1532.83,1002.36 1556.75,1002.36 1579.45,1002.36 1601.04,1002.36 1621.62,1002.36 1641.29,1002.36 1660.13,1002.36 1678.19,1002.78 1695.54,1002.65 1712.24,1002.36 1728.34,1002.36 1743.87,1002.36 1758.87,1002.36 1773.38,1002.35 1787.42,1002.35 1801.04,1002.35 1814.25,1002.35 1827.08,1002.34 1839.54,1002.33 1851.67,1002.34 1863.47,1002.34 1874.96,1002.34 1886.17,1002.34 1897.09,1002.34 1907.75,1002.34 1918.17,1002.34 1928.34,1002.34 1938.28,1002.35 1948.01,1002.35 1957.53,1002.34 1966.84,1002.34 1975.97,1002.34 1984.91,1002.34 1993.67,1002.34 2002.26,1002.34 2010.69,1002.34 2018.96,1002.34 2027.08,1002.32 2035.05,1002.35 2042.89,1002.33 2050.58,1002.35 2058.15,1002.33 2065.58,1002.34 2072.9,1002.34 2080.09,1002.32 2087.17,1002.33 2094.14,1002.11 2101,1002.34 2107.76,1002.32 2114.41,1002.27 2120.97,1002.31 2127.43,1002.34 2133.79,1002.34 2140.07,1002.29 2146.26,1002.33 2152.36,1002.31 2158.38,1002.27 2164.32,1002.36 2170.18,1002.36 2175.97,1002.36 2181.68,1002.34 2187.32,1002.34 2192.88,1002.34 2198.38,1002.34 2203.81,1002.34 2209.17,1002.34 2214.47,1002.34 2219.71,1002.34 2224.88,1002.34 2230,1002.34 2235.06,1002.34 2240.06,1002.34 2245,1002.34 2249.89,1002.34 2254.73,1002.34 2259.51,1002.34 2264.24,1002.35 2268.93,1002.35 2273.56,1002.35 2278.14,1002.35 2282.68,1002.35 2287.18,1002.35 2291.62,1002.35 "/>
<polyline clip-path="url(#clip182)" style="stroke:#00a9ad; stroke-linecap:round; stroke-linejoin:round; stroke-width:4; stroke-opacity:1; fill:none" points="253.843,1108.53 560.559,1077.59 739.977,1043.31 867.275,1009.89 966.016,1002.36 1046.69,1002.36 1114.9,1002.36 1173.99,1002.36 1226.11,1002.36 1272.73,1002.36 1314.91,1002.36 1353.41,1002.36 1388.83,1002.36 1421.62,1002.36 1452.15,1002.36 1480.71,1002.36 1507.53,1002.36 1532.83,1002.36 1556.75,1002.36 1579.45,1002.36 1601.04,1002.36 1621.62,1002.36 1641.29,1002.36 1660.13,1002.36 1678.19,1002.68 1695.54,1002.55 1712.24,1002.36 1728.34,1002.36 1743.87,1002.36 1758.87,1002.36 1773.38,1002.35 1787.42,1002.35 1801.04,1002.35 1814.25,1002.35 1827.08,1002.34 1839.54,1002.33 1851.67,1002.34 1863.47,1002.33 1874.96,1002.33 1886.17,1002.33 1897.09,1002.33 1907.75,1002.33 1918.17,1002.34 1928.34,1002.34 1938.28,1002.34 1948.01,1002.34 1957.53,1002.33 1966.84,1002.33 1975.97,1002.33 1984.91,1002.33 1993.67,1002.34 2002.26,1002.33 2010.69,1002.33 2018.96,1002.33 2027.08,1002.31 2035.05,1002.35 2042.89,1002.32 2050.58,1002.35 2058.15,1002.32 2065.58,1002.33 2072.9,1002.33 2080.09,1002.31 2087.17,1002.33 2094.14,1002.03 2101,1002.33 2107.76,1002.3 2114.41,1002.24 2120.97,1002.3 2127.43,1002.34 2133.79,1002.33 2140.07,1002.26 2146.26,1002.32 2152.36,1002.3 2158.38,1002.23 2164.32,1002.36 2170.18,1002.36 2175.97,1002.36 2181.68,1002.34 2187.32,1002.34 2192.88,1002.34 2198.38,1002.34 2203.81,1002.34 2209.17,1002.34 2214.47,1002.34 2219.71,1002.34 2224.88,1002.34 2230,1002.34 2235.06,1002.34 2240.06,1002.34 2245,1002.34 2249.89,1002.34 2254.73,1002.34 2259.51,1002.34 2264.24,1002.34 2268.93,1002.34 2273.56,1002.35 2278.14,1002.35 2282.68,1002.35 2287.18,1002.35 2291.62,1002.35 "/>
<polyline clip-path="url(#clip182)" style="stroke:#ed5d92; stroke-linecap:round; stroke-linejoin:round; stroke-width:4; stroke-opacity:1; fill:none" points="253.843,1381.32 560.559,1371.89 739.977,1360.93 867.275,1350.52 966.016,1336.79 1046.69,1322.1 1114.9,1307.42 1173.99,1292.73 1226.11,1278.04 1272.73,1263.35 1314.91,1252.43 1353.41,1243.05 1388.83,1233.67 1421.62,1224.29 1452.15,1214.91 1480.71,1205.52 1507.53,1196.14 1532.83,1186.76 1556.75,1177.38 1579.45,1168 1601.04,1158.62 1621.62,1149.23 1641.29,1139.85 1660.13,1130.47 1678.19,1120.93 1695.54,1111.61 1712.24,1102.19 1728.34,1092.64 1743.87,1083.08 1758.87,1073.52 1773.38,1063.96 1787.42,1054.41 1801.04,1044.85 1814.25,1035.29 1827.08,1023.53 1839.54,1011.72 1851.67,1002.37 1863.47,1002.37 1874.96,1002.37 1886.17,1002.37 1897.09,1002.37 1907.75,1002.37 1918.17,1002.36 1928.34,1002.37 1938.28,1002.36 1948.01,1002.36 1957.53,1002.37 1966.84,1002.37 1975.97,1002.37 1984.91,1002.37 1993.67,1002.36 2002.26,1002.36 2010.69,1002.37 2018.96,1002.37 2027.08,1002.37 2035.05,1002.36 2042.89,1002.37 2050.58,1002.36 2058.15,1002.37 2065.58,1002.36 2072.9,1002.37 2080.09,1002.37 2087.17,1002.37 2094.14,1002.49 2101,1002.36 2107.76,1002.38 2114.41,1002.4 2120.97,1002.38 2127.43,1002.36 2133.79,1002.36 2140.07,1002.39 2146.26,1002.37 2152.36,1002.38 2158.38,1002.4 2164.32,1002.36 2170.18,1002.36 2175.97,1002.36 2181.68,1002.36 2187.32,1002.37 2192.88,1002.37 2198.38,1002.37 2203.81,1002.37 2209.17,1002.37 2214.47,1002.37 2219.71,1002.37 2224.88,1002.37 2230,1002.37 2235.06,1002.37 2240.06,1002.37 2245,1002.36 2249.89,1002.36 2254.73,1002.36 2259.51,1002.36 2264.24,1002.36 2268.93,1002.36 2273.56,1002.36 2278.14,1002.36 2282.68,1002.36 2287.18,1002.36 2291.62,1002.36 "/>
<polyline clip-path="url(#clip182)" style="stroke:#c68125; stroke-linecap:round; stroke-linejoin:round; stroke-width:4; stroke-opacity:1; fill:none" points="253.843,761.304 560.559,785.437 739.977,808.474 867.275,831.656 966.016,842.969 1046.69,850.835 1114.9,858.706 1173.99,866.572 1226.11,874.439 1272.73,882.305 1314.91,887.843 1353.41,892.428 1388.83,897.014 1421.62,901.6 1452.15,906.186 1480.71,910.771 1507.53,915.357 1532.83,919.942 1556.75,924.528 1579.45,929.113 1601.04,933.698 1621.62,938.283 1641.29,942.87 1660.13,947.454 1678.19,951.566 1695.54,956.311 1712.24,962.097 1728.34,967.826 1743.87,973.555 1758.87,979.285 1773.38,985.014 1787.42,990.744 1801.04,996.474 1814.25,1002.21 1827.08,1002.35 1839.54,1002.34 1851.67,1002.34 1863.47,1002.34 1874.96,1002.34 1886.17,1002.34 1897.09,1002.34 1907.75,1002.34 1918.17,1002.34 1928.34,1002.34 1938.28,1002.35 1948.01,1002.34 1957.53,1002.34 1966.84,1002.33 1975.97,1002.33 1984.91,1002.34 1993.67,1002.34 2002.26,1002.34 2010.69,1002.34 2018.96,1002.34 2027.08,1002.32 2035.05,1002.35 2042.89,1002.33 2050.58,1002.35 2058.15,1002.33 2065.58,1002.34 2072.9,1002.34 2080.09,1002.32 2087.17,1002.33 2094.14,1002.1 2101,1002.34 2107.76,1002.31 2114.41,1002.27 2120.97,1002.31 2127.43,1002.34 2133.79,1002.34 2140.07,1002.28 2146.26,1002.33 2152.36,1002.31 2158.38,1002.27 2164.32,1002.36 2170.18,1002.36 2175.97,1002.36 2181.68,1002.34 2187.32,1002.34 2192.88,1002.34 2198.38,1002.34 2203.81,1002.34 2209.17,1002.34 2214.47,1002.34 2219.71,1002.34 2224.88,1002.34 2230,1002.34 2235.06,1002.34 2240.06,1002.34 2245,1002.34 2249.89,1002.34 2254.73,1002.34 2259.51,1002.34 2264.24,1002.34 2268.93,1002.34 2273.56,1002.34 2278.14,1002.34 2282.68,1002.34 2287.18,1002.34 2291.62,1002.34 "/>
<polyline clip-path="url(#clip182)" style="stroke:#00a98d; stroke-linecap:round; stroke-linejoin:round; stroke-width:4; stroke-opacity:1; fill:none" points="253.843,290.481 560.559,296.133 739.977,300.657 867.275,306.102 966.016,311.154 1046.69,316.094 1114.9,321.035 1173.99,325.975 1226.11,330.914 1272.73,335.854 1314.91,341.476 1353.41,347.377 1388.83,353.279 1421.62,359.181 1452.15,365.083 1480.71,370.985 1507.53,376.887 1532.83,382.789 1556.75,388.691 1579.45,394.593 1601.04,400.494 1621.62,406.396 1641.29,412.298 1660.13,418.2 1678.19,423.753 1695.54,429.712 1712.24,437.005 1728.34,444.328 1743.87,451.651 1758.87,458.974 1773.38,466.297 1787.42,473.62 1801.04,480.943 1814.25,488.267 1827.08,497.117 1839.54,506.01 1851.67,515.407 1863.47,526.75 1874.96,538.09 1886.17,549.427 1897.09,560.77 1907.75,572.108 1918.17,583.439 1928.34,594.785 1938.28,606.115 1948.01,617.459 1957.53,629.953 1966.84,643.69 1975.97,657.421 1984.91,671.147 1993.67,684.873 2002.26,698.607 2010.69,712.341 2018.96,726.074 2027.08,739.831 2035.05,753.511 2042.89,767.283 2050.58,780.971 2058.15,794.744 2065.58,808.456 2072.9,822.194 2080.09,835.956 2087.17,849.663 2094.14,863.839 2101,877.111 2107.76,890.891 2114.41,904.706 2120.97,918.363 2127.43,932.032 2133.79,945.772 2140.07,959.602 2146.26,973.26 2152.36,987.018 2158.38,1000.8 2164.32,1002.36 2170.18,1002.36 2175.97,1002.36 2181.68,1002.34 2187.32,1002.34 2192.88,1002.34 2198.38,1002.34 2203.81,1002.34 2209.17,1002.34 2214.47,1002.34 2219.71,1002.34 2224.88,1002.34 2230,1002.34 2235.06,1002.34 2240.06,1002.34 2245,1002.34 2249.89,1002.34 2254.73,1002.34 2259.51,1002.35 2264.24,1002.35 2268.93,1002.35 2273.56,1002.35 2278.14,1002.35 2282.68,1002.35 2287.18,1002.35 2291.62,1002.35 "/>
<polyline clip-path="url(#clip182)" style="stroke:#8e971d; stroke-linecap:round; stroke-linejoin:round; stroke-width:4; stroke-opacity:1; fill:none" points="253.843,770.268 560.559,781.104 739.977,792.198 867.275,804.5 966.016,815.143 1046.69,825.303 1114.9,835.465 1173.99,845.626 1226.11,855.787 1272.73,865.947 1314.91,874.841 1353.41,883.215 1388.83,891.589 1421.62,899.964 1452.15,908.338 1480.71,916.712 1507.53,925.087 1532.83,933.461 1556.75,941.835 1579.45,950.21 1601.04,958.584 1621.62,966.958 1641.29,975.333 1660.13,983.707 1678.19,991.961 1695.54,1000.51 1712.24,1002.36 1728.34,1002.36 1743.87,1002.36 1758.87,1002.36 1773.38,1002.35 1787.42,1002.35 1801.04,1002.35 1814.25,1002.35 1827.08,1002.35 1839.54,1002.35 1851.67,1002.35 1863.47,1002.35 1874.96,1002.35 1886.17,1002.35 1897.09,1002.35 1907.75,1002.35 1918.17,1002.35 1928.34,1002.35 1938.28,1002.35 1948.01,1002.35 1957.53,1002.34 1966.84,1002.34 1975.97,1002.34 1984.91,1002.35 1993.67,1002.35 2002.26,1002.35 2010.69,1002.35 2018.96,1002.34 2027.08,1002.34 2035.05,1002.35 2042.89,1002.34 2050.58,1002.35 2058.15,1002.34 2065.58,1002.35 2072.9,1002.34 2080.09,1002.34 2087.17,1002.34 2094.14,1002.2 2101,1002.35 2107.76,1002.33 2114.41,1002.31 2120.97,1002.33 2127.43,1002.35 2133.79,1002.35 2140.07,1002.32 2146.26,1002.34 2152.36,1002.33 2158.38,1002.31 2164.32,1002.36 2170.18,1002.36 2175.97,1002.36 2181.68,1002.35 2187.32,1002.34 2192.88,1002.34 2198.38,1002.34 2203.81,1002.34 2209.17,1002.34 2214.47,1002.34 2219.71,1002.34 2224.88,1002.34 2230,1002.34 2235.06,1002.35 2240.06,1002.35 2245,1002.35 2249.89,1002.35 2254.73,1002.35 2259.51,1002.35 2264.24,1002.35 2268.93,1002.35 2273.56,1002.35 2278.14,1002.35 2282.68,1002.35 2287.18,1002.35 2291.62,1002.35 "/>
<path clip-path="url(#clip180)" d="M1969.87 737.036 L2280.75 737.036 L2280.75 166.796 L1969.87 166.796  Z" fill="#ffffff" fill-rule="evenodd" fill-opacity="1"/>
<polyline clip-path="url(#clip180)" style="stroke:#000000; stroke-linecap:round; stroke-linejoin:round; stroke-width:4; stroke-opacity:1; fill:none" points="1969.87,737.036 2280.75,737.036 2280.75,166.796 1969.87,166.796 1969.87,737.036 "/>
<polyline clip-path="url(#clip180)" style="stroke:#009af9; stroke-linecap:round; stroke-linejoin:round; stroke-width:4; stroke-opacity:1; fill:none" points="1993.87,218.636 2137.87,218.636 "/>
<path clip-path="url(#clip180)" d="M2177.7 205.962 L2171.36 223.161 L2184.07 223.161 L2177.7 205.962 M2175.06 201.356 L2180.37 201.356 L2193.54 235.916 L2188.68 235.916 L2185.53 227.05 L2169.95 227.05 L2166.8 235.916 L2161.87 235.916 L2175.06 201.356 Z" fill="#000000" fill-rule="nonzero" fill-opacity="1" /><path clip-path="url(#clip180)" d="M2221.31 230.985 L2221.31 221.703 L2213.68 221.703 L2213.68 217.86 L2225.94 217.86 L2225.94 232.698 Q2223.24 234.619 2219.97 235.615 Q2216.71 236.587 2213 236.587 Q2204.9 236.587 2200.32 231.865 Q2195.76 227.119 2195.76 218.67 Q2195.76 210.198 2200.32 205.476 Q2204.9 200.731 2213 200.731 Q2216.38 200.731 2219.42 201.564 Q2222.47 202.397 2225.04 204.018 L2225.04 208.995 Q2222.45 206.796 2219.53 205.684 Q2216.62 204.573 2213.4 204.573 Q2207.06 204.573 2203.86 208.115 Q2200.69 211.657 2200.69 218.67 Q2200.69 225.661 2203.86 229.203 Q2207.06 232.744 2213.4 232.744 Q2215.87 232.744 2217.82 232.328 Q2219.76 231.888 2221.31 230.985 Z" fill="#000000" fill-rule="nonzero" fill-opacity="1" /><path clip-path="url(#clip180)" d="M2234.49 201.356 L2256.34 201.356 L2256.34 205.291 L2239.16 205.291 L2239.16 215.522 L2255.62 215.522 L2255.62 219.457 L2239.16 219.457 L2239.16 231.981 L2256.75 231.981 L2256.75 235.916 L2234.49 235.916 L2234.49 201.356 Z" fill="#000000" fill-rule="nonzero" fill-opacity="1" /><polyline clip-path="url(#clip180)" style="stroke:#e26f46; stroke-linecap:round; stroke-linejoin:round; stroke-width:4; stroke-opacity:1; fill:none" points="1993.87,270.476 2137.87,270.476 "/>
<path clip-path="url(#clip180)" d="M2184.12 254.33 L2184.12 258.89 Q2181.45 257.617 2179.09 256.992 Q2176.73 256.367 2174.53 256.367 Q2170.71 256.367 2168.63 257.848 Q2166.57 259.33 2166.57 262.061 Q2166.57 264.353 2167.93 265.534 Q2169.32 266.691 2173.17 267.409 L2175.99 267.987 Q2181.22 268.983 2183.7 271.506 Q2186.2 274.006 2186.2 278.219 Q2186.2 283.242 2182.82 285.834 Q2179.46 288.427 2172.96 288.427 Q2170.5 288.427 2167.73 287.871 Q2164.97 287.316 2162.01 286.228 L2162.01 281.413 Q2164.86 283.01 2167.59 283.821 Q2170.32 284.631 2172.96 284.631 Q2176.96 284.631 2179.14 283.057 Q2181.31 281.483 2181.31 278.566 Q2181.31 276.02 2179.74 274.584 Q2178.19 273.149 2174.62 272.432 L2171.78 271.876 Q2166.55 270.835 2164.21 268.612 Q2161.87 266.39 2161.87 262.432 Q2161.87 257.848 2165.09 255.21 Q2168.33 252.571 2174 252.571 Q2176.43 252.571 2178.95 253.011 Q2181.48 253.45 2184.12 254.33 Z" fill="#000000" fill-rule="nonzero" fill-opacity="1" /><path clip-path="url(#clip180)" d="M2193.49 253.196 L2215.34 253.196 L2215.34 257.131 L2198.17 257.131 L2198.17 267.362 L2214.62 267.362 L2214.62 271.297 L2198.17 271.297 L2198.17 283.821 L2215.76 283.821 L2215.76 287.756 L2193.49 287.756 L2193.49 253.196 Z" fill="#000000" fill-rule="nonzero" fill-opacity="1" /><path clip-path="url(#clip180)" d="M2221.78 253.196 L2226.8 253.196 L2235.39 266.043 L2244.02 253.196 L2249.05 253.196 L2237.93 269.793 L2249.79 287.756 L2244.76 287.756 L2235.04 273.057 L2225.25 287.756 L2220.2 287.756 L2232.54 269.307 L2221.78 253.196 Z" fill="#000000" fill-rule="nonzero" fill-opacity="1" /><polyline clip-path="url(#clip180)" style="stroke:#3da44d; stroke-linecap:round; stroke-linejoin:round; stroke-width:4; stroke-opacity:1; fill:none" points="1993.87,322.316 2137.87,322.316 "/>
<path clip-path="url(#clip180)" d="M2166.55 323.091 L2166.55 335.753 L2174.05 335.753 Q2177.82 335.753 2179.62 334.202 Q2181.45 332.628 2181.45 329.411 Q2181.45 326.17 2179.62 324.642 Q2177.82 323.091 2174.05 323.091 L2166.55 323.091 M2166.55 308.878 L2166.55 319.295 L2173.47 319.295 Q2176.89 319.295 2178.56 318.022 Q2180.25 316.725 2180.25 314.087 Q2180.25 311.471 2178.56 310.175 Q2176.89 308.878 2173.47 308.878 L2166.55 308.878 M2161.87 305.036 L2173.81 305.036 Q2179.16 305.036 2182.06 307.258 Q2184.95 309.48 2184.95 313.577 Q2184.95 316.749 2183.47 318.624 Q2181.99 320.499 2179.12 320.962 Q2182.56 321.702 2184.46 324.063 Q2186.38 326.401 2186.38 329.92 Q2186.38 334.549 2183.24 337.073 Q2180.09 339.596 2174.28 339.596 L2161.87 339.596 L2161.87 305.036 Z" fill="#000000" fill-rule="nonzero" fill-opacity="1" /><path clip-path="url(#clip180)" d="M2194.39 305.036 L2201.36 305.036 L2210.18 328.554 L2219.05 305.036 L2226.01 305.036 L2226.01 339.596 L2221.45 339.596 L2221.45 309.249 L2212.54 332.952 L2207.84 332.952 L2198.93 309.249 L2198.93 339.596 L2194.39 339.596 L2194.39 305.036 Z" fill="#000000" fill-rule="nonzero" fill-opacity="1" /><path clip-path="url(#clip180)" d="M2235.3 305.036 L2239.97 305.036 L2239.97 339.596 L2235.3 339.596 L2235.3 305.036 Z" fill="#000000" fill-rule="nonzero" fill-opacity="1" /><polyline clip-path="url(#clip180)" style="stroke:#c271d2; stroke-linecap:round; stroke-linejoin:round; stroke-width:4; stroke-opacity:1; fill:none" points="1993.87,374.156 2137.87,374.156 "/>
<path clip-path="url(#clip180)" d="M2166.55 374.931 L2166.55 387.593 L2174.05 387.593 Q2177.82 387.593 2179.62 386.042 Q2181.45 384.468 2181.45 381.251 Q2181.45 378.01 2179.62 376.482 Q2177.82 374.931 2174.05 374.931 L2166.55 374.931 M2166.55 360.718 L2166.55 371.135 L2173.47 371.135 Q2176.89 371.135 2178.56 369.862 Q2180.25 368.565 2180.25 365.927 Q2180.25 363.311 2178.56 362.015 Q2176.89 360.718 2173.47 360.718 L2166.55 360.718 M2161.87 356.876 L2173.81 356.876 Q2179.16 356.876 2182.06 359.098 Q2184.95 361.32 2184.95 365.417 Q2184.95 368.589 2183.47 370.464 Q2181.99 372.339 2179.12 372.802 Q2182.56 373.542 2184.46 375.903 Q2186.38 378.241 2186.38 381.76 Q2186.38 386.389 2183.24 388.913 Q2180.09 391.436 2174.28 391.436 L2161.87 391.436 L2161.87 356.876 Z" fill="#000000" fill-rule="nonzero" fill-opacity="1" /><path clip-path="url(#clip180)" d="M2199.07 360.718 L2199.07 373.704 L2204.95 373.704 Q2208.21 373.704 2209.99 372.015 Q2211.78 370.325 2211.78 367.2 Q2211.78 364.098 2209.99 362.408 Q2208.21 360.718 2204.95 360.718 L2199.07 360.718 M2194.39 356.876 L2204.95 356.876 Q2210.76 356.876 2213.72 359.515 Q2216.71 362.13 2216.71 367.2 Q2216.71 372.315 2213.72 374.931 Q2210.76 377.547 2204.95 377.547 L2199.07 377.547 L2199.07 391.436 L2194.39 391.436 L2194.39 356.876 Z" fill="#000000" fill-rule="nonzero" fill-opacity="1" /><polyline clip-path="url(#clip180)" style="stroke:#ac8d18; stroke-linecap:round; stroke-linejoin:round; stroke-width:4; stroke-opacity:1; fill:none" points="1993.87,425.996 2137.87,425.996 "/>
<path clip-path="url(#clip180)" d="M2184.12 409.85 L2184.12 414.41 Q2181.45 413.137 2179.09 412.512 Q2176.73 411.887 2174.53 411.887 Q2170.71 411.887 2168.63 413.368 Q2166.57 414.85 2166.57 417.581 Q2166.57 419.873 2167.93 421.054 Q2169.32 422.211 2173.17 422.929 L2175.99 423.507 Q2181.22 424.503 2183.7 427.026 Q2186.2 429.526 2186.2 433.739 Q2186.2 438.762 2182.82 441.354 Q2179.46 443.947 2172.96 443.947 Q2170.5 443.947 2167.73 443.391 Q2164.97 442.836 2162.01 441.748 L2162.01 436.933 Q2164.86 438.53 2167.59 439.341 Q2170.32 440.151 2172.96 440.151 Q2176.96 440.151 2179.14 438.577 Q2181.31 437.003 2181.31 434.086 Q2181.31 431.54 2179.74 430.104 Q2178.19 428.669 2174.62 427.952 L2171.78 427.396 Q2166.55 426.355 2164.21 424.132 Q2161.87 421.91 2161.87 417.952 Q2161.87 413.368 2165.09 410.73 Q2168.33 408.091 2174 408.091 Q2176.43 408.091 2178.95 408.531 Q2181.48 408.97 2184.12 409.85 Z" fill="#000000" fill-rule="nonzero" fill-opacity="1" /><path clip-path="url(#clip180)" d="M2194.72 439.341 L2202.36 439.341 L2202.36 412.975 L2194.05 414.642 L2194.05 410.382 L2202.31 408.716 L2206.99 408.716 L2206.99 439.341 L2214.62 439.341 L2214.62 443.276 L2194.72 443.276 L2194.72 439.341 Z" fill="#000000" fill-rule="nonzero" fill-opacity="1" /><polyline clip-path="url(#clip180)" style="stroke:#00a9ad; stroke-linecap:round; stroke-linejoin:round; stroke-width:4; stroke-opacity:1; fill:none" points="1993.87,477.836 2137.87,477.836 "/>
<path clip-path="url(#clip180)" d="M2184.12 461.69 L2184.12 466.25 Q2181.45 464.977 2179.09 464.352 Q2176.73 463.727 2174.53 463.727 Q2170.71 463.727 2168.63 465.208 Q2166.57 466.69 2166.57 469.421 Q2166.57 471.713 2167.93 472.894 Q2169.32 474.051 2173.17 474.769 L2175.99 475.347 Q2181.22 476.343 2183.7 478.866 Q2186.2 481.366 2186.2 485.579 Q2186.2 490.602 2182.82 493.194 Q2179.46 495.787 2172.96 495.787 Q2170.5 495.787 2167.73 495.231 Q2164.97 494.676 2162.01 493.588 L2162.01 488.773 Q2164.86 490.37 2167.59 491.181 Q2170.32 491.991 2172.96 491.991 Q2176.96 491.991 2179.14 490.417 Q2181.31 488.843 2181.31 485.926 Q2181.31 483.38 2179.74 481.944 Q2178.19 480.509 2174.62 479.792 L2171.78 479.236 Q2166.55 478.195 2164.21 475.972 Q2161.87 473.75 2161.87 469.792 Q2161.87 465.208 2165.09 462.57 Q2168.33 459.931 2174 459.931 Q2176.43 459.931 2178.95 460.371 Q2181.48 460.81 2184.12 461.69 Z" fill="#000000" fill-rule="nonzero" fill-opacity="1" /><path clip-path="url(#clip180)" d="M2197.93 491.181 L2214.25 491.181 L2214.25 495.116 L2192.31 495.116 L2192.31 491.181 Q2194.97 488.426 2199.56 483.796 Q2204.16 479.144 2205.34 477.801 Q2207.59 475.278 2208.47 473.542 Q2209.37 471.783 2209.37 470.093 Q2209.37 467.338 2207.43 465.602 Q2205.5 463.866 2202.4 463.866 Q2200.2 463.866 2197.75 464.63 Q2195.32 465.394 2192.54 466.945 L2192.54 462.222 Q2195.37 461.088 2197.82 460.509 Q2200.27 459.931 2202.31 459.931 Q2207.68 459.931 2210.87 462.616 Q2214.07 465.301 2214.07 469.792 Q2214.07 471.921 2213.26 473.843 Q2212.47 475.741 2210.37 478.333 Q2209.79 479.005 2206.68 482.222 Q2203.58 485.417 2197.93 491.181 Z" fill="#000000" fill-rule="nonzero" fill-opacity="1" /><polyline clip-path="url(#clip180)" style="stroke:#ed5d92; stroke-linecap:round; stroke-linejoin:round; stroke-width:4; stroke-opacity:1; fill:none" points="1993.87,529.676 2137.87,529.676 "/>
<path clip-path="url(#clip180)" d="M2184.12 513.53 L2184.12 518.09 Q2181.45 516.817 2179.09 516.192 Q2176.73 515.567 2174.53 515.567 Q2170.71 515.567 2168.63 517.048 Q2166.57 518.53 2166.57 521.261 Q2166.57 523.553 2167.93 524.734 Q2169.32 525.891 2173.17 526.609 L2175.99 527.187 Q2181.22 528.183 2183.7 530.706 Q2186.2 533.206 2186.2 537.419 Q2186.2 542.442 2182.82 545.034 Q2179.46 547.627 2172.96 547.627 Q2170.5 547.627 2167.73 547.071 Q2164.97 546.516 2162.01 545.428 L2162.01 540.613 Q2164.86 542.21 2167.59 543.021 Q2170.32 543.831 2172.96 543.831 Q2176.96 543.831 2179.14 542.257 Q2181.31 540.683 2181.31 537.766 Q2181.31 535.22 2179.74 533.784 Q2178.19 532.349 2174.62 531.632 L2171.78 531.076 Q2166.55 530.035 2164.21 527.812 Q2161.87 525.59 2161.87 521.632 Q2161.87 517.048 2165.09 514.41 Q2168.33 511.771 2174 511.771 Q2176.43 511.771 2178.95 512.211 Q2181.48 512.65 2184.12 513.53 Z" fill="#000000" fill-rule="nonzero" fill-opacity="1" /><path clip-path="url(#clip180)" d="M2208.07 528.322 Q2211.43 529.039 2213.3 531.308 Q2215.2 533.576 2215.2 536.909 Q2215.2 542.025 2211.68 544.826 Q2208.17 547.627 2201.68 547.627 Q2199.51 547.627 2197.19 547.187 Q2194.9 546.771 2192.45 545.914 L2192.45 541.4 Q2194.39 542.534 2196.71 543.113 Q2199.02 543.692 2201.55 543.692 Q2205.94 543.692 2208.24 541.956 Q2210.55 540.22 2210.55 536.909 Q2210.55 533.854 2208.4 532.141 Q2206.27 530.405 2202.45 530.405 L2198.42 530.405 L2198.42 526.562 L2202.63 526.562 Q2206.08 526.562 2207.91 525.197 Q2209.74 523.808 2209.74 521.215 Q2209.74 518.553 2207.84 517.141 Q2205.97 515.706 2202.45 515.706 Q2200.53 515.706 2198.33 516.123 Q2196.13 516.539 2193.49 517.419 L2193.49 513.252 Q2196.15 512.511 2198.47 512.141 Q2200.81 511.771 2202.87 511.771 Q2208.19 511.771 2211.29 514.201 Q2214.39 516.609 2214.39 520.729 Q2214.39 523.599 2212.75 525.59 Q2211.11 527.558 2208.07 528.322 Z" fill="#000000" fill-rule="nonzero" fill-opacity="1" /><polyline clip-path="url(#clip180)" style="stroke:#c68125; stroke-linecap:round; stroke-linejoin:round; stroke-width:4; stroke-opacity:1; fill:none" points="1993.87,581.516 2137.87,581.516 "/>
<path clip-path="url(#clip180)" d="M2184.12 565.37 L2184.12 569.93 Q2181.45 568.657 2179.09 568.032 Q2176.73 567.407 2174.53 567.407 Q2170.71 567.407 2168.63 568.888 Q2166.57 570.37 2166.57 573.101 Q2166.57 575.393 2167.93 576.574 Q2169.32 577.731 2173.17 578.449 L2175.99 579.027 Q2181.22 580.023 2183.7 582.546 Q2186.2 585.046 2186.2 589.259 Q2186.2 594.282 2182.82 596.874 Q2179.46 599.467 2172.96 599.467 Q2170.5 599.467 2167.73 598.911 Q2164.97 598.356 2162.01 597.268 L2162.01 592.453 Q2164.86 594.05 2167.59 594.861 Q2170.32 595.671 2172.96 595.671 Q2176.96 595.671 2179.14 594.097 Q2181.31 592.523 2181.31 589.606 Q2181.31 587.06 2179.74 585.624 Q2178.19 584.189 2174.62 583.472 L2171.78 582.916 Q2166.55 581.875 2164.21 579.652 Q2161.87 577.43 2161.87 573.472 Q2161.87 568.888 2165.09 566.25 Q2168.33 563.611 2174 563.611 Q2176.43 563.611 2178.95 564.051 Q2181.48 564.49 2184.12 565.37 Z" fill="#000000" fill-rule="nonzero" fill-opacity="1" /><path clip-path="url(#clip180)" d="M2206.75 568.31 L2194.95 586.759 L2206.75 586.759 L2206.75 568.31 M2205.53 564.236 L2211.41 564.236 L2211.41 586.759 L2216.34 586.759 L2216.34 590.648 L2211.41 590.648 L2211.41 598.796 L2206.75 598.796 L2206.75 590.648 L2191.15 590.648 L2191.15 586.134 L2205.53 564.236 Z" fill="#000000" fill-rule="nonzero" fill-opacity="1" /><polyline clip-path="url(#clip180)" style="stroke:#00a98d; stroke-linecap:round; stroke-linejoin:round; stroke-width:4; stroke-opacity:1; fill:none" points="1993.87,633.356 2137.87,633.356 "/>
<path clip-path="url(#clip180)" d="M2184.12 617.21 L2184.12 621.77 Q2181.45 620.497 2179.09 619.872 Q2176.73 619.247 2174.53 619.247 Q2170.71 619.247 2168.63 620.728 Q2166.57 622.21 2166.57 624.941 Q2166.57 627.233 2167.93 628.414 Q2169.32 629.571 2173.17 630.289 L2175.99 630.867 Q2181.22 631.863 2183.7 634.386 Q2186.2 636.886 2186.2 641.099 Q2186.2 646.122 2182.82 648.714 Q2179.46 651.307 2172.96 651.307 Q2170.5 651.307 2167.73 650.751 Q2164.97 650.196 2162.01 649.108 L2162.01 644.293 Q2164.86 645.89 2167.59 646.701 Q2170.32 647.511 2172.96 647.511 Q2176.96 647.511 2179.14 645.937 Q2181.31 644.363 2181.31 641.446 Q2181.31 638.9 2179.74 637.464 Q2178.19 636.029 2174.62 635.312 L2171.78 634.756 Q2166.55 633.715 2164.21 631.492 Q2161.87 629.27 2161.87 625.312 Q2161.87 620.728 2165.09 618.09 Q2168.33 615.451 2174 615.451 Q2176.43 615.451 2178.95 615.891 Q2181.48 616.33 2184.12 617.21 Z" fill="#000000" fill-rule="nonzero" fill-opacity="1" /><path clip-path="url(#clip180)" d="M2193.95 616.076 L2212.31 616.076 L2212.31 620.011 L2198.24 620.011 L2198.24 628.483 Q2199.25 628.136 2200.27 627.974 Q2201.29 627.789 2202.31 627.789 Q2208.1 627.789 2211.48 630.96 Q2214.86 634.131 2214.86 639.548 Q2214.86 645.126 2211.38 648.228 Q2207.91 651.307 2201.59 651.307 Q2199.42 651.307 2197.15 650.937 Q2194.9 650.566 2192.49 649.826 L2192.49 645.126 Q2194.58 646.261 2196.8 646.816 Q2199.02 647.372 2201.5 647.372 Q2205.5 647.372 2207.84 645.265 Q2210.18 643.159 2210.18 639.548 Q2210.18 635.937 2207.84 633.83 Q2205.5 631.724 2201.5 631.724 Q2199.62 631.724 2197.75 632.14 Q2195.9 632.557 2193.95 633.437 L2193.95 616.076 Z" fill="#000000" fill-rule="nonzero" fill-opacity="1" /><polyline clip-path="url(#clip180)" style="stroke:#8e971d; stroke-linecap:round; stroke-linejoin:round; stroke-width:4; stroke-opacity:1; fill:none" points="1993.87,685.196 2137.87,685.196 "/>
<path clip-path="url(#clip180)" d="M2184.12 669.05 L2184.12 673.61 Q2181.45 672.337 2179.09 671.712 Q2176.73 671.087 2174.53 671.087 Q2170.71 671.087 2168.63 672.568 Q2166.57 674.05 2166.57 676.781 Q2166.57 679.073 2167.93 680.254 Q2169.32 681.411 2173.17 682.129 L2175.99 682.707 Q2181.22 683.703 2183.7 686.226 Q2186.2 688.726 2186.2 692.939 Q2186.2 697.962 2182.82 700.554 Q2179.46 703.147 2172.96 703.147 Q2170.5 703.147 2167.73 702.591 Q2164.97 702.036 2162.01 700.948 L2162.01 696.133 Q2164.86 697.73 2167.59 698.541 Q2170.32 699.351 2172.96 699.351 Q2176.96 699.351 2179.14 697.777 Q2181.31 696.203 2181.31 693.286 Q2181.31 690.74 2179.74 689.304 Q2178.19 687.869 2174.62 687.152 L2171.78 686.596 Q2166.55 685.555 2164.21 683.332 Q2161.87 681.11 2161.87 677.152 Q2161.87 672.568 2165.09 669.93 Q2168.33 667.291 2174 667.291 Q2176.43 667.291 2178.95 667.731 Q2181.48 668.17 2184.12 669.05 Z" fill="#000000" fill-rule="nonzero" fill-opacity="1" /><path clip-path="url(#clip180)" d="M2204.49 683.332 Q2201.34 683.332 2199.49 685.485 Q2197.66 687.638 2197.66 691.388 Q2197.66 695.115 2199.49 697.291 Q2201.34 699.443 2204.49 699.443 Q2207.63 699.443 2209.46 697.291 Q2211.31 695.115 2211.31 691.388 Q2211.31 687.638 2209.46 685.485 Q2207.63 683.332 2204.49 683.332 M2213.77 668.68 L2213.77 672.939 Q2212.01 672.106 2210.2 671.666 Q2208.42 671.226 2206.66 671.226 Q2202.03 671.226 2199.58 674.351 Q2197.15 677.476 2196.8 683.795 Q2198.17 681.781 2200.23 680.717 Q2202.29 679.629 2204.76 679.629 Q2209.97 679.629 2212.98 682.8 Q2216.01 685.948 2216.01 691.388 Q2216.01 696.712 2212.87 699.929 Q2209.72 703.147 2204.49 703.147 Q2198.49 703.147 2195.32 698.564 Q2192.15 693.957 2192.15 685.23 Q2192.15 677.036 2196.04 672.175 Q2199.93 667.291 2206.48 667.291 Q2208.24 667.291 2210.02 667.638 Q2211.82 667.985 2213.77 668.68 Z" fill="#000000" fill-rule="nonzero" fill-opacity="1" /></svg>
