<?xml version="1.0" encoding="utf-8"?>
<svg xmlns="http://www.w3.org/2000/svg" xmlns:xlink="http://www.w3.org/1999/xlink" width="600" height="400" viewBox="0 0 2400 1600">
<defs>
  <clipPath id="clip580">
    <rect x="0" y="0" width="2400" height="1600"/>
  </clipPath>
</defs>
<path clip-path="url(#clip580)" d="M0 1600 L2400 1600 L2400 0 L0 0  Z" fill="#ffffff" fill-rule="evenodd" fill-opacity="1"/>
<defs>
  <clipPath id="clip581">
    <rect x="480" y="0" width="1681" height="1600"/>
  </clipPath>
</defs>
<path clip-path="url(#clip580)" d="M210.977 1423.18 L2352.76 1423.18 L2352.76 47.2441 L210.977 47.2441  Z" fill="#ffffff" fill-rule="evenodd" fill-opacity="1"/>
<defs>
  <clipPath id="clip582">
    <rect x="210" y="47" width="2143" height="1377"/>
  </clipPath>
</defs>
<polyline clip-path="url(#clip582)" style="stroke:#000000; stroke-linecap:round; stroke-linejoin:round; stroke-width:2; stroke-opacity:0.1; fill:none" points="468.036,1423.18 468.036,47.2441 "/>
<polyline clip-path="url(#clip582)" style="stroke:#000000; stroke-linecap:round; stroke-linejoin:round; stroke-width:2; stroke-opacity:0.1; fill:none" points="748.667,1423.18 748.667,47.2441 "/>
<polyline clip-path="url(#clip582)" style="stroke:#000000; stroke-linecap:round; stroke-linejoin:round; stroke-width:2; stroke-opacity:0.1; fill:none" points="1029.3,1423.18 1029.3,47.2441 "/>
<polyline clip-path="url(#clip582)" style="stroke:#000000; stroke-linecap:round; stroke-linejoin:round; stroke-width:2; stroke-opacity:0.1; fill:none" points="1309.93,1423.18 1309.93,47.2441 "/>
<polyline clip-path="url(#clip582)" style="stroke:#000000; stroke-linecap:round; stroke-linejoin:round; stroke-width:2; stroke-opacity:0.1; fill:none" points="1590.56,1423.18 1590.56,47.2441 "/>
<polyline clip-path="url(#clip582)" style="stroke:#000000; stroke-linecap:round; stroke-linejoin:round; stroke-width:2; stroke-opacity:0.1; fill:none" points="1871.19,1423.18 1871.19,47.2441 "/>
<polyline clip-path="url(#clip582)" style="stroke:#000000; stroke-linecap:round; stroke-linejoin:round; stroke-width:2; stroke-opacity:0.1; fill:none" points="2151.82,1423.18 2151.82,47.2441 "/>
<polyline clip-path="url(#clip582)" style="stroke:#000000; stroke-linecap:round; stroke-linejoin:round; stroke-width:2; stroke-opacity:0.1; fill:none" points="210.977,1216.5 2352.76,1216.5 "/>
<polyline clip-path="url(#clip582)" style="stroke:#000000; stroke-linecap:round; stroke-linejoin:round; stroke-width:2; stroke-opacity:0.1; fill:none" points="210.977,843.377 2352.76,843.377 "/>
<polyline clip-path="url(#clip582)" style="stroke:#000000; stroke-linecap:round; stroke-linejoin:round; stroke-width:2; stroke-opacity:0.1; fill:none" points="210.977,470.249 2352.76,470.249 "/>
<polyline clip-path="url(#clip582)" style="stroke:#000000; stroke-linecap:round; stroke-linejoin:round; stroke-width:2; stroke-opacity:0.1; fill:none" points="210.977,97.1215 2352.76,97.1215 "/>
<polyline clip-path="url(#clip580)" style="stroke:#000000; stroke-linecap:round; stroke-linejoin:round; stroke-width:4; stroke-opacity:1; fill:none" points="210.977,1423.18 2352.76,1423.18 "/>
<polyline clip-path="url(#clip580)" style="stroke:#000000; stroke-linecap:round; stroke-linejoin:round; stroke-width:4; stroke-opacity:1; fill:none" points="468.036,1423.18 468.036,1404.28 "/>
<polyline clip-path="url(#clip580)" style="stroke:#000000; stroke-linecap:round; stroke-linejoin:round; stroke-width:4; stroke-opacity:1; fill:none" points="748.667,1423.18 748.667,1404.28 "/>
<polyline clip-path="url(#clip580)" style="stroke:#000000; stroke-linecap:round; stroke-linejoin:round; stroke-width:4; stroke-opacity:1; fill:none" points="1029.3,1423.18 1029.3,1404.28 "/>
<polyline clip-path="url(#clip580)" style="stroke:#000000; stroke-linecap:round; stroke-linejoin:round; stroke-width:4; stroke-opacity:1; fill:none" points="1309.93,1423.18 1309.93,1404.28 "/>
<polyline clip-path="url(#clip580)" style="stroke:#000000; stroke-linecap:round; stroke-linejoin:round; stroke-width:4; stroke-opacity:1; fill:none" points="1590.56,1423.18 1590.56,1404.28 "/>
<polyline clip-path="url(#clip580)" style="stroke:#000000; stroke-linecap:round; stroke-linejoin:round; stroke-width:4; stroke-opacity:1; fill:none" points="1871.19,1423.18 1871.19,1404.28 "/>
<polyline clip-path="url(#clip580)" style="stroke:#000000; stroke-linecap:round; stroke-linejoin:round; stroke-width:4; stroke-opacity:1; fill:none" points="2151.82,1423.18 2151.82,1404.28 "/>
<path clip-path="url(#clip580)" d="M446.809 1481.64 L463.128 1481.64 L463.128 1485.58 L441.184 1485.58 L441.184 1481.64 Q443.846 1478.89 448.429 1474.26 Q453.036 1469.61 454.216 1468.27 Q456.462 1465.74 457.341 1464.01 Q458.244 1462.25 458.244 1460.56 Q458.244 1457.8 456.3 1456.07 Q454.378 1454.33 451.277 1454.33 Q449.078 1454.33 446.624 1455.09 Q444.193 1455.86 441.416 1457.41 L441.416 1452.69 Q444.24 1451.55 446.693 1450.97 Q449.147 1450.39 451.184 1450.39 Q456.554 1450.39 459.749 1453.08 Q462.943 1455.77 462.943 1460.26 Q462.943 1462.39 462.133 1464.31 Q461.346 1466.2 459.239 1468.8 Q458.661 1469.47 455.559 1472.69 Q452.457 1475.88 446.809 1481.64 Z" fill="#000000" fill-rule="nonzero" fill-opacity="1" /><path clip-path="url(#clip580)" d="M482.943 1454.1 Q479.332 1454.1 477.503 1457.66 Q475.698 1461.2 475.698 1468.33 Q475.698 1475.44 477.503 1479.01 Q479.332 1482.55 482.943 1482.55 Q486.577 1482.55 488.383 1479.01 Q490.212 1475.44 490.212 1468.33 Q490.212 1461.2 488.383 1457.66 Q486.577 1454.1 482.943 1454.1 M482.943 1450.39 Q488.753 1450.39 491.809 1455 Q494.887 1459.58 494.887 1468.33 Q494.887 1477.06 491.809 1481.67 Q488.753 1486.25 482.943 1486.25 Q477.133 1486.25 474.054 1481.67 Q470.999 1477.06 470.999 1468.33 Q470.999 1459.58 474.054 1455 Q477.133 1450.39 482.943 1450.39 Z" fill="#000000" fill-rule="nonzero" fill-opacity="1" /><path clip-path="url(#clip580)" d="M736.838 1455.09 L725.033 1473.54 L736.838 1473.54 L736.838 1455.09 M735.612 1451.02 L741.491 1451.02 L741.491 1473.54 L746.422 1473.54 L746.422 1477.43 L741.491 1477.43 L741.491 1485.58 L736.838 1485.58 L736.838 1477.43 L721.237 1477.43 L721.237 1472.92 L735.612 1451.02 Z" fill="#000000" fill-rule="nonzero" fill-opacity="1" /><path clip-path="url(#clip580)" d="M764.153 1454.1 Q760.542 1454.1 758.713 1457.66 Q756.908 1461.2 756.908 1468.33 Q756.908 1475.44 758.713 1479.01 Q760.542 1482.55 764.153 1482.55 Q767.787 1482.55 769.593 1479.01 Q771.422 1475.44 771.422 1468.33 Q771.422 1461.2 769.593 1457.66 Q767.787 1454.1 764.153 1454.1 M764.153 1450.39 Q769.963 1450.39 773.019 1455 Q776.098 1459.58 776.098 1468.33 Q776.098 1477.06 773.019 1481.67 Q769.963 1486.25 764.153 1486.25 Q758.343 1486.25 755.264 1481.67 Q752.209 1477.06 752.209 1468.33 Q752.209 1459.58 755.264 1455 Q758.343 1450.39 764.153 1450.39 Z" fill="#000000" fill-rule="nonzero" fill-opacity="1" /><path clip-path="url(#clip580)" d="M1014.7 1466.44 Q1011.56 1466.44 1009.7 1468.59 Q1007.87 1470.74 1007.87 1474.49 Q1007.87 1478.22 1009.7 1480.39 Q1011.56 1482.55 1014.7 1482.55 Q1017.85 1482.55 1019.68 1480.39 Q1021.53 1478.22 1021.53 1474.49 Q1021.53 1470.74 1019.68 1468.59 Q1017.85 1466.44 1014.7 1466.44 M1023.99 1451.78 L1023.99 1456.04 Q1022.23 1455.21 1020.42 1454.77 Q1018.64 1454.33 1016.88 1454.33 Q1012.25 1454.33 1009.8 1457.45 Q1007.37 1460.58 1007.02 1466.9 Q1008.38 1464.89 1010.44 1463.82 Q1012.5 1462.73 1014.98 1462.73 Q1020.19 1462.73 1023.2 1465.9 Q1026.23 1469.05 1026.23 1474.49 Q1026.23 1479.82 1023.08 1483.03 Q1019.94 1486.25 1014.7 1486.25 Q1008.71 1486.25 1005.54 1481.67 Q1002.37 1477.06 1002.37 1468.33 Q1002.37 1460.14 1006.25 1455.28 Q1010.14 1450.39 1016.69 1450.39 Q1018.45 1450.39 1020.24 1450.74 Q1022.04 1451.09 1023.99 1451.78 Z" fill="#000000" fill-rule="nonzero" fill-opacity="1" /><path clip-path="url(#clip580)" d="M1044.29 1454.1 Q1040.68 1454.1 1038.85 1457.66 Q1037.04 1461.2 1037.04 1468.33 Q1037.04 1475.44 1038.85 1479.01 Q1040.68 1482.55 1044.29 1482.55 Q1047.92 1482.55 1049.73 1479.01 Q1051.56 1475.44 1051.56 1468.33 Q1051.56 1461.2 1049.73 1457.66 Q1047.92 1454.1 1044.29 1454.1 M1044.29 1450.39 Q1050.1 1450.39 1053.15 1455 Q1056.23 1459.58 1056.23 1468.33 Q1056.23 1477.06 1053.15 1481.67 Q1050.1 1486.25 1044.29 1486.25 Q1038.48 1486.25 1035.4 1481.67 Q1032.34 1477.06 1032.34 1468.33 Q1032.34 1459.58 1035.4 1455 Q1038.48 1450.39 1044.29 1450.39 Z" fill="#000000" fill-rule="nonzero" fill-opacity="1" /><path clip-path="url(#clip580)" d="M1294.8 1469.17 Q1291.47 1469.17 1289.55 1470.95 Q1287.65 1472.73 1287.65 1475.86 Q1287.65 1478.98 1289.55 1480.77 Q1291.47 1482.55 1294.8 1482.55 Q1298.14 1482.55 1300.06 1480.77 Q1301.98 1478.96 1301.98 1475.86 Q1301.98 1472.73 1300.06 1470.95 Q1298.16 1469.17 1294.8 1469.17 M1290.13 1467.18 Q1287.12 1466.44 1285.43 1464.38 Q1283.76 1462.32 1283.76 1459.35 Q1283.76 1455.21 1286.7 1452.8 Q1289.66 1450.39 1294.8 1450.39 Q1299.96 1450.39 1302.9 1452.8 Q1305.84 1455.21 1305.84 1459.35 Q1305.84 1462.32 1304.15 1464.38 Q1302.49 1466.44 1299.5 1467.18 Q1302.88 1467.96 1304.76 1470.26 Q1306.65 1472.55 1306.65 1475.86 Q1306.65 1480.88 1303.58 1483.57 Q1300.52 1486.25 1294.8 1486.25 Q1289.09 1486.25 1286.01 1483.57 Q1282.95 1480.88 1282.95 1475.86 Q1282.95 1472.55 1284.85 1470.26 Q1286.75 1467.96 1290.13 1467.18 M1288.41 1459.79 Q1288.41 1462.48 1290.08 1463.98 Q1291.77 1465.49 1294.8 1465.49 Q1297.81 1465.49 1299.5 1463.98 Q1301.21 1462.48 1301.21 1459.79 Q1301.21 1457.11 1299.5 1455.6 Q1297.81 1454.1 1294.8 1454.1 Q1291.77 1454.1 1290.08 1455.6 Q1288.41 1457.11 1288.41 1459.79 Z" fill="#000000" fill-rule="nonzero" fill-opacity="1" /><path clip-path="url(#clip580)" d="M1324.96 1454.1 Q1321.35 1454.1 1319.52 1457.66 Q1317.72 1461.2 1317.72 1468.33 Q1317.72 1475.44 1319.52 1479.01 Q1321.35 1482.55 1324.96 1482.55 Q1328.6 1482.55 1330.4 1479.01 Q1332.23 1475.44 1332.23 1468.33 Q1332.23 1461.2 1330.4 1457.66 Q1328.6 1454.1 1324.96 1454.1 M1324.96 1450.39 Q1330.77 1450.39 1333.83 1455 Q1336.91 1459.58 1336.91 1468.33 Q1336.91 1477.06 1333.83 1481.67 Q1330.77 1486.25 1324.96 1486.25 Q1319.15 1486.25 1316.08 1481.67 Q1313.02 1477.06 1313.02 1468.33 Q1313.02 1459.58 1316.08 1455 Q1319.15 1450.39 1324.96 1450.39 Z" fill="#000000" fill-rule="nonzero" fill-opacity="1" /><path clip-path="url(#clip580)" d="M1550.17 1481.64 L1557.81 1481.64 L1557.81 1455.28 L1549.5 1456.95 L1549.5 1452.69 L1557.76 1451.02 L1562.44 1451.02 L1562.44 1481.64 L1570.08 1481.64 L1570.08 1485.58 L1550.17 1485.58 L1550.17 1481.64 Z" fill="#000000" fill-rule="nonzero" fill-opacity="1" /><path clip-path="url(#clip580)" d="M1589.52 1454.1 Q1585.91 1454.1 1584.08 1457.66 Q1582.27 1461.2 1582.27 1468.33 Q1582.27 1475.44 1584.08 1479.01 Q1585.91 1482.55 1589.52 1482.55 Q1593.15 1482.55 1594.96 1479.01 Q1596.79 1475.44 1596.79 1468.33 Q1596.79 1461.2 1594.96 1457.66 Q1593.15 1454.1 1589.52 1454.1 M1589.52 1450.39 Q1595.33 1450.39 1598.39 1455 Q1601.46 1459.58 1601.46 1468.33 Q1601.46 1477.06 1598.39 1481.67 Q1595.33 1486.25 1589.52 1486.25 Q1583.71 1486.25 1580.63 1481.67 Q1577.58 1477.06 1577.58 1468.33 Q1577.58 1459.58 1580.63 1455 Q1583.71 1450.39 1589.52 1450.39 Z" fill="#000000" fill-rule="nonzero" fill-opacity="1" /><path clip-path="url(#clip580)" d="M1619.68 1454.1 Q1616.07 1454.1 1614.24 1457.66 Q1612.44 1461.2 1612.44 1468.33 Q1612.44 1475.44 1614.24 1479.01 Q1616.07 1482.55 1619.68 1482.55 Q1623.32 1482.55 1625.12 1479.01 Q1626.95 1475.44 1626.95 1468.33 Q1626.95 1461.2 1625.12 1457.66 Q1623.32 1454.1 1619.68 1454.1 M1619.68 1450.39 Q1625.49 1450.39 1628.55 1455 Q1631.63 1459.58 1631.63 1468.33 Q1631.63 1477.06 1628.55 1481.67 Q1625.49 1486.25 1619.68 1486.25 Q1613.87 1486.25 1610.79 1481.67 Q1607.74 1477.06 1607.74 1468.33 Q1607.74 1459.58 1610.79 1455 Q1613.87 1450.39 1619.68 1450.39 Z" fill="#000000" fill-rule="nonzero" fill-opacity="1" /><path clip-path="url(#clip580)" d="M1830.8 1481.64 L1838.44 1481.64 L1838.44 1455.28 L1830.13 1456.95 L1830.13 1452.69 L1838.39 1451.02 L1843.07 1451.02 L1843.07 1481.64 L1850.71 1481.64 L1850.71 1485.58 L1830.8 1485.58 L1830.8 1481.64 Z" fill="#000000" fill-rule="nonzero" fill-opacity="1" /><path clip-path="url(#clip580)" d="M1864.18 1481.64 L1880.5 1481.64 L1880.5 1485.58 L1858.55 1485.58 L1858.55 1481.64 Q1861.22 1478.89 1865.8 1474.26 Q1870.41 1469.61 1871.59 1468.27 Q1873.83 1465.74 1874.71 1464.01 Q1875.61 1462.25 1875.61 1460.56 Q1875.61 1457.8 1873.67 1456.07 Q1871.75 1454.33 1868.65 1454.33 Q1866.45 1454.33 1863.99 1455.09 Q1861.56 1455.86 1858.79 1457.41 L1858.79 1452.69 Q1861.61 1451.55 1864.06 1450.97 Q1866.52 1450.39 1868.55 1450.39 Q1873.92 1450.39 1877.12 1453.08 Q1880.31 1455.77 1880.31 1460.26 Q1880.31 1462.39 1879.5 1464.31 Q1878.72 1466.2 1876.61 1468.8 Q1876.03 1469.47 1872.93 1472.69 Q1869.83 1475.88 1864.18 1481.64 Z" fill="#000000" fill-rule="nonzero" fill-opacity="1" /><path clip-path="url(#clip580)" d="M1900.31 1454.1 Q1896.7 1454.1 1894.87 1457.66 Q1893.07 1461.2 1893.07 1468.33 Q1893.07 1475.44 1894.87 1479.01 Q1896.7 1482.55 1900.31 1482.55 Q1903.95 1482.55 1905.75 1479.01 Q1907.58 1475.44 1907.58 1468.33 Q1907.58 1461.2 1905.75 1457.66 Q1903.95 1454.1 1900.31 1454.1 M1900.31 1450.39 Q1906.12 1450.39 1909.18 1455 Q1912.26 1459.58 1912.26 1468.33 Q1912.26 1477.06 1909.18 1481.67 Q1906.12 1486.25 1900.31 1486.25 Q1894.5 1486.25 1891.42 1481.67 Q1888.37 1477.06 1888.37 1468.33 Q1888.37 1459.58 1891.42 1455 Q1894.5 1450.39 1900.31 1450.39 Z" fill="#000000" fill-rule="nonzero" fill-opacity="1" /><path clip-path="url(#clip580)" d="M2111.43 1481.64 L2119.07 1481.64 L2119.07 1455.28 L2110.76 1456.95 L2110.76 1452.69 L2119.02 1451.02 L2123.7 1451.02 L2123.7 1481.64 L2131.34 1481.64 L2131.34 1485.58 L2111.43 1485.58 L2111.43 1481.64 Z" fill="#000000" fill-rule="nonzero" fill-opacity="1" /><path clip-path="url(#clip580)" d="M2153.63 1455.09 L2141.82 1473.54 L2153.63 1473.54 L2153.63 1455.09 M2152.4 1451.02 L2158.28 1451.02 L2158.28 1473.54 L2163.21 1473.54 L2163.21 1477.43 L2158.28 1477.43 L2158.28 1485.58 L2153.63 1485.58 L2153.63 1477.43 L2138.03 1477.43 L2138.03 1472.92 L2152.4 1451.02 Z" fill="#000000" fill-rule="nonzero" fill-opacity="1" /><path clip-path="url(#clip580)" d="M2180.94 1454.1 Q2177.33 1454.1 2175.5 1457.66 Q2173.7 1461.2 2173.7 1468.33 Q2173.7 1475.44 2175.5 1479.01 Q2177.33 1482.55 2180.94 1482.55 Q2184.58 1482.55 2186.38 1479.01 Q2188.21 1475.44 2188.21 1468.33 Q2188.21 1461.2 2186.38 1457.66 Q2184.58 1454.1 2180.94 1454.1 M2180.94 1450.39 Q2186.75 1450.39 2189.81 1455 Q2192.89 1459.58 2192.89 1468.33 Q2192.89 1477.06 2189.81 1481.67 Q2186.75 1486.25 2180.94 1486.25 Q2175.13 1486.25 2172.06 1481.67 Q2169 1477.06 2169 1468.33 Q2169 1459.58 2172.06 1455 Q2175.13 1450.39 2180.94 1450.39 Z" fill="#000000" fill-rule="nonzero" fill-opacity="1" /><path clip-path="url(#clip580)" d="M1092.09 1520.52 L1132.29 1520.52 L1132.29 1525.93 L1115.42 1525.93 L1115.42 1568.04 L1108.96 1568.04 L1108.96 1525.93 L1092.09 1525.93 L1092.09 1520.52 Z" fill="#000000" fill-rule="nonzero" fill-opacity="1" /><path clip-path="url(#clip580)" d="M1136.24 1532.4 L1142.09 1532.4 L1142.09 1568.04 L1136.24 1568.04 L1136.24 1532.4 M1136.24 1518.52 L1142.09 1518.52 L1142.09 1525.93 L1136.24 1525.93 L1136.24 1518.52 Z" fill="#000000" fill-rule="nonzero" fill-opacity="1" /><path clip-path="url(#clip580)" d="M1182.1 1539.24 Q1184.3 1535.29 1187.35 1533.41 Q1190.41 1531.54 1194.55 1531.54 Q1200.12 1531.54 1203.14 1535.45 Q1206.16 1539.33 1206.16 1546.53 L1206.16 1568.04 L1200.27 1568.04 L1200.27 1546.72 Q1200.27 1541.59 1198.46 1539.11 Q1196.65 1536.63 1192.92 1536.63 Q1188.37 1536.63 1185.73 1539.65 Q1183.09 1542.68 1183.09 1547.9 L1183.09 1568.04 L1177.2 1568.04 L1177.2 1546.72 Q1177.2 1541.56 1175.38 1539.11 Q1173.57 1536.63 1169.78 1536.63 Q1165.29 1536.63 1162.65 1539.68 Q1160.01 1542.71 1160.01 1547.9 L1160.01 1568.04 L1154.12 1568.04 L1154.12 1532.4 L1160.01 1532.4 L1160.01 1537.93 Q1162.02 1534.66 1164.82 1533.1 Q1167.62 1531.54 1171.47 1531.54 Q1175.35 1531.54 1178.06 1533.51 Q1180.8 1535.48 1182.1 1539.24 Z" fill="#000000" fill-rule="nonzero" fill-opacity="1" /><path clip-path="url(#clip580)" d="M1248.34 1548.76 L1248.34 1551.62 L1221.41 1551.62 Q1221.79 1557.67 1225.04 1560.85 Q1228.32 1564 1234.14 1564 Q1237.51 1564 1240.66 1563.17 Q1243.85 1562.35 1246.97 1560.69 L1246.97 1566.23 Q1243.82 1567.57 1240.51 1568.27 Q1237.2 1568.97 1233.79 1568.97 Q1225.26 1568.97 1220.26 1564 Q1215.3 1559.04 1215.3 1550.57 Q1215.3 1541.82 1220.01 1536.69 Q1224.75 1531.54 1232.77 1531.54 Q1239.96 1531.54 1244.13 1536.18 Q1248.34 1540.8 1248.34 1548.76 M1242.48 1547.04 Q1242.42 1542.23 1239.77 1539.37 Q1237.16 1536.5 1232.83 1536.5 Q1227.93 1536.5 1224.97 1539.27 Q1222.04 1542.04 1221.6 1547.07 L1242.48 1547.04 Z" fill="#000000" fill-rule="nonzero" fill-opacity="1" /><path clip-path="url(#clip580)" d="M1292.74 1518.58 Q1288.47 1525.9 1286.4 1533.06 Q1284.33 1540.23 1284.33 1547.58 Q1284.33 1554.93 1286.4 1562.16 Q1288.5 1569.35 1292.74 1576.64 L1287.64 1576.64 Q1282.87 1569.16 1280.48 1561.93 Q1278.13 1554.71 1278.13 1547.58 Q1278.13 1540.48 1280.48 1533.29 Q1282.84 1526.09 1287.64 1518.58 L1292.74 1518.58 Z" fill="#000000" fill-rule="nonzero" fill-opacity="1" /><path clip-path="url(#clip580)" d="M1327.56 1537.81 L1327.56 1518.52 L1333.41 1518.52 L1333.41 1568.04 L1327.56 1568.04 L1327.56 1562.7 Q1325.71 1565.88 1322.88 1567.44 Q1320.08 1568.97 1316.13 1568.97 Q1309.67 1568.97 1305.59 1563.81 Q1301.55 1558.65 1301.55 1550.25 Q1301.55 1541.85 1305.59 1536.69 Q1309.67 1531.54 1316.13 1531.54 Q1320.08 1531.54 1322.88 1533.1 Q1325.71 1534.62 1327.56 1537.81 M1307.6 1550.25 Q1307.6 1556.71 1310.24 1560.4 Q1312.92 1564.07 1317.56 1564.07 Q1322.21 1564.07 1324.88 1560.4 Q1327.56 1556.71 1327.56 1550.25 Q1327.56 1543.79 1324.88 1540.13 Q1322.21 1536.44 1317.56 1536.44 Q1312.92 1536.44 1310.24 1540.13 Q1307.6 1543.79 1307.6 1550.25 Z" fill="#000000" fill-rule="nonzero" fill-opacity="1" /><path clip-path="url(#clip580)" d="M1361.68 1550.12 Q1354.58 1550.12 1351.84 1551.75 Q1349.1 1553.37 1349.1 1557.29 Q1349.1 1560.4 1351.14 1562.25 Q1353.21 1564.07 1356.74 1564.07 Q1361.61 1564.07 1364.54 1560.63 Q1367.5 1557.16 1367.5 1551.43 L1367.5 1550.12 L1361.68 1550.12 M1373.36 1547.71 L1373.36 1568.04 L1367.5 1568.04 L1367.5 1562.63 Q1365.5 1565.88 1362.5 1567.44 Q1359.51 1568.97 1355.18 1568.97 Q1349.71 1568.97 1346.46 1565.91 Q1343.25 1562.82 1343.25 1557.67 Q1343.25 1551.65 1347.26 1548.6 Q1351.3 1545.54 1359.29 1545.54 L1367.5 1545.54 L1367.5 1544.97 Q1367.5 1540.93 1364.83 1538.73 Q1362.19 1536.5 1357.38 1536.5 Q1354.32 1536.5 1351.43 1537.23 Q1348.53 1537.97 1345.86 1539.43 L1345.86 1534.02 Q1349.07 1532.78 1352.1 1532.17 Q1355.12 1531.54 1357.98 1531.54 Q1365.72 1531.54 1369.54 1535.55 Q1373.36 1539.56 1373.36 1547.71 Z" fill="#000000" fill-rule="nonzero" fill-opacity="1" /><path clip-path="url(#clip580)" d="M1400.25 1571.35 Q1397.77 1577.72 1395.41 1579.66 Q1393.06 1581.6 1389.11 1581.6 L1384.43 1581.6 L1384.43 1576.7 L1387.87 1576.7 Q1390.29 1576.7 1391.63 1575.56 Q1392.96 1574.41 1394.59 1570.14 L1395.64 1567.47 L1381.22 1532.4 L1387.43 1532.4 L1398.57 1560.28 L1409.71 1532.4 L1415.91 1532.4 L1400.25 1571.35 Z" fill="#000000" fill-rule="nonzero" fill-opacity="1" /><path clip-path="url(#clip580)" d="M1446.72 1533.45 L1446.72 1538.98 Q1444.24 1537.71 1441.57 1537.07 Q1438.89 1536.44 1436.03 1536.44 Q1431.67 1536.44 1429.47 1537.77 Q1427.31 1539.11 1427.31 1541.79 Q1427.31 1543.82 1428.87 1545 Q1430.43 1546.15 1435.14 1547.2 L1437.14 1547.64 Q1443.38 1548.98 1445.99 1551.43 Q1448.63 1553.85 1448.63 1558.21 Q1448.63 1563.17 1444.69 1566.07 Q1440.77 1568.97 1433.9 1568.97 Q1431.03 1568.97 1427.91 1568.39 Q1424.82 1567.85 1421.39 1566.74 L1421.39 1560.69 Q1424.63 1562.38 1427.78 1563.24 Q1430.94 1564.07 1434.02 1564.07 Q1438.16 1564.07 1440.39 1562.66 Q1442.62 1561.23 1442.62 1558.65 Q1442.62 1556.27 1440.99 1554.99 Q1439.4 1553.72 1433.96 1552.54 L1431.92 1552.07 Q1426.48 1550.92 1424.06 1548.56 Q1421.64 1546.18 1421.64 1542.04 Q1421.64 1537.01 1425.21 1534.27 Q1428.77 1531.54 1435.33 1531.54 Q1438.57 1531.54 1441.44 1532.01 Q1444.3 1532.49 1446.72 1533.45 Z" fill="#000000" fill-rule="nonzero" fill-opacity="1" /><path clip-path="url(#clip580)" d="M1457.03 1518.58 L1462.13 1518.58 Q1466.9 1526.09 1469.26 1533.29 Q1471.64 1540.48 1471.64 1547.58 Q1471.64 1554.71 1469.26 1561.93 Q1466.9 1569.16 1462.13 1576.64 L1457.03 1576.64 Q1461.27 1569.35 1463.34 1562.16 Q1465.44 1554.93 1465.44 1547.58 Q1465.44 1540.23 1463.34 1533.06 Q1461.27 1525.9 1457.03 1518.58 Z" fill="#000000" fill-rule="nonzero" fill-opacity="1" /><polyline clip-path="url(#clip580)" style="stroke:#000000; stroke-linecap:round; stroke-linejoin:round; stroke-width:4; stroke-opacity:1; fill:none" points="210.977,1423.18 210.977,47.2441 "/>
<polyline clip-path="url(#clip580)" style="stroke:#000000; stroke-linecap:round; stroke-linejoin:round; stroke-width:4; stroke-opacity:1; fill:none" points="210.977,1216.5 229.875,1216.5 "/>
<polyline clip-path="url(#clip580)" style="stroke:#000000; stroke-linecap:round; stroke-linejoin:round; stroke-width:4; stroke-opacity:1; fill:none" points="210.977,843.377 229.875,843.377 "/>
<polyline clip-path="url(#clip580)" style="stroke:#000000; stroke-linecap:round; stroke-linejoin:round; stroke-width:4; stroke-opacity:1; fill:none" points="210.977,470.249 229.875,470.249 "/>
<polyline clip-path="url(#clip580)" style="stroke:#000000; stroke-linecap:round; stroke-linejoin:round; stroke-width:4; stroke-opacity:1; fill:none" points="210.977,97.1215 229.875,97.1215 "/>
<path clip-path="url(#clip580)" d="M114.26 1216.96 L143.936 1216.96 L143.936 1220.89 L114.26 1220.89 L114.26 1216.96 Z" fill="#000000" fill-rule="nonzero" fill-opacity="1" /><path clip-path="url(#clip580)" d="M154.075 1199.22 L172.431 1199.22 L172.431 1203.16 L158.357 1203.16 L158.357 1211.63 Q159.376 1211.28 160.394 1211.12 Q161.413 1210.94 162.431 1210.94 Q168.218 1210.94 171.598 1214.11 Q174.977 1217.28 174.977 1222.7 Q174.977 1228.28 171.505 1231.38 Q168.033 1234.46 161.714 1234.46 Q159.538 1234.46 157.269 1234.09 Q155.024 1233.72 152.616 1232.97 L152.616 1228.28 Q154.7 1229.41 156.922 1229.97 Q159.144 1230.52 161.621 1230.52 Q165.626 1230.52 167.964 1228.41 Q170.302 1226.31 170.302 1222.7 Q170.302 1219.09 167.964 1216.98 Q165.626 1214.87 161.621 1214.87 Q159.746 1214.87 157.871 1215.29 Q156.019 1215.71 154.075 1216.59 L154.075 1199.22 Z" fill="#000000" fill-rule="nonzero" fill-opacity="1" /><path clip-path="url(#clip580)" d="M163.033 829.176 Q159.422 829.176 157.593 832.741 Q155.788 836.282 155.788 843.412 Q155.788 850.518 157.593 854.083 Q159.422 857.625 163.033 857.625 Q166.667 857.625 168.473 854.083 Q170.302 850.518 170.302 843.412 Q170.302 836.282 168.473 832.741 Q166.667 829.176 163.033 829.176 M163.033 825.472 Q168.843 825.472 171.899 830.079 Q174.977 834.662 174.977 843.412 Q174.977 852.139 171.899 856.745 Q168.843 861.328 163.033 861.328 Q157.223 861.328 154.144 856.745 Q151.089 852.139 151.089 843.412 Q151.089 834.662 154.144 830.079 Q157.223 825.472 163.033 825.472 Z" fill="#000000" fill-rule="nonzero" fill-opacity="1" /><path clip-path="url(#clip580)" d="M154.075 452.969 L172.431 452.969 L172.431 456.904 L158.357 456.904 L158.357 465.377 Q159.376 465.029 160.394 464.867 Q161.413 464.682 162.431 464.682 Q168.218 464.682 171.598 467.853 Q174.977 471.025 174.977 476.441 Q174.977 482.02 171.505 485.122 Q168.033 488.201 161.714 488.201 Q159.538 488.201 157.269 487.83 Q155.024 487.46 152.616 486.719 L152.616 482.02 Q154.7 483.154 156.922 483.71 Q159.144 484.265 161.621 484.265 Q165.626 484.265 167.964 482.159 Q170.302 480.052 170.302 476.441 Q170.302 472.83 167.964 470.724 Q165.626 468.617 161.621 468.617 Q159.746 468.617 157.871 469.034 Q156.019 469.451 154.075 470.33 L154.075 452.969 Z" fill="#000000" fill-rule="nonzero" fill-opacity="1" /><path clip-path="url(#clip580)" d="M123.681 110.466 L131.32 110.466 L131.32 84.1007 L123.01 85.7674 L123.01 81.5081 L131.274 79.8415 L135.95 79.8415 L135.95 110.466 L143.589 110.466 L143.589 114.401 L123.681 114.401 L123.681 110.466 Z" fill="#000000" fill-rule="nonzero" fill-opacity="1" /><path clip-path="url(#clip580)" d="M163.033 82.9202 Q159.422 82.9202 157.593 86.485 Q155.788 90.0266 155.788 97.1562 Q155.788 104.263 157.593 107.827 Q159.422 111.369 163.033 111.369 Q166.667 111.369 168.473 107.827 Q170.302 104.263 170.302 97.1562 Q170.302 90.0266 168.473 86.485 Q166.667 82.9202 163.033 82.9202 M163.033 79.2165 Q168.843 79.2165 171.899 83.8229 Q174.977 88.4063 174.977 97.1562 Q174.977 105.883 171.899 110.489 Q168.843 115.073 163.033 115.073 Q157.223 115.073 154.144 110.489 Q151.089 105.883 151.089 97.1562 Q151.089 88.4063 154.144 83.8229 Q157.223 79.2165 163.033 79.2165 Z" fill="#000000" fill-rule="nonzero" fill-opacity="1" /><path clip-path="url(#clip580)" d="M16.4842 1188.28 L16.4842 1148.08 L21.895 1148.08 L21.895 1164.94 L64.0042 1164.94 L64.0042 1171.41 L21.895 1171.41 L21.895 1188.28 L16.4842 1188.28 Z" fill="#000000" fill-rule="nonzero" fill-opacity="1" /><path clip-path="url(#clip580)" d="M44.7161 1122.71 L47.5806 1122.71 L47.5806 1149.64 Q53.6281 1149.25 56.8109 1146.01 Q59.9619 1142.73 59.9619 1136.9 Q59.9619 1133.53 59.1344 1130.38 Q58.3069 1127.2 56.6518 1124.08 L62.1899 1124.08 Q63.5267 1127.23 64.227 1130.54 Q64.9272 1133.85 64.9272 1137.25 Q64.9272 1145.78 59.9619 1150.78 Q54.9967 1155.75 46.5303 1155.75 Q37.7774 1155.75 32.6531 1151.04 Q27.4968 1146.29 27.4968 1138.27 Q27.4968 1131.08 32.1438 1126.91 Q36.7589 1122.71 44.7161 1122.71 M42.9973 1128.56 Q38.1912 1128.63 35.3266 1131.27 Q32.4621 1133.88 32.4621 1138.21 Q32.4621 1143.11 35.2312 1146.07 Q38.0002 1149 43.0292 1149.44 L42.9973 1128.56 Z" fill="#000000" fill-rule="nonzero" fill-opacity="1" /><path clip-path="url(#clip580)" d="M35.1993 1085.34 Q31.2526 1083.15 29.3747 1080.09 Q27.4968 1077.03 27.4968 1072.9 Q27.4968 1067.33 31.4117 1064.3 Q35.2948 1061.28 42.4881 1061.28 L64.0042 1061.28 L64.0042 1067.17 L42.679 1067.17 Q37.5546 1067.17 35.072 1068.98 Q32.5894 1070.8 32.5894 1074.52 Q32.5894 1079.07 35.6131 1081.71 Q38.6368 1084.36 43.8567 1084.36 L64.0042 1084.36 L64.0042 1090.24 L42.679 1090.24 Q37.5228 1090.24 35.072 1092.06 Q32.5894 1093.87 32.5894 1097.66 Q32.5894 1102.15 35.6449 1104.79 Q38.6686 1107.43 43.8567 1107.43 L64.0042 1107.43 L64.0042 1113.32 L28.3562 1113.32 L28.3562 1107.43 L33.8944 1107.43 Q30.616 1105.43 29.0564 1102.62 Q27.4968 1099.82 27.4968 1095.97 Q27.4968 1092.09 29.4702 1089.38 Q31.4436 1086.65 35.1993 1085.34 Z" fill="#000000" fill-rule="nonzero" fill-opacity="1" /><path clip-path="url(#clip580)" d="M58.657 1043.93 L77.5631 1043.93 L77.5631 1049.82 L28.3562 1049.82 L28.3562 1043.93 L33.7671 1043.93 Q30.5842 1042.09 29.0564 1039.29 Q27.4968 1036.45 27.4968 1032.54 Q27.4968 1026.05 32.6531 1022 Q37.8093 1017.93 46.212 1017.93 Q54.6147 1017.93 59.771 1022 Q64.9272 1026.05 64.9272 1032.54 Q64.9272 1036.45 63.3994 1039.29 Q61.8398 1042.09 58.657 1043.93 M46.212 1024.01 Q39.7508 1024.01 36.0905 1026.68 Q32.3984 1029.32 32.3984 1033.97 Q32.3984 1038.62 36.0905 1041.29 Q39.7508 1043.93 46.212 1043.93 Q52.6732 1043.93 56.3653 1041.29 Q60.0256 1038.62 60.0256 1033.97 Q60.0256 1029.32 56.3653 1026.68 Q52.6732 1024.01 46.212 1024.01 Z" fill="#000000" fill-rule="nonzero" fill-opacity="1" /><path clip-path="url(#clip580)" d="M44.7161 977.729 L47.5806 977.729 L47.5806 1004.66 Q53.6281 1004.27 56.8109 1001.03 Q59.9619 997.75 59.9619 991.925 Q59.9619 988.551 59.1344 985.4 Q58.3069 982.217 56.6518 979.098 L62.1899 979.098 Q63.5267 982.249 64.227 985.559 Q64.9272 988.869 64.9272 992.275 Q64.9272 1000.81 59.9619 1005.8 Q54.9967 1010.77 46.5303 1010.77 Q37.7774 1010.77 32.6531 1006.06 Q27.4968 1001.31 27.4968 993.294 Q27.4968 986.1 32.1438 981.931 Q36.7589 977.729 44.7161 977.729 M42.9973 983.586 Q38.1912 983.65 35.3266 986.291 Q32.4621 988.901 32.4621 993.23 Q32.4621 998.132 35.2312 1001.09 Q38.0002 1004.02 43.0292 1004.47 L42.9973 983.586 Z" fill="#000000" fill-rule="nonzero" fill-opacity="1" /><path clip-path="url(#clip580)" d="M33.8307 947.461 Q33.2578 948.447 33.0032 949.625 Q32.7167 950.771 32.7167 952.171 Q32.7167 957.136 35.9632 959.81 Q39.1779 962.452 45.2253 962.452 L64.0042 962.452 L64.0042 968.34 L28.3562 968.34 L28.3562 962.452 L33.8944 962.452 Q30.6479 960.606 29.0883 957.646 Q27.4968 954.686 27.4968 950.452 Q27.4968 949.848 27.5923 949.116 Q27.656 948.384 27.8151 947.492 L33.8307 947.461 Z" fill="#000000" fill-rule="nonzero" fill-opacity="1" /><path clip-path="url(#clip580)" d="M46.0847 925.117 Q46.0847 932.215 47.7079 934.952 Q49.3312 937.689 53.2461 937.689 Q56.3653 937.689 58.2114 935.652 Q60.0256 933.583 60.0256 930.05 Q60.0256 925.181 56.5881 922.252 Q53.1188 919.292 47.3897 919.292 L46.0847 919.292 L46.0847 925.117 M43.6657 913.436 L64.0042 913.436 L64.0042 919.292 L58.5933 919.292 Q61.8398 921.297 63.3994 924.289 Q64.9272 927.281 64.9272 931.61 Q64.9272 937.084 61.8716 940.331 Q58.7843 943.546 53.6281 943.546 Q47.6125 943.546 44.5569 939.535 Q41.5014 935.493 41.5014 927.504 L41.5014 919.292 L40.9285 919.292 Q36.8862 919.292 34.6901 921.966 Q32.4621 924.608 32.4621 929.414 Q32.4621 932.469 33.1941 935.366 Q33.9262 938.262 35.3903 940.936 L29.9795 940.936 Q28.7381 937.721 28.1334 934.697 Q27.4968 931.674 27.4968 928.809 Q27.4968 921.075 31.5072 917.255 Q35.5176 913.436 43.6657 913.436 Z" fill="#000000" fill-rule="nonzero" fill-opacity="1" /><path clip-path="url(#clip580)" d="M18.2347 895.58 L28.3562 895.58 L28.3562 883.517 L32.9077 883.517 L32.9077 895.58 L52.2594 895.58 Q56.6199 895.58 57.8613 894.402 Q59.1026 893.193 59.1026 889.533 L59.1026 883.517 L64.0042 883.517 L64.0042 889.533 Q64.0042 896.312 61.4897 898.89 Q58.9434 901.468 52.2594 901.468 L32.9077 901.468 L32.9077 905.765 L28.3562 905.765 L28.3562 901.468 L18.2347 901.468 L18.2347 895.58 Z" fill="#000000" fill-rule="nonzero" fill-opacity="1" /><path clip-path="url(#clip580)" d="M49.9359 876.419 L28.3562 876.419 L28.3562 870.563 L49.7131 870.563 Q54.7739 870.563 57.3202 868.589 Q59.8346 866.616 59.8346 862.669 Q59.8346 857.927 56.8109 855.19 Q53.7872 852.421 48.5673 852.421 L28.3562 852.421 L28.3562 846.564 L64.0042 846.564 L64.0042 852.421 L58.5296 852.421 Q61.7762 854.553 63.3676 857.386 Q64.9272 860.187 64.9272 863.911 Q64.9272 870.054 61.1078 873.236 Q57.2883 876.419 49.9359 876.419 M27.4968 861.683 L27.4968 861.683 Z" fill="#000000" fill-rule="nonzero" fill-opacity="1" /><path clip-path="url(#clip580)" d="M33.8307 813.844 Q33.2578 814.831 33.0032 816.009 Q32.7167 817.155 32.7167 818.555 Q32.7167 823.52 35.9632 826.194 Q39.1779 828.836 45.2253 828.836 L64.0042 828.836 L64.0042 834.724 L28.3562 834.724 L28.3562 828.836 L33.8944 828.836 Q30.6479 826.99 29.0883 824.029 Q27.4968 821.069 27.4968 816.836 Q27.4968 816.231 27.5923 815.499 Q27.656 814.767 27.8151 813.876 L33.8307 813.844 Z" fill="#000000" fill-rule="nonzero" fill-opacity="1" /><path clip-path="url(#clip580)" d="M44.7161 778.642 L47.5806 778.642 L47.5806 805.569 Q53.6281 805.187 56.8109 801.94 Q59.9619 798.662 59.9619 792.838 Q59.9619 789.464 59.1344 786.313 Q58.3069 783.13 56.6518 780.011 L62.1899 780.011 Q63.5267 783.162 64.227 786.472 Q64.9272 789.782 64.9272 793.188 Q64.9272 801.718 59.9619 806.715 Q54.9967 811.68 46.5303 811.68 Q37.7774 811.68 32.6531 806.969 Q27.4968 802.227 27.4968 794.206 Q27.4968 787.013 32.1438 782.843 Q36.7589 778.642 44.7161 778.642 M42.9973 784.498 Q38.1912 784.562 35.3266 787.204 Q32.4621 789.814 32.4621 794.142 Q32.4621 799.044 35.2312 802.004 Q38.0002 804.932 43.0292 805.378 L42.9973 784.498 Z" fill="#000000" fill-rule="nonzero" fill-opacity="1" /><path clip-path="url(#clip580)" d="M33.7671 724.852 L14.479 724.852 L14.479 718.995 L64.0042 718.995 L64.0042 724.852 L58.657 724.852 Q61.8398 726.698 63.3994 729.531 Q64.9272 732.331 64.9272 736.278 Q64.9272 742.739 59.771 746.813 Q54.6147 750.856 46.212 750.856 Q37.8093 750.856 32.6531 746.813 Q27.4968 742.739 27.4968 736.278 Q27.4968 732.331 29.0564 729.531 Q30.5842 726.698 33.7671 724.852 M46.212 744.808 Q52.6732 744.808 56.3653 742.167 Q60.0256 739.493 60.0256 734.846 Q60.0256 730.199 56.3653 727.525 Q52.6732 724.852 46.212 724.852 Q39.7508 724.852 36.0905 727.525 Q32.3984 730.199 32.3984 734.846 Q32.3984 739.493 36.0905 742.167 Q39.7508 744.808 46.212 744.808 Z" fill="#000000" fill-rule="nonzero" fill-opacity="1" /><path clip-path="url(#clip580)" d="M28.3562 706.932 L28.3562 701.076 L64.0042 701.076 L64.0042 706.932 L28.3562 706.932 M14.479 706.932 L14.479 701.076 L21.895 701.076 L21.895 706.932 L14.479 706.932 Z" fill="#000000" fill-rule="nonzero" fill-opacity="1" /><path clip-path="url(#clip580)" d="M14.479 670.775 L19.3487 670.775 L19.3487 676.377 Q19.3487 679.528 20.6219 680.769 Q21.895 681.979 25.2052 681.979 L28.3562 681.979 L28.3562 672.335 L32.9077 672.335 L32.9077 681.979 L64.0042 681.979 L64.0042 687.867 L32.9077 687.867 L32.9077 693.469 L28.3562 693.469 L28.3562 687.867 L25.8736 687.867 Q19.9216 687.867 17.2162 685.098 Q14.479 682.329 14.479 676.313 L14.479 670.775 Z" fill="#000000" fill-rule="nonzero" fill-opacity="1" /><path clip-path="url(#clip580)" d="M14.479 647.827 L19.3487 647.827 L19.3487 653.429 Q19.3487 656.58 20.6219 657.821 Q21.895 659.03 25.2052 659.03 L28.3562 659.03 L28.3562 649.386 L32.9077 649.386 L32.9077 659.03 L64.0042 659.03 L64.0042 664.919 L32.9077 664.919 L32.9077 670.52 L28.3562 670.52 L28.3562 664.919 L25.8736 664.919 Q19.9216 664.919 17.2162 662.15 Q14.479 659.38 14.479 653.365 L14.479 647.827 Z" fill="#000000" fill-rule="nonzero" fill-opacity="1" /><path clip-path="url(#clip580)" d="M44.7161 612.433 L47.5806 612.433 L47.5806 639.36 Q53.6281 638.978 56.8109 635.732 Q59.9619 632.454 59.9619 626.629 Q59.9619 623.255 59.1344 620.104 Q58.3069 616.921 56.6518 613.802 L62.1899 613.802 Q63.5267 616.953 64.227 620.263 Q64.9272 623.573 64.9272 626.979 Q64.9272 635.509 59.9619 640.506 Q54.9967 645.471 46.5303 645.471 Q37.7774 645.471 32.6531 640.761 Q27.4968 636.018 27.4968 627.998 Q27.4968 620.804 32.1438 616.635 Q36.7589 612.433 44.7161 612.433 M42.9973 618.29 Q38.1912 618.354 35.3266 620.995 Q32.4621 623.605 32.4621 627.934 Q32.4621 632.835 35.2312 635.796 Q38.0002 638.724 43.0292 639.169 L42.9973 618.29 Z" fill="#000000" fill-rule="nonzero" fill-opacity="1" /><path clip-path="url(#clip580)" d="M33.8307 582.164 Q33.2578 583.151 33.0032 584.329 Q32.7167 585.475 32.7167 586.875 Q32.7167 591.84 35.9632 594.514 Q39.1779 597.156 45.2253 597.156 L64.0042 597.156 L64.0042 603.044 L28.3562 603.044 L28.3562 597.156 L33.8944 597.156 Q30.6479 595.31 29.0883 592.35 Q27.4968 589.39 27.4968 585.156 Q27.4968 584.552 27.5923 583.82 Q27.656 583.087 27.8151 582.196 L33.8307 582.164 Z" fill="#000000" fill-rule="nonzero" fill-opacity="1" /><path clip-path="url(#clip580)" d="M44.7161 546.962 L47.5806 546.962 L47.5806 573.889 Q53.6281 573.507 56.8109 570.261 Q59.9619 566.982 59.9619 561.158 Q59.9619 557.784 59.1344 554.633 Q58.3069 551.45 56.6518 548.331 L62.1899 548.331 Q63.5267 551.482 64.227 554.792 Q64.9272 558.102 64.9272 561.508 Q64.9272 570.038 59.9619 575.035 Q54.9967 580 46.5303 580 Q37.7774 580 32.6531 575.29 Q27.4968 570.547 27.4968 562.526 Q27.4968 555.333 32.1438 551.163 Q36.7589 546.962 44.7161 546.962 M42.9973 552.819 Q38.1912 552.882 35.3266 555.524 Q32.4621 558.134 32.4621 562.463 Q32.4621 567.364 35.2312 570.324 Q38.0002 573.252 43.0292 573.698 L42.9973 552.819 Z" fill="#000000" fill-rule="nonzero" fill-opacity="1" /><path clip-path="url(#clip580)" d="M42.4881 507.718 L64.0042 507.718 L64.0042 513.574 L42.679 513.574 Q37.6183 513.574 35.1038 515.547 Q32.5894 517.521 32.5894 521.467 Q32.5894 526.21 35.6131 528.947 Q38.6368 531.684 43.8567 531.684 L64.0042 531.684 L64.0042 537.573 L28.3562 537.573 L28.3562 531.684 L33.8944 531.684 Q30.6797 529.584 29.0883 526.751 Q27.4968 523.886 27.4968 520.162 Q27.4968 514.02 31.3163 510.869 Q35.1038 507.718 42.4881 507.718 Z" fill="#000000" fill-rule="nonzero" fill-opacity="1" /><path clip-path="url(#clip580)" d="M29.7248 470.383 L35.1993 470.383 Q33.8307 472.865 33.1623 475.38 Q32.4621 477.862 32.4621 480.409 Q32.4621 486.106 36.0905 489.257 Q39.6872 492.408 46.212 492.408 Q52.7369 492.408 56.3653 489.257 Q59.9619 486.106 59.9619 480.409 Q59.9619 477.862 59.2935 475.38 Q58.5933 472.865 57.2247 470.383 L62.6355 470.383 Q63.7814 472.833 64.3543 475.475 Q64.9272 478.085 64.9272 481.045 Q64.9272 489.098 59.8664 493.84 Q54.8057 498.583 46.212 498.583 Q37.491 498.583 32.4939 493.808 Q27.4968 489.002 27.4968 480.663 Q27.4968 477.958 28.0697 475.38 Q28.6108 472.802 29.7248 470.383 Z" fill="#000000" fill-rule="nonzero" fill-opacity="1" /><path clip-path="url(#clip580)" d="M44.7161 429.706 L47.5806 429.706 L47.5806 456.633 Q53.6281 456.251 56.8109 453.004 Q59.9619 449.726 59.9619 443.901 Q59.9619 440.527 59.1344 437.376 Q58.3069 434.194 56.6518 431.074 L62.1899 431.074 Q63.5267 434.225 64.227 437.536 Q64.9272 440.846 64.9272 444.251 Q64.9272 452.781 59.9619 457.779 Q54.9967 462.744 46.5303 462.744 Q37.7774 462.744 32.6531 458.033 Q27.4968 453.291 27.4968 445.27 Q27.4968 438.077 32.1438 433.907 Q36.7589 429.706 44.7161 429.706 M42.9973 435.562 Q38.1912 435.626 35.3266 438.268 Q32.4621 440.878 32.4621 445.206 Q32.4621 450.108 35.2312 453.068 Q38.0002 455.996 43.0292 456.442 L42.9973 435.562 Z" fill="#000000" fill-rule="nonzero" fill-opacity="1" /><path clip-path="url(#clip580)" d="M14.5426 385.305 Q21.8632 389.57 29.0246 391.639 Q36.186 393.708 43.5384 393.708 Q50.8908 393.708 58.1159 391.639 Q65.3091 389.538 72.5979 385.305 L72.5979 390.398 Q65.1182 395.172 57.8931 397.559 Q50.668 399.914 43.5384 399.914 Q36.4406 399.914 29.2474 397.559 Q22.0542 395.204 14.5426 390.398 L14.5426 385.305 Z" fill="#000000" fill-rule="nonzero" fill-opacity="1" /><path clip-path="url(#clip580)" d="M19.7307 363.789 Q19.7307 366.335 21.5131 368.086 Q23.2636 369.836 25.8099 369.836 Q28.3244 369.836 30.0749 368.086 Q31.7937 366.335 31.7937 363.789 Q31.7937 361.243 30.0749 359.492 Q28.3244 357.741 25.8099 357.741 Q23.2955 357.741 21.5131 359.524 Q19.7307 361.274 19.7307 363.789 M15.6248 363.789 Q15.6248 361.752 16.4205 359.874 Q17.1844 357.996 18.6485 356.627 Q20.0808 355.163 21.895 354.431 Q23.7092 353.699 25.8099 353.699 Q30.0113 353.699 32.9395 356.659 Q35.8359 359.588 35.8359 363.853 Q35.8359 368.149 32.9713 371.014 Q30.1068 373.879 25.8099 373.879 Q21.5449 373.879 18.5848 370.95 Q15.6248 368.022 15.6248 363.789 Z" fill="#000000" fill-rule="nonzero" fill-opacity="1" /><path clip-path="url(#clip580)" d="M20.1444 305.511 L26.9239 305.511 Q23.9002 308.757 22.4043 312.449 Q20.9083 316.11 20.9083 320.247 Q20.9083 328.396 25.9054 332.724 Q30.8707 337.053 40.2919 337.053 Q49.6813 337.053 54.6784 332.724 Q59.6436 328.396 59.6436 320.247 Q59.6436 316.11 58.1477 312.449 Q56.6518 308.757 53.6281 305.511 L60.3439 305.511 Q62.6355 308.885 63.7814 312.672 Q64.9272 316.428 64.9272 320.629 Q64.9272 331.419 58.3387 337.626 Q51.7183 343.832 40.2919 343.832 Q28.8336 343.832 22.2451 337.626 Q15.6248 331.419 15.6248 320.629 Q15.6248 316.364 16.7706 312.609 Q17.8846 308.821 20.1444 305.511 Z" fill="#000000" fill-rule="nonzero" fill-opacity="1" /><path clip-path="url(#clip580)" d="M14.5426 296.758 L14.5426 291.665 Q22.0542 286.891 29.2474 284.536 Q36.4406 282.149 43.5384 282.149 Q50.668 282.149 57.8931 284.536 Q65.1182 286.891 72.5979 291.665 L72.5979 296.758 Q65.3091 292.525 58.1159 290.456 Q50.8908 288.355 43.5384 288.355 Q36.186 288.355 29.0246 290.456 Q21.8632 292.525 14.5426 296.758 Z" fill="#000000" fill-rule="nonzero" fill-opacity="1" /><polyline clip-path="url(#clip582)" style="stroke:#009af9; stroke-linecap:round; stroke-linejoin:round; stroke-width:4; stroke-opacity:1; fill:none" points="271.594,755.064 285.625,757.272 299.657,640.096 313.688,313.694 327.72,450.205 341.752,736.037 355.783,954.293 369.815,702.133 383.846,345.619 397.878,86.1857 411.909,408.866 425.941,417.904 439.973,105.85 454.004,637.026 468.036,802.423 482.067,602.196 496.099,1058.7 510.13,888.288 524.162,769.737 538.194,733.239 552.225,569.948 566.257,518.885 580.288,684.071 594.32,811.774 608.351,842.97 622.383,821.832 636.415,830.313 650.446,570.13 664.478,339.607 678.509,489.742 692.541,736.805 706.572,722.535 720.604,887.074 734.636,701.12 748.667,112.451 762.699,859.64 776.73,956.965 790.762,941.872 804.793,612.911 818.825,336.137 832.857,328.012 846.888,394.877 860.92,603.57 874.951,737.266 888.983,773.31 903.014,801.785 917.046,733.347 931.077,739.558 945.109,894.846 959.141,893.323 973.172,585.275 987.204,702.379 1001.24,655.274 1015.27,376.843 1029.3,628.36 1043.33,566.283 1057.36,683.166 1071.39,754.886 1085.42,953.175 1099.46,875.525 1113.49,1088.84 1127.52,719.881 1141.55,731.861 1155.58,1049.63 1169.61,1016.28 1183.65,825.671 1197.68,1038.23 1211.71,1071.68 1225.74,1120.04 1239.77,1033.86 1253.8,843.196 1267.84,1062.9 1281.87,633.136 1295.9,643.576 1309.93,1280.86 1323.96,1283.75 1337.99,1219.58 1352.02,871.707 1366.06,1053.59 1380.09,861.997 1394.12,1036.03 1408.15,732.199 1422.18,674.262 1436.21,758.258 1450.25,655.997 1464.28,583.579 1478.31,570.299 1492.34,512.275 1506.37,536.529 1520.4,456.394 1534.43,562.845 1548.47,1049.99 1562.5,678.454 1576.53,597.441 1590.56,806.977 1604.59,1203.35 1618.62,906.178 1632.66,750.853 1646.69,782.096 1660.72,753.808 1674.75,837.475 1688.78,808.959 1702.81,743.038 1716.85,692.199 1730.88,925.062 1744.91,1038.48 1758.94,957.738 1772.97,966.618 1787,833.959 1801.03,1022.58 1815.07,1128.94 1829.1,936.727 1843.13,976.158 1857.16,925.842 1871.19,1106.67 1885.22,1011.29 1899.26,759.028 1913.29,596.338 1927.32,993.658 1941.35,883.668 1955.38,616.727 1969.41,722.559 1983.45,828.146 1997.48,807.007 2011.51,994.782 2025.54,839.385 2039.57,796.069 2053.6,1185.55 2067.63,1082.43 2081.67,934.707 2095.7,727.353 2109.73,826.084 2123.76,1111.5 2137.79,1307.53 2151.82,1384.24 2165.86,1281.71 2179.89,1126.81 2193.92,807.755 2207.95,660.635 2221.98,595.658 2236.01,568.135 2250.04,682.258 2264.08,661.878 2278.11,641.852 2292.14,607.112 "/>
<polyline clip-path="url(#clip582)" style="stroke:#e26f46; stroke-linecap:round; stroke-linejoin:round; stroke-width:4; stroke-opacity:1; fill:none" points="271.594,765.22 285.625,791.245 299.657,792.78 313.688,736.516 327.72,566.768 341.752,674.874 355.783,805.791 369.815,889.552 383.846,726.727 397.878,573.543 411.909,474.981 425.941,673.844 439.973,621.435 454.004,442.416 468.036,767.473 482.067,800.804 496.099,683.093 510.13,961.002 524.162,829.846 538.194,798.974 552.225,788.038 566.257,710.056 580.288,691.562 594.32,779.119 608.351,825.893 622.383,827.905 636.415,817.716 650.446,832.993 664.478,692.408 678.509,594.962 692.541,695.024 706.572,803.767 720.604,760.995 734.636,855.962 748.667,743.488 762.699,451.82 776.73,926.034 790.762,881.348 804.793,869.114 818.825,685.874 832.857,594.399 846.888,613.56 860.92,637.165 874.951,729.713 888.983,773.466 903.014,785.634 917.046,806.902 931.077,775.856 945.109,792.544 959.141,877.088 973.172,858.989 987.204,691.793 1001.24,793.267 1015.27,749.925 1029.3,599.93 1043.33,760.358 1057.36,692.782 1071.39,765.646 1085.42,785.726 1099.46,897.617 1113.49,834.895 1127.52,972.029 1141.55,747.989 1155.58,806.909 1169.61,970.882 1183.65,918.287 1197.68,814.891 1211.71,957.906 1225.74,956.56 1239.77,981.733 1253.8,927.293 1267.84,840.366 1281.87,981.996 1295.9,714.897 1309.93,769.057 1323.96,1104.2 1337.99,1035.33 1352.02,1005.32 1366.06,831.382 1380.09,988.574 1394.12,851.284 1408.15,966.272 1422.18,765.577 1436.21,775.128 1450.25,815.581 1464.28,748.613 1478.31,711.965 1492.34,709.148 1506.37,677.406 1520.4,692.403 1534.43,641.25 1548.47,708.227 1562.5,961.364 1576.53,704.994 1590.56,715.336 1604.59,840.144 1618.62,1042.47 1632.66,827.766 1646.69,787.799 1660.72,826.473 1674.75,810.381 1688.78,848.678 1702.81,818.422 1716.85,788.246 1730.88,767.131 1744.91,901.448 1758.94,934.693 1772.97,881.639 1787,901.115 1801.03,833.733 1815.07,955.04 1829.1,986.419 1843.13,872.335 1857.16,917.506 1871.19,887.308 1885.22,994.051 1899.26,914.433 1913.29,791.671 1927.32,728.397 1941.35,962.236 1955.38,845.447 1969.41,711.643 1983.45,797.721 1997.48,846.978 2011.51,818.922 2025.54,921.345 2039.57,819.225 2053.6,821.184 2067.63,1038.64 2081.67,940.628 2095.7,876.628 2109.73,780.534 2123.76,864.182 2137.79,998.805 2151.82,1070.2 2165.86,1094.43 2179.89,1043.04 2193.92,983.49 2207.95,829 2221.98,779.298 2236.01,744.398 2250.04,721.867 2264.08,773.438 2278.11,742.995 2292.14,735.126 "/>
<path clip-path="url(#clip580)" d="M1408.74 248.629 L2281.36 248.629 L2281.36 93.1086 L1408.74 93.1086  Z" fill="#ffffff" fill-rule="evenodd" fill-opacity="1"/>
<polyline clip-path="url(#clip580)" style="stroke:#000000; stroke-linecap:round; stroke-linejoin:round; stroke-width:4; stroke-opacity:1; fill:none" points="1408.74,248.629 2281.36,248.629 2281.36,93.1086 1408.74,93.1086 1408.74,248.629 "/>
<polyline clip-path="url(#clip580)" style="stroke:#009af9; stroke-linecap:round; stroke-linejoin:round; stroke-width:4; stroke-opacity:1; fill:none" points="1432.54,144.949 1575.32,144.949 "/>
<path clip-path="url(#clip580)" d="M1615.62 126.21 L1615.62 129.752 L1611.55 129.752 Q1609.26 129.752 1608.36 130.678 Q1607.48 131.604 1607.48 134.011 L1607.48 136.303 L1614.49 136.303 L1614.49 139.613 L1607.48 139.613 L1607.48 162.229 L1603.19 162.229 L1603.19 139.613 L1599.12 139.613 L1599.12 136.303 L1603.19 136.303 L1603.19 134.497 Q1603.19 130.169 1605.21 128.201 Q1607.22 126.21 1611.6 126.21 L1615.62 126.21 Z" fill="#000000" fill-rule="nonzero" fill-opacity="1" /><path clip-path="url(#clip580)" d="M1619.19 126.21 L1623.45 126.21 L1623.45 162.229 L1619.19 162.229 L1619.19 126.21 Z" fill="#000000" fill-rule="nonzero" fill-opacity="1" /><path clip-path="url(#clip580)" d="M1631.92 151.997 L1631.92 136.303 L1636.18 136.303 L1636.18 151.835 Q1636.18 155.516 1637.62 157.368 Q1639.05 159.196 1641.92 159.196 Q1645.37 159.196 1647.36 156.997 Q1649.37 154.798 1649.37 151.002 L1649.37 136.303 L1653.63 136.303 L1653.63 162.229 L1649.37 162.229 L1649.37 158.247 Q1647.82 160.608 1645.76 161.766 Q1643.73 162.9 1641.02 162.9 Q1636.55 162.9 1634.24 160.122 Q1631.92 157.344 1631.92 151.997 M1642.64 135.678 L1642.64 135.678 Z" fill="#000000" fill-rule="nonzero" fill-opacity="1" /><path clip-path="url(#clip580)" d="M1681.06 137.298 L1681.06 141.28 Q1679.26 140.284 1677.43 139.798 Q1675.62 139.289 1673.77 139.289 Q1669.63 139.289 1667.34 141.928 Q1665.05 144.544 1665.05 149.289 Q1665.05 154.034 1667.34 156.673 Q1669.63 159.289 1673.77 159.289 Q1675.62 159.289 1677.43 158.803 Q1679.26 158.293 1681.06 157.298 L1681.06 161.233 Q1679.28 162.067 1677.36 162.483 Q1675.46 162.9 1673.31 162.9 Q1667.45 162.9 1664 159.219 Q1660.56 155.539 1660.56 149.289 Q1660.56 142.946 1664.03 139.312 Q1667.52 135.678 1673.59 135.678 Q1675.55 135.678 1677.43 136.095 Q1679.3 136.488 1681.06 137.298 Z" fill="#000000" fill-rule="nonzero" fill-opacity="1" /><path clip-path="url(#clip580)" d="M1692.68 128.942 L1692.68 136.303 L1701.46 136.303 L1701.46 139.613 L1692.68 139.613 L1692.68 153.687 Q1692.68 156.858 1693.54 157.761 Q1694.42 158.664 1697.08 158.664 L1701.46 158.664 L1701.46 162.229 L1697.08 162.229 Q1692.15 162.229 1690.28 160.4 Q1688.4 158.548 1688.4 153.687 L1688.4 139.613 L1685.28 139.613 L1685.28 136.303 L1688.4 136.303 L1688.4 128.942 L1692.68 128.942 Z" fill="#000000" fill-rule="nonzero" fill-opacity="1" /><path clip-path="url(#clip580)" d="M1706.62 151.997 L1706.62 136.303 L1710.88 136.303 L1710.88 151.835 Q1710.88 155.516 1712.31 157.368 Q1713.75 159.196 1716.62 159.196 Q1720.07 159.196 1722.06 156.997 Q1724.07 154.798 1724.07 151.002 L1724.07 136.303 L1728.33 136.303 L1728.33 162.229 L1724.07 162.229 L1724.07 158.247 Q1722.52 160.608 1720.46 161.766 Q1718.43 162.9 1715.72 162.9 Q1711.25 162.9 1708.93 160.122 Q1706.62 157.344 1706.62 151.997 M1717.34 135.678 L1717.34 135.678 Z" fill="#000000" fill-rule="nonzero" fill-opacity="1" /><path clip-path="url(#clip580)" d="M1748.89 149.196 Q1743.73 149.196 1741.74 150.377 Q1739.74 151.557 1739.74 154.405 Q1739.74 156.673 1741.23 158.016 Q1742.73 159.335 1745.3 159.335 Q1748.84 159.335 1750.97 156.835 Q1753.12 154.312 1753.12 150.145 L1753.12 149.196 L1748.89 149.196 M1757.38 147.437 L1757.38 162.229 L1753.12 162.229 L1753.12 158.293 Q1751.67 160.655 1749.49 161.789 Q1747.31 162.9 1744.17 162.9 Q1740.18 162.9 1737.82 160.678 Q1735.49 158.432 1735.49 154.682 Q1735.49 150.307 1738.4 148.085 Q1741.34 145.863 1747.15 145.863 L1753.12 145.863 L1753.12 145.446 Q1753.12 142.507 1751.18 140.909 Q1749.26 139.289 1745.76 139.289 Q1743.54 139.289 1741.43 139.821 Q1739.33 140.354 1737.38 141.419 L1737.38 137.483 Q1739.72 136.581 1741.92 136.141 Q1744.12 135.678 1746.2 135.678 Q1751.83 135.678 1754.61 138.594 Q1757.38 141.511 1757.38 147.437 Z" fill="#000000" fill-rule="nonzero" fill-opacity="1" /><path clip-path="url(#clip580)" d="M1770.37 128.942 L1770.37 136.303 L1779.14 136.303 L1779.14 139.613 L1770.37 139.613 L1770.37 153.687 Q1770.37 156.858 1771.23 157.761 Q1772.11 158.664 1774.77 158.664 L1779.14 158.664 L1779.14 162.229 L1774.77 162.229 Q1769.84 162.229 1767.96 160.4 Q1766.09 158.548 1766.09 153.687 L1766.09 139.613 L1762.96 139.613 L1762.96 136.303 L1766.09 136.303 L1766.09 128.942 L1770.37 128.942 Z" fill="#000000" fill-rule="nonzero" fill-opacity="1" /><path clip-path="url(#clip580)" d="M1784.74 136.303 L1789 136.303 L1789 162.229 L1784.74 162.229 L1784.74 136.303 M1784.74 126.21 L1789 126.21 L1789 131.604 L1784.74 131.604 L1784.74 126.21 Z" fill="#000000" fill-rule="nonzero" fill-opacity="1" /><path clip-path="url(#clip580)" d="M1807.96 139.289 Q1804.54 139.289 1802.55 141.974 Q1800.55 144.636 1800.55 149.289 Q1800.55 153.942 1802.52 156.627 Q1804.51 159.289 1807.96 159.289 Q1811.36 159.289 1813.36 156.604 Q1815.35 153.918 1815.35 149.289 Q1815.35 144.682 1813.36 141.997 Q1811.36 139.289 1807.96 139.289 M1807.96 135.678 Q1813.52 135.678 1816.69 139.289 Q1819.86 142.9 1819.86 149.289 Q1819.86 155.655 1816.69 159.289 Q1813.52 162.9 1807.96 162.9 Q1802.38 162.9 1799.21 159.289 Q1796.06 155.655 1796.06 149.289 Q1796.06 142.9 1799.21 139.289 Q1802.38 135.678 1807.96 135.678 Z" fill="#000000" fill-rule="nonzero" fill-opacity="1" /><path clip-path="url(#clip580)" d="M1848.47 146.581 L1848.47 162.229 L1844.21 162.229 L1844.21 146.719 Q1844.21 143.039 1842.78 141.21 Q1841.34 139.382 1838.47 139.382 Q1835.02 139.382 1833.03 141.581 Q1831.04 143.78 1831.04 147.576 L1831.04 162.229 L1826.76 162.229 L1826.76 136.303 L1831.04 136.303 L1831.04 140.331 Q1832.57 137.993 1834.63 136.835 Q1836.71 135.678 1839.42 135.678 Q1843.89 135.678 1846.18 138.456 Q1848.47 141.21 1848.47 146.581 Z" fill="#000000" fill-rule="nonzero" fill-opacity="1" /><path clip-path="url(#clip580)" d="M1873.49 137.067 L1873.49 141.094 Q1871.69 140.169 1869.74 139.706 Q1867.8 139.243 1865.72 139.243 Q1862.54 139.243 1860.95 140.215 Q1859.37 141.187 1859.37 143.131 Q1859.37 144.613 1860.51 145.469 Q1861.64 146.303 1865.07 147.067 L1866.53 147.391 Q1871.06 148.363 1872.96 150.145 Q1874.88 151.905 1874.88 155.076 Q1874.88 158.687 1872.01 160.793 Q1869.17 162.9 1864.17 162.9 Q1862.08 162.9 1859.81 162.483 Q1857.57 162.09 1855.07 161.28 L1855.07 156.881 Q1857.43 158.108 1859.72 158.733 Q1862.01 159.335 1864.26 159.335 Q1867.27 159.335 1868.89 158.317 Q1870.51 157.275 1870.51 155.4 Q1870.51 153.664 1869.33 152.738 Q1868.17 151.812 1864.21 150.956 L1862.73 150.608 Q1858.77 149.775 1857.01 148.062 Q1855.25 146.326 1855.25 143.317 Q1855.25 139.659 1857.85 137.669 Q1860.44 135.678 1865.21 135.678 Q1867.57 135.678 1869.65 136.025 Q1871.73 136.372 1873.49 137.067 Z" fill="#000000" fill-rule="nonzero" fill-opacity="1" /><path clip-path="url(#clip580)" d="M1909.86 126.21 L1909.86 129.752 L1905.79 129.752 Q1903.49 129.752 1902.59 130.678 Q1901.71 131.604 1901.71 134.011 L1901.71 136.303 L1908.73 136.303 L1908.73 139.613 L1901.71 139.613 L1901.71 162.229 L1897.43 162.229 L1897.43 139.613 L1893.35 139.613 L1893.35 136.303 L1897.43 136.303 L1897.43 134.497 Q1897.43 130.169 1899.44 128.201 Q1901.46 126.21 1905.83 126.21 L1909.86 126.21 Z" fill="#000000" fill-rule="nonzero" fill-opacity="1" /><path clip-path="url(#clip580)" d="M1928.45 140.284 Q1927.73 139.868 1926.87 139.682 Q1926.04 139.474 1925.02 139.474 Q1921.41 139.474 1919.47 141.835 Q1917.54 144.173 1917.54 148.571 L1917.54 162.229 L1913.26 162.229 L1913.26 136.303 L1917.54 136.303 L1917.54 140.331 Q1918.89 137.969 1921.04 136.835 Q1923.19 135.678 1926.27 135.678 Q1926.71 135.678 1927.24 135.747 Q1927.78 135.794 1928.42 135.909 L1928.45 140.284 Z" fill="#000000" fill-rule="nonzero" fill-opacity="1" /><path clip-path="url(#clip580)" d="M1941.92 139.289 Q1938.49 139.289 1936.5 141.974 Q1934.51 144.636 1934.51 149.289 Q1934.51 153.942 1936.48 156.627 Q1938.47 159.289 1941.92 159.289 Q1945.32 159.289 1947.31 156.604 Q1949.3 153.918 1949.3 149.289 Q1949.3 144.682 1947.31 141.997 Q1945.32 139.289 1941.92 139.289 M1941.92 135.678 Q1947.47 135.678 1950.65 139.289 Q1953.82 142.9 1953.82 149.289 Q1953.82 155.655 1950.65 159.289 Q1947.47 162.9 1941.92 162.9 Q1936.34 162.9 1933.17 159.289 Q1930.02 155.655 1930.02 149.289 Q1930.02 142.9 1933.17 139.289 Q1936.34 135.678 1941.92 135.678 Z" fill="#000000" fill-rule="nonzero" fill-opacity="1" /><path clip-path="url(#clip580)" d="M1981.06 141.28 Q1982.66 138.409 1984.88 137.044 Q1987.1 135.678 1990.11 135.678 Q1994.16 135.678 1996.36 138.525 Q1998.56 141.349 1998.56 146.581 L1998.56 162.229 L1994.28 162.229 L1994.28 146.719 Q1994.28 142.993 1992.96 141.187 Q1991.64 139.382 1988.93 139.382 Q1985.62 139.382 1983.7 141.581 Q1981.78 143.78 1981.78 147.576 L1981.78 162.229 L1977.5 162.229 L1977.5 146.719 Q1977.5 142.969 1976.18 141.187 Q1974.86 139.382 1972.1 139.382 Q1968.84 139.382 1966.92 141.604 Q1965 143.803 1965 147.576 L1965 162.229 L1960.72 162.229 L1960.72 136.303 L1965 136.303 L1965 140.331 Q1966.46 137.946 1968.49 136.812 Q1970.53 135.678 1973.33 135.678 Q1976.16 135.678 1978.12 137.113 Q1980.11 138.548 1981.06 141.28 Z" fill="#000000" fill-rule="nonzero" fill-opacity="1" /><path clip-path="url(#clip580)" d="M2038.65 137.067 L2038.65 141.094 Q2036.85 140.169 2034.9 139.706 Q2032.96 139.243 2030.88 139.243 Q2027.71 139.243 2026.11 140.215 Q2024.53 141.187 2024.53 143.131 Q2024.53 144.613 2025.67 145.469 Q2026.8 146.303 2030.23 147.067 L2031.69 147.391 Q2036.22 148.363 2038.12 150.145 Q2040.04 151.905 2040.04 155.076 Q2040.04 158.687 2037.17 160.793 Q2034.33 162.9 2029.33 162.9 Q2027.24 162.9 2024.97 162.483 Q2022.73 162.09 2020.23 161.28 L2020.23 156.881 Q2022.59 158.108 2024.88 158.733 Q2027.17 159.335 2029.42 159.335 Q2032.43 159.335 2034.05 158.317 Q2035.67 157.275 2035.67 155.4 Q2035.67 153.664 2034.49 152.738 Q2033.33 151.812 2029.37 150.956 L2027.89 150.608 Q2023.93 149.775 2022.17 148.062 Q2020.41 146.326 2020.41 143.317 Q2020.41 139.659 2023.01 137.669 Q2025.6 135.678 2030.37 135.678 Q2032.73 135.678 2034.81 136.025 Q2036.9 136.372 2038.65 137.067 Z" fill="#000000" fill-rule="nonzero" fill-opacity="1" /><path clip-path="url(#clip580)" d="M2067.01 141.28 Q2068.61 138.409 2070.83 137.044 Q2073.05 135.678 2076.06 135.678 Q2080.11 135.678 2082.31 138.525 Q2084.51 141.349 2084.51 146.581 L2084.51 162.229 L2080.23 162.229 L2080.23 146.719 Q2080.23 142.993 2078.91 141.187 Q2077.59 139.382 2074.88 139.382 Q2071.57 139.382 2069.65 141.581 Q2067.73 143.78 2067.73 147.576 L2067.73 162.229 L2063.45 162.229 L2063.45 146.719 Q2063.45 142.969 2062.13 141.187 Q2060.81 139.382 2058.05 139.382 Q2054.79 139.382 2052.87 141.604 Q2050.95 143.803 2050.95 147.576 L2050.95 162.229 L2046.66 162.229 L2046.66 136.303 L2050.95 136.303 L2050.95 140.331 Q2052.4 137.946 2054.44 136.812 Q2056.48 135.678 2059.28 135.678 Q2062.1 135.678 2064.07 137.113 Q2066.06 138.548 2067.01 141.28 Z" fill="#000000" fill-rule="nonzero" fill-opacity="1" /><path clip-path="url(#clip580)" d="M2103.05 139.289 Q2099.63 139.289 2097.64 141.974 Q2095.65 144.636 2095.65 149.289 Q2095.65 153.942 2097.61 156.627 Q2099.6 159.289 2103.05 159.289 Q2106.46 159.289 2108.45 156.604 Q2110.44 153.918 2110.44 149.289 Q2110.44 144.682 2108.45 141.997 Q2106.46 139.289 2103.05 139.289 M2103.05 135.678 Q2108.61 135.678 2111.78 139.289 Q2114.95 142.9 2114.95 149.289 Q2114.95 155.655 2111.78 159.289 Q2108.61 162.9 2103.05 162.9 Q2097.47 162.9 2094.3 159.289 Q2091.15 155.655 2091.15 149.289 Q2091.15 142.9 2094.3 139.289 Q2097.47 135.678 2103.05 135.678 Z" fill="#000000" fill-rule="nonzero" fill-opacity="1" /><path clip-path="url(#clip580)" d="M2132.06 139.289 Q2128.63 139.289 2126.64 141.974 Q2124.65 144.636 2124.65 149.289 Q2124.65 153.942 2126.62 156.627 Q2128.61 159.289 2132.06 159.289 Q2135.46 159.289 2137.45 156.604 Q2139.44 153.918 2139.44 149.289 Q2139.44 144.682 2137.45 141.997 Q2135.46 139.289 2132.06 139.289 M2132.06 135.678 Q2137.61 135.678 2140.78 139.289 Q2143.96 142.9 2143.96 149.289 Q2143.96 155.655 2140.78 159.289 Q2137.61 162.9 2132.06 162.9 Q2126.48 162.9 2123.31 159.289 Q2120.16 155.655 2120.16 149.289 Q2120.16 142.9 2123.31 139.289 Q2126.48 135.678 2132.06 135.678 Z" fill="#000000" fill-rule="nonzero" fill-opacity="1" /><path clip-path="url(#clip580)" d="M2155.23 128.942 L2155.23 136.303 L2164 136.303 L2164 139.613 L2155.23 139.613 L2155.23 153.687 Q2155.23 156.858 2156.08 157.761 Q2156.96 158.664 2159.63 158.664 L2164 158.664 L2164 162.229 L2159.63 162.229 Q2154.7 162.229 2152.82 160.4 Q2150.95 158.548 2150.95 153.687 L2150.95 139.613 L2147.82 139.613 L2147.82 136.303 L2150.95 136.303 L2150.95 128.942 L2155.23 128.942 Z" fill="#000000" fill-rule="nonzero" fill-opacity="1" /><path clip-path="url(#clip580)" d="M2191.15 146.581 L2191.15 162.229 L2186.89 162.229 L2186.89 146.719 Q2186.89 143.039 2185.46 141.21 Q2184.02 139.382 2181.15 139.382 Q2177.71 139.382 2175.71 141.581 Q2173.72 143.78 2173.72 147.576 L2173.72 162.229 L2169.44 162.229 L2169.44 126.21 L2173.72 126.21 L2173.72 140.331 Q2175.25 137.993 2177.31 136.835 Q2179.39 135.678 2182.1 135.678 Q2186.57 135.678 2188.86 138.456 Q2191.15 141.21 2191.15 146.581 Z" fill="#000000" fill-rule="nonzero" fill-opacity="1" /><path clip-path="url(#clip580)" d="M2227.84 126.21 L2227.84 129.752 L2223.77 129.752 Q2221.48 129.752 2220.58 130.678 Q2219.7 131.604 2219.7 134.011 L2219.7 136.303 L2226.71 136.303 L2226.71 139.613 L2219.7 139.613 L2219.7 162.229 L2215.41 162.229 L2215.41 139.613 L2211.34 139.613 L2211.34 136.303 L2215.41 136.303 L2215.41 134.497 Q2215.41 130.169 2217.43 128.201 Q2219.44 126.21 2223.82 126.21 L2227.84 126.21 Z" fill="#000000" fill-rule="nonzero" fill-opacity="1" /><path clip-path="url(#clip580)" d="M2231.41 136.303 L2235.67 136.303 L2235.67 162.229 L2231.41 162.229 L2231.41 136.303 M2231.41 126.21 L2235.67 126.21 L2235.67 131.604 L2231.41 131.604 L2231.41 126.21 Z" fill="#000000" fill-rule="nonzero" fill-opacity="1" /><path clip-path="url(#clip580)" d="M2248.79 128.942 L2248.79 136.303 L2257.57 136.303 L2257.57 139.613 L2248.79 139.613 L2248.79 153.687 Q2248.79 156.858 2249.65 157.761 Q2250.53 158.664 2253.19 158.664 L2257.57 158.664 L2257.57 162.229 L2253.19 162.229 Q2248.26 162.229 2246.39 160.4 Q2244.51 158.548 2244.51 153.687 L2244.51 139.613 L2241.39 139.613 L2241.39 136.303 L2244.51 136.303 L2244.51 128.942 L2248.79 128.942 Z" fill="#000000" fill-rule="nonzero" fill-opacity="1" /><polyline clip-path="url(#clip580)" style="stroke:#e26f46; stroke-linecap:round; stroke-linejoin:round; stroke-width:4; stroke-opacity:1; fill:none" points="1432.54,196.789 1575.32,196.789 "/>
<path clip-path="url(#clip580)" d="M1612.52 201.036 Q1607.36 201.036 1605.37 202.217 Q1603.38 203.397 1603.38 206.245 Q1603.38 208.513 1604.86 209.856 Q1606.37 211.175 1608.93 211.175 Q1612.48 211.175 1614.61 208.675 Q1616.76 206.152 1616.76 201.985 L1616.76 201.036 L1612.52 201.036 M1621.02 199.277 L1621.02 214.069 L1616.76 214.069 L1616.76 210.133 Q1615.3 212.495 1613.12 213.629 Q1610.95 214.74 1607.8 214.74 Q1603.82 214.74 1601.46 212.518 Q1599.12 210.272 1599.12 206.522 Q1599.12 202.147 1602.04 199.925 Q1604.98 197.703 1610.79 197.703 L1616.76 197.703 L1616.76 197.286 Q1616.76 194.347 1614.81 192.749 Q1612.89 191.129 1609.4 191.129 Q1607.18 191.129 1605.07 191.661 Q1602.96 192.194 1601.02 193.259 L1601.02 189.323 Q1603.36 188.421 1605.56 187.981 Q1607.75 187.518 1609.84 187.518 Q1615.46 187.518 1618.24 190.434 Q1621.02 193.351 1621.02 199.277 Z" fill="#000000" fill-rule="nonzero" fill-opacity="1" /><path clip-path="url(#clip580)" d="M1629.35 203.837 L1629.35 188.143 L1633.61 188.143 L1633.61 203.675 Q1633.61 207.356 1635.05 209.208 Q1636.48 211.036 1639.35 211.036 Q1642.8 211.036 1644.79 208.837 Q1646.81 206.638 1646.81 202.842 L1646.81 188.143 L1651.06 188.143 L1651.06 214.069 L1646.81 214.069 L1646.81 210.087 Q1645.25 212.448 1643.19 213.606 Q1641.16 214.74 1638.45 214.74 Q1633.98 214.74 1631.67 211.962 Q1629.35 209.184 1629.35 203.837 M1640.07 187.518 L1640.07 187.518 Z" fill="#000000" fill-rule="nonzero" fill-opacity="1" /><path clip-path="url(#clip580)" d="M1664.05 180.782 L1664.05 188.143 L1672.82 188.143 L1672.82 191.453 L1664.05 191.453 L1664.05 205.527 Q1664.05 208.698 1664.91 209.601 Q1665.79 210.504 1668.45 210.504 L1672.82 210.504 L1672.82 214.069 L1668.45 214.069 Q1663.52 214.069 1661.64 212.24 Q1659.77 210.388 1659.77 205.527 L1659.77 191.453 L1656.64 191.453 L1656.64 188.143 L1659.77 188.143 L1659.77 180.782 L1664.05 180.782 Z" fill="#000000" fill-rule="nonzero" fill-opacity="1" /><path clip-path="url(#clip580)" d="M1688.47 191.129 Q1685.05 191.129 1683.05 193.814 Q1681.06 196.476 1681.06 201.129 Q1681.06 205.782 1683.03 208.467 Q1685.02 211.129 1688.47 211.129 Q1691.87 211.129 1693.87 208.444 Q1695.86 205.758 1695.86 201.129 Q1695.86 196.522 1693.87 193.837 Q1691.87 191.129 1688.47 191.129 M1688.47 187.518 Q1694.03 187.518 1697.2 191.129 Q1700.37 194.74 1700.37 201.129 Q1700.37 207.495 1697.2 211.129 Q1694.03 214.74 1688.47 214.74 Q1682.89 214.74 1679.72 211.129 Q1676.57 207.495 1676.57 201.129 Q1676.57 194.74 1679.72 191.129 Q1682.89 187.518 1688.47 187.518 Z" fill="#000000" fill-rule="nonzero" fill-opacity="1" /><path clip-path="url(#clip580)" d="M1722.45 192.124 Q1721.74 191.708 1720.88 191.522 Q1720.05 191.314 1719.03 191.314 Q1715.42 191.314 1713.47 193.675 Q1711.55 196.013 1711.55 200.411 L1711.55 214.069 L1707.27 214.069 L1707.27 188.143 L1711.55 188.143 L1711.55 192.171 Q1712.89 189.809 1715.05 188.675 Q1717.2 187.518 1720.28 187.518 Q1720.72 187.518 1721.25 187.587 Q1721.78 187.634 1722.43 187.749 L1722.45 192.124 Z" fill="#000000" fill-rule="nonzero" fill-opacity="1" /><path clip-path="url(#clip580)" d="M1748.05 200.041 L1748.05 202.124 L1728.47 202.124 Q1728.75 206.522 1731.11 208.837 Q1733.49 211.129 1737.73 211.129 Q1740.18 211.129 1742.48 210.527 Q1744.79 209.925 1747.06 208.721 L1747.06 212.749 Q1744.77 213.721 1742.36 214.231 Q1739.95 214.74 1737.48 214.74 Q1731.27 214.74 1727.64 211.129 Q1724.03 207.518 1724.03 201.36 Q1724.03 194.995 1727.45 191.268 Q1730.9 187.518 1736.74 187.518 Q1741.97 187.518 1745 190.897 Q1748.05 194.254 1748.05 200.041 M1743.8 198.791 Q1743.75 195.296 1741.83 193.212 Q1739.93 191.129 1736.78 191.129 Q1733.22 191.129 1731.06 193.143 Q1728.93 195.157 1728.61 198.814 L1743.8 198.791 Z" fill="#000000" fill-rule="nonzero" fill-opacity="1" /><path clip-path="url(#clip580)" d="M1772.11 200.805 Q1772.11 196.175 1770.18 193.629 Q1768.29 191.083 1764.84 191.083 Q1761.41 191.083 1759.49 193.629 Q1757.59 196.175 1757.59 200.805 Q1757.59 205.411 1759.49 207.958 Q1761.41 210.504 1764.84 210.504 Q1768.29 210.504 1770.18 207.958 Q1772.11 205.411 1772.11 200.805 M1776.36 210.851 Q1776.36 217.471 1773.42 220.689 Q1770.49 223.93 1764.42 223.93 Q1762.17 223.93 1760.18 223.582 Q1758.19 223.258 1756.32 222.564 L1756.32 218.42 Q1758.19 219.439 1760.02 219.925 Q1761.85 220.411 1763.75 220.411 Q1767.94 220.411 1770.02 218.212 Q1772.11 216.036 1772.11 211.615 L1772.11 209.508 Q1770.79 211.8 1768.73 212.934 Q1766.67 214.069 1763.8 214.069 Q1759.03 214.069 1756.11 210.434 Q1753.19 206.8 1753.19 200.805 Q1753.19 194.786 1756.11 191.152 Q1759.03 187.518 1763.8 187.518 Q1766.67 187.518 1768.73 188.652 Q1770.79 189.786 1772.11 192.078 L1772.11 188.143 L1776.36 188.143 L1776.36 210.851 Z" fill="#000000" fill-rule="nonzero" fill-opacity="1" /><path clip-path="url(#clip580)" d="M1800.16 192.124 Q1799.44 191.708 1798.59 191.522 Q1797.75 191.314 1796.73 191.314 Q1793.12 191.314 1791.18 193.675 Q1789.26 196.013 1789.26 200.411 L1789.26 214.069 L1784.98 214.069 L1784.98 188.143 L1789.26 188.143 L1789.26 192.171 Q1790.6 189.809 1792.75 188.675 Q1794.91 187.518 1797.98 187.518 Q1798.42 187.518 1798.96 187.587 Q1799.49 187.634 1800.14 187.749 L1800.16 192.124 Z" fill="#000000" fill-rule="nonzero" fill-opacity="1" /><path clip-path="url(#clip580)" d="M1825.76 200.041 L1825.76 202.124 L1806.18 202.124 Q1806.46 206.522 1808.82 208.837 Q1811.2 211.129 1815.44 211.129 Q1817.89 211.129 1820.18 210.527 Q1822.5 209.925 1824.77 208.721 L1824.77 212.749 Q1822.48 213.721 1820.07 214.231 Q1817.66 214.74 1815.18 214.74 Q1808.98 214.74 1805.35 211.129 Q1801.73 207.518 1801.73 201.36 Q1801.73 194.995 1805.16 191.268 Q1808.61 187.518 1814.44 187.518 Q1819.67 187.518 1822.71 190.897 Q1825.76 194.254 1825.76 200.041 M1821.5 198.791 Q1821.46 195.296 1819.54 193.212 Q1817.64 191.129 1814.49 191.129 Q1810.92 191.129 1808.77 193.143 Q1806.64 195.157 1806.32 198.814 L1821.5 198.791 Z" fill="#000000" fill-rule="nonzero" fill-opacity="1" /><path clip-path="url(#clip580)" d="M1849.28 188.907 L1849.28 192.934 Q1847.48 192.009 1845.53 191.546 Q1843.59 191.083 1841.5 191.083 Q1838.33 191.083 1836.73 192.055 Q1835.16 193.027 1835.16 194.971 Q1835.16 196.453 1836.29 197.309 Q1837.43 198.143 1840.86 198.907 L1842.31 199.231 Q1846.85 200.203 1848.75 201.985 Q1850.67 203.745 1850.67 206.916 Q1850.67 210.527 1847.8 212.633 Q1844.95 214.74 1839.95 214.74 Q1837.87 214.74 1835.6 214.323 Q1833.36 213.93 1830.86 213.12 L1830.86 208.721 Q1833.22 209.948 1835.51 210.573 Q1837.8 211.175 1840.04 211.175 Q1843.05 211.175 1844.67 210.157 Q1846.29 209.115 1846.29 207.24 Q1846.29 205.504 1845.11 204.578 Q1843.96 203.652 1840 202.796 L1838.52 202.448 Q1834.56 201.615 1832.8 199.902 Q1831.04 198.166 1831.04 195.157 Q1831.04 191.499 1833.63 189.509 Q1836.23 187.518 1840.99 187.518 Q1843.36 187.518 1845.44 187.865 Q1847.52 188.212 1849.28 188.907 Z" fill="#000000" fill-rule="nonzero" fill-opacity="1" /><path clip-path="url(#clip580)" d="M1873.98 188.907 L1873.98 192.934 Q1872.17 192.009 1870.23 191.546 Q1868.29 191.083 1866.2 191.083 Q1863.03 191.083 1861.43 192.055 Q1859.86 193.027 1859.86 194.971 Q1859.86 196.453 1860.99 197.309 Q1862.13 198.143 1865.55 198.907 L1867.01 199.231 Q1871.55 200.203 1873.45 201.985 Q1875.37 203.745 1875.37 206.916 Q1875.37 210.527 1872.5 212.633 Q1869.65 214.74 1864.65 214.74 Q1862.57 214.74 1860.3 214.323 Q1858.05 213.93 1855.55 213.12 L1855.55 208.721 Q1857.92 209.948 1860.21 210.573 Q1862.5 211.175 1864.74 211.175 Q1867.75 211.175 1869.37 210.157 Q1870.99 209.115 1870.99 207.24 Q1870.99 205.504 1869.81 204.578 Q1868.66 203.652 1864.7 202.796 L1863.22 202.448 Q1859.26 201.615 1857.5 199.902 Q1855.74 198.166 1855.74 195.157 Q1855.74 191.499 1858.33 189.509 Q1860.92 187.518 1865.69 187.518 Q1868.05 187.518 1870.14 187.865 Q1872.22 188.212 1873.98 188.907 Z" fill="#000000" fill-rule="nonzero" fill-opacity="1" /><path clip-path="url(#clip580)" d="M1882.15 188.143 L1886.41 188.143 L1886.41 214.069 L1882.15 214.069 L1882.15 188.143 M1882.15 178.05 L1886.41 178.05 L1886.41 183.444 L1882.15 183.444 L1882.15 178.05 Z" fill="#000000" fill-rule="nonzero" fill-opacity="1" /><path clip-path="url(#clip580)" d="M1892.27 188.143 L1896.78 188.143 L1904.88 209.902 L1912.98 188.143 L1917.5 188.143 L1907.78 214.069 L1901.99 214.069 L1892.27 188.143 Z" fill="#000000" fill-rule="nonzero" fill-opacity="1" /><path clip-path="url(#clip580)" d="M1945.55 200.041 L1945.55 202.124 L1925.97 202.124 Q1926.25 206.522 1928.61 208.837 Q1930.99 211.129 1935.23 211.129 Q1937.68 211.129 1939.97 210.527 Q1942.29 209.925 1944.56 208.721 L1944.56 212.749 Q1942.27 213.721 1939.86 214.231 Q1937.45 214.74 1934.97 214.74 Q1928.77 214.74 1925.14 211.129 Q1921.53 207.518 1921.53 201.36 Q1921.53 194.995 1924.95 191.268 Q1928.4 187.518 1934.23 187.518 Q1939.47 187.518 1942.5 190.897 Q1945.55 194.254 1945.55 200.041 M1941.29 198.791 Q1941.25 195.296 1939.33 193.212 Q1937.43 191.129 1934.28 191.129 Q1930.72 191.129 1928.56 193.143 Q1926.43 195.157 1926.11 198.814 L1941.29 198.791 Z" fill="#000000" fill-rule="nonzero" fill-opacity="1" /><path clip-path="url(#clip580)" d="M1989.79 200.041 L1989.79 202.124 L1970.21 202.124 Q1970.48 206.522 1972.85 208.837 Q1975.23 211.129 1979.47 211.129 Q1981.92 211.129 1984.21 210.527 Q1986.53 209.925 1988.79 208.721 L1988.79 212.749 Q1986.5 213.721 1984.09 214.231 Q1981.69 214.74 1979.21 214.74 Q1973.01 214.74 1969.37 211.129 Q1965.76 207.518 1965.76 201.36 Q1965.76 194.995 1969.19 191.268 Q1972.64 187.518 1978.47 187.518 Q1983.7 187.518 1986.73 190.897 Q1989.79 194.254 1989.79 200.041 M1985.53 198.791 Q1985.48 195.296 1983.56 193.212 Q1981.66 191.129 1978.52 191.129 Q1974.95 191.129 1972.8 193.143 Q1970.67 195.157 1970.35 198.814 L1985.53 198.791 Z" fill="#000000" fill-rule="nonzero" fill-opacity="1" /><path clip-path="url(#clip580)" d="M2013.31 188.907 L2013.31 192.934 Q2011.5 192.009 2009.56 191.546 Q2007.61 191.083 2005.53 191.083 Q2002.36 191.083 2000.76 192.055 Q1999.19 193.027 1999.19 194.971 Q1999.19 196.453 2000.32 197.309 Q2001.46 198.143 2004.88 198.907 L2006.34 199.231 Q2010.88 200.203 2012.78 201.985 Q2014.7 203.745 2014.7 206.916 Q2014.7 210.527 2011.83 212.633 Q2008.98 214.74 2003.98 214.74 Q2001.9 214.74 1999.63 214.323 Q1997.38 213.93 1994.88 213.12 L1994.88 208.721 Q1997.24 209.948 1999.53 210.573 Q2001.83 211.175 2004.07 211.175 Q2007.08 211.175 2008.7 210.157 Q2010.32 209.115 2010.32 207.24 Q2010.32 205.504 2009.14 204.578 Q2007.98 203.652 2004.03 202.796 L2002.54 202.448 Q1998.59 201.615 1996.83 199.902 Q1995.07 198.166 1995.07 195.157 Q1995.07 191.499 1997.66 189.509 Q2000.25 187.518 2005.02 187.518 Q2007.38 187.518 2009.47 187.865 Q2011.55 188.212 2013.31 188.907 Z" fill="#000000" fill-rule="nonzero" fill-opacity="1" /><path clip-path="url(#clip580)" d="M2025.69 180.782 L2025.69 188.143 L2034.47 188.143 L2034.47 191.453 L2025.69 191.453 L2025.69 205.527 Q2025.69 208.698 2026.55 209.601 Q2027.43 210.504 2030.09 210.504 L2034.47 210.504 L2034.47 214.069 L2030.09 214.069 Q2025.16 214.069 2023.28 212.24 Q2021.41 210.388 2021.41 205.527 L2021.41 191.453 L2018.28 191.453 L2018.28 188.143 L2021.41 188.143 L2021.41 180.782 L2025.69 180.782 Z" fill="#000000" fill-rule="nonzero" fill-opacity="1" /><path clip-path="url(#clip580)" d="M2040.07 188.143 L2044.33 188.143 L2044.33 214.069 L2040.07 214.069 L2040.07 188.143 M2040.07 178.05 L2044.33 178.05 L2044.33 183.444 L2040.07 183.444 L2040.07 178.05 Z" fill="#000000" fill-rule="nonzero" fill-opacity="1" /><path clip-path="url(#clip580)" d="M2073.42 193.12 Q2075.02 190.249 2077.24 188.884 Q2079.46 187.518 2082.47 187.518 Q2086.53 187.518 2088.72 190.365 Q2090.92 193.189 2090.92 198.421 L2090.92 214.069 L2086.64 214.069 L2086.64 198.559 Q2086.64 194.833 2085.32 193.027 Q2084 191.222 2081.29 191.222 Q2077.98 191.222 2076.06 193.421 Q2074.14 195.62 2074.14 199.416 L2074.14 214.069 L2069.86 214.069 L2069.86 198.559 Q2069.86 194.809 2068.54 193.027 Q2067.22 191.222 2064.46 191.222 Q2061.2 191.222 2059.28 193.444 Q2057.36 195.643 2057.36 199.416 L2057.36 214.069 L2053.08 214.069 L2053.08 188.143 L2057.36 188.143 L2057.36 192.171 Q2058.82 189.786 2060.85 188.652 Q2062.89 187.518 2065.69 187.518 Q2068.52 187.518 2070.48 188.953 Q2072.47 190.388 2073.42 193.12 Z" fill="#000000" fill-rule="nonzero" fill-opacity="1" /><path clip-path="url(#clip580)" d="M2111.2 201.036 Q2106.04 201.036 2104.05 202.217 Q2102.06 203.397 2102.06 206.245 Q2102.06 208.513 2103.54 209.856 Q2105.04 211.175 2107.61 211.175 Q2111.15 211.175 2113.28 208.675 Q2115.44 206.152 2115.44 201.985 L2115.44 201.036 L2111.2 201.036 M2119.7 199.277 L2119.7 214.069 L2115.44 214.069 L2115.44 210.133 Q2113.98 212.495 2111.8 213.629 Q2109.63 214.74 2106.48 214.74 Q2102.5 214.74 2100.14 212.518 Q2097.8 210.272 2097.8 206.522 Q2097.8 202.147 2100.71 199.925 Q2103.65 197.703 2109.46 197.703 L2115.44 197.703 L2115.44 197.286 Q2115.44 194.347 2113.49 192.749 Q2111.57 191.129 2108.08 191.129 Q2105.85 191.129 2103.75 191.661 Q2101.64 192.194 2099.7 193.259 L2099.7 189.323 Q2102.03 188.421 2104.23 187.981 Q2106.43 187.518 2108.52 187.518 Q2114.14 187.518 2116.92 190.434 Q2119.7 193.351 2119.7 199.277 Z" fill="#000000" fill-rule="nonzero" fill-opacity="1" /><path clip-path="url(#clip580)" d="M2132.68 180.782 L2132.68 188.143 L2141.46 188.143 L2141.46 191.453 L2132.68 191.453 L2132.68 205.527 Q2132.68 208.698 2133.54 209.601 Q2134.42 210.504 2137.08 210.504 L2141.46 210.504 L2141.46 214.069 L2137.08 214.069 Q2132.15 214.069 2130.27 212.24 Q2128.4 210.388 2128.4 205.527 L2128.4 191.453 L2125.27 191.453 L2125.27 188.143 L2128.4 188.143 L2128.4 180.782 L2132.68 180.782 Z" fill="#000000" fill-rule="nonzero" fill-opacity="1" /><path clip-path="url(#clip580)" d="M2169.23 200.041 L2169.23 202.124 L2149.65 202.124 Q2149.93 206.522 2152.29 208.837 Q2154.67 211.129 2158.91 211.129 Q2161.36 211.129 2163.65 210.527 Q2165.97 209.925 2168.24 208.721 L2168.24 212.749 Q2165.95 213.721 2163.54 214.231 Q2161.13 214.74 2158.65 214.74 Q2152.45 214.74 2148.82 211.129 Q2145.21 207.518 2145.21 201.36 Q2145.21 194.995 2148.63 191.268 Q2152.08 187.518 2157.91 187.518 Q2163.14 187.518 2166.18 190.897 Q2169.23 194.254 2169.23 200.041 M2164.97 198.791 Q2164.93 195.296 2163.01 193.212 Q2161.11 191.129 2157.96 191.129 Q2154.4 191.129 2152.24 193.143 Q2150.11 195.157 2149.79 198.814 L2164.97 198.791 Z" fill="#000000" fill-rule="nonzero" fill-opacity="1" /></svg>
