<?xml version="1.0" encoding="utf-8"?>
<svg xmlns="http://www.w3.org/2000/svg" xmlns:xlink="http://www.w3.org/1999/xlink" width="600" height="400" viewBox="0 0 2400 1600">
<defs>
  <clipPath id="clip850">
    <rect x="0" y="0" width="2400" height="1600"/>
  </clipPath>
</defs>
<path clip-path="url(#clip850)" d="M0 1600 L2400 1600 L2400 0 L0 0  Z" fill="#ffffff" fill-rule="evenodd" fill-opacity="1"/>
<defs>
  <clipPath id="clip851">
    <rect x="186" y="47" width="2167" height="1440"/>
  </clipPath>
</defs>
<path clip-path="url(#clip850)" d="M186.76 1486.45 L2352.76 1486.45 L2352.76 47.2441 L186.76 47.2441  Z" fill="#ffffff" fill-rule="evenodd" fill-opacity="1"/>
<polyline clip-path="url(#clip851)" style="stroke:#000000; stroke-linecap:round; stroke-linejoin:round; stroke-width:2; stroke-opacity:0.1; fill:none" points="248.062,1486.45 248.062,47.2441 "/>
<polyline clip-path="url(#clip851)" style="stroke:#000000; stroke-linecap:round; stroke-linejoin:round; stroke-width:2; stroke-opacity:0.1; fill:none" points="554.571,1486.45 554.571,47.2441 "/>
<polyline clip-path="url(#clip851)" style="stroke:#000000; stroke-linecap:round; stroke-linejoin:round; stroke-width:2; stroke-opacity:0.1; fill:none" points="861.08,1486.45 861.08,47.2441 "/>
<polyline clip-path="url(#clip851)" style="stroke:#000000; stroke-linecap:round; stroke-linejoin:round; stroke-width:2; stroke-opacity:0.1; fill:none" points="1167.59,1486.45 1167.59,47.2441 "/>
<polyline clip-path="url(#clip851)" style="stroke:#000000; stroke-linecap:round; stroke-linejoin:round; stroke-width:2; stroke-opacity:0.1; fill:none" points="1474.1,1486.45 1474.1,47.2441 "/>
<polyline clip-path="url(#clip851)" style="stroke:#000000; stroke-linecap:round; stroke-linejoin:round; stroke-width:2; stroke-opacity:0.1; fill:none" points="1780.61,1486.45 1780.61,47.2441 "/>
<polyline clip-path="url(#clip851)" style="stroke:#000000; stroke-linecap:round; stroke-linejoin:round; stroke-width:2; stroke-opacity:0.1; fill:none" points="2087.11,1486.45 2087.11,47.2441 "/>
<polyline clip-path="url(#clip851)" style="stroke:#000000; stroke-linecap:round; stroke-linejoin:round; stroke-width:2; stroke-opacity:0.1; fill:none" points="186.76,1422.26 2352.76,1422.26 "/>
<polyline clip-path="url(#clip851)" style="stroke:#000000; stroke-linecap:round; stroke-linejoin:round; stroke-width:2; stroke-opacity:0.1; fill:none" points="186.76,1220.4 2352.76,1220.4 "/>
<polyline clip-path="url(#clip851)" style="stroke:#000000; stroke-linecap:round; stroke-linejoin:round; stroke-width:2; stroke-opacity:0.1; fill:none" points="186.76,1018.54 2352.76,1018.54 "/>
<polyline clip-path="url(#clip851)" style="stroke:#000000; stroke-linecap:round; stroke-linejoin:round; stroke-width:2; stroke-opacity:0.1; fill:none" points="186.76,816.684 2352.76,816.684 "/>
<polyline clip-path="url(#clip851)" style="stroke:#000000; stroke-linecap:round; stroke-linejoin:round; stroke-width:2; stroke-opacity:0.1; fill:none" points="186.76,614.826 2352.76,614.826 "/>
<polyline clip-path="url(#clip851)" style="stroke:#000000; stroke-linecap:round; stroke-linejoin:round; stroke-width:2; stroke-opacity:0.1; fill:none" points="186.76,412.968 2352.76,412.968 "/>
<polyline clip-path="url(#clip851)" style="stroke:#000000; stroke-linecap:round; stroke-linejoin:round; stroke-width:2; stroke-opacity:0.1; fill:none" points="186.76,211.11 2352.76,211.11 "/>
<polyline clip-path="url(#clip850)" style="stroke:#000000; stroke-linecap:round; stroke-linejoin:round; stroke-width:4; stroke-opacity:1; fill:none" points="186.76,1486.45 2352.76,1486.45 "/>
<polyline clip-path="url(#clip850)" style="stroke:#000000; stroke-linecap:round; stroke-linejoin:round; stroke-width:4; stroke-opacity:1; fill:none" points="248.062,1486.45 248.062,1467.55 "/>
<polyline clip-path="url(#clip850)" style="stroke:#000000; stroke-linecap:round; stroke-linejoin:round; stroke-width:4; stroke-opacity:1; fill:none" points="554.571,1486.45 554.571,1467.55 "/>
<polyline clip-path="url(#clip850)" style="stroke:#000000; stroke-linecap:round; stroke-linejoin:round; stroke-width:4; stroke-opacity:1; fill:none" points="861.08,1486.45 861.08,1467.55 "/>
<polyline clip-path="url(#clip850)" style="stroke:#000000; stroke-linecap:round; stroke-linejoin:round; stroke-width:4; stroke-opacity:1; fill:none" points="1167.59,1486.45 1167.59,1467.55 "/>
<polyline clip-path="url(#clip850)" style="stroke:#000000; stroke-linecap:round; stroke-linejoin:round; stroke-width:4; stroke-opacity:1; fill:none" points="1474.1,1486.45 1474.1,1467.55 "/>
<polyline clip-path="url(#clip850)" style="stroke:#000000; stroke-linecap:round; stroke-linejoin:round; stroke-width:4; stroke-opacity:1; fill:none" points="1780.61,1486.45 1780.61,1467.55 "/>
<polyline clip-path="url(#clip850)" style="stroke:#000000; stroke-linecap:round; stroke-linejoin:round; stroke-width:4; stroke-opacity:1; fill:none" points="2087.11,1486.45 2087.11,1467.55 "/>
<path clip-path="url(#clip850)" d="M210.365 1517.37 Q206.754 1517.37 204.926 1520.93 Q203.12 1524.47 203.12 1531.6 Q203.12 1538.71 204.926 1542.27 Q206.754 1545.82 210.365 1545.82 Q214 1545.82 215.805 1542.27 Q217.634 1538.71 217.634 1531.6 Q217.634 1524.47 215.805 1520.93 Q214 1517.37 210.365 1517.37 M210.365 1513.66 Q216.175 1513.66 219.231 1518.27 Q222.31 1522.85 222.31 1531.6 Q222.31 1540.33 219.231 1544.94 Q216.175 1549.52 210.365 1549.52 Q204.555 1549.52 201.476 1544.94 Q198.421 1540.33 198.421 1531.6 Q198.421 1522.85 201.476 1518.27 Q204.555 1513.66 210.365 1513.66 Z" fill="#000000" fill-rule="nonzero" fill-opacity="1" /><path clip-path="url(#clip850)" d="M230.527 1542.97 L235.411 1542.97 L235.411 1548.85 L230.527 1548.85 L230.527 1542.97 Z" fill="#000000" fill-rule="nonzero" fill-opacity="1" /><path clip-path="url(#clip850)" d="M255.597 1517.37 Q251.985 1517.37 250.157 1520.93 Q248.351 1524.47 248.351 1531.6 Q248.351 1538.71 250.157 1542.27 Q251.985 1545.82 255.597 1545.82 Q259.231 1545.82 261.036 1542.27 Q262.865 1538.71 262.865 1531.6 Q262.865 1524.47 261.036 1520.93 Q259.231 1517.37 255.597 1517.37 M255.597 1513.66 Q261.407 1513.66 264.462 1518.27 Q267.541 1522.85 267.541 1531.6 Q267.541 1540.33 264.462 1544.94 Q261.407 1549.52 255.597 1549.52 Q249.786 1549.52 246.708 1544.94 Q243.652 1540.33 243.652 1531.6 Q243.652 1522.85 246.708 1518.27 Q249.786 1513.66 255.597 1513.66 Z" fill="#000000" fill-rule="nonzero" fill-opacity="1" /><path clip-path="url(#clip850)" d="M285.758 1517.37 Q282.147 1517.37 280.319 1520.93 Q278.513 1524.47 278.513 1531.6 Q278.513 1538.71 280.319 1542.27 Q282.147 1545.82 285.758 1545.82 Q289.393 1545.82 291.198 1542.27 Q293.027 1538.71 293.027 1531.6 Q293.027 1524.47 291.198 1520.93 Q289.393 1517.37 285.758 1517.37 M285.758 1513.66 Q291.569 1513.66 294.624 1518.27 Q297.703 1522.85 297.703 1531.6 Q297.703 1540.33 294.624 1544.94 Q291.569 1549.52 285.758 1549.52 Q279.948 1549.52 276.87 1544.94 Q273.814 1540.33 273.814 1531.6 Q273.814 1522.85 276.87 1518.27 Q279.948 1513.66 285.758 1513.66 Z" fill="#000000" fill-rule="nonzero" fill-opacity="1" /><path clip-path="url(#clip850)" d="M517.488 1517.37 Q513.876 1517.37 512.048 1520.93 Q510.242 1524.47 510.242 1531.6 Q510.242 1538.71 512.048 1542.27 Q513.876 1545.82 517.488 1545.82 Q521.122 1545.82 522.927 1542.27 Q524.756 1538.71 524.756 1531.6 Q524.756 1524.47 522.927 1520.93 Q521.122 1517.37 517.488 1517.37 M517.488 1513.66 Q523.298 1513.66 526.353 1518.27 Q529.432 1522.85 529.432 1531.6 Q529.432 1540.33 526.353 1544.94 Q523.298 1549.52 517.488 1549.52 Q511.677 1549.52 508.599 1544.94 Q505.543 1540.33 505.543 1531.6 Q505.543 1522.85 508.599 1518.27 Q511.677 1513.66 517.488 1513.66 Z" fill="#000000" fill-rule="nonzero" fill-opacity="1" /><path clip-path="url(#clip850)" d="M537.65 1542.97 L542.534 1542.97 L542.534 1548.85 L537.65 1548.85 L537.65 1542.97 Z" fill="#000000" fill-rule="nonzero" fill-opacity="1" /><path clip-path="url(#clip850)" d="M562.719 1517.37 Q559.108 1517.37 557.279 1520.93 Q555.473 1524.47 555.473 1531.6 Q555.473 1538.71 557.279 1542.27 Q559.108 1545.82 562.719 1545.82 Q566.353 1545.82 568.159 1542.27 Q569.987 1538.71 569.987 1531.6 Q569.987 1524.47 568.159 1520.93 Q566.353 1517.37 562.719 1517.37 M562.719 1513.66 Q568.529 1513.66 571.585 1518.27 Q574.663 1522.85 574.663 1531.6 Q574.663 1540.33 571.585 1544.94 Q568.529 1549.52 562.719 1549.52 Q556.909 1549.52 553.83 1544.94 Q550.774 1540.33 550.774 1531.6 Q550.774 1522.85 553.83 1518.27 Q556.909 1513.66 562.719 1513.66 Z" fill="#000000" fill-rule="nonzero" fill-opacity="1" /><path clip-path="url(#clip850)" d="M583.691 1544.91 L591.33 1544.91 L591.33 1518.55 L583.02 1520.21 L583.02 1515.95 L591.283 1514.29 L595.959 1514.29 L595.959 1544.91 L603.598 1544.91 L603.598 1548.85 L583.691 1548.85 L583.691 1544.91 Z" fill="#000000" fill-rule="nonzero" fill-opacity="1" /><path clip-path="url(#clip850)" d="M824.182 1517.37 Q820.571 1517.37 818.742 1520.93 Q816.936 1524.47 816.936 1531.6 Q816.936 1538.71 818.742 1542.27 Q820.571 1545.82 824.182 1545.82 Q827.816 1545.82 829.621 1542.27 Q831.45 1538.71 831.45 1531.6 Q831.45 1524.47 829.621 1520.93 Q827.816 1517.37 824.182 1517.37 M824.182 1513.66 Q829.992 1513.66 833.047 1518.27 Q836.126 1522.85 836.126 1531.6 Q836.126 1540.33 833.047 1544.94 Q829.992 1549.52 824.182 1549.52 Q818.371 1549.52 815.293 1544.94 Q812.237 1540.33 812.237 1531.6 Q812.237 1522.85 815.293 1518.27 Q818.371 1513.66 824.182 1513.66 Z" fill="#000000" fill-rule="nonzero" fill-opacity="1" /><path clip-path="url(#clip850)" d="M844.344 1542.97 L849.228 1542.97 L849.228 1548.85 L844.344 1548.85 L844.344 1542.97 Z" fill="#000000" fill-rule="nonzero" fill-opacity="1" /><path clip-path="url(#clip850)" d="M869.413 1517.37 Q865.802 1517.37 863.973 1520.93 Q862.168 1524.47 862.168 1531.6 Q862.168 1538.71 863.973 1542.27 Q865.802 1545.82 869.413 1545.82 Q873.047 1545.82 874.853 1542.27 Q876.681 1538.71 876.681 1531.6 Q876.681 1524.47 874.853 1520.93 Q873.047 1517.37 869.413 1517.37 M869.413 1513.66 Q875.223 1513.66 878.279 1518.27 Q881.357 1522.85 881.357 1531.6 Q881.357 1540.33 878.279 1544.94 Q875.223 1549.52 869.413 1549.52 Q863.603 1549.52 860.524 1544.94 Q857.468 1540.33 857.468 1531.6 Q857.468 1522.85 860.524 1518.27 Q863.603 1513.66 869.413 1513.66 Z" fill="#000000" fill-rule="nonzero" fill-opacity="1" /><path clip-path="url(#clip850)" d="M893.603 1544.91 L909.922 1544.91 L909.922 1548.85 L887.978 1548.85 L887.978 1544.91 Q890.64 1542.16 895.223 1537.53 Q899.829 1532.88 901.01 1531.53 Q903.255 1529.01 904.135 1527.27 Q905.038 1525.51 905.038 1523.82 Q905.038 1521.07 903.093 1519.33 Q901.172 1517.6 898.07 1517.6 Q895.871 1517.6 893.417 1518.36 Q890.987 1519.13 888.209 1520.68 L888.209 1515.95 Q891.033 1514.82 893.487 1514.24 Q895.94 1513.66 897.978 1513.66 Q903.348 1513.66 906.542 1516.35 Q909.737 1519.03 909.737 1523.52 Q909.737 1525.65 908.927 1527.57 Q908.139 1529.47 906.033 1532.07 Q905.454 1532.74 902.352 1535.95 Q899.251 1539.15 893.603 1544.91 Z" fill="#000000" fill-rule="nonzero" fill-opacity="1" /><path clip-path="url(#clip850)" d="M1130.22 1517.37 Q1126.6 1517.37 1124.78 1520.93 Q1122.97 1524.47 1122.97 1531.6 Q1122.97 1538.71 1124.78 1542.27 Q1126.6 1545.82 1130.22 1545.82 Q1133.85 1545.82 1135.66 1542.27 Q1137.48 1538.71 1137.48 1531.6 Q1137.48 1524.47 1135.66 1520.93 Q1133.85 1517.37 1130.22 1517.37 M1130.22 1513.66 Q1136.03 1513.66 1139.08 1518.27 Q1142.16 1522.85 1142.16 1531.6 Q1142.16 1540.33 1139.08 1544.94 Q1136.03 1549.52 1130.22 1549.52 Q1124.41 1549.52 1121.33 1544.94 Q1118.27 1540.33 1118.27 1531.6 Q1118.27 1522.85 1121.33 1518.27 Q1124.41 1513.66 1130.22 1513.66 Z" fill="#000000" fill-rule="nonzero" fill-opacity="1" /><path clip-path="url(#clip850)" d="M1150.38 1542.97 L1155.26 1542.97 L1155.26 1548.85 L1150.38 1548.85 L1150.38 1542.97 Z" fill="#000000" fill-rule="nonzero" fill-opacity="1" /><path clip-path="url(#clip850)" d="M1175.45 1517.37 Q1171.84 1517.37 1170.01 1520.93 Q1168.2 1524.47 1168.2 1531.6 Q1168.2 1538.71 1170.01 1542.27 Q1171.84 1545.82 1175.45 1545.82 Q1179.08 1545.82 1180.89 1542.27 Q1182.72 1538.71 1182.72 1531.6 Q1182.72 1524.47 1180.89 1520.93 Q1179.08 1517.37 1175.45 1517.37 M1175.45 1513.66 Q1181.26 1513.66 1184.31 1518.27 Q1187.39 1522.85 1187.39 1531.6 Q1187.39 1540.33 1184.31 1544.94 Q1181.26 1549.52 1175.45 1549.52 Q1169.64 1549.52 1166.56 1544.94 Q1163.5 1540.33 1163.5 1531.6 Q1163.5 1522.85 1166.56 1518.27 Q1169.64 1513.66 1175.45 1513.66 Z" fill="#000000" fill-rule="nonzero" fill-opacity="1" /><path clip-path="url(#clip850)" d="M1209.78 1530.21 Q1213.13 1530.93 1215.01 1533.2 Q1216.91 1535.47 1216.91 1538.8 Q1216.91 1543.92 1213.39 1546.72 Q1209.87 1549.52 1203.39 1549.52 Q1201.21 1549.52 1198.9 1549.08 Q1196.6 1548.66 1194.15 1547.81 L1194.15 1543.29 Q1196.1 1544.43 1198.41 1545.01 Q1200.72 1545.58 1203.25 1545.58 Q1207.65 1545.58 1209.94 1543.85 Q1212.25 1542.11 1212.25 1538.8 Q1212.25 1535.75 1210.1 1534.03 Q1207.97 1532.3 1204.15 1532.3 L1200.12 1532.3 L1200.12 1528.45 L1204.34 1528.45 Q1207.78 1528.45 1209.61 1527.09 Q1211.44 1525.7 1211.44 1523.11 Q1211.44 1520.45 1209.54 1519.03 Q1207.67 1517.6 1204.15 1517.6 Q1202.23 1517.6 1200.03 1518.01 Q1197.83 1518.43 1195.19 1519.31 L1195.19 1515.14 Q1197.85 1514.4 1200.17 1514.03 Q1202.51 1513.66 1204.57 1513.66 Q1209.89 1513.66 1212.99 1516.09 Q1216.1 1518.5 1216.1 1522.62 Q1216.1 1525.49 1214.45 1527.48 Q1212.81 1529.45 1209.78 1530.21 Z" fill="#000000" fill-rule="nonzero" fill-opacity="1" /><path clip-path="url(#clip850)" d="M1436.16 1517.37 Q1432.55 1517.37 1430.72 1520.93 Q1428.91 1524.47 1428.91 1531.6 Q1428.91 1538.71 1430.72 1542.27 Q1432.55 1545.82 1436.16 1545.82 Q1439.79 1545.82 1441.6 1542.27 Q1443.43 1538.71 1443.43 1531.6 Q1443.43 1524.47 1441.6 1520.93 Q1439.79 1517.37 1436.16 1517.37 M1436.16 1513.66 Q1441.97 1513.66 1445.02 1518.27 Q1448.1 1522.85 1448.1 1531.6 Q1448.1 1540.33 1445.02 1544.94 Q1441.97 1549.52 1436.16 1549.52 Q1430.35 1549.52 1427.27 1544.94 Q1424.21 1540.33 1424.21 1531.6 Q1424.21 1522.85 1427.27 1518.27 Q1430.35 1513.66 1436.16 1513.66 Z" fill="#000000" fill-rule="nonzero" fill-opacity="1" /><path clip-path="url(#clip850)" d="M1456.32 1542.97 L1461.2 1542.97 L1461.2 1548.85 L1456.32 1548.85 L1456.32 1542.97 Z" fill="#000000" fill-rule="nonzero" fill-opacity="1" /><path clip-path="url(#clip850)" d="M1481.39 1517.37 Q1477.78 1517.37 1475.95 1520.93 Q1474.14 1524.47 1474.14 1531.6 Q1474.14 1538.71 1475.95 1542.27 Q1477.78 1545.82 1481.39 1545.82 Q1485.02 1545.82 1486.83 1542.27 Q1488.66 1538.71 1488.66 1531.6 Q1488.66 1524.47 1486.83 1520.93 Q1485.02 1517.37 1481.39 1517.37 M1481.39 1513.66 Q1487.2 1513.66 1490.25 1518.27 Q1493.33 1522.85 1493.33 1531.6 Q1493.33 1540.33 1490.25 1544.94 Q1487.2 1549.52 1481.39 1549.52 Q1475.58 1549.52 1472.5 1544.94 Q1469.44 1540.33 1469.44 1531.6 Q1469.44 1522.85 1472.5 1518.27 Q1475.58 1513.66 1481.39 1513.66 Z" fill="#000000" fill-rule="nonzero" fill-opacity="1" /><path clip-path="url(#clip850)" d="M1514.4 1518.36 L1502.59 1536.81 L1514.4 1536.81 L1514.4 1518.36 M1513.17 1514.29 L1519.05 1514.29 L1519.05 1536.81 L1523.98 1536.81 L1523.98 1540.7 L1519.05 1540.7 L1519.05 1548.85 L1514.4 1548.85 L1514.4 1540.7 L1498.8 1540.7 L1498.8 1536.19 L1513.17 1514.29 Z" fill="#000000" fill-rule="nonzero" fill-opacity="1" /><path clip-path="url(#clip850)" d="M1743.41 1517.37 Q1739.8 1517.37 1737.97 1520.93 Q1736.16 1524.47 1736.16 1531.6 Q1736.16 1538.71 1737.97 1542.27 Q1739.8 1545.82 1743.41 1545.82 Q1747.04 1545.82 1748.85 1542.27 Q1750.68 1538.71 1750.68 1531.6 Q1750.68 1524.47 1748.85 1520.93 Q1747.04 1517.37 1743.41 1517.37 M1743.41 1513.66 Q1749.22 1513.66 1752.27 1518.27 Q1755.35 1522.85 1755.35 1531.6 Q1755.35 1540.33 1752.27 1544.94 Q1749.22 1549.52 1743.41 1549.52 Q1737.6 1549.52 1734.52 1544.94 Q1731.46 1540.33 1731.46 1531.6 Q1731.46 1522.85 1734.52 1518.27 Q1737.6 1513.66 1743.41 1513.66 Z" fill="#000000" fill-rule="nonzero" fill-opacity="1" /><path clip-path="url(#clip850)" d="M1763.57 1542.97 L1768.45 1542.97 L1768.45 1548.85 L1763.57 1548.85 L1763.57 1542.97 Z" fill="#000000" fill-rule="nonzero" fill-opacity="1" /><path clip-path="url(#clip850)" d="M1788.64 1517.37 Q1785.03 1517.37 1783.2 1520.93 Q1781.39 1524.47 1781.39 1531.6 Q1781.39 1538.71 1783.2 1542.27 Q1785.03 1545.82 1788.64 1545.82 Q1792.27 1545.82 1794.08 1542.27 Q1795.91 1538.71 1795.91 1531.6 Q1795.91 1524.47 1794.08 1520.93 Q1792.27 1517.37 1788.64 1517.37 M1788.64 1513.66 Q1794.45 1513.66 1797.5 1518.27 Q1800.58 1522.85 1800.58 1531.6 Q1800.58 1540.33 1797.5 1544.94 Q1794.45 1549.52 1788.64 1549.52 Q1782.83 1549.52 1779.75 1544.94 Q1776.69 1540.33 1776.69 1531.6 Q1776.69 1522.85 1779.75 1518.27 Q1782.83 1513.66 1788.64 1513.66 Z" fill="#000000" fill-rule="nonzero" fill-opacity="1" /><path clip-path="url(#clip850)" d="M1808.85 1514.29 L1827.2 1514.29 L1827.2 1518.22 L1813.13 1518.22 L1813.13 1526.7 Q1814.15 1526.35 1815.17 1526.19 Q1816.18 1526 1817.2 1526 Q1822.99 1526 1826.37 1529.17 Q1829.75 1532.34 1829.75 1537.76 Q1829.75 1543.34 1826.28 1546.44 Q1822.8 1549.52 1816.49 1549.52 Q1814.31 1549.52 1812.04 1549.15 Q1809.8 1548.78 1807.39 1548.04 L1807.39 1543.34 Q1809.47 1544.47 1811.69 1545.03 Q1813.92 1545.58 1816.39 1545.58 Q1820.4 1545.58 1822.74 1543.48 Q1825.07 1541.37 1825.07 1537.76 Q1825.07 1534.15 1822.74 1532.04 Q1820.4 1529.94 1816.39 1529.94 Q1814.52 1529.94 1812.64 1530.35 Q1810.79 1530.77 1808.85 1531.65 L1808.85 1514.29 Z" fill="#000000" fill-rule="nonzero" fill-opacity="1" /><path clip-path="url(#clip850)" d="M2049.34 1517.37 Q2045.73 1517.37 2043.9 1520.93 Q2042.09 1524.47 2042.09 1531.6 Q2042.09 1538.71 2043.9 1542.27 Q2045.73 1545.82 2049.34 1545.82 Q2052.97 1545.82 2054.78 1542.27 Q2056.61 1538.71 2056.61 1531.6 Q2056.61 1524.47 2054.78 1520.93 Q2052.97 1517.37 2049.34 1517.37 M2049.34 1513.66 Q2055.15 1513.66 2058.2 1518.27 Q2061.28 1522.85 2061.28 1531.6 Q2061.28 1540.33 2058.2 1544.94 Q2055.15 1549.52 2049.34 1549.52 Q2043.53 1549.52 2040.45 1544.94 Q2037.39 1540.33 2037.39 1531.6 Q2037.39 1522.85 2040.45 1518.27 Q2043.53 1513.66 2049.34 1513.66 Z" fill="#000000" fill-rule="nonzero" fill-opacity="1" /><path clip-path="url(#clip850)" d="M2069.5 1542.97 L2074.38 1542.97 L2074.38 1548.85 L2069.5 1548.85 L2069.5 1542.97 Z" fill="#000000" fill-rule="nonzero" fill-opacity="1" /><path clip-path="url(#clip850)" d="M2094.57 1517.37 Q2090.96 1517.37 2089.13 1520.93 Q2087.32 1524.47 2087.32 1531.6 Q2087.32 1538.71 2089.13 1542.27 Q2090.96 1545.82 2094.57 1545.82 Q2098.2 1545.82 2100.01 1542.27 Q2101.84 1538.71 2101.84 1531.6 Q2101.84 1524.47 2100.01 1520.93 Q2098.2 1517.37 2094.57 1517.37 M2094.57 1513.66 Q2100.38 1513.66 2103.43 1518.27 Q2106.51 1522.85 2106.51 1531.6 Q2106.51 1540.33 2103.43 1544.94 Q2100.38 1549.52 2094.57 1549.52 Q2088.76 1549.52 2085.68 1544.94 Q2082.62 1540.33 2082.62 1531.6 Q2082.62 1522.85 2085.68 1518.27 Q2088.76 1513.66 2094.57 1513.66 Z" fill="#000000" fill-rule="nonzero" fill-opacity="1" /><path clip-path="url(#clip850)" d="M2125.31 1529.7 Q2122.16 1529.7 2120.31 1531.86 Q2118.48 1534.01 2118.48 1537.76 Q2118.48 1541.49 2120.31 1543.66 Q2122.16 1545.82 2125.31 1545.82 Q2128.46 1545.82 2130.29 1543.66 Q2132.14 1541.49 2132.14 1537.76 Q2132.14 1534.01 2130.29 1531.86 Q2128.46 1529.7 2125.31 1529.7 M2134.59 1515.05 L2134.59 1519.31 Q2132.83 1518.48 2131.03 1518.04 Q2129.24 1517.6 2127.49 1517.6 Q2122.86 1517.6 2120.4 1520.72 Q2117.97 1523.85 2117.62 1530.17 Q2118.99 1528.15 2121.05 1527.09 Q2123.11 1526 2125.59 1526 Q2130.8 1526 2133.8 1529.17 Q2136.84 1532.32 2136.84 1537.76 Q2136.84 1543.08 2133.69 1546.3 Q2130.54 1549.52 2125.31 1549.52 Q2119.31 1549.52 2116.14 1544.94 Q2112.97 1540.33 2112.97 1531.6 Q2112.97 1523.41 2116.86 1518.55 Q2120.75 1513.66 2127.3 1513.66 Q2129.06 1513.66 2130.84 1514.01 Q2132.65 1514.36 2134.59 1515.05 Z" fill="#000000" fill-rule="nonzero" fill-opacity="1" /><polyline clip-path="url(#clip850)" style="stroke:#000000; stroke-linecap:round; stroke-linejoin:round; stroke-width:4; stroke-opacity:1; fill:none" points="186.76,1486.45 186.76,47.2441 "/>
<polyline clip-path="url(#clip850)" style="stroke:#000000; stroke-linecap:round; stroke-linejoin:round; stroke-width:4; stroke-opacity:1; fill:none" points="186.76,1422.26 205.658,1422.26 "/>
<polyline clip-path="url(#clip850)" style="stroke:#000000; stroke-linecap:round; stroke-linejoin:round; stroke-width:4; stroke-opacity:1; fill:none" points="186.76,1220.4 205.658,1220.4 "/>
<polyline clip-path="url(#clip850)" style="stroke:#000000; stroke-linecap:round; stroke-linejoin:round; stroke-width:4; stroke-opacity:1; fill:none" points="186.76,1018.54 205.658,1018.54 "/>
<polyline clip-path="url(#clip850)" style="stroke:#000000; stroke-linecap:round; stroke-linejoin:round; stroke-width:4; stroke-opacity:1; fill:none" points="186.76,816.684 205.658,816.684 "/>
<polyline clip-path="url(#clip850)" style="stroke:#000000; stroke-linecap:round; stroke-linejoin:round; stroke-width:4; stroke-opacity:1; fill:none" points="186.76,614.826 205.658,614.826 "/>
<polyline clip-path="url(#clip850)" style="stroke:#000000; stroke-linecap:round; stroke-linejoin:round; stroke-width:4; stroke-opacity:1; fill:none" points="186.76,412.968 205.658,412.968 "/>
<polyline clip-path="url(#clip850)" style="stroke:#000000; stroke-linecap:round; stroke-linejoin:round; stroke-width:4; stroke-opacity:1; fill:none" points="186.76,211.11 205.658,211.11 "/>
<path clip-path="url(#clip850)" d="M64.0708 1408.06 Q60.4597 1408.06 58.631 1411.62 Q56.8254 1415.16 56.8254 1422.29 Q56.8254 1429.4 58.631 1432.96 Q60.4597 1436.51 64.0708 1436.51 Q67.705 1436.51 69.5105 1432.96 Q71.3392 1429.4 71.3392 1422.29 Q71.3392 1415.16 69.5105 1411.62 Q67.705 1408.06 64.0708 1408.06 M64.0708 1404.35 Q69.8809 1404.35 72.9365 1408.96 Q76.0151 1413.54 76.0151 1422.29 Q76.0151 1431.02 72.9365 1435.63 Q69.8809 1440.21 64.0708 1440.21 Q58.2606 1440.21 55.1819 1435.63 Q52.1264 1431.02 52.1264 1422.29 Q52.1264 1413.54 55.1819 1408.96 Q58.2606 1404.35 64.0708 1404.35 Z" fill="#000000" fill-rule="nonzero" fill-opacity="1" /><path clip-path="url(#clip850)" d="M84.2327 1433.66 L89.1169 1433.66 L89.1169 1439.54 L84.2327 1439.54 L84.2327 1433.66 Z" fill="#000000" fill-rule="nonzero" fill-opacity="1" /><path clip-path="url(#clip850)" d="M109.302 1408.06 Q105.691 1408.06 103.862 1411.62 Q102.057 1415.16 102.057 1422.29 Q102.057 1429.4 103.862 1432.96 Q105.691 1436.51 109.302 1436.51 Q112.936 1436.51 114.742 1432.96 Q116.57 1429.4 116.57 1422.29 Q116.57 1415.16 114.742 1411.62 Q112.936 1408.06 109.302 1408.06 M109.302 1404.35 Q115.112 1404.35 118.168 1408.96 Q121.246 1413.54 121.246 1422.29 Q121.246 1431.02 118.168 1435.63 Q115.112 1440.21 109.302 1440.21 Q103.492 1440.21 100.413 1435.63 Q97.3576 1431.02 97.3576 1422.29 Q97.3576 1413.54 100.413 1408.96 Q103.492 1404.35 109.302 1404.35 Z" fill="#000000" fill-rule="nonzero" fill-opacity="1" /><path clip-path="url(#clip850)" d="M143.631 1420.9 Q146.987 1421.62 148.862 1423.89 Q150.76 1426.16 150.76 1429.49 Q150.76 1434.61 147.242 1437.41 Q143.723 1440.21 137.242 1440.21 Q135.066 1440.21 132.751 1439.77 Q130.459 1439.35 128.006 1438.5 L128.006 1433.98 Q129.95 1435.12 132.265 1435.7 Q134.58 1436.27 137.103 1436.27 Q141.501 1436.27 143.793 1434.54 Q146.107 1432.8 146.107 1429.49 Q146.107 1426.44 143.955 1424.72 Q141.825 1422.99 138.006 1422.99 L133.978 1422.99 L133.978 1419.14 L138.191 1419.14 Q141.64 1419.14 143.468 1417.78 Q145.297 1416.39 145.297 1413.8 Q145.297 1411.14 143.399 1409.72 Q141.524 1408.29 138.006 1408.29 Q136.084 1408.29 133.885 1408.7 Q131.686 1409.12 129.047 1410 L129.047 1405.83 Q131.709 1405.09 134.024 1404.72 Q136.362 1404.35 138.422 1404.35 Q143.746 1404.35 146.848 1406.78 Q149.95 1409.19 149.95 1413.31 Q149.95 1416.18 148.306 1418.17 Q146.663 1420.14 143.631 1420.9 Z" fill="#000000" fill-rule="nonzero" fill-opacity="1" /><path clip-path="url(#clip850)" d="M62.9365 1206.2 Q59.3254 1206.2 57.4967 1209.76 Q55.6912 1213.31 55.6912 1220.43 Q55.6912 1227.54 57.4967 1231.11 Q59.3254 1234.65 62.9365 1234.65 Q66.5707 1234.65 68.3763 1231.11 Q70.205 1227.54 70.205 1220.43 Q70.205 1213.31 68.3763 1209.76 Q66.5707 1206.2 62.9365 1206.2 M62.9365 1202.49 Q68.7467 1202.49 71.8022 1207.1 Q74.8809 1211.68 74.8809 1220.43 Q74.8809 1229.16 71.8022 1233.77 Q68.7467 1238.35 62.9365 1238.35 Q57.1264 1238.35 54.0477 1233.77 Q50.9921 1229.16 50.9921 1220.43 Q50.9921 1211.68 54.0477 1207.1 Q57.1264 1202.49 62.9365 1202.49 Z" fill="#000000" fill-rule="nonzero" fill-opacity="1" /><path clip-path="url(#clip850)" d="M83.0984 1231.8 L87.9827 1231.8 L87.9827 1237.68 L83.0984 1237.68 L83.0984 1231.8 Z" fill="#000000" fill-rule="nonzero" fill-opacity="1" /><path clip-path="url(#clip850)" d="M108.168 1206.2 Q104.557 1206.2 102.728 1209.76 Q100.922 1213.31 100.922 1220.43 Q100.922 1227.54 102.728 1231.11 Q104.557 1234.65 108.168 1234.65 Q111.802 1234.65 113.608 1231.11 Q115.436 1227.54 115.436 1220.43 Q115.436 1213.31 113.608 1209.76 Q111.802 1206.2 108.168 1206.2 M108.168 1202.49 Q113.978 1202.49 117.033 1207.1 Q120.112 1211.68 120.112 1220.43 Q120.112 1229.16 117.033 1233.77 Q113.978 1238.35 108.168 1238.35 Q102.358 1238.35 99.2789 1233.77 Q96.2234 1229.16 96.2234 1220.43 Q96.2234 1211.68 99.2789 1207.1 Q102.358 1202.49 108.168 1202.49 Z" fill="#000000" fill-rule="nonzero" fill-opacity="1" /><path clip-path="url(#clip850)" d="M141.177 1207.19 L129.371 1225.64 L141.177 1225.64 L141.177 1207.19 M139.95 1203.12 L145.83 1203.12 L145.83 1225.64 L150.76 1225.64 L150.76 1229.53 L145.83 1229.53 L145.83 1237.68 L141.177 1237.68 L141.177 1229.53 L125.575 1229.53 L125.575 1225.02 L139.95 1203.12 Z" fill="#000000" fill-rule="nonzero" fill-opacity="1" /><path clip-path="url(#clip850)" d="M64.418 1004.34 Q60.8069 1004.34 58.9782 1007.91 Q57.1726 1011.45 57.1726 1018.58 Q57.1726 1025.68 58.9782 1029.25 Q60.8069 1032.79 64.418 1032.79 Q68.0522 1032.79 69.8578 1029.25 Q71.6865 1025.68 71.6865 1018.58 Q71.6865 1011.45 69.8578 1007.91 Q68.0522 1004.34 64.418 1004.34 M64.418 1000.64 Q70.2281 1000.64 73.2837 1005.24 Q76.3624 1009.83 76.3624 1018.58 Q76.3624 1027.3 73.2837 1031.91 Q70.2281 1036.49 64.418 1036.49 Q58.6078 1036.49 55.5291 1031.91 Q52.4736 1027.3 52.4736 1018.58 Q52.4736 1009.83 55.5291 1005.24 Q58.6078 1000.64 64.418 1000.64 Z" fill="#000000" fill-rule="nonzero" fill-opacity="1" /><path clip-path="url(#clip850)" d="M84.5799 1029.94 L89.4641 1029.94 L89.4641 1035.82 L84.5799 1035.82 L84.5799 1029.94 Z" fill="#000000" fill-rule="nonzero" fill-opacity="1" /><path clip-path="url(#clip850)" d="M109.649 1004.34 Q106.038 1004.34 104.209 1007.91 Q102.404 1011.45 102.404 1018.58 Q102.404 1025.68 104.209 1029.25 Q106.038 1032.79 109.649 1032.79 Q113.283 1032.79 115.089 1029.25 Q116.918 1025.68 116.918 1018.58 Q116.918 1011.45 115.089 1007.91 Q113.283 1004.34 109.649 1004.34 M109.649 1000.64 Q115.459 1000.64 118.515 1005.24 Q121.594 1009.83 121.594 1018.58 Q121.594 1027.3 118.515 1031.91 Q115.459 1036.49 109.649 1036.49 Q103.839 1036.49 100.76 1031.91 Q97.7048 1027.3 97.7048 1018.58 Q97.7048 1009.83 100.76 1005.24 Q103.839 1000.64 109.649 1000.64 Z" fill="#000000" fill-rule="nonzero" fill-opacity="1" /><path clip-path="url(#clip850)" d="M129.857 1001.26 L148.214 1001.26 L148.214 1005.2 L134.14 1005.2 L134.14 1013.67 Q135.158 1013.32 136.177 1013.16 Q137.195 1012.97 138.214 1012.97 Q144.001 1012.97 147.38 1016.15 Q150.76 1019.32 150.76 1024.73 Q150.76 1030.31 147.288 1033.41 Q143.816 1036.49 137.496 1036.49 Q135.32 1036.49 133.052 1036.12 Q130.807 1035.75 128.399 1035.01 L128.399 1030.31 Q130.482 1031.45 132.705 1032 Q134.927 1032.56 137.404 1032.56 Q141.408 1032.56 143.746 1030.45 Q146.084 1028.35 146.084 1024.73 Q146.084 1021.12 143.746 1019.02 Q141.408 1016.91 137.404 1016.91 Q135.529 1016.91 133.654 1017.33 Q131.802 1017.74 129.857 1018.62 L129.857 1001.26 Z" fill="#000000" fill-rule="nonzero" fill-opacity="1" /><path clip-path="url(#clip850)" d="M63.2606 802.483 Q59.6495 802.483 57.8208 806.047 Q56.0152 809.589 56.0152 816.719 Q56.0152 823.825 57.8208 827.39 Q59.6495 830.932 63.2606 830.932 Q66.8948 830.932 68.7004 827.39 Q70.5291 823.825 70.5291 816.719 Q70.5291 809.589 68.7004 806.047 Q66.8948 802.483 63.2606 802.483 M63.2606 798.779 Q69.0707 798.779 72.1263 803.385 Q75.205 807.969 75.205 816.719 Q75.205 825.446 72.1263 830.052 Q69.0707 834.635 63.2606 834.635 Q57.4504 834.635 54.3717 830.052 Q51.3162 825.446 51.3162 816.719 Q51.3162 807.969 54.3717 803.385 Q57.4504 798.779 63.2606 798.779 Z" fill="#000000" fill-rule="nonzero" fill-opacity="1" /><path clip-path="url(#clip850)" d="M83.4225 828.084 L88.3067 828.084 L88.3067 833.964 L83.4225 833.964 L83.4225 828.084 Z" fill="#000000" fill-rule="nonzero" fill-opacity="1" /><path clip-path="url(#clip850)" d="M108.492 802.483 Q104.881 802.483 103.052 806.047 Q101.246 809.589 101.246 816.719 Q101.246 823.825 103.052 827.39 Q104.881 830.932 108.492 830.932 Q112.126 830.932 113.932 827.39 Q115.76 823.825 115.76 816.719 Q115.76 809.589 113.932 806.047 Q112.126 802.483 108.492 802.483 M108.492 798.779 Q114.302 798.779 117.358 803.385 Q120.436 807.969 120.436 816.719 Q120.436 825.446 117.358 830.052 Q114.302 834.635 108.492 834.635 Q102.682 834.635 99.603 830.052 Q96.5474 825.446 96.5474 816.719 Q96.5474 807.969 99.603 803.385 Q102.682 798.779 108.492 798.779 Z" fill="#000000" fill-rule="nonzero" fill-opacity="1" /><path clip-path="url(#clip850)" d="M139.232 814.821 Q136.084 814.821 134.232 816.973 Q132.404 819.126 132.404 822.876 Q132.404 826.603 134.232 828.779 Q136.084 830.932 139.232 830.932 Q142.381 830.932 144.209 828.779 Q146.061 826.603 146.061 822.876 Q146.061 819.126 144.209 816.973 Q142.381 814.821 139.232 814.821 M148.515 800.168 L148.515 804.427 Q146.756 803.594 144.95 803.154 Q143.168 802.714 141.408 802.714 Q136.779 802.714 134.325 805.839 Q131.894 808.964 131.547 815.284 Q132.913 813.27 134.973 812.205 Q137.033 811.117 139.51 811.117 Q144.718 811.117 147.728 814.288 Q150.76 817.436 150.76 822.876 Q150.76 828.2 147.612 831.418 Q144.464 834.635 139.232 834.635 Q133.237 834.635 130.066 830.052 Q126.894 825.446 126.894 816.719 Q126.894 808.524 130.783 803.663 Q134.672 798.779 141.223 798.779 Q142.982 798.779 144.765 799.126 Q146.57 799.473 148.515 800.168 Z" fill="#000000" fill-rule="nonzero" fill-opacity="1" /><path clip-path="url(#clip850)" d="M64.3254 600.625 Q60.7143 600.625 58.8856 604.19 Q57.0801 607.731 57.0801 614.861 Q57.0801 621.967 58.8856 625.532 Q60.7143 629.074 64.3254 629.074 Q67.9596 629.074 69.7652 625.532 Q71.5939 621.967 71.5939 614.861 Q71.5939 607.731 69.7652 604.19 Q67.9596 600.625 64.3254 600.625 M64.3254 596.921 Q70.1355 596.921 73.1911 601.528 Q76.2698 606.111 76.2698 614.861 Q76.2698 623.588 73.1911 628.194 Q70.1355 632.777 64.3254 632.777 Q58.5152 632.777 55.4365 628.194 Q52.381 623.588 52.381 614.861 Q52.381 606.111 55.4365 601.528 Q58.5152 596.921 64.3254 596.921 Z" fill="#000000" fill-rule="nonzero" fill-opacity="1" /><path clip-path="url(#clip850)" d="M84.4873 626.226 L89.3715 626.226 L89.3715 632.106 L84.4873 632.106 L84.4873 626.226 Z" fill="#000000" fill-rule="nonzero" fill-opacity="1" /><path clip-path="url(#clip850)" d="M109.557 600.625 Q105.946 600.625 104.117 604.19 Q102.311 607.731 102.311 614.861 Q102.311 621.967 104.117 625.532 Q105.946 629.074 109.557 629.074 Q113.191 629.074 114.996 625.532 Q116.825 621.967 116.825 614.861 Q116.825 607.731 114.996 604.19 Q113.191 600.625 109.557 600.625 M109.557 596.921 Q115.367 596.921 118.422 601.528 Q121.501 606.111 121.501 614.861 Q121.501 623.588 118.422 628.194 Q115.367 632.777 109.557 632.777 Q103.746 632.777 100.668 628.194 Q97.6122 623.588 97.6122 614.861 Q97.6122 606.111 100.668 601.528 Q103.746 596.921 109.557 596.921 Z" fill="#000000" fill-rule="nonzero" fill-opacity="1" /><path clip-path="url(#clip850)" d="M128.538 597.546 L150.76 597.546 L150.76 599.537 L138.214 632.106 L133.33 632.106 L145.135 601.481 L128.538 601.481 L128.538 597.546 Z" fill="#000000" fill-rule="nonzero" fill-opacity="1" /><path clip-path="url(#clip850)" d="M63.5152 398.767 Q59.9041 398.767 58.0754 402.332 Q56.2699 405.873 56.2699 413.003 Q56.2699 420.109 58.0754 423.674 Q59.9041 427.216 63.5152 427.216 Q67.1494 427.216 68.955 423.674 Q70.7837 420.109 70.7837 413.003 Q70.7837 405.873 68.955 402.332 Q67.1494 398.767 63.5152 398.767 M63.5152 395.063 Q69.3254 395.063 72.3809 399.67 Q75.4596 404.253 75.4596 413.003 Q75.4596 421.73 72.3809 426.336 Q69.3254 430.919 63.5152 430.919 Q57.7051 430.919 54.6264 426.336 Q51.5708 421.73 51.5708 413.003 Q51.5708 404.253 54.6264 399.67 Q57.7051 395.063 63.5152 395.063 Z" fill="#000000" fill-rule="nonzero" fill-opacity="1" /><path clip-path="url(#clip850)" d="M83.6771 424.369 L88.5614 424.369 L88.5614 430.248 L83.6771 430.248 L83.6771 424.369 Z" fill="#000000" fill-rule="nonzero" fill-opacity="1" /><path clip-path="url(#clip850)" d="M108.746 398.767 Q105.135 398.767 103.307 402.332 Q101.501 405.873 101.501 413.003 Q101.501 420.109 103.307 423.674 Q105.135 427.216 108.746 427.216 Q112.381 427.216 114.186 423.674 Q116.015 420.109 116.015 413.003 Q116.015 405.873 114.186 402.332 Q112.381 398.767 108.746 398.767 M108.746 395.063 Q114.557 395.063 117.612 399.67 Q120.691 404.253 120.691 413.003 Q120.691 421.73 117.612 426.336 Q114.557 430.919 108.746 430.919 Q102.936 430.919 99.8576 426.336 Q96.8021 421.73 96.8021 413.003 Q96.8021 404.253 99.8576 399.67 Q102.936 395.063 108.746 395.063 Z" fill="#000000" fill-rule="nonzero" fill-opacity="1" /><path clip-path="url(#clip850)" d="M138.908 413.836 Q135.575 413.836 133.654 415.619 Q131.756 417.401 131.756 420.526 Q131.756 423.651 133.654 425.433 Q135.575 427.216 138.908 427.216 Q142.242 427.216 144.163 425.433 Q146.084 423.628 146.084 420.526 Q146.084 417.401 144.163 415.619 Q142.265 413.836 138.908 413.836 M134.232 411.845 Q131.223 411.105 129.533 409.045 Q127.867 406.984 127.867 404.021 Q127.867 399.878 130.807 397.471 Q133.769 395.063 138.908 395.063 Q144.07 395.063 147.01 397.471 Q149.95 399.878 149.95 404.021 Q149.95 406.984 148.26 409.045 Q146.593 411.105 143.607 411.845 Q146.987 412.632 148.862 414.924 Q150.76 417.216 150.76 420.526 Q150.76 425.549 147.681 428.234 Q144.626 430.919 138.908 430.919 Q133.191 430.919 130.112 428.234 Q127.057 425.549 127.057 420.526 Q127.057 417.216 128.955 414.924 Q130.853 412.632 134.232 411.845 M132.519 404.461 Q132.519 407.146 134.186 408.651 Q135.876 410.156 138.908 410.156 Q141.918 410.156 143.607 408.651 Q145.32 407.146 145.32 404.461 Q145.32 401.776 143.607 400.271 Q141.918 398.767 138.908 398.767 Q135.876 398.767 134.186 400.271 Q132.519 401.776 132.519 404.461 Z" fill="#000000" fill-rule="nonzero" fill-opacity="1" /><path clip-path="url(#clip850)" d="M63.6078 196.909 Q59.9967 196.909 58.168 200.474 Q56.3625 204.015 56.3625 211.145 Q56.3625 218.251 58.168 221.816 Q59.9967 225.358 63.6078 225.358 Q67.242 225.358 69.0476 221.816 Q70.8763 218.251 70.8763 211.145 Q70.8763 204.015 69.0476 200.474 Q67.242 196.909 63.6078 196.909 M63.6078 193.205 Q69.418 193.205 72.4735 197.812 Q75.5522 202.395 75.5522 211.145 Q75.5522 219.872 72.4735 224.478 Q69.418 229.061 63.6078 229.061 Q57.7976 229.061 54.719 224.478 Q51.6634 219.872 51.6634 211.145 Q51.6634 202.395 54.719 197.812 Q57.7976 193.205 63.6078 193.205 Z" fill="#000000" fill-rule="nonzero" fill-opacity="1" /><path clip-path="url(#clip850)" d="M83.7697 222.511 L88.654 222.511 L88.654 228.39 L83.7697 228.39 L83.7697 222.511 Z" fill="#000000" fill-rule="nonzero" fill-opacity="1" /><path clip-path="url(#clip850)" d="M108.839 196.909 Q105.228 196.909 103.399 200.474 Q101.594 204.015 101.594 211.145 Q101.594 218.251 103.399 221.816 Q105.228 225.358 108.839 225.358 Q112.473 225.358 114.279 221.816 Q116.108 218.251 116.108 211.145 Q116.108 204.015 114.279 200.474 Q112.473 196.909 108.839 196.909 M108.839 193.205 Q114.649 193.205 117.705 197.812 Q120.783 202.395 120.783 211.145 Q120.783 219.872 117.705 224.478 Q114.649 229.061 108.839 229.061 Q103.029 229.061 99.9502 224.478 Q96.8947 219.872 96.8947 211.145 Q96.8947 202.395 99.9502 197.812 Q103.029 193.205 108.839 193.205 Z" fill="#000000" fill-rule="nonzero" fill-opacity="1" /><path clip-path="url(#clip850)" d="M129.14 227.673 L129.14 223.413 Q130.899 224.247 132.705 224.686 Q134.51 225.126 136.246 225.126 Q140.876 225.126 143.306 222.024 Q145.76 218.899 146.107 212.557 Q144.765 214.548 142.705 215.612 Q140.644 216.677 138.144 216.677 Q132.959 216.677 129.927 213.552 Q126.918 210.404 126.918 204.964 Q126.918 199.64 130.066 196.423 Q133.214 193.205 138.445 193.205 Q144.441 193.205 147.589 197.812 Q150.76 202.395 150.76 211.145 Q150.76 219.316 146.871 224.2 Q143.006 229.061 136.455 229.061 Q134.695 229.061 132.89 228.714 Q131.084 228.367 129.14 227.673 M138.445 213.02 Q141.593 213.02 143.422 210.867 Q145.274 208.714 145.274 204.964 Q145.274 201.238 143.422 199.085 Q141.593 196.909 138.445 196.909 Q135.297 196.909 133.445 199.085 Q131.617 201.238 131.617 204.964 Q131.617 208.714 133.445 210.867 Q135.297 213.02 138.445 213.02 Z" fill="#000000" fill-rule="nonzero" fill-opacity="1" /><polyline clip-path="url(#clip851)" style="stroke:#009af9; stroke-linecap:round; stroke-linejoin:round; stroke-width:4; stroke-opacity:1; fill:none" points="248.062,1341.89 758.91,1341.89 1269.76,1160.61 1780.61,829.983 2291.45,87.9763 "/>
<polyline clip-path="url(#clip851)" style="stroke:#e26f46; stroke-linecap:round; stroke-linejoin:round; stroke-width:4; stroke-opacity:1; fill:none" points="248.062,1321.77 758.91,1321.77 1269.76,1337.62 1780.61,1417.93 2291.45,1445.72 "/>
<path clip-path="url(#clip850)" d="M258.96 250.738 L686.878 250.738 L686.878 95.2176 L258.96 95.2176  Z" fill="#ffffff" fill-rule="evenodd" fill-opacity="1"/>
<polyline clip-path="url(#clip850)" style="stroke:#000000; stroke-linecap:round; stroke-linejoin:round; stroke-width:4; stroke-opacity:1; fill:none" points="258.96,250.738 686.878,250.738 686.878,95.2176 258.96,95.2176 258.96,250.738 "/>
<polyline clip-path="url(#clip850)" style="stroke:#009af9; stroke-linecap:round; stroke-linejoin:round; stroke-width:4; stroke-opacity:1; fill:none" points="283.027,147.058 427.426,147.058 "/>
<path clip-path="url(#clip850)" d="M451.493 129.778 L456.169 129.778 L456.169 143.944 L473.159 143.944 L473.159 129.778 L477.835 129.778 L477.835 164.338 L473.159 164.338 L473.159 147.879 L456.169 147.879 L456.169 164.338 L451.493 164.338 L451.493 129.778 Z" fill="#000000" fill-rule="nonzero" fill-opacity="1" /><path clip-path="url(#clip850)" d="M486.516 154.106 L486.516 138.412 L490.775 138.412 L490.775 153.944 Q490.775 157.625 492.21 159.476 Q493.645 161.305 496.516 161.305 Q499.965 161.305 501.956 159.106 Q503.97 156.907 503.97 153.111 L503.97 138.412 L508.229 138.412 L508.229 164.338 L503.97 164.338 L503.97 160.356 Q502.419 162.717 500.358 163.875 Q498.321 165.009 495.613 165.009 Q491.145 165.009 488.831 162.231 Q486.516 159.453 486.516 154.106 M497.233 137.787 L497.233 137.787 Z" fill="#000000" fill-rule="nonzero" fill-opacity="1" /><path clip-path="url(#clip850)" d="M535.613 151.398 Q535.613 146.699 533.668 144.037 Q531.747 141.352 528.368 141.352 Q524.988 141.352 523.043 144.037 Q521.122 146.699 521.122 151.398 Q521.122 156.097 523.043 158.782 Q524.988 161.444 528.368 161.444 Q531.747 161.444 533.668 158.782 Q535.613 156.097 535.613 151.398 M521.122 142.347 Q522.465 140.032 524.502 138.921 Q526.562 137.787 529.409 137.787 Q534.131 137.787 537.071 141.537 Q540.034 145.287 540.034 151.398 Q540.034 157.509 537.071 161.259 Q534.131 165.009 529.409 165.009 Q526.562 165.009 524.502 163.898 Q522.465 162.763 521.122 160.449 L521.122 164.338 L516.84 164.338 L516.84 128.319 L521.122 128.319 L521.122 142.347 Z" fill="#000000" fill-rule="nonzero" fill-opacity="1" /><path clip-path="url(#clip850)" d="M569.27 150.31 L569.27 152.393 L549.687 152.393 Q549.965 156.791 552.326 159.106 Q554.71 161.398 558.946 161.398 Q561.4 161.398 563.691 160.796 Q566.006 160.194 568.275 158.99 L568.275 163.018 Q565.983 163.99 563.576 164.5 Q561.168 165.009 558.691 165.009 Q552.488 165.009 548.854 161.398 Q545.242 157.787 545.242 151.629 Q545.242 145.264 548.668 141.537 Q552.117 137.787 557.951 137.787 Q563.182 137.787 566.215 141.166 Q569.27 144.523 569.27 150.31 M565.011 149.06 Q564.965 145.565 563.043 143.481 Q561.145 141.398 557.997 141.398 Q554.432 141.398 552.279 143.412 Q550.15 145.426 549.826 149.083 L565.011 149.06 Z" fill="#000000" fill-rule="nonzero" fill-opacity="1" /><path clip-path="url(#clip850)" d="M591.284 142.393 Q590.566 141.977 589.71 141.791 Q588.876 141.583 587.858 141.583 Q584.247 141.583 582.302 143.944 Q580.381 146.282 580.381 150.68 L580.381 164.338 L576.099 164.338 L576.099 138.412 L580.381 138.412 L580.381 142.44 Q581.724 140.078 583.876 138.944 Q586.029 137.787 589.108 137.787 Q589.548 137.787 590.08 137.856 Q590.613 137.903 591.261 138.018 L591.284 142.393 Z" fill="#000000" fill-rule="nonzero" fill-opacity="1" /><polyline clip-path="url(#clip850)" style="stroke:#e26f46; stroke-linecap:round; stroke-linejoin:round; stroke-width:4; stroke-opacity:1; fill:none" points="283.027,198.898 427.426,198.898 "/>
<path clip-path="url(#clip850)" d="M456.169 185.46 L456.169 198.446 L462.048 198.446 Q465.312 198.446 467.095 196.756 Q468.877 195.067 468.877 191.942 Q468.877 188.84 467.095 187.15 Q465.312 185.46 462.048 185.46 L456.169 185.46 M451.493 181.618 L462.048 181.618 Q467.859 181.618 470.822 184.256 Q473.808 186.872 473.808 191.942 Q473.808 197.057 470.822 199.673 Q467.859 202.289 462.048 202.289 L456.169 202.289 L456.169 216.178 L451.493 216.178 L451.493 181.618 Z" fill="#000000" fill-rule="nonzero" fill-opacity="1" /><path clip-path="url(#clip850)" d="M494.085 194.233 Q493.368 193.817 492.511 193.631 Q491.678 193.423 490.659 193.423 Q487.048 193.423 485.104 195.784 Q483.183 198.122 483.183 202.52 L483.183 216.178 L478.9 216.178 L478.9 190.252 L483.183 190.252 L483.183 194.28 Q484.525 191.918 486.678 190.784 Q488.831 189.627 491.909 189.627 Q492.349 189.627 492.882 189.696 Q493.414 189.743 494.062 189.858 L494.085 194.233 Z" fill="#000000" fill-rule="nonzero" fill-opacity="1" /><path clip-path="url(#clip850)" d="M519.687 202.15 L519.687 204.233 L500.104 204.233 Q500.382 208.631 502.743 210.946 Q505.127 213.238 509.363 213.238 Q511.817 213.238 514.108 212.636 Q516.423 212.034 518.692 210.83 L518.692 214.858 Q516.4 215.83 513.993 216.34 Q511.585 216.849 509.108 216.849 Q502.905 216.849 499.27 213.238 Q495.659 209.627 495.659 203.469 Q495.659 197.104 499.085 193.377 Q502.534 189.627 508.368 189.627 Q513.599 189.627 516.631 193.006 Q519.687 196.363 519.687 202.15 M515.428 200.9 Q515.381 197.405 513.46 195.321 Q511.562 193.238 508.414 193.238 Q504.849 193.238 502.696 195.252 Q500.567 197.266 500.243 200.923 L515.428 200.9 Z" fill="#000000" fill-rule="nonzero" fill-opacity="1" /><path clip-path="url(#clip850)" d="M543.205 191.016 L543.205 195.043 Q541.4 194.117 539.455 193.655 Q537.511 193.192 535.428 193.192 Q532.256 193.192 530.659 194.164 Q529.085 195.136 529.085 197.08 Q529.085 198.562 530.219 199.418 Q531.354 200.252 534.78 201.016 L536.238 201.34 Q540.775 202.312 542.673 204.094 Q544.594 205.854 544.594 209.025 Q544.594 212.636 541.724 214.742 Q538.877 216.849 533.877 216.849 Q531.793 216.849 529.525 216.432 Q527.28 216.039 524.78 215.228 L524.78 210.83 Q527.141 212.057 529.432 212.682 Q531.724 213.284 533.969 213.284 Q536.979 213.284 538.599 212.266 Q540.219 211.224 540.219 209.349 Q540.219 207.613 539.039 206.687 Q537.881 205.761 533.923 204.904 L532.442 204.557 Q528.483 203.724 526.724 202.011 Q524.965 200.275 524.965 197.266 Q524.965 193.608 527.557 191.618 Q530.15 189.627 534.918 189.627 Q537.28 189.627 539.363 189.974 Q541.446 190.321 543.205 191.016 Z" fill="#000000" fill-rule="nonzero" fill-opacity="1" /><path clip-path="url(#clip850)" d="M570.034 191.247 L570.034 195.229 Q568.228 194.233 566.4 193.747 Q564.594 193.238 562.742 193.238 Q558.599 193.238 556.307 195.877 Q554.016 198.492 554.016 203.238 Q554.016 207.983 556.307 210.622 Q558.599 213.238 562.742 213.238 Q564.594 213.238 566.4 212.752 Q568.228 212.242 570.034 211.247 L570.034 215.182 Q568.252 216.016 566.33 216.432 Q564.432 216.849 562.279 216.849 Q556.423 216.849 552.974 213.168 Q549.525 209.488 549.525 203.238 Q549.525 196.895 552.997 193.261 Q556.492 189.627 562.557 189.627 Q564.525 189.627 566.4 190.043 Q568.275 190.437 570.034 191.247 Z" fill="#000000" fill-rule="nonzero" fill-opacity="1" /><path clip-path="url(#clip850)" d="M577.441 190.252 L581.701 190.252 L581.701 216.178 L577.441 216.178 L577.441 190.252 M577.441 180.159 L581.701 180.159 L581.701 185.553 L577.441 185.553 L577.441 180.159 Z" fill="#000000" fill-rule="nonzero" fill-opacity="1" /><path clip-path="url(#clip850)" d="M612.788 202.15 L612.788 204.233 L593.205 204.233 Q593.483 208.631 595.844 210.946 Q598.228 213.238 602.464 213.238 Q604.918 213.238 607.21 212.636 Q609.524 212.034 611.793 210.83 L611.793 214.858 Q609.501 215.83 607.094 216.34 Q604.687 216.849 602.21 216.849 Q596.006 216.849 592.372 213.238 Q588.761 209.627 588.761 203.469 Q588.761 197.104 592.187 193.377 Q595.636 189.627 601.469 189.627 Q606.7 189.627 609.733 193.006 Q612.788 196.363 612.788 202.15 M608.529 200.9 Q608.483 197.405 606.562 195.321 Q604.663 193.238 601.515 193.238 Q597.95 193.238 595.798 195.252 Q593.668 197.266 593.344 200.923 L608.529 200.9 Z" fill="#000000" fill-rule="nonzero" fill-opacity="1" /><path clip-path="url(#clip850)" d="M641.33 200.529 L641.33 216.178 L637.071 216.178 L637.071 200.668 Q637.071 196.988 635.635 195.159 Q634.2 193.33 631.33 193.33 Q627.881 193.33 625.89 195.53 Q623.899 197.729 623.899 201.525 L623.899 216.178 L619.617 216.178 L619.617 190.252 L623.899 190.252 L623.899 194.28 Q625.427 191.942 627.487 190.784 Q629.571 189.627 632.279 189.627 Q636.747 189.627 639.038 192.405 Q641.33 195.159 641.33 200.529 Z" fill="#000000" fill-rule="nonzero" fill-opacity="1" /><path clip-path="url(#clip850)" d="M654.038 182.891 L654.038 190.252 L662.811 190.252 L662.811 193.562 L654.038 193.562 L654.038 207.636 Q654.038 210.807 654.895 211.71 Q655.774 212.613 658.436 212.613 L662.811 212.613 L662.811 216.178 L658.436 216.178 Q653.506 216.178 651.631 214.349 Q649.756 212.497 649.756 207.636 L649.756 193.562 L646.631 193.562 L646.631 190.252 L649.756 190.252 L649.756 182.891 L654.038 182.891 Z" fill="#000000" fill-rule="nonzero" fill-opacity="1" /></svg>
