<?xml version="1.0" encoding="utf-8"?>
<svg xmlns="http://www.w3.org/2000/svg" xmlns:xlink="http://www.w3.org/1999/xlink" width="600" height="400" viewBox="0 0 2400 1600">
<defs>
  <clipPath id="clip760">
    <rect x="0" y="0" width="2400" height="1600"/>
  </clipPath>
</defs>
<path clip-path="url(#clip760)" d="M0 1600 L2400 1600 L2400 0 L0 0  Z" fill="#ffffff" fill-rule="evenodd" fill-opacity="1"/>
<defs>
  <clipPath id="clip761">
    <rect x="480" y="0" width="1681" height="1600"/>
  </clipPath>
</defs>
<path clip-path="url(#clip760)" d="M178.867 1486.45 L2352.76 1486.45 L2352.76 47.2441 L178.867 47.2441  Z" fill="#ffffff" fill-rule="evenodd" fill-opacity="1"/>
<defs>
  <clipPath id="clip762">
    <rect x="178" y="47" width="2175" height="1440"/>
  </clipPath>
</defs>
<polyline clip-path="url(#clip762)" style="stroke:#000000; stroke-linecap:round; stroke-linejoin:round; stroke-width:2; stroke-opacity:0.1; fill:none" points="261.957,1486.45 261.957,47.2441 "/>
<polyline clip-path="url(#clip762)" style="stroke:#000000; stroke-linecap:round; stroke-linejoin:round; stroke-width:2; stroke-opacity:0.1; fill:none" points="586.222,1486.45 586.222,47.2441 "/>
<polyline clip-path="url(#clip762)" style="stroke:#000000; stroke-linecap:round; stroke-linejoin:round; stroke-width:2; stroke-opacity:0.1; fill:none" points="910.487,1486.45 910.487,47.2441 "/>
<polyline clip-path="url(#clip762)" style="stroke:#000000; stroke-linecap:round; stroke-linejoin:round; stroke-width:2; stroke-opacity:0.1; fill:none" points="1234.75,1486.45 1234.75,47.2441 "/>
<polyline clip-path="url(#clip762)" style="stroke:#000000; stroke-linecap:round; stroke-linejoin:round; stroke-width:2; stroke-opacity:0.1; fill:none" points="1559.02,1486.45 1559.02,47.2441 "/>
<polyline clip-path="url(#clip762)" style="stroke:#000000; stroke-linecap:round; stroke-linejoin:round; stroke-width:2; stroke-opacity:0.1; fill:none" points="1883.28,1486.45 1883.28,47.2441 "/>
<polyline clip-path="url(#clip762)" style="stroke:#000000; stroke-linecap:round; stroke-linejoin:round; stroke-width:2; stroke-opacity:0.1; fill:none" points="2207.55,1486.45 2207.55,47.2441 "/>
<polyline clip-path="url(#clip760)" style="stroke:#000000; stroke-linecap:round; stroke-linejoin:round; stroke-width:4; stroke-opacity:1; fill:none" points="178.867,1486.45 2352.76,1486.45 "/>
<polyline clip-path="url(#clip760)" style="stroke:#000000; stroke-linecap:round; stroke-linejoin:round; stroke-width:4; stroke-opacity:1; fill:none" points="261.957,1486.45 261.957,1467.55 "/>
<polyline clip-path="url(#clip760)" style="stroke:#000000; stroke-linecap:round; stroke-linejoin:round; stroke-width:4; stroke-opacity:1; fill:none" points="586.222,1486.45 586.222,1467.55 "/>
<polyline clip-path="url(#clip760)" style="stroke:#000000; stroke-linecap:round; stroke-linejoin:round; stroke-width:4; stroke-opacity:1; fill:none" points="910.487,1486.45 910.487,1467.55 "/>
<polyline clip-path="url(#clip760)" style="stroke:#000000; stroke-linecap:round; stroke-linejoin:round; stroke-width:4; stroke-opacity:1; fill:none" points="1234.75,1486.45 1234.75,1467.55 "/>
<polyline clip-path="url(#clip760)" style="stroke:#000000; stroke-linecap:round; stroke-linejoin:round; stroke-width:4; stroke-opacity:1; fill:none" points="1559.02,1486.45 1559.02,1467.55 "/>
<polyline clip-path="url(#clip760)" style="stroke:#000000; stroke-linecap:round; stroke-linejoin:round; stroke-width:4; stroke-opacity:1; fill:none" points="1883.28,1486.45 1883.28,1467.55 "/>
<polyline clip-path="url(#clip760)" style="stroke:#000000; stroke-linecap:round; stroke-linejoin:round; stroke-width:4; stroke-opacity:1; fill:none" points="2207.55,1486.45 2207.55,1467.55 "/>
<path clip-path="url(#clip760)" d="M231.424 1532.02 L261.1 1532.02 L261.1 1535.95 L231.424 1535.95 L231.424 1532.02 Z" fill="#000000" fill-rule="nonzero" fill-opacity="1" /><path clip-path="url(#clip760)" d="M285.359 1530.21 Q288.716 1530.93 290.591 1533.2 Q292.489 1535.47 292.489 1538.8 Q292.489 1543.92 288.97 1546.72 Q285.452 1549.52 278.971 1549.52 Q276.795 1549.52 274.48 1549.08 Q272.188 1548.66 269.734 1547.81 L269.734 1543.29 Q271.679 1544.43 273.994 1545.01 Q276.309 1545.58 278.832 1545.58 Q283.23 1545.58 285.521 1543.85 Q287.836 1542.11 287.836 1538.8 Q287.836 1535.75 285.683 1534.03 Q283.554 1532.3 279.734 1532.3 L275.707 1532.3 L275.707 1528.45 L279.92 1528.45 Q283.369 1528.45 285.197 1527.09 Q287.026 1525.7 287.026 1523.11 Q287.026 1520.45 285.128 1519.03 Q283.253 1517.6 279.734 1517.6 Q277.813 1517.6 275.614 1518.01 Q273.415 1518.43 270.776 1519.31 L270.776 1515.14 Q273.438 1514.4 275.753 1514.03 Q278.091 1513.66 280.151 1513.66 Q285.475 1513.66 288.577 1516.09 Q291.679 1518.5 291.679 1522.62 Q291.679 1525.49 290.035 1527.48 Q288.392 1529.45 285.359 1530.21 Z" fill="#000000" fill-rule="nonzero" fill-opacity="1" /><path clip-path="url(#clip760)" d="M556.164 1532.02 L585.84 1532.02 L585.84 1535.95 L556.164 1535.95 L556.164 1532.02 Z" fill="#000000" fill-rule="nonzero" fill-opacity="1" /><path clip-path="url(#clip760)" d="M599.96 1544.91 L616.28 1544.91 L616.28 1548.85 L594.335 1548.85 L594.335 1544.91 Q596.997 1542.16 601.581 1537.53 Q606.187 1532.88 607.368 1531.53 Q609.613 1529.01 610.493 1527.27 Q611.396 1525.51 611.396 1523.82 Q611.396 1521.07 609.451 1519.33 Q607.53 1517.6 604.428 1517.6 Q602.229 1517.6 599.775 1518.36 Q597.345 1519.13 594.567 1520.68 L594.567 1515.95 Q597.391 1514.82 599.845 1514.24 Q602.298 1513.66 604.335 1513.66 Q609.706 1513.66 612.9 1516.35 Q616.095 1519.03 616.095 1523.52 Q616.095 1525.65 615.284 1527.57 Q614.497 1529.47 612.391 1532.07 Q611.812 1532.74 608.71 1535.95 Q605.609 1539.15 599.96 1544.91 Z" fill="#000000" fill-rule="nonzero" fill-opacity="1" /><path clip-path="url(#clip760)" d="M880.245 1532.02 L909.92 1532.02 L909.92 1535.95 L880.245 1535.95 L880.245 1532.02 Z" fill="#000000" fill-rule="nonzero" fill-opacity="1" /><path clip-path="url(#clip760)" d="M920.823 1544.91 L928.462 1544.91 L928.462 1518.55 L920.152 1520.21 L920.152 1515.95 L928.416 1514.29 L933.091 1514.29 L933.091 1544.91 L940.73 1544.91 L940.73 1548.85 L920.823 1548.85 L920.823 1544.91 Z" fill="#000000" fill-rule="nonzero" fill-opacity="1" /><path clip-path="url(#clip760)" d="M1234.75 1517.37 Q1231.14 1517.37 1229.31 1520.93 Q1227.51 1524.47 1227.51 1531.6 Q1227.51 1538.71 1229.31 1542.27 Q1231.14 1545.82 1234.75 1545.82 Q1238.39 1545.82 1240.19 1542.27 Q1242.02 1538.71 1242.02 1531.6 Q1242.02 1524.47 1240.19 1520.93 Q1238.39 1517.37 1234.75 1517.37 M1234.75 1513.66 Q1240.56 1513.66 1243.62 1518.27 Q1246.7 1522.85 1246.7 1531.6 Q1246.7 1540.33 1243.62 1544.94 Q1240.56 1549.52 1234.75 1549.52 Q1228.94 1549.52 1225.86 1544.94 Q1222.81 1540.33 1222.81 1531.6 Q1222.81 1522.85 1225.86 1518.27 Q1228.94 1513.66 1234.75 1513.66 Z" fill="#000000" fill-rule="nonzero" fill-opacity="1" /><path clip-path="url(#clip760)" d="M1549.4 1544.91 L1557.04 1544.91 L1557.04 1518.55 L1548.73 1520.21 L1548.73 1515.95 L1556.99 1514.29 L1561.67 1514.29 L1561.67 1544.91 L1569.31 1544.91 L1569.31 1548.85 L1549.4 1548.85 L1549.4 1544.91 Z" fill="#000000" fill-rule="nonzero" fill-opacity="1" /><path clip-path="url(#clip760)" d="M1877.94 1544.91 L1894.26 1544.91 L1894.26 1548.85 L1872.31 1548.85 L1872.31 1544.91 Q1874.97 1542.16 1879.56 1537.53 Q1884.16 1532.88 1885.34 1531.53 Q1887.59 1529.01 1888.47 1527.27 Q1889.37 1525.51 1889.37 1523.82 Q1889.37 1521.07 1887.43 1519.33 Q1885.51 1517.6 1882.4 1517.6 Q1880.2 1517.6 1877.75 1518.36 Q1875.32 1519.13 1872.54 1520.68 L1872.54 1515.95 Q1875.37 1514.82 1877.82 1514.24 Q1880.27 1513.66 1882.31 1513.66 Q1887.68 1513.66 1890.88 1516.35 Q1894.07 1519.03 1894.07 1523.52 Q1894.07 1525.65 1893.26 1527.57 Q1892.47 1529.47 1890.37 1532.07 Q1889.79 1532.74 1886.69 1535.95 Q1883.58 1539.15 1877.94 1544.91 Z" fill="#000000" fill-rule="nonzero" fill-opacity="1" /><path clip-path="url(#clip760)" d="M2211.8 1530.21 Q2215.15 1530.93 2217.03 1533.2 Q2218.93 1535.47 2218.93 1538.8 Q2218.93 1543.92 2215.41 1546.72 Q2211.89 1549.52 2205.41 1549.52 Q2203.23 1549.52 2200.92 1549.08 Q2198.63 1548.66 2196.17 1547.81 L2196.17 1543.29 Q2198.12 1544.43 2200.43 1545.01 Q2202.75 1545.58 2205.27 1545.58 Q2209.67 1545.58 2211.96 1543.85 Q2214.27 1542.11 2214.27 1538.8 Q2214.27 1535.75 2212.12 1534.03 Q2209.99 1532.3 2206.17 1532.3 L2202.14 1532.3 L2202.14 1528.45 L2206.36 1528.45 Q2209.81 1528.45 2211.63 1527.09 Q2213.46 1525.7 2213.46 1523.11 Q2213.46 1520.45 2211.56 1519.03 Q2209.69 1517.6 2206.17 1517.6 Q2204.25 1517.6 2202.05 1518.01 Q2199.85 1518.43 2197.21 1519.31 L2197.21 1515.14 Q2199.88 1514.4 2202.19 1514.03 Q2204.53 1513.66 2206.59 1513.66 Q2211.91 1513.66 2215.01 1516.09 Q2218.12 1518.5 2218.12 1522.62 Q2218.12 1525.49 2216.47 1527.48 Q2214.83 1529.45 2211.8 1530.21 Z" fill="#000000" fill-rule="nonzero" fill-opacity="1" /><polyline clip-path="url(#clip762)" style="stroke:#000000; stroke-linecap:round; stroke-linejoin:round; stroke-width:2; stroke-opacity:0.1; fill:none" points="178.867,1370.36 2352.76,1370.36 "/>
<polyline clip-path="url(#clip762)" style="stroke:#000000; stroke-linecap:round; stroke-linejoin:round; stroke-width:2; stroke-opacity:0.1; fill:none" points="178.867,1017.42 2352.76,1017.42 "/>
<polyline clip-path="url(#clip762)" style="stroke:#000000; stroke-linecap:round; stroke-linejoin:round; stroke-width:2; stroke-opacity:0.1; fill:none" points="178.867,664.483 2352.76,664.483 "/>
<polyline clip-path="url(#clip762)" style="stroke:#000000; stroke-linecap:round; stroke-linejoin:round; stroke-width:2; stroke-opacity:0.1; fill:none" points="178.867,311.545 2352.76,311.545 "/>
<polyline clip-path="url(#clip760)" style="stroke:#000000; stroke-linecap:round; stroke-linejoin:round; stroke-width:4; stroke-opacity:1; fill:none" points="178.867,1486.45 178.867,47.2441 "/>
<polyline clip-path="url(#clip760)" style="stroke:#000000; stroke-linecap:round; stroke-linejoin:round; stroke-width:4; stroke-opacity:1; fill:none" points="178.867,1370.36 197.764,1370.36 "/>
<polyline clip-path="url(#clip760)" style="stroke:#000000; stroke-linecap:round; stroke-linejoin:round; stroke-width:4; stroke-opacity:1; fill:none" points="178.867,1017.42 197.764,1017.42 "/>
<polyline clip-path="url(#clip760)" style="stroke:#000000; stroke-linecap:round; stroke-linejoin:round; stroke-width:4; stroke-opacity:1; fill:none" points="178.867,664.483 197.764,664.483 "/>
<polyline clip-path="url(#clip760)" style="stroke:#000000; stroke-linecap:round; stroke-linejoin:round; stroke-width:4; stroke-opacity:1; fill:none" points="178.867,311.545 197.764,311.545 "/>
<path clip-path="url(#clip760)" d="M50.9921 1370.81 L80.6679 1370.81 L80.6679 1374.74 L50.9921 1374.74 L50.9921 1370.81 Z" fill="#000000" fill-rule="nonzero" fill-opacity="1" /><path clip-path="url(#clip760)" d="M103.608 1357.15 L91.8021 1375.6 L103.608 1375.6 L103.608 1357.15 M102.381 1353.08 L108.26 1353.08 L108.26 1375.6 L113.191 1375.6 L113.191 1379.49 L108.26 1379.49 L108.26 1387.64 L103.608 1387.64 L103.608 1379.49 L88.0058 1379.49 L88.0058 1374.98 L102.381 1353.08 Z" fill="#000000" fill-rule="nonzero" fill-opacity="1" /><path clip-path="url(#clip760)" d="M130.922 1356.16 Q127.311 1356.16 125.482 1359.72 Q123.677 1363.26 123.677 1370.39 Q123.677 1377.5 125.482 1381.06 Q127.311 1384.61 130.922 1384.61 Q134.556 1384.61 136.362 1381.06 Q138.191 1377.5 138.191 1370.39 Q138.191 1363.26 136.362 1359.72 Q134.556 1356.16 130.922 1356.16 M130.922 1352.45 Q136.732 1352.45 139.788 1357.06 Q142.867 1361.64 142.867 1370.39 Q142.867 1379.12 139.788 1383.73 Q136.732 1388.31 130.922 1388.31 Q125.112 1388.31 122.033 1383.73 Q118.978 1379.12 118.978 1370.39 Q118.978 1361.64 122.033 1357.06 Q125.112 1352.45 130.922 1352.45 Z" fill="#000000" fill-rule="nonzero" fill-opacity="1" /><path clip-path="url(#clip760)" d="M50.9921 1017.87 L80.6679 1017.87 L80.6679 1021.81 L50.9921 1021.81 L50.9921 1017.87 Z" fill="#000000" fill-rule="nonzero" fill-opacity="1" /><path clip-path="url(#clip760)" d="M94.7882 1030.77 L111.108 1030.77 L111.108 1034.7 L89.1632 1034.7 L89.1632 1030.77 Q91.8252 1028.01 96.4085 1023.38 Q101.015 1018.73 102.196 1017.39 Q104.441 1014.86 105.321 1013.13 Q106.223 1011.37 106.223 1009.68 Q106.223 1006.92 104.279 1005.19 Q102.358 1003.45 99.2558 1003.45 Q97.0567 1003.45 94.603 1004.21 Q92.1725 1004.98 89.3947 1006.53 L89.3947 1001.81 Q92.2188 1000.67 94.6724 1000.09 Q97.1261 999.515 99.1632 999.515 Q104.534 999.515 107.728 1002.2 Q110.922 1004.89 110.922 1009.38 Q110.922 1011.51 110.112 1013.43 Q109.325 1015.33 107.219 1017.92 Q106.64 1018.59 103.538 1021.81 Q100.436 1025 94.7882 1030.77 Z" fill="#000000" fill-rule="nonzero" fill-opacity="1" /><path clip-path="url(#clip760)" d="M130.922 1003.22 Q127.311 1003.22 125.482 1006.78 Q123.677 1010.33 123.677 1017.46 Q123.677 1024.56 125.482 1028.13 Q127.311 1031.67 130.922 1031.67 Q134.556 1031.67 136.362 1028.13 Q138.191 1024.56 138.191 1017.46 Q138.191 1010.33 136.362 1006.78 Q134.556 1003.22 130.922 1003.22 M130.922 999.515 Q136.732 999.515 139.788 1004.12 Q142.867 1008.71 142.867 1017.46 Q142.867 1026.18 139.788 1030.79 Q136.732 1035.37 130.922 1035.37 Q125.112 1035.37 122.033 1030.79 Q118.978 1026.18 118.978 1017.46 Q118.978 1008.71 122.033 1004.12 Q125.112 999.515 130.922 999.515 Z" fill="#000000" fill-rule="nonzero" fill-opacity="1" /><path clip-path="url(#clip760)" d="M130.922 650.282 Q127.311 650.282 125.482 653.846 Q123.677 657.388 123.677 664.518 Q123.677 671.624 125.482 675.189 Q127.311 678.73 130.922 678.73 Q134.556 678.73 136.362 675.189 Q138.191 671.624 138.191 664.518 Q138.191 657.388 136.362 653.846 Q134.556 650.282 130.922 650.282 M130.922 646.578 Q136.732 646.578 139.788 651.184 Q142.867 655.768 142.867 664.518 Q142.867 673.244 139.788 677.851 Q136.732 682.434 130.922 682.434 Q125.112 682.434 122.033 677.851 Q118.978 673.244 118.978 664.518 Q118.978 655.768 122.033 651.184 Q125.112 646.578 130.922 646.578 Z" fill="#000000" fill-rule="nonzero" fill-opacity="1" /><path clip-path="url(#clip760)" d="M94.7882 324.89 L111.108 324.89 L111.108 328.825 L89.1632 328.825 L89.1632 324.89 Q91.8252 322.136 96.4085 317.506 Q101.015 312.853 102.196 311.511 Q104.441 308.987 105.321 307.251 Q106.223 305.492 106.223 303.802 Q106.223 301.048 104.279 299.312 Q102.358 297.575 99.2558 297.575 Q97.0567 297.575 94.603 298.339 Q92.1725 299.103 89.3947 300.654 L89.3947 295.932 Q92.2188 294.798 94.6724 294.219 Q97.1261 293.64 99.1632 293.64 Q104.534 293.64 107.728 296.325 Q110.922 299.011 110.922 303.501 Q110.922 305.631 110.112 307.552 Q109.325 309.45 107.219 312.043 Q106.64 312.714 103.538 315.932 Q100.436 319.126 94.7882 324.89 Z" fill="#000000" fill-rule="nonzero" fill-opacity="1" /><path clip-path="url(#clip760)" d="M130.922 297.344 Q127.311 297.344 125.482 300.909 Q123.677 304.45 123.677 311.58 Q123.677 318.686 125.482 322.251 Q127.311 325.793 130.922 325.793 Q134.556 325.793 136.362 322.251 Q138.191 318.686 138.191 311.58 Q138.191 304.45 136.362 300.909 Q134.556 297.344 130.922 297.344 M130.922 293.64 Q136.732 293.64 139.788 298.247 Q142.867 302.83 142.867 311.58 Q142.867 320.307 139.788 324.913 Q136.732 329.497 130.922 329.497 Q125.112 329.497 122.033 324.913 Q118.978 320.307 118.978 311.58 Q118.978 302.83 122.033 298.247 Q125.112 293.64 130.922 293.64 Z" fill="#000000" fill-rule="nonzero" fill-opacity="1" /><circle clip-path="url(#clip762)" cx="1797.42" cy="618.283" r="14.4" fill="#009af9" fill-rule="evenodd" fill-opacity="1" stroke="#000000" stroke-opacity="1" stroke-width="3.2"/>
<circle clip-path="url(#clip762)" cx="1641.49" cy="607.938" r="14.4" fill="#009af9" fill-rule="evenodd" fill-opacity="1" stroke="#000000" stroke-opacity="1" stroke-width="3.2"/>
<circle clip-path="url(#clip762)" cx="1871.71" cy="624.511" r="14.4" fill="#009af9" fill-rule="evenodd" fill-opacity="1" stroke="#000000" stroke-opacity="1" stroke-width="3.2"/>
<circle clip-path="url(#clip762)" cx="1247.95" cy="612.884" r="14.4" fill="#009af9" fill-rule="evenodd" fill-opacity="1" stroke="#000000" stroke-opacity="1" stroke-width="3.2"/>
<circle clip-path="url(#clip762)" cx="1704.27" cy="598.836" r="14.4" fill="#009af9" fill-rule="evenodd" fill-opacity="1" stroke="#000000" stroke-opacity="1" stroke-width="3.2"/>
<circle clip-path="url(#clip762)" cx="1489.2" cy="612.759" r="14.4" fill="#009af9" fill-rule="evenodd" fill-opacity="1" stroke="#000000" stroke-opacity="1" stroke-width="3.2"/>
<circle clip-path="url(#clip762)" cx="1292.51" cy="623.559" r="14.4" fill="#009af9" fill-rule="evenodd" fill-opacity="1" stroke="#000000" stroke-opacity="1" stroke-width="3.2"/>
<circle clip-path="url(#clip762)" cx="1868.83" cy="659.99" r="14.4" fill="#009af9" fill-rule="evenodd" fill-opacity="1" stroke="#000000" stroke-opacity="1" stroke-width="3.2"/>
<circle clip-path="url(#clip762)" cx="1575.92" cy="610.261" r="14.4" fill="#009af9" fill-rule="evenodd" fill-opacity="1" stroke="#000000" stroke-opacity="1" stroke-width="3.2"/>
<circle clip-path="url(#clip762)" cx="2291.23" cy="664.534" r="14.4" fill="#009af9" fill-rule="evenodd" fill-opacity="1" stroke="#000000" stroke-opacity="1" stroke-width="3.2"/>
<circle clip-path="url(#clip762)" cx="724.986" cy="633.512" r="14.4" fill="#e26f46" fill-rule="evenodd" fill-opacity="1" stroke="#000000" stroke-opacity="1" stroke-width="3.2"/>
<circle clip-path="url(#clip762)" cx="1458.64" cy="625.005" r="14.4" fill="#e26f46" fill-rule="evenodd" fill-opacity="1" stroke="#000000" stroke-opacity="1" stroke-width="3.2"/>
<circle clip-path="url(#clip762)" cx="1125.25" cy="614.569" r="14.4" fill="#e26f46" fill-rule="evenodd" fill-opacity="1" stroke="#000000" stroke-opacity="1" stroke-width="3.2"/>
<circle clip-path="url(#clip762)" cx="1492.07" cy="581.266" r="14.4" fill="#e26f46" fill-rule="evenodd" fill-opacity="1" stroke="#000000" stroke-opacity="1" stroke-width="3.2"/>
<circle clip-path="url(#clip762)" cx="1091.31" cy="650.088" r="14.4" fill="#e26f46" fill-rule="evenodd" fill-opacity="1" stroke="#000000" stroke-opacity="1" stroke-width="3.2"/>
<circle clip-path="url(#clip762)" cx="240.392" cy="623.679" r="14.4" fill="#e26f46" fill-rule="evenodd" fill-opacity="1" stroke="#000000" stroke-opacity="1" stroke-width="3.2"/>
<circle clip-path="url(#clip762)" cx="1645.49" cy="616.837" r="14.4" fill="#e26f46" fill-rule="evenodd" fill-opacity="1" stroke="#000000" stroke-opacity="1" stroke-width="3.2"/>
<circle clip-path="url(#clip762)" cx="1061.51" cy="630.001" r="14.4" fill="#e26f46" fill-rule="evenodd" fill-opacity="1" stroke="#000000" stroke-opacity="1" stroke-width="3.2"/>
<circle clip-path="url(#clip762)" cx="435.235" cy="625.037" r="14.4" fill="#e26f46" fill-rule="evenodd" fill-opacity="1" stroke="#000000" stroke-opacity="1" stroke-width="3.2"/>
<circle clip-path="url(#clip762)" cx="861.124" cy="648.803" r="14.4" fill="#e26f46" fill-rule="evenodd" fill-opacity="1" stroke="#000000" stroke-opacity="1" stroke-width="3.2"/>
<polyline clip-path="url(#clip762)" style="stroke:#3da44d; stroke-linecap:round; stroke-linejoin:round; stroke-width:4; stroke-opacity:1; fill:none" points="586.222,1445.72 618.649,1411.77 651.075,1377.83 683.502,1343.89 715.928,1309.94 748.355,1276 780.781,1242.05 813.208,1208.11 845.634,1174.17 878.061,1140.22 910.487,1106.28 942.914,1072.34 975.34,1038.39 1007.77,1004.45 1040.19,970.507 1072.62,936.563 1105.05,902.62 1137.47,868.676 1169.9,834.733 1202.33,800.789 1234.75,766.846 1267.18,732.902 1299.61,698.959 1332.03,665.016 1364.46,631.072 1396.89,597.129 1429.31,563.185 1461.74,529.242 1494.16,495.298 1526.59,461.355 1559.02,427.411 1591.44,393.468 1623.87,359.524 1656.3,325.581 1688.72,291.637 1721.15,257.694 1753.58,223.75 1786,189.807 1818.43,155.863 1850.86,121.92 1883.28,87.9763 "/>
<path clip-path="url(#clip760)" d="M251.33 302.578 L1005.36 302.578 L1005.36 95.2176 L251.33 95.2176  Z" fill="#ffffff" fill-rule="evenodd" fill-opacity="1"/>
<polyline clip-path="url(#clip760)" style="stroke:#000000; stroke-linecap:round; stroke-linejoin:round; stroke-width:4; stroke-opacity:1; fill:none" points="251.33,302.578 1005.36,302.578 1005.36,95.2176 251.33,95.2176 251.33,302.578 "/>
<circle clip-path="url(#clip760)" cx="347.947" cy="147.058" r="20.48" fill="#009af9" fill-rule="evenodd" fill-opacity="1" stroke="#000000" stroke-opacity="1" stroke-width="4.55111"/>
<path clip-path="url(#clip760)" d="M449.24 133.62 L449.24 146.606 L455.12 146.606 Q458.384 146.606 460.166 144.916 Q461.948 143.227 461.948 140.102 Q461.948 137 460.166 135.31 Q458.384 133.62 455.12 133.62 L449.24 133.62 M444.564 129.778 L455.12 129.778 Q460.93 129.778 463.893 132.416 Q466.879 135.032 466.879 140.102 Q466.879 145.217 463.893 147.833 Q460.93 150.449 455.12 150.449 L449.24 150.449 L449.24 164.338 L444.564 164.338 L444.564 129.778 Z" fill="#000000" fill-rule="nonzero" fill-opacity="1" /><path clip-path="url(#clip760)" d="M481.323 141.398 Q477.897 141.398 475.907 144.083 Q473.916 146.745 473.916 151.398 Q473.916 156.051 475.883 158.736 Q477.874 161.398 481.323 161.398 Q484.726 161.398 486.717 158.713 Q488.707 156.027 488.707 151.398 Q488.707 146.791 486.717 144.106 Q484.726 141.398 481.323 141.398 M481.323 137.787 Q486.879 137.787 490.05 141.398 Q493.221 145.009 493.221 151.398 Q493.221 157.764 490.05 161.398 Q486.879 165.009 481.323 165.009 Q475.745 165.009 472.573 161.398 Q469.425 157.764 469.425 151.398 Q469.425 145.009 472.573 141.398 Q475.745 137.787 481.323 137.787 Z" fill="#000000" fill-rule="nonzero" fill-opacity="1" /><path clip-path="url(#clip760)" d="M516.809 139.176 L516.809 143.203 Q515.004 142.277 513.059 141.815 Q511.115 141.352 509.031 141.352 Q505.86 141.352 504.263 142.324 Q502.689 143.296 502.689 145.24 Q502.689 146.722 503.823 147.578 Q504.957 148.412 508.383 149.176 L509.842 149.5 Q514.379 150.472 516.277 152.254 Q518.198 154.014 518.198 157.185 Q518.198 160.796 515.328 162.902 Q512.481 165.009 507.481 165.009 Q505.397 165.009 503.129 164.592 Q500.883 164.199 498.383 163.388 L498.383 158.99 Q500.744 160.217 503.036 160.842 Q505.328 161.444 507.573 161.444 Q510.582 161.444 512.203 160.426 Q513.823 159.384 513.823 157.509 Q513.823 155.773 512.643 154.847 Q511.485 153.921 507.527 153.064 L506.045 152.717 Q502.087 151.884 500.328 150.171 Q498.569 148.435 498.569 145.426 Q498.569 141.768 501.161 139.778 Q503.754 137.787 508.522 137.787 Q510.883 137.787 512.967 138.134 Q515.05 138.481 516.809 139.176 Z" fill="#000000" fill-rule="nonzero" fill-opacity="1" /><path clip-path="url(#clip760)" d="M524.98 138.412 L529.24 138.412 L529.24 164.338 L524.98 164.338 L524.98 138.412 M524.98 128.319 L529.24 128.319 L529.24 133.713 L524.98 133.713 L524.98 128.319 Z" fill="#000000" fill-rule="nonzero" fill-opacity="1" /><path clip-path="url(#clip760)" d="M542.365 131.051 L542.365 138.412 L551.138 138.412 L551.138 141.722 L542.365 141.722 L542.365 155.796 Q542.365 158.967 543.221 159.87 Q544.101 160.773 546.763 160.773 L551.138 160.773 L551.138 164.338 L546.763 164.338 Q541.832 164.338 539.957 162.509 Q538.082 160.657 538.082 155.796 L538.082 141.722 L534.957 141.722 L534.957 138.412 L538.082 138.412 L538.082 131.051 L542.365 131.051 Z" fill="#000000" fill-rule="nonzero" fill-opacity="1" /><path clip-path="url(#clip760)" d="M556.74 138.412 L560.999 138.412 L560.999 164.338 L556.74 164.338 L556.74 138.412 M556.74 128.319 L560.999 128.319 L560.999 133.713 L556.74 133.713 L556.74 128.319 Z" fill="#000000" fill-rule="nonzero" fill-opacity="1" /><path clip-path="url(#clip760)" d="M566.855 138.412 L571.369 138.412 L579.471 160.171 L587.573 138.412 L592.087 138.412 L582.364 164.338 L576.577 164.338 L566.855 138.412 Z" fill="#000000" fill-rule="nonzero" fill-opacity="1" /><path clip-path="url(#clip760)" d="M620.142 150.31 L620.142 152.393 L600.559 152.393 Q600.837 156.791 603.198 159.106 Q605.582 161.398 609.818 161.398 Q612.272 161.398 614.563 160.796 Q616.878 160.194 619.147 158.99 L619.147 163.018 Q616.855 163.99 614.448 164.5 Q612.04 165.009 609.563 165.009 Q603.36 165.009 599.725 161.398 Q596.114 157.787 596.114 151.629 Q596.114 145.264 599.54 141.537 Q602.989 137.787 608.823 137.787 Q614.054 137.787 617.086 141.166 Q620.142 144.523 620.142 150.31 M615.883 149.06 Q615.836 145.565 613.915 143.481 Q612.017 141.398 608.869 141.398 Q605.304 141.398 603.151 143.412 Q601.022 145.426 600.698 149.083 L615.883 149.06 Z" fill="#000000" fill-rule="nonzero" fill-opacity="1" /><path clip-path="url(#clip760)" d="M646.322 160.449 L646.322 174.199 L642.04 174.199 L642.04 138.412 L646.322 138.412 L646.322 142.347 Q647.665 140.032 649.702 138.921 Q651.762 137.787 654.609 137.787 Q659.332 137.787 662.271 141.537 Q665.234 145.287 665.234 151.398 Q665.234 157.509 662.271 161.259 Q659.332 165.009 654.609 165.009 Q651.762 165.009 649.702 163.898 Q647.665 162.763 646.322 160.449 M660.813 151.398 Q660.813 146.699 658.869 144.037 Q656.947 141.352 653.568 141.352 Q650.188 141.352 648.244 144.037 Q646.322 146.699 646.322 151.398 Q646.322 156.097 648.244 158.782 Q650.188 161.444 653.568 161.444 Q656.947 161.444 658.869 158.782 Q660.813 156.097 660.813 151.398 Z" fill="#000000" fill-rule="nonzero" fill-opacity="1" /><path clip-path="url(#clip760)" d="M682.341 141.398 Q678.915 141.398 676.924 144.083 Q674.933 146.745 674.933 151.398 Q674.933 156.051 676.901 158.736 Q678.892 161.398 682.341 161.398 Q685.743 161.398 687.734 158.713 Q689.725 156.027 689.725 151.398 Q689.725 146.791 687.734 144.106 Q685.743 141.398 682.341 141.398 M682.341 137.787 Q687.896 137.787 691.068 141.398 Q694.239 145.009 694.239 151.398 Q694.239 157.764 691.068 161.398 Q687.896 165.009 682.341 165.009 Q676.762 165.009 673.591 161.398 Q670.443 157.764 670.443 151.398 Q670.443 145.009 673.591 141.398 Q676.762 137.787 682.341 137.787 Z" fill="#000000" fill-rule="nonzero" fill-opacity="1" /><path clip-path="url(#clip760)" d="M701.299 138.412 L705.558 138.412 L705.558 164.338 L701.299 164.338 L701.299 138.412 M701.299 128.319 L705.558 128.319 L705.558 133.713 L701.299 133.713 L701.299 128.319 Z" fill="#000000" fill-rule="nonzero" fill-opacity="1" /><path clip-path="url(#clip760)" d="M736.021 148.689 L736.021 164.338 L731.762 164.338 L731.762 148.828 Q731.762 145.148 730.327 143.319 Q728.891 141.49 726.021 141.49 Q722.572 141.49 720.581 143.69 Q718.591 145.889 718.591 149.685 L718.591 164.338 L714.308 164.338 L714.308 138.412 L718.591 138.412 L718.591 142.44 Q720.118 140.102 722.178 138.944 Q724.262 137.787 726.97 137.787 Q731.438 137.787 733.729 140.565 Q736.021 143.319 736.021 148.689 Z" fill="#000000" fill-rule="nonzero" fill-opacity="1" /><path clip-path="url(#clip760)" d="M748.729 131.051 L748.729 138.412 L757.502 138.412 L757.502 141.722 L748.729 141.722 L748.729 155.796 Q748.729 158.967 749.586 159.87 Q750.465 160.773 753.127 160.773 L757.502 160.773 L757.502 164.338 L753.127 164.338 Q748.197 164.338 746.322 162.509 Q744.447 160.657 744.447 155.796 L744.447 141.722 L741.322 141.722 L741.322 138.412 L744.447 138.412 L744.447 131.051 L748.729 131.051 Z" fill="#000000" fill-rule="nonzero" fill-opacity="1" /><path clip-path="url(#clip760)" d="M779.632 139.176 L779.632 143.203 Q777.826 142.277 775.882 141.815 Q773.937 141.352 771.854 141.352 Q768.683 141.352 767.086 142.324 Q765.512 143.296 765.512 145.24 Q765.512 146.722 766.646 147.578 Q767.78 148.412 771.206 149.176 L772.664 149.5 Q777.201 150.472 779.099 152.254 Q781.021 154.014 781.021 157.185 Q781.021 160.796 778.15 162.902 Q775.303 165.009 770.303 165.009 Q768.22 165.009 765.951 164.592 Q763.706 164.199 761.206 163.388 L761.206 158.99 Q763.567 160.217 765.859 160.842 Q768.15 161.444 770.396 161.444 Q773.405 161.444 775.025 160.426 Q776.646 159.384 776.646 157.509 Q776.646 155.773 775.465 154.847 Q774.308 153.921 770.35 153.064 L768.868 152.717 Q764.91 151.884 763.15 150.171 Q761.391 148.435 761.391 145.426 Q761.391 141.768 763.984 139.778 Q766.576 137.787 771.345 137.787 Q773.706 137.787 775.789 138.134 Q777.873 138.481 779.632 139.176 Z" fill="#000000" fill-rule="nonzero" fill-opacity="1" /><circle clip-path="url(#clip760)" cx="347.947" cy="198.898" r="20.48" fill="#e26f46" fill-rule="evenodd" fill-opacity="1" stroke="#000000" stroke-opacity="1" stroke-width="4.55111"/>
<path clip-path="url(#clip760)" d="M444.564 181.618 L450.86 181.618 L466.184 210.529 L466.184 181.618 L470.721 181.618 L470.721 216.178 L464.425 216.178 L449.101 187.266 L449.101 216.178 L444.564 216.178 L444.564 181.618 Z" fill="#000000" fill-rule="nonzero" fill-opacity="1" /><path clip-path="url(#clip760)" d="M502.018 202.15 L502.018 204.233 L482.434 204.233 Q482.712 208.631 485.073 210.946 Q487.458 213.238 491.694 213.238 Q494.147 213.238 496.439 212.636 Q498.754 212.034 501.022 210.83 L501.022 214.858 Q498.731 215.83 496.323 216.34 Q493.916 216.849 491.439 216.849 Q485.235 216.849 481.601 213.238 Q477.99 209.627 477.99 203.469 Q477.99 197.104 481.416 193.377 Q484.865 189.627 490.698 189.627 Q495.93 189.627 498.962 193.006 Q502.018 196.363 502.018 202.15 M497.758 200.9 Q497.712 197.405 495.791 195.321 Q493.893 193.238 490.745 193.238 Q487.18 193.238 485.027 195.252 Q482.897 197.266 482.573 200.923 L497.758 200.9 Z" fill="#000000" fill-rule="nonzero" fill-opacity="1" /><path clip-path="url(#clip760)" d="M526.068 202.914 Q526.068 198.284 524.147 195.738 Q522.249 193.192 518.8 193.192 Q515.374 193.192 513.453 195.738 Q511.555 198.284 511.555 202.914 Q511.555 207.52 513.453 210.066 Q515.374 212.613 518.8 212.613 Q522.249 212.613 524.147 210.066 Q526.068 207.52 526.068 202.914 M530.328 212.96 Q530.328 219.58 527.388 222.798 Q524.448 226.039 518.383 226.039 Q516.138 226.039 514.147 225.691 Q512.156 225.367 510.281 224.673 L510.281 220.529 Q512.156 221.548 513.985 222.034 Q515.814 222.52 517.712 222.52 Q521.902 222.52 523.985 220.321 Q526.068 218.145 526.068 213.724 L526.068 211.617 Q524.749 213.909 522.689 215.043 Q520.629 216.178 517.758 216.178 Q512.99 216.178 510.073 212.543 Q507.156 208.909 507.156 202.914 Q507.156 196.895 510.073 193.261 Q512.99 189.627 517.758 189.627 Q520.629 189.627 522.689 190.761 Q524.749 191.895 526.068 194.187 L526.068 190.252 L530.328 190.252 L530.328 212.96 Z" fill="#000000" fill-rule="nonzero" fill-opacity="1" /><path clip-path="url(#clip760)" d="M550.883 203.145 Q545.721 203.145 543.73 204.326 Q541.74 205.506 541.74 208.354 Q541.74 210.622 543.221 211.965 Q544.726 213.284 547.295 213.284 Q550.837 213.284 552.966 210.784 Q555.119 208.261 555.119 204.094 L555.119 203.145 L550.883 203.145 M559.378 201.386 L559.378 216.178 L555.119 216.178 L555.119 212.242 Q553.661 214.603 551.485 215.738 Q549.309 216.849 546.161 216.849 Q542.179 216.849 539.818 214.627 Q537.48 212.381 537.48 208.631 Q537.48 204.256 540.397 202.034 Q543.337 199.812 549.147 199.812 L555.119 199.812 L555.119 199.395 Q555.119 196.455 553.175 194.858 Q551.253 193.238 547.758 193.238 Q545.536 193.238 543.429 193.77 Q541.323 194.303 539.379 195.367 L539.379 191.432 Q541.716 190.53 543.916 190.09 Q546.115 189.627 548.198 189.627 Q553.823 189.627 556.601 192.543 Q559.378 195.46 559.378 201.386 Z" fill="#000000" fill-rule="nonzero" fill-opacity="1" /><path clip-path="url(#clip760)" d="M572.364 182.891 L572.364 190.252 L581.138 190.252 L581.138 193.562 L572.364 193.562 L572.364 207.636 Q572.364 210.807 573.221 211.71 Q574.101 212.613 576.763 212.613 L581.138 212.613 L581.138 216.178 L576.763 216.178 Q571.832 216.178 569.957 214.349 Q568.082 212.497 568.082 207.636 L568.082 193.562 L564.957 193.562 L564.957 190.252 L568.082 190.252 L568.082 182.891 L572.364 182.891 Z" fill="#000000" fill-rule="nonzero" fill-opacity="1" /><path clip-path="url(#clip760)" d="M586.739 190.252 L590.999 190.252 L590.999 216.178 L586.739 216.178 L586.739 190.252 M586.739 180.159 L590.999 180.159 L590.999 185.553 L586.739 185.553 L586.739 180.159 Z" fill="#000000" fill-rule="nonzero" fill-opacity="1" /><path clip-path="url(#clip760)" d="M596.855 190.252 L601.369 190.252 L609.471 212.011 L617.573 190.252 L622.086 190.252 L612.364 216.178 L606.577 216.178 L596.855 190.252 Z" fill="#000000" fill-rule="nonzero" fill-opacity="1" /><path clip-path="url(#clip760)" d="M650.142 202.15 L650.142 204.233 L630.559 204.233 Q630.836 208.631 633.197 210.946 Q635.582 213.238 639.818 213.238 Q642.271 213.238 644.563 212.636 Q646.878 212.034 649.146 210.83 L649.146 214.858 Q646.855 215.83 644.447 216.34 Q642.04 216.849 639.563 216.849 Q633.359 216.849 629.725 213.238 Q626.114 209.627 626.114 203.469 Q626.114 197.104 629.54 193.377 Q632.989 189.627 638.822 189.627 Q644.054 189.627 647.086 193.006 Q650.142 196.363 650.142 202.15 M645.883 200.9 Q645.836 197.405 643.915 195.321 Q642.017 193.238 638.869 193.238 Q635.304 193.238 633.151 195.252 Q631.022 197.266 630.697 200.923 L645.883 200.9 Z" fill="#000000" fill-rule="nonzero" fill-opacity="1" /><path clip-path="url(#clip760)" d="M676.322 212.289 L676.322 226.039 L672.04 226.039 L672.04 190.252 L676.322 190.252 L676.322 194.187 Q677.665 191.872 679.702 190.761 Q681.762 189.627 684.609 189.627 Q689.331 189.627 692.271 193.377 Q695.234 197.127 695.234 203.238 Q695.234 209.349 692.271 213.099 Q689.331 216.849 684.609 216.849 Q681.762 216.849 679.702 215.738 Q677.665 214.603 676.322 212.289 M690.813 203.238 Q690.813 198.539 688.868 195.877 Q686.947 193.192 683.568 193.192 Q680.188 193.192 678.244 195.877 Q676.322 198.539 676.322 203.238 Q676.322 207.937 678.244 210.622 Q680.188 213.284 683.568 213.284 Q686.947 213.284 688.868 210.622 Q690.813 207.937 690.813 203.238 Z" fill="#000000" fill-rule="nonzero" fill-opacity="1" /><path clip-path="url(#clip760)" d="M712.341 193.238 Q708.915 193.238 706.924 195.923 Q704.933 198.585 704.933 203.238 Q704.933 207.891 706.901 210.576 Q708.891 213.238 712.341 213.238 Q715.743 213.238 717.734 210.553 Q719.725 207.867 719.725 203.238 Q719.725 198.631 717.734 195.946 Q715.743 193.238 712.341 193.238 M712.341 189.627 Q717.896 189.627 721.067 193.238 Q724.239 196.849 724.239 203.238 Q724.239 209.604 721.067 213.238 Q717.896 216.849 712.341 216.849 Q706.762 216.849 703.591 213.238 Q700.442 209.604 700.442 203.238 Q700.442 196.849 703.591 193.238 Q706.762 189.627 712.341 189.627 Z" fill="#000000" fill-rule="nonzero" fill-opacity="1" /><path clip-path="url(#clip760)" d="M731.299 190.252 L735.558 190.252 L735.558 216.178 L731.299 216.178 L731.299 190.252 M731.299 180.159 L735.558 180.159 L735.558 185.553 L731.299 185.553 L731.299 180.159 Z" fill="#000000" fill-rule="nonzero" fill-opacity="1" /><path clip-path="url(#clip760)" d="M766.021 200.529 L766.021 216.178 L761.762 216.178 L761.762 200.668 Q761.762 196.988 760.326 195.159 Q758.891 193.33 756.021 193.33 Q752.572 193.33 750.581 195.53 Q748.59 197.729 748.59 201.525 L748.59 216.178 L744.308 216.178 L744.308 190.252 L748.59 190.252 L748.59 194.28 Q750.118 191.942 752.178 190.784 Q754.262 189.627 756.97 189.627 Q761.438 189.627 763.729 192.405 Q766.021 195.159 766.021 200.529 Z" fill="#000000" fill-rule="nonzero" fill-opacity="1" /><path clip-path="url(#clip760)" d="M778.729 182.891 L778.729 190.252 L787.502 190.252 L787.502 193.562 L778.729 193.562 L778.729 207.636 Q778.729 210.807 779.586 211.71 Q780.465 212.613 783.127 212.613 L787.502 212.613 L787.502 216.178 L783.127 216.178 Q778.197 216.178 776.322 214.349 Q774.447 212.497 774.447 207.636 L774.447 193.562 L771.322 193.562 L771.322 190.252 L774.447 190.252 L774.447 182.891 L778.729 182.891 Z" fill="#000000" fill-rule="nonzero" fill-opacity="1" /><path clip-path="url(#clip760)" d="M809.632 191.016 L809.632 195.043 Q807.826 194.117 805.882 193.655 Q803.937 193.192 801.854 193.192 Q798.683 193.192 797.085 194.164 Q795.511 195.136 795.511 197.08 Q795.511 198.562 796.646 199.418 Q797.78 200.252 801.206 201.016 L802.664 201.34 Q807.201 202.312 809.099 204.094 Q811.021 205.854 811.021 209.025 Q811.021 212.636 808.15 214.742 Q805.303 216.849 800.303 216.849 Q798.22 216.849 795.951 216.432 Q793.706 216.039 791.206 215.228 L791.206 210.83 Q793.567 212.057 795.859 212.682 Q798.15 213.284 800.396 213.284 Q803.405 213.284 805.025 212.266 Q806.646 211.224 806.646 209.349 Q806.646 207.613 805.465 206.687 Q804.308 205.761 800.349 204.904 L798.868 204.557 Q794.91 203.724 793.15 202.011 Q791.391 200.275 791.391 197.266 Q791.391 193.608 793.984 191.618 Q796.576 189.627 801.345 189.627 Q803.706 189.627 805.789 189.974 Q807.872 190.321 809.632 191.016 Z" fill="#000000" fill-rule="nonzero" fill-opacity="1" /><polyline clip-path="url(#clip760)" style="stroke:#3da44d; stroke-linecap:round; stroke-linejoin:round; stroke-width:4; stroke-opacity:1; fill:none" points="275.484,250.738 420.41,250.738 "/>
<path clip-path="url(#clip760)" d="M466.809 234.592 L466.809 239.152 Q464.147 237.879 461.786 237.254 Q459.425 236.629 457.226 236.629 Q453.407 236.629 451.323 238.11 Q449.263 239.592 449.263 242.323 Q449.263 244.615 450.629 245.795 Q452.018 246.953 455.86 247.67 L458.685 248.249 Q463.916 249.245 466.393 251.768 Q468.893 254.268 468.893 258.481 Q468.893 263.504 465.513 266.096 Q462.157 268.689 455.652 268.689 Q453.198 268.689 450.421 268.133 Q447.666 267.578 444.703 266.49 L444.703 261.675 Q447.55 263.272 450.282 264.082 Q453.013 264.893 455.652 264.893 Q459.657 264.893 461.833 263.319 Q464.009 261.744 464.009 258.828 Q464.009 256.282 462.434 254.846 Q460.884 253.411 457.319 252.694 L454.472 252.138 Q449.24 251.096 446.902 248.874 Q444.564 246.652 444.564 242.694 Q444.564 238.11 447.782 235.471 Q451.023 232.833 456.694 232.833 Q459.124 232.833 461.647 233.272 Q464.171 233.712 466.809 234.592 Z" fill="#000000" fill-rule="nonzero" fill-opacity="1" /><path clip-path="url(#clip760)" d="M498.175 253.99 L498.175 256.073 L478.592 256.073 Q478.87 260.471 481.231 262.786 Q483.615 265.078 487.851 265.078 Q490.305 265.078 492.596 264.476 Q494.911 263.874 497.18 262.67 L497.18 266.698 Q494.888 267.67 492.481 268.18 Q490.073 268.689 487.596 268.689 Q481.393 268.689 477.758 265.078 Q474.147 261.467 474.147 255.309 Q474.147 248.944 477.573 245.217 Q481.022 241.467 486.856 241.467 Q492.087 241.467 495.119 244.846 Q498.175 248.203 498.175 253.99 M493.916 252.74 Q493.87 249.245 491.948 247.161 Q490.05 245.078 486.902 245.078 Q483.337 245.078 481.184 247.092 Q479.055 249.106 478.731 252.763 L493.916 252.74 Z" fill="#000000" fill-rule="nonzero" fill-opacity="1" /><path clip-path="url(#clip760)" d="M509.286 264.129 L509.286 277.879 L505.004 277.879 L505.004 242.092 L509.286 242.092 L509.286 246.027 Q510.629 243.712 512.666 242.601 Q514.726 241.467 517.573 241.467 Q522.295 241.467 525.235 245.217 Q528.198 248.967 528.198 255.078 Q528.198 261.189 525.235 264.939 Q522.295 268.689 517.573 268.689 Q514.726 268.689 512.666 267.578 Q510.629 266.443 509.286 264.129 M523.777 255.078 Q523.777 250.379 521.832 247.717 Q519.911 245.032 516.531 245.032 Q513.152 245.032 511.207 247.717 Q509.286 250.379 509.286 255.078 Q509.286 259.777 511.207 262.462 Q513.152 265.124 516.531 265.124 Q519.911 265.124 521.832 262.462 Q523.777 259.777 523.777 255.078 Z" fill="#000000" fill-rule="nonzero" fill-opacity="1" /><path clip-path="url(#clip760)" d="M547.041 254.985 Q541.879 254.985 539.888 256.166 Q537.897 257.346 537.897 260.194 Q537.897 262.462 539.379 263.805 Q540.883 265.124 543.453 265.124 Q546.994 265.124 549.124 262.624 Q551.277 260.101 551.277 255.934 L551.277 254.985 L547.041 254.985 M555.536 253.226 L555.536 268.018 L551.277 268.018 L551.277 264.082 Q549.818 266.443 547.642 267.578 Q545.466 268.689 542.318 268.689 Q538.337 268.689 535.976 266.467 Q533.638 264.221 533.638 260.471 Q533.638 256.096 536.554 253.874 Q539.494 251.652 545.304 251.652 L551.277 251.652 L551.277 251.235 Q551.277 248.295 549.332 246.698 Q547.411 245.078 543.916 245.078 Q541.693 245.078 539.587 245.61 Q537.48 246.143 535.536 247.207 L535.536 243.272 Q537.874 242.37 540.073 241.93 Q542.272 241.467 544.355 241.467 Q549.98 241.467 552.758 244.383 Q555.536 247.3 555.536 253.226 Z" fill="#000000" fill-rule="nonzero" fill-opacity="1" /><path clip-path="url(#clip760)" d="M579.332 246.073 Q578.614 245.657 577.758 245.471 Q576.925 245.263 575.906 245.263 Q572.295 245.263 570.351 247.624 Q568.429 249.962 568.429 254.36 L568.429 268.018 L564.147 268.018 L564.147 242.092 L568.429 242.092 L568.429 246.12 Q569.772 243.758 571.925 242.624 Q574.077 241.467 577.156 241.467 Q577.596 241.467 578.128 241.536 Q578.661 241.583 579.309 241.698 L579.332 246.073 Z" fill="#000000" fill-rule="nonzero" fill-opacity="1" /><path clip-path="url(#clip760)" d="M595.582 254.985 Q590.42 254.985 588.429 256.166 Q586.438 257.346 586.438 260.194 Q586.438 262.462 587.92 263.805 Q589.425 265.124 591.994 265.124 Q595.536 265.124 597.665 262.624 Q599.818 260.101 599.818 255.934 L599.818 254.985 L595.582 254.985 M604.077 253.226 L604.077 268.018 L599.818 268.018 L599.818 264.082 Q598.36 266.443 596.184 267.578 Q594.008 268.689 590.86 268.689 Q586.878 268.689 584.517 266.467 Q582.179 264.221 582.179 260.471 Q582.179 256.096 585.096 253.874 Q588.036 251.652 593.846 251.652 L599.818 251.652 L599.818 251.235 Q599.818 248.295 597.874 246.698 Q595.952 245.078 592.457 245.078 Q590.235 245.078 588.128 245.61 Q586.022 246.143 584.077 247.207 L584.077 243.272 Q586.415 242.37 588.614 241.93 Q590.813 241.467 592.897 241.467 Q598.522 241.467 601.299 244.383 Q604.077 247.3 604.077 253.226 Z" fill="#000000" fill-rule="nonzero" fill-opacity="1" /><path clip-path="url(#clip760)" d="M617.063 234.731 L617.063 242.092 L625.836 242.092 L625.836 245.402 L617.063 245.402 L617.063 259.476 Q617.063 262.647 617.92 263.55 Q618.799 264.453 621.461 264.453 L625.836 264.453 L625.836 268.018 L621.461 268.018 Q616.531 268.018 614.656 266.189 Q612.781 264.337 612.781 259.476 L612.781 245.402 L609.656 245.402 L609.656 242.092 L612.781 242.092 L612.781 234.731 L617.063 234.731 Z" fill="#000000" fill-rule="nonzero" fill-opacity="1" /><path clip-path="url(#clip760)" d="M631.438 242.092 L635.697 242.092 L635.697 268.018 L631.438 268.018 L631.438 242.092 M631.438 231.999 L635.697 231.999 L635.697 237.393 L631.438 237.393 L631.438 231.999 Z" fill="#000000" fill-rule="nonzero" fill-opacity="1" /><path clip-path="url(#clip760)" d="M666.16 252.369 L666.16 268.018 L661.901 268.018 L661.901 252.508 Q661.901 248.828 660.466 246.999 Q659.031 245.17 656.16 245.17 Q652.711 245.17 650.721 247.37 Q648.73 249.569 648.73 253.365 L648.73 268.018 L644.447 268.018 L644.447 242.092 L648.73 242.092 L648.73 246.12 Q650.258 243.782 652.318 242.624 Q654.401 241.467 657.109 241.467 Q661.577 241.467 663.869 244.245 Q666.16 246.999 666.16 252.369 Z" fill="#000000" fill-rule="nonzero" fill-opacity="1" /><path clip-path="url(#clip760)" d="M691.716 254.754 Q691.716 250.124 689.794 247.578 Q687.896 245.032 684.447 245.032 Q681.021 245.032 679.1 247.578 Q677.202 250.124 677.202 254.754 Q677.202 259.36 679.1 261.906 Q681.021 264.453 684.447 264.453 Q687.896 264.453 689.794 261.906 Q691.716 259.36 691.716 254.754 M695.975 264.8 Q695.975 271.42 693.035 274.638 Q690.095 277.879 684.031 277.879 Q681.785 277.879 679.794 277.531 Q677.804 277.207 675.929 276.513 L675.929 272.369 Q677.804 273.388 679.632 273.874 Q681.461 274.36 683.359 274.36 Q687.549 274.36 689.632 272.161 Q691.716 269.985 691.716 265.564 L691.716 263.457 Q690.396 265.749 688.336 266.883 Q686.276 268.018 683.406 268.018 Q678.637 268.018 675.72 264.383 Q672.804 260.749 672.804 254.754 Q672.804 248.735 675.72 245.101 Q678.637 241.467 683.406 241.467 Q686.276 241.467 688.336 242.601 Q690.396 243.735 691.716 246.027 L691.716 242.092 L695.975 242.092 L695.975 264.8 Z" fill="#000000" fill-rule="nonzero" fill-opacity="1" /><path clip-path="url(#clip760)" d="M741.368 252.369 L741.368 268.018 L737.109 268.018 L737.109 252.508 Q737.109 248.828 735.674 246.999 Q734.239 245.17 731.368 245.17 Q727.919 245.17 725.928 247.37 Q723.938 249.569 723.938 253.365 L723.938 268.018 L719.655 268.018 L719.655 231.999 L723.938 231.999 L723.938 246.12 Q725.465 243.782 727.526 242.624 Q729.609 241.467 732.317 241.467 Q736.785 241.467 739.077 244.245 Q741.368 246.999 741.368 252.369 Z" fill="#000000" fill-rule="nonzero" fill-opacity="1" /><path clip-path="url(#clip760)" d="M760.65 270.425 Q758.845 275.055 757.132 276.467 Q755.419 277.879 752.549 277.879 L749.146 277.879 L749.146 274.314 L751.646 274.314 Q753.405 274.314 754.377 273.48 Q755.35 272.647 756.53 269.545 L757.294 267.601 L746.808 242.092 L751.322 242.092 L759.424 262.369 L767.525 242.092 L772.039 242.092 L760.65 270.425 Z" fill="#000000" fill-rule="nonzero" fill-opacity="1" /><path clip-path="url(#clip760)" d="M782.039 264.129 L782.039 277.879 L777.757 277.879 L777.757 242.092 L782.039 242.092 L782.039 246.027 Q783.382 243.712 785.419 242.601 Q787.479 241.467 790.326 241.467 Q795.048 241.467 797.988 245.217 Q800.951 248.967 800.951 255.078 Q800.951 261.189 797.988 264.939 Q795.048 268.689 790.326 268.689 Q787.479 268.689 785.419 267.578 Q783.382 266.443 782.039 264.129 M796.53 255.078 Q796.53 250.379 794.585 247.717 Q792.664 245.032 789.285 245.032 Q785.905 245.032 783.961 247.717 Q782.039 250.379 782.039 255.078 Q782.039 259.777 783.961 262.462 Q785.905 265.124 789.285 265.124 Q792.664 265.124 794.585 262.462 Q796.53 259.777 796.53 255.078 Z" fill="#000000" fill-rule="nonzero" fill-opacity="1" /><path clip-path="url(#clip760)" d="M830.187 253.99 L830.187 256.073 L810.604 256.073 Q810.882 260.471 813.243 262.786 Q815.627 265.078 819.863 265.078 Q822.317 265.078 824.608 264.476 Q826.923 263.874 829.192 262.67 L829.192 266.698 Q826.9 267.67 824.493 268.18 Q822.085 268.689 819.608 268.689 Q813.405 268.689 809.771 265.078 Q806.159 261.467 806.159 255.309 Q806.159 248.944 809.585 245.217 Q813.034 241.467 818.868 241.467 Q824.099 241.467 827.132 244.846 Q830.187 248.203 830.187 253.99 M825.928 252.74 Q825.882 249.245 823.96 247.161 Q822.062 245.078 818.914 245.078 Q815.349 245.078 813.196 247.092 Q811.067 249.106 810.743 252.763 L825.928 252.74 Z" fill="#000000" fill-rule="nonzero" fill-opacity="1" /><path clip-path="url(#clip760)" d="M852.201 246.073 Q851.483 245.657 850.627 245.471 Q849.794 245.263 848.775 245.263 Q845.164 245.263 843.219 247.624 Q841.298 249.962 841.298 254.36 L841.298 268.018 L837.016 268.018 L837.016 242.092 L841.298 242.092 L841.298 246.12 Q842.641 243.758 844.794 242.624 Q846.946 241.467 850.025 241.467 Q850.465 241.467 850.997 241.536 Q851.53 241.583 852.178 241.698 L852.201 246.073 Z" fill="#000000" fill-rule="nonzero" fill-opacity="1" /><path clip-path="url(#clip760)" d="M860.789 264.129 L860.789 277.879 L856.506 277.879 L856.506 242.092 L860.789 242.092 L860.789 246.027 Q862.131 243.712 864.168 242.601 Q866.229 241.467 869.076 241.467 Q873.798 241.467 876.738 245.217 Q879.701 248.967 879.701 255.078 Q879.701 261.189 876.738 264.939 Q873.798 268.689 869.076 268.689 Q866.229 268.689 864.168 267.578 Q862.131 266.443 860.789 264.129 M875.279 255.078 Q875.279 250.379 873.335 247.717 Q871.414 245.032 868.034 245.032 Q864.655 245.032 862.71 247.717 Q860.789 250.379 860.789 255.078 Q860.789 259.777 862.71 262.462 Q864.655 265.124 868.034 265.124 Q871.414 265.124 873.335 262.462 Q875.279 259.777 875.279 255.078 Z" fill="#000000" fill-rule="nonzero" fill-opacity="1" /><path clip-path="url(#clip760)" d="M886.761 231.999 L891.02 231.999 L891.02 268.018 L886.761 268.018 L886.761 231.999 Z" fill="#000000" fill-rule="nonzero" fill-opacity="1" /><path clip-path="url(#clip760)" d="M911.714 254.985 Q906.552 254.985 904.562 256.166 Q902.571 257.346 902.571 260.194 Q902.571 262.462 904.052 263.805 Q905.557 265.124 908.127 265.124 Q911.668 265.124 913.798 262.624 Q915.951 260.101 915.951 255.934 L915.951 254.985 L911.714 254.985 M920.21 253.226 L920.21 268.018 L915.951 268.018 L915.951 264.082 Q914.492 266.443 912.316 267.578 Q910.14 268.689 906.992 268.689 Q903.011 268.689 900.65 266.467 Q898.312 264.221 898.312 260.471 Q898.312 256.096 901.228 253.874 Q904.168 251.652 909.978 251.652 L915.951 251.652 L915.951 251.235 Q915.951 248.295 914.006 246.698 Q912.085 245.078 908.59 245.078 Q906.367 245.078 904.261 245.61 Q902.154 246.143 900.21 247.207 L900.21 243.272 Q902.548 242.37 904.747 241.93 Q906.946 241.467 909.029 241.467 Q914.654 241.467 917.432 244.383 Q920.21 247.3 920.21 253.226 Z" fill="#000000" fill-rule="nonzero" fill-opacity="1" /><path clip-path="url(#clip760)" d="M950.534 252.369 L950.534 268.018 L946.274 268.018 L946.274 252.508 Q946.274 248.828 944.839 246.999 Q943.404 245.17 940.534 245.17 Q937.085 245.17 935.094 247.37 Q933.103 249.569 933.103 253.365 L933.103 268.018 L928.821 268.018 L928.821 242.092 L933.103 242.092 L933.103 246.12 Q934.631 243.782 936.691 242.624 Q938.775 241.467 941.483 241.467 Q945.95 241.467 948.242 244.245 Q950.534 246.999 950.534 252.369 Z" fill="#000000" fill-rule="nonzero" fill-opacity="1" /><path clip-path="url(#clip760)" d="M981.205 253.99 L981.205 256.073 L961.622 256.073 Q961.899 260.471 964.261 262.786 Q966.645 265.078 970.881 265.078 Q973.335 265.078 975.626 264.476 Q977.941 263.874 980.209 262.67 L980.209 266.698 Q977.918 267.67 975.51 268.18 Q973.103 268.689 970.626 268.689 Q964.423 268.689 960.788 265.078 Q957.177 261.467 957.177 255.309 Q957.177 248.944 960.603 245.217 Q964.052 241.467 969.885 241.467 Q975.117 241.467 978.149 244.846 Q981.205 248.203 981.205 253.99 M976.946 252.74 Q976.899 249.245 974.978 247.161 Q973.08 245.078 969.932 245.078 Q966.367 245.078 964.214 247.092 Q962.085 249.106 961.761 252.763 L976.946 252.74 Z" fill="#000000" fill-rule="nonzero" fill-opacity="1" /></svg>
