<?xml version="1.0" encoding="utf-8"?>
<svg xmlns="http://www.w3.org/2000/svg" xmlns:xlink="http://www.w3.org/1999/xlink" width="600" height="400" viewBox="0 0 2400 1600">
<defs>
  <clipPath id="clip780">
    <rect x="0" y="0" width="2400" height="1600"/>
  </clipPath>
</defs>
<path clip-path="url(#clip780)" d="M0 1600 L2400 1600 L2400 0 L0 0  Z" fill="#ffffff" fill-rule="evenodd" fill-opacity="1"/>
<defs>
  <clipPath id="clip781">
    <rect x="480" y="0" width="1681" height="1600"/>
  </clipPath>
</defs>
<path clip-path="url(#clip780)" d="M249.542 1423.18 L2352.76 1423.18 L2352.76 123.472 L249.542 123.472  Z" fill="#ffffff" fill-rule="evenodd" fill-opacity="1"/>
<defs>
  <clipPath id="clip782">
    <rect x="249" y="123" width="2104" height="1301"/>
  </clipPath>
</defs>
<polyline clip-path="url(#clip782)" style="stroke:#000000; stroke-linecap:round; stroke-linejoin:round; stroke-width:2; stroke-opacity:0.1; fill:none" points="249.542,1423.18 249.542,123.472 "/>
<polyline clip-path="url(#clip782)" style="stroke:#000000; stroke-linecap:round; stroke-linejoin:round; stroke-width:2; stroke-opacity:0.1; fill:none" points="670.185,1423.18 670.185,123.472 "/>
<polyline clip-path="url(#clip782)" style="stroke:#000000; stroke-linecap:round; stroke-linejoin:round; stroke-width:2; stroke-opacity:0.1; fill:none" points="1090.83,1423.18 1090.83,123.472 "/>
<polyline clip-path="url(#clip782)" style="stroke:#000000; stroke-linecap:round; stroke-linejoin:round; stroke-width:2; stroke-opacity:0.1; fill:none" points="1511.47,1423.18 1511.47,123.472 "/>
<polyline clip-path="url(#clip782)" style="stroke:#000000; stroke-linecap:round; stroke-linejoin:round; stroke-width:2; stroke-opacity:0.1; fill:none" points="1932.11,1423.18 1932.11,123.472 "/>
<polyline clip-path="url(#clip780)" style="stroke:#000000; stroke-linecap:round; stroke-linejoin:round; stroke-width:4; stroke-opacity:1; fill:none" points="249.542,1423.18 2352.76,1423.18 "/>
<polyline clip-path="url(#clip780)" style="stroke:#000000; stroke-linecap:round; stroke-linejoin:round; stroke-width:4; stroke-opacity:1; fill:none" points="249.542,1423.18 249.542,1404.28 "/>
<polyline clip-path="url(#clip780)" style="stroke:#000000; stroke-linecap:round; stroke-linejoin:round; stroke-width:4; stroke-opacity:1; fill:none" points="670.185,1423.18 670.185,1404.28 "/>
<polyline clip-path="url(#clip780)" style="stroke:#000000; stroke-linecap:round; stroke-linejoin:round; stroke-width:4; stroke-opacity:1; fill:none" points="1090.83,1423.18 1090.83,1404.28 "/>
<polyline clip-path="url(#clip780)" style="stroke:#000000; stroke-linecap:round; stroke-linejoin:round; stroke-width:4; stroke-opacity:1; fill:none" points="1511.47,1423.18 1511.47,1404.28 "/>
<polyline clip-path="url(#clip780)" style="stroke:#000000; stroke-linecap:round; stroke-linejoin:round; stroke-width:4; stroke-opacity:1; fill:none" points="1932.11,1423.18 1932.11,1404.28 "/>
<path clip-path="url(#clip780)" d="M211.845 1454.1 Q208.234 1454.1 206.406 1457.66 Q204.6 1461.2 204.6 1468.33 Q204.6 1475.44 206.406 1479.01 Q208.234 1482.55 211.845 1482.55 Q215.48 1482.55 217.285 1479.01 Q219.114 1475.44 219.114 1468.33 Q219.114 1461.2 217.285 1457.66 Q215.48 1454.1 211.845 1454.1 M211.845 1450.39 Q217.656 1450.39 220.711 1455 Q223.79 1459.58 223.79 1468.33 Q223.79 1477.06 220.711 1481.67 Q217.656 1486.25 211.845 1486.25 Q206.035 1486.25 202.957 1481.67 Q199.901 1477.06 199.901 1468.33 Q199.901 1459.58 202.957 1455 Q206.035 1450.39 211.845 1450.39 Z" fill="#000000" fill-rule="nonzero" fill-opacity="1" /><path clip-path="url(#clip780)" d="M232.007 1479.7 L236.892 1479.7 L236.892 1485.58 L232.007 1485.58 L232.007 1479.7 Z" fill="#000000" fill-rule="nonzero" fill-opacity="1" /><path clip-path="url(#clip780)" d="M257.077 1454.1 Q253.466 1454.1 251.637 1457.66 Q249.831 1461.2 249.831 1468.33 Q249.831 1475.44 251.637 1479.01 Q253.466 1482.55 257.077 1482.55 Q260.711 1482.55 262.517 1479.01 Q264.345 1475.44 264.345 1468.33 Q264.345 1461.2 262.517 1457.66 Q260.711 1454.1 257.077 1454.1 M257.077 1450.39 Q262.887 1450.39 265.942 1455 Q269.021 1459.58 269.021 1468.33 Q269.021 1477.06 265.942 1481.67 Q262.887 1486.25 257.077 1486.25 Q251.267 1486.25 248.188 1481.67 Q245.132 1477.06 245.132 1468.33 Q245.132 1459.58 248.188 1455 Q251.267 1450.39 257.077 1450.39 Z" fill="#000000" fill-rule="nonzero" fill-opacity="1" /><path clip-path="url(#clip780)" d="M287.239 1454.1 Q283.627 1454.1 281.799 1457.66 Q279.993 1461.2 279.993 1468.33 Q279.993 1475.44 281.799 1479.01 Q283.627 1482.55 287.239 1482.55 Q290.873 1482.55 292.678 1479.01 Q294.507 1475.44 294.507 1468.33 Q294.507 1461.2 292.678 1457.66 Q290.873 1454.1 287.239 1454.1 M287.239 1450.39 Q293.049 1450.39 296.104 1455 Q299.183 1459.58 299.183 1468.33 Q299.183 1477.06 296.104 1481.67 Q293.049 1486.25 287.239 1486.25 Q281.428 1486.25 278.35 1481.67 Q275.294 1477.06 275.294 1468.33 Q275.294 1459.58 278.35 1455 Q281.428 1450.39 287.239 1450.39 Z" fill="#000000" fill-rule="nonzero" fill-opacity="1" /><path clip-path="url(#clip780)" d="M632.986 1454.1 Q629.375 1454.1 627.546 1457.66 Q625.741 1461.2 625.741 1468.33 Q625.741 1475.44 627.546 1479.01 Q629.375 1482.55 632.986 1482.55 Q636.62 1482.55 638.426 1479.01 Q640.254 1475.44 640.254 1468.33 Q640.254 1461.2 638.426 1457.66 Q636.62 1454.1 632.986 1454.1 M632.986 1450.39 Q638.796 1450.39 641.852 1455 Q644.93 1459.58 644.93 1468.33 Q644.93 1477.06 641.852 1481.67 Q638.796 1486.25 632.986 1486.25 Q627.176 1486.25 624.097 1481.67 Q621.042 1477.06 621.042 1468.33 Q621.042 1459.58 624.097 1455 Q627.176 1450.39 632.986 1450.39 Z" fill="#000000" fill-rule="nonzero" fill-opacity="1" /><path clip-path="url(#clip780)" d="M653.148 1479.7 L658.032 1479.7 L658.032 1485.58 L653.148 1485.58 L653.148 1479.7 Z" fill="#000000" fill-rule="nonzero" fill-opacity="1" /><path clip-path="url(#clip780)" d="M678.217 1454.1 Q674.606 1454.1 672.777 1457.66 Q670.972 1461.2 670.972 1468.33 Q670.972 1475.44 672.777 1479.01 Q674.606 1482.55 678.217 1482.55 Q681.851 1482.55 683.657 1479.01 Q685.486 1475.44 685.486 1468.33 Q685.486 1461.2 683.657 1457.66 Q681.851 1454.1 678.217 1454.1 M678.217 1450.39 Q684.027 1450.39 687.083 1455 Q690.162 1459.58 690.162 1468.33 Q690.162 1477.06 687.083 1481.67 Q684.027 1486.25 678.217 1486.25 Q672.407 1486.25 669.328 1481.67 Q666.273 1477.06 666.273 1468.33 Q666.273 1459.58 669.328 1455 Q672.407 1450.39 678.217 1450.39 Z" fill="#000000" fill-rule="nonzero" fill-opacity="1" /><path clip-path="url(#clip780)" d="M698.425 1451.02 L716.782 1451.02 L716.782 1454.96 L702.708 1454.96 L702.708 1463.43 Q703.726 1463.08 704.745 1462.92 Q705.763 1462.73 706.782 1462.73 Q712.569 1462.73 715.948 1465.9 Q719.328 1469.08 719.328 1474.49 Q719.328 1480.07 715.856 1483.17 Q712.384 1486.25 706.064 1486.25 Q703.888 1486.25 701.62 1485.88 Q699.374 1485.51 696.967 1484.77 L696.967 1480.07 Q699.05 1481.2 701.273 1481.76 Q703.495 1482.32 705.972 1482.32 Q709.976 1482.32 712.314 1480.21 Q714.652 1478.1 714.652 1474.49 Q714.652 1470.88 712.314 1468.77 Q709.976 1466.67 705.972 1466.67 Q704.097 1466.67 702.222 1467.08 Q700.37 1467.5 698.425 1468.38 L698.425 1451.02 Z" fill="#000000" fill-rule="nonzero" fill-opacity="1" /><path clip-path="url(#clip780)" d="M1053.13 1454.1 Q1049.52 1454.1 1047.69 1457.66 Q1045.89 1461.2 1045.89 1468.33 Q1045.89 1475.44 1047.69 1479.01 Q1049.52 1482.55 1053.13 1482.55 Q1056.77 1482.55 1058.57 1479.01 Q1060.4 1475.44 1060.4 1468.33 Q1060.4 1461.2 1058.57 1457.66 Q1056.77 1454.1 1053.13 1454.1 M1053.13 1450.39 Q1058.94 1450.39 1062 1455 Q1065.08 1459.58 1065.08 1468.33 Q1065.08 1477.06 1062 1481.67 Q1058.94 1486.25 1053.13 1486.25 Q1047.32 1486.25 1044.24 1481.67 Q1041.19 1477.06 1041.19 1468.33 Q1041.19 1459.58 1044.24 1455 Q1047.32 1450.39 1053.13 1450.39 Z" fill="#000000" fill-rule="nonzero" fill-opacity="1" /><path clip-path="url(#clip780)" d="M1073.29 1479.7 L1078.18 1479.7 L1078.18 1485.58 L1073.29 1485.58 L1073.29 1479.7 Z" fill="#000000" fill-rule="nonzero" fill-opacity="1" /><path clip-path="url(#clip780)" d="M1089.17 1481.64 L1096.81 1481.64 L1096.81 1455.28 L1088.5 1456.95 L1088.5 1452.69 L1096.77 1451.02 L1101.44 1451.02 L1101.44 1481.64 L1109.08 1481.64 L1109.08 1485.58 L1089.17 1485.58 L1089.17 1481.64 Z" fill="#000000" fill-rule="nonzero" fill-opacity="1" /><path clip-path="url(#clip780)" d="M1128.52 1454.1 Q1124.91 1454.1 1123.08 1457.66 Q1121.28 1461.2 1121.28 1468.33 Q1121.28 1475.44 1123.08 1479.01 Q1124.91 1482.55 1128.52 1482.55 Q1132.16 1482.55 1133.96 1479.01 Q1135.79 1475.44 1135.79 1468.33 Q1135.79 1461.2 1133.96 1457.66 Q1132.16 1454.1 1128.52 1454.1 M1128.52 1450.39 Q1134.33 1450.39 1137.39 1455 Q1140.47 1459.58 1140.47 1468.33 Q1140.47 1477.06 1137.39 1481.67 Q1134.33 1486.25 1128.52 1486.25 Q1122.71 1486.25 1119.64 1481.67 Q1116.58 1477.06 1116.58 1468.33 Q1116.58 1459.58 1119.64 1455 Q1122.71 1450.39 1128.52 1450.39 Z" fill="#000000" fill-rule="nonzero" fill-opacity="1" /><path clip-path="url(#clip780)" d="M1474.27 1454.1 Q1470.66 1454.1 1468.83 1457.66 Q1467.03 1461.2 1467.03 1468.33 Q1467.03 1475.44 1468.83 1479.01 Q1470.66 1482.55 1474.27 1482.55 Q1477.91 1482.55 1479.71 1479.01 Q1481.54 1475.44 1481.54 1468.33 Q1481.54 1461.2 1479.71 1457.66 Q1477.91 1454.1 1474.27 1454.1 M1474.27 1450.39 Q1480.08 1450.39 1483.14 1455 Q1486.22 1459.58 1486.22 1468.33 Q1486.22 1477.06 1483.14 1481.67 Q1480.08 1486.25 1474.27 1486.25 Q1468.46 1486.25 1465.38 1481.67 Q1462.33 1477.06 1462.33 1468.33 Q1462.33 1459.58 1465.38 1455 Q1468.46 1450.39 1474.27 1450.39 Z" fill="#000000" fill-rule="nonzero" fill-opacity="1" /><path clip-path="url(#clip780)" d="M1494.43 1479.7 L1499.32 1479.7 L1499.32 1485.58 L1494.43 1485.58 L1494.43 1479.7 Z" fill="#000000" fill-rule="nonzero" fill-opacity="1" /><path clip-path="url(#clip780)" d="M1510.31 1481.64 L1517.95 1481.64 L1517.95 1455.28 L1509.64 1456.95 L1509.64 1452.69 L1517.91 1451.02 L1522.58 1451.02 L1522.58 1481.64 L1530.22 1481.64 L1530.22 1485.58 L1510.31 1485.58 L1510.31 1481.64 Z" fill="#000000" fill-rule="nonzero" fill-opacity="1" /><path clip-path="url(#clip780)" d="M1539.71 1451.02 L1558.07 1451.02 L1558.07 1454.96 L1543.99 1454.96 L1543.99 1463.43 Q1545.01 1463.08 1546.03 1462.92 Q1547.05 1462.73 1548.07 1462.73 Q1553.85 1462.73 1557.23 1465.9 Q1560.61 1469.08 1560.61 1474.49 Q1560.61 1480.07 1557.14 1483.17 Q1553.67 1486.25 1547.35 1486.25 Q1545.17 1486.25 1542.91 1485.88 Q1540.66 1485.51 1538.25 1484.77 L1538.25 1480.07 Q1540.34 1481.2 1542.56 1481.76 Q1544.78 1482.32 1547.26 1482.32 Q1551.26 1482.32 1553.6 1480.21 Q1555.94 1478.1 1555.94 1474.49 Q1555.94 1470.88 1553.6 1468.77 Q1551.26 1466.67 1547.26 1466.67 Q1545.38 1466.67 1543.51 1467.08 Q1541.66 1467.5 1539.71 1468.38 L1539.71 1451.02 Z" fill="#000000" fill-rule="nonzero" fill-opacity="1" /><path clip-path="url(#clip780)" d="M1894.42 1454.1 Q1890.81 1454.1 1888.98 1457.66 Q1887.17 1461.2 1887.17 1468.33 Q1887.17 1475.44 1888.98 1479.01 Q1890.81 1482.55 1894.42 1482.55 Q1898.05 1482.55 1899.86 1479.01 Q1901.69 1475.44 1901.69 1468.33 Q1901.69 1461.2 1899.86 1457.66 Q1898.05 1454.1 1894.42 1454.1 M1894.42 1450.39 Q1900.23 1450.39 1903.28 1455 Q1906.36 1459.58 1906.36 1468.33 Q1906.36 1477.06 1903.28 1481.67 Q1900.23 1486.25 1894.42 1486.25 Q1888.61 1486.25 1885.53 1481.67 Q1882.47 1477.06 1882.47 1468.33 Q1882.47 1459.58 1885.53 1455 Q1888.61 1450.39 1894.42 1450.39 Z" fill="#000000" fill-rule="nonzero" fill-opacity="1" /><path clip-path="url(#clip780)" d="M1914.58 1479.7 L1919.46 1479.7 L1919.46 1485.58 L1914.58 1485.58 L1914.58 1479.7 Z" fill="#000000" fill-rule="nonzero" fill-opacity="1" /><path clip-path="url(#clip780)" d="M1933.68 1481.64 L1949.99 1481.64 L1949.99 1485.58 L1928.05 1485.58 L1928.05 1481.64 Q1930.71 1478.89 1935.3 1474.26 Q1939.9 1469.61 1941.08 1468.27 Q1943.33 1465.74 1944.21 1464.01 Q1945.11 1462.25 1945.11 1460.56 Q1945.11 1457.8 1943.17 1456.07 Q1941.25 1454.33 1938.14 1454.33 Q1935.94 1454.33 1933.49 1455.09 Q1931.06 1455.86 1928.28 1457.41 L1928.28 1452.69 Q1931.11 1451.55 1933.56 1450.97 Q1936.01 1450.39 1938.05 1450.39 Q1943.42 1450.39 1946.62 1453.08 Q1949.81 1455.77 1949.81 1460.26 Q1949.81 1462.39 1949 1464.31 Q1948.21 1466.2 1946.11 1468.8 Q1945.53 1469.47 1942.43 1472.69 Q1939.32 1475.88 1933.68 1481.64 Z" fill="#000000" fill-rule="nonzero" fill-opacity="1" /><path clip-path="url(#clip780)" d="M1969.81 1454.1 Q1966.2 1454.1 1964.37 1457.66 Q1962.56 1461.2 1962.56 1468.33 Q1962.56 1475.44 1964.37 1479.01 Q1966.2 1482.55 1969.81 1482.55 Q1973.44 1482.55 1975.25 1479.01 Q1977.08 1475.44 1977.08 1468.33 Q1977.08 1461.2 1975.25 1457.66 Q1973.44 1454.1 1969.81 1454.1 M1969.81 1450.39 Q1975.62 1450.39 1978.68 1455 Q1981.75 1459.58 1981.75 1468.33 Q1981.75 1477.06 1978.68 1481.67 Q1975.62 1486.25 1969.81 1486.25 Q1964 1486.25 1960.92 1481.67 Q1957.87 1477.06 1957.87 1468.33 Q1957.87 1459.58 1960.92 1455 Q1964 1450.39 1969.81 1450.39 Z" fill="#000000" fill-rule="nonzero" fill-opacity="1" /><path clip-path="url(#clip780)" d="M1026.53 1522.08 L1026.53 1528.35 Q1022.87 1526.6 1019.63 1525.74 Q1016.38 1524.88 1013.36 1524.88 Q1008.1 1524.88 1005.24 1526.92 Q1002.41 1528.96 1002.41 1532.71 Q1002.41 1535.87 1004.28 1537.49 Q1006.19 1539.08 1011.48 1540.07 L1015.36 1540.86 Q1022.55 1542.23 1025.96 1545.7 Q1029.4 1549.14 1029.4 1554.93 Q1029.4 1561.84 1024.75 1565.4 Q1020.13 1568.97 1011.19 1568.97 Q1007.82 1568.97 1004 1568.2 Q1000.21 1567.44 996.136 1565.94 L996.136 1559.32 Q1000.05 1561.52 1003.81 1562.63 Q1007.56 1563.75 1011.19 1563.75 Q1016.7 1563.75 1019.69 1561.58 Q1022.68 1559.42 1022.68 1555.41 Q1022.68 1551.91 1020.52 1549.93 Q1018.38 1547.96 1013.48 1546.97 L1009.57 1546.21 Q1002.37 1544.78 999.16 1541.72 Q995.945 1538.67 995.945 1533.22 Q995.945 1526.92 1000.37 1523.29 Q1004.83 1519.66 1012.62 1519.66 Q1015.97 1519.66 1019.43 1520.27 Q1022.9 1520.87 1026.53 1522.08 Z" fill="#000000" fill-rule="nonzero" fill-opacity="1" /><path clip-path="url(#clip780)" d="M1044.96 1522.27 L1044.96 1532.4 L1057.02 1532.4 L1057.02 1536.95 L1044.96 1536.95 L1044.96 1556.3 Q1044.96 1560.66 1046.14 1561.9 Q1047.35 1563.14 1051.01 1563.14 L1057.02 1563.14 L1057.02 1568.04 L1051.01 1568.04 Q1044.23 1568.04 1041.65 1565.53 Q1039.07 1562.98 1039.07 1556.3 L1039.07 1536.95 L1034.78 1536.95 L1034.78 1532.4 L1039.07 1532.4 L1039.07 1522.27 L1044.96 1522.27 Z" fill="#000000" fill-rule="nonzero" fill-opacity="1" /><path clip-path="url(#clip780)" d="M1080.93 1550.12 Q1073.83 1550.12 1071.09 1551.75 Q1068.36 1553.37 1068.36 1557.29 Q1068.36 1560.4 1070.39 1562.25 Q1072.46 1564.07 1075.99 1564.07 Q1080.86 1564.07 1083.79 1560.63 Q1086.75 1557.16 1086.75 1551.43 L1086.75 1550.12 L1080.93 1550.12 M1092.61 1547.71 L1092.61 1568.04 L1086.75 1568.04 L1086.75 1562.63 Q1084.75 1565.88 1081.75 1567.44 Q1078.76 1568.97 1074.43 1568.97 Q1068.96 1568.97 1065.71 1565.91 Q1062.5 1562.82 1062.5 1557.67 Q1062.5 1551.65 1066.51 1548.6 Q1070.55 1545.54 1078.54 1545.54 L1086.75 1545.54 L1086.75 1544.97 Q1086.75 1540.93 1084.08 1538.73 Q1081.44 1536.5 1076.63 1536.5 Q1073.57 1536.5 1070.68 1537.23 Q1067.78 1537.97 1065.11 1539.43 L1065.11 1534.02 Q1068.32 1532.78 1071.35 1532.17 Q1074.37 1531.54 1077.24 1531.54 Q1084.97 1531.54 1088.79 1535.55 Q1092.61 1539.56 1092.61 1547.71 Z" fill="#000000" fill-rule="nonzero" fill-opacity="1" /><path clip-path="url(#clip780)" d="M1134.3 1546.53 L1134.3 1568.04 L1128.45 1568.04 L1128.45 1546.72 Q1128.45 1541.66 1126.47 1539.14 Q1124.5 1536.63 1120.55 1536.63 Q1115.81 1536.63 1113.07 1539.65 Q1110.34 1542.68 1110.34 1547.9 L1110.34 1568.04 L1104.45 1568.04 L1104.45 1532.4 L1110.34 1532.4 L1110.34 1537.93 Q1112.44 1534.72 1115.27 1533.13 Q1118.13 1531.54 1121.86 1531.54 Q1128 1531.54 1131.15 1535.36 Q1134.3 1539.14 1134.3 1546.53 Z" fill="#000000" fill-rule="nonzero" fill-opacity="1" /><path clip-path="url(#clip780)" d="M1169.44 1537.81 L1169.44 1518.52 L1175.3 1518.52 L1175.3 1568.04 L1169.44 1568.04 L1169.44 1562.7 Q1167.6 1565.88 1164.76 1567.44 Q1161.96 1568.97 1158.02 1568.97 Q1151.55 1568.97 1147.48 1563.81 Q1143.44 1558.65 1143.44 1550.25 Q1143.44 1541.85 1147.48 1536.69 Q1151.55 1531.54 1158.02 1531.54 Q1161.96 1531.54 1164.76 1533.1 Q1167.6 1534.62 1169.44 1537.81 M1149.49 1550.25 Q1149.49 1556.71 1152.13 1560.4 Q1154.8 1564.07 1159.45 1564.07 Q1164.1 1564.07 1166.77 1560.4 Q1169.44 1556.71 1169.44 1550.25 Q1169.44 1543.79 1166.77 1540.13 Q1164.1 1536.44 1159.45 1536.44 Q1154.8 1536.44 1152.13 1540.13 Q1149.49 1543.79 1149.49 1550.25 Z" fill="#000000" fill-rule="nonzero" fill-opacity="1" /><path clip-path="url(#clip780)" d="M1203.56 1550.12 Q1196.46 1550.12 1193.73 1551.75 Q1190.99 1553.37 1190.99 1557.29 Q1190.99 1560.4 1193.03 1562.25 Q1195.1 1564.07 1198.63 1564.07 Q1203.5 1564.07 1206.43 1560.63 Q1209.39 1557.16 1209.39 1551.43 L1209.39 1550.12 L1203.56 1550.12 M1215.24 1547.71 L1215.24 1568.04 L1209.39 1568.04 L1209.39 1562.63 Q1207.38 1565.88 1204.39 1567.44 Q1201.4 1568.97 1197.07 1568.97 Q1191.6 1568.97 1188.35 1565.91 Q1185.13 1562.82 1185.13 1557.67 Q1185.13 1551.65 1189.14 1548.6 Q1193.19 1545.54 1201.18 1545.54 L1209.39 1545.54 L1209.39 1544.97 Q1209.39 1540.93 1206.71 1538.73 Q1204.07 1536.5 1199.27 1536.5 Q1196.21 1536.5 1193.31 1537.23 Q1190.42 1537.97 1187.74 1539.43 L1187.74 1534.02 Q1190.96 1532.78 1193.98 1532.17 Q1197.01 1531.54 1199.87 1531.54 Q1207.6 1531.54 1211.42 1535.55 Q1215.24 1539.56 1215.24 1547.71 Z" fill="#000000" fill-rule="nonzero" fill-opacity="1" /><path clip-path="url(#clip780)" d="M1247.96 1537.87 Q1246.98 1537.3 1245.8 1537.04 Q1244.65 1536.76 1243.25 1536.76 Q1238.29 1536.76 1235.61 1540 Q1232.97 1543.22 1232.97 1549.27 L1232.97 1568.04 L1227.08 1568.04 L1227.08 1532.4 L1232.97 1532.4 L1232.97 1537.93 Q1234.82 1534.69 1237.78 1533.13 Q1240.74 1531.54 1244.97 1531.54 Q1245.58 1531.54 1246.31 1531.63 Q1247.04 1531.7 1247.93 1531.85 L1247.96 1537.87 Z" fill="#000000" fill-rule="nonzero" fill-opacity="1" /><path clip-path="url(#clip780)" d="M1276.42 1537.81 L1276.42 1518.52 L1282.27 1518.52 L1282.27 1568.04 L1276.42 1568.04 L1276.42 1562.7 Q1274.57 1565.88 1271.74 1567.44 Q1268.94 1568.97 1264.99 1568.97 Q1258.53 1568.97 1254.46 1563.81 Q1250.41 1558.65 1250.41 1550.25 Q1250.41 1541.85 1254.46 1536.69 Q1258.53 1531.54 1264.99 1531.54 Q1268.94 1531.54 1271.74 1533.1 Q1274.57 1534.62 1276.42 1537.81 M1256.46 1550.25 Q1256.46 1556.71 1259.1 1560.4 Q1261.78 1564.07 1266.42 1564.07 Q1271.07 1564.07 1273.74 1560.4 Q1276.42 1556.71 1276.42 1550.25 Q1276.42 1543.79 1273.74 1540.13 Q1271.07 1536.44 1266.42 1536.44 Q1261.78 1536.44 1259.1 1540.13 Q1256.46 1543.79 1256.46 1550.25 Z" fill="#000000" fill-rule="nonzero" fill-opacity="1" /><path clip-path="url(#clip780)" d="M1338.52 1537.81 L1338.52 1518.52 L1344.37 1518.52 L1344.37 1568.04 L1338.52 1568.04 L1338.52 1562.7 Q1336.67 1565.88 1333.84 1567.44 Q1331.04 1568.97 1327.09 1568.97 Q1320.63 1568.97 1316.55 1563.81 Q1312.51 1558.65 1312.51 1550.25 Q1312.51 1541.85 1316.55 1536.69 Q1320.63 1531.54 1327.09 1531.54 Q1331.04 1531.54 1333.84 1533.1 Q1336.67 1534.62 1338.52 1537.81 M1318.56 1550.25 Q1318.56 1556.71 1321.2 1560.4 Q1323.87 1564.07 1328.52 1564.07 Q1333.17 1564.07 1335.84 1560.4 Q1338.52 1556.71 1338.52 1550.25 Q1338.52 1543.79 1335.84 1540.13 Q1333.17 1536.44 1328.52 1536.44 Q1323.87 1536.44 1321.2 1540.13 Q1318.56 1543.79 1318.56 1550.25 Z" fill="#000000" fill-rule="nonzero" fill-opacity="1" /><path clip-path="url(#clip780)" d="M1386.93 1548.76 L1386.93 1551.62 L1360 1551.62 Q1360.38 1557.67 1363.63 1560.85 Q1366.91 1564 1372.73 1564 Q1376.11 1564 1379.26 1563.17 Q1382.44 1562.35 1385.56 1560.69 L1385.56 1566.23 Q1382.41 1567.57 1379.1 1568.27 Q1375.79 1568.97 1372.38 1568.97 Q1363.85 1568.97 1358.85 1564 Q1353.89 1559.04 1353.89 1550.57 Q1353.89 1541.82 1358.6 1536.69 Q1363.34 1531.54 1371.36 1531.54 Q1378.56 1531.54 1382.73 1536.18 Q1386.93 1540.8 1386.93 1548.76 M1381.07 1547.04 Q1381.01 1542.23 1378.36 1539.37 Q1375.76 1536.5 1371.43 1536.5 Q1366.52 1536.5 1363.56 1539.27 Q1360.64 1542.04 1360.19 1547.07 L1381.07 1547.04 Z" fill="#000000" fill-rule="nonzero" fill-opacity="1" /><path clip-path="url(#clip780)" d="M1392.34 1532.4 L1398.54 1532.4 L1409.68 1562.31 L1420.82 1532.4 L1427.03 1532.4 L1413.66 1568.04 L1405.71 1568.04 L1392.34 1532.4 Z" fill="#000000" fill-rule="nonzero" fill-opacity="1" /><path clip-path="url(#clip780)" d="M1435.12 1532.4 L1440.97 1532.4 L1440.97 1568.04 L1435.12 1568.04 L1435.12 1532.4 M1435.12 1518.52 L1440.97 1518.52 L1440.97 1525.93 L1435.12 1525.93 L1435.12 1518.52 Z" fill="#000000" fill-rule="nonzero" fill-opacity="1" /><path clip-path="url(#clip780)" d="M1469.43 1550.12 Q1462.33 1550.12 1459.59 1551.75 Q1456.85 1553.37 1456.85 1557.29 Q1456.85 1560.4 1458.89 1562.25 Q1460.96 1564.07 1464.49 1564.07 Q1469.36 1564.07 1472.29 1560.63 Q1475.25 1557.16 1475.25 1551.43 L1475.25 1550.12 L1469.43 1550.12 M1481.11 1547.71 L1481.11 1568.04 L1475.25 1568.04 L1475.25 1562.63 Q1473.25 1565.88 1470.25 1567.44 Q1467.26 1568.97 1462.93 1568.97 Q1457.46 1568.97 1454.21 1565.91 Q1451 1562.82 1451 1557.67 Q1451 1551.65 1455.01 1548.6 Q1459.05 1545.54 1467.04 1545.54 L1475.25 1545.54 L1475.25 1544.97 Q1475.25 1540.93 1472.58 1538.73 Q1469.94 1536.5 1465.13 1536.5 Q1462.07 1536.5 1459.18 1537.23 Q1456.28 1537.97 1453.61 1539.43 L1453.61 1534.02 Q1456.82 1532.78 1459.85 1532.17 Q1462.87 1531.54 1465.73 1531.54 Q1473.47 1531.54 1477.29 1535.55 Q1481.11 1539.56 1481.11 1547.71 Z" fill="#000000" fill-rule="nonzero" fill-opacity="1" /><path clip-path="url(#clip780)" d="M1498.96 1522.27 L1498.96 1532.4 L1511.03 1532.4 L1511.03 1536.95 L1498.96 1536.95 L1498.96 1556.3 Q1498.96 1560.66 1500.14 1561.9 Q1501.35 1563.14 1505.01 1563.14 L1511.03 1563.14 L1511.03 1568.04 L1505.01 1568.04 Q1498.23 1568.04 1495.65 1565.53 Q1493.08 1562.98 1493.08 1556.3 L1493.08 1536.95 L1488.78 1536.95 L1488.78 1532.4 L1493.08 1532.4 L1493.08 1522.27 L1498.96 1522.27 Z" fill="#000000" fill-rule="nonzero" fill-opacity="1" /><path clip-path="url(#clip780)" d="M1518.73 1532.4 L1524.59 1532.4 L1524.59 1568.04 L1518.73 1568.04 L1518.73 1532.4 M1518.73 1518.52 L1524.59 1518.52 L1524.59 1525.93 L1518.73 1525.93 L1518.73 1518.52 Z" fill="#000000" fill-rule="nonzero" fill-opacity="1" /><path clip-path="url(#clip780)" d="M1550.65 1536.5 Q1545.94 1536.5 1543.2 1540.19 Q1540.47 1543.85 1540.47 1550.25 Q1540.47 1556.65 1543.17 1560.34 Q1545.91 1564 1550.65 1564 Q1555.33 1564 1558.07 1560.31 Q1560.81 1556.62 1560.81 1550.25 Q1560.81 1543.92 1558.07 1540.23 Q1555.33 1536.5 1550.65 1536.5 M1550.65 1531.54 Q1558.29 1531.54 1562.65 1536.5 Q1567.01 1541.47 1567.01 1550.25 Q1567.01 1559 1562.65 1564 Q1558.29 1568.97 1550.65 1568.97 Q1542.98 1568.97 1538.62 1564 Q1534.29 1559 1534.29 1550.25 Q1534.29 1541.47 1538.62 1536.5 Q1542.98 1531.54 1550.65 1531.54 Z" fill="#000000" fill-rule="nonzero" fill-opacity="1" /><path clip-path="url(#clip780)" d="M1606.35 1546.53 L1606.35 1568.04 L1600.5 1568.04 L1600.5 1546.72 Q1600.5 1541.66 1598.52 1539.14 Q1596.55 1536.63 1592.6 1536.63 Q1587.86 1536.63 1585.12 1539.65 Q1582.39 1542.68 1582.39 1547.9 L1582.39 1568.04 L1576.5 1568.04 L1576.5 1532.4 L1582.39 1532.4 L1582.39 1537.93 Q1584.49 1534.72 1587.32 1533.13 Q1590.18 1531.54 1593.91 1531.54 Q1600.05 1531.54 1603.2 1535.36 Q1606.35 1539.14 1606.35 1546.53 Z" fill="#000000" fill-rule="nonzero" fill-opacity="1" /><polyline clip-path="url(#clip782)" style="stroke:#000000; stroke-linecap:round; stroke-linejoin:round; stroke-width:2; stroke-opacity:0.1; fill:none" points="249.542,1423.18 2352.76,1423.18 "/>
<polyline clip-path="url(#clip782)" style="stroke:#000000; stroke-linecap:round; stroke-linejoin:round; stroke-width:2; stroke-opacity:0.1; fill:none" points="249.542,989.944 2352.76,989.944 "/>
<polyline clip-path="url(#clip782)" style="stroke:#000000; stroke-linecap:round; stroke-linejoin:round; stroke-width:2; stroke-opacity:0.1; fill:none" points="249.542,556.708 2352.76,556.708 "/>
<polyline clip-path="url(#clip782)" style="stroke:#000000; stroke-linecap:round; stroke-linejoin:round; stroke-width:2; stroke-opacity:0.1; fill:none" points="249.542,123.472 2352.76,123.472 "/>
<polyline clip-path="url(#clip780)" style="stroke:#000000; stroke-linecap:round; stroke-linejoin:round; stroke-width:4; stroke-opacity:1; fill:none" points="249.542,1423.18 249.542,123.472 "/>
<polyline clip-path="url(#clip780)" style="stroke:#000000; stroke-linecap:round; stroke-linejoin:round; stroke-width:4; stroke-opacity:1; fill:none" points="249.542,1423.18 268.44,1423.18 "/>
<polyline clip-path="url(#clip780)" style="stroke:#000000; stroke-linecap:round; stroke-linejoin:round; stroke-width:4; stroke-opacity:1; fill:none" points="249.542,989.944 268.44,989.944 "/>
<polyline clip-path="url(#clip780)" style="stroke:#000000; stroke-linecap:round; stroke-linejoin:round; stroke-width:4; stroke-opacity:1; fill:none" points="249.542,556.708 268.44,556.708 "/>
<polyline clip-path="url(#clip780)" style="stroke:#000000; stroke-linecap:round; stroke-linejoin:round; stroke-width:4; stroke-opacity:1; fill:none" points="249.542,123.472 268.44,123.472 "/>
<path clip-path="url(#clip780)" d="M126.205 1408.98 Q122.593 1408.98 120.765 1412.54 Q118.959 1416.08 118.959 1423.21 Q118.959 1430.32 120.765 1433.89 Q122.593 1437.43 126.205 1437.43 Q129.839 1437.43 131.644 1433.89 Q133.473 1430.32 133.473 1423.21 Q133.473 1416.08 131.644 1412.54 Q129.839 1408.98 126.205 1408.98 M126.205 1405.27 Q132.015 1405.27 135.07 1409.88 Q138.149 1414.46 138.149 1423.21 Q138.149 1431.94 135.07 1436.55 Q132.015 1441.13 126.205 1441.13 Q120.394 1441.13 117.316 1436.55 Q114.26 1431.94 114.26 1423.21 Q114.26 1414.46 117.316 1409.88 Q120.394 1405.27 126.205 1405.27 Z" fill="#000000" fill-rule="nonzero" fill-opacity="1" /><path clip-path="url(#clip780)" d="M146.366 1434.58 L151.251 1434.58 L151.251 1440.46 L146.366 1440.46 L146.366 1434.58 Z" fill="#000000" fill-rule="nonzero" fill-opacity="1" /><path clip-path="url(#clip780)" d="M171.436 1408.98 Q167.825 1408.98 165.996 1412.54 Q164.19 1416.08 164.19 1423.21 Q164.19 1430.32 165.996 1433.89 Q167.825 1437.43 171.436 1437.43 Q175.07 1437.43 176.876 1433.89 Q178.704 1430.32 178.704 1423.21 Q178.704 1416.08 176.876 1412.54 Q175.07 1408.98 171.436 1408.98 M171.436 1405.27 Q177.246 1405.27 180.301 1409.88 Q183.38 1414.46 183.38 1423.21 Q183.38 1431.94 180.301 1436.55 Q177.246 1441.13 171.436 1441.13 Q165.626 1441.13 162.547 1436.55 Q159.491 1431.94 159.491 1423.21 Q159.491 1414.46 162.547 1409.88 Q165.626 1405.27 171.436 1405.27 Z" fill="#000000" fill-rule="nonzero" fill-opacity="1" /><path clip-path="url(#clip780)" d="M201.598 1408.98 Q197.987 1408.98 196.158 1412.54 Q194.352 1416.08 194.352 1423.21 Q194.352 1430.32 196.158 1433.89 Q197.987 1437.43 201.598 1437.43 Q205.232 1437.43 207.037 1433.89 Q208.866 1430.32 208.866 1423.21 Q208.866 1416.08 207.037 1412.54 Q205.232 1408.98 201.598 1408.98 M201.598 1405.27 Q207.408 1405.27 210.463 1409.88 Q213.542 1414.46 213.542 1423.21 Q213.542 1431.94 210.463 1436.55 Q207.408 1441.13 201.598 1441.13 Q195.787 1441.13 192.709 1436.55 Q189.653 1431.94 189.653 1423.21 Q189.653 1414.46 192.709 1409.88 Q195.787 1405.27 201.598 1405.27 Z" fill="#000000" fill-rule="nonzero" fill-opacity="1" /><path clip-path="url(#clip780)" d="M127.2 975.743 Q123.589 975.743 121.76 979.307 Q119.955 982.849 119.955 989.979 Q119.955 997.085 121.76 1000.65 Q123.589 1004.19 127.2 1004.19 Q130.834 1004.19 132.64 1000.65 Q134.468 997.085 134.468 989.979 Q134.468 982.849 132.64 979.307 Q130.834 975.743 127.2 975.743 M127.2 972.039 Q133.01 972.039 136.066 976.645 Q139.144 981.229 139.144 989.979 Q139.144 998.705 136.066 1003.31 Q133.01 1007.9 127.2 1007.9 Q121.39 1007.9 118.311 1003.31 Q115.256 998.705 115.256 989.979 Q115.256 981.229 118.311 976.645 Q121.39 972.039 127.2 972.039 Z" fill="#000000" fill-rule="nonzero" fill-opacity="1" /><path clip-path="url(#clip780)" d="M147.362 1001.34 L152.246 1001.34 L152.246 1007.22 L147.362 1007.22 L147.362 1001.34 Z" fill="#000000" fill-rule="nonzero" fill-opacity="1" /><path clip-path="url(#clip780)" d="M172.431 975.743 Q168.82 975.743 166.991 979.307 Q165.186 982.849 165.186 989.979 Q165.186 997.085 166.991 1000.65 Q168.82 1004.19 172.431 1004.19 Q176.065 1004.19 177.871 1000.65 Q179.7 997.085 179.7 989.979 Q179.7 982.849 177.871 979.307 Q176.065 975.743 172.431 975.743 M172.431 972.039 Q178.241 972.039 181.297 976.645 Q184.376 981.229 184.376 989.979 Q184.376 998.705 181.297 1003.31 Q178.241 1007.9 172.431 1007.9 Q166.621 1007.9 163.542 1003.31 Q160.487 998.705 160.487 989.979 Q160.487 981.229 163.542 976.645 Q166.621 972.039 172.431 972.039 Z" fill="#000000" fill-rule="nonzero" fill-opacity="1" /><path clip-path="url(#clip780)" d="M192.639 972.664 L210.996 972.664 L210.996 976.599 L196.922 976.599 L196.922 985.071 Q197.94 984.724 198.959 984.562 Q199.977 984.377 200.996 984.377 Q206.783 984.377 210.162 987.548 Q213.542 990.719 213.542 996.136 Q213.542 1001.71 210.07 1004.82 Q206.598 1007.9 200.278 1007.9 Q198.102 1007.9 195.834 1007.52 Q193.588 1007.15 191.181 1006.41 L191.181 1001.71 Q193.264 1002.85 195.487 1003.4 Q197.709 1003.96 200.186 1003.96 Q204.19 1003.96 206.528 1001.85 Q208.866 999.747 208.866 996.136 Q208.866 992.525 206.528 990.418 Q204.19 988.312 200.186 988.312 Q198.311 988.312 196.436 988.729 Q194.584 989.145 192.639 990.025 L192.639 972.664 Z" fill="#000000" fill-rule="nonzero" fill-opacity="1" /><path clip-path="url(#clip780)" d="M126.205 542.507 Q122.593 542.507 120.765 546.072 Q118.959 549.613 118.959 556.743 Q118.959 563.849 120.765 567.414 Q122.593 570.956 126.205 570.956 Q129.839 570.956 131.644 567.414 Q133.473 563.849 133.473 556.743 Q133.473 549.613 131.644 546.072 Q129.839 542.507 126.205 542.507 M126.205 538.803 Q132.015 538.803 135.07 543.409 Q138.149 547.993 138.149 556.743 Q138.149 565.47 135.07 570.076 Q132.015 574.659 126.205 574.659 Q120.394 574.659 117.316 570.076 Q114.26 565.47 114.26 556.743 Q114.26 547.993 117.316 543.409 Q120.394 538.803 126.205 538.803 Z" fill="#000000" fill-rule="nonzero" fill-opacity="1" /><path clip-path="url(#clip780)" d="M146.366 568.108 L151.251 568.108 L151.251 573.988 L146.366 573.988 L146.366 568.108 Z" fill="#000000" fill-rule="nonzero" fill-opacity="1" /><path clip-path="url(#clip780)" d="M162.246 570.053 L169.885 570.053 L169.885 543.687 L161.575 545.354 L161.575 541.095 L169.839 539.428 L174.514 539.428 L174.514 570.053 L182.153 570.053 L182.153 573.988 L162.246 573.988 L162.246 570.053 Z" fill="#000000" fill-rule="nonzero" fill-opacity="1" /><path clip-path="url(#clip780)" d="M201.598 542.507 Q197.987 542.507 196.158 546.072 Q194.352 549.613 194.352 556.743 Q194.352 563.849 196.158 567.414 Q197.987 570.956 201.598 570.956 Q205.232 570.956 207.037 567.414 Q208.866 563.849 208.866 556.743 Q208.866 549.613 207.037 546.072 Q205.232 542.507 201.598 542.507 M201.598 538.803 Q207.408 538.803 210.463 543.409 Q213.542 547.993 213.542 556.743 Q213.542 565.47 210.463 570.076 Q207.408 574.659 201.598 574.659 Q195.787 574.659 192.709 570.076 Q189.653 565.47 189.653 556.743 Q189.653 547.993 192.709 543.409 Q195.787 538.803 201.598 538.803 Z" fill="#000000" fill-rule="nonzero" fill-opacity="1" /><path clip-path="url(#clip780)" d="M127.2 109.271 Q123.589 109.271 121.76 112.836 Q119.955 116.377 119.955 123.507 Q119.955 130.613 121.76 134.178 Q123.589 137.72 127.2 137.72 Q130.834 137.72 132.64 134.178 Q134.468 130.613 134.468 123.507 Q134.468 116.377 132.64 112.836 Q130.834 109.271 127.2 109.271 M127.2 105.567 Q133.01 105.567 136.066 110.174 Q139.144 114.757 139.144 123.507 Q139.144 132.234 136.066 136.84 Q133.01 141.423 127.2 141.423 Q121.39 141.423 118.311 136.84 Q115.256 132.234 115.256 123.507 Q115.256 114.757 118.311 110.174 Q121.39 105.567 127.2 105.567 Z" fill="#000000" fill-rule="nonzero" fill-opacity="1" /><path clip-path="url(#clip780)" d="M147.362 134.873 L152.246 134.873 L152.246 140.752 L147.362 140.752 L147.362 134.873 Z" fill="#000000" fill-rule="nonzero" fill-opacity="1" /><path clip-path="url(#clip780)" d="M163.241 136.817 L170.88 136.817 L170.88 110.451 L162.57 112.118 L162.57 107.859 L170.834 106.192 L175.51 106.192 L175.51 136.817 L183.149 136.817 L183.149 140.752 L163.241 140.752 L163.241 136.817 Z" fill="#000000" fill-rule="nonzero" fill-opacity="1" /><path clip-path="url(#clip780)" d="M192.639 106.192 L210.996 106.192 L210.996 110.127 L196.922 110.127 L196.922 118.599 Q197.94 118.252 198.959 118.09 Q199.977 117.905 200.996 117.905 Q206.783 117.905 210.162 121.076 Q213.542 124.248 213.542 129.664 Q213.542 135.243 210.07 138.345 Q206.598 141.423 200.278 141.423 Q198.102 141.423 195.834 141.053 Q193.588 140.683 191.181 139.942 L191.181 135.243 Q193.264 136.377 195.487 136.933 Q197.709 137.488 200.186 137.488 Q204.19 137.488 206.528 135.382 Q208.866 133.275 208.866 129.664 Q208.866 126.053 206.528 123.947 Q204.19 121.84 200.186 121.84 Q198.311 121.84 196.436 122.257 Q194.584 122.674 192.639 123.553 L192.639 106.192 Z" fill="#000000" fill-rule="nonzero" fill-opacity="1" /><path clip-path="url(#clip780)" d="M16.4842 1029.43 L16.4842 999.388 L21.895 999.388 L21.895 1023 L35.9632 1023 L35.9632 1000.37 L41.3741 1000.37 L41.3741 1023 L58.5933 1023 L58.5933 998.815 L64.0042 998.815 L64.0042 1029.43 L16.4842 1029.43 Z" fill="#000000" fill-rule="nonzero" fill-opacity="1" /><path clip-path="url(#clip780)" d="M28.3562 958.87 L45.7028 971.761 L64.0042 958.202 L64.0042 965.109 L49.9996 975.485 L64.0042 985.861 L64.0042 992.768 L45.3526 978.922 L28.3562 991.59 L28.3562 984.683 L41.0558 975.23 L28.3562 965.777 L28.3562 958.87 Z" fill="#000000" fill-rule="nonzero" fill-opacity="1" /><path clip-path="url(#clip780)" d="M58.657 944.261 L77.5631 944.261 L77.5631 950.149 L28.3562 950.149 L28.3562 944.261 L33.7671 944.261 Q30.5842 942.415 29.0564 939.614 Q27.4968 936.781 27.4968 932.867 Q27.4968 926.373 32.6531 922.331 Q37.8093 918.257 46.212 918.257 Q54.6147 918.257 59.771 922.331 Q64.9272 926.373 64.9272 932.867 Q64.9272 936.781 63.3994 939.614 Q61.8398 942.415 58.657 944.261 M46.212 924.336 Q39.7508 924.336 36.0905 927.01 Q32.3984 929.652 32.3984 934.299 Q32.3984 938.946 36.0905 941.619 Q39.7508 944.261 46.212 944.261 Q52.6732 944.261 56.3653 941.619 Q60.0256 938.946 60.0256 934.299 Q60.0256 929.652 56.3653 927.01 Q52.6732 924.336 46.212 924.336 Z" fill="#000000" fill-rule="nonzero" fill-opacity="1" /><path clip-path="url(#clip780)" d="M44.7161 878.058 L47.5806 878.058 L47.5806 904.985 Q53.6281 904.603 56.8109 901.356 Q59.9619 898.078 59.9619 892.253 Q59.9619 888.879 59.1344 885.728 Q58.3069 882.546 56.6518 879.426 L62.1899 879.426 Q63.5267 882.577 64.227 885.888 Q64.9272 889.198 64.9272 892.603 Q64.9272 901.133 59.9619 906.131 Q54.9967 911.096 46.5303 911.096 Q37.7774 911.096 32.6531 906.385 Q27.4968 901.643 27.4968 893.622 Q27.4968 886.429 32.1438 882.259 Q36.7589 878.058 44.7161 878.058 M42.9973 883.914 Q38.1912 883.978 35.3266 886.62 Q32.4621 889.23 32.4621 893.558 Q32.4621 898.46 35.2312 901.42 Q38.0002 904.348 43.0292 904.794 L42.9973 883.914 Z" fill="#000000" fill-rule="nonzero" fill-opacity="1" /><path clip-path="url(#clip780)" d="M29.7248 842.792 L35.1993 842.792 Q33.8307 845.274 33.1623 847.789 Q32.4621 850.271 32.4621 852.818 Q32.4621 858.515 36.0905 861.666 Q39.6872 864.817 46.212 864.817 Q52.7369 864.817 56.3653 861.666 Q59.9619 858.515 59.9619 852.818 Q59.9619 850.271 59.2935 847.789 Q58.5933 845.274 57.2247 842.792 L62.6355 842.792 Q63.7814 845.243 64.3543 847.884 Q64.9272 850.494 64.9272 853.454 Q64.9272 861.507 59.8664 866.249 Q54.8057 870.992 46.212 870.992 Q37.491 870.992 32.4939 866.218 Q27.4968 861.411 27.4968 853.072 Q27.4968 850.367 28.0697 847.789 Q28.6108 845.211 29.7248 842.792 Z" fill="#000000" fill-rule="nonzero" fill-opacity="1" /><path clip-path="url(#clip780)" d="M18.2347 826.814 L28.3562 826.814 L28.3562 814.751 L32.9077 814.751 L32.9077 826.814 L52.2594 826.814 Q56.6199 826.814 57.8613 825.636 Q59.1026 824.427 59.1026 820.766 L59.1026 814.751 L64.0042 814.751 L64.0042 820.766 Q64.0042 827.546 61.4897 830.124 Q58.9434 832.702 52.2594 832.702 L32.9077 832.702 L32.9077 836.999 L28.3562 836.999 L28.3562 832.702 L18.2347 832.702 L18.2347 826.814 Z" fill="#000000" fill-rule="nonzero" fill-opacity="1" /><path clip-path="url(#clip780)" d="M44.7161 776.557 L47.5806 776.557 L47.5806 803.484 Q53.6281 803.102 56.8109 799.855 Q59.9619 796.577 59.9619 790.752 Q59.9619 787.378 59.1344 784.227 Q58.3069 781.044 56.6518 777.925 L62.1899 777.925 Q63.5267 781.076 64.227 784.386 Q64.9272 787.697 64.9272 791.102 Q64.9272 799.632 59.9619 804.629 Q54.9967 809.595 46.5303 809.595 Q37.7774 809.595 32.6531 804.884 Q27.4968 800.142 27.4968 792.121 Q27.4968 784.927 32.1438 780.758 Q36.7589 776.557 44.7161 776.557 M42.9973 782.413 Q38.1912 782.477 35.3266 785.118 Q32.4621 787.728 32.4621 792.057 Q32.4621 796.959 35.2312 799.919 Q38.0002 802.847 43.0292 803.293 L42.9973 782.413 Z" fill="#000000" fill-rule="nonzero" fill-opacity="1" /><path clip-path="url(#clip780)" d="M33.7671 743.487 L14.479 743.487 L14.479 737.63 L64.0042 737.63 L64.0042 743.487 L58.657 743.487 Q61.8398 745.333 63.3994 748.166 Q64.9272 750.966 64.9272 754.913 Q64.9272 761.374 59.771 765.448 Q54.6147 769.491 46.212 769.491 Q37.8093 769.491 32.6531 765.448 Q27.4968 761.374 27.4968 754.913 Q27.4968 750.966 29.0564 748.166 Q30.5842 745.333 33.7671 743.487 M46.212 763.443 Q52.6732 763.443 56.3653 760.801 Q60.0256 758.128 60.0256 753.481 Q60.0256 748.834 56.3653 746.16 Q52.6732 743.487 46.212 743.487 Q39.7508 743.487 36.0905 746.16 Q32.3984 748.834 32.3984 753.481 Q32.3984 758.128 36.0905 760.801 Q39.7508 763.443 46.212 763.443 Z" fill="#000000" fill-rule="nonzero" fill-opacity="1" /><path clip-path="url(#clip780)" d="M33.8307 684.19 Q33.2578 685.177 33.0032 686.355 Q32.7167 687.5 32.7167 688.901 Q32.7167 693.866 35.9632 696.54 Q39.1779 699.181 45.2253 699.181 L64.0042 699.181 L64.0042 705.07 L28.3562 705.07 L28.3562 699.181 L33.8944 699.181 Q30.6479 697.335 29.0883 694.375 Q27.4968 691.415 27.4968 687.182 Q27.4968 686.577 27.5923 685.845 Q27.656 685.113 27.8151 684.222 L33.8307 684.19 Z" fill="#000000" fill-rule="nonzero" fill-opacity="1" /><path clip-path="url(#clip780)" d="M44.7161 648.988 L47.5806 648.988 L47.5806 675.915 Q53.6281 675.533 56.8109 672.286 Q59.9619 669.008 59.9619 663.183 Q59.9619 659.81 59.1344 656.658 Q58.3069 653.476 56.6518 650.356 L62.1899 650.356 Q63.5267 653.507 64.227 656.818 Q64.9272 660.128 64.9272 663.533 Q64.9272 672.064 59.9619 677.061 Q54.9967 682.026 46.5303 682.026 Q37.7774 682.026 32.6531 677.315 Q27.4968 672.573 27.4968 664.552 Q27.4968 657.359 32.1438 653.189 Q36.7589 648.988 44.7161 648.988 M42.9973 654.844 Q38.1912 654.908 35.3266 657.55 Q32.4621 660.16 32.4621 664.488 Q32.4621 669.39 35.2312 672.35 Q38.0002 675.278 43.0292 675.724 L42.9973 654.844 Z" fill="#000000" fill-rule="nonzero" fill-opacity="1" /><path clip-path="url(#clip780)" d="M18.2347 633.583 L28.3562 633.583 L28.3562 621.52 L32.9077 621.52 L32.9077 633.583 L52.2594 633.583 Q56.6199 633.583 57.8613 632.405 Q59.1026 631.196 59.1026 627.535 L59.1026 621.52 L64.0042 621.52 L64.0042 627.535 Q64.0042 634.315 61.4897 636.893 Q58.9434 639.471 52.2594 639.471 L32.9077 639.471 L32.9077 643.768 L28.3562 643.768 L28.3562 639.471 L18.2347 639.471 L18.2347 633.583 Z" fill="#000000" fill-rule="nonzero" fill-opacity="1" /><path clip-path="url(#clip780)" d="M49.9359 614.422 L28.3562 614.422 L28.3562 608.566 L49.7131 608.566 Q54.7739 608.566 57.3202 606.592 Q59.8346 604.619 59.8346 600.672 Q59.8346 595.93 56.8109 593.192 Q53.7872 590.423 48.5673 590.423 L28.3562 590.423 L28.3562 584.567 L64.0042 584.567 L64.0042 590.423 L58.5296 590.423 Q61.7762 592.556 63.3676 595.389 Q64.9272 598.189 64.9272 601.913 Q64.9272 608.056 61.1078 611.239 Q57.2883 614.422 49.9359 614.422 M27.4968 599.685 L27.4968 599.685 Z" fill="#000000" fill-rule="nonzero" fill-opacity="1" /><path clip-path="url(#clip780)" d="M33.8307 551.847 Q33.2578 552.834 33.0032 554.011 Q32.7167 555.157 32.7167 556.558 Q32.7167 561.523 35.9632 564.197 Q39.1779 566.838 45.2253 566.838 L64.0042 566.838 L64.0042 572.727 L28.3562 572.727 L28.3562 566.838 L33.8944 566.838 Q30.6479 564.992 29.0883 562.032 Q27.4968 559.072 27.4968 554.839 Q27.4968 554.234 27.5923 553.502 Q27.656 552.77 27.8151 551.879 L33.8307 551.847 Z" fill="#000000" fill-rule="nonzero" fill-opacity="1" /><path clip-path="url(#clip780)" d="M42.4881 517.218 L64.0042 517.218 L64.0042 523.074 L42.679 523.074 Q37.6183 523.074 35.1038 525.048 Q32.5894 527.021 32.5894 530.968 Q32.5894 535.71 35.6131 538.447 Q38.6368 541.185 43.8567 541.185 L64.0042 541.185 L64.0042 547.073 L28.3562 547.073 L28.3562 541.185 L33.8944 541.185 Q30.6797 539.084 29.0883 536.251 Q27.4968 533.387 27.4968 529.663 Q27.4968 523.52 31.3163 520.369 Q35.1038 517.218 42.4881 517.218 Z" fill="#000000" fill-rule="nonzero" fill-opacity="1" /><path clip-path="url(#clip780)" d="M740.808 12.096 L753.001 12.096 L768.435 53.2532 L783.95 12.096 L796.143 12.096 L796.143 72.576 L788.163 72.576 L788.163 19.4686 L772.567 60.9499 L764.343 60.9499 L748.747 19.4686 L748.747 72.576 L740.808 72.576 L740.808 12.096 Z" fill="#000000" fill-rule="nonzero" fill-opacity="1" /><path clip-path="url(#clip780)" d="M832.682 49.7694 Q823.649 49.7694 820.165 51.8354 Q816.681 53.9013 816.681 58.8839 Q816.681 62.8538 819.274 65.2034 Q821.907 67.5124 826.403 67.5124 Q832.601 67.5124 836.328 63.1374 Q840.095 58.7219 840.095 51.4303 L840.095 49.7694 L832.682 49.7694 M847.549 46.6907 L847.549 72.576 L840.095 72.576 L840.095 65.6895 Q837.543 69.8214 833.735 71.8063 Q829.928 73.7508 824.418 73.7508 Q817.451 73.7508 813.319 69.8619 Q809.227 65.9325 809.227 59.3701 Q809.227 51.7138 814.332 47.825 Q819.476 43.9361 829.644 43.9361 L840.095 43.9361 L840.095 43.2069 Q840.095 38.0623 836.693 35.2672 Q833.33 32.4315 827.213 32.4315 Q823.325 32.4315 819.638 33.3632 Q815.952 34.295 812.549 36.1584 L812.549 29.2718 Q816.641 27.692 820.489 26.9223 Q824.337 26.1121 827.983 26.1121 Q837.827 26.1121 842.688 31.2163 Q847.549 36.3204 847.549 46.6907 Z" fill="#000000" fill-rule="nonzero" fill-opacity="1" /><path clip-path="url(#clip780)" d="M889.192 34.1734 Q887.936 33.4443 886.438 33.1202 Q884.979 32.7556 883.197 32.7556 Q876.878 32.7556 873.475 36.8875 Q870.113 40.9789 870.113 48.6757 L870.113 72.576 L862.618 72.576 L862.618 27.2059 L870.113 27.2059 L870.113 34.2544 Q872.462 30.1225 876.229 28.1376 Q879.997 26.1121 885.384 26.1121 Q886.154 26.1121 887.086 26.2337 Q888.018 26.3147 889.152 26.5172 L889.192 34.1734 Z" fill="#000000" fill-rule="nonzero" fill-opacity="1" /><path clip-path="url(#clip780)" d="M896.727 9.54393 L904.221 9.54393 L904.221 46.7717 L926.461 27.2059 L935.98 27.2059 L911.918 48.4326 L936.993 72.576 L927.271 72.576 L904.221 50.4176 L904.221 72.576 L896.727 72.576 L896.727 9.54393 Z" fill="#000000" fill-rule="nonzero" fill-opacity="1" /><path clip-path="url(#clip780)" d="M959.678 32.4315 Q953.683 32.4315 950.199 37.1306 Q946.715 41.7891 946.715 49.9314 Q946.715 58.0738 950.158 62.7728 Q953.642 67.4314 959.678 67.4314 Q965.633 67.4314 969.117 62.7323 Q972.6 58.0333 972.6 49.9314 Q972.6 41.8701 969.117 37.1711 Q965.633 32.4315 959.678 32.4315 M959.678 26.1121 Q969.4 26.1121 974.95 32.4315 Q980.5 38.7509 980.5 49.9314 Q980.5 61.0714 974.95 67.4314 Q969.4 73.7508 959.678 73.7508 Q949.915 73.7508 944.366 67.4314 Q938.856 61.0714 938.856 49.9314 Q938.856 38.7509 944.366 32.4315 Q949.915 26.1121 959.678 26.1121 Z" fill="#000000" fill-rule="nonzero" fill-opacity="1" /><path clip-path="url(#clip780)" d="M988.52 27.2059 L995.974 27.2059 L1005.29 62.6108 L1014.57 27.2059 L1023.36 27.2059 L1032.68 62.6108 L1041.95 27.2059 L1049.41 27.2059 L1037.54 72.576 L1028.75 72.576 L1018.98 35.3887 L1009.18 72.576 L1000.39 72.576 L988.52 27.2059 Z" fill="#000000" fill-rule="nonzero" fill-opacity="1" /><path clip-path="url(#clip780)" d="M1060.71 27.2059 L1068.16 27.2059 L1068.16 72.576 L1060.71 72.576 L1060.71 27.2059 M1060.71 9.54393 L1068.16 9.54393 L1068.16 18.9825 L1060.71 18.9825 L1060.71 9.54393 Z" fill="#000000" fill-rule="nonzero" fill-opacity="1" /><path clip-path="url(#clip780)" d="M1091.13 14.324 L1091.13 27.2059 L1106.48 27.2059 L1106.48 32.9987 L1091.13 32.9987 L1091.13 57.6282 Q1091.13 63.1779 1092.63 64.7578 Q1094.17 66.3376 1098.83 66.3376 L1106.48 66.3376 L1106.48 72.576 L1098.83 72.576 Q1090.2 72.576 1086.92 69.3758 Q1083.64 66.1351 1083.64 57.6282 L1083.64 32.9987 L1078.17 32.9987 L1078.17 27.2059 L1083.64 27.2059 L1083.64 14.324 L1091.13 14.324 Z" fill="#000000" fill-rule="nonzero" fill-opacity="1" /><path clip-path="url(#clip780)" d="M1113.05 27.2059 L1148.45 27.2059 L1148.45 34.0114 L1120.42 66.6212 L1148.45 66.6212 L1148.45 72.576 L1112.03 72.576 L1112.03 65.7705 L1140.06 33.1607 L1113.05 33.1607 L1113.05 27.2059 Z" fill="#000000" fill-rule="nonzero" fill-opacity="1" /><path clip-path="url(#clip780)" d="M1186.53 12.096 L1224.77 12.096 L1224.77 18.9825 L1194.71 18.9825 L1194.71 36.8875 L1223.51 36.8875 L1223.51 43.7741 L1194.71 43.7741 L1194.71 65.6895 L1225.5 65.6895 L1225.5 72.576 L1186.53 72.576 L1186.53 12.096 Z" fill="#000000" fill-rule="nonzero" fill-opacity="1" /><path clip-path="url(#clip780)" d="M1261.59 9.54393 L1261.59 15.7418 L1254.46 15.7418 Q1250.45 15.7418 1248.87 17.3622 Q1247.33 18.9825 1247.33 23.1955 L1247.33 27.2059 L1259.61 27.2059 L1259.61 32.9987 L1247.33 32.9987 L1247.33 72.576 L1239.84 72.576 L1239.84 32.9987 L1232.71 32.9987 L1232.71 27.2059 L1239.84 27.2059 L1239.84 24.0462 Q1239.84 16.471 1243.36 13.0277 Q1246.89 9.54393 1254.54 9.54393 L1261.59 9.54393 Z" fill="#000000" fill-rule="nonzero" fill-opacity="1" /><path clip-path="url(#clip780)" d="M1290.8 9.54393 L1290.8 15.7418 L1283.67 15.7418 Q1279.66 15.7418 1278.08 17.3622 Q1276.54 18.9825 1276.54 23.1955 L1276.54 27.2059 L1288.81 27.2059 L1288.81 32.9987 L1276.54 32.9987 L1276.54 72.576 L1269.05 72.576 L1269.05 32.9987 L1261.92 32.9987 L1261.92 27.2059 L1269.05 27.2059 L1269.05 24.0462 Q1269.05 16.471 1272.57 13.0277 Q1276.09 9.54393 1283.75 9.54393 L1290.8 9.54393 Z" fill="#000000" fill-rule="nonzero" fill-opacity="1" /><path clip-path="url(#clip780)" d="M1297.04 27.2059 L1304.49 27.2059 L1304.49 72.576 L1297.04 72.576 L1297.04 27.2059 M1297.04 9.54393 L1304.49 9.54393 L1304.49 18.9825 L1297.04 18.9825 L1297.04 9.54393 Z" fill="#000000" fill-rule="nonzero" fill-opacity="1" /><path clip-path="url(#clip780)" d="M1352.74 28.9478 L1352.74 35.9153 Q1349.58 34.1734 1346.38 33.3227 Q1343.22 32.4315 1339.98 32.4315 Q1332.73 32.4315 1328.72 37.0496 Q1324.7 41.6271 1324.7 49.9314 Q1324.7 58.2358 1328.72 62.8538 Q1332.73 67.4314 1339.98 67.4314 Q1343.22 67.4314 1346.38 66.5807 Q1349.58 65.6895 1352.74 63.9476 L1352.74 70.8341 Q1349.62 72.2924 1346.26 73.0216 Q1342.93 73.7508 1339.17 73.7508 Q1328.92 73.7508 1322.88 67.3098 Q1316.85 60.8689 1316.85 49.9314 Q1316.85 38.832 1322.92 32.472 Q1329.04 26.1121 1339.65 26.1121 Q1343.1 26.1121 1346.38 26.8413 Q1349.66 27.5299 1352.74 28.9478 Z" fill="#000000" fill-rule="nonzero" fill-opacity="1" /><path clip-path="url(#clip780)" d="M1365.7 27.2059 L1373.15 27.2059 L1373.15 72.576 L1365.7 72.576 L1365.7 27.2059 M1365.7 9.54393 L1373.15 9.54393 L1373.15 18.9825 L1365.7 18.9825 L1365.7 9.54393 Z" fill="#000000" fill-rule="nonzero" fill-opacity="1" /><path clip-path="url(#clip780)" d="M1427.56 48.0275 L1427.56 51.6733 L1393.29 51.6733 Q1393.77 59.3701 1397.9 63.421 Q1402.08 67.4314 1409.49 67.4314 Q1413.78 67.4314 1417.79 66.3781 Q1421.85 65.3249 1425.82 63.2184 L1425.82 70.267 Q1421.81 71.9684 1417.59 72.8596 Q1413.38 73.7508 1409.04 73.7508 Q1398.19 73.7508 1391.83 67.4314 Q1385.51 61.1119 1385.51 50.3365 Q1385.51 39.1965 1391.5 32.6746 Q1397.54 26.1121 1407.75 26.1121 Q1416.9 26.1121 1422.21 32.0264 Q1427.56 37.9003 1427.56 48.0275 M1420.1 45.84 Q1420.02 39.7232 1416.66 36.0774 Q1413.34 32.4315 1407.83 32.4315 Q1401.59 32.4315 1397.82 35.9558 Q1394.1 39.4801 1393.53 45.8805 L1420.1 45.84 Z" fill="#000000" fill-rule="nonzero" fill-opacity="1" /><path clip-path="url(#clip780)" d="M1477.51 45.1919 L1477.51 72.576 L1470.05 72.576 L1470.05 45.4349 Q1470.05 38.994 1467.54 35.7938 Q1465.03 32.5936 1460.01 32.5936 Q1453.97 32.5936 1450.49 36.4419 Q1447 40.2903 1447 46.9338 L1447 72.576 L1439.51 72.576 L1439.51 27.2059 L1447 27.2059 L1447 34.2544 Q1449.68 30.163 1453.28 28.1376 Q1456.93 26.1121 1461.67 26.1121 Q1469.48 26.1121 1473.49 30.9732 Q1477.51 35.7938 1477.51 45.1919 Z" fill="#000000" fill-rule="nonzero" fill-opacity="1" /><path clip-path="url(#clip780)" d="M1499.74 14.324 L1499.74 27.2059 L1515.1 27.2059 L1515.1 32.9987 L1499.74 32.9987 L1499.74 57.6282 Q1499.74 63.1779 1501.24 64.7578 Q1502.78 66.3376 1507.44 66.3376 L1515.1 66.3376 L1515.1 72.576 L1507.44 72.576 Q1498.81 72.576 1495.53 69.3758 Q1492.25 66.1351 1492.25 57.6282 L1492.25 32.9987 L1486.78 32.9987 L1486.78 27.2059 L1492.25 27.2059 L1492.25 14.324 L1499.74 14.324 Z" fill="#000000" fill-rule="nonzero" fill-opacity="1" /><path clip-path="url(#clip780)" d="M1551.6 12.096 L1586.35 12.096 L1586.35 18.9825 L1559.78 18.9825 L1559.78 36.8065 L1583.76 36.8065 L1583.76 43.6931 L1559.78 43.6931 L1559.78 72.576 L1551.6 72.576 L1551.6 12.096 Z" fill="#000000" fill-rule="nonzero" fill-opacity="1" /><path clip-path="url(#clip780)" d="M1619.25 34.1734 Q1617.99 33.4443 1616.49 33.1202 Q1615.03 32.7556 1613.25 32.7556 Q1606.93 32.7556 1603.53 36.8875 Q1600.17 40.9789 1600.17 48.6757 L1600.17 72.576 L1592.67 72.576 L1592.67 27.2059 L1600.17 27.2059 L1600.17 34.2544 Q1602.52 30.1225 1606.28 28.1376 Q1610.05 26.1121 1615.44 26.1121 Q1616.21 26.1121 1617.14 26.2337 Q1618.07 26.3147 1619.21 26.5172 L1619.25 34.1734 Z" fill="#000000" fill-rule="nonzero" fill-opacity="1" /><path clip-path="url(#clip780)" d="M1642.82 32.4315 Q1636.83 32.4315 1633.34 37.1306 Q1629.86 41.7891 1629.86 49.9314 Q1629.86 58.0738 1633.3 62.7728 Q1636.79 67.4314 1642.82 67.4314 Q1648.78 67.4314 1652.26 62.7323 Q1655.74 58.0333 1655.74 49.9314 Q1655.74 41.8701 1652.26 37.1711 Q1648.78 32.4315 1642.82 32.4315 M1642.82 26.1121 Q1652.54 26.1121 1658.09 32.4315 Q1663.64 38.7509 1663.64 49.9314 Q1663.64 61.0714 1658.09 67.4314 Q1652.54 73.7508 1642.82 73.7508 Q1633.06 73.7508 1627.51 67.4314 Q1622 61.0714 1622 49.9314 Q1622 38.7509 1627.51 32.4315 Q1633.06 26.1121 1642.82 26.1121 Z" fill="#000000" fill-rule="nonzero" fill-opacity="1" /><path clip-path="url(#clip780)" d="M1713.71 45.1919 L1713.71 72.576 L1706.26 72.576 L1706.26 45.4349 Q1706.26 38.994 1703.75 35.7938 Q1701.24 32.5936 1696.21 32.5936 Q1690.18 32.5936 1686.69 36.4419 Q1683.21 40.2903 1683.21 46.9338 L1683.21 72.576 L1675.72 72.576 L1675.72 27.2059 L1683.21 27.2059 L1683.21 34.2544 Q1685.88 30.163 1689.49 28.1376 Q1693.13 26.1121 1697.87 26.1121 Q1705.69 26.1121 1709.7 30.9732 Q1713.71 35.7938 1713.71 45.1919 Z" fill="#000000" fill-rule="nonzero" fill-opacity="1" /><path clip-path="url(#clip780)" d="M1735.95 14.324 L1735.95 27.2059 L1751.31 27.2059 L1751.31 32.9987 L1735.95 32.9987 L1735.95 57.6282 Q1735.95 63.1779 1737.45 64.7578 Q1738.99 66.3376 1743.65 66.3376 L1751.31 66.3376 L1751.31 72.576 L1743.65 72.576 Q1735.02 72.576 1731.74 69.3758 Q1728.46 66.1351 1728.46 57.6282 L1728.46 32.9987 L1722.99 32.9987 L1722.99 27.2059 L1728.46 27.2059 L1728.46 14.324 L1735.95 14.324 Z" fill="#000000" fill-rule="nonzero" fill-opacity="1" /><path clip-path="url(#clip780)" d="M1761.11 27.2059 L1768.56 27.2059 L1768.56 72.576 L1761.11 72.576 L1761.11 27.2059 M1761.11 9.54393 L1768.56 9.54393 L1768.56 18.9825 L1761.11 18.9825 L1761.11 9.54393 Z" fill="#000000" fill-rule="nonzero" fill-opacity="1" /><path clip-path="url(#clip780)" d="M1822.97 48.0275 L1822.97 51.6733 L1788.7 51.6733 Q1789.18 59.3701 1793.31 63.421 Q1797.49 67.4314 1804.9 67.4314 Q1809.19 67.4314 1813.2 66.3781 Q1817.25 65.3249 1821.22 63.2184 L1821.22 70.267 Q1817.21 71.9684 1813 72.8596 Q1808.79 73.7508 1804.45 73.7508 Q1793.6 73.7508 1787.24 67.4314 Q1780.92 61.1119 1780.92 50.3365 Q1780.92 39.1965 1786.91 32.6746 Q1792.95 26.1121 1803.16 26.1121 Q1812.31 26.1121 1817.62 32.0264 Q1822.97 37.9003 1822.97 48.0275 M1815.51 45.84 Q1815.43 39.7232 1812.07 36.0774 Q1808.75 32.4315 1803.24 32.4315 Q1797 32.4315 1793.23 35.9558 Q1789.51 39.4801 1788.94 45.8805 L1815.51 45.84 Z" fill="#000000" fill-rule="nonzero" fill-opacity="1" /><path clip-path="url(#clip780)" d="M1861.49 34.1734 Q1860.23 33.4443 1858.74 33.1202 Q1857.28 32.7556 1855.49 32.7556 Q1849.18 32.7556 1845.77 36.8875 Q1842.41 40.9789 1842.41 48.6757 L1842.41 72.576 L1834.92 72.576 L1834.92 27.2059 L1842.41 27.2059 L1842.41 34.2544 Q1844.76 30.1225 1848.53 28.1376 Q1852.29 26.1121 1857.68 26.1121 Q1858.45 26.1121 1859.38 26.2337 Q1860.32 26.3147 1861.45 26.5172 L1861.49 34.1734 Z" fill="#000000" fill-rule="nonzero" fill-opacity="1" /><polyline clip-path="url(#clip782)" style="stroke:#009af9; stroke-linecap:round; stroke-linejoin:round; stroke-width:4; stroke-opacity:1; fill:none" points="191034,-88840.2 96123.9,-44284.1 63222.8,-28838.3 46939.5,-21193.8 37265,-16651.7 30855.5,-13642.4 26206.9,-11459.7 22731.3,-9827.72 20029.9,-8559.11 17857.3,-7538.79 16093.2,-6710.2 14617.3,-6016.86 13371.3,-5431.52 12300.3,-4928.27 11368.2,-4490.2 10555.6,-4108.28 9843.08,-3773.27 9208.02,-3474.64 8635.84,-3205.51 8120.85,-2963.22 7657.8,-2745.3 7238.26,-2547.8 6854.13,-2366.9 6500.67,-2200.38 6175.48,-2047.12 5883.25,-1909.34 5600.91,-1776.15 5343.18,-1654.51 5104.03,-1541.58 4877.28,-1434.44 4670.94,-1336.88 4477.46,-1245.34 4294.9,-1158.91 4122.26,-1077.1 3959.12,-999.731 3805.02,-926.583 3659.5,-857.439 3522.02,-792.043 3391.93,-730.099 3268.66,-671.322 3147.1,-613.29 3039.15,-561.683 2934.4,-511.528 2833.35,-463.069 2736.9,-416.736 2644.78,-372.399 2556.72,-329.936 2472.51,-289.236 2394.27,-251.339 2316.19,-213.425 2241.37,-177.001 2169.75,-142.03 2101.23,-108.47 2035.7,-76.2621 1973,-45.3388 1912.97,-15.6181 1855.42,12.9899 1800.17,40.5798 1747.01,67.2519 1695.82,93.072 1646.47,118.099 1598.9,142.374 1553.04,165.923 1508.89,188.76 1466.42,210.897 1425.61,232.345 1386.42,253.128 1348.8,273.278 1312.66,292.833 1277.95,311.836 1244.61,330.318 1212.6,348.302 1181.92,365.801 1152.54,382.82 1124.48,399.37 1097.7,415.465 1072.18,431.122 1047.91,446.36 1024.85,461.191 1003.01,475.624 982.375,489.668 962.926,503.332 944.645,516.631 926.734,530.179 910.51,542.989 895.397,555.491 881.378,567.694 868.437,579.611 856.553,591.253 845.346,603.024 835.495,614.208 826.647,625.148 818.78,635.854 811.868,646.335 805.884,656.601 800.799,666.66 796.496,676.749 793.14,686.406 790.592,695.869 788.815,705.142 787.771,714.232 "/>
<polyline clip-path="url(#clip782)" style="stroke:#e26f46; stroke-linecap:round; stroke-linejoin:round; stroke-width:4; stroke-opacity:1; fill:none" points="1333.46,426.737 1333.46,426.737 1333.46,426.737 1333.46,426.737 1333.46,426.737 1333.46,426.737 1333.46,426.737 1333.46,426.737 1333.46,426.737 1333.46,426.737 1333.4,426.776 1333.52,426.752 1333.46,426.737 1333.46,426.737 1333.46,426.737 1333.46,426.737 1333.46,426.737 1333.46,426.737 1333.46,426.737 1333.46,426.737 1333.46,426.737 1333.46,426.737 1333.46,426.737 1333.46,426.737 1333.46,426.737 1333.46,426.737 1333.46,426.738 1333.46,426.738 1333.46,426.738 1333.46,426.738 1333.46,426.738 1333.46,426.738 1333.46,426.738 1333.46,426.738 1333.46,426.739 1333.46,426.737 1333.46,426.737 1333.46,426.738 1333.46,426.738 1333.46,426.738 1333.46,426.738 1333.45,426.742 1333.45,426.742 1333.34,426.761 1305.05,432.492 1279.09,437.83 1254.78,442.907 1231.88,447.77 1210.29,452.432 1189.95,456.903 1170.77,461.196 1152.7,465.32 1135.67,469.286 1119.62,473.101 1104.5,476.774 1090.25,480.314 1076.83,483.727 1064.18,487.02 1052.28,490.199 1041.07,493.271 1030.51,496.24 1020.59,499.112 1011.25,501.892 1002.47,504.584 994.214,507.192 986.463,509.721 979.185,512.173 972.357,514.553 965.953,516.864 959.953,519.109 954.335,521.29 949.19,523.364 944.306,525.413 939.745,527.405 935.488,529.344 931.52,531.233 927.825,533.072 924.388,534.865 921.194,536.614 918.233,538.32 915.489,539.986 912.691,541.785 910.356,543.381 908.211,544.94 906.244,546.463 897.768,553.488 882.306,566.866 868.575,579.48 856.322,591.487 845.424,602.94 835.814,613.831 826.635,625.164 818.803,635.821 811.908,646.271 805.928,656.52 800.838,666.576 796.614,676.444 793.188,686.251 790.623,695.735 788.83,705.04 787.855,713.213 "/>
<circle clip-path="url(#clip782)" cx="1333.46" cy="426.737" r="14.4" fill="#ff0000" fill-rule="evenodd" fill-opacity="1" stroke="#000000" stroke-opacity="1" stroke-width="3.2"/>
<circle clip-path="url(#clip782)" cx="922.57" cy="600.032" r="14.4" fill="#ff0000" fill-rule="evenodd" fill-opacity="1" stroke="#000000" stroke-opacity="1" stroke-width="3.2"/>
<circle clip-path="url(#clip782)" cx="1090.83" cy="903.297" r="14.4" fill="#ff0000" fill-rule="evenodd" fill-opacity="1" stroke="#000000" stroke-opacity="1" stroke-width="3.2"/>
<path clip-path="url(#clip780)" d="M1702.56 374.156 L2282.65 374.156 L2282.65 166.796 L1702.56 166.796  Z" fill="#ffffff" fill-rule="evenodd" fill-opacity="1"/>
<polyline clip-path="url(#clip780)" style="stroke:#000000; stroke-linecap:round; stroke-linejoin:round; stroke-width:4; stroke-opacity:1; fill:none" points="1702.56,374.156 2282.65,374.156 2282.65,166.796 1702.56,166.796 1702.56,374.156 "/>
<polyline clip-path="url(#clip780)" style="stroke:#009af9; stroke-linecap:round; stroke-linejoin:round; stroke-width:4; stroke-opacity:1; fill:none" points="1725.93,218.636 1866.14,218.636 "/>
<path clip-path="url(#clip780)" d="M1911.23 220.268 L1911.23 235.916 L1906.97 235.916 L1906.97 220.407 Q1906.97 216.726 1905.53 214.897 Q1904.1 213.069 1901.23 213.069 Q1897.78 213.069 1895.79 215.268 Q1893.8 217.467 1893.8 221.263 L1893.8 235.916 L1889.51 235.916 L1889.51 209.99 L1893.8 209.99 L1893.8 214.018 Q1895.32 211.68 1897.38 210.522 Q1899.47 209.365 1902.18 209.365 Q1906.64 209.365 1908.93 212.143 Q1911.23 214.897 1911.23 220.268 Z" fill="#000000" fill-rule="nonzero" fill-opacity="1" /><path clip-path="url(#clip780)" d="M1929.77 212.976 Q1926.34 212.976 1924.35 215.661 Q1922.36 218.323 1922.36 222.976 Q1922.36 227.629 1924.33 230.314 Q1926.32 232.976 1929.77 232.976 Q1933.17 232.976 1935.16 230.291 Q1937.15 227.606 1937.15 222.976 Q1937.15 218.37 1935.16 215.684 Q1933.17 212.976 1929.77 212.976 M1929.77 209.365 Q1935.32 209.365 1938.49 212.976 Q1941.67 216.587 1941.67 222.976 Q1941.67 229.342 1938.49 232.976 Q1935.32 236.587 1929.77 236.587 Q1924.19 236.587 1921.02 232.976 Q1917.87 229.342 1917.87 222.976 Q1917.87 216.587 1921.02 212.976 Q1924.19 209.365 1929.77 209.365 Z" fill="#000000" fill-rule="nonzero" fill-opacity="1" /><path clip-path="url(#clip780)" d="M1982.41 222.976 Q1982.41 218.277 1980.46 215.615 Q1978.54 212.93 1975.16 212.93 Q1971.78 212.93 1969.84 215.615 Q1967.92 218.277 1967.92 222.976 Q1967.92 227.675 1969.84 230.36 Q1971.78 233.022 1975.16 233.022 Q1978.54 233.022 1980.46 230.36 Q1982.41 227.675 1982.41 222.976 M1967.92 213.925 Q1969.26 211.61 1971.3 210.499 Q1973.36 209.365 1976.2 209.365 Q1980.92 209.365 1983.86 213.115 Q1986.83 216.865 1986.83 222.976 Q1986.83 229.087 1983.86 232.837 Q1980.92 236.587 1976.2 236.587 Q1973.36 236.587 1971.3 235.476 Q1969.26 234.342 1967.92 232.027 L1967.92 235.916 L1963.63 235.916 L1963.63 199.897 L1967.92 199.897 L1967.92 213.925 Z" fill="#000000" fill-rule="nonzero" fill-opacity="1" /><path clip-path="url(#clip780)" d="M2003.93 212.976 Q2000.51 212.976 1998.52 215.661 Q1996.53 218.323 1996.53 222.976 Q1996.53 227.629 1998.49 230.314 Q2000.48 232.976 2003.93 232.976 Q2007.34 232.976 2009.33 230.291 Q2011.32 227.606 2011.32 222.976 Q2011.32 218.37 2009.33 215.684 Q2007.34 212.976 2003.93 212.976 M2003.93 209.365 Q2009.49 209.365 2012.66 212.976 Q2015.83 216.587 2015.83 222.976 Q2015.83 229.342 2012.66 232.976 Q2009.49 236.587 2003.93 236.587 Q1998.36 236.587 1995.18 232.976 Q1992.04 229.342 1992.04 222.976 Q1992.04 216.587 1995.18 212.976 Q1998.36 209.365 2003.93 209.365 Z" fill="#000000" fill-rule="nonzero" fill-opacity="1" /><path clip-path="url(#clip780)" d="M2022.45 225.684 L2022.45 209.99 L2026.71 209.99 L2026.71 225.522 Q2026.71 229.203 2028.15 231.055 Q2029.58 232.883 2032.45 232.883 Q2035.9 232.883 2037.89 230.684 Q2039.91 228.485 2039.91 224.689 L2039.91 209.99 L2044.17 209.99 L2044.17 235.916 L2039.91 235.916 L2039.91 231.934 Q2038.35 234.295 2036.29 235.453 Q2034.26 236.587 2031.55 236.587 Q2027.08 236.587 2024.77 233.809 Q2022.45 231.031 2022.45 225.684 M2033.17 209.365 L2033.17 209.365 Z" fill="#000000" fill-rule="nonzero" fill-opacity="1" /><path clip-path="url(#clip780)" d="M2074.49 220.268 L2074.49 235.916 L2070.23 235.916 L2070.23 220.407 Q2070.23 216.726 2068.79 214.897 Q2067.36 213.069 2064.49 213.069 Q2061.04 213.069 2059.05 215.268 Q2057.06 217.467 2057.06 221.263 L2057.06 235.916 L2052.78 235.916 L2052.78 209.99 L2057.06 209.99 L2057.06 214.018 Q2058.59 211.68 2060.65 210.522 Q2062.73 209.365 2065.44 209.365 Q2069.91 209.365 2072.2 212.143 Q2074.49 214.897 2074.49 220.268 Z" fill="#000000" fill-rule="nonzero" fill-opacity="1" /><path clip-path="url(#clip780)" d="M2100.04 213.925 L2100.04 199.897 L2104.3 199.897 L2104.3 235.916 L2100.04 235.916 L2100.04 232.027 Q2098.7 234.342 2096.64 235.476 Q2094.6 236.587 2091.73 236.587 Q2087.04 236.587 2084.07 232.837 Q2081.13 229.087 2081.13 222.976 Q2081.13 216.865 2084.07 213.115 Q2087.04 209.365 2091.73 209.365 Q2094.6 209.365 2096.64 210.499 Q2098.7 211.61 2100.04 213.925 M2085.53 222.976 Q2085.53 227.675 2087.45 230.36 Q2089.4 233.022 2092.78 233.022 Q2096.16 233.022 2098.1 230.36 Q2100.04 227.675 2100.04 222.976 Q2100.04 218.277 2098.1 215.615 Q2096.16 212.93 2092.78 212.93 Q2089.4 212.93 2087.45 215.615 Q2085.53 218.277 2085.53 222.976 Z" fill="#000000" fill-rule="nonzero" fill-opacity="1" /><path clip-path="url(#clip780)" d="M2129.6 210.754 L2129.6 214.782 Q2127.8 213.856 2125.85 213.393 Q2123.91 212.93 2121.83 212.93 Q2118.66 212.93 2117.06 213.902 Q2115.48 214.874 2115.48 216.819 Q2115.48 218.3 2116.62 219.157 Q2117.75 219.99 2121.18 220.754 L2122.64 221.078 Q2127.17 222.05 2129.07 223.832 Q2130.99 225.592 2130.99 228.763 Q2130.99 232.374 2128.12 234.481 Q2125.28 236.587 2120.28 236.587 Q2118.19 236.587 2115.92 236.17 Q2113.68 235.777 2111.18 234.967 L2111.18 230.569 Q2113.54 231.795 2115.83 232.42 Q2118.12 233.022 2120.37 233.022 Q2123.38 233.022 2125 232.004 Q2126.62 230.962 2126.62 229.087 Q2126.62 227.351 2125.44 226.425 Q2124.28 225.499 2120.32 224.643 L2118.84 224.295 Q2114.88 223.462 2113.12 221.749 Q2111.36 220.013 2111.36 217.004 Q2111.36 213.346 2113.96 211.356 Q2116.55 209.365 2121.32 209.365 Q2123.68 209.365 2125.76 209.712 Q2127.85 210.059 2129.6 210.754 Z" fill="#000000" fill-rule="nonzero" fill-opacity="1" /><path clip-path="url(#clip780)" d="M2162.89 212.976 Q2159.47 212.976 2157.47 215.661 Q2155.48 218.323 2155.48 222.976 Q2155.48 227.629 2157.45 230.314 Q2159.44 232.976 2162.89 232.976 Q2166.29 232.976 2168.28 230.291 Q2170.28 227.606 2170.28 222.976 Q2170.28 218.37 2168.28 215.684 Q2166.29 212.976 2162.89 212.976 M2162.89 209.365 Q2168.45 209.365 2171.62 212.976 Q2174.79 216.587 2174.79 222.976 Q2174.79 229.342 2171.62 232.976 Q2168.45 236.587 2162.89 236.587 Q2157.31 236.587 2154.14 232.976 Q2150.99 229.342 2150.99 222.976 Q2150.99 216.587 2154.14 212.976 Q2157.31 209.365 2162.89 209.365 Z" fill="#000000" fill-rule="nonzero" fill-opacity="1" /><path clip-path="url(#clip780)" d="M2203.4 220.268 L2203.4 235.916 L2199.14 235.916 L2199.14 220.407 Q2199.14 216.726 2197.71 214.897 Q2196.27 213.069 2193.4 213.069 Q2189.95 213.069 2187.96 215.268 Q2185.97 217.467 2185.97 221.263 L2185.97 235.916 L2181.69 235.916 L2181.69 209.99 L2185.97 209.99 L2185.97 214.018 Q2187.5 211.68 2189.56 210.522 Q2191.64 209.365 2194.35 209.365 Q2198.82 209.365 2201.11 212.143 Q2203.4 214.897 2203.4 220.268 Z" fill="#000000" fill-rule="nonzero" fill-opacity="1" /><path clip-path="url(#clip780)" d="M2224.49 209.99 L2228.75 209.99 L2234.07 230.221 L2239.37 209.99 L2244.4 209.99 L2249.72 230.221 L2255.02 209.99 L2259.28 209.99 L2252.5 235.916 L2247.47 235.916 L2241.9 214.666 L2236.29 235.916 L2231.27 235.916 L2224.49 209.99 Z" fill="#000000" fill-rule="nonzero" fill-opacity="1" /><polyline clip-path="url(#clip780)" style="stroke:#e26f46; stroke-linecap:round; stroke-linejoin:round; stroke-width:4; stroke-opacity:1; fill:none" points="1725.93,270.476 1866.14,270.476 "/>
<path clip-path="url(#clip780)" d="M1889.51 261.83 L1893.77 261.83 L1899.1 282.061 L1904.4 261.83 L1909.42 261.83 L1914.74 282.061 L1920.05 261.83 L1924.3 261.83 L1917.52 287.756 L1912.5 287.756 L1906.92 266.506 L1901.32 287.756 L1896.3 287.756 L1889.51 261.83 Z" fill="#000000" fill-rule="nonzero" fill-opacity="1" /><path clip-path="url(#clip780)" d="M1930.76 261.83 L1935.02 261.83 L1935.02 287.756 L1930.76 287.756 L1930.76 261.83 M1930.76 251.737 L1935.02 251.737 L1935.02 257.131 L1930.76 257.131 L1930.76 251.737 Z" fill="#000000" fill-rule="nonzero" fill-opacity="1" /><path clip-path="url(#clip780)" d="M1948.15 254.469 L1948.15 261.83 L1956.92 261.83 L1956.92 265.14 L1948.15 265.14 L1948.15 279.214 Q1948.15 282.385 1949 283.288 Q1949.88 284.191 1952.55 284.191 L1956.92 284.191 L1956.92 287.756 L1952.55 287.756 Q1947.61 287.756 1945.74 285.927 Q1943.86 284.075 1943.86 279.214 L1943.86 265.14 L1940.74 265.14 L1940.74 261.83 L1943.86 261.83 L1943.86 254.469 L1948.15 254.469 Z" fill="#000000" fill-rule="nonzero" fill-opacity="1" /><path clip-path="url(#clip780)" d="M1984.07 272.108 L1984.07 287.756 L1979.81 287.756 L1979.81 272.247 Q1979.81 268.566 1978.38 266.737 Q1976.94 264.909 1974.07 264.909 Q1970.62 264.909 1968.63 267.108 Q1966.64 269.307 1966.64 273.103 L1966.64 287.756 L1962.36 287.756 L1962.36 251.737 L1966.64 251.737 L1966.64 265.858 Q1968.17 263.52 1970.23 262.362 Q1972.31 261.205 1975.02 261.205 Q1979.49 261.205 1981.78 263.983 Q1984.07 266.737 1984.07 272.108 Z" fill="#000000" fill-rule="nonzero" fill-opacity="1" /><path clip-path="url(#clip780)" d="M2018.24 256.274 Q2014.63 256.274 2012.8 259.839 Q2010.99 263.381 2010.99 270.51 Q2010.99 277.617 2012.8 281.182 Q2014.63 284.723 2018.24 284.723 Q2021.87 284.723 2023.68 281.182 Q2025.51 277.617 2025.51 270.51 Q2025.51 263.381 2023.68 259.839 Q2021.87 256.274 2018.24 256.274 M2018.24 252.571 Q2024.05 252.571 2027.11 257.177 Q2030.18 261.76 2030.18 270.51 Q2030.18 279.237 2027.11 283.844 Q2024.05 288.427 2018.24 288.427 Q2012.43 288.427 2009.35 283.844 Q2006.29 279.237 2006.29 270.51 Q2006.29 261.76 2009.35 257.177 Q2012.43 252.571 2018.24 252.571 Z" fill="#000000" fill-rule="nonzero" fill-opacity="1" /><path clip-path="url(#clip780)" d="M2068.03 264.423 L2044.14 272.918 L2068.03 281.367 L2068.03 285.58 L2038.35 274.816 L2038.35 270.973 L2068.03 260.21 L2068.03 264.423 Z" fill="#000000" fill-rule="nonzero" fill-opacity="1" /><path clip-path="url(#clip780)" d="M2075.04 261.83 L2079.3 261.83 L2084.63 282.061 L2089.93 261.83 L2094.95 261.83 L2100.28 282.061 L2105.58 261.83 L2109.84 261.83 L2103.05 287.756 L2098.03 287.756 L2092.45 266.506 L2086.85 287.756 L2081.83 287.756 L2075.04 261.83 Z" fill="#000000" fill-rule="nonzero" fill-opacity="1" /><path clip-path="url(#clip780)" d="M2146.53 264.423 L2122.64 272.918 L2146.53 281.367 L2146.53 285.58 L2116.85 274.816 L2116.85 270.973 L2146.53 260.21 L2146.53 264.423 Z" fill="#000000" fill-rule="nonzero" fill-opacity="1" /><path clip-path="url(#clip780)" d="M2157.43 283.821 L2165.07 283.821 L2165.07 257.455 L2156.76 259.122 L2156.76 254.862 L2165.02 253.196 L2169.7 253.196 L2169.7 283.821 L2177.34 283.821 L2177.34 287.756 L2157.43 287.756 L2157.43 283.821 Z" fill="#000000" fill-rule="nonzero" fill-opacity="1" /><circle clip-path="url(#clip780)" cx="1796.04" cy="322.316" r="20.48" fill="#ff0000" fill-rule="evenodd" fill-opacity="1" stroke="#000000" stroke-opacity="1" stroke-width="4.55111"/>
<path clip-path="url(#clip780)" d="M1902.92 326.563 Q1897.75 326.563 1895.76 327.744 Q1893.77 328.924 1893.77 331.772 Q1893.77 334.04 1895.25 335.383 Q1896.76 336.702 1899.33 336.702 Q1902.87 336.702 1905 334.202 Q1907.15 331.679 1907.15 327.512 L1907.15 326.563 L1902.92 326.563 M1911.41 324.804 L1911.41 339.596 L1907.15 339.596 L1907.15 335.661 Q1905.69 338.022 1903.52 339.156 Q1901.34 340.267 1898.19 340.267 Q1894.21 340.267 1891.85 338.045 Q1889.51 335.799 1889.51 332.049 Q1889.51 327.674 1892.43 325.452 Q1895.37 323.23 1901.18 323.23 L1907.15 323.23 L1907.15 322.813 Q1907.15 319.874 1905.21 318.276 Q1903.29 316.656 1899.79 316.656 Q1897.57 316.656 1895.46 317.188 Q1893.36 317.721 1891.41 318.786 L1891.41 314.85 Q1893.75 313.948 1895.95 313.508 Q1898.15 313.045 1900.23 313.045 Q1905.86 313.045 1908.63 315.962 Q1911.41 318.878 1911.41 324.804 Z" fill="#000000" fill-rule="nonzero" fill-opacity="1" /><path clip-path="url(#clip780)" d="M1936.71 314.434 L1936.71 318.462 Q1934.91 317.536 1932.96 317.073 Q1931.02 316.61 1928.93 316.61 Q1925.76 316.61 1924.17 317.582 Q1922.59 318.554 1922.59 320.499 Q1922.59 321.98 1923.73 322.837 Q1924.86 323.67 1928.29 324.434 L1929.74 324.758 Q1934.28 325.73 1936.18 327.512 Q1938.1 329.272 1938.1 332.443 Q1938.1 336.054 1935.23 338.161 Q1932.38 340.267 1927.38 340.267 Q1925.3 340.267 1923.03 339.85 Q1920.79 339.457 1918.29 338.647 L1918.29 334.249 Q1920.65 335.475 1922.94 336.1 Q1925.23 336.702 1927.48 336.702 Q1930.49 336.702 1932.11 335.684 Q1933.73 334.642 1933.73 332.767 Q1933.73 331.031 1932.55 330.105 Q1931.39 329.179 1927.43 328.323 L1925.95 327.975 Q1921.99 327.142 1920.23 325.429 Q1918.47 323.693 1918.47 320.684 Q1918.47 317.026 1921.06 315.036 Q1923.66 313.045 1928.43 313.045 Q1930.79 313.045 1932.87 313.392 Q1934.95 313.739 1936.71 314.434 Z" fill="#000000" fill-rule="nonzero" fill-opacity="1" /><path clip-path="url(#clip780)" d="M1961.41 314.434 L1961.41 318.462 Q1959.61 317.536 1957.66 317.073 Q1955.72 316.61 1953.63 316.61 Q1950.46 316.61 1948.86 317.582 Q1947.29 318.554 1947.29 320.499 Q1947.29 321.98 1948.42 322.837 Q1949.56 323.67 1952.99 324.434 L1954.44 324.758 Q1958.98 325.73 1960.88 327.512 Q1962.8 329.272 1962.8 332.443 Q1962.8 336.054 1959.93 338.161 Q1957.08 340.267 1952.08 340.267 Q1950 340.267 1947.73 339.85 Q1945.49 339.457 1942.99 338.647 L1942.99 334.249 Q1945.35 335.475 1947.64 336.1 Q1949.93 336.702 1952.17 336.702 Q1955.18 336.702 1956.8 335.684 Q1958.42 334.642 1958.42 332.767 Q1958.42 331.031 1957.24 330.105 Q1956.09 329.179 1952.13 328.323 L1950.65 327.975 Q1946.69 327.142 1944.93 325.429 Q1943.17 323.693 1943.17 320.684 Q1943.17 317.026 1945.76 315.036 Q1948.36 313.045 1953.12 313.045 Q1955.49 313.045 1957.57 313.392 Q1959.65 313.739 1961.41 314.434 Z" fill="#000000" fill-rule="nonzero" fill-opacity="1" /><path clip-path="url(#clip780)" d="M1991.76 325.568 L1991.76 327.651 L1972.17 327.651 Q1972.45 332.049 1974.81 334.364 Q1977.2 336.656 1981.43 336.656 Q1983.89 336.656 1986.18 336.054 Q1988.49 335.452 1990.76 334.249 L1990.76 338.276 Q1988.47 339.248 1986.06 339.758 Q1983.66 340.267 1981.18 340.267 Q1974.98 340.267 1971.34 336.656 Q1967.73 333.045 1967.73 326.887 Q1967.73 320.522 1971.16 316.795 Q1974.61 313.045 1980.44 313.045 Q1985.67 313.045 1988.7 316.425 Q1991.76 319.781 1991.76 325.568 M1987.5 324.318 Q1987.45 320.823 1985.53 318.739 Q1983.63 316.656 1980.48 316.656 Q1976.92 316.656 1974.77 318.67 Q1972.64 320.684 1972.31 324.341 L1987.5 324.318 Z" fill="#000000" fill-rule="nonzero" fill-opacity="1" /><path clip-path="url(#clip780)" d="M2002.96 306.309 L2002.96 313.67 L2011.73 313.67 L2011.73 316.98 L2002.96 316.98 L2002.96 331.054 Q2002.96 334.225 2003.82 335.128 Q2004.7 336.031 2007.36 336.031 L2011.73 336.031 L2011.73 339.596 L2007.36 339.596 Q2002.43 339.596 2000.55 337.767 Q1998.68 335.915 1998.68 331.054 L1998.68 316.98 L1995.55 316.98 L1995.55 313.67 L1998.68 313.67 L1998.68 306.309 L2002.96 306.309 Z" fill="#000000" fill-rule="nonzero" fill-opacity="1" /><path clip-path="url(#clip780)" d="M2033.86 314.434 L2033.86 318.462 Q2032.06 317.536 2030.11 317.073 Q2028.17 316.61 2026.09 316.61 Q2022.92 316.61 2021.32 317.582 Q2019.74 318.554 2019.74 320.499 Q2019.74 321.98 2020.88 322.837 Q2022.01 323.67 2025.44 324.434 L2026.9 324.758 Q2031.43 325.73 2033.33 327.512 Q2035.25 329.272 2035.25 332.443 Q2035.25 336.054 2032.38 338.161 Q2029.54 340.267 2024.54 340.267 Q2022.45 340.267 2020.18 339.85 Q2017.94 339.457 2015.44 338.647 L2015.44 334.249 Q2017.8 335.475 2020.09 336.1 Q2022.38 336.702 2024.63 336.702 Q2027.64 336.702 2029.26 335.684 Q2030.88 334.642 2030.88 332.767 Q2030.88 331.031 2029.7 330.105 Q2028.54 329.179 2024.58 328.323 L2023.1 327.975 Q2019.14 327.142 2017.38 325.429 Q2015.62 323.693 2015.62 320.684 Q2015.62 317.026 2018.22 315.036 Q2020.81 313.045 2025.58 313.045 Q2027.94 313.045 2030.02 313.392 Q2032.11 313.739 2033.86 314.434 Z" fill="#000000" fill-rule="nonzero" fill-opacity="1" /></svg>
