<?xml version="1.0" encoding="utf-8"?>
<svg xmlns="http://www.w3.org/2000/svg" xmlns:xlink="http://www.w3.org/1999/xlink" width="600" height="400" viewBox="0 0 2400 1600">
<defs>
  <clipPath id="clip280">
    <rect x="0" y="0" width="2400" height="1600"/>
  </clipPath>
</defs>
<path clip-path="url(#clip280)" d="M0 1600 L2400 1600 L2400 0 L0 0  Z" fill="#ffffff" fill-rule="evenodd" fill-opacity="1"/>
<defs>
  <clipPath id="clip281">
    <rect x="480" y="0" width="1681" height="1600"/>
  </clipPath>
</defs>
<path clip-path="url(#clip280)" d="M194.422 1423.18 L2352.76 1423.18 L2352.76 123.472 L194.422 123.472  Z" fill="#ffffff" fill-rule="evenodd" fill-opacity="1"/>
<defs>
  <clipPath id="clip282">
    <rect x="194" y="123" width="2159" height="1301"/>
  </clipPath>
</defs>
<polyline clip-path="url(#clip282)" style="stroke:#000000; stroke-linecap:round; stroke-linejoin:round; stroke-width:2; stroke-opacity:0.1; fill:none" points="585.273,1423.18 585.273,123.472 "/>
<polyline clip-path="url(#clip282)" style="stroke:#000000; stroke-linecap:round; stroke-linejoin:round; stroke-width:2; stroke-opacity:0.1; fill:none" points="1094.31,1423.18 1094.31,123.472 "/>
<polyline clip-path="url(#clip282)" style="stroke:#000000; stroke-linecap:round; stroke-linejoin:round; stroke-width:2; stroke-opacity:0.1; fill:none" points="1603.35,1423.18 1603.35,123.472 "/>
<polyline clip-path="url(#clip282)" style="stroke:#000000; stroke-linecap:round; stroke-linejoin:round; stroke-width:2; stroke-opacity:0.1; fill:none" points="2112.4,1423.18 2112.4,123.472 "/>
<polyline clip-path="url(#clip280)" style="stroke:#000000; stroke-linecap:round; stroke-linejoin:round; stroke-width:4; stroke-opacity:1; fill:none" points="194.422,1423.18 2352.76,1423.18 "/>
<polyline clip-path="url(#clip280)" style="stroke:#000000; stroke-linecap:round; stroke-linejoin:round; stroke-width:4; stroke-opacity:1; fill:none" points="585.273,1423.18 585.273,1404.28 "/>
<polyline clip-path="url(#clip280)" style="stroke:#000000; stroke-linecap:round; stroke-linejoin:round; stroke-width:4; stroke-opacity:1; fill:none" points="1094.31,1423.18 1094.31,1404.28 "/>
<polyline clip-path="url(#clip280)" style="stroke:#000000; stroke-linecap:round; stroke-linejoin:round; stroke-width:4; stroke-opacity:1; fill:none" points="1603.35,1423.18 1603.35,1404.28 "/>
<polyline clip-path="url(#clip280)" style="stroke:#000000; stroke-linecap:round; stroke-linejoin:round; stroke-width:4; stroke-opacity:1; fill:none" points="2112.4,1423.18 2112.4,1404.28 "/>
<path clip-path="url(#clip280)" d="M532.298 1468.75 L561.974 1468.75 L561.974 1472.69 L532.298 1472.69 L532.298 1468.75 Z" fill="#000000" fill-rule="nonzero" fill-opacity="1" /><path clip-path="url(#clip280)" d="M572.877 1481.64 L580.516 1481.64 L580.516 1455.28 L572.206 1456.95 L572.206 1452.69 L580.469 1451.02 L585.145 1451.02 L585.145 1481.64 L592.784 1481.64 L592.784 1485.58 L572.877 1485.58 L572.877 1481.64 Z" fill="#000000" fill-rule="nonzero" fill-opacity="1" /><path clip-path="url(#clip280)" d="M602.229 1479.7 L607.113 1479.7 L607.113 1485.58 L602.229 1485.58 L602.229 1479.7 Z" fill="#000000" fill-rule="nonzero" fill-opacity="1" /><path clip-path="url(#clip280)" d="M617.344 1451.02 L635.701 1451.02 L635.701 1454.96 L621.627 1454.96 L621.627 1463.43 Q622.645 1463.08 623.664 1462.92 Q624.682 1462.73 625.701 1462.73 Q631.488 1462.73 634.867 1465.9 Q638.247 1469.08 638.247 1474.49 Q638.247 1480.07 634.775 1483.17 Q631.303 1486.25 624.983 1486.25 Q622.807 1486.25 620.539 1485.88 Q618.293 1485.51 615.886 1484.77 L615.886 1480.07 Q617.969 1481.2 620.191 1481.76 Q622.414 1482.32 624.891 1482.32 Q628.895 1482.32 631.233 1480.21 Q633.571 1478.1 633.571 1474.49 Q633.571 1470.88 631.233 1468.77 Q628.895 1466.67 624.891 1466.67 Q623.016 1466.67 621.141 1467.08 Q619.289 1467.5 617.344 1468.38 L617.344 1451.02 Z" fill="#000000" fill-rule="nonzero" fill-opacity="1" /><path clip-path="url(#clip280)" d="M1040.84 1468.75 L1070.52 1468.75 L1070.52 1472.69 L1040.84 1472.69 L1040.84 1468.75 Z" fill="#000000" fill-rule="nonzero" fill-opacity="1" /><path clip-path="url(#clip280)" d="M1081.42 1481.64 L1089.06 1481.64 L1089.06 1455.28 L1080.75 1456.95 L1080.75 1452.69 L1089.01 1451.02 L1093.69 1451.02 L1093.69 1481.64 L1101.33 1481.64 L1101.33 1485.58 L1081.42 1485.58 L1081.42 1481.64 Z" fill="#000000" fill-rule="nonzero" fill-opacity="1" /><path clip-path="url(#clip280)" d="M1110.77 1479.7 L1115.66 1479.7 L1115.66 1485.58 L1110.77 1485.58 L1110.77 1479.7 Z" fill="#000000" fill-rule="nonzero" fill-opacity="1" /><path clip-path="url(#clip280)" d="M1135.84 1454.1 Q1132.23 1454.1 1130.4 1457.66 Q1128.6 1461.2 1128.6 1468.33 Q1128.6 1475.44 1130.4 1479.01 Q1132.23 1482.55 1135.84 1482.55 Q1139.48 1482.55 1141.28 1479.01 Q1143.11 1475.44 1143.11 1468.33 Q1143.11 1461.2 1141.28 1457.66 Q1139.48 1454.1 1135.84 1454.1 M1135.84 1450.39 Q1141.65 1450.39 1144.71 1455 Q1147.79 1459.58 1147.79 1468.33 Q1147.79 1477.06 1144.71 1481.67 Q1141.65 1486.25 1135.84 1486.25 Q1130.03 1486.25 1126.95 1481.67 Q1123.9 1477.06 1123.9 1468.33 Q1123.9 1459.58 1126.95 1455 Q1130.03 1450.39 1135.84 1450.39 Z" fill="#000000" fill-rule="nonzero" fill-opacity="1" /><path clip-path="url(#clip280)" d="M1550.38 1468.75 L1580.06 1468.75 L1580.06 1472.69 L1550.38 1472.69 L1550.38 1468.75 Z" fill="#000000" fill-rule="nonzero" fill-opacity="1" /><path clip-path="url(#clip280)" d="M1600.15 1454.1 Q1596.54 1454.1 1594.71 1457.66 Q1592.9 1461.2 1592.9 1468.33 Q1592.9 1475.44 1594.71 1479.01 Q1596.54 1482.55 1600.15 1482.55 Q1603.78 1482.55 1605.59 1479.01 Q1607.42 1475.44 1607.42 1468.33 Q1607.42 1461.2 1605.59 1457.66 Q1603.78 1454.1 1600.15 1454.1 M1600.15 1450.39 Q1605.96 1450.39 1609.01 1455 Q1612.09 1459.58 1612.09 1468.33 Q1612.09 1477.06 1609.01 1481.67 Q1605.96 1486.25 1600.15 1486.25 Q1594.34 1486.25 1591.26 1481.67 Q1588.2 1477.06 1588.2 1468.33 Q1588.2 1459.58 1591.26 1455 Q1594.34 1450.39 1600.15 1450.39 Z" fill="#000000" fill-rule="nonzero" fill-opacity="1" /><path clip-path="url(#clip280)" d="M1620.31 1479.7 L1625.19 1479.7 L1625.19 1485.58 L1620.31 1485.58 L1620.31 1479.7 Z" fill="#000000" fill-rule="nonzero" fill-opacity="1" /><path clip-path="url(#clip280)" d="M1635.43 1451.02 L1653.78 1451.02 L1653.78 1454.96 L1639.71 1454.96 L1639.71 1463.43 Q1640.73 1463.08 1641.75 1462.92 Q1642.76 1462.73 1643.78 1462.73 Q1649.57 1462.73 1652.95 1465.9 Q1656.33 1469.08 1656.33 1474.49 Q1656.33 1480.07 1652.86 1483.17 Q1649.38 1486.25 1643.07 1486.25 Q1640.89 1486.25 1638.62 1485.88 Q1636.38 1485.51 1633.97 1484.77 L1633.97 1480.07 Q1636.05 1481.2 1638.27 1481.76 Q1640.5 1482.32 1642.97 1482.32 Q1646.98 1482.32 1649.32 1480.21 Q1651.65 1478.1 1651.65 1474.49 Q1651.65 1470.88 1649.32 1468.77 Q1646.98 1466.67 1642.97 1466.67 Q1641.1 1466.67 1639.22 1467.08 Q1637.37 1467.5 1635.43 1468.38 L1635.43 1451.02 Z" fill="#000000" fill-rule="nonzero" fill-opacity="1" /><path clip-path="url(#clip280)" d="M2089.78 1454.1 Q2086.17 1454.1 2084.34 1457.66 Q2082.53 1461.2 2082.53 1468.33 Q2082.53 1475.44 2084.34 1479.01 Q2086.17 1482.55 2089.78 1482.55 Q2093.41 1482.55 2095.22 1479.01 Q2097.05 1475.44 2097.05 1468.33 Q2097.05 1461.2 2095.22 1457.66 Q2093.41 1454.1 2089.78 1454.1 M2089.78 1450.39 Q2095.59 1450.39 2098.65 1455 Q2101.72 1459.58 2101.72 1468.33 Q2101.72 1477.06 2098.65 1481.67 Q2095.59 1486.25 2089.78 1486.25 Q2083.97 1486.25 2080.89 1481.67 Q2077.84 1477.06 2077.84 1468.33 Q2077.84 1459.58 2080.89 1455 Q2083.97 1450.39 2089.78 1450.39 Z" fill="#000000" fill-rule="nonzero" fill-opacity="1" /><path clip-path="url(#clip280)" d="M2109.94 1479.7 L2114.83 1479.7 L2114.83 1485.58 L2109.94 1485.58 L2109.94 1479.7 Z" fill="#000000" fill-rule="nonzero" fill-opacity="1" /><path clip-path="url(#clip280)" d="M2135.01 1454.1 Q2131.4 1454.1 2129.57 1457.66 Q2127.77 1461.2 2127.77 1468.33 Q2127.77 1475.44 2129.57 1479.01 Q2131.4 1482.55 2135.01 1482.55 Q2138.65 1482.55 2140.45 1479.01 Q2142.28 1475.44 2142.28 1468.33 Q2142.28 1461.2 2140.45 1457.66 Q2138.65 1454.1 2135.01 1454.1 M2135.01 1450.39 Q2140.82 1450.39 2143.88 1455 Q2146.96 1459.58 2146.96 1468.33 Q2146.96 1477.06 2143.88 1481.67 Q2140.82 1486.25 2135.01 1486.25 Q2129.2 1486.25 2126.12 1481.67 Q2123.07 1477.06 2123.07 1468.33 Q2123.07 1459.58 2126.12 1455 Q2129.2 1450.39 2135.01 1450.39 Z" fill="#000000" fill-rule="nonzero" fill-opacity="1" /><path clip-path="url(#clip280)" d="M1143.59 1518.52 L1149.44 1518.52 L1149.44 1568.04 L1143.59 1568.04 L1143.59 1518.52 Z" fill="#000000" fill-rule="nonzero" fill-opacity="1" /><path clip-path="url(#clip280)" d="M1175.51 1536.5 Q1170.8 1536.5 1168.06 1540.19 Q1165.32 1543.85 1165.32 1550.25 Q1165.32 1556.65 1168.03 1560.34 Q1170.77 1564 1175.51 1564 Q1180.19 1564 1182.93 1560.31 Q1185.66 1556.62 1185.66 1550.25 Q1185.66 1543.92 1182.93 1540.23 Q1180.19 1536.5 1175.51 1536.5 M1175.51 1531.54 Q1183.15 1531.54 1187.51 1536.5 Q1191.87 1541.47 1191.87 1550.25 Q1191.87 1559 1187.51 1564 Q1183.15 1568.97 1175.51 1568.97 Q1167.84 1568.97 1163.48 1564 Q1159.15 1559 1159.15 1550.25 Q1159.15 1541.47 1163.48 1536.5 Q1167.84 1531.54 1175.51 1531.54 Z" fill="#000000" fill-rule="nonzero" fill-opacity="1" /><path clip-path="url(#clip280)" d="M1225.03 1549.81 Q1225.03 1543.44 1222.39 1539.94 Q1219.78 1536.44 1215.04 1536.44 Q1210.33 1536.44 1207.69 1539.94 Q1205.08 1543.44 1205.08 1549.81 Q1205.08 1556.14 1207.69 1559.64 Q1210.33 1563.14 1215.04 1563.14 Q1219.78 1563.14 1222.39 1559.64 Q1225.03 1556.14 1225.03 1549.81 M1230.89 1563.62 Q1230.89 1572.72 1226.85 1577.15 Q1222.81 1581.6 1214.47 1581.6 Q1211.38 1581.6 1208.64 1581.13 Q1205.91 1580.68 1203.33 1579.72 L1203.33 1574.03 Q1205.91 1575.43 1208.42 1576.1 Q1210.93 1576.76 1213.54 1576.76 Q1219.31 1576.76 1222.17 1573.74 Q1225.03 1570.75 1225.03 1564.67 L1225.03 1561.77 Q1223.22 1564.92 1220.39 1566.48 Q1217.55 1568.04 1213.61 1568.04 Q1207.05 1568.04 1203.04 1563.05 Q1199.03 1558.05 1199.03 1549.81 Q1199.03 1541.53 1203.04 1536.53 Q1207.05 1531.54 1213.61 1531.54 Q1217.55 1531.54 1220.39 1533.1 Q1223.22 1534.66 1225.03 1537.81 L1225.03 1532.4 L1230.89 1532.4 L1230.89 1563.62 Z" fill="#000000" fill-rule="nonzero" fill-opacity="1" /><path clip-path="url(#clip280)" d="M1244.9 1562.63 L1255.4 1562.63 L1255.4 1526.38 L1243.97 1528.67 L1243.97 1522.82 L1255.34 1520.52 L1261.76 1520.52 L1261.76 1562.63 L1272.27 1562.63 L1272.27 1568.04 L1244.9 1568.04 L1244.9 1562.63 Z" fill="#000000" fill-rule="nonzero" fill-opacity="1" /><path clip-path="url(#clip280)" d="M1299 1524.76 Q1294.04 1524.76 1291.52 1529.66 Q1289.04 1534.53 1289.04 1544.33 Q1289.04 1554.1 1291.52 1559 Q1294.04 1563.87 1299 1563.87 Q1304 1563.87 1306.48 1559 Q1309 1554.1 1309 1544.33 Q1309 1534.53 1306.48 1529.66 Q1304 1524.76 1299 1524.76 M1299 1519.66 Q1306.99 1519.66 1311.19 1526 Q1315.43 1532.3 1315.43 1544.33 Q1315.43 1556.33 1311.19 1562.66 Q1306.99 1568.97 1299 1568.97 Q1291.02 1568.97 1286.78 1562.66 Q1282.58 1556.33 1282.58 1544.33 Q1282.58 1532.3 1286.78 1526 Q1291.02 1519.66 1299 1519.66 Z" fill="#000000" fill-rule="nonzero" fill-opacity="1" /><path clip-path="url(#clip280)" d="M1339.97 1518.58 Q1335.7 1525.9 1333.63 1533.06 Q1331.56 1540.23 1331.56 1547.58 Q1331.56 1554.93 1333.63 1562.16 Q1335.73 1569.35 1339.97 1576.64 L1334.87 1576.64 Q1330.1 1569.16 1327.71 1561.93 Q1325.36 1554.71 1325.36 1547.58 Q1325.36 1540.48 1327.71 1533.29 Q1330.07 1526.09 1334.87 1518.58 L1339.97 1518.58 Z" fill="#000000" fill-rule="nonzero" fill-opacity="1" /><path clip-path="url(#clip280)" d="M1356.68 1538 L1364.48 1560.02 L1375.62 1532.4 L1381.82 1532.4 L1367.4 1568.04 L1367.4 1581.6 L1361.55 1581.6 L1361.55 1568.04 L1352.19 1541.44 Q1350.79 1537.42 1347.77 1537.42 L1346.21 1537.42 L1346.21 1532.4 L1348.43 1532.4 Q1354.7 1532.4 1356.68 1538 Z" fill="#000000" fill-rule="nonzero" fill-opacity="1" /><path clip-path="url(#clip280)" d="M1388.98 1518.58 L1394.08 1518.58 Q1398.85 1526.09 1401.21 1533.29 Q1403.59 1540.48 1403.59 1547.58 Q1403.59 1554.71 1401.21 1561.93 Q1398.85 1569.16 1394.08 1576.64 L1388.98 1576.64 Q1393.22 1569.35 1395.29 1562.16 Q1397.39 1554.93 1397.39 1547.58 Q1397.39 1540.23 1395.29 1533.06 Q1393.22 1525.9 1388.98 1518.58 Z" fill="#000000" fill-rule="nonzero" fill-opacity="1" /><polyline clip-path="url(#clip282)" style="stroke:#000000; stroke-linecap:round; stroke-linejoin:round; stroke-width:2; stroke-opacity:0.1; fill:none" points="194.422,1289.01 2352.76,1289.01 "/>
<polyline clip-path="url(#clip282)" style="stroke:#000000; stroke-linecap:round; stroke-linejoin:round; stroke-width:2; stroke-opacity:0.1; fill:none" points="194.422,1026.07 2352.76,1026.07 "/>
<polyline clip-path="url(#clip282)" style="stroke:#000000; stroke-linecap:round; stroke-linejoin:round; stroke-width:2; stroke-opacity:0.1; fill:none" points="194.422,763.139 2352.76,763.139 "/>
<polyline clip-path="url(#clip282)" style="stroke:#000000; stroke-linecap:round; stroke-linejoin:round; stroke-width:2; stroke-opacity:0.1; fill:none" points="194.422,500.204 2352.76,500.204 "/>
<polyline clip-path="url(#clip282)" style="stroke:#000000; stroke-linecap:round; stroke-linejoin:round; stroke-width:2; stroke-opacity:0.1; fill:none" points="194.422,237.269 2352.76,237.269 "/>
<polyline clip-path="url(#clip280)" style="stroke:#000000; stroke-linecap:round; stroke-linejoin:round; stroke-width:4; stroke-opacity:1; fill:none" points="194.422,1423.18 194.422,123.472 "/>
<polyline clip-path="url(#clip280)" style="stroke:#000000; stroke-linecap:round; stroke-linejoin:round; stroke-width:4; stroke-opacity:1; fill:none" points="194.422,1289.01 213.32,1289.01 "/>
<polyline clip-path="url(#clip280)" style="stroke:#000000; stroke-linecap:round; stroke-linejoin:round; stroke-width:4; stroke-opacity:1; fill:none" points="194.422,1026.07 213.32,1026.07 "/>
<polyline clip-path="url(#clip280)" style="stroke:#000000; stroke-linecap:round; stroke-linejoin:round; stroke-width:4; stroke-opacity:1; fill:none" points="194.422,763.139 213.32,763.139 "/>
<polyline clip-path="url(#clip280)" style="stroke:#000000; stroke-linecap:round; stroke-linejoin:round; stroke-width:4; stroke-opacity:1; fill:none" points="194.422,500.204 213.32,500.204 "/>
<polyline clip-path="url(#clip280)" style="stroke:#000000; stroke-linecap:round; stroke-linejoin:round; stroke-width:4; stroke-opacity:1; fill:none" points="194.422,237.269 213.32,237.269 "/>
<path clip-path="url(#clip280)" d="M50.9921 1289.46 L80.6679 1289.46 L80.6679 1293.4 L50.9921 1293.4 L50.9921 1289.46 Z" fill="#000000" fill-rule="nonzero" fill-opacity="1" /><path clip-path="url(#clip280)" d="M100.76 1274.81 Q97.1493 1274.81 95.3206 1278.37 Q93.515 1281.92 93.515 1289.04 Q93.515 1296.15 95.3206 1299.72 Q97.1493 1303.26 100.76 1303.26 Q104.395 1303.26 106.2 1299.72 Q108.029 1296.15 108.029 1289.04 Q108.029 1281.92 106.2 1278.37 Q104.395 1274.81 100.76 1274.81 M100.76 1271.11 Q106.571 1271.11 109.626 1275.71 Q112.705 1280.29 112.705 1289.04 Q112.705 1297.77 109.626 1302.38 Q106.571 1306.96 100.76 1306.96 Q94.9502 1306.96 91.8715 1302.38 Q88.816 1297.77 88.816 1289.04 Q88.816 1280.29 91.8715 1275.71 Q94.9502 1271.11 100.76 1271.11 Z" fill="#000000" fill-rule="nonzero" fill-opacity="1" /><path clip-path="url(#clip280)" d="M120.922 1300.41 L125.807 1300.41 L125.807 1306.29 L120.922 1306.29 L120.922 1300.41 Z" fill="#000000" fill-rule="nonzero" fill-opacity="1" /><path clip-path="url(#clip280)" d="M148.839 1275.8 L137.033 1294.25 L148.839 1294.25 L148.839 1275.8 M147.612 1271.73 L153.492 1271.73 L153.492 1294.25 L158.422 1294.25 L158.422 1298.14 L153.492 1298.14 L153.492 1306.29 L148.839 1306.29 L148.839 1298.14 L133.237 1298.14 L133.237 1293.63 L147.612 1271.73 Z" fill="#000000" fill-rule="nonzero" fill-opacity="1" /><path clip-path="url(#clip280)" d="M53.0754 1026.53 L82.7512 1026.53 L82.7512 1030.46 L53.0754 1030.46 L53.0754 1026.53 Z" fill="#000000" fill-rule="nonzero" fill-opacity="1" /><path clip-path="url(#clip280)" d="M102.844 1011.87 Q99.2326 1011.87 97.4039 1015.44 Q95.5984 1018.98 95.5984 1026.11 Q95.5984 1033.22 97.4039 1036.78 Q99.2326 1040.32 102.844 1040.32 Q106.478 1040.32 108.283 1036.78 Q110.112 1033.22 110.112 1026.11 Q110.112 1018.98 108.283 1015.44 Q106.478 1011.87 102.844 1011.87 M102.844 1008.17 Q108.654 1008.17 111.709 1012.78 Q114.788 1017.36 114.788 1026.11 Q114.788 1034.84 111.709 1039.44 Q108.654 1044.03 102.844 1044.03 Q97.0335 1044.03 93.9549 1039.44 Q90.8993 1034.84 90.8993 1026.11 Q90.8993 1017.36 93.9549 1012.78 Q97.0335 1008.17 102.844 1008.17 Z" fill="#000000" fill-rule="nonzero" fill-opacity="1" /><path clip-path="url(#clip280)" d="M123.006 1037.48 L127.89 1037.48 L127.89 1043.35 L123.006 1043.35 L123.006 1037.48 Z" fill="#000000" fill-rule="nonzero" fill-opacity="1" /><path clip-path="url(#clip280)" d="M142.103 1039.42 L158.422 1039.42 L158.422 1043.35 L136.478 1043.35 L136.478 1039.42 Q139.14 1036.66 143.723 1032.04 Q148.33 1027.38 149.51 1026.04 Q151.755 1023.52 152.635 1021.78 Q153.538 1020.02 153.538 1018.33 Q153.538 1015.58 151.593 1013.84 Q149.672 1012.1 146.57 1012.1 Q144.371 1012.1 141.918 1012.87 Q139.487 1013.63 136.709 1015.18 L136.709 1010.46 Q139.533 1009.33 141.987 1008.75 Q144.441 1008.17 146.478 1008.17 Q151.848 1008.17 155.042 1010.85 Q158.237 1013.54 158.237 1018.03 Q158.237 1020.16 157.427 1022.08 Q156.64 1023.98 154.533 1026.57 Q153.955 1027.24 150.853 1030.46 Q147.751 1033.66 142.103 1039.42 Z" fill="#000000" fill-rule="nonzero" fill-opacity="1" /><path clip-path="url(#clip280)" d="M101.246 748.938 Q97.6354 748.938 95.8067 752.503 Q94.0012 756.045 94.0012 763.174 Q94.0012 770.281 95.8067 773.845 Q97.6354 777.387 101.246 777.387 Q104.881 777.387 106.686 773.845 Q108.515 770.281 108.515 763.174 Q108.515 756.045 106.686 752.503 Q104.881 748.938 101.246 748.938 M101.246 745.234 Q107.057 745.234 110.112 749.841 Q113.191 754.424 113.191 763.174 Q113.191 771.901 110.112 776.507 Q107.057 781.091 101.246 781.091 Q95.4363 781.091 92.3576 776.507 Q89.3021 771.901 89.3021 763.174 Q89.3021 754.424 92.3576 749.841 Q95.4363 745.234 101.246 745.234 Z" fill="#000000" fill-rule="nonzero" fill-opacity="1" /><path clip-path="url(#clip280)" d="M121.408 774.54 L126.293 774.54 L126.293 780.419 L121.408 780.419 L121.408 774.54 Z" fill="#000000" fill-rule="nonzero" fill-opacity="1" /><path clip-path="url(#clip280)" d="M146.478 748.938 Q142.867 748.938 141.038 752.503 Q139.232 756.045 139.232 763.174 Q139.232 770.281 141.038 773.845 Q142.867 777.387 146.478 777.387 Q150.112 777.387 151.918 773.845 Q153.746 770.281 153.746 763.174 Q153.746 756.045 151.918 752.503 Q150.112 748.938 146.478 748.938 M146.478 745.234 Q152.288 745.234 155.343 749.841 Q158.422 754.424 158.422 763.174 Q158.422 771.901 155.343 776.507 Q152.288 781.091 146.478 781.091 Q140.668 781.091 137.589 776.507 Q134.533 771.901 134.533 763.174 Q134.533 754.424 137.589 749.841 Q140.668 745.234 146.478 745.234 Z" fill="#000000" fill-rule="nonzero" fill-opacity="1" /><path clip-path="url(#clip280)" d="M102.844 486.003 Q99.2326 486.003 97.4039 489.568 Q95.5984 493.109 95.5984 500.239 Q95.5984 507.345 97.4039 510.91 Q99.2326 514.452 102.844 514.452 Q106.478 514.452 108.283 510.91 Q110.112 507.345 110.112 500.239 Q110.112 493.109 108.283 489.568 Q106.478 486.003 102.844 486.003 M102.844 482.299 Q108.654 482.299 111.709 486.906 Q114.788 491.489 114.788 500.239 Q114.788 508.966 111.709 513.572 Q108.654 518.155 102.844 518.155 Q97.0335 518.155 93.9549 513.572 Q90.8993 508.966 90.8993 500.239 Q90.8993 491.489 93.9549 486.906 Q97.0335 482.299 102.844 482.299 Z" fill="#000000" fill-rule="nonzero" fill-opacity="1" /><path clip-path="url(#clip280)" d="M123.006 511.605 L127.89 511.605 L127.89 517.484 L123.006 517.484 L123.006 511.605 Z" fill="#000000" fill-rule="nonzero" fill-opacity="1" /><path clip-path="url(#clip280)" d="M142.103 513.549 L158.422 513.549 L158.422 517.484 L136.478 517.484 L136.478 513.549 Q139.14 510.794 143.723 506.165 Q148.33 501.512 149.51 500.169 Q151.755 497.646 152.635 495.91 Q153.538 494.151 153.538 492.461 Q153.538 489.706 151.593 487.97 Q149.672 486.234 146.57 486.234 Q144.371 486.234 141.918 486.998 Q139.487 487.762 136.709 489.313 L136.709 484.591 Q139.533 483.457 141.987 482.878 Q144.441 482.299 146.478 482.299 Q151.848 482.299 155.042 484.984 Q158.237 487.669 158.237 492.16 Q158.237 494.29 157.427 496.211 Q156.64 498.109 154.533 500.702 Q153.955 501.373 150.853 504.591 Q147.751 507.785 142.103 513.549 Z" fill="#000000" fill-rule="nonzero" fill-opacity="1" /><path clip-path="url(#clip280)" d="M100.76 223.067 Q97.1493 223.067 95.3206 226.632 Q93.515 230.174 93.515 237.304 Q93.515 244.41 95.3206 247.975 Q97.1493 251.516 100.76 251.516 Q104.395 251.516 106.2 247.975 Q108.029 244.41 108.029 237.304 Q108.029 230.174 106.2 226.632 Q104.395 223.067 100.76 223.067 M100.76 219.364 Q106.571 219.364 109.626 223.97 Q112.705 228.554 112.705 237.304 Q112.705 246.03 109.626 250.637 Q106.571 255.22 100.76 255.22 Q94.9502 255.22 91.8715 250.637 Q88.816 246.03 88.816 237.304 Q88.816 228.554 91.8715 223.97 Q94.9502 219.364 100.76 219.364 Z" fill="#000000" fill-rule="nonzero" fill-opacity="1" /><path clip-path="url(#clip280)" d="M120.922 248.669 L125.807 248.669 L125.807 254.549 L120.922 254.549 L120.922 248.669 Z" fill="#000000" fill-rule="nonzero" fill-opacity="1" /><path clip-path="url(#clip280)" d="M148.839 224.063 L137.033 242.512 L148.839 242.512 L148.839 224.063 M147.612 219.989 L153.492 219.989 L153.492 242.512 L158.422 242.512 L158.422 246.401 L153.492 246.401 L153.492 254.549 L148.839 254.549 L148.839 246.401 L133.237 246.401 L133.237 241.887 L147.612 219.989 Z" fill="#000000" fill-rule="nonzero" fill-opacity="1" /><path clip-path="url(#clip280)" d="M681.651 12.096 L689.833 12.096 L689.833 65.6895 L719.284 65.6895 L719.284 72.576 L681.651 72.576 L681.651 12.096 Z" fill="#000000" fill-rule="nonzero" fill-opacity="1" /><path clip-path="url(#clip280)" d="M748.166 49.7694 Q739.133 49.7694 735.649 51.8354 Q732.165 53.9013 732.165 58.8839 Q732.165 62.8538 734.758 65.2034 Q737.391 67.5124 741.888 67.5124 Q748.085 67.5124 751.812 63.1374 Q755.58 58.7219 755.58 51.4303 L755.58 49.7694 L748.166 49.7694 M763.033 46.6907 L763.033 72.576 L755.58 72.576 L755.58 65.6895 Q753.028 69.8214 749.22 71.8063 Q745.412 73.7508 739.903 73.7508 Q732.935 73.7508 728.803 69.8619 Q724.712 65.9325 724.712 59.3701 Q724.712 51.7138 729.816 47.825 Q734.961 43.9361 745.128 43.9361 L755.58 43.9361 L755.58 43.2069 Q755.58 38.0623 752.177 35.2672 Q748.815 32.4315 742.698 32.4315 Q738.809 32.4315 735.123 33.3632 Q731.436 34.295 728.033 36.1584 L728.033 29.2718 Q732.125 27.692 735.973 26.9223 Q739.822 26.1121 743.467 26.1121 Q753.311 26.1121 758.172 31.2163 Q763.033 36.3204 763.033 46.6907 Z" fill="#000000" fill-rule="nonzero" fill-opacity="1" /><path clip-path="url(#clip280)" d="M807.31 28.5427 L807.31 35.5912 Q804.15 33.9709 800.747 33.1607 Q797.344 32.3505 793.699 32.3505 Q788.149 32.3505 785.354 34.0519 Q782.599 35.7533 782.599 39.156 Q782.599 41.7486 784.584 43.2475 Q786.569 44.7058 792.564 46.0426 L795.116 46.6097 Q803.056 48.3111 806.378 51.4303 Q809.74 54.509 809.74 60.0587 Q809.74 66.3781 804.717 70.0644 Q799.734 73.7508 790.985 73.7508 Q787.339 73.7508 783.369 73.0216 Q779.439 72.3329 775.064 70.9151 L775.064 63.2184 Q779.196 65.3654 783.207 66.4591 Q787.217 67.5124 791.147 67.5124 Q796.413 67.5124 799.248 65.73 Q802.084 63.9071 802.084 60.6258 Q802.084 57.5877 800.018 55.9673 Q797.993 54.3469 791.066 52.8481 L788.473 52.2405 Q781.546 50.7821 778.467 47.7845 Q775.389 44.7463 775.389 39.4801 Q775.389 33.0797 779.926 29.5959 Q784.463 26.1121 792.807 26.1121 Q796.939 26.1121 800.585 26.7198 Q804.231 27.3274 807.31 28.5427 Z" fill="#000000" fill-rule="nonzero" fill-opacity="1" /><path clip-path="url(#clip280)" d="M850.533 28.5427 L850.533 35.5912 Q847.373 33.9709 843.97 33.1607 Q840.568 32.3505 836.922 32.3505 Q831.372 32.3505 828.577 34.0519 Q825.822 35.7533 825.822 39.156 Q825.822 41.7486 827.807 43.2475 Q829.792 44.7058 835.788 46.0426 L838.34 46.6097 Q846.279 48.3111 849.601 51.4303 Q852.963 54.509 852.963 60.0587 Q852.963 66.3781 847.94 70.0644 Q842.958 73.7508 834.208 73.7508 Q830.562 73.7508 826.592 73.0216 Q822.663 72.3329 818.288 70.9151 L818.288 63.2184 Q822.42 65.3654 826.43 66.4591 Q830.44 67.5124 834.37 67.5124 Q839.636 67.5124 842.472 65.73 Q845.307 63.9071 845.307 60.6258 Q845.307 57.5877 843.241 55.9673 Q841.216 54.3469 834.289 52.8481 L831.696 52.2405 Q824.769 50.7821 821.69 47.7845 Q818.612 44.7463 818.612 39.4801 Q818.612 33.0797 823.149 29.5959 Q827.686 26.1121 836.031 26.1121 Q840.163 26.1121 843.808 26.7198 Q847.454 27.3274 850.533 28.5427 Z" fill="#000000" fill-rule="nonzero" fill-opacity="1" /><path clip-path="url(#clip280)" d="M882.413 32.4315 Q876.418 32.4315 872.934 37.1306 Q869.451 41.7891 869.451 49.9314 Q869.451 58.0738 872.894 62.7728 Q876.378 67.4314 882.413 67.4314 Q888.368 67.4314 891.852 62.7323 Q895.336 58.0333 895.336 49.9314 Q895.336 41.8701 891.852 37.1711 Q888.368 32.4315 882.413 32.4315 M882.413 26.1121 Q892.136 26.1121 897.685 32.4315 Q903.235 38.7509 903.235 49.9314 Q903.235 61.0714 897.685 67.4314 Q892.136 73.7508 882.413 73.7508 Q872.651 73.7508 867.101 67.4314 Q861.592 61.0714 861.592 49.9314 Q861.592 38.7509 867.101 32.4315 Q872.651 26.1121 882.413 26.1121 Z" fill="#000000" fill-rule="nonzero" fill-opacity="1" /><path clip-path="url(#clip280)" d="M968.252 34.1734 Q966.996 33.4443 965.497 33.1202 Q964.039 32.7556 962.257 32.7556 Q955.937 32.7556 952.535 36.8875 Q949.172 40.9789 949.172 48.6757 L949.172 72.576 L941.678 72.576 L941.678 27.2059 L949.172 27.2059 L949.172 34.2544 Q951.522 30.1225 955.289 28.1376 Q959.057 26.1121 964.444 26.1121 Q965.214 26.1121 966.146 26.2337 Q967.077 26.3147 968.212 26.5172 L968.252 34.1734 Z" fill="#000000" fill-rule="nonzero" fill-opacity="1" /><path clip-path="url(#clip280)" d="M1013.06 48.0275 L1013.06 51.6733 L978.784 51.6733 Q979.271 59.3701 983.402 63.421 Q987.575 67.4314 994.988 67.4314 Q999.282 67.4314 1003.29 66.3781 Q1007.34 65.3249 1011.31 63.2184 L1011.31 70.267 Q1007.3 71.9684 1003.09 72.8596 Q998.877 73.7508 994.542 73.7508 Q983.686 73.7508 977.326 67.4314 Q971.007 61.1119 971.007 50.3365 Q971.007 39.1965 977.002 32.6746 Q983.038 26.1121 993.246 26.1121 Q1002.4 26.1121 1007.71 32.0264 Q1013.06 37.9003 1013.06 48.0275 M1005.6 45.84 Q1005.52 39.7232 1002.16 36.0774 Q998.836 32.4315 993.327 32.4315 Q987.089 32.4315 983.321 35.9558 Q979.595 39.4801 979.028 45.8805 L1005.6 45.84 Z" fill="#000000" fill-rule="nonzero" fill-opacity="1" /><path clip-path="url(#clip280)" d="M1055.14 49.3643 Q1055.14 41.2625 1051.78 36.8065 Q1048.46 32.3505 1042.42 32.3505 Q1036.43 32.3505 1033.07 36.8065 Q1029.74 41.2625 1029.74 49.3643 Q1029.74 57.4256 1033.07 61.8816 Q1036.43 66.3376 1042.42 66.3376 Q1048.46 66.3376 1051.78 61.8816 Q1055.14 57.4256 1055.14 49.3643 M1062.6 66.9452 Q1062.6 78.5308 1057.45 84.1616 Q1052.31 89.8329 1041.69 89.8329 Q1037.77 89.8329 1034.28 89.2252 Q1030.8 88.6581 1027.52 87.4428 L1027.52 80.1917 Q1030.8 81.9741 1034 82.8248 Q1037.2 83.6755 1040.52 83.6755 Q1047.85 83.6755 1051.5 79.8271 Q1055.14 76.0193 1055.14 68.282 L1055.14 64.5957 Q1052.83 68.6061 1049.23 70.5911 Q1045.62 72.576 1040.6 72.576 Q1032.26 72.576 1027.15 66.2161 Q1022.05 59.8562 1022.05 49.3643 Q1022.05 38.832 1027.15 32.472 Q1032.26 26.1121 1040.6 26.1121 Q1045.62 26.1121 1049.23 28.0971 Q1052.83 30.082 1055.14 34.0924 L1055.14 27.2059 L1062.6 27.2059 L1062.6 66.9452 Z" fill="#000000" fill-rule="nonzero" fill-opacity="1" /><path clip-path="url(#clip280)" d="M1104.24 34.1734 Q1102.99 33.4443 1101.49 33.1202 Q1100.03 32.7556 1098.25 32.7556 Q1091.93 32.7556 1088.52 36.8875 Q1085.16 40.9789 1085.16 48.6757 L1085.16 72.576 L1077.67 72.576 L1077.67 27.2059 L1085.16 27.2059 L1085.16 34.2544 Q1087.51 30.1225 1091.28 28.1376 Q1095.05 26.1121 1100.43 26.1121 Q1101.2 26.1121 1102.13 26.2337 Q1103.07 26.3147 1104.2 26.5172 L1104.24 34.1734 Z" fill="#000000" fill-rule="nonzero" fill-opacity="1" /><path clip-path="url(#clip280)" d="M1149.04 48.0275 L1149.04 51.6733 L1114.77 51.6733 Q1115.26 59.3701 1119.39 63.421 Q1123.56 67.4314 1130.98 67.4314 Q1135.27 67.4314 1139.28 66.3781 Q1143.33 65.3249 1147.3 63.2184 L1147.3 70.267 Q1143.29 71.9684 1139.08 72.8596 Q1134.87 73.7508 1130.53 73.7508 Q1119.67 73.7508 1113.31 67.4314 Q1107 61.1119 1107 50.3365 Q1107 39.1965 1112.99 32.6746 Q1119.03 26.1121 1129.24 26.1121 Q1138.39 26.1121 1143.7 32.0264 Q1149.04 37.9003 1149.04 48.0275 M1141.59 45.84 Q1141.51 39.7232 1138.15 36.0774 Q1134.83 32.4315 1129.32 32.4315 Q1123.08 32.4315 1119.31 35.9558 Q1115.58 39.4801 1115.02 45.8805 L1141.59 45.84 Z" fill="#000000" fill-rule="nonzero" fill-opacity="1" /><path clip-path="url(#clip280)" d="M1190.2 28.5427 L1190.2 35.5912 Q1187.04 33.9709 1183.64 33.1607 Q1180.24 32.3505 1176.59 32.3505 Q1171.04 32.3505 1168.25 34.0519 Q1165.49 35.7533 1165.49 39.156 Q1165.49 41.7486 1167.48 43.2475 Q1169.46 44.7058 1175.46 46.0426 L1178.01 46.6097 Q1185.95 48.3111 1189.27 51.4303 Q1192.63 54.509 1192.63 60.0587 Q1192.63 66.3781 1187.61 70.0644 Q1182.63 73.7508 1173.88 73.7508 Q1170.23 73.7508 1166.26 73.0216 Q1162.33 72.3329 1157.96 70.9151 L1157.96 63.2184 Q1162.09 65.3654 1166.1 66.4591 Q1170.11 67.5124 1174.04 67.5124 Q1179.3 67.5124 1182.14 65.73 Q1184.98 63.9071 1184.98 60.6258 Q1184.98 57.5877 1182.91 55.9673 Q1180.88 54.3469 1173.96 52.8481 L1171.36 52.2405 Q1164.44 50.7821 1161.36 47.7845 Q1158.28 44.7463 1158.28 39.4801 Q1158.28 33.0797 1162.82 29.5959 Q1167.35 26.1121 1175.7 26.1121 Q1179.83 26.1121 1183.48 26.7198 Q1187.12 27.3274 1190.2 28.5427 Z" fill="#000000" fill-rule="nonzero" fill-opacity="1" /><path clip-path="url(#clip280)" d="M1233.42 28.5427 L1233.42 35.5912 Q1230.26 33.9709 1226.86 33.1607 Q1223.46 32.3505 1219.81 32.3505 Q1214.26 32.3505 1211.47 34.0519 Q1208.71 35.7533 1208.71 39.156 Q1208.71 41.7486 1210.7 43.2475 Q1212.68 44.7058 1218.68 46.0426 L1221.23 46.6097 Q1229.17 48.3111 1232.49 51.4303 Q1235.85 54.509 1235.85 60.0587 Q1235.85 66.3781 1230.83 70.0644 Q1225.85 73.7508 1217.1 73.7508 Q1213.45 73.7508 1209.48 73.0216 Q1205.55 72.3329 1201.18 70.9151 L1201.18 63.2184 Q1205.31 65.3654 1209.32 66.4591 Q1213.33 67.5124 1217.26 67.5124 Q1222.53 67.5124 1225.36 65.73 Q1228.2 63.9071 1228.2 60.6258 Q1228.2 57.5877 1226.13 55.9673 Q1224.11 54.3469 1217.18 52.8481 L1214.59 52.2405 Q1207.66 50.7821 1204.58 47.7845 Q1201.5 44.7463 1201.5 39.4801 Q1201.5 33.0797 1206.04 29.5959 Q1210.58 26.1121 1218.92 26.1121 Q1223.05 26.1121 1226.7 26.7198 Q1230.35 27.3274 1233.42 28.5427 Z" fill="#000000" fill-rule="nonzero" fill-opacity="1" /><path clip-path="url(#clip280)" d="M1247.72 27.2059 L1255.18 27.2059 L1255.18 72.576 L1247.72 72.576 L1247.72 27.2059 M1247.72 9.54393 L1255.18 9.54393 L1255.18 18.9825 L1247.72 18.9825 L1247.72 9.54393 Z" fill="#000000" fill-rule="nonzero" fill-opacity="1" /><path clip-path="url(#clip280)" d="M1288.35 32.4315 Q1282.36 32.4315 1278.88 37.1306 Q1275.39 41.7891 1275.39 49.9314 Q1275.39 58.0738 1278.83 62.7728 Q1282.32 67.4314 1288.35 67.4314 Q1294.31 67.4314 1297.79 62.7323 Q1301.28 58.0333 1301.28 49.9314 Q1301.28 41.8701 1297.79 37.1711 Q1294.31 32.4315 1288.35 32.4315 M1288.35 26.1121 Q1298.08 26.1121 1303.63 32.4315 Q1309.18 38.7509 1309.18 49.9314 Q1309.18 61.0714 1303.63 67.4314 Q1298.08 73.7508 1288.35 73.7508 Q1278.59 73.7508 1273.04 67.4314 Q1267.53 61.0714 1267.53 49.9314 Q1267.53 38.7509 1273.04 32.4315 Q1278.59 26.1121 1288.35 26.1121 Z" fill="#000000" fill-rule="nonzero" fill-opacity="1" /><path clip-path="url(#clip280)" d="M1359.25 45.1919 L1359.25 72.576 L1351.79 72.576 L1351.79 45.4349 Q1351.79 38.994 1349.28 35.7938 Q1346.77 32.5936 1341.75 32.5936 Q1335.71 32.5936 1332.23 36.4419 Q1328.74 40.2903 1328.74 46.9338 L1328.74 72.576 L1321.25 72.576 L1321.25 27.2059 L1328.74 27.2059 L1328.74 34.2544 Q1331.42 30.163 1335.02 28.1376 Q1338.67 26.1121 1343.41 26.1121 Q1351.22 26.1121 1355.23 30.9732 Q1359.25 35.7938 1359.25 45.1919 Z" fill="#000000" fill-rule="nonzero" fill-opacity="1" /><path clip-path="url(#clip280)" d="M1433.13 28.9478 L1433.13 35.9153 Q1429.97 34.1734 1426.77 33.3227 Q1423.61 32.4315 1420.37 32.4315 Q1413.12 32.4315 1409.11 37.0496 Q1405.1 41.6271 1405.1 49.9314 Q1405.1 58.2358 1409.11 62.8538 Q1413.12 67.4314 1420.37 67.4314 Q1423.61 67.4314 1426.77 66.5807 Q1429.97 65.6895 1433.13 63.9476 L1433.13 70.8341 Q1430.01 72.2924 1426.65 73.0216 Q1423.33 73.7508 1419.56 73.7508 Q1409.31 73.7508 1403.28 67.3098 Q1397.24 60.8689 1397.24 49.9314 Q1397.24 38.832 1403.32 32.472 Q1409.44 26.1121 1420.05 26.1121 Q1423.49 26.1121 1426.77 26.8413 Q1430.06 27.5299 1433.13 28.9478 Z" fill="#000000" fill-rule="nonzero" fill-opacity="1" /><path clip-path="url(#clip280)" d="M1463.68 32.4315 Q1457.68 32.4315 1454.2 37.1306 Q1450.71 41.7891 1450.71 49.9314 Q1450.71 58.0738 1454.16 62.7728 Q1457.64 67.4314 1463.68 67.4314 Q1469.63 67.4314 1473.12 62.7323 Q1476.6 58.0333 1476.6 49.9314 Q1476.6 41.8701 1473.12 37.1711 Q1469.63 32.4315 1463.68 32.4315 M1463.68 26.1121 Q1473.4 26.1121 1478.95 32.4315 Q1484.5 38.7509 1484.5 49.9314 Q1484.5 61.0714 1478.95 67.4314 Q1473.4 73.7508 1463.68 73.7508 Q1453.92 73.7508 1448.37 67.4314 Q1442.86 61.0714 1442.86 49.9314 Q1442.86 38.7509 1448.37 32.4315 Q1453.92 26.1121 1463.68 26.1121 Z" fill="#000000" fill-rule="nonzero" fill-opacity="1" /><path clip-path="url(#clip280)" d="M1535.66 48.0275 L1535.66 51.6733 L1501.39 51.6733 Q1501.88 59.3701 1506.01 63.421 Q1510.18 67.4314 1517.6 67.4314 Q1521.89 67.4314 1525.9 66.3781 Q1529.95 65.3249 1533.92 63.2184 L1533.92 70.267 Q1529.91 71.9684 1525.7 72.8596 Q1521.48 73.7508 1517.15 73.7508 Q1506.29 73.7508 1499.93 67.4314 Q1493.61 61.1119 1493.61 50.3365 Q1493.61 39.1965 1499.61 32.6746 Q1505.65 26.1121 1515.85 26.1121 Q1525.01 26.1121 1530.32 32.0264 Q1535.66 37.9003 1535.66 48.0275 M1528.21 45.84 Q1528.13 39.7232 1524.77 36.0774 Q1521.44 32.4315 1515.93 32.4315 Q1509.7 32.4315 1505.93 35.9558 Q1502.2 39.4801 1501.63 45.8805 L1528.21 45.84 Z" fill="#000000" fill-rule="nonzero" fill-opacity="1" /><path clip-path="url(#clip280)" d="M1570.86 9.54393 L1570.86 15.7418 L1563.74 15.7418 Q1559.72 15.7418 1558.14 17.3622 Q1556.61 18.9825 1556.61 23.1955 L1556.61 27.2059 L1568.88 27.2059 L1568.88 32.9987 L1556.61 32.9987 L1556.61 72.576 L1549.11 72.576 L1549.11 32.9987 L1541.98 32.9987 L1541.98 27.2059 L1549.11 27.2059 L1549.11 24.0462 Q1549.11 16.471 1552.64 13.0277 Q1556.16 9.54393 1563.82 9.54393 L1570.86 9.54393 Z" fill="#000000" fill-rule="nonzero" fill-opacity="1" /><path clip-path="url(#clip280)" d="M1600.07 9.54393 L1600.07 15.7418 L1592.94 15.7418 Q1588.93 15.7418 1587.35 17.3622 Q1585.81 18.9825 1585.81 23.1955 L1585.81 27.2059 L1598.09 27.2059 L1598.09 32.9987 L1585.81 32.9987 L1585.81 72.576 L1578.32 72.576 L1578.32 32.9987 L1571.19 32.9987 L1571.19 27.2059 L1578.32 27.2059 L1578.32 24.0462 Q1578.32 16.471 1581.84 13.0277 Q1585.37 9.54393 1593.02 9.54393 L1600.07 9.54393 Z" fill="#000000" fill-rule="nonzero" fill-opacity="1" /><path clip-path="url(#clip280)" d="M1606.31 27.2059 L1613.76 27.2059 L1613.76 72.576 L1606.31 72.576 L1606.31 27.2059 M1606.31 9.54393 L1613.76 9.54393 L1613.76 18.9825 L1606.31 18.9825 L1606.31 9.54393 Z" fill="#000000" fill-rule="nonzero" fill-opacity="1" /><path clip-path="url(#clip280)" d="M1662.01 28.9478 L1662.01 35.9153 Q1658.85 34.1734 1655.65 33.3227 Q1652.49 32.4315 1649.25 32.4315 Q1642 32.4315 1637.99 37.0496 Q1633.98 41.6271 1633.98 49.9314 Q1633.98 58.2358 1637.99 62.8538 Q1642 67.4314 1649.25 67.4314 Q1652.49 67.4314 1655.65 66.5807 Q1658.85 65.6895 1662.01 63.9476 L1662.01 70.8341 Q1658.89 72.2924 1655.53 73.0216 Q1652.21 73.7508 1648.44 73.7508 Q1638.19 73.7508 1632.15 67.3098 Q1626.12 60.8689 1626.12 49.9314 Q1626.12 38.832 1632.2 32.472 Q1638.31 26.1121 1648.93 26.1121 Q1652.37 26.1121 1655.65 26.8413 Q1658.93 27.5299 1662.01 28.9478 Z" fill="#000000" fill-rule="nonzero" fill-opacity="1" /><path clip-path="url(#clip280)" d="M1674.97 27.2059 L1682.43 27.2059 L1682.43 72.576 L1674.97 72.576 L1674.97 27.2059 M1674.97 9.54393 L1682.43 9.54393 L1682.43 18.9825 L1674.97 18.9825 L1674.97 9.54393 Z" fill="#000000" fill-rule="nonzero" fill-opacity="1" /><path clip-path="url(#clip280)" d="M1736.83 48.0275 L1736.83 51.6733 L1702.56 51.6733 Q1703.05 59.3701 1707.18 63.421 Q1711.35 67.4314 1718.76 67.4314 Q1723.06 67.4314 1727.07 66.3781 Q1731.12 65.3249 1735.09 63.2184 L1735.09 70.267 Q1731.08 71.9684 1726.86 72.8596 Q1722.65 73.7508 1718.32 73.7508 Q1707.46 73.7508 1701.1 67.4314 Q1694.78 61.1119 1694.78 50.3365 Q1694.78 39.1965 1700.78 32.6746 Q1706.81 26.1121 1717.02 26.1121 Q1726.18 26.1121 1731.48 32.0264 Q1736.83 37.9003 1736.83 48.0275 M1729.38 45.84 Q1729.3 39.7232 1725.93 36.0774 Q1722.61 32.4315 1717.1 32.4315 Q1710.86 32.4315 1707.1 35.9558 Q1703.37 39.4801 1702.8 45.8805 L1729.38 45.84 Z" fill="#000000" fill-rule="nonzero" fill-opacity="1" /><path clip-path="url(#clip280)" d="M1786.78 45.1919 L1786.78 72.576 L1779.32 72.576 L1779.32 45.4349 Q1779.32 38.994 1776.81 35.7938 Q1774.3 32.5936 1769.28 32.5936 Q1763.24 32.5936 1759.76 36.4419 Q1756.27 40.2903 1756.27 46.9338 L1756.27 72.576 L1748.78 72.576 L1748.78 27.2059 L1756.27 27.2059 L1756.27 34.2544 Q1758.95 30.163 1762.55 28.1376 Q1766.2 26.1121 1770.94 26.1121 Q1778.76 26.1121 1782.77 30.9732 Q1786.78 35.7938 1786.78 45.1919 Z" fill="#000000" fill-rule="nonzero" fill-opacity="1" /><path clip-path="url(#clip280)" d="M1809.02 14.324 L1809.02 27.2059 L1824.37 27.2059 L1824.37 32.9987 L1809.02 32.9987 L1809.02 57.6282 Q1809.02 63.1779 1810.52 64.7578 Q1812.06 66.3376 1816.71 66.3376 L1824.37 66.3376 L1824.37 72.576 L1816.71 72.576 Q1808.09 72.576 1804.8 69.3758 Q1801.52 66.1351 1801.52 57.6282 L1801.52 32.9987 L1796.05 32.9987 L1796.05 27.2059 L1801.52 27.2059 L1801.52 14.324 L1809.02 14.324 Z" fill="#000000" fill-rule="nonzero" fill-opacity="1" /><path clip-path="url(#clip280)" d="M1863.1 28.5427 L1863.1 35.5912 Q1859.94 33.9709 1856.53 33.1607 Q1853.13 32.3505 1849.49 32.3505 Q1843.94 32.3505 1841.14 34.0519 Q1838.39 35.7533 1838.39 39.156 Q1838.39 41.7486 1840.37 43.2475 Q1842.36 44.7058 1848.35 46.0426 L1850.9 46.6097 Q1858.84 48.3111 1862.17 51.4303 Q1865.53 54.509 1865.53 60.0587 Q1865.53 66.3781 1860.5 70.0644 Q1855.52 73.7508 1846.77 73.7508 Q1843.13 73.7508 1839.16 73.0216 Q1835.23 72.3329 1830.85 70.9151 L1830.85 63.2184 Q1834.98 65.3654 1838.99 66.4591 Q1843 67.5124 1846.93 67.5124 Q1852.2 67.5124 1855.04 65.73 Q1857.87 63.9071 1857.87 60.6258 Q1857.87 57.5877 1855.81 55.9673 Q1853.78 54.3469 1846.85 52.8481 L1844.26 52.2405 Q1837.33 50.7821 1834.25 47.7845 Q1831.18 44.7463 1831.18 39.4801 Q1831.18 33.0797 1835.71 29.5959 Q1840.25 26.1121 1848.59 26.1121 Q1852.73 26.1121 1856.37 26.7198 Q1860.02 27.3274 1863.1 28.5427 Z" fill="#000000" fill-rule="nonzero" fill-opacity="1" /><polyline clip-path="url(#clip282)" style="stroke:#009af9; stroke-linecap:round; stroke-linejoin:round; stroke-width:4; stroke-opacity:1; fill:none" points="255.507,763.14 561.98,763.141 741.256,763.14 868.453,763.14 967.116,763.14 1047.73,763.144 1115.89,763.142 1174.93,763.14 1227,763.105 1273.59,763.087 1315.73,763.137 1354.2,763.138 1389.59,763.137 1422.36,763.136 1452.86,763.131 1481.4,763.129 1508.2,763.119 1533.48,763.131 1557.38,763.117 1580.06,763.125 1601.63,763.129 1622.2,763.12 1641.86,763.12 1660.68,763.122 1678.72,763.129 1696.07,763.133 1712.75,763.135 1728.83,763.129 1744.35,763.126 1759.34,763.126 1773.84,763.128 1787.87,763.134 1801.48,763.133 1814.68,763.133 1827.49,763.135 1839.95,763.136 1852.06,763.135 1863.86,763.144 1875.34,763.142 1886.54,763.139 1897.45,763.137 1908.11,763.137 1918.51,763.136 1928.68,763.135 1938.61,763.134 1948.33,763.134 1957.84,763.13 1967.15,763.128 1976.27,763.128 1985.2,763.13 1993.95,763.134 2002.54,763.127 2010.96,763.125 2019.23,763.116 2027.34,763.122 2035.31,763.125 2043.13,763.118 2050.82,763.127 2058.38,763.117 2065.81,763.129 2073.12,763.1 2080.31,763.139 2087.38,763.14 2094.35,763.139 2101.2,763.14 2107.95,763.14 2114.6,763.14 2121.15,763.14 2127.61,763.142 2133.97,763.143 2140.24,763.143 2146.42,763.142 2152.52,763.14 2158.54,763.136 2164.47,763.134 2170.33,763.134 2176.11,763.133 2181.81,763.139 2187.45,763.139 2193.01,763.139 2198.5,763.139 2203.93,763.139 2209.29,763.139 2214.58,763.139 2219.81,763.139 2224.99,763.139 2230.1,763.139 2235.15,763.139 2240.15,763.139 2245.09,763.139 2249.97,763.139 2254.8,763.139 2259.58,763.139 2264.31,763.139 2268.99,763.139 2273.62,763.139 2278.2,763.139 2282.74,763.139 2287.23,763.139 2291.67,763.139 "/>
<polyline clip-path="url(#clip282)" style="stroke:#e26f46; stroke-linecap:round; stroke-linejoin:round; stroke-width:4; stroke-opacity:1; fill:none" points="255.507,936.141 561.98,917.527 741.256,900.203 868.453,882.911 967.116,865.605 1047.73,847.912 1115.89,829.435 1174.93,811.358 1227,793.532 1273.59,775.531 1315.73,763.139 1354.2,763.136 1389.59,763.135 1422.36,763.134 1452.86,763.13 1481.4,763.128 1508.2,763.12 1533.48,763.134 1557.38,763.123 1580.06,763.133 1601.63,763.14 1622.2,763.132 1641.86,763.133 1660.68,763.131 1678.72,763.143 1696.07,763.119 1712.75,763.126 1728.83,763.107 1744.35,763.099 1759.34,763.1 1773.84,763.106 1787.87,763.124 1801.48,763.121 1814.68,763.12 1827.49,763.125 1839.95,763.127 1852.06,763.128 1863.86,763.14 1875.34,763.136 1886.54,763.131 1897.45,763.128 1908.11,763.128 1918.51,763.127 1928.68,763.126 1938.61,763.125 1948.33,763.126 1957.84,763.119 1967.15,763.117 1976.27,763.118 1985.2,763.123 1993.95,763.129 2002.54,763.119 2010.96,763.118 2019.23,763.105 2027.34,763.114 2035.31,763.119 2043.13,763.109 2050.82,763.121 2058.38,763.107 2065.81,763.123 2073.12,763.082 2080.31,763.138 2087.38,763.138 2094.35,763.137 2101.2,763.138 2107.95,763.139 2114.6,763.14 2121.15,763.139 2127.61,763.141 2133.97,763.14 2140.24,763.141 2146.42,763.138 2152.52,763.139 2158.54,763.135 2164.47,763.135 2170.33,763.135 2176.11,763.133 2181.81,763.139 2187.45,763.139 2193.01,763.139 2198.5,763.139 2203.93,763.139 2209.29,763.139 2214.58,763.139 2219.81,763.139 2224.99,763.139 2230.1,763.139 2235.15,763.139 2240.15,763.139 2245.09,763.139 2249.97,763.139 2254.8,763.139 2259.58,763.139 2264.31,763.139 2268.99,763.139 2273.62,763.139 2278.2,763.139 2282.74,763.139 2287.23,763.139 2291.67,763.139 "/>
<polyline clip-path="url(#clip282)" style="stroke:#3da44d; stroke-linecap:round; stroke-linejoin:round; stroke-width:4; stroke-opacity:1; fill:none" points="255.507,336.964 561.98,339.795 741.256,341.843 868.453,343.939 967.116,345.933 1047.73,347.467 1115.89,347.811 1174.93,348.874 1227,350.247 1273.59,351.555 1315.73,353.648 1354.2,357.392 1389.59,361.155 1422.36,364.925 1452.86,368.689 1481.4,372.457 1508.2,376.225 1533.48,380.064 1557.38,383.834 1580.06,387.66 1601.63,391.469 1622.2,395.257 1641.86,399.042 1660.68,402.776 1678.72,406.57 1696.07,410.322 1712.75,415.549 1728.83,420.84 1744.35,426.098 1759.34,431.324 1773.84,436.516 1787.87,441.685 1801.48,446.92 1814.68,452.133 1827.49,457.372 1839.95,462.611 1852.06,467.869 1863.86,474.39 1875.34,481.194 1886.54,488.005 1897.45,494.841 1908.11,501.693 1918.51,508.552 1928.68,515.42 1938.61,522.286 1948.33,529.17 1957.84,536.035 1967.15,542.922 1976.27,549.808 1985.2,556.687 1993.95,563.533 2002.54,570.379 2010.96,577.212 2019.23,584.061 2027.34,590.86 2035.31,597.66 2043.13,604.485 2050.82,611.262 2058.38,618.099 2065.81,624.898 2073.12,631.772 2080.31,638.55 2087.38,645.37 2094.35,652.216 2101.2,659.057 2107.95,665.903 2114.6,672.772 2121.15,679.538 2127.61,686.368 2133.97,693.157 2140.24,700.06 2146.42,706.932 2152.52,713.832 2158.54,723.528 2164.47,733.44 2170.33,743.297 2176.11,753.043 2181.81,762.977 2187.45,763.139 2193.01,763.139 2198.5,763.139 2203.93,763.139 2209.29,763.139 2214.58,763.139 2219.81,763.139 2224.99,763.139 2230.1,763.139 2235.15,763.139 2240.15,763.139 2245.09,763.139 2249.97,763.139 2254.8,763.139 2259.58,763.139 2264.31,763.139 2268.99,763.139 2273.62,763.139 2278.2,763.139 2282.74,763.139 2287.23,763.139 2291.67,763.139 "/>
<polyline clip-path="url(#clip282)" style="stroke:#c271d2; stroke-linecap:round; stroke-linejoin:round; stroke-width:4; stroke-opacity:1; fill:none" points="255.507,514.297 561.98,525.064 741.256,534.083 868.453,543.081 967.116,552.076 1047.73,561.132 1115.89,570.289 1174.93,580.214 1227,590.408 1273.59,600.809 1315.73,609.664 1354.2,615.616 1389.59,621.571 1422.36,627.527 1452.86,633.487 1481.4,639.437 1508.2,645.389 1533.48,651.329 1557.38,657.265 1580.06,663.207 1601.63,669.157 1622.2,675.117 1641.86,681.073 1660.68,687.045 1678.72,692.997 1696.07,698.952 1712.75,704.682 1728.83,710.423 1744.35,716.165 1759.34,721.905 1773.84,727.644 1787.87,733.375 1801.48,739.116 1814.68,744.858 1827.49,750.58 1839.95,756.311 1852.06,762.054 1863.86,763.15 1875.34,763.15 1886.54,763.148 1897.45,763.148 1908.11,763.147 1918.51,763.147 1928.68,763.146 1938.61,763.145 1948.33,763.144 1957.84,763.142 1967.15,763.14 1976.27,763.139 1985.2,763.138 1993.95,763.138 2002.54,763.135 2010.96,763.134 2019.23,763.128 2027.34,763.13 2035.31,763.131 2043.13,763.127 2050.82,763.134 2058.38,763.13 2065.81,763.137 2073.12,763.122 2080.31,763.142 2087.38,763.143 2094.35,763.143 2101.2,763.144 2107.95,763.144 2114.6,763.141 2121.15,763.142 2127.61,763.144 2133.97,763.149 2140.24,763.146 2146.42,763.148 2152.52,763.141 2158.54,763.136 2164.47,763.133 2170.33,763.132 2176.11,763.136 2181.81,763.139 2187.45,763.139 2193.01,763.139 2198.5,763.139 2203.93,763.139 2209.29,763.139 2214.58,763.139 2219.81,763.139 2224.99,763.139 2230.1,763.139 2235.15,763.139 2240.15,763.139 2245.09,763.139 2249.97,763.139 2254.8,763.139 2259.58,763.139 2264.31,763.139 2268.99,763.139 2273.62,763.139 2278.2,763.139 2282.74,763.139 2287.23,763.139 2291.67,763.139 "/>
<polyline clip-path="url(#clip282)" style="stroke:#ac8d18; stroke-linecap:round; stroke-linejoin:round; stroke-width:4; stroke-opacity:1; fill:none" points="255.507,887.461 561.98,839.961 741.256,819.078 868.453,797.996 967.116,777.177 1047.73,763.158 1115.89,763.152 1174.93,763.142 1227,763.173 1273.59,763.111 1315.73,763.138 1354.2,763.138 1389.59,763.138 1422.36,763.134 1452.86,763.123 1481.4,763.118 1508.2,763.095 1533.48,763.117 1557.38,763.083 1580.06,763.097 1601.63,763.105 1622.2,763.083 1641.86,763.085 1660.68,763.094 1678.72,763.105 1696.07,763.126 1712.75,763.13 1728.83,763.121 1744.35,763.118 1759.34,763.119 1773.84,763.124 1787.87,763.136 1801.48,763.135 1814.68,763.137 1827.49,763.14 1839.95,763.143 1852.06,763.142 1863.86,763.146 1875.34,763.144 1886.54,763.141 1897.45,763.14 1908.11,763.138 1918.51,763.137 1928.68,763.136 1938.61,763.134 1948.33,763.134 1957.84,763.129 1967.15,763.127 1976.27,763.126 1985.2,763.129 1993.95,763.133 2002.54,763.124 2010.96,763.12 2019.23,763.103 2027.34,763.111 2035.31,763.114 2043.13,763.1 2050.82,763.115 2058.38,763.099 2065.81,763.119 2073.12,763.07 2080.31,763.137 2087.38,763.138 2094.35,763.138 2101.2,763.14 2107.95,763.14 2114.6,763.141 2121.15,763.137 2127.61,763.141 2133.97,763.142 2140.24,763.143 2146.42,763.144 2152.52,763.141 2158.54,763.133 2164.47,763.131 2170.33,763.129 2176.11,763.126 2181.81,763.139 2187.45,763.138 2193.01,763.138 2198.5,763.138 2203.93,763.138 2209.29,763.138 2214.58,763.138 2219.81,763.139 2224.99,763.139 2230.1,763.139 2235.15,763.139 2240.15,763.139 2245.09,763.139 2249.97,763.139 2254.8,763.139 2259.58,763.139 2264.31,763.139 2268.99,763.139 2273.62,763.139 2278.2,763.139 2282.74,763.139 2287.23,763.139 2291.67,763.139 "/>
<polyline clip-path="url(#clip282)" style="stroke:#00a9ad; stroke-linecap:round; stroke-linejoin:round; stroke-width:4; stroke-opacity:1; fill:none" points="255.507,763.121 561.98,763.167 741.256,763.138 868.453,763.174 967.116,763.123 1047.73,763.163 1115.89,763.155 1174.93,763.144 1227,763.21 1273.59,763.133 1315.73,763.136 1354.2,763.136 1389.59,763.134 1422.36,763.129 1452.86,763.116 1481.4,763.109 1508.2,763.079 1533.48,763.114 1557.38,763.07 1580.06,763.092 1601.63,763.107 1622.2,763.084 1641.86,763.087 1660.68,763.096 1678.72,763.116 1696.07,763.116 1712.75,763.124 1728.83,763.109 1744.35,763.104 1759.34,763.106 1773.84,763.115 1787.87,763.133 1801.48,763.131 1814.68,763.132 1827.49,763.136 1839.95,763.14 1852.06,763.141 1863.86,763.147 1875.34,763.144 1886.54,763.139 1897.45,763.135 1908.11,763.133 1918.51,763.13 1928.68,763.128 1938.61,763.124 1948.33,763.124 1957.84,763.114 1967.15,763.109 1976.27,763.107 1985.2,763.114 1993.95,763.123 2002.54,763.107 2010.96,763.104 2019.23,763.083 2027.34,763.098 2035.31,763.105 2043.13,763.09 2050.82,763.109 2058.38,763.087 2065.81,763.113 2073.12,763.047 2080.31,763.137 2087.38,763.138 2094.35,763.137 2101.2,763.139 2107.95,763.14 2114.6,763.141 2121.15,763.14 2127.61,763.144 2133.97,763.144 2140.24,763.145 2146.42,763.141 2152.52,763.139 2158.54,763.133 2164.47,763.13 2170.33,763.129 2176.11,763.126 2181.81,763.139 2187.45,763.138 2193.01,763.138 2198.5,763.138 2203.93,763.138 2209.29,763.138 2214.58,763.138 2219.81,763.138 2224.99,763.139 2230.1,763.139 2235.15,763.139 2240.15,763.139 2245.09,763.139 2249.97,763.139 2254.8,763.139 2259.58,763.139 2264.31,763.139 2268.99,763.139 2273.62,763.139 2278.2,763.139 2282.74,763.139 2287.23,763.139 2291.67,763.139 "/>
<polyline clip-path="url(#clip282)" style="stroke:#ed5d92; stroke-linecap:round; stroke-linejoin:round; stroke-width:4; stroke-opacity:1; fill:none" points="255.507,913.716 561.98,943.008 741.256,937.313 868.453,931.764 967.116,926.057 1047.73,917.969 1115.89,904.841 1174.93,891.598 1227,878.437 1273.59,864.902 1315.73,853.912 1354.2,847.845 1389.59,841.778 1422.36,835.713 1452.86,829.642 1481.4,823.583 1508.2,817.521 1533.48,811.489 1557.38,805.451 1580.06,799.407 1601.63,793.361 1622.2,787.288 1641.86,781.237 1660.68,775.142 1678.72,769.105 1696.07,763.165 1712.75,763.156 1728.83,763.177 1744.35,763.186 1759.34,763.184 1773.84,763.172 1787.87,763.147 1801.48,763.148 1814.68,763.144 1827.49,763.138 1839.95,763.132 1852.06,763.132 1863.86,763.13 1875.34,763.13 1886.54,763.131 1897.45,763.132 1908.11,763.132 1918.51,763.133 1928.68,763.134 1938.61,763.135 1948.33,763.137 1957.84,763.139 1967.15,763.141 1976.27,763.143 1985.2,763.143 1993.95,763.142 2002.54,763.146 2010.96,763.148 2019.23,763.157 2027.34,763.153 2035.31,763.151 2043.13,763.157 2050.82,763.149 2058.38,763.155 2065.81,763.145 2073.12,763.168 2080.31,763.138 2087.38,763.137 2094.35,763.137 2101.2,763.136 2107.95,763.136 2114.6,763.138 2121.15,763.137 2127.61,763.135 2133.97,763.131 2140.24,763.133 2146.42,763.132 2152.52,763.138 2158.54,763.143 2164.47,763.146 2170.33,763.147 2176.11,763.144 2181.81,763.14 2187.45,763.14 2193.01,763.14 2198.5,763.14 2203.93,763.14 2209.29,763.14 2214.58,763.14 2219.81,763.14 2224.99,763.14 2230.1,763.14 2235.15,763.14 2240.15,763.14 2245.09,763.14 2249.97,763.14 2254.8,763.14 2259.58,763.14 2264.31,763.14 2268.99,763.14 2273.62,763.14 2278.2,763.14 2282.74,763.14 2287.23,763.14 2291.67,763.14 "/>
<polyline clip-path="url(#clip282)" style="stroke:#c68125; stroke-linecap:round; stroke-linejoin:round; stroke-width:4; stroke-opacity:1; fill:none" points="255.507,716.633 561.98,763.156 741.256,763.14 868.453,763.159 967.116,763.135 1047.73,763.153 1115.89,763.15 1174.93,763.144 1227,763.181 1273.59,763.079 1315.73,763.134 1354.2,763.134 1389.59,763.133 1422.36,763.131 1452.86,763.123 1481.4,763.122 1508.2,763.111 1533.48,763.128 1557.38,763.113 1580.06,763.124 1601.63,763.131 1622.2,763.116 1641.86,763.118 1660.68,763.118 1678.72,763.136 1696.07,763.11 1712.75,763.12 1728.83,763.097 1744.35,763.088 1759.34,763.091 1773.84,763.104 1787.87,763.132 1801.48,763.131 1814.68,763.134 1827.49,763.142 1839.95,763.148 1852.06,763.148 1863.86,763.151 1875.34,763.15 1886.54,763.147 1897.45,763.145 1908.11,763.144 1918.51,763.143 1928.68,763.141 1938.61,763.138 1948.33,763.137 1957.84,763.132 1967.15,763.128 1976.27,763.126 1985.2,763.129 1993.95,763.133 2002.54,763.123 2010.96,763.119 2019.23,763.102 2027.34,763.111 2035.31,763.114 2043.13,763.102 2050.82,763.117 2058.38,763.102 2065.81,763.122 2073.12,763.074 2080.31,763.139 2087.38,763.14 2094.35,763.14 2101.2,763.143 2107.95,763.142 2114.6,763.141 2121.15,763.14 2127.61,763.144 2133.97,763.147 2140.24,763.146 2146.42,763.147 2152.52,763.141 2158.54,763.132 2164.47,763.129 2170.33,763.128 2176.11,763.128 2181.81,763.139 2187.45,763.138 2193.01,763.138 2198.5,763.138 2203.93,763.138 2209.29,763.138 2214.58,763.138 2219.81,763.138 2224.99,763.138 2230.1,763.138 2235.15,763.138 2240.15,763.139 2245.09,763.139 2249.97,763.139 2254.8,763.139 2259.58,763.139 2264.31,763.139 2268.99,763.139 2273.62,763.139 2278.2,763.139 2282.74,763.139 2287.23,763.139 2291.67,763.139 "/>
<polyline clip-path="url(#clip282)" style="stroke:#00a98d; stroke-linecap:round; stroke-linejoin:round; stroke-width:4; stroke-opacity:1; fill:none" points="255.507,338.453 561.98,349.702 741.256,362.221 868.453,374.9 967.116,387.331 1047.73,396.063 1115.89,396.929 1174.93,399.045 1227,401.758 1273.59,404.647 1315.73,407.149 1354.2,410.568 1389.59,414.004 1422.36,417.452 1452.86,420.902 1481.4,424.343 1508.2,427.804 1533.48,431.29 1557.38,434.77 1580.06,438.242 1601.63,441.717 1622.2,445.194 1641.86,448.66 1660.68,452.063 1678.72,455.493 1696.07,458.942 1712.75,464.182 1728.83,469.511 1744.35,474.798 1759.34,480.045 1773.84,485.255 1787.87,490.428 1801.48,495.69 1814.68,500.929 1827.49,506.185 1839.95,511.443 1852.06,516.722 1863.86,523.237 1875.34,530.054 1886.54,536.88 1897.45,543.722 1908.11,550.575 1918.51,557.431 1928.68,564.295 1938.61,571.157 1948.33,578.028 1957.84,584.891 1967.15,591.764 1976.27,598.633 1985.2,605.494 1993.95,612.334 2002.54,619.183 2010.96,626.024 2019.23,632.898 2027.34,639.704 2035.31,646.518 2043.13,653.377 2050.82,660.148 2058.38,667.01 2065.81,673.789 2073.12,680.752 2080.31,687.417 2087.38,694.24 2094.35,701.078 2101.2,707.905 2107.95,714.745 2114.6,721.598 2121.15,728.427 2127.61,735.234 2133.97,742.038 2140.24,748.892 2146.42,755.712 2152.52,762.596 2158.54,763.134 2164.47,763.131 2170.33,763.129 2176.11,763.132 2181.81,763.139 2187.45,763.138 2193.01,763.138 2198.5,763.138 2203.93,763.138 2209.29,763.138 2214.58,763.139 2219.81,763.139 2224.99,763.139 2230.1,763.139 2235.15,763.139 2240.15,763.139 2245.09,763.139 2249.97,763.139 2254.8,763.139 2259.58,763.139 2264.31,763.139 2268.99,763.139 2273.62,763.139 2278.2,763.139 2282.74,763.139 2287.23,763.139 2291.67,763.139 "/>
<polyline clip-path="url(#clip282)" style="stroke:#8e971d; stroke-linecap:round; stroke-linejoin:round; stroke-width:4; stroke-opacity:1; fill:none" points="255.507,714.42 561.98,721.742 741.256,730.348 868.453,738.96 967.116,747.576 1047.73,755.312 1115.89,761.335 1174.93,763.14 1227,763.072 1273.59,763.052 1315.73,763.136 1354.2,763.138 1389.59,763.138 1422.36,763.137 1452.86,763.132 1481.4,763.131 1508.2,763.123 1533.48,763.132 1557.38,763.12 1580.06,763.126 1601.63,763.129 1622.2,763.118 1641.86,763.117 1660.68,763.12 1678.72,763.127 1696.07,763.127 1712.75,763.131 1728.83,763.121 1744.35,763.116 1759.34,763.117 1773.84,763.123 1787.87,763.137 1801.48,763.136 1814.68,763.138 1827.49,763.142 1839.95,763.145 1852.06,763.144 1863.86,763.151 1875.34,763.151 1886.54,763.149 1897.45,763.148 1908.11,763.147 1918.51,763.146 1928.68,763.145 1938.61,763.143 1948.33,763.142 1957.84,763.138 1967.15,763.135 1976.27,763.134 1985.2,763.134 1993.95,763.135 2002.54,763.13 2010.96,763.128 2019.23,763.119 2027.34,763.124 2035.31,763.126 2043.13,763.12 2050.82,763.129 2058.38,763.121 2065.81,763.132 2073.12,763.107 2080.31,763.141 2087.38,763.142 2094.35,763.142 2101.2,763.143 2107.95,763.143 2114.6,763.141 2121.15,763.141 2127.61,763.144 2133.97,763.148 2140.24,763.146 2146.42,763.147 2152.52,763.141 2158.54,763.135 2164.47,763.132 2170.33,763.13 2176.11,763.133 2181.81,763.139 2187.45,763.138 2193.01,763.138 2198.5,763.139 2203.93,763.139 2209.29,763.139 2214.58,763.139 2219.81,763.139 2224.99,763.139 2230.1,763.139 2235.15,763.139 2240.15,763.139 2245.09,763.139 2249.97,763.139 2254.8,763.139 2259.58,763.139 2264.31,763.139 2268.99,763.139 2273.62,763.139 2278.2,763.139 2282.74,763.139 2287.23,763.139 2291.67,763.139 "/>
<path clip-path="url(#clip280)" d="M1970.09 1379.86 L2280.81 1379.86 L2280.81 809.616 L1970.09 809.616  Z" fill="#ffffff" fill-rule="evenodd" fill-opacity="1"/>
<polyline clip-path="url(#clip280)" style="stroke:#000000; stroke-linecap:round; stroke-linejoin:round; stroke-width:4; stroke-opacity:1; fill:none" points="1970.09,1379.86 2280.81,1379.86 2280.81,809.616 1970.09,809.616 1970.09,1379.86 "/>
<polyline clip-path="url(#clip280)" style="stroke:#009af9; stroke-linecap:round; stroke-linejoin:round; stroke-width:4; stroke-opacity:1; fill:none" points="1994.08,861.456 2137.96,861.456 "/>
<path clip-path="url(#clip280)" d="M2177.78 848.783 L2171.44 865.982 L2184.15 865.982 L2177.78 848.783 M2175.14 844.176 L2180.44 844.176 L2193.61 878.736 L2188.75 878.736 L2185.6 869.871 L2170.02 869.871 L2166.88 878.736 L2161.95 878.736 L2175.14 844.176 Z" fill="#000000" fill-rule="nonzero" fill-opacity="1" /><path clip-path="url(#clip280)" d="M2221.39 873.806 L2221.39 864.523 L2213.75 864.523 L2213.75 860.681 L2226.02 860.681 L2226.02 875.519 Q2223.31 877.44 2220.05 878.435 Q2216.78 879.408 2213.08 879.408 Q2204.98 879.408 2200.4 874.685 Q2195.83 869.94 2195.83 861.491 Q2195.83 853.019 2200.4 848.297 Q2204.98 843.551 2213.08 843.551 Q2216.46 843.551 2219.49 844.385 Q2222.55 845.218 2225.12 846.838 L2225.12 851.815 Q2222.52 849.616 2219.61 848.505 Q2216.69 847.394 2213.47 847.394 Q2207.13 847.394 2203.94 850.935 Q2200.77 854.477 2200.77 861.491 Q2200.77 868.482 2203.94 872.023 Q2207.13 875.565 2213.47 875.565 Q2215.95 875.565 2217.89 875.148 Q2219.84 874.708 2221.39 873.806 Z" fill="#000000" fill-rule="nonzero" fill-opacity="1" /><path clip-path="url(#clip280)" d="M2234.56 844.176 L2256.41 844.176 L2256.41 848.111 L2239.24 848.111 L2239.24 858.343 L2255.7 858.343 L2255.7 862.278 L2239.24 862.278 L2239.24 874.801 L2256.83 874.801 L2256.83 878.736 L2234.56 878.736 L2234.56 844.176 Z" fill="#000000" fill-rule="nonzero" fill-opacity="1" /><polyline clip-path="url(#clip280)" style="stroke:#e26f46; stroke-linecap:round; stroke-linejoin:round; stroke-width:4; stroke-opacity:1; fill:none" points="1994.08,913.296 2137.96,913.296 "/>
<path clip-path="url(#clip280)" d="M2184.19 897.151 L2184.19 901.711 Q2181.53 900.438 2179.17 899.813 Q2176.81 899.188 2174.61 899.188 Q2170.79 899.188 2168.71 900.669 Q2166.65 902.15 2166.65 904.882 Q2166.65 907.174 2168.01 908.354 Q2169.4 909.512 2173.24 910.229 L2176.07 910.808 Q2181.3 911.803 2183.77 914.326 Q2186.27 916.826 2186.27 921.039 Q2186.27 926.062 2182.9 928.655 Q2179.54 931.248 2173.03 931.248 Q2170.58 931.248 2167.8 930.692 Q2165.05 930.136 2162.09 929.048 L2162.09 924.234 Q2164.93 925.831 2167.66 926.641 Q2170.4 927.451 2173.03 927.451 Q2177.04 927.451 2179.21 925.877 Q2181.39 924.303 2181.39 921.386 Q2181.39 918.84 2179.82 917.405 Q2178.27 915.97 2174.7 915.252 L2171.85 914.697 Q2166.62 913.655 2164.28 911.433 Q2161.95 909.211 2161.95 905.252 Q2161.95 900.669 2165.16 898.03 Q2168.4 895.391 2174.08 895.391 Q2176.51 895.391 2179.03 895.831 Q2181.55 896.271 2184.19 897.151 Z" fill="#000000" fill-rule="nonzero" fill-opacity="1" /><path clip-path="url(#clip280)" d="M2193.57 896.016 L2215.42 896.016 L2215.42 899.951 L2198.24 899.951 L2198.24 910.183 L2214.7 910.183 L2214.7 914.118 L2198.24 914.118 L2198.24 926.641 L2215.83 926.641 L2215.83 930.576 L2193.57 930.576 L2193.57 896.016 Z" fill="#000000" fill-rule="nonzero" fill-opacity="1" /><path clip-path="url(#clip280)" d="M2221.85 896.016 L2226.88 896.016 L2235.46 908.863 L2244.1 896.016 L2249.12 896.016 L2238.01 912.613 L2249.86 930.576 L2244.84 930.576 L2235.12 915.877 L2225.33 930.576 L2220.28 930.576 L2232.62 912.127 L2221.85 896.016 Z" fill="#000000" fill-rule="nonzero" fill-opacity="1" /><polyline clip-path="url(#clip280)" style="stroke:#3da44d; stroke-linecap:round; stroke-linejoin:round; stroke-width:4; stroke-opacity:1; fill:none" points="1994.08,965.136 2137.96,965.136 "/>
<path clip-path="url(#clip280)" d="M2166.62 965.912 L2166.62 978.574 L2174.12 978.574 Q2177.9 978.574 2179.7 977.023 Q2181.53 975.449 2181.53 972.231 Q2181.53 968.99 2179.7 967.463 Q2177.9 965.912 2174.12 965.912 L2166.62 965.912 M2166.62 951.699 L2166.62 962.115 L2173.54 962.115 Q2176.97 962.115 2178.64 960.842 Q2180.33 959.546 2180.33 956.907 Q2180.33 954.291 2178.64 952.995 Q2176.97 951.699 2173.54 951.699 L2166.62 951.699 M2161.95 947.856 L2173.89 947.856 Q2179.24 947.856 2182.13 950.078 Q2185.02 952.301 2185.02 956.398 Q2185.02 959.569 2183.54 961.444 Q2182.06 963.319 2179.19 963.782 Q2182.64 964.523 2184.54 966.884 Q2186.46 969.222 2186.46 972.74 Q2186.46 977.37 2183.31 979.893 Q2180.16 982.416 2174.35 982.416 L2161.95 982.416 L2161.95 947.856 Z" fill="#000000" fill-rule="nonzero" fill-opacity="1" /><path clip-path="url(#clip280)" d="M2194.47 947.856 L2201.44 947.856 L2210.26 971.375 L2219.12 947.856 L2226.09 947.856 L2226.09 982.416 L2221.53 982.416 L2221.53 952.069 L2212.62 975.773 L2207.92 975.773 L2199.01 952.069 L2199.01 982.416 L2194.47 982.416 L2194.47 947.856 Z" fill="#000000" fill-rule="nonzero" fill-opacity="1" /><path clip-path="url(#clip280)" d="M2235.37 947.856 L2240.05 947.856 L2240.05 982.416 L2235.37 982.416 L2235.37 947.856 Z" fill="#000000" fill-rule="nonzero" fill-opacity="1" /><polyline clip-path="url(#clip280)" style="stroke:#c271d2; stroke-linecap:round; stroke-linejoin:round; stroke-width:4; stroke-opacity:1; fill:none" points="1994.08,1016.98 2137.96,1016.98 "/>
<path clip-path="url(#clip280)" d="M2166.62 1017.75 L2166.62 1030.41 L2174.12 1030.41 Q2177.9 1030.41 2179.7 1028.86 Q2181.53 1027.29 2181.53 1024.07 Q2181.53 1020.83 2179.7 1019.3 Q2177.9 1017.75 2174.12 1017.75 L2166.62 1017.75 M2166.62 1003.54 L2166.62 1013.96 L2173.54 1013.96 Q2176.97 1013.96 2178.64 1012.68 Q2180.33 1011.39 2180.33 1008.75 Q2180.33 1006.13 2178.64 1004.84 Q2176.97 1003.54 2173.54 1003.54 L2166.62 1003.54 M2161.95 999.696 L2173.89 999.696 Q2179.24 999.696 2182.13 1001.92 Q2185.02 1004.14 2185.02 1008.24 Q2185.02 1011.41 2183.54 1013.28 Q2182.06 1015.16 2179.19 1015.62 Q2182.64 1016.36 2184.54 1018.72 Q2186.46 1021.06 2186.46 1024.58 Q2186.46 1029.21 2183.31 1031.73 Q2180.16 1034.26 2174.35 1034.26 L2161.95 1034.26 L2161.95 999.696 Z" fill="#000000" fill-rule="nonzero" fill-opacity="1" /><path clip-path="url(#clip280)" d="M2199.15 1003.54 L2199.15 1016.52 L2205.02 1016.52 Q2208.29 1016.52 2210.07 1014.84 Q2211.85 1013.15 2211.85 1010.02 Q2211.85 1006.92 2210.07 1005.23 Q2208.29 1003.54 2205.02 1003.54 L2199.15 1003.54 M2194.47 999.696 L2205.02 999.696 Q2210.83 999.696 2213.8 1002.34 Q2216.78 1004.95 2216.78 1010.02 Q2216.78 1015.14 2213.8 1017.75 Q2210.83 1020.37 2205.02 1020.37 L2199.15 1020.37 L2199.15 1034.26 L2194.47 1034.26 L2194.47 999.696 Z" fill="#000000" fill-rule="nonzero" fill-opacity="1" /><polyline clip-path="url(#clip280)" style="stroke:#ac8d18; stroke-linecap:round; stroke-linejoin:round; stroke-width:4; stroke-opacity:1; fill:none" points="1994.08,1068.82 2137.96,1068.82 "/>
<path clip-path="url(#clip280)" d="M2184.19 1052.67 L2184.19 1057.23 Q2181.53 1055.96 2179.17 1055.33 Q2176.81 1054.71 2174.61 1054.71 Q2170.79 1054.71 2168.71 1056.19 Q2166.65 1057.67 2166.65 1060.4 Q2166.65 1062.69 2168.01 1063.87 Q2169.4 1065.03 2173.24 1065.75 L2176.07 1066.33 Q2181.3 1067.32 2183.77 1069.85 Q2186.27 1072.35 2186.27 1076.56 Q2186.27 1081.58 2182.9 1084.17 Q2179.54 1086.77 2173.03 1086.77 Q2170.58 1086.77 2167.8 1086.21 Q2165.05 1085.66 2162.09 1084.57 L2162.09 1079.75 Q2164.93 1081.35 2167.66 1082.16 Q2170.4 1082.97 2173.03 1082.97 Q2177.04 1082.97 2179.21 1081.4 Q2181.39 1079.82 2181.39 1076.91 Q2181.39 1074.36 2179.82 1072.93 Q2178.27 1071.49 2174.7 1070.77 L2171.85 1070.22 Q2166.62 1069.18 2164.28 1066.95 Q2161.95 1064.73 2161.95 1060.77 Q2161.95 1056.19 2165.16 1053.55 Q2168.4 1050.91 2174.08 1050.91 Q2176.51 1050.91 2179.03 1051.35 Q2181.55 1051.79 2184.19 1052.67 Z" fill="#000000" fill-rule="nonzero" fill-opacity="1" /><path clip-path="url(#clip280)" d="M2194.79 1082.16 L2202.43 1082.16 L2202.43 1055.8 L2194.12 1057.46 L2194.12 1053.2 L2202.39 1051.54 L2207.06 1051.54 L2207.06 1082.16 L2214.7 1082.16 L2214.7 1086.1 L2194.79 1086.1 L2194.79 1082.16 Z" fill="#000000" fill-rule="nonzero" fill-opacity="1" /><polyline clip-path="url(#clip280)" style="stroke:#00a9ad; stroke-linecap:round; stroke-linejoin:round; stroke-width:4; stroke-opacity:1; fill:none" points="1994.08,1120.66 2137.96,1120.66 "/>
<path clip-path="url(#clip280)" d="M2184.19 1104.51 L2184.19 1109.07 Q2181.53 1107.8 2179.17 1107.17 Q2176.81 1106.55 2174.61 1106.55 Q2170.79 1106.55 2168.71 1108.03 Q2166.65 1109.51 2166.65 1112.24 Q2166.65 1114.53 2168.01 1115.71 Q2169.4 1116.87 2173.24 1117.59 L2176.07 1118.17 Q2181.3 1119.16 2183.77 1121.69 Q2186.27 1124.19 2186.27 1128.4 Q2186.27 1133.42 2182.9 1136.01 Q2179.54 1138.61 2173.03 1138.61 Q2170.58 1138.61 2167.8 1138.05 Q2165.05 1137.5 2162.09 1136.41 L2162.09 1131.59 Q2164.93 1133.19 2167.66 1134 Q2170.4 1134.81 2173.03 1134.81 Q2177.04 1134.81 2179.21 1133.24 Q2181.39 1131.66 2181.39 1128.75 Q2181.39 1126.2 2179.82 1124.77 Q2178.27 1123.33 2174.7 1122.61 L2171.85 1122.06 Q2166.62 1121.02 2164.28 1118.79 Q2161.95 1116.57 2161.95 1112.61 Q2161.95 1108.03 2165.16 1105.39 Q2168.4 1102.75 2174.08 1102.75 Q2176.51 1102.75 2179.03 1103.19 Q2181.55 1103.63 2184.19 1104.51 Z" fill="#000000" fill-rule="nonzero" fill-opacity="1" /><path clip-path="url(#clip280)" d="M2198.01 1134 L2214.33 1134 L2214.33 1137.94 L2192.39 1137.94 L2192.39 1134 Q2195.05 1131.25 2199.63 1126.62 Q2204.24 1121.96 2205.42 1120.62 Q2207.66 1118.1 2208.54 1116.36 Q2209.45 1114.6 2209.45 1112.91 Q2209.45 1110.16 2207.5 1108.42 Q2205.58 1106.69 2202.48 1106.69 Q2200.28 1106.69 2197.83 1107.45 Q2195.4 1108.21 2192.62 1109.77 L2192.62 1105.04 Q2195.44 1103.91 2197.9 1103.33 Q2200.35 1102.75 2202.39 1102.75 Q2207.76 1102.75 2210.95 1105.44 Q2214.15 1108.12 2214.15 1112.61 Q2214.15 1114.74 2213.33 1116.66 Q2212.55 1118.56 2210.44 1121.15 Q2209.86 1121.83 2206.76 1125.04 Q2203.66 1128.24 2198.01 1134 Z" fill="#000000" fill-rule="nonzero" fill-opacity="1" /><polyline clip-path="url(#clip280)" style="stroke:#ed5d92; stroke-linecap:round; stroke-linejoin:round; stroke-width:4; stroke-opacity:1; fill:none" points="1994.08,1172.5 2137.96,1172.5 "/>
<path clip-path="url(#clip280)" d="M2184.19 1156.35 L2184.19 1160.91 Q2181.53 1159.64 2179.17 1159.01 Q2176.81 1158.39 2174.61 1158.39 Q2170.79 1158.39 2168.71 1159.87 Q2166.65 1161.35 2166.65 1164.08 Q2166.65 1166.37 2168.01 1167.55 Q2169.4 1168.71 2173.24 1169.43 L2176.07 1170.01 Q2181.3 1171 2183.77 1173.53 Q2186.27 1176.03 2186.27 1180.24 Q2186.27 1185.26 2182.9 1187.85 Q2179.54 1190.45 2173.03 1190.45 Q2170.58 1190.45 2167.8 1189.89 Q2165.05 1189.34 2162.09 1188.25 L2162.09 1183.43 Q2164.93 1185.03 2167.66 1185.84 Q2170.4 1186.65 2173.03 1186.65 Q2177.04 1186.65 2179.21 1185.08 Q2181.39 1183.5 2181.39 1180.59 Q2181.39 1178.04 2179.82 1176.61 Q2178.27 1175.17 2174.7 1174.45 L2171.85 1173.9 Q2166.62 1172.86 2164.28 1170.63 Q2161.95 1168.41 2161.95 1164.45 Q2161.95 1159.87 2165.16 1157.23 Q2168.4 1154.59 2174.08 1154.59 Q2176.51 1154.59 2179.03 1155.03 Q2181.55 1155.47 2184.19 1156.35 Z" fill="#000000" fill-rule="nonzero" fill-opacity="1" /><path clip-path="url(#clip280)" d="M2208.15 1171.14 Q2211.51 1171.86 2213.38 1174.13 Q2215.28 1176.4 2215.28 1179.73 Q2215.28 1184.85 2211.76 1187.65 Q2208.24 1190.45 2201.76 1190.45 Q2199.58 1190.45 2197.27 1190.01 Q2194.98 1189.59 2192.52 1188.73 L2192.52 1184.22 Q2194.47 1185.35 2196.78 1185.93 Q2199.1 1186.51 2201.62 1186.51 Q2206.02 1186.51 2208.31 1184.78 Q2210.63 1183.04 2210.63 1179.73 Q2210.63 1176.67 2208.47 1174.96 Q2206.34 1173.23 2202.52 1173.23 L2198.5 1173.23 L2198.5 1169.38 L2202.71 1169.38 Q2206.16 1169.38 2207.99 1168.02 Q2209.82 1166.63 2209.82 1164.04 Q2209.82 1161.37 2207.92 1159.96 Q2206.04 1158.53 2202.52 1158.53 Q2200.6 1158.53 2198.4 1158.94 Q2196.21 1159.36 2193.57 1160.24 L2193.57 1156.07 Q2196.23 1155.33 2198.54 1154.96 Q2200.88 1154.59 2202.94 1154.59 Q2208.27 1154.59 2211.37 1157.02 Q2214.47 1159.43 2214.47 1163.55 Q2214.47 1166.42 2212.83 1168.41 Q2211.18 1170.38 2208.15 1171.14 Z" fill="#000000" fill-rule="nonzero" fill-opacity="1" /><polyline clip-path="url(#clip280)" style="stroke:#c68125; stroke-linecap:round; stroke-linejoin:round; stroke-width:4; stroke-opacity:1; fill:none" points="1994.08,1224.34 2137.96,1224.34 "/>
<path clip-path="url(#clip280)" d="M2184.19 1208.19 L2184.19 1212.75 Q2181.53 1211.48 2179.17 1210.85 Q2176.81 1210.23 2174.61 1210.23 Q2170.79 1210.23 2168.71 1211.71 Q2166.65 1213.19 2166.65 1215.92 Q2166.65 1218.21 2168.01 1219.39 Q2169.4 1220.55 2173.24 1221.27 L2176.07 1221.85 Q2181.3 1222.84 2183.77 1225.37 Q2186.27 1227.87 2186.27 1232.08 Q2186.27 1237.1 2182.9 1239.69 Q2179.54 1242.29 2173.03 1242.29 Q2170.58 1242.29 2167.8 1241.73 Q2165.05 1241.18 2162.09 1240.09 L2162.09 1235.27 Q2164.93 1236.87 2167.66 1237.68 Q2170.4 1238.49 2173.03 1238.49 Q2177.04 1238.49 2179.21 1236.92 Q2181.39 1235.34 2181.39 1232.43 Q2181.39 1229.88 2179.82 1228.45 Q2178.27 1227.01 2174.7 1226.29 L2171.85 1225.74 Q2166.62 1224.7 2164.28 1222.47 Q2161.95 1220.25 2161.95 1216.29 Q2161.95 1211.71 2165.16 1209.07 Q2168.4 1206.43 2174.08 1206.43 Q2176.51 1206.43 2179.03 1206.87 Q2181.55 1207.31 2184.19 1208.19 Z" fill="#000000" fill-rule="nonzero" fill-opacity="1" /><path clip-path="url(#clip280)" d="M2206.83 1211.13 L2195.02 1229.58 L2206.83 1229.58 L2206.83 1211.13 M2205.6 1207.06 L2211.48 1207.06 L2211.48 1229.58 L2216.41 1229.58 L2216.41 1233.47 L2211.48 1233.47 L2211.48 1241.62 L2206.83 1241.62 L2206.83 1233.47 L2191.23 1233.47 L2191.23 1228.95 L2205.6 1207.06 Z" fill="#000000" fill-rule="nonzero" fill-opacity="1" /><polyline clip-path="url(#clip280)" style="stroke:#00a98d; stroke-linecap:round; stroke-linejoin:round; stroke-width:4; stroke-opacity:1; fill:none" points="1994.08,1276.18 2137.96,1276.18 "/>
<path clip-path="url(#clip280)" d="M2184.19 1260.03 L2184.19 1264.59 Q2181.53 1263.32 2179.17 1262.69 Q2176.81 1262.07 2174.61 1262.07 Q2170.79 1262.07 2168.71 1263.55 Q2166.65 1265.03 2166.65 1267.76 Q2166.65 1270.05 2168.01 1271.23 Q2169.4 1272.39 2173.24 1273.11 L2176.07 1273.69 Q2181.3 1274.68 2183.77 1277.21 Q2186.27 1279.71 2186.27 1283.92 Q2186.27 1288.94 2182.9 1291.53 Q2179.54 1294.13 2173.03 1294.13 Q2170.58 1294.13 2167.8 1293.57 Q2165.05 1293.02 2162.09 1291.93 L2162.09 1287.11 Q2164.93 1288.71 2167.66 1289.52 Q2170.4 1290.33 2173.03 1290.33 Q2177.04 1290.33 2179.21 1288.76 Q2181.39 1287.18 2181.39 1284.27 Q2181.39 1281.72 2179.82 1280.29 Q2178.27 1278.85 2174.7 1278.13 L2171.85 1277.58 Q2166.62 1276.54 2164.28 1274.31 Q2161.95 1272.09 2161.95 1268.13 Q2161.95 1263.55 2165.16 1260.91 Q2168.4 1258.27 2174.08 1258.27 Q2176.51 1258.27 2179.03 1258.71 Q2181.55 1259.15 2184.19 1260.03 Z" fill="#000000" fill-rule="nonzero" fill-opacity="1" /><path clip-path="url(#clip280)" d="M2194.03 1258.9 L2212.39 1258.9 L2212.39 1262.83 L2198.31 1262.83 L2198.31 1271.3 Q2199.33 1270.96 2200.35 1270.79 Q2201.37 1270.61 2202.39 1270.61 Q2208.17 1270.61 2211.55 1273.78 Q2214.93 1276.95 2214.93 1282.37 Q2214.93 1287.95 2211.46 1291.05 Q2207.99 1294.13 2201.67 1294.13 Q2199.49 1294.13 2197.22 1293.76 Q2194.98 1293.39 2192.57 1292.65 L2192.57 1287.95 Q2194.65 1289.08 2196.88 1289.64 Q2199.1 1290.19 2201.58 1290.19 Q2205.58 1290.19 2207.92 1288.09 Q2210.26 1285.98 2210.26 1282.37 Q2210.26 1278.76 2207.92 1276.65 Q2205.58 1274.54 2201.58 1274.54 Q2199.7 1274.54 2197.83 1274.96 Q2195.97 1275.38 2194.03 1276.26 L2194.03 1258.9 Z" fill="#000000" fill-rule="nonzero" fill-opacity="1" /><polyline clip-path="url(#clip280)" style="stroke:#8e971d; stroke-linecap:round; stroke-linejoin:round; stroke-width:4; stroke-opacity:1; fill:none" points="1994.08,1328.02 2137.96,1328.02 "/>
<path clip-path="url(#clip280)" d="M2184.19 1311.87 L2184.19 1316.43 Q2181.53 1315.16 2179.17 1314.53 Q2176.81 1313.91 2174.61 1313.91 Q2170.79 1313.91 2168.71 1315.39 Q2166.65 1316.87 2166.65 1319.6 Q2166.65 1321.89 2168.01 1323.07 Q2169.4 1324.23 2173.24 1324.95 L2176.07 1325.53 Q2181.3 1326.52 2183.77 1329.05 Q2186.27 1331.55 2186.27 1335.76 Q2186.27 1340.78 2182.9 1343.37 Q2179.54 1345.97 2173.03 1345.97 Q2170.58 1345.97 2167.8 1345.41 Q2165.05 1344.86 2162.09 1343.77 L2162.09 1338.95 Q2164.93 1340.55 2167.66 1341.36 Q2170.4 1342.17 2173.03 1342.17 Q2177.04 1342.17 2179.21 1340.6 Q2181.39 1339.02 2181.39 1336.11 Q2181.39 1333.56 2179.82 1332.13 Q2178.27 1330.69 2174.7 1329.97 L2171.85 1329.42 Q2166.62 1328.38 2164.28 1326.15 Q2161.95 1323.93 2161.95 1319.97 Q2161.95 1315.39 2165.16 1312.75 Q2168.4 1310.11 2174.08 1310.11 Q2176.51 1310.11 2179.03 1310.55 Q2181.55 1310.99 2184.19 1311.87 Z" fill="#000000" fill-rule="nonzero" fill-opacity="1" /><path clip-path="url(#clip280)" d="M2204.56 1326.15 Q2201.41 1326.15 2199.56 1328.31 Q2197.73 1330.46 2197.73 1334.21 Q2197.73 1337.94 2199.56 1340.11 Q2201.41 1342.26 2204.56 1342.26 Q2207.71 1342.26 2209.54 1340.11 Q2211.39 1337.94 2211.39 1334.21 Q2211.39 1330.46 2209.54 1328.31 Q2207.71 1326.15 2204.56 1326.15 M2213.84 1311.5 L2213.84 1315.76 Q2212.08 1314.93 2210.28 1314.49 Q2208.5 1314.05 2206.74 1314.05 Q2202.11 1314.05 2199.65 1317.17 Q2197.22 1320.3 2196.88 1326.62 Q2198.24 1324.6 2200.3 1323.54 Q2202.36 1322.45 2204.84 1322.45 Q2210.05 1322.45 2213.06 1325.62 Q2216.09 1328.77 2216.09 1334.21 Q2216.09 1339.53 2212.94 1342.75 Q2209.79 1345.97 2204.56 1345.97 Q2198.57 1345.97 2195.4 1341.38 Q2192.22 1336.78 2192.22 1328.05 Q2192.22 1319.86 2196.11 1315 Q2200 1310.11 2206.55 1310.11 Q2208.31 1310.11 2210.09 1310.46 Q2211.9 1310.81 2213.84 1311.5 Z" fill="#000000" fill-rule="nonzero" fill-opacity="1" /></svg>
