<?xml version="1.0" encoding="utf-8"?>
<svg xmlns="http://www.w3.org/2000/svg" xmlns:xlink="http://www.w3.org/1999/xlink" width="600" height="400" viewBox="0 0 2400 1600">
<defs>
  <clipPath id="clip660">
    <rect x="0" y="0" width="2400" height="1600"/>
  </clipPath>
</defs>
<path clip-path="url(#clip660)" d="M0 1600 L2400 1600 L2400 0 L0 0  Z" fill="#ffffff" fill-rule="evenodd" fill-opacity="1"/>
<defs>
  <clipPath id="clip661">
    <rect x="480" y="0" width="1681" height="1600"/>
  </clipPath>
</defs>
<path clip-path="url(#clip660)" d="M149.191 1486.45 L2352.76 1486.45 L2352.76 123.472 L149.191 123.472  Z" fill="#ffffff" fill-rule="evenodd" fill-opacity="1"/>
<defs>
  <clipPath id="clip662">
    <rect x="149" y="123" width="2205" height="1364"/>
  </clipPath>
</defs>
<polyline clip-path="url(#clip662)" style="stroke:#000000; stroke-linecap:round; stroke-linejoin:round; stroke-width:2; stroke-opacity:0.1; fill:none" points="211.556,1486.45 211.556,123.472 "/>
<polyline clip-path="url(#clip662)" style="stroke:#000000; stroke-linecap:round; stroke-linejoin:round; stroke-width:2; stroke-opacity:0.1; fill:none" points="558.028,1486.45 558.028,123.472 "/>
<polyline clip-path="url(#clip662)" style="stroke:#000000; stroke-linecap:round; stroke-linejoin:round; stroke-width:2; stroke-opacity:0.1; fill:none" points="904.501,1486.45 904.501,123.472 "/>
<polyline clip-path="url(#clip662)" style="stroke:#000000; stroke-linecap:round; stroke-linejoin:round; stroke-width:2; stroke-opacity:0.1; fill:none" points="1250.97,1486.45 1250.97,123.472 "/>
<polyline clip-path="url(#clip662)" style="stroke:#000000; stroke-linecap:round; stroke-linejoin:round; stroke-width:2; stroke-opacity:0.1; fill:none" points="1597.45,1486.45 1597.45,123.472 "/>
<polyline clip-path="url(#clip662)" style="stroke:#000000; stroke-linecap:round; stroke-linejoin:round; stroke-width:2; stroke-opacity:0.1; fill:none" points="1943.92,1486.45 1943.92,123.472 "/>
<polyline clip-path="url(#clip662)" style="stroke:#000000; stroke-linecap:round; stroke-linejoin:round; stroke-width:2; stroke-opacity:0.1; fill:none" points="2290.39,1486.45 2290.39,123.472 "/>
<polyline clip-path="url(#clip660)" style="stroke:#000000; stroke-linecap:round; stroke-linejoin:round; stroke-width:4; stroke-opacity:1; fill:none" points="149.191,1486.45 2352.76,1486.45 "/>
<polyline clip-path="url(#clip660)" style="stroke:#000000; stroke-linecap:round; stroke-linejoin:round; stroke-width:4; stroke-opacity:1; fill:none" points="211.556,1486.45 211.556,1467.55 "/>
<polyline clip-path="url(#clip660)" style="stroke:#000000; stroke-linecap:round; stroke-linejoin:round; stroke-width:4; stroke-opacity:1; fill:none" points="558.028,1486.45 558.028,1467.55 "/>
<polyline clip-path="url(#clip660)" style="stroke:#000000; stroke-linecap:round; stroke-linejoin:round; stroke-width:4; stroke-opacity:1; fill:none" points="904.501,1486.45 904.501,1467.55 "/>
<polyline clip-path="url(#clip660)" style="stroke:#000000; stroke-linecap:round; stroke-linejoin:round; stroke-width:4; stroke-opacity:1; fill:none" points="1250.97,1486.45 1250.97,1467.55 "/>
<polyline clip-path="url(#clip660)" style="stroke:#000000; stroke-linecap:round; stroke-linejoin:round; stroke-width:4; stroke-opacity:1; fill:none" points="1597.45,1486.45 1597.45,1467.55 "/>
<polyline clip-path="url(#clip660)" style="stroke:#000000; stroke-linecap:round; stroke-linejoin:round; stroke-width:4; stroke-opacity:1; fill:none" points="1943.92,1486.45 1943.92,1467.55 "/>
<polyline clip-path="url(#clip660)" style="stroke:#000000; stroke-linecap:round; stroke-linejoin:round; stroke-width:4; stroke-opacity:1; fill:none" points="2290.39,1486.45 2290.39,1467.55 "/>
<path clip-path="url(#clip660)" d="M158.582 1532.02 L188.257 1532.02 L188.257 1535.95 L158.582 1535.95 L158.582 1532.02 Z" fill="#000000" fill-rule="nonzero" fill-opacity="1" /><path clip-path="url(#clip660)" d="M199.16 1544.91 L206.799 1544.91 L206.799 1518.55 L198.489 1520.21 L198.489 1515.95 L206.753 1514.29 L211.429 1514.29 L211.429 1544.91 L219.067 1544.91 L219.067 1548.85 L199.16 1548.85 L199.16 1544.91 Z" fill="#000000" fill-rule="nonzero" fill-opacity="1" /><path clip-path="url(#clip660)" d="M228.512 1542.97 L233.396 1542.97 L233.396 1548.85 L228.512 1548.85 L228.512 1542.97 Z" fill="#000000" fill-rule="nonzero" fill-opacity="1" /><path clip-path="url(#clip660)" d="M243.628 1514.29 L261.984 1514.29 L261.984 1518.22 L247.91 1518.22 L247.91 1526.7 Q248.928 1526.35 249.947 1526.19 Q250.965 1526 251.984 1526 Q257.771 1526 261.151 1529.17 Q264.53 1532.34 264.53 1537.76 Q264.53 1543.34 261.058 1546.44 Q257.586 1549.52 251.266 1549.52 Q249.09 1549.52 246.822 1549.15 Q244.577 1548.78 242.169 1548.04 L242.169 1543.34 Q244.252 1544.47 246.475 1545.03 Q248.697 1545.58 251.174 1545.58 Q255.178 1545.58 257.516 1543.48 Q259.854 1541.37 259.854 1537.76 Q259.854 1534.15 257.516 1532.04 Q255.178 1529.94 251.174 1529.94 Q249.299 1529.94 247.424 1530.35 Q245.572 1530.77 243.628 1531.65 L243.628 1514.29 Z" fill="#000000" fill-rule="nonzero" fill-opacity="1" /><path clip-path="url(#clip660)" d="M504.556 1532.02 L534.232 1532.02 L534.232 1535.95 L504.556 1535.95 L504.556 1532.02 Z" fill="#000000" fill-rule="nonzero" fill-opacity="1" /><path clip-path="url(#clip660)" d="M545.135 1544.91 L552.774 1544.91 L552.774 1518.55 L544.464 1520.21 L544.464 1515.95 L552.728 1514.29 L557.403 1514.29 L557.403 1544.91 L565.042 1544.91 L565.042 1548.85 L545.135 1548.85 L545.135 1544.91 Z" fill="#000000" fill-rule="nonzero" fill-opacity="1" /><path clip-path="url(#clip660)" d="M574.487 1542.97 L579.371 1542.97 L579.371 1548.85 L574.487 1548.85 L574.487 1542.97 Z" fill="#000000" fill-rule="nonzero" fill-opacity="1" /><path clip-path="url(#clip660)" d="M599.556 1517.37 Q595.945 1517.37 594.116 1520.93 Q592.311 1524.47 592.311 1531.6 Q592.311 1538.71 594.116 1542.27 Q595.945 1545.82 599.556 1545.82 Q603.19 1545.82 604.996 1542.27 Q606.824 1538.71 606.824 1531.6 Q606.824 1524.47 604.996 1520.93 Q603.19 1517.37 599.556 1517.37 M599.556 1513.66 Q605.366 1513.66 608.422 1518.27 Q611.5 1522.85 611.5 1531.6 Q611.5 1540.33 608.422 1544.94 Q605.366 1549.52 599.556 1549.52 Q593.746 1549.52 590.667 1544.94 Q587.612 1540.33 587.612 1531.6 Q587.612 1522.85 590.667 1518.27 Q593.746 1513.66 599.556 1513.66 Z" fill="#000000" fill-rule="nonzero" fill-opacity="1" /><path clip-path="url(#clip660)" d="M851.527 1532.02 L881.202 1532.02 L881.202 1535.95 L851.527 1535.95 L851.527 1532.02 Z" fill="#000000" fill-rule="nonzero" fill-opacity="1" /><path clip-path="url(#clip660)" d="M901.295 1517.37 Q897.684 1517.37 895.855 1520.93 Q894.05 1524.47 894.05 1531.6 Q894.05 1538.71 895.855 1542.27 Q897.684 1545.82 901.295 1545.82 Q904.929 1545.82 906.735 1542.27 Q908.563 1538.71 908.563 1531.6 Q908.563 1524.47 906.735 1520.93 Q904.929 1517.37 901.295 1517.37 M901.295 1513.66 Q907.105 1513.66 910.161 1518.27 Q913.239 1522.85 913.239 1531.6 Q913.239 1540.33 910.161 1544.94 Q907.105 1549.52 901.295 1549.52 Q895.485 1549.52 892.406 1544.94 Q889.351 1540.33 889.351 1531.6 Q889.351 1522.85 892.406 1518.27 Q895.485 1513.66 901.295 1513.66 Z" fill="#000000" fill-rule="nonzero" fill-opacity="1" /><path clip-path="url(#clip660)" d="M921.457 1542.97 L926.341 1542.97 L926.341 1548.85 L921.457 1548.85 L921.457 1542.97 Z" fill="#000000" fill-rule="nonzero" fill-opacity="1" /><path clip-path="url(#clip660)" d="M936.572 1514.29 L954.929 1514.29 L954.929 1518.22 L940.855 1518.22 L940.855 1526.7 Q941.873 1526.35 942.892 1526.19 Q943.91 1526 944.929 1526 Q950.716 1526 954.096 1529.17 Q957.475 1532.34 957.475 1537.76 Q957.475 1543.34 954.003 1546.44 Q950.531 1549.52 944.211 1549.52 Q942.035 1549.52 939.767 1549.15 Q937.522 1548.78 935.114 1548.04 L935.114 1543.34 Q937.197 1544.47 939.42 1545.03 Q941.642 1545.58 944.119 1545.58 Q948.123 1545.58 950.461 1543.48 Q952.799 1541.37 952.799 1537.76 Q952.799 1534.15 950.461 1532.04 Q948.123 1529.94 944.119 1529.94 Q942.244 1529.94 940.369 1530.35 Q938.517 1530.77 936.572 1531.65 L936.572 1514.29 Z" fill="#000000" fill-rule="nonzero" fill-opacity="1" /><path clip-path="url(#clip660)" d="M1228.36 1517.37 Q1224.75 1517.37 1222.92 1520.93 Q1221.11 1524.47 1221.11 1531.6 Q1221.11 1538.71 1222.92 1542.27 Q1224.75 1545.82 1228.36 1545.82 Q1231.99 1545.82 1233.8 1542.27 Q1235.63 1538.71 1235.63 1531.6 Q1235.63 1524.47 1233.8 1520.93 Q1231.99 1517.37 1228.36 1517.37 M1228.36 1513.66 Q1234.17 1513.66 1237.22 1518.27 Q1240.3 1522.85 1240.3 1531.6 Q1240.3 1540.33 1237.22 1544.94 Q1234.17 1549.52 1228.36 1549.52 Q1222.55 1549.52 1219.47 1544.94 Q1216.41 1540.33 1216.41 1531.6 Q1216.41 1522.85 1219.47 1518.27 Q1222.55 1513.66 1228.36 1513.66 Z" fill="#000000" fill-rule="nonzero" fill-opacity="1" /><path clip-path="url(#clip660)" d="M1248.52 1542.97 L1253.4 1542.97 L1253.4 1548.85 L1248.52 1548.85 L1248.52 1542.97 Z" fill="#000000" fill-rule="nonzero" fill-opacity="1" /><path clip-path="url(#clip660)" d="M1273.59 1517.37 Q1269.98 1517.37 1268.15 1520.93 Q1266.34 1524.47 1266.34 1531.6 Q1266.34 1538.71 1268.15 1542.27 Q1269.98 1545.82 1273.59 1545.82 Q1277.22 1545.82 1279.03 1542.27 Q1280.86 1538.71 1280.86 1531.6 Q1280.86 1524.47 1279.03 1520.93 Q1277.22 1517.37 1273.59 1517.37 M1273.59 1513.66 Q1279.4 1513.66 1282.45 1518.27 Q1285.53 1522.85 1285.53 1531.6 Q1285.53 1540.33 1282.45 1544.94 Q1279.4 1549.52 1273.59 1549.52 Q1267.78 1549.52 1264.7 1544.94 Q1261.64 1540.33 1261.64 1531.6 Q1261.64 1522.85 1264.7 1518.27 Q1267.78 1513.66 1273.59 1513.66 Z" fill="#000000" fill-rule="nonzero" fill-opacity="1" /><path clip-path="url(#clip660)" d="M1575.33 1517.37 Q1571.72 1517.37 1569.89 1520.93 Q1568.08 1524.47 1568.08 1531.6 Q1568.08 1538.71 1569.89 1542.27 Q1571.72 1545.82 1575.33 1545.82 Q1578.96 1545.82 1580.77 1542.27 Q1582.6 1538.71 1582.6 1531.6 Q1582.6 1524.47 1580.77 1520.93 Q1578.96 1517.37 1575.33 1517.37 M1575.33 1513.66 Q1581.14 1513.66 1584.19 1518.27 Q1587.27 1522.85 1587.27 1531.6 Q1587.27 1540.33 1584.19 1544.94 Q1581.14 1549.52 1575.33 1549.52 Q1569.52 1549.52 1566.44 1544.94 Q1563.38 1540.33 1563.38 1531.6 Q1563.38 1522.85 1566.44 1518.27 Q1569.52 1513.66 1575.33 1513.66 Z" fill="#000000" fill-rule="nonzero" fill-opacity="1" /><path clip-path="url(#clip660)" d="M1595.49 1542.97 L1600.37 1542.97 L1600.37 1548.85 L1595.49 1548.85 L1595.49 1542.97 Z" fill="#000000" fill-rule="nonzero" fill-opacity="1" /><path clip-path="url(#clip660)" d="M1610.61 1514.29 L1628.96 1514.29 L1628.96 1518.22 L1614.89 1518.22 L1614.89 1526.7 Q1615.91 1526.35 1616.92 1526.19 Q1617.94 1526 1618.96 1526 Q1624.75 1526 1628.13 1529.17 Q1631.51 1532.34 1631.51 1537.76 Q1631.51 1543.34 1628.04 1546.44 Q1624.56 1549.52 1618.24 1549.52 Q1616.07 1549.52 1613.8 1549.15 Q1611.55 1548.78 1609.15 1548.04 L1609.15 1543.34 Q1611.23 1544.47 1613.45 1545.03 Q1615.67 1545.58 1618.15 1545.58 Q1622.16 1545.58 1624.49 1543.48 Q1626.83 1541.37 1626.83 1537.76 Q1626.83 1534.15 1624.49 1532.04 Q1622.16 1529.94 1618.15 1529.94 Q1616.28 1529.94 1614.4 1530.35 Q1612.55 1530.77 1610.61 1531.65 L1610.61 1514.29 Z" fill="#000000" fill-rule="nonzero" fill-opacity="1" /><path clip-path="url(#clip660)" d="M1911.07 1544.91 L1918.71 1544.91 L1918.71 1518.55 L1910.4 1520.21 L1910.4 1515.95 L1918.66 1514.29 L1923.34 1514.29 L1923.34 1544.91 L1930.98 1544.91 L1930.98 1548.85 L1911.07 1548.85 L1911.07 1544.91 Z" fill="#000000" fill-rule="nonzero" fill-opacity="1" /><path clip-path="url(#clip660)" d="M1940.42 1542.97 L1945.31 1542.97 L1945.31 1548.85 L1940.42 1548.85 L1940.42 1542.97 Z" fill="#000000" fill-rule="nonzero" fill-opacity="1" /><path clip-path="url(#clip660)" d="M1965.49 1517.37 Q1961.88 1517.37 1960.05 1520.93 Q1958.25 1524.47 1958.25 1531.6 Q1958.25 1538.71 1960.05 1542.27 Q1961.88 1545.82 1965.49 1545.82 Q1969.13 1545.82 1970.93 1542.27 Q1972.76 1538.71 1972.76 1531.6 Q1972.76 1524.47 1970.93 1520.93 Q1969.13 1517.37 1965.49 1517.37 M1965.49 1513.66 Q1971.3 1513.66 1974.36 1518.27 Q1977.44 1522.85 1977.44 1531.6 Q1977.44 1540.33 1974.36 1544.94 Q1971.3 1549.52 1965.49 1549.52 Q1959.68 1549.52 1956.6 1544.94 Q1953.55 1540.33 1953.55 1531.6 Q1953.55 1522.85 1956.6 1518.27 Q1959.68 1513.66 1965.49 1513.66 Z" fill="#000000" fill-rule="nonzero" fill-opacity="1" /><path clip-path="url(#clip660)" d="M2258.04 1544.91 L2265.68 1544.91 L2265.68 1518.55 L2257.37 1520.21 L2257.37 1515.95 L2265.63 1514.29 L2270.31 1514.29 L2270.31 1544.91 L2277.95 1544.91 L2277.95 1548.85 L2258.04 1548.85 L2258.04 1544.91 Z" fill="#000000" fill-rule="nonzero" fill-opacity="1" /><path clip-path="url(#clip660)" d="M2287.39 1542.97 L2292.28 1542.97 L2292.28 1548.85 L2287.39 1548.85 L2287.39 1542.97 Z" fill="#000000" fill-rule="nonzero" fill-opacity="1" /><path clip-path="url(#clip660)" d="M2302.51 1514.29 L2320.87 1514.29 L2320.87 1518.22 L2306.79 1518.22 L2306.79 1526.7 Q2307.81 1526.35 2308.83 1526.19 Q2309.85 1526 2310.87 1526 Q2316.65 1526 2320.03 1529.17 Q2323.41 1532.34 2323.41 1537.76 Q2323.41 1543.34 2319.94 1546.44 Q2316.47 1549.52 2310.15 1549.52 Q2307.97 1549.52 2305.7 1549.15 Q2303.46 1548.78 2301.05 1548.04 L2301.05 1543.34 Q2303.13 1544.47 2305.36 1545.03 Q2307.58 1545.58 2310.06 1545.58 Q2314.06 1545.58 2316.4 1543.48 Q2318.74 1541.37 2318.74 1537.76 Q2318.74 1534.15 2316.4 1532.04 Q2314.06 1529.94 2310.06 1529.94 Q2308.18 1529.94 2306.31 1530.35 Q2304.45 1530.77 2302.51 1531.65 L2302.51 1514.29 Z" fill="#000000" fill-rule="nonzero" fill-opacity="1" /><polyline clip-path="url(#clip662)" style="stroke:#000000; stroke-linecap:round; stroke-linejoin:round; stroke-width:2; stroke-opacity:0.1; fill:none" points="149.191,1447.87 2352.76,1447.87 "/>
<polyline clip-path="url(#clip662)" style="stroke:#000000; stroke-linecap:round; stroke-linejoin:round; stroke-width:2; stroke-opacity:0.1; fill:none" points="149.191,1126.42 2352.76,1126.42 "/>
<polyline clip-path="url(#clip662)" style="stroke:#000000; stroke-linecap:round; stroke-linejoin:round; stroke-width:2; stroke-opacity:0.1; fill:none" points="149.191,804.96 2352.76,804.96 "/>
<polyline clip-path="url(#clip662)" style="stroke:#000000; stroke-linecap:round; stroke-linejoin:round; stroke-width:2; stroke-opacity:0.1; fill:none" points="149.191,483.503 2352.76,483.503 "/>
<polyline clip-path="url(#clip662)" style="stroke:#000000; stroke-linecap:round; stroke-linejoin:round; stroke-width:2; stroke-opacity:0.1; fill:none" points="149.191,162.047 2352.76,162.047 "/>
<polyline clip-path="url(#clip660)" style="stroke:#000000; stroke-linecap:round; stroke-linejoin:round; stroke-width:4; stroke-opacity:1; fill:none" points="149.191,1486.45 149.191,123.472 "/>
<polyline clip-path="url(#clip660)" style="stroke:#000000; stroke-linecap:round; stroke-linejoin:round; stroke-width:4; stroke-opacity:1; fill:none" points="149.191,1447.87 168.089,1447.87 "/>
<polyline clip-path="url(#clip660)" style="stroke:#000000; stroke-linecap:round; stroke-linejoin:round; stroke-width:4; stroke-opacity:1; fill:none" points="149.191,1126.42 168.089,1126.42 "/>
<polyline clip-path="url(#clip660)" style="stroke:#000000; stroke-linecap:round; stroke-linejoin:round; stroke-width:4; stroke-opacity:1; fill:none" points="149.191,804.96 168.089,804.96 "/>
<polyline clip-path="url(#clip660)" style="stroke:#000000; stroke-linecap:round; stroke-linejoin:round; stroke-width:4; stroke-opacity:1; fill:none" points="149.191,483.503 168.089,483.503 "/>
<polyline clip-path="url(#clip660)" style="stroke:#000000; stroke-linecap:round; stroke-linejoin:round; stroke-width:4; stroke-opacity:1; fill:none" points="149.191,162.047 168.089,162.047 "/>
<path clip-path="url(#clip660)" d="M50.9921 1448.32 L80.6679 1448.32 L80.6679 1452.26 L50.9921 1452.26 L50.9921 1448.32 Z" fill="#000000" fill-rule="nonzero" fill-opacity="1" /><path clip-path="url(#clip660)" d="M103.608 1434.67 L91.8021 1453.12 L103.608 1453.12 L103.608 1434.67 M102.381 1430.59 L108.26 1430.59 L108.26 1453.12 L113.191 1453.12 L113.191 1457 L108.26 1457 L108.26 1465.15 L103.608 1465.15 L103.608 1457 L88.0058 1457 L88.0058 1452.49 L102.381 1430.59 Z" fill="#000000" fill-rule="nonzero" fill-opacity="1" /><path clip-path="url(#clip660)" d="M53.0754 1126.87 L82.7512 1126.87 L82.7512 1130.8 L53.0754 1130.8 L53.0754 1126.87 Z" fill="#000000" fill-rule="nonzero" fill-opacity="1" /><path clip-path="url(#clip660)" d="M96.8715 1139.76 L113.191 1139.76 L113.191 1143.7 L91.2465 1143.7 L91.2465 1139.76 Q93.9086 1137.01 98.4919 1132.38 Q103.098 1127.72 104.279 1126.38 Q106.524 1123.86 107.404 1122.12 Q108.307 1120.36 108.307 1118.67 Q108.307 1115.92 106.362 1114.18 Q104.441 1112.45 101.339 1112.45 Q99.14 1112.45 96.6863 1113.21 Q94.2558 1113.97 91.478 1115.53 L91.478 1110.8 Q94.3021 1109.67 96.7558 1109.09 Q99.2095 1108.51 101.246 1108.51 Q106.617 1108.51 109.811 1111.2 Q113.006 1113.88 113.006 1118.37 Q113.006 1120.5 112.196 1122.42 Q111.408 1124.32 109.302 1126.91 Q108.723 1127.59 105.621 1130.8 Q102.52 1134 96.8715 1139.76 Z" fill="#000000" fill-rule="nonzero" fill-opacity="1" /><path clip-path="url(#clip660)" d="M101.246 790.759 Q97.6354 790.759 95.8067 794.323 Q94.0012 797.865 94.0012 804.995 Q94.0012 812.101 95.8067 815.666 Q97.6354 819.208 101.246 819.208 Q104.881 819.208 106.686 815.666 Q108.515 812.101 108.515 804.995 Q108.515 797.865 106.686 794.323 Q104.881 790.759 101.246 790.759 M101.246 787.055 Q107.057 787.055 110.112 791.661 Q113.191 796.245 113.191 804.995 Q113.191 813.722 110.112 818.328 Q107.057 822.911 101.246 822.911 Q95.4363 822.911 92.3576 818.328 Q89.3021 813.722 89.3021 804.995 Q89.3021 796.245 92.3576 791.661 Q95.4363 787.055 101.246 787.055 Z" fill="#000000" fill-rule="nonzero" fill-opacity="1" /><path clip-path="url(#clip660)" d="M96.8715 496.848 L113.191 496.848 L113.191 500.783 L91.2465 500.783 L91.2465 496.848 Q93.9086 494.094 98.4919 489.464 Q103.098 484.811 104.279 483.469 Q106.524 480.946 107.404 479.209 Q108.307 477.45 108.307 475.76 Q108.307 473.006 106.362 471.27 Q104.441 469.534 101.339 469.534 Q99.14 469.534 96.6863 470.298 Q94.2558 471.061 91.478 472.612 L91.478 467.89 Q94.3021 466.756 96.7558 466.177 Q99.2095 465.598 101.246 465.598 Q106.617 465.598 109.811 468.284 Q113.006 470.969 113.006 475.46 Q113.006 477.589 112.196 479.51 Q111.408 481.409 109.302 484.001 Q108.723 484.672 105.621 487.89 Q102.52 491.084 96.8715 496.848 Z" fill="#000000" fill-rule="nonzero" fill-opacity="1" /><path clip-path="url(#clip660)" d="M103.608 148.841 L91.8021 167.29 L103.608 167.29 L103.608 148.841 M102.381 144.767 L108.26 144.767 L108.26 167.29 L113.191 167.29 L113.191 171.179 L108.26 171.179 L108.26 179.327 L103.608 179.327 L103.608 171.179 L88.0058 171.179 L88.0058 166.665 L102.381 144.767 Z" fill="#000000" fill-rule="nonzero" fill-opacity="1" /><path clip-path="url(#clip660)" d="M279.445 12.096 L287.628 12.096 L287.628 65.6895 L317.078 65.6895 L317.078 72.576 L279.445 72.576 L279.445 12.096 Z" fill="#000000" fill-rule="nonzero" fill-opacity="1" /><path clip-path="url(#clip660)" d="M345.961 49.7694 Q336.927 49.7694 333.444 51.8354 Q329.96 53.9013 329.96 58.8839 Q329.96 62.8538 332.552 65.2034 Q335.185 67.5124 339.682 67.5124 Q345.88 67.5124 349.607 63.1374 Q353.374 58.7219 353.374 51.4303 L353.374 49.7694 L345.961 49.7694 M360.828 46.6907 L360.828 72.576 L353.374 72.576 L353.374 65.6895 Q350.822 69.8214 347.014 71.8063 Q343.206 73.7508 337.697 73.7508 Q330.729 73.7508 326.598 69.8619 Q322.506 65.9325 322.506 59.3701 Q322.506 51.7138 327.61 47.825 Q332.755 43.9361 342.923 43.9361 L353.374 43.9361 L353.374 43.2069 Q353.374 38.0623 349.971 35.2672 Q346.609 32.4315 340.492 32.4315 Q336.603 32.4315 332.917 33.3632 Q329.231 34.295 325.828 36.1584 L325.828 29.2718 Q329.919 27.692 333.768 26.9223 Q337.616 26.1121 341.262 26.1121 Q351.106 26.1121 355.967 31.2163 Q360.828 36.3204 360.828 46.6907 Z" fill="#000000" fill-rule="nonzero" fill-opacity="1" /><path clip-path="url(#clip660)" d="M402.471 34.1734 Q401.215 33.4443 399.716 33.1202 Q398.258 32.7556 396.476 32.7556 Q390.156 32.7556 386.753 36.8875 Q383.391 40.9789 383.391 48.6757 L383.391 72.576 L375.897 72.576 L375.897 27.2059 L383.391 27.2059 L383.391 34.2544 Q385.741 30.1225 389.508 28.1376 Q393.275 26.1121 398.663 26.1121 Q399.433 26.1121 400.365 26.2337 Q401.296 26.3147 402.43 26.5172 L402.471 34.1734 Z" fill="#000000" fill-rule="nonzero" fill-opacity="1" /><path clip-path="url(#clip660)" d="M438.686 49.3643 Q438.686 41.2625 435.324 36.8065 Q432.002 32.3505 425.966 32.3505 Q419.971 32.3505 416.609 36.8065 Q413.287 41.2625 413.287 49.3643 Q413.287 57.4256 416.609 61.8816 Q419.971 66.3376 425.966 66.3376 Q432.002 66.3376 435.324 61.8816 Q438.686 57.4256 438.686 49.3643 M446.14 66.9452 Q446.14 78.5308 440.995 84.1616 Q435.85 89.8329 425.237 89.8329 Q421.308 89.8329 417.824 89.2252 Q414.34 88.6581 411.059 87.4428 L411.059 80.1917 Q414.34 81.9741 417.54 82.8248 Q420.741 83.6755 424.062 83.6755 Q431.394 83.6755 435.04 79.8271 Q438.686 76.0193 438.686 68.282 L438.686 64.5957 Q436.377 68.6061 432.772 70.5911 Q429.166 72.576 424.143 72.576 Q415.798 72.576 410.694 66.2161 Q405.59 59.8562 405.59 49.3643 Q405.59 38.832 410.694 32.472 Q415.798 26.1121 424.143 26.1121 Q429.166 26.1121 432.772 28.0971 Q436.377 30.082 438.686 34.0924 L438.686 27.2059 L446.14 27.2059 L446.14 66.9452 Z" fill="#000000" fill-rule="nonzero" fill-opacity="1" /><path clip-path="url(#clip660)" d="M500.3 48.0275 L500.3 51.6733 L466.03 51.6733 Q466.516 59.3701 470.648 63.421 Q474.82 67.4314 482.233 67.4314 Q486.527 67.4314 490.538 66.3781 Q494.589 65.3249 498.558 63.2184 L498.558 70.267 Q494.548 71.9684 490.335 72.8596 Q486.122 73.7508 481.788 73.7508 Q470.931 73.7508 464.571 67.4314 Q458.252 61.1119 458.252 50.3365 Q458.252 39.1965 464.247 32.6746 Q470.283 26.1121 480.491 26.1121 Q489.646 26.1121 494.953 32.0264 Q500.3 37.9003 500.3 48.0275 M492.847 45.84 Q492.766 39.7232 489.403 36.0774 Q486.082 32.4315 480.572 32.4315 Q474.334 32.4315 470.567 35.9558 Q466.84 39.4801 466.273 45.8805 L492.847 45.84 Z" fill="#000000" fill-rule="nonzero" fill-opacity="1" /><path clip-path="url(#clip660)" d="M541.458 28.5427 L541.458 35.5912 Q538.298 33.9709 534.895 33.1607 Q531.492 32.3505 527.846 32.3505 Q522.297 32.3505 519.502 34.0519 Q516.747 35.7533 516.747 39.156 Q516.747 41.7486 518.732 43.2475 Q520.717 44.7058 526.712 46.0426 L529.264 46.6097 Q537.204 48.3111 540.526 51.4303 Q543.888 54.509 543.888 60.0587 Q543.888 66.3781 538.865 70.0644 Q533.882 73.7508 525.132 73.7508 Q521.487 73.7508 517.517 73.0216 Q513.587 72.3329 509.212 70.9151 L509.212 63.2184 Q513.344 65.3654 517.355 66.4591 Q521.365 67.5124 525.294 67.5124 Q530.561 67.5124 533.396 65.73 Q536.232 63.9071 536.232 60.6258 Q536.232 57.5877 534.166 55.9673 Q532.14 54.3469 525.213 52.8481 L522.621 52.2405 Q515.694 50.7821 512.615 47.7845 Q509.536 44.7463 509.536 39.4801 Q509.536 33.0797 514.073 29.5959 Q518.61 26.1121 526.955 26.1121 Q531.087 26.1121 534.733 26.7198 Q538.379 27.3274 541.458 28.5427 Z" fill="#000000" fill-rule="nonzero" fill-opacity="1" /><path clip-path="url(#clip660)" d="M563.13 14.324 L563.13 27.2059 L578.483 27.2059 L578.483 32.9987 L563.13 32.9987 L563.13 57.6282 Q563.13 63.1779 564.629 64.7578 Q566.168 66.3376 570.827 66.3376 L578.483 66.3376 L578.483 72.576 L570.827 72.576 Q562.198 72.576 558.917 69.3758 Q555.636 66.1351 555.636 57.6282 L555.636 32.9987 L550.167 32.9987 L550.167 27.2059 L555.636 27.2059 L555.636 14.324 L563.13 14.324 Z" fill="#000000" fill-rule="nonzero" fill-opacity="1" /><path clip-path="url(#clip660)" d="M614.981 12.096 L653.222 12.096 L653.222 18.9825 L623.164 18.9825 L623.164 36.8875 L651.966 36.8875 L651.966 43.7741 L623.164 43.7741 L623.164 65.6895 L653.951 65.6895 L653.951 72.576 L614.981 72.576 L614.981 12.096 Z" fill="#000000" fill-rule="nonzero" fill-opacity="1" /><path clip-path="url(#clip660)" d="M666.306 54.671 L666.306 27.2059 L673.76 27.2059 L673.76 54.3874 Q673.76 60.8284 676.272 64.0691 Q678.783 67.2693 683.806 67.2693 Q689.842 67.2693 693.326 63.421 Q696.85 59.5726 696.85 52.9291 L696.85 27.2059 L704.304 27.2059 L704.304 72.576 L696.85 72.576 L696.85 65.6084 Q694.136 69.7404 690.531 71.7658 Q686.966 73.7508 682.226 73.7508 Q674.408 73.7508 670.357 68.8897 Q666.306 64.0286 666.306 54.671 M685.062 26.1121 L685.062 26.1121 Z" fill="#000000" fill-rule="nonzero" fill-opacity="1" /><path clip-path="url(#clip660)" d="M752.307 28.9478 L752.307 35.9153 Q749.147 34.1734 745.947 33.3227 Q742.787 32.4315 739.547 32.4315 Q732.296 32.4315 728.285 37.0496 Q724.275 41.6271 724.275 49.9314 Q724.275 58.2358 728.285 62.8538 Q732.296 67.4314 739.547 67.4314 Q742.787 67.4314 745.947 66.5807 Q749.147 65.6895 752.307 63.9476 L752.307 70.8341 Q749.188 72.2924 745.826 73.0216 Q742.504 73.7508 738.737 73.7508 Q728.488 73.7508 722.452 67.3098 Q716.416 60.8689 716.416 49.9314 Q716.416 38.832 722.492 32.472 Q728.609 26.1121 739.223 26.1121 Q742.666 26.1121 745.947 26.8413 Q749.228 27.5299 752.307 28.9478 Z" fill="#000000" fill-rule="nonzero" fill-opacity="1" /><path clip-path="url(#clip660)" d="M765.27 9.54393 L772.724 9.54393 L772.724 72.576 L765.27 72.576 L765.27 9.54393 Z" fill="#000000" fill-rule="nonzero" fill-opacity="1" /><path clip-path="url(#clip660)" d="M788.32 27.2059 L795.773 27.2059 L795.773 72.576 L788.32 72.576 L788.32 27.2059 M788.32 9.54393 L795.773 9.54393 L795.773 18.9825 L788.32 18.9825 L788.32 9.54393 Z" fill="#000000" fill-rule="nonzero" fill-opacity="1" /><path clip-path="url(#clip660)" d="M841.224 34.0924 L841.224 9.54393 L848.678 9.54393 L848.678 72.576 L841.224 72.576 L841.224 65.7705 Q838.875 69.8214 835.27 71.8063 Q831.705 73.7508 826.682 73.7508 Q818.458 73.7508 813.273 67.1883 Q808.129 60.6258 808.129 49.9314 Q808.129 39.2371 813.273 32.6746 Q818.458 26.1121 826.682 26.1121 Q831.705 26.1121 835.27 28.0971 Q838.875 30.0415 841.224 34.0924 M815.825 49.9314 Q815.825 58.1548 819.188 62.8538 Q822.59 67.5124 828.505 67.5124 Q834.419 67.5124 837.822 62.8538 Q841.224 58.1548 841.224 49.9314 Q841.224 41.7081 837.822 37.0496 Q834.419 32.3505 828.505 32.3505 Q822.59 32.3505 819.188 37.0496 Q815.825 41.7081 815.825 49.9314 Z" fill="#000000" fill-rule="nonzero" fill-opacity="1" /><path clip-path="url(#clip660)" d="M902.839 48.0275 L902.839 51.6733 L868.568 51.6733 Q869.054 59.3701 873.186 63.421 Q877.358 67.4314 884.772 67.4314 Q889.066 67.4314 893.076 66.3781 Q897.127 65.3249 901.097 63.2184 L901.097 70.267 Q897.086 71.9684 892.873 72.8596 Q888.661 73.7508 884.326 73.7508 Q873.47 73.7508 867.11 67.4314 Q860.79 61.1119 860.79 50.3365 Q860.79 39.1965 866.786 32.6746 Q872.821 26.1121 883.03 26.1121 Q892.185 26.1121 897.491 32.0264 Q902.839 37.9003 902.839 48.0275 M895.385 45.84 Q895.304 39.7232 891.942 36.0774 Q888.62 32.4315 883.111 32.4315 Q876.872 32.4315 873.105 35.9558 Q869.378 39.4801 868.811 45.8805 L895.385 45.84 Z" fill="#000000" fill-rule="nonzero" fill-opacity="1" /><path clip-path="url(#clip660)" d="M935.692 49.7694 Q926.658 49.7694 923.174 51.8354 Q919.69 53.9013 919.69 58.8839 Q919.69 62.8538 922.283 65.2034 Q924.916 67.5124 929.413 67.5124 Q935.61 67.5124 939.337 63.1374 Q943.105 58.7219 943.105 51.4303 L943.105 49.7694 L935.692 49.7694 M950.558 46.6907 L950.558 72.576 L943.105 72.576 L943.105 65.6895 Q940.553 69.8214 936.745 71.8063 Q932.937 73.7508 927.428 73.7508 Q920.46 73.7508 916.328 69.8619 Q912.237 65.9325 912.237 59.3701 Q912.237 51.7138 917.341 47.825 Q922.486 43.9361 932.653 43.9361 L943.105 43.9361 L943.105 43.2069 Q943.105 38.0623 939.702 35.2672 Q936.34 32.4315 930.223 32.4315 Q926.334 32.4315 922.648 33.3632 Q918.961 34.295 915.559 36.1584 L915.559 29.2718 Q919.65 27.692 923.498 26.9223 Q927.347 26.1121 930.992 26.1121 Q940.836 26.1121 945.697 31.2163 Q950.558 36.3204 950.558 46.6907 Z" fill="#000000" fill-rule="nonzero" fill-opacity="1" /><path clip-path="url(#clip660)" d="M1003.63 45.1919 L1003.63 72.576 L996.172 72.576 L996.172 45.4349 Q996.172 38.994 993.66 35.7938 Q991.148 32.5936 986.125 32.5936 Q980.089 32.5936 976.606 36.4419 Q973.122 40.2903 973.122 46.9338 L973.122 72.576 L965.628 72.576 L965.628 27.2059 L973.122 27.2059 L973.122 34.2544 Q975.795 30.163 979.401 28.1376 Q983.047 26.1121 987.786 26.1121 Q995.604 26.1121 999.615 30.9732 Q1003.63 35.7938 1003.63 45.1919 Z" fill="#000000" fill-rule="nonzero" fill-opacity="1" /><path clip-path="url(#clip660)" d="M1077.43 49.9314 Q1077.43 41.7081 1074.03 37.0496 Q1070.67 32.3505 1064.75 32.3505 Q1058.84 32.3505 1055.44 37.0496 Q1052.07 41.7081 1052.07 49.9314 Q1052.07 58.1548 1055.44 62.8538 Q1058.84 67.5124 1064.75 67.5124 Q1070.67 67.5124 1074.03 62.8538 Q1077.43 58.1548 1077.43 49.9314 M1052.07 34.0924 Q1054.42 30.0415 1057.99 28.0971 Q1061.59 26.1121 1066.58 26.1121 Q1074.84 26.1121 1079.98 32.6746 Q1085.17 39.2371 1085.17 49.9314 Q1085.17 60.6258 1079.98 67.1883 Q1074.84 73.7508 1066.58 73.7508 Q1061.59 73.7508 1057.99 71.8063 Q1054.42 69.8214 1052.07 65.7705 L1052.07 72.576 L1044.58 72.576 L1044.58 9.54393 L1052.07 9.54393 L1052.07 34.0924 Z" fill="#000000" fill-rule="nonzero" fill-opacity="1" /><path clip-path="url(#clip660)" d="M1118.14 49.7694 Q1109.11 49.7694 1105.63 51.8354 Q1102.14 53.9013 1102.14 58.8839 Q1102.14 62.8538 1104.74 65.2034 Q1107.37 67.5124 1111.87 67.5124 Q1118.06 67.5124 1121.79 63.1374 Q1125.56 58.7219 1125.56 51.4303 L1125.56 49.7694 L1118.14 49.7694 M1133.01 46.6907 L1133.01 72.576 L1125.56 72.576 L1125.56 65.6895 Q1123.01 69.8214 1119.2 71.8063 Q1115.39 73.7508 1109.88 73.7508 Q1102.91 73.7508 1098.78 69.8619 Q1094.69 65.9325 1094.69 59.3701 Q1094.69 51.7138 1099.79 47.825 Q1104.94 43.9361 1115.11 43.9361 L1125.56 43.9361 L1125.56 43.2069 Q1125.56 38.0623 1122.15 35.2672 Q1118.79 32.4315 1112.68 32.4315 Q1108.79 32.4315 1105.1 33.3632 Q1101.41 34.295 1098.01 36.1584 L1098.01 29.2718 Q1102.1 27.692 1105.95 26.9223 Q1109.8 26.1121 1113.45 26.1121 Q1123.29 26.1121 1128.15 31.2163 Q1133.01 36.3204 1133.01 46.6907 Z" fill="#000000" fill-rule="nonzero" fill-opacity="1" /><path clip-path="url(#clip660)" d="M1148.36 9.54393 L1155.82 9.54393 L1155.82 72.576 L1148.36 72.576 L1148.36 9.54393 Z" fill="#000000" fill-rule="nonzero" fill-opacity="1" /><path clip-path="url(#clip660)" d="M1171.41 9.54393 L1178.87 9.54393 L1178.87 72.576 L1171.41 72.576 L1171.41 9.54393 Z" fill="#000000" fill-rule="nonzero" fill-opacity="1" /><path clip-path="url(#clip660)" d="M1220.83 9.54393 L1228.29 9.54393 L1228.29 72.576 L1220.83 72.576 L1220.83 9.54393 Z" fill="#000000" fill-rule="nonzero" fill-opacity="1" /><path clip-path="url(#clip660)" d="M1262.76 76.7889 Q1259.6 84.8907 1256.6 87.3618 Q1253.61 89.8329 1248.58 89.8329 L1242.63 89.8329 L1242.63 83.5945 L1247 83.5945 Q1250.08 83.5945 1251.78 82.1361 Q1253.48 80.6778 1255.55 75.2496 L1256.89 71.8468 L1238.54 27.2059 L1246.44 27.2059 L1260.61 62.6918 L1274.79 27.2059 L1282.69 27.2059 L1262.76 76.7889 Z" fill="#000000" fill-rule="nonzero" fill-opacity="1" /><path clip-path="url(#clip660)" d="M1292.98 27.2059 L1300.43 27.2059 L1300.43 72.576 L1292.98 72.576 L1292.98 27.2059 M1292.98 9.54393 L1300.43 9.54393 L1300.43 18.9825 L1292.98 18.9825 L1292.98 9.54393 Z" fill="#000000" fill-rule="nonzero" fill-opacity="1" /><path clip-path="url(#clip660)" d="M1353.74 45.1919 L1353.74 72.576 L1346.29 72.576 L1346.29 45.4349 Q1346.29 38.994 1343.78 35.7938 Q1341.27 32.5936 1336.24 32.5936 Q1330.21 32.5936 1326.73 36.4419 Q1323.24 40.2903 1323.24 46.9338 L1323.24 72.576 L1315.75 72.576 L1315.75 27.2059 L1323.24 27.2059 L1323.24 34.2544 Q1325.92 30.163 1329.52 28.1376 Q1333.17 26.1121 1337.91 26.1121 Q1345.72 26.1121 1349.73 30.9732 Q1353.74 35.7938 1353.74 45.1919 Z" fill="#000000" fill-rule="nonzero" fill-opacity="1" /><path clip-path="url(#clip660)" d="M1398.47 49.3643 Q1398.47 41.2625 1395.1 36.8065 Q1391.78 32.3505 1385.75 32.3505 Q1379.75 32.3505 1376.39 36.8065 Q1373.07 41.2625 1373.07 49.3643 Q1373.07 57.4256 1376.39 61.8816 Q1379.75 66.3376 1385.75 66.3376 Q1391.78 66.3376 1395.1 61.8816 Q1398.47 57.4256 1398.47 49.3643 M1405.92 66.9452 Q1405.92 78.5308 1400.78 84.1616 Q1395.63 89.8329 1385.02 89.8329 Q1381.09 89.8329 1377.6 89.2252 Q1374.12 88.6581 1370.84 87.4428 L1370.84 80.1917 Q1374.12 81.9741 1377.32 82.8248 Q1380.52 83.6755 1383.84 83.6755 Q1391.18 83.6755 1394.82 79.8271 Q1398.47 76.0193 1398.47 68.282 L1398.47 64.5957 Q1396.16 68.6061 1392.55 70.5911 Q1388.95 72.576 1383.92 72.576 Q1375.58 72.576 1370.48 66.2161 Q1365.37 59.8562 1365.37 49.3643 Q1365.37 38.832 1370.48 32.472 Q1375.58 26.1121 1383.92 26.1121 Q1388.95 26.1121 1392.55 28.0971 Q1396.16 30.082 1398.47 34.0924 L1398.47 27.2059 L1405.92 27.2059 L1405.92 66.9452 Z" fill="#000000" fill-rule="nonzero" fill-opacity="1" /><path clip-path="url(#clip660)" d="M1447.64 27.2059 L1455.1 27.2059 L1455.1 72.576 L1447.64 72.576 L1447.64 27.2059 M1447.64 9.54393 L1455.1 9.54393 L1455.1 18.9825 L1447.64 18.9825 L1447.64 9.54393 Z" fill="#000000" fill-rule="nonzero" fill-opacity="1" /><path clip-path="url(#clip660)" d="M1508.41 45.1919 L1508.41 72.576 L1500.95 72.576 L1500.95 45.4349 Q1500.95 38.994 1498.44 35.7938 Q1495.93 32.5936 1490.91 32.5936 Q1484.87 32.5936 1481.39 36.4419 Q1477.91 40.2903 1477.91 46.9338 L1477.91 72.576 L1470.41 72.576 L1470.41 27.2059 L1477.91 27.2059 L1477.91 34.2544 Q1480.58 30.163 1484.18 28.1376 Q1487.83 26.1121 1492.57 26.1121 Q1500.39 26.1121 1504.4 30.9732 Q1508.41 35.7938 1508.41 45.1919 Z" fill="#000000" fill-rule="nonzero" fill-opacity="1" /><path clip-path="url(#clip660)" d="M1570.27 49.7694 Q1561.23 49.7694 1557.75 51.8354 Q1554.26 53.9013 1554.26 58.8839 Q1554.26 62.8538 1556.86 65.2034 Q1559.49 67.5124 1563.99 67.5124 Q1570.18 67.5124 1573.91 63.1374 Q1577.68 58.7219 1577.68 51.4303 L1577.68 49.7694 L1570.27 49.7694 M1585.13 46.6907 L1585.13 72.576 L1577.68 72.576 L1577.68 65.6895 Q1575.13 69.8214 1571.32 71.8063 Q1567.51 73.7508 1562 73.7508 Q1555.03 73.7508 1550.9 69.8619 Q1546.81 65.9325 1546.81 59.3701 Q1546.81 51.7138 1551.92 47.825 Q1557.06 43.9361 1567.23 43.9361 L1577.68 43.9361 L1577.68 43.2069 Q1577.68 38.0623 1574.28 35.2672 Q1570.91 32.4315 1564.8 32.4315 Q1560.91 32.4315 1557.22 33.3632 Q1553.54 34.295 1550.13 36.1584 L1550.13 29.2718 Q1554.22 27.692 1558.07 26.9223 Q1561.92 26.1121 1565.57 26.1121 Q1575.41 26.1121 1580.27 31.2163 Q1585.13 36.3204 1585.13 46.6907 Z" fill="#000000" fill-rule="nonzero" fill-opacity="1" /><path clip-path="url(#clip660)" d="M1634.96 65.6895 L1663.52 65.6895 L1663.52 72.576 L1625.11 72.576 L1625.11 65.6895 Q1629.77 60.8689 1637.79 52.7671 Q1645.86 44.6248 1647.92 42.2752 Q1651.85 37.8598 1653.39 34.8216 Q1654.97 31.7429 1654.97 28.7857 Q1654.97 23.9651 1651.57 20.927 Q1648.21 17.8888 1642.78 17.8888 Q1638.93 17.8888 1634.63 19.2256 Q1630.38 20.5624 1625.52 23.2765 L1625.52 15.0127 Q1630.46 13.0277 1634.76 12.015 Q1639.05 11.0023 1642.61 11.0023 Q1652.01 11.0023 1657.6 15.7013 Q1663.19 20.4004 1663.19 28.2591 Q1663.19 31.9859 1661.78 35.3482 Q1660.4 38.6699 1656.71 43.2069 Q1655.7 44.3817 1650.27 50.0125 Q1644.84 55.6027 1634.96 65.6895 Z" fill="#000000" fill-rule="nonzero" fill-opacity="1" /><path clip-path="url(#clip660)" d="M1688.15 18.8205 L1688.15 65.8515 L1698.03 65.8515 Q1710.55 65.8515 1716.34 60.1802 Q1722.17 54.509 1722.17 42.2752 Q1722.17 30.1225 1716.34 24.4918 Q1710.55 18.8205 1698.03 18.8205 L1688.15 18.8205 M1679.96 12.096 L1696.78 12.096 Q1714.36 12.096 1722.58 19.4281 Q1730.8 26.7198 1730.8 42.2752 Q1730.8 57.9117 1722.54 65.2439 Q1714.28 72.576 1696.78 72.576 L1679.96 72.576 L1679.96 12.096 Z" fill="#000000" fill-rule="nonzero" fill-opacity="1" /><path clip-path="url(#clip660)" d="M1777.1 65.7705 L1777.1 89.8329 L1769.61 89.8329 L1769.61 27.2059 L1777.1 27.2059 L1777.1 34.0924 Q1779.45 30.0415 1783.02 28.0971 Q1786.62 26.1121 1791.61 26.1121 Q1799.87 26.1121 1805.02 32.6746 Q1810.2 39.2371 1810.2 49.9314 Q1810.2 60.6258 1805.02 67.1883 Q1799.87 73.7508 1791.61 73.7508 Q1786.62 73.7508 1783.02 71.8063 Q1779.45 69.8214 1777.1 65.7705 M1802.46 49.9314 Q1802.46 41.7081 1799.06 37.0496 Q1795.7 32.3505 1789.78 32.3505 Q1783.87 32.3505 1780.47 37.0496 Q1777.1 41.7081 1777.1 49.9314 Q1777.1 58.1548 1780.47 62.8538 Q1783.87 67.5124 1789.78 67.5124 Q1795.7 67.5124 1799.06 62.8538 Q1802.46 58.1548 1802.46 49.9314 Z" fill="#000000" fill-rule="nonzero" fill-opacity="1" /><path clip-path="url(#clip660)" d="M1840.14 32.4315 Q1834.14 32.4315 1830.66 37.1306 Q1827.17 41.7891 1827.17 49.9314 Q1827.17 58.0738 1830.62 62.7728 Q1834.1 67.4314 1840.14 67.4314 Q1846.09 67.4314 1849.58 62.7323 Q1853.06 58.0333 1853.06 49.9314 Q1853.06 41.8701 1849.58 37.1711 Q1846.09 32.4315 1840.14 32.4315 M1840.14 26.1121 Q1849.86 26.1121 1855.41 32.4315 Q1860.96 38.7509 1860.96 49.9314 Q1860.96 61.0714 1855.41 67.4314 Q1849.86 73.7508 1840.14 73.7508 Q1830.37 73.7508 1824.82 67.4314 Q1819.32 61.0714 1819.32 49.9314 Q1819.32 38.7509 1824.82 32.4315 Q1830.37 26.1121 1840.14 26.1121 Z" fill="#000000" fill-rule="nonzero" fill-opacity="1" /><path clip-path="url(#clip660)" d="M1873.31 9.54393 L1880.77 9.54393 L1880.77 72.576 L1873.31 72.576 L1873.31 9.54393 Z" fill="#000000" fill-rule="nonzero" fill-opacity="1" /><path clip-path="url(#clip660)" d="M1915.24 76.7889 Q1912.08 84.8907 1909.08 87.3618 Q1906.09 89.8329 1901.06 89.8329 L1895.11 89.8329 L1895.11 83.5945 L1899.48 83.5945 Q1902.56 83.5945 1904.26 82.1361 Q1905.96 80.6778 1908.03 75.2496 L1909.37 71.8468 L1891.02 27.2059 L1898.92 27.2059 L1913.09 62.6918 L1927.27 27.2059 L1935.17 27.2059 L1915.24 76.7889 Z" fill="#000000" fill-rule="nonzero" fill-opacity="1" /><path clip-path="url(#clip660)" d="M1983.17 45.1919 L1983.17 72.576 L1975.72 72.576 L1975.72 45.4349 Q1975.72 38.994 1973.21 35.7938 Q1970.7 32.5936 1965.67 32.5936 Q1959.64 32.5936 1956.15 36.4419 Q1952.67 40.2903 1952.67 46.9338 L1952.67 72.576 L1945.18 72.576 L1945.18 9.54393 L1952.67 9.54393 L1952.67 34.2544 Q1955.34 30.163 1958.95 28.1376 Q1962.6 26.1121 1967.34 26.1121 Q1975.15 26.1121 1979.16 30.9732 Q1983.17 35.7938 1983.17 45.1919 Z" fill="#000000" fill-rule="nonzero" fill-opacity="1" /><path clip-path="url(#clip660)" d="M2036.85 48.0275 L2036.85 51.6733 L2002.58 51.6733 Q2003.06 59.3701 2007.2 63.421 Q2011.37 67.4314 2018.78 67.4314 Q2023.08 67.4314 2027.09 66.3781 Q2031.14 65.3249 2035.11 63.2184 L2035.11 70.267 Q2031.1 71.9684 2026.88 72.8596 Q2022.67 73.7508 2018.34 73.7508 Q2007.48 73.7508 2001.12 67.4314 Q1994.8 61.1119 1994.8 50.3365 Q1994.8 39.1965 2000.8 32.6746 Q2006.83 26.1121 2017.04 26.1121 Q2026.19 26.1121 2031.5 32.0264 Q2036.85 37.9003 2036.85 48.0275 M2029.4 45.84 Q2029.31 39.7232 2025.95 36.0774 Q2022.63 32.4315 2017.12 32.4315 Q2010.88 32.4315 2007.12 35.9558 Q2003.39 39.4801 2002.82 45.8805 L2029.4 45.84 Z" fill="#000000" fill-rule="nonzero" fill-opacity="1" /><path clip-path="url(#clip660)" d="M2078.94 34.0924 L2078.94 9.54393 L2086.39 9.54393 L2086.39 72.576 L2078.94 72.576 L2078.94 65.7705 Q2076.59 69.8214 2072.98 71.8063 Q2069.42 73.7508 2064.39 73.7508 Q2056.17 73.7508 2050.99 67.1883 Q2045.84 60.6258 2045.84 49.9314 Q2045.84 39.2371 2050.99 32.6746 Q2056.17 26.1121 2064.39 26.1121 Q2069.42 26.1121 2072.98 28.0971 Q2076.59 30.0415 2078.94 34.0924 M2053.54 49.9314 Q2053.54 58.1548 2056.9 62.8538 Q2060.3 67.5124 2066.22 67.5124 Q2072.13 67.5124 2075.53 62.8538 Q2078.94 58.1548 2078.94 49.9314 Q2078.94 41.7081 2075.53 37.0496 Q2072.13 32.3505 2066.22 32.3505 Q2060.3 32.3505 2056.9 37.0496 Q2053.54 41.7081 2053.54 49.9314 Z" fill="#000000" fill-rule="nonzero" fill-opacity="1" /><path clip-path="url(#clip660)" d="M2128.03 34.1734 Q2126.78 33.4443 2125.28 33.1202 Q2123.82 32.7556 2122.04 32.7556 Q2115.72 32.7556 2112.32 36.8875 Q2108.95 40.9789 2108.95 48.6757 L2108.95 72.576 L2101.46 72.576 L2101.46 27.2059 L2108.95 27.2059 L2108.95 34.2544 Q2111.3 30.1225 2115.07 28.1376 Q2118.84 26.1121 2124.23 26.1121 Q2125 26.1121 2125.93 26.2337 Q2126.86 26.3147 2127.99 26.5172 L2128.03 34.1734 Z" fill="#000000" fill-rule="nonzero" fill-opacity="1" /><path clip-path="url(#clip660)" d="M2151.61 32.4315 Q2145.62 32.4315 2142.13 37.1306 Q2138.65 41.7891 2138.65 49.9314 Q2138.65 58.0738 2142.09 62.7728 Q2145.58 67.4314 2151.61 67.4314 Q2157.57 67.4314 2161.05 62.7323 Q2164.53 58.0333 2164.53 49.9314 Q2164.53 41.8701 2161.05 37.1711 Q2157.57 32.4315 2151.61 32.4315 M2151.61 26.1121 Q2161.33 26.1121 2166.88 32.4315 Q2172.43 38.7509 2172.43 49.9314 Q2172.43 61.0714 2166.88 67.4314 Q2161.33 73.7508 2151.61 73.7508 Q2141.85 73.7508 2136.3 67.4314 Q2130.79 61.0714 2130.79 49.9314 Q2130.79 38.7509 2136.3 32.4315 Q2141.85 26.1121 2151.61 26.1121 Z" fill="#000000" fill-rule="nonzero" fill-opacity="1" /><path clip-path="url(#clip660)" d="M2222.5 45.1919 L2222.5 72.576 L2215.05 72.576 L2215.05 45.4349 Q2215.05 38.994 2212.54 35.7938 Q2210.02 32.5936 2205 32.5936 Q2198.97 32.5936 2195.48 36.4419 Q2192 40.2903 2192 46.9338 L2192 72.576 L2184.5 72.576 L2184.5 27.2059 L2192 27.2059 L2192 34.2544 Q2194.67 30.163 2198.28 28.1376 Q2201.92 26.1121 2206.66 26.1121 Q2214.48 26.1121 2218.49 30.9732 Q2222.5 35.7938 2222.5 45.1919 Z" fill="#000000" fill-rule="nonzero" fill-opacity="1" /><polyline clip-path="url(#clip662)" style="stroke:#009af9; stroke-linecap:round; stroke-linejoin:round; stroke-width:4; stroke-opacity:1; fill:none" points="211.556,162.047 232.554,171.788 253.553,181.529 274.551,191.27 295.549,201.011 316.548,210.752 337.546,220.494 358.544,230.235 379.543,239.976 400.541,249.717 421.539,259.458 442.538,269.199 463.536,278.94 484.534,288.681 505.533,298.422 526.531,308.164 547.529,317.905 568.528,327.646 589.526,337.387 610.524,347.128 631.523,356.869 652.521,366.61 673.519,376.351 694.518,386.092 715.516,395.833 736.514,405.575 757.513,415.316 778.511,425.057 799.509,434.798 820.508,444.539 841.506,454.28 862.504,464.021 883.503,473.762 904.501,483.503 925.499,493.245 946.498,502.986 967.496,512.727 988.494,522.468 1009.49,532.209 1030.49,541.95 1051.49,551.691 1072.49,561.432 1093.49,571.173 1114.48,580.915 1135.48,590.656 1156.48,600.397 1177.48,610.138 1198.48,619.879 1219.48,629.62 1240.47,639.361 1261.47,649.102 1282.47,658.843 1303.47,668.584 1324.47,678.326 1345.47,688.067 1366.46,697.808 1387.46,707.549 1408.46,717.29 1429.46,727.031 1450.46,736.772 1471.46,746.513 1492.45,756.254 1513.45,765.996 1534.45,775.737 1555.45,785.478 1576.45,795.219 1597.45,804.96 1618.44,814.701 1639.44,824.442 1660.44,834.183 1681.44,843.924 1702.44,853.666 1723.44,863.407 1744.43,873.148 1765.43,882.889 1786.43,892.63 1807.43,902.371 1828.43,912.112 1849.43,921.853 1870.42,931.594 1891.42,941.336 1912.42,951.077 1933.42,960.818 1954.42,970.559 1975.42,980.3 1996.41,990.041 2017.41,999.782 2038.41,1009.52 2059.41,1019.26 2080.41,1029.01 2101.41,1038.75 2122.4,1048.49 2143.4,1058.23 2164.4,1067.97 2185.4,1077.71 2206.4,1087.45 2227.4,1097.19 2248.39,1106.93 2269.39,1116.68 2290.39,1126.42 "/>
<polyline clip-path="url(#clip662)" style="stroke:#e26f46; stroke-linecap:round; stroke-linejoin:round; stroke-width:4; stroke-opacity:1; fill:none" points="211.556,1447.87 232.554,1438.13 253.553,1428.39 274.551,1418.65 295.549,1408.91 316.548,1399.17 337.546,1389.43 358.544,1379.69 379.543,1369.94 400.541,1360.2 421.539,1350.46 442.538,1340.72 463.536,1330.98 484.534,1321.24 505.533,1311.5 526.531,1301.76 547.529,1292.02 568.528,1282.27 589.526,1272.53 610.524,1262.79 631.523,1253.05 652.521,1243.31 673.519,1233.57 694.518,1223.83 715.516,1214.09 736.514,1204.35 757.513,1194.6 778.511,1184.86 799.509,1175.12 820.508,1165.38 841.506,1155.64 862.504,1145.9 883.503,1136.16 904.501,1126.42 925.499,1116.68 946.498,1106.93 967.496,1097.19 988.494,1087.45 1009.49,1077.71 1030.49,1067.97 1051.49,1058.23 1072.49,1048.49 1093.49,1038.75 1114.48,1029.01 1135.48,1019.26 1156.48,1009.52 1177.48,999.782 1198.48,990.041 1219.48,980.3 1240.47,970.559 1261.47,960.818 1282.47,951.077 1303.47,941.336 1324.47,931.594 1345.47,921.853 1366.46,912.112 1387.46,902.371 1408.46,892.63 1429.46,882.889 1450.46,873.148 1471.46,863.407 1492.45,853.666 1513.45,843.924 1534.45,834.183 1555.45,824.442 1576.45,814.701 1597.45,804.96 1618.44,795.219 1639.44,785.478 1660.44,775.737 1681.44,765.996 1702.44,756.254 1723.44,746.513 1744.43,736.772 1765.43,727.031 1786.43,717.29 1807.43,707.549 1828.43,697.808 1849.43,688.067 1870.42,678.326 1891.42,668.584 1912.42,658.843 1933.42,649.102 1954.42,639.361 1975.42,629.62 1996.41,619.879 2017.41,610.138 2038.41,600.397 2059.41,590.656 2080.41,580.915 2101.41,571.173 2122.4,561.432 2143.4,551.691 2164.4,541.95 2185.4,532.209 2206.4,522.468 2227.4,512.727 2248.39,502.986 2269.39,493.245 2290.39,483.503 "/>
<polyline clip-path="url(#clip662)" style="stroke:#3da44d; stroke-linecap:round; stroke-linejoin:round; stroke-width:4; stroke-opacity:1; fill:none" points="211.556,845.142 232.554,842.707 253.553,840.272 274.551,837.836 295.549,835.401 316.548,832.966 337.546,830.53 358.544,828.095 379.543,825.66 400.541,823.225 421.539,820.789 442.538,818.354 463.536,815.919 484.534,813.483 505.533,811.048 526.531,808.613 547.529,806.178 568.528,803.742 589.526,801.307 610.524,798.872 631.523,796.437 652.521,794.001 673.519,791.566 694.518,789.131 715.516,786.695 736.514,784.26 757.513,781.825 778.511,779.39 799.509,776.954 820.508,774.519 841.506,772.084 862.504,769.648 883.503,767.213 904.501,764.778 925.499,762.343 946.498,759.907 967.496,757.472 988.494,755.037 1009.49,752.602 1030.49,750.166 1051.49,747.731 1072.49,745.296 1093.49,742.86 1114.48,740.425 1135.48,737.99 1156.48,735.555 1177.48,733.119 1198.48,730.684 1219.48,728.249 1240.47,725.814 1261.47,723.378 1282.47,720.943 1303.47,718.508 1324.47,716.072 1345.47,713.637 1366.46,711.202 1387.46,708.767 1408.46,706.331 1429.46,703.896 1450.46,701.461 1471.46,699.025 1492.45,696.59 1513.45,694.155 1534.45,691.72 1555.45,689.284 1576.45,686.849 1597.45,684.414 1618.44,681.979 1639.44,679.543 1660.44,677.108 1681.44,674.673 1702.44,672.237 1723.44,669.802 1744.43,667.367 1765.43,664.932 1786.43,662.496 1807.43,660.061 1828.43,657.626 1849.43,655.19 1870.42,652.755 1891.42,650.32 1912.42,647.885 1933.42,645.449 1954.42,643.014 1975.42,640.579 1996.41,638.144 2017.41,635.708 2038.41,633.273 2059.41,630.838 2080.41,628.402 2101.41,625.967 2122.4,623.532 2143.4,621.097 2164.4,618.661 2185.4,616.226 2206.4,613.791 2227.4,611.355 2248.39,608.92 2269.39,606.485 2290.39,604.05 "/>
<polyline clip-path="url(#clip662)" style="stroke:#c271d2; stroke-linecap:round; stroke-linejoin:round; stroke-width:4; stroke-opacity:1; fill:none" points="211.556,764.778 232.554,767.213 253.553,769.648 274.551,772.084 295.549,774.519 316.548,776.954 337.546,779.39 358.544,781.825 379.543,784.26 400.541,786.695 421.539,789.131 442.538,791.566 463.536,794.001 484.534,796.437 505.533,798.872 526.531,801.307 547.529,803.742 568.528,806.178 589.526,808.613 610.524,811.048 631.523,813.483 652.521,815.919 673.519,818.354 694.518,820.789 715.516,823.225 736.514,825.66 757.513,828.095 778.511,830.53 799.509,832.966 820.508,835.401 841.506,837.836 862.504,840.272 883.503,842.707 904.501,845.142 925.499,847.577 946.498,850.013 967.496,852.448 988.494,854.883 1009.49,857.318 1030.49,859.754 1051.49,862.189 1072.49,864.624 1093.49,867.06 1114.48,869.495 1135.48,871.93 1156.48,874.365 1177.48,876.801 1198.48,879.236 1219.48,881.671 1240.47,884.106 1261.47,886.542 1282.47,888.977 1303.47,891.412 1324.47,893.848 1345.47,896.283 1366.46,898.718 1387.46,901.153 1408.46,903.589 1429.46,906.024 1450.46,908.459 1471.46,910.895 1492.45,913.33 1513.45,915.765 1534.45,918.2 1555.45,920.636 1576.45,923.071 1597.45,925.506 1618.44,927.941 1639.44,930.377 1660.44,932.812 1681.44,935.247 1702.44,937.683 1723.44,940.118 1744.43,942.553 1765.43,944.988 1786.43,947.424 1807.43,949.859 1828.43,952.294 1849.43,954.73 1870.42,957.165 1891.42,959.6 1912.42,962.035 1933.42,964.471 1954.42,966.906 1975.42,969.341 1996.41,971.776 2017.41,974.212 2038.41,976.647 2059.41,979.082 2080.41,981.518 2101.41,983.953 2122.4,986.388 2143.4,988.823 2164.4,991.259 2185.4,993.694 2206.4,996.129 2227.4,998.565 2248.39,1001 2269.39,1003.44 2290.39,1005.87 "/>
<polyline clip-path="url(#clip662)" style="stroke:#ac8d18; stroke-linecap:round; stroke-linejoin:round; stroke-width:8; stroke-opacity:1; fill:none" points="1560.87,804.96 1560.71,802.702 1560.26,800.447 1559.49,798.196 1558.42,795.951 1557.05,793.716 1555.38,791.491 1553.4,789.28 1551.13,787.084 1548.56,784.906 1545.7,782.748 1542.55,780.612 1539.11,778.499 1535.38,776.413 1531.37,774.355 1527.09,772.327 1522.54,770.332 1517.71,768.37 1512.63,766.445 1507.28,764.558 1501.68,762.71 1495.84,760.905 1489.75,759.142 1483.43,757.425 1476.88,755.755 1470.1,754.134 1463.11,752.562 1455.91,751.042 1448.51,749.576 1440.91,748.164 1433.12,746.808 1425.16,745.51 1417.02,744.27 1408.72,743.09 1400.27,741.972 1391.66,740.915 1382.92,739.921 1374.05,738.992 1365.05,738.128 1355.95,737.33 1346.74,736.599 1337.43,735.935 1328.04,735.339 1318.58,734.812 1309.04,734.354 1299.45,733.965 1289.81,733.647 1280.14,733.399 1270.43,733.222 1260.71,733.116 1250.97,733.08 1241.24,733.116 1231.52,733.222 1221.81,733.399 1212.13,733.647 1202.5,733.965 1192.91,734.354 1183.37,734.812 1173.91,735.339 1164.52,735.935 1155.21,736.599 1146,737.33 1136.89,738.128 1127.9,738.992 1119.03,739.921 1110.29,740.915 1101.68,741.972 1093.23,743.09 1084.93,744.27 1076.79,745.51 1068.82,746.808 1061.04,748.164 1053.44,749.576 1046.04,751.042 1038.84,752.562 1031.85,754.134 1025.07,755.755 1018.52,757.425 1012.2,759.142 1006.11,760.905 1000.27,762.71 994.668,764.558 989.323,766.445 984.236,768.37 979.413,770.332 974.858,772.327 970.575,774.355 966.568,776.413 962.843,778.499 959.402,780.612 956.248,782.748 953.386,784.906 950.817,787.084 948.544,789.28 946.57,791.491 944.897,793.716 943.525,795.951 942.457,798.196 941.693,800.447 941.234,802.702 941.081,804.96 941.234,807.218 941.693,809.473 942.457,811.724 943.525,813.969 944.897,816.204 946.57,818.429 948.544,820.64 950.817,822.836 953.386,825.014 956.248,827.172 959.402,829.308 962.843,831.421 966.568,833.507 970.575,835.565 974.858,837.593 979.413,839.588 984.236,841.55 989.323,843.475 994.668,845.362 1000.27,847.21 1006.11,849.015 1012.2,850.778 1018.52,852.495 1025.07,854.165 1031.85,855.786 1038.84,857.358 1046.04,858.878 1053.44,860.344 1061.04,861.756 1068.82,863.112 1076.79,864.41 1084.93,865.65 1093.23,866.83 1101.68,867.948 1110.29,869.005 1119.03,869.999 1127.9,870.928 1136.89,871.792 1146,872.59 1155.21,873.321 1164.52,873.985 1173.91,874.581 1183.37,875.108 1192.91,875.566 1202.5,875.955 1212.13,876.273 1221.81,876.521 1231.52,876.698 1241.24,876.804 1250.97,876.84 1260.71,876.804 1270.43,876.698 1280.14,876.521 1289.81,876.273 1299.45,875.955 1309.04,875.566 1318.58,875.108 1328.04,874.581 1337.43,873.985 1346.74,873.321 1355.95,872.59 1365.05,871.792 1374.05,870.928 1382.92,869.999 1391.66,869.005 1400.27,867.948 1408.72,866.83 1417.02,865.65 1425.16,864.41 1433.12,863.112 1440.91,861.756 1448.51,860.344 1455.91,858.878 1463.11,857.358 1470.1,855.786 1476.88,854.165 1483.43,852.495 1489.75,850.778 1495.84,849.015 1501.68,847.21 1507.28,845.362 1512.63,843.475 1517.71,841.55 1522.54,839.588 1527.09,837.593 1531.37,835.565 1535.38,833.507 1539.11,831.421 1542.55,829.308 1545.7,827.172 1548.56,825.014 1551.13,822.836 1553.4,820.64 1555.38,818.429 1557.05,816.204 1558.42,813.969 1559.49,811.724 1560.26,809.473 1560.71,807.218 "/>
</svg>
